<?xml version="1.0" encoding="UTF-8"?>
<!DOCTYPE svg PUBLIC "-//W3C//DTD SVG 1.1//EN" "http://www.w3.org/Graphics/SVG/1.1/DTD/svg11.dtd">
<!-- Creator: CorelDRAW 2019 (64-Bit) -->
<svg xmlns="http://www.w3.org/2000/svg" xml:space="preserve" width="400px" height="600px" version="1.1" style="shape-rendering:geometricPrecision; text-rendering:geometricPrecision; image-rendering:optimizeQuality; fill-rule:evenodd; clip-rule:evenodd"
viewBox="0 0 400 600"
 xmlns:xlink="http://www.w3.org/1999/xlink"
 xmlns:xodm="http://www.corel.com/coreldraw/odm/2003">
 <defs>
  <style type="text/css">
   <![CDATA[
    .fil0 {fill:none}
    .fil1 {fill:white}
   ]]>
  </style>
 </defs>
 <g id="Layer_x0020_1">
  <metadata id="CorelCorpID_0Corel-Layer"/>
  <rect class="fil0" width="400" height="600"/>
  <g>
   <path class="fil1" d="M13.14 206.6l157.67 -0.05c2.29,-2.96 4.6,-5.81 11.46,-5.81l35.46 0c6.81,0 8.66,2.84 10.76,6.07 0.06,0.08 -0.08,-0.12 0.3,-0.18l0 -0.01 0.13 0c0.05,0 0.11,0 0.18,0 96.66,-0.06 113.42,-0.05 133.38,-0.05l24.41 0 -0.04 -18.05c-87.87,0 -64.93,-0.01 -76.45,-0.01 -67.69,0.03 -18.48,0.06 -83.05,0.06 -2.22,2.46 -5.17,4.99 -12.66,4.99l-32.42 0c-5.61,0 -8.08,-2.08 -10.66,-4.23l0.01 -0.02c-0.43,-0.36 -0.89,-0.74 -1.5,-0.74l0 -0.03 -157.01 -0.05 0.03 18.11zm-8.07 8.3l166.06 -0.04c7.03,0 4.8,-5.79 11.14,-5.79l35.46 0c5.58,0 2.2,5.47 11.06,5.85 55.44,-0.03 110.8,-0.02 166.21,-0.02l-0.07 -34.71c-56.37,0 -112.7,0.04 -169.1,0.04 -4.79,0 -2.82,4.99 -11.14,4.99l-32.42 0c-2.72,0 -4.09,-1.14 -5.52,-2.34l0 0 0 0c-1.54,-1.29 -3.16,-2.65 -6.63,-2.65l-165.12 -0.04 0.07 34.71zm166.54 -25.57l0.03 0 -0.02 -0.02 -0.01 0.02z"/>
  </g>
 </g>
</svg>
