<?xml version="1.0" encoding="UTF-8"?>
<!DOCTYPE svg PUBLIC "-//W3C//DTD SVG 1.1//EN" "http://www.w3.org/Graphics/SVG/1.1/DTD/svg11.dtd">
<!-- Creator: CorelDRAW 2019 (64-Bit) -->
<svg xmlns="http://www.w3.org/2000/svg" xml:space="preserve" width="400px" height="600px" version="1.1" style="shape-rendering:geometricPrecision; text-rendering:geometricPrecision; image-rendering:optimizeQuality; fill-rule:evenodd; clip-rule:evenodd"
viewBox="0 0 400 600"
 xmlns:xlink="http://www.w3.org/1999/xlink"
 xmlns:xodm="http://www.corel.com/coreldraw/odm/2003">
 <defs>
  <style type="text/css">
   <![CDATA[
    .fil0 {fill:none}
    .fil1 {fill:white}
   ]]>
  </style>
 </defs>
 <g id="Layer_x0020_1">
  <metadata id="CorelCorpID_0Corel-Layer"/>
  <rect class="fil0" width="400" height="600"/>
  <path class="fil1" d="M281.2 168.01l-45.6 0.01c-6.85,0 -6.65,4.99 -12.47,4.99l-14.85 0 0 -56.8 24.71 0c0.01,-0.09 28.34,-39.39 30.92,-43.03 0.57,-0.85 1.16,-1.53 1.76,-2.07 6.21,-5.5 14.03,4.17 15.6,11.26 0.42,1.9 0.79,3.97 1.1,6.18 3.67,25.79 1.37,53.18 -1.17,79.46zm-40.75 182.61c-17.48,-3.71 -12.24,1.27 -32.5,1.27l0.03 -129.6 14.5 0c6.51,0 4.22,5.78 11.43,5.78l41.85 0c-2.13,21.3 -23.99,108.72 -35.31,122.55z"/>
 </g>
</svg>
