<?xml version="1.0" encoding="UTF-8"?>
<!DOCTYPE svg PUBLIC "-//W3C//DTD SVG 1.1//EN" "http://www.w3.org/Graphics/SVG/1.1/DTD/svg11.dtd">
<!-- Creator: CorelDRAW 2019 (64-Bit) -->
<svg xmlns="http://www.w3.org/2000/svg" xml:space="preserve" width="400px" height="600px" version="1.1" style="shape-rendering:geometricPrecision; text-rendering:geometricPrecision; image-rendering:optimizeQuality; fill-rule:evenodd; clip-rule:evenodd"
viewBox="0 0 400 600"
 xmlns:xlink="http://www.w3.org/1999/xlink"
 xmlns:xodm="http://www.corel.com/coreldraw/odm/2003">
 <defs>
  <style type="text/css">
   <![CDATA[
    .fil0 {fill:none}
    .fil1 {fill:white}
   ]]>
  </style>
 </defs>
 <g id="Layer_x0020_1">
  <metadata id="CorelCorpID_0Corel-Layer"/>
  <rect class="fil0" width="400" height="600"/>
  <g>
   <path class="fil1" d="M189.39 370.4c0.03,4.57 0.03,10.31 0.03,16.96 0.02,45.84 0.05,135.39 8.34,177.77 0.62,3.15 1.05,5.92 1.43,8.44 0.85,5.52 1.36,8.8 2.37,8.8 1.46,0 2.12,-3.81 3.22,-10.16 0.4,-2.37 0.85,-4.93 1.29,-7.16 8.68,-43.33 7.5,-135.88 6.93,-180.72 -0.07,-5.42 -0.13,-10.15 -0.16,-14.04 -2.6,0.03 -5.59,0.06 -8.68,0.08 -5.1,0.04 -10.46,0.05 -14.77,0.03zm-8.43 -8.56c0.73,21.45 -1.99,150.62 8.63,204.88 2.89,14.77 1.8,23.99 11.97,23.99 10.17,0 9.72,-9.25 12.69,-24.04 10.86,-54.23 6.54,-183.07 6.88,-204.87 -0.01,0.18 -40.12,0.58 -40.17,0.04z"/>
  </g>
 </g>
</svg>
