<?xml version="1.0" encoding="UTF-8"?>
<!DOCTYPE svg PUBLIC "-//W3C//DTD SVG 1.1//EN" "http://www.w3.org/Graphics/SVG/1.1/DTD/svg11.dtd">
<!-- Creator: CorelDRAW 2019 (64-Bit) -->
<svg xmlns="http://www.w3.org/2000/svg" xml:space="preserve" width="400px" height="600px" version="1.1" style="shape-rendering:geometricPrecision; text-rendering:geometricPrecision; image-rendering:optimizeQuality; fill-rule:evenodd; clip-rule:evenodd"
viewBox="0 0 400 600"
 xmlns:xlink="http://www.w3.org/1999/xlink"
 xmlns:xodm="http://www.corel.com/coreldraw/odm/2003">
 <defs>
  <style type="text/css">
   <![CDATA[
    .fil0 {fill:none}
    .fil1 {fill:white}
   ]]>
  </style>
 </defs>
 <g id="Layer_x0020_1">
  <metadata id="CorelCorpID_0Corel-Layer"/>
  <rect class="fil0" width="400" height="600"/>
  <path class="fil1" d="M118.95 168.01l45.59 0.01c6.86,0 6.65,4.99 12.47,4.99l14.86 0 0 -56.8 -24.19 0c-0.05,-0.3 -30.48,-41.67 -31.44,-43.03 -0.57,-0.84 -1.16,-1.53 -1.77,-2.06 -6.21,-5.51 -14.02,4.16 -15.6,11.26 -0.42,1.89 -0.78,3.96 -1.1,6.18 -3.66,25.78 -1.37,53.17 1.18,79.45zm40.49 182.54c17.47,-3.71 12.24,1.28 32.5,1.28l-0.03 -129.61 -14.51 0c-6.51,0 -4.22,5.79 -11.43,5.79l-41.84 0c2.13,21.3 23.99,108.72 35.31,122.54z"/>
 </g>
</svg>
