<?xml version="1.0" encoding="UTF-8"?>
<!DOCTYPE svg PUBLIC "-//W3C//DTD SVG 1.1//EN" "http://www.w3.org/Graphics/SVG/1.1/DTD/svg11.dtd">
<!-- Creator: CorelDRAW 2019 (64-Bit) -->
<svg xmlns="http://www.w3.org/2000/svg" xml:space="preserve" width="400px" height="600px" version="1.1" style="shape-rendering:geometricPrecision; text-rendering:geometricPrecision; image-rendering:optimizeQuality; fill-rule:evenodd; clip-rule:evenodd"
viewBox="0 0 400 600"
 xmlns:xlink="http://www.w3.org/1999/xlink"
 xmlns:xodm="http://www.corel.com/coreldraw/odm/2003">
 <defs>
  <style type="text/css">
   <![CDATA[
    .fil0 {fill:none}
    .fil1 {fill:white}
   ]]>
  </style>
 </defs>
 <g id="Layer_x0020_1">
  <metadata id="CorelCorpID_0Corel-Layer"/>
  <rect class="fil0" width="400" height="600"/>
  <g>
   <path class="fil1" d="M126.51 159.71l38.03 0.01c6.54,0 9.35,2.3 12.05,4.5 0.29,0.23 0.29,0.46 0.42,0.46l6.56 0 0 -40.13 -15.89 0c-4.2,0 -7.68,-3.11 -8.25,-7.16 -0.89,-2.37 -13.41,-16.81 -22.04,-28.57 -3.48,-4.74 -6.29,-8.57 -7.42,-10.12 -0.06,0.06 -0.12,0.12 -0.17,0.19 -1.39,1.56 -2.44,3.57 -2.82,5.28 -0.09,0.42 -0.26,1.31 -0.49,2.61 0,0.01 0,0.02 -0.01,0.03l0.01 0c-0.23,1.29 -0.39,2.25 -0.48,2.89 0,0.01 0,0.02 -0.01,0.03l0.01 0c-1.76,12.42 -2.09,25.23 -1.68,38.11 0.35,10.58 1.2,21.28 2.18,31.87zm-7.56 8.3l45.59 0.01c6.86,0 6.65,4.99 12.47,4.99l14.86 0 0 -56.8 -24.19 0c-0.05,-0.3 -30.48,-41.67 -31.44,-43.03 -0.57,-0.84 -1.16,-1.53 -1.77,-2.06 -6.21,-5.51 -14.02,4.16 -15.6,11.26 -0.42,1.89 -0.78,3.96 -1.1,6.18 -3.66,25.78 -1.37,53.17 1.18,79.45zm40.49 182.54c17.47,-3.71 12.24,1.28 32.5,1.28l-0.03 -129.61 -14.51 0c-6.51,0 -4.22,5.79 -11.43,5.79l-41.84 0c2.13,21.3 23.99,108.72 35.31,122.54zm4.04 -9.2c7.18,-1.07 10.21,-0.34 14.36,0.67 1.49,0.36 3.2,0.78 5.79,1.08l-0.02 -112.54 -5.39 0c-2.31,2.92 -4.9,5.78 -12.25,5.78l-32.2 0c2.76,15.33 8.9,41.12 15.56,64.25 5,17.36 10.17,32.95 14.15,40.76z"/>
  </g>
 </g>
</svg>
