<?xml version="1.0" encoding="UTF-8"?>
<!DOCTYPE svg PUBLIC "-//W3C//DTD SVG 1.1//EN" "http://www.w3.org/Graphics/SVG/1.1/DTD/svg11.dtd">
<!-- Creator: CorelDRAW 2019 (64-Bit) -->
<svg xmlns="http://www.w3.org/2000/svg" xml:space="preserve" width="400px" height="600px" version="1.1" style="shape-rendering:geometricPrecision; text-rendering:geometricPrecision; image-rendering:optimizeQuality; fill-rule:evenodd; clip-rule:evenodd"
viewBox="0 0 400 600"
 xmlns:xlink="http://www.w3.org/1999/xlink"
 xmlns:xodm="http://www.corel.com/coreldraw/odm/2003">
 <defs>
  <style type="text/css">
   <![CDATA[
    .fil0 {fill:none}
    .fil1 {fill:white}
   ]]>
  </style>
 </defs>
 <g id="Layer_x0020_1">
  <metadata id="CorelCorpID_0Corel-Layer"/>
  <rect class="fil0" width="400" height="600"/>
  <g>
   <path class="fil1" d="M273.64 159.71l-38.04 0.01c-6.53,0 -9.35,2.3 -12.05,4.5 -0.28,0.23 -0.28,0.45 -0.42,0.45l-6.55 0 0 -40.12 16.41 0c4.2,0 7.67,-3.11 8.25,-7.16 0.66,-2.1 6.78,-7.89 13.6,-17.37l15.34 -21.32c0.06,0.06 0.11,0.12 0.17,0.19 1.38,1.56 2.44,3.57 2.82,5.28 0.09,0.41 0.26,1.3 0.49,2.61 0,0.01 0,0.02 0,0.03l0 0c0.23,1.29 0.39,2.25 0.48,2.88 0,0.01 0,0.03 0,0.03l0 0.01c1.76,12.41 2.09,25.23 1.67,38.1 -0.34,10.59 -1.19,21.29 -2.17,31.88zm7.56 8.3l-45.6 0.01c-6.85,0 -6.65,4.99 -12.47,4.99l-14.85 0 0 -56.8 24.71 0c0.01,-0.09 28.34,-39.39 30.92,-43.03 0.57,-0.85 1.16,-1.53 1.76,-2.07 6.21,-5.5 14.03,4.17 15.6,11.26 0.42,1.9 0.79,3.97 1.1,6.18 3.67,25.79 1.37,53.18 -1.17,79.46zm-40.75 182.61c-17.48,-3.71 -12.24,1.27 -32.5,1.27l0.03 -129.6 14.5 0c6.51,0 4.22,5.78 11.43,5.78l41.85 0c-2.13,21.3 -23.99,108.72 -35.31,122.55zm-4.04 -9.2c-7.19,-1.08 -10.22,-0.34 -14.37,0.67 -1.49,0.36 -3.19,0.77 -5.79,1.07l0.02 -112.54 5.38 0c0.03,0.04 0.06,0.07 0.09,0.11 2.3,2.88 4.91,5.68 12.17,5.68l32.2 0c-2.76,15.32 -8.89,41.11 -15.56,64.24 -5,17.37 -10.17,32.96 -14.14,40.77z"/>
  </g>
 </g>
</svg>
