<?xml version="1.0" encoding="UTF-8"?>
<!DOCTYPE svg PUBLIC "-//W3C//DTD SVG 1.1//EN" "http://www.w3.org/Graphics/SVG/1.1/DTD/svg11.dtd">
<!-- Creator: CorelDRAW 2019 (64-Bit) -->
<svg xmlns="http://www.w3.org/2000/svg" xml:space="preserve" width="400px" height="600px" version="1.1" style="shape-rendering:geometricPrecision; text-rendering:geometricPrecision; image-rendering:optimizeQuality; fill-rule:evenodd; clip-rule:evenodd"
viewBox="0 0 400 600"
 xmlns:xlink="http://www.w3.org/1999/xlink"
 xmlns:xodm="http://www.corel.com/coreldraw/odm/2003">
 <defs>
  <style type="text/css">
   <![CDATA[
    .fil0 {fill:none}
    .fil1 {fill:white}
   ]]>
  </style>
 </defs>
 <g id="Layer_x0020_1">
  <metadata id="CorelCorpID_0Corel-Layer"/>
  <rect class="fil0" width="400" height="600"/>
  <g>
   <path class="fil1" d="M150.03 60.37c1.81,2.56 5.77,7.98 10.38,14.3 5.61,7.68 12.02,16.46 16.11,22.47l46.81 0c1.53,-2.16 3.41,-4.69 5.5,-7.55 8.02,-10.98 19.47,-26.65 21.11,-28.97 0.01,-0.02 0.02,-0.03 0.03,-0.05 0.45,-0.77 0.63,-1.75 0.65,-2.79 0.03,-1.72 -0.34,-3.64 -0.8,-5.42 -3.27,-12.47 -10.97,-21.57 -20.71,-27.29 -8.35,-4.91 -18.21,-7.41 -28.14,-7.48 -9.94,-0.06 -19.91,2.3 -28.45,7.11 -10.09,5.67 -18.17,14.83 -21.74,27.48 -0.2,0.71 -0.53,1.77 -0.83,2.75 -0.69,2.23 -1.11,3.58 0.08,5.44l0 0zm-6.8 4.79c2.58,3.65 29.19,39.9 29.26,40.31 19.87,0 35.18,0 55.04,0 0.01,-0.04 26.79,-36.64 29.22,-40.07 3.06,-4.56 2.35,-10.37 1.11,-15.12 -14.27,-54.48 -99.75,-54.7 -115.09,-0.35 -1.79,6.36 -3.66,9.11 0.46,15.23z"/>
  </g>
 </g>
</svg>
