<?xml version="1.0" encoding="UTF-8"?>
<!DOCTYPE svg PUBLIC "-//W3C//DTD SVG 1.1//EN" "http://www.w3.org/Graphics/SVG/1.1/DTD/svg11.dtd">
<!-- Creator: CorelDRAW 2019 (64-Bit) -->
<svg xmlns="http://www.w3.org/2000/svg" xml:space="preserve" width="400px" height="600px" version="1.1" style="shape-rendering:geometricPrecision; text-rendering:geometricPrecision; image-rendering:optimizeQuality; fill-rule:evenodd; clip-rule:evenodd"
viewBox="0 0 400 600"
 xmlns:xlink="http://www.w3.org/1999/xlink"
 xmlns:xodm="http://www.corel.com/coreldraw/odm/2003">
 <defs>
  <style type="text/css">
   <![CDATA[
    .str0 {stroke:white;stroke-width:8.33;stroke-miterlimit:22.9256}
    .fil0 {fill:none}
   ]]>
  </style>
 </defs>
 <g id="Layer_x0020_1">
  <metadata id="CorelCorpID_0Corel-Layer"/>
  <rect class="fil0" width="400" height="600"/>
  <path class="fil0 str0" d="M188.75 209.07l-0.12 -23.85m-21.89 29.64l-0.18 -34.63m-21.87 34.63l-0.17 -34.63m-21.87 34.64l-0.17 -34.65m-21.87 34.65l-0.18 -34.65m-21.87 34.66l-0.18 -34.67m-21.86 34.68l-0.18 -34.69m-21.87 34.69l-0.17 -34.69m-21.87 34.7l-0.18 -34.71m198.55 28.88l-0.12 -23.85m22.19 29.7l-0.17 -34.69m22.22 34.68l-0.18 -34.68m22.22 34.67l-0.18 -34.68m22.23 34.68l-0.18 -34.68m22.22 34.68l-0.17 -34.69m22.22 34.69l-0.18 -34.7m22.22 34.7l-0.18 -34.71m22.23 34.71l-0.18 -34.71"/>
 </g>
</svg>
