<?xml version="1.0" encoding="UTF-8" standalone="no"?>
<!-- Created with Inkscape (http://www.inkscape.org/) -->

<svg
   xmlns:dc="http://purl.org/dc/elements/1.1/"
   xmlns:cc="http://creativecommons.org/ns#"
   xmlns:rdf="http://www.w3.org/1999/02/22-rdf-syntax-ns#"
   xmlns:svg="http://www.w3.org/2000/svg"
   xmlns="http://www.w3.org/2000/svg"
   xmlns:sodipodi="http://sodipodi.sourceforge.net/DTD/sodipodi-0.dtd"
   xmlns:inkscape="http://www.inkscape.org/namespaces/inkscape"
   version="1.1"
   id="svg129"
   width="512"
   height="512"
   viewBox="0 0 512 512"
   sodipodi:docname="BAP.svg"
   inkscape:version="0.92.4 (5da689c313, 2019-01-14)">
  <metadata
     id="metadata135">
    <rdf:RDF>
      <cc:Work
         rdf:about="">
        <dc:format>image/svg+xml</dc:format>
        <dc:type
           rdf:resource="http://purl.org/dc/dcmitype/StillImage" />
        <dc:title></dc:title>
      </cc:Work>
    </rdf:RDF>
  </metadata>
  <defs
     id="defs133" />
  <sodipodi:namedview
     pagecolor="#ffffff"
     bordercolor="#666666"
     borderopacity="1"
     objecttolerance="10"
     gridtolerance="10"
     guidetolerance="10"
     inkscape:pageopacity="0"
     inkscape:pageshadow="2"
     inkscape:window-width="1920"
     inkscape:window-height="1017"
     id="namedview131"
     showgrid="false"
     inkscape:pagecheckerboard="true"
     inkscape:zoom="0.43212893"
     inkscape:cx="582.56716"
     inkscape:cy="282.08454"
     inkscape:window-x="-8"
     inkscape:window-y="-8"
     inkscape:window-maximized="1"
     inkscape:current-layer="svg129" />
  <g
     id="g159"
     transform="matrix(0.97707306,0,0,0.98938017,-15.275494,-12.070545)">
    <path
       style="display:inline;fill:#fefefe;stroke-width:1.0666666"
       d="m 283.4623,529.03767 c -15.87214,-3.9882 -30.8749,-20.53263 -44.05412,-48.58113 -3.28432,-6.98982 -6.07198,-12.80924 -6.19481,-12.93207 -0.12281,-0.12282 -8.81249,-1.95225 -19.31038,-4.06542 -41.10869,-8.27492 -73.93184,-22.32041 -88.46174,-37.85404 -8.09684,-8.65618 -9.42393,-12.79433 -10.15087,-31.65234 -0.34305,-8.89935 -0.87588,-16.4315 -1.18406,-16.73812 -0.30819,-0.30662 -5.79417,-0.0475 -12.19106,0.57579 -19.846539,1.93382 -35.920785,-0.97722 -49.574536,-8.97793 -9.324262,-5.46374 -25.573479,-22.34457 -29.618734,-30.77003 -5.594857,-11.65298 -7.073679,-18.97826 -7.087787,-35.10907 -0.01115,-12.74357 0.312775,-15.38158 2.815974,-22.93333 4.343279,-13.10297 9.518167,-20.8314 21.816487,-32.5818 6.013333,-5.74543 10.92095,-10.84493 10.905815,-11.33221 -0.01514,-0.4873 -2.055135,-1.81974 -4.533333,-2.96099 -5.974146,-2.75121 -14.645628,-11.56796 -17.891929,-18.19166 -2.313362,-4.72015 -2.613885,-6.74366 -2.613885,-17.6 0,-11.58524 0.17459,-12.58183 3.142829,-17.9401 1.728556,-3.1204 4.754762,-7.08874 6.724901,-8.81855 6.481744,-5.69104 22.78619,-12.85673 49.858191,-21.91231 14.670737,-4.90736 26.728367,-8.92396 26.794727,-8.92576 0.0663,-0.002 0.94806,-2.76328 1.95934,-6.13661 9.70763,-32.3818 17.78634,-46.164087 39.41292,-67.238448 14.12092,-13.760345 27.67244,-23.047514 47.57375,-32.603393 15.13288,-7.266256 24.79847,-10.856951 38.93333,-14.463457 37.85556,-9.6588345 85.91589,-9.4395292 123.09244,0.561687 45.36788,12.20484 83.16072,37.046014 104.76763,68.863604 6.49676,9.566896 15.70214,29.433297 17.51631,37.802417 1.06426,4.90974 1.90278,18.41576 2.52956,40.74379 0.51564,18.36973 1.10776,33.55933 1.31579,33.75466 0.20805,0.19532 3.97825,1.41208 8.37825,2.70391 10.87128,3.19177 24.45604,9.94521 29.62764,14.72888 5.13089,4.74602 6.62493,9.41892 6.63308,20.74635 0.005,7.29463 -0.22303,8.26666 -1.94146,8.26666 -2.58756,0 -6.58593,4.36591 -6.58593,7.19133 0,1.2396 1.32,3.24344 2.93334,4.45298 1.61333,1.20953 3.4664,2.64077 4.11793,3.18052 0.65152,0.53977 1.51165,3.87224 1.91139,7.40548 0.91258,8.06604 -0.71061,12.27485 -7.93912,20.58566 -5.76633,6.62968 -6.10815,7.31736 -3.63723,7.31736 3.21955,0 7.94703,3.22196 7.94703,5.41621 0,1.44595 1.06674,2.5333 3.22251,3.2848 1.77239,0.61786 3.69239,2.00134 4.26667,3.07439 1.44423,2.69856 1.32466,3.15776 -0.82252,3.1591 -1.4926,9.2e-4 -1.8994,1.01622 -2.03004,5.06666 -0.0898,2.78603 -1.16986,7.60328 -2.4,10.70499 -1.23015,3.10172 -2.23662,6.54351 -2.23662,7.64844 0,1.6881 -1.14989,2.13986 -7.2,2.82873 -3.96,0.45088 -12.19457,0.80001 -18.29905,0.77585 -9.52389,-0.0377 -11.30318,-0.32307 -12.53733,-2.01088 -1.1475,-1.5693 -1.70703,-1.69856 -2.76762,-0.63936 -1.50927,1.50729 -1.58064,14.09403 -0.27955,49.30298 0.99598,26.95236 0.2291,30.73287 -8.07794,39.82211 -14.60838,15.98388 -42.04643,27.23277 -96.35874,39.50455 -4.06279,0.91799 -8.27528,2.47305 -9.3611,3.45569 -1.0858,0.98264 -4.20282,6.01346 -6.92669,11.1796 -7.1916,13.63964 -7.82996,14.09207 -19.51943,13.8341 -5.28755,-0.1167 -10.51739,0.27146 -11.62187,0.86257 -1.10449,0.5911 -4.47785,4.40616 -7.49637,8.47791 -7.32164,9.87636 -18.42712,20.10895 -25.17925,23.20018 -6.23857,2.8561 -16.19276,3.97658 -22.11273,2.48907 z m 21.07101,-4.17176 c 7.40456,-3.54681 21.19687,-17.81792 27.41113,-28.36272 5.9738,-10.13676 7.1892,-14.05298 4.66228,-15.02264 -2.45207,-0.94095 -5.29797,1.90455 -11.91718,11.91553 -6.91537,10.45889 -17.74793,21.09446 -24.54957,24.10315 -10.15553,4.49227 -22.58175,0.33296 -32.8263,-10.98764 -3.02561,-3.34341 -8.84893,-11.919 -12.94073,-19.0569 -8.40422,-14.66068 -13.58668,-21.32139 -16.5894,-21.32139 -1.12763,0 -2.05022,0.248 -2.05022,0.55111 0,0.3031 2.61763,5.77051 5.81696,12.14978 14.14552,28.20537 22.83767,39.34084 35.78304,45.84144 6.22001,3.12341 7.70152,3.44372 14.4,3.11329 5.07651,-0.25042 9.17391,-1.1861 12.79999,-2.92301 z m -2.13333,-20.64603 c 2.34667,-1.32642 6.52464,-5.39704 9.28438,-9.04583 5.55423,-7.34352 7.41096,-13.33588 4.90773,-15.83911 -2.39011,-2.39012 -4.46053,-0.87323 -8.41902,6.16822 -2.00187,3.56095 -5.27688,7.91252 -7.27779,9.67018 -3.25527,2.85948 -4.21796,3.14762 -9.15001,2.73862 -6.78341,-0.56254 -11.52953,-3.92628 -18.39429,-13.03668 -6.95721,-9.23311 -14.28934,-16.60864 -16.5109,-16.60864 -1.04871,0 -1.90676,0.57207 -1.90676,1.27128 0,4.05355 15.52682,25.09334 22.65758,30.70238 8.23716,6.47935 17.70083,7.9974 24.80908,3.97958 z m -4.74041,-9.329 c 1.68055,-1.19667 4.08535,-3.62197 5.344,-5.38957 l 2.28842,-3.2138 -4.11267,-3.6291 c -6.79098,-5.99249 -18.69763,-11.36665 -26.58609,-11.99987 -4.32366,-0.34706 -6.85991,-0.14722 -6.85991,0.54051 0,1.80231 8.12308,13.35834 11.92277,16.96155 4.61426,4.37566 11.42799,8.90604 13.39475,8.90604 0.85423,0 2.92816,-0.9791 4.60873,-2.17576 z m 53.06041,-7.63758 c 1.55345,-1.55345 1.7142,-8.32 0.19765,-8.32 -1.25738,0 -5.30778,6.30136 -5.31366,8.26667 -0.005,1.69883 3.43466,1.73468 5.11601,0.0533 z m 16.85866,-10.67435 c 4.45449,-8.7905 3.20139,-11.01487 -4.41292,-7.83341 -3.30516,1.38098 -3.69783,1.97734 -3.68733,5.6 0.006,2.22994 0.32207,5.93342 0.70137,8.22995 l 0.68965,4.17552 2.07729,-2.56534 c 1.1425,-1.41094 3.22688,-4.83397 4.63194,-7.60672 z m -59.68248,1.78129 c 0.85227,-2.22099 -2.5973,-5.82694 -5.57426,-5.82694 -5.26946,0 -5.8221,1.06367 -2.24434,4.31976 3.75269,3.41529 6.85677,4.01366 7.8186,1.50718 z m -25.83904,-12.83646 c 2.10074,-2.10074 2.42118,-19.55216 0.3962,-21.57714 -1.51628,-1.51628 -10.05252,-1.72483 -10.95313,-0.2676 -0.34414,0.55683 -0.73246,5.27693 -0.86296,10.48912 -0.16903,6.75184 0.18368,9.98782 1.22669,11.25426 1.85765,2.2556 7.9781,2.31646 10.1932,0.10134 z m 16.74559,-0.0875 c 1.61503,-1.94565 2.03419,-14.86394 0.64362,-19.83638 -0.68653,-2.45489 -1.40463,-2.93333 -4.40273,-2.93333 -5.4604,0 -6.31567,1.84353 -5.76071,12.41703 0.38803,7.39281 0.8755,9.49659 2.47079,10.66309 2.66316,1.94735 5.27021,1.83255 7.04903,-0.31041 z m 49.59269,0.14193 c 30.07711,-3.07321 53.6465,-7.12597 75.33791,-12.95437 l 10.4,-2.79445 v -12.64807 c 0,-9.04459 -0.36048,-12.64804 -1.26529,-12.64804 -0.69592,0 -4.65592,0.91542 -8.8,2.03427 -30.42864,8.21534 -65.05874,13.38534 -104.86804,15.65598 l -13.06667,0.7453 v 12.11555 12.11556 h 13.19543 c 7.25748,0 20.33748,-0.72976 29.06666,-1.62168 z m -84.52875,-2.77827 c 0.36667,-1.83333 0.66667,-6.87333 0.66667,-11.2 0,-6.44445 -0.38569,-8.25235 -2.13334,-10 -5.20533,-5.20533 -8.53333,-0.82428 -8.53333,11.23347 0,9.37743 1.02883,11.79759 5.33333,12.54582 1.46667,0.25493 2.96667,0.52889 3.33334,0.60879 0.36666,0.0799 0.96666,-1.35475 1.33333,-3.18808 z m -16.40013,-0.39985 c 1.54802,-1.86525 1.04697,-20.20042 -0.59547,-21.79022 -0.55242,-0.53472 -3.1644,-1.13069 -5.8044,-1.3244 l -4.8,-0.35219 -0.31271,10.13333 c -0.4384,14.20578 -0.1687,14.93333 5.53576,14.93333 2.83103,0 5.16829,-0.62563 5.97682,-1.59985 z m -17.29259,-1.86681 c 2.9729,-3.59756 2.73929,-19.46772 -0.33177,-22.53879 -2.22088,-2.22087 -9.15562,-3.26212 -10.24829,-1.53877 -0.49201,0.77599 -0.9019,6.05661 -0.91089,11.7347 -0.0126,7.97914 0.36436,10.70449 1.65987,12 2.00221,2.00223 8.27894,2.22112 9.83108,0.34286 z m -15.98728,-3.14667 c 0.79815,-0.79815 1.28,-4.75141 1.28,-10.50134 0,-10.67147 -1.20489,-12.61045 -8.09759,-13.03097 l -4.16907,-0.25436 0.29347,10.6123 c 0.22135,8.00423 0.72074,11.08441 2.03199,12.53333 1.98198,2.19007 6.75863,2.54361 8.6612,0.64104 z M 198.8192,453.7794 c 0.8387,-2.18561 0.81261,-16.25416 -0.036,-19.42215 -0.90768,-3.38842 -6.36504,-6.16552 -8.55098,-4.35136 -2.28638,1.89753 -1.68295,22.9136 0.70112,24.41826 2.53348,1.59898 7.17036,1.21986 7.88588,-0.64475 z m -14.81921,-14.62023 c 0,-10.00519 -0.3256,-12.77497 -1.59371,-13.5572 -0.87654,-0.54069 -5.89839,-2.48626 -11.15965,-4.32348 -11.01303,-3.84574 -26.74427,-11.03398 -33.48075,-15.29874 -2.54876,-1.61358 -4.82348,-2.7444 -5.05492,-2.51296 -0.92769,0.92768 -1.27289,15.5319 -0.48464,20.50399 1.09993,6.93822 5.17871,10.49401 20.79339,18.12729 14.17337,6.9287 23.4633,10.23637 27.78028,9.89114 l 3.2,-0.2559 z m 270.9122,1.78589 c 15.29205,-7.75316 26.57686,-17.60608 30.61168,-26.72749 1.91873,-4.3376 4.61917,-22.56341 3.5078,-23.67478 -0.26543,-0.26543 -3.28695,2.19231 -6.7145,5.46164 -7.76554,7.40708 -18.0367,14.09851 -32.33176,21.06345 -6.07865,2.96169 -11.69799,6.21301 -12.48742,7.22516 -1.08811,1.3951 -1.2738,4.26433 -0.76763,11.86117 0.36723,5.51149 0.90557,10.40581 1.19632,10.87625 0.69559,1.12548 7.74304,-1.39942 16.98551,-6.0854 z m -154.9141,-5.29875 c 0.34119,-0.34118 -0.0588,-2.24577 -0.88889,-4.23241 -0.83007,-1.98664 -1.50922,-5.57905 -1.50922,-7.98312 0,-7.09092 -1.3088,-8.49747 -7.90692,-8.49747 -6.85858,0 -7.98527,1.08928 -9.04471,8.74439 -0.82979,5.99567 -2.71485,10.45561 -4.41923,10.45561 -0.56602,0 -1.02914,0.48 -1.02914,1.06666 0,1.13176 23.68637,1.55807 24.79811,0.44634 z m 55.46855,-1.17056 c 4.54667,-0.36225 8.24927,-0.9475 8.22802,-1.30054 -0.0212,-0.35305 -2.05762,-1.6019 -4.52523,-2.77524 -4.63483,-2.20383 -4.58473,-2.1097 -6.81332,-12.8 -0.94674,-4.54142 -3.12918,-5.67386 -8.39004,-4.35347 -4.32017,1.0843 -5.83276,3.55104 -5.83276,9.51213 0,3.57524 -0.78786,7.00958 -2.2218,9.685 l -2.2218,4.14541 6.75513,-0.72732 c 3.71533,-0.40003 10.47514,-1.02371 15.0218,-1.38597 z m -112.38742,-2.74244 c 1.54689,-4.1569 -0.42539,-15.57512 -3.20057,-18.52915 -3.80151,-4.04653 -6.58973,-2.99849 -7.87475,2.95999 -1.40466,6.51324 -3.54942,8.68184 -11.52428,11.65241 l -6.61297,2.46326 5.33334,0.88216 c 20.66449,3.41798 22.80089,3.4691 23.87923,0.57133 z m 18.53015,0.58178 c -4.06245,-0.78345 -5.60939,-4.31866 -5.60939,-12.81913 v -7.76265 l 13.6,-0.14401 13.6,-0.14401 -16,-1.35509 c -14.99587,-1.27002 -30.24631,-1.77953 -23.73333,-0.79289 2.87449,0.43545 2.93547,0.59808 3.03966,8.10685 0.0584,4.21436 0.43802,8.86248 0.84341,10.32915 0.86876,3.14302 5.97082,5.2557 12.3836,5.12787 2.34666,-0.0468 3.19089,-0.29252 1.87605,-0.54609 z m 44.52394,-8.71785 c 0,-5.92209 -0.44318,-8.77053 -1.50122,-9.64863 -3.46438,-2.87517 -4.73571,10.24346 -1.56657,16.16506 2.05606,3.84178 3.06779,1.69272 3.06779,-6.51643 z m 9.00619,6.03206 c 3.22006,-4.59728 1.42916,-14.69599 -2.60619,-14.69599 -2.50834,0 -4.26666,3.66725 -4.26666,8.89876 0,3.42243 2.47889,8.1679 4.26666,8.1679 0.52014,0 1.69292,-1.0668 2.60619,-2.37067 z m -44.8554,-0.16502 c 2.8696,-0.75618 5.8696,-2.26674 6.66667,-3.3568 2.01591,-2.75692 1.80948,-7.33282 -0.41745,-9.25345 -2.4998,-2.15596 -14.20156,-4.4125 -15.60487,-3.00919 -0.58119,0.58119 -1.25934,3.85808 -1.507,7.28198 -0.34976,4.83534 -0.0505,6.62507 1.3403,8.01588 2.10735,2.10734 2.67312,2.12646 9.52235,0.32158 z m 60.30513,-1.34149 c 4.01962,-5.11012 2.10686,-13.18948 -3.12258,-13.18948 -3.32972,0 -5.33334,3.00127 -5.33334,7.98895 0,2.55011 0.29135,5.39583 0.64746,6.3238 1.0096,2.63099 5.34605,2.00717 7.80846,-1.12327 z m 35.27741,-1.53234 c 0,-2.97836 0.15239,-3.12381 1.6762,-1.6 1.98938,1.98939 5.91554,2.19112 7.71047,0.39619 0.704,-0.704 1.28,-4.00523 1.28,-7.33606 0,-7.10059 -1.55691,-9.04589 -6.45567,-8.06614 -2.01564,0.40313 -3.00372,0.25098 -2.60107,-0.40053 0.38528,-0.6234 -1.1012,-1.0506 -3.65572,-1.0506 -5.97665,0 -7.76726,2.89473 -7.34117,11.86783 0.28336,5.96744 0.6278,6.90026 2.98696,8.08964 4.58021,2.30913 6.4,1.76878 6.4,-1.90033 z m 34.66667,1.68332 c 16.10051,-3.00473 16.488,-3.37103 7.16275,-6.77119 -8.06411,-2.94032 -10.89608,-5.62885 -10.89608,-10.34416 0,-2.99571 -0.40721,-3.69178 -2.15974,-3.69178 -2.86728,0 -4.18208,3.71289 -4.9803,14.06394 -0.74064,9.6044 -1.60058,9.0711 10.87337,6.74319 z m -15.89017,-5.39831 c 0.79554,-3.16965 0.0249,-12.96304 -1.10938,-14.09726 -2.53008,-2.53009 -5.13444,9.97097 -3.15299,15.13453 0.99965,2.60507 3.50098,1.99635 4.26237,-1.03727 z m -174.19259,-0.23668 c 2.72351,-3.00945 3.47923,-10.36962 1.39183,-13.55539 -3.48902,-5.32492 -7.04239,-2.20541 -7.04239,6.18252 0,3.08286 0.60875,5.24473 1.74158,6.18489 1.57669,1.30856 1.50096,1.51281 -0.8,2.15762 l -2.54158,0.71224 2.76801,0.10634 c 1.52241,0.0585 3.53955,-0.74622 4.48255,-1.7882 z m -17.34696,-3.55319 c 0.84317,-3.51381 -0.008,-7.35228 -1.63102,-7.35228 -0.73996,0 -2.96401,0.66282 -4.94232,1.47296 -1.9783,0.81012 -6.95693,1.83361 -11.06359,2.27442 l -7.46667,0.80146 3.73333,1.37776 c 2.05334,0.75777 5.77334,1.41428 8.26667,1.45891 3.17704,0.0569 4.53333,0.53644 4.53333,1.60295 0,3.75513 7.62593,2.29924 8.57027,-1.63618 z m 10.13865,-14.44942 c 2.95376,-1.13347 1.5398,-2.21196 -4.48682,-3.42227 -6.49304,-1.30399 -10.03775,-1.47028 -5.72767,-0.2687 3.07303,0.85672 4.05025,3.62234 4.19925,11.8841 0.0677,3.75427 0.78439,6.85401 1.97299,8.53333 1.84282,2.60366 1.87061,2.5175 2.17558,-6.74568 0.23155,-7.03313 0.69904,-9.53273 1.86667,-9.98078 z m 20.11029,13.94323 c 1.15017,-2.99729 0.68996,-6.5496 -1.03384,-7.98023 -1.39338,-1.1564 -1.84724,-1.1331 -2.65033,0.13606 -1.95747,3.09348 -0.83289,9.53141 1.66496,9.53141 0.75446,0 1.66311,-0.75925 2.01921,-1.68724 z m 193.80876,-1.6569 c -7.33501,-7.87321 -0.27413,-21.18919 11.2357,-21.18919 4.00562,0 4.8245,0.4054 6.2028,3.07074 2.07987,4.02201 3.40317,4.42835 13.75409,4.22346 l 8.71276,-0.17248 -7.68332,-0.62752 c -4.22582,-0.34515 -8.2402,-1.18592 -8.92085,-1.86839 -0.69356,-0.69541 -1.05498,-3.15528 -0.82221,-5.59607 0.33583,-3.52146 0.10368,-4.26248 -1.21248,-3.87081 -0.89529,0.26643 -7.86781,2.20727 -15.49447,4.31297 -22.97391,6.34305 -27.55322,8.01909 -25.7772,9.43449 0.84676,0.67481 1.8424,2.96104 2.21257,5.0805 1.09502,6.26983 5.85174,9.29364 14.80619,9.41216 l 5.10821,0.0676 -2.12179,-2.27748 z m 33.38982,-3.96992 c 18.47486,-8.71456 31.5682,-19.28612 35.47884,-28.64563 2.91855,-6.98506 1.43448,-19.50697 -2.31193,-19.50697 -1.85118,0 -2.65138,2.47261 -2.65138,8.1927 0,7.44918 -2.3683,11.29918 -8.5597,13.91498 -4.8544,2.05092 -5.30731,2.54557 -5.31096,5.80055 -0.006,5.98453 -3.37363,10.1451 -9.73981,12.03565 -3.06721,0.91087 -7.04962,1.65879 -8.8498,1.66207 -6.68154,0.0122 -11.00518,1.95758 -12.24316,5.50888 -1.16692,3.34738 -0.14283,6.2185 2.21804,6.2185 0.5427,0 5.92913,-2.33133 11.96986,-5.18073 z m -26.08966,0.46732 c 1.84503,-2.22314 1.04508,-12.79091 -0.99481,-13.14193 -2.91454,-0.50153 -4.49231,1.53233 -5.05391,6.51481 -0.76888,6.8215 2.71738,10.64114 6.04872,6.62712 z m -270.86146,-5.36974 c 0,-3.9855 -2.24242,-8.04967 -4.7162,-8.54764 -1.21943,-0.24547 -4.09927,-0.75111 -6.39964,-1.12366 -5.71198,-0.92506 -9.75122,-5.41818 -10.7283,-11.93378 -0.95539,-6.37104 -3.91756,-12.24509 -7.65912,-15.1882 -2.58617,-2.03428 -2.99861,-2.09492 -3.85389,-0.56661 -1.48435,2.65238 0.21634,12.29491 3.03122,17.18622 3.23161,5.61546 11.58494,13.13365 20.60788,18.54756 8.2222,4.93343 9.71805,5.18373 9.71805,1.62611 z m 15.41296,-2.16985 c -0.99456,-6.63222 0.0397,-10.13645 3.00736,-10.18971 2.14348,-0.0385 2.06206,-0.21564 -0.82032,-1.78499 -1.76,-0.95826 -7.47158,-3.59968 -12.69242,-5.86982 -19.34956,-8.41366 -32.60983,-18.0683 -38.41032,-27.96608 l -2.61733,-4.46614 -0.23175,-95.68778 c -0.12746,-52.62828 0.094,-96.0135 0.49206,-96.4116 0.3981,-0.39809 4.63417,3.09061 9.41349,7.75266 l 8.68969,8.47647 -7.6345,-8.81325 c -9.84628,-11.36652 -11.0586,-13.78635 -10.66074,-21.27924 l 0.31849,-5.99799 9.6,8.45897 c 9.42062,8.30091 15.73213,13.23151 16.93727,13.23151 1.18602,0 3.84533,-6.31279 6.06017,-14.38594 2.661,-9.69942 2.67109,-9.67941 -8.59744,-17.05126 -3.81334,-2.49467 -9.75757,-7.03361 -13.20941,-10.08654 -3.45184,-3.05293 -6.62632,-5.15901 -7.05442,-4.68018 -2.98724,3.34127 -6.39273,23.7079 -6.39855,38.26672 -0.004,11.24857 -0.86436,13.84782 -4.80429,14.52262 -1.51742,0.25989 -2.22828,1.34296 -2.46222,3.75138 -0.25688,2.64471 0.50206,4.30574 3.46667,7.58721 3.48717,3.85987 3.79555,4.73693 3.79555,10.79471 0,3.62641 -0.75765,9.92465 -1.68369,13.99609 -1.59208,6.9999 -1.57758,7.53721 0.26667,9.87722 1.58388,2.00963 1.86715,3.86511 1.50754,9.87464 -0.24355,4.06999 -0.65014,6.44 -0.90354,5.26666 -0.77647,-3.59543 -1.78029,-3.8501 -8.75882,-2.22212 -11.120014,2.59412 -11.037129,3.49868 1.1316,12.34946 l 7.25912,5.27984 0.40786,-5.03693 c 0.22432,-2.7703 0.13008,2.16309 -0.20944,10.96308 -0.83473,21.63554 -0.42401,67.82905 0.72552,81.6 0.51421,6.16 0.73421,12.01036 0.48887,13.0008 -0.39515,1.59529 -1.74234,1.73532 -11.80553,1.22702 -29.670347,-1.49866 -52.795409,-9.89011 -74.410468,-27.00152 -5.205802,-4.12113 -9.828978,-7.49297 -10.273723,-7.49297 -1.254117,0 -1.007126,1.39485 1.846627,10.42858 6.551107,20.73792 25.826359,39.77762 46.944743,46.37106 6.150023,1.92012 10.099952,2.33729 22.399999,2.36577 16.651852,0.0386 20.907462,-0.93412 25.623622,-5.85674 1.6732,-1.74643 3.67098,-3.17534 4.43953,-3.17534 2.4092,0 10.18242,7.8071 12.21347,12.26667 1.06875,2.34667 1.95373,5.61822 1.96662,7.27012 0.0129,1.65191 0.51167,3.91576 1.10841,5.03079 1.12063,2.09391 10.04706,5.29909 14.75795,5.29909 3.53763,0 6.55152,2.88469 6.58078,6.29865 0.0255,2.97039 2.70227,6.94744 5.30961,7.88868 0.88,0.31767 2.94941,0.61547 4.59869,0.66179 2.9564,0.083 2.98857,0.0166 2.28094,-4.70212 z m -25.86629,-13.56033 c -1.54248,-1.54248 -1.70543,-7.93117 -0.22563,-8.84574 1.36476,-0.84347 9.71351,2.85557 11.5983,5.1388 2.56936,3.11255 0.71293,4.98694 -4.9392,4.98694 -2.83441,0 -5.72947,-0.576 -6.43347,-1.28 z m 5.92534,-3.25334 c -0.24151,-0.73333 -1.57855,-1.49943 -2.97119,-1.70244 -2.2107,-0.32226 -2.35274,-0.15303 -1.11918,1.33333 1.67051,2.01284 4.72239,2.28824 4.09037,0.36911 z m 29.91466,19.25334 c 2.08438,-2.08439 1.58182,-8.08342 -0.78321,-9.34915 -3.66935,-1.96376 -5.27194,-1.28996 -5.9861,2.51683 -1.16347,6.20186 3.09831,10.50331 6.76931,6.83232 z m 59.16133,-0.53753 c -1.31194,-0.25318 -3.71194,-0.25974 -5.33334,-0.0145 -1.62139,0.24518 -0.548,0.45233 2.38534,0.46034 2.93333,0.007 4.25993,-0.19259 2.948,-0.44578 z m 94.13686,-0.36045 c 56.72154,-3.69743 96.43243,-12.78094 123.92195,-28.34606 17.47175,-9.89285 26.99034,-21.79187 26.99233,-33.74263 l 8.4e-4,-5.06666 h -4.02144 c -10.10774,0 -30.32517,-8.15467 -34.03482,-13.7279 -2.90413,-4.36301 -2.45277,-13.34888 0.99817,-19.8721 3.15433,-5.96254 6.04862,-8.95623 11.24535,-11.63149 l 3.52059,-1.81239 -6.72059,-3.4114 c -8.82718,-4.4807 -11.94328,-8.92339 -11.1434,-15.88738 0.77339,-6.73321 3.08462,-10.8726 9.51109,-17.03424 2.96426,-2.84211 5.19205,-5.31957 4.95064,-5.50546 -0.24141,-0.18588 -2.67282,-1.61661 -5.40313,-3.1794 -6.45045,-3.6921 -10.02892,-10.46748 -8.98301,-17.00818 1.17452,-7.34508 5.85076,-14.72042 10.74223,-16.9426 5.64327,-2.56372 6.32387,-2.51779 17.96922,1.21254 5.49436,1.76 10.3001,3.2 10.67943,3.2 0.37931,0 0.68967,-11.28613 0.68967,-25.08029 v -25.0803 l -7.73333,6.26995 c -4.25334,3.44848 -11.09334,8.23222 -15.2,10.63054 -14.26894,8.33315 -45.76787,19.13353 -58.66666,20.11567 l -6.4,0.48731 2.49868,-2.18899 c 1.37428,-1.20394 5.93428,-3.18423 10.13334,-4.40063 22.02422,-6.38007 29.43786,-9.07137 40.92288,-14.8558 15.0041,-7.55682 26.06863,-15.72393 30.90758,-22.81392 3.62807,-5.31583 4.56908,-9.23869 2.20418,-9.18865 -0.73334,0.0155 -5.41334,3.14889 -10.4,6.96306 -16.02921,12.26032 -49.39771,26.81708 -72.27923,31.5313 -5.74737,1.18412 -6.89967,1.15567 -8.25925,-0.20392 -1.92202,-1.92202 -3.51759,-10.50698 -3.9442,-21.22169 l -0.31732,-7.9697 3.73334,-1.76091 c 2.05333,-0.96849 9.75915,-3.4814 17.12404,-5.58421 26.2614,-7.49816 52.08865,-20.12339 63.84116,-31.20774 l 6.88361,-6.49227 -5.12713,-9.50773 C 470.30172,101.87847 465.67652,94.236771 462.84342,90.126164 457.26396,82.030827 439.41947,63.704543 432.53331,58.997699 416.80384,48.246254 409.80854,44.011957 399.27996,38.869231 348.90602,14.263871 283.1969,10.447945 227.90681,28.917077 c -27.71332,9.257371 -53.70504,24.346546 -70.25636,40.786461 -16.63755,16.525576 -32.84244,41.094342 -31.27389,47.415422 0.74287,2.9937 4.49215,7.68103 6.14386,7.68103 1.51614,0 22.2344,14.9886 22.81705,16.50698 1.16423,3.0339 -7.77039,27.22635 -10.05507,27.22635 -1.39496,0 -8.35369,-4.80116 -14.61574,-10.0841 -2.93333,-2.47469 -6.65333,-5.35335 -8.26667,-6.39701 -2.88101,-1.86373 -2.93333,-1.85639 -2.93333,0.41141 0,3.76942 2.82688,8.16491 11.79029,18.3327 4.66201,5.28842 8.47637,10.06268 8.47637,10.60948 0,2.6685 -5.33612,0.10571 -11.19999,-5.37915 -2.34667,-2.19498 -5.10667,-4.28386 -6.13334,-4.64196 -1.76846,-0.61683 -1.86666,4.23124 -1.86666,92.15297 0,102.65682 -0.60313,93.56452 6.78788,102.32898 14.83742,17.59462 62.55403,33.78127 119.07877,40.39446 20.48132,2.39624 58.95563,2.91629 85.88487,1.1609 z m -60.76718,-15.06665 c -0.26589,-0.78213 -0.71439,-3.0463 -0.99667,-5.03149 -0.28229,-1.9852 -0.95985,-4.05605 -1.5057,-4.6019 -1.30949,-1.30949 -4.48198,1.86957 -4.48198,4.49125 0,1.09681 -0.48,2.29085 -1.06667,2.65343 -0.61758,0.38169 -1.06667,-0.64493 -1.06667,-2.4384 0,-3.03082 -3.5527,-7.61706 -4.56867,-5.89775 -0.28258,0.47822 -0.86566,2.54949 -1.29573,4.60282 -0.43006,2.05333 -1.26528,4.33333 -1.85604,5.06667 -2.90891,3.61096 -17.45433,-0.0823 -28.67088,-7.28 -8.22597,-5.2786 -9.60196,-8.45889 -10.85575,-25.09082 l -1.07767,-14.29585 -2.77096,-0.011 c -1.52403,-0.006 -8.53096,-0.51366 -15.57096,-1.12797 -31.17376,-2.72028 -42.04977,-9.20771 -43.43181,-25.90669 -0.13481,-1.62876 -1.03827,-3.08037 -2.13353,-3.428 -1.51254,-0.48005 -1.67484,-1.02312 -0.79632,-2.66465 0.60686,-1.13394 1.84079,-2.06171 2.74205,-2.06171 1.84258,0 4.68628,2.4924 4.68628,4.10736 0,1.46079 8.59018,8.69264 10.32533,8.69264 2.65706,0 1.4028,-2.00451 -3.42257,-5.46983 -2.65681,-1.90798 -5.17681,-4.6978 -5.6,-6.19961 -1.27118,-4.51117 -0.75375,-30.05442 0.73073,-36.0726 0.99218,-4.0224 2.28109,-6.28504 4.5572,-8 7.57922,-5.71067 8.10567,-6.5529 8.90212,-14.2419 1.38727,-13.39281 5.57719,-19.95866 15.82666,-24.8013 3.74026,-1.7672 7.09922,-3.99158 7.46435,-4.94309 0.36513,-0.9515 0.15698,-3.98188 -0.46255,-6.73417 -0.61952,-2.75228 -1.52079,-10.52416 -2.00281,-17.27082 -0.70464,-9.86273 -0.58173,-12.737 0.62717,-14.66667 1.33135,-2.12513 1.30284,-2.4 -0.24894,-2.4 -1.5684,0 -1.67414,-1.31641 -1.00669,-12.53333 1.15644,-19.43453 5.67529,-37.51767 10.60809,-42.45046 0.90504,-0.90505 2.12723,-3.42394 2.71598,-5.59754 0.99795,-3.68438 2.77866,-6.68795 11.67074,-19.68533 3.81866,-5.581672 7.01184,-6.883561 5.88654,-2.399999 -0.99112,3.948929 1.004,3.280099 5.34553,-1.791999 5.30719,-6.200257 4.89164,-8.031266 -0.72725,-3.204391 -1.60358,1.377545 -2.26866,1.402857 -4.56528,0.173747 -2.33963,-1.252136 -4.53281,-1.067302 -16.91211,1.425301 -14.69449,2.95877 -20.39757,3.493043 -21.32189,1.997467 -2.0694,-3.348358 18.04416,-22.808815 29.65587,-28.692906 16.38782,-8.304343 40.12762,-12.198702 54.30494,-8.908375 5.20328,1.207592 5.74362,1.803593 4.06788,4.486872 -1.91045,3.059112 -1.1957,3.285829 3.96635,1.258118 6.25825,-2.458308 11.94606,-1.050855 13.08319,3.237447 0.91936,3.467093 3.84623,7.085387 5.73141,7.085387 0.69815,0 2.13815,-0.96 3.2,-2.133333 2.63867,-2.915691 4.10154,-2.678929 3.29532,0.533333 -0.66218,2.638318 -0.59604,2.666666 6.22141,2.666666 11.21344,0 10.84839,4.30955 -0.43418,5.125658 -5.19181,0.375541 -6.41588,0.816104 -6.41588,2.309171 0,1.801913 5.82803,10.698504 7.00844,10.698504 0.32727,0 2.96231,-2.52 5.85563,-5.6 5.22226,-5.559201 5.4933,-5.078337 1.53858,2.729704 -2.6375,5.207387 -1.52416,6.031684 8.17677,6.053961 10.00446,0.02298 11.02567,-0.498188 8.34714,-4.259849 -2.27108,-3.189424 -2.73563,-5.323816 -1.15874,-5.323816 1.65495,0 10.53219,10.53252 14.03004,16.646112 4.45284,7.78277 8.24825,12.15389 10.5531,12.15389 1.04207,0 3.18468,-1.01472 4.76135,-2.25494 3.33813,-2.62577 4.52111,-2.11296 2.75189,1.19288 -1.58345,2.95867 -1.58687,10.25988 -0.006,14.39066 1.78617,4.6695 6.01637,9.83463 9.35813,11.42642 2.50585,1.19363 3.04573,2.29251 3.82432,7.78407 0.49861,3.51683 1.84732,8.70995 2.99712,11.54025 1.1498,2.83032 1.94184,6.14591 1.7601,7.36799 -0.25133,1.68996 -1.22432,0.64296 -4.06379,-4.37296 -6.0979,-10.77192 -6.06387,-10.73726 -7.31805,-7.4529 -0.59259,1.55179 -1.46844,2.99179 -1.94636,3.2 -0.88443,0.38513 -7.80261,12.89972 -7.80261,14.11385 0,0.36557 4.01527,0.66467 8.92282,0.66467 7.41183,0 9.39875,0.37437 11.73333,2.21075 3.86129,3.0373 3.61525,6.76183 -1.02436,15.50738 -3.60799,6.80099 -3.72215,7.31109 -1.92946,8.62194 1.04797,0.76629 2.53367,1.39326 3.30154,1.39326 0.76787,0 1.39613,0.46312 1.39613,1.02915 0,1.51078 -4.18847,3.49577 -5.95002,2.8198 -0.847,-0.32502 -1.51665,0.0503 -1.51665,0.85018 0,2.03389 5.20423,11.33292 8.12392,14.51599 2.56579,2.79725 5.74275,10.53653 5.74275,13.98971 0,1.60388 -0.68989,1.94932 -3.46019,1.73257 -3.18064,-0.24886 -3.82929,0.28941 -8.0289,6.6626 l -4.56871,6.93333 8.29556,0.54235 8.29557,0.54235 -7.81635,2.52009 c -4.299,1.38606 -8.06382,3.16496 -8.36626,3.95313 -0.66469,1.73217 3.53082,7.90875 5.37211,7.90875 0.72098,0 3.18571,-1.92 5.47717,-4.26667 2.29146,-2.34666 4.54887,-4.26666 5.01648,-4.26666 1.56727,0 0.87211,1.9436 -1.85392,5.18329 -2.04062,2.42514 -2.53122,3.90247 -1.9995,6.02102 0.53774,2.14252 0.17828,3.17601 -1.51789,4.36404 -2.28713,1.60197 -2.09092,4.69831 0.29773,4.69831 0.72307,0 1.87392,1.22744 2.55745,2.72763 3.97013,8.71347 -9.38077,12.05458 -64.90035,16.24151 l -10.13333,0.7642 -0.29023,20.68459 c -0.24142,17.20587 -0.013,21.10765 1.35792,23.2 2.07294,3.1637 5.24714,3.22574 7.40516,0.14473 1.35078,-1.92852 1.66048,-5.88618 1.66048,-21.21921 0,-21.03475 -0.34955,-20.13388 7.82058,-20.15487 2.44534,-0.006 10.92609,-0.69385 18.84609,-1.52793 24.30062,-2.55919 35.2,-3.14206 35.2,-1.88242 0,1.54734 -8.0844,3.0332 -27.73334,5.09723 -9.09333,0.95521 -16.69984,1.89551 -16.90336,2.08957 -0.82173,0.7835 8.59234,4.72296 21.4958,8.99525 17.1466,5.67716 18.22986,6.68325 17.24662,16.01808 -0.4004,3.80144 -1.39799,7.86824 -2.21686,9.03734 -0.81888,1.16911 -1.48886,3.8471 -1.48886,5.9511 0,5.83141 -2.02684,7.9027 -6.95112,7.10361 -7.38798,-1.1989 -15.17153,-5.81802 -18.90241,-11.21755 -2.92894,-4.23891 -3.50408,-6.12081 -3.83759,-12.55686 -0.37606,-7.25731 -0.26668,-7.66947 2.64241,-9.95777 2.94311,-2.31505 2.97232,-2.43271 0.96802,-3.8983 -3.12121,-2.28229 -18.69867,-8.067 -20.69041,-7.68342 -2.35976,0.45445 -3.81959,8.7995 -2.59575,14.83852 0.92703,4.57447 1.02774,4.66526 4.84196,4.36481 3.33703,-0.26286 4.112,0.1193 5.40783,2.66667 0.83193,1.63542 2.07442,6.33349 2.76111,10.44016 0.68668,4.10666 1.47752,8.23573 1.75741,9.1757 0.52028,1.74721 8.47072,6.48578 13.26521,7.90624 7.06135,2.09205 13.86666,5.04736 13.86666,6.02179 0,1.38984 -7.02735,0.23283 -14.77432,-2.43252 -7.61686,-2.62058 -9.35632,-2.53303 -13.15354,0.66212 -3.4192,2.87706 -10.0257,3.59469 -15.1516,1.64582 -2.86903,-1.09079 -5.9872,-6.04716 -5.9872,-9.51666 0,-1.16056 -0.77086,-2.88097 -1.71302,-3.82312 -2.19158,-2.1916 -4.68698,-0.40198 -4.68698,3.36136 0,6.09963 -5.15193,9.9326 -13.35049,9.9326 -7.72264,0 -11.13705,-2.38608 -11.16651,-7.80346 -0.0188,-3.45528 -1.72382,-7.12987 -3.30829,-7.12987 -0.59596,0 -1.77211,1.6479 -2.61364,3.66199 -2.07125,4.95716 -5.34347,7.00467 -11.19454,7.00467 -5.4024,0 -7.92421,-1.36291 -9.90193,-5.3515 -1.48011,-2.98502 -5.59354,-3.81461 -13.23356,-2.66891 -5.20616,0.7807 -8.29171,4.29735 -4.87703,5.55844 2.79807,1.03335 3.44606,2.49828 2.36399,5.34432 -1.08956,2.86576 -0.7726,3.05913 6.36209,3.88134 5.20203,0.5995 8.21579,2.85807 7.23258,5.42027 -0.41512,1.08179 -1.89566,1.65856 -4.14586,1.61509 -3.23516,-0.0625 -3.31326,-0.14256 -1.03162,-1.05764 4.18229,-1.67736 1.48179,-3.14141 -5.79442,-3.14141 -7.35202,0 -8.44938,1.52852 -1.97002,2.74406 3.50561,0.65766 5.20921,2.54979 2.36258,2.62406 -0.73333,0.0191 0.99965,1.06326 3.85107,2.32029 4.15167,1.83021 5.53279,2.03149 6.93333,1.01043 6.01126,-4.3825 16.89429,-5.9289 20.93448,-2.97465 1.9365,1.41601 1.92814,1.56796 -0.29348,5.33334 l -2.28678,3.8758 4.49736,-0.0185 c 3.35675,-0.0138 5.11806,-0.67306 6.94475,-2.59958 4.85224,-5.11744 14.83824,-6.13147 18.65639,-1.89446 0.91484,1.01519 1.98712,3.14329 2.38285,4.72909 0.63174,2.53158 1.19329,2.85686 4.60357,2.66667 3.05001,-0.1701 4.17788,-0.83033 5.25231,-3.07451 3.50363,-7.31813 22.65748,-6.55407 22.65748,0.90384 0,3.07712 -5.482,5.03777 -15.33524,5.48468 -6.67092,0.30257 -10.30989,0.95127 -11.57076,2.06264 -1.64847,1.453 -2.11499,1.44062 -4.4958,-0.11935 -3.50884,-2.29908 -5.61197,-2.19746 -6.96821,0.33671 -1.07858,2.01535 -1.18928,1.99977 -3.71163,-0.52258 -2.88356,-2.88354 -5.91835,-2.52832 -5.91835,0.69276 0,3.81573 -3.6314,1.53787 -4.43317,-2.78079 -0.61798,-3.32877 -3.36185,-2.51157 -5.37224,1.6 -1.37886,2.81997 -1.838,3.19604 -1.8767,1.5372 -0.0282,-1.20787 -0.71928,-3.10974 -1.5358,-4.22639 -1.23594,-1.69026 -1.76126,-1.80066 -3.13669,-0.65915 -0.90866,0.75411 -1.80059,2.61897 -1.98209,4.14414 -0.35915,3.01817 -2.70041,4.51637 -3.47896,2.22624 z m -20.24323,-4.59952 c 2.05633,-2.05633 2.4892,-3.30128 1.94713,-5.6 -0.89007,-3.7745 -1.16858,-4.02531 -6.28825,-5.66279 -2.34667,-0.75055 -8.10667,-3.22102 -12.8,-5.48994 l -8.53333,-4.12529 -0.82173,3.94589 c -1.8187,8.73329 3.33644,14.37886 16.31425,17.86631 7.64978,2.05568 7.14582,2.10192 10.18193,-0.93418 z m 51.42647,-5.42541 c 3.83978,-1.61653 3.89798,-1.72086 1.8324,-3.28463 -1.46979,-1.11273 -3.72877,-1.46969 -7.26278,-1.14766 -6.07576,0.55365 -8.11338,2.04037 -6.10806,4.45664 1.75046,2.10917 6.49441,2.09917 11.53844,-0.0243 z m 33.21931,0.16566 c 0.99012,-1.19302 0.74756,-1.85451 -1.17339,-3.2 -3.01757,-2.11359 -4.21682,-2.11686 -9.18111,-0.0251 l -3.96574,1.67104 2.66667,1.49115 c 3.47268,1.94188 10.06461,1.97744 11.65357,0.0628 z m -62.32024,-5.92202 c 3.78645,-1.71665 4.02655,-2.03382 2.13334,-2.81789 -3.15346,-1.306 -9.88842,-1.09444 -11.33904,0.35618 -0.97406,0.97406 -0.95079,1.64113 0.10154,2.90909 1.72635,2.08013 3.7484,1.98076 9.10418,-0.44738 z m -35.99484,-10.44018 c 0.47346,-1.43767 -0.0273,-1.68619 -6.99342,-3.47048 -5.21162,-1.3349 -6.44084,-3.26322 -4.45067,-6.9819 1.24565,-2.32751 1.10571,-2.78864 -1.45827,-4.80546 -1.55987,-1.22699 -2.83613,-2.88884 -2.83613,-3.693 0,-2.26855 4.36357,-4.78306 8.30029,-4.78306 3.9722,0 3.76381,-1.65484 -0.40813,-3.241 -3.35866,-1.27696 -7.02144,0.41231 -9.31587,4.29647 -3.98671,6.74897 -0.81511,15.71672 7.49311,21.18692 5.1578,3.39594 8.85413,3.96612 9.66909,1.49151 z m 3.30872,-7.6169 c 1.78528,-1.13121 0.70919,-1.84918 -4.1331,-2.7576 -4.55614,-0.85474 -10.89883,1.15439 -8.47797,2.6855 1.96787,1.24462 10.68198,1.29444 12.61107,0.0721 z m 53.48612,-5.24646 c 0,-2.82121 -0.65918,-6.03094 -1.46483,-7.13274 -1.40993,-1.9282 -1.49369,-1.91237 -2.23465,0.4222 -0.7119,2.24301 0.0358,9.16028 1.1926,11.03187 1.37316,2.22182 2.50688,0.26752 2.50688,-4.32133 z m 27.87329,-2.04334 c -1.01444,-1.80709 -1.0973,-1.80523 -1.80845,0.0409 -0.40991,1.06408 -0.10325,3.22408 0.68143,4.8 l 1.42673,2.86531 0.38172,-2.90613 c 0.20995,-1.59837 -0.0967,-3.75837 -0.68143,-4.8 z m -17.01254,3.43947 c 2.37028,-5.2022 -2.63117,-10.46958 -6.38075,-6.72 -0.704,0.704 -1.28,2.528 -1.28,4.05333 0,5.458 5.51435,7.37751 7.66075,2.66667 z m -35.39408,-5.80372 c 0,-1.72537 -0.48,-3.4337 -1.06667,-3.79628 -0.63479,-0.39232 -1.06666,0.87781 -1.06666,3.13704 0,2.08796 0.48,3.79629 1.06666,3.79629 0.58667,0 1.06667,-1.41167 1.06667,-3.13705 z m 5.33333,-0.063 c 0,-1.76 -0.48,-3.2 -1.06666,-3.2 -1.18645,0 -1.47221,4.57224 -0.35556,5.68888 1.20509,1.20509 1.42222,0.82511 1.42222,-2.48888 z m 58.01921,1.51276 c 0.35611,-0.92798 0.59067,-4.40798 0.52126,-7.73334 -0.27338,-13.09679 -2.96456,-16.66087 -5.67885,-7.52084 -2.27561,7.66285 -2.18819,14.39538 0.20505,15.78931 2.68034,1.56116 4.21161,1.3957 4.95254,-0.53513 z m -93.47911,-2.64865 c 3.12063,-1.08787 4.99896,-3.98881 5.82573,-8.99744 0.29103,-1.76314 1.18063,-2.13334 5.12649,-2.13334 4.29868,0 4.80531,-0.26567 5.08502,-2.66666 0.21561,-1.85074 -0.82681,-3.87193 -3.40691,-6.6058 -4.56197,-4.83382 -5.89261,-10.39282 -3.39877,-14.19891 0.95931,-1.46408 2.43624,-2.66196 3.28207,-2.66196 2.57974,0 3.74627,-3.74638 3.74627,-12.03122 0,-9.60092 -0.59604,-10.29561 -11.91829,-13.8911 -9.3121,-2.95714 -18.80702,-8.02443 -28.06039,-14.9754 -3.50829,-2.63536 -6.74829,-4.56315 -7.2,-4.28397 -0.45172,0.27918 -0.82324,3.95927 -0.8256,8.17798 -0.005,8.63323 -2.54569,25.87669 -4.41873,29.98757 -1.41999,3.11653 -1.33804,3.12475 -16.48731,-1.65408 -5.34067,-1.68471 -10.02067,-3.06311 -10.4,-3.06311 -0.37931,0 -0.68967,0.96705 -0.68967,2.14901 0,2.73232 4.90931,5.78817 13.71236,8.5354 7.83025,2.44365 12.08478,2.66302 15.17158,0.78225 2.40988,-1.46832 3.91683,-0.17625 7.56165,6.48342 0.97841,1.7877 3.61841,4.20035 5.86666,5.36144 4.4615,2.30408 6.76103,5.34306 7.78022,10.28203 0.37305,1.8078 1.44899,3.3457 2.47953,3.54416 1.28131,0.24677 1.62986,-0.14624 1.1768,-1.32689 -1.26428,-3.29466 0.2786,-4.8964 3.60087,-3.73825 3.21172,1.11961 5.58366,5.71097 5.58366,10.80829 0,2.57231 -0.36704,2.75595 -6.37755,3.19071 -6.86432,0.49651 -8.88795,1.45799 -6.39156,3.03676 2.12403,1.34327 9.57911,1.28237 13.57587,-0.11089 z m 121.8599,-0.34999 c 0,-0.23057 -0.74493,-0.70507 -1.6554,-1.05445 -0.94925,-0.36426 -1.37741,-0.18544 -1.00372,0.41921 0.62641,1.01356 2.65912,1.49915 2.65912,0.63524 z m -111.9166,-7.39073 c -0.82231,-0.8223 -1.15006,-0.22795 -1.15006,2.08549 0,4.21073 1.49671,5.71777 1.95006,1.96351 0.19253,-1.59442 -0.16747,-3.41647 -0.8,-4.049 z m 57.34538,1.89309 c 0.79703,-1.74929 1.23789,-9.75168 1.23789,-22.47012 0,-18.38483 -0.70558,-23.87969 -3.06632,-23.87969 -1.70666,0 -3.54706,6.02451 -4.11086,13.45686 -0.52912,6.97524 -0.36971,7.79625 1.96738,10.13333 3.45429,3.4543 3.52526,10.39251 0.14313,13.99262 -2.58897,2.75583 -3.05386,6.13567 -1.29581,9.42064 1.52594,2.85124 3.65117,2.58016 5.12459,-0.65364 z M 204.99407,338.6666 c 1.55857,-3.42069 3.39939,-3.39261 4.97977,0.0759 1.68618,3.70076 4.84434,3.04798 5.31766,-1.09913 0.45353,-3.97388 -2.02506,-5.91015 -7.56551,-5.91015 -5.73654,0 -8.25934,1.58621 -8.25934,5.19309 0,5.11857 3.48782,6.21667 5.52742,1.74025 z m 81.36495,-0.94345 c 1.78007,-5.03709 -2.67111,-9.39835 -4.80722,-4.7101 -0.81255,1.78335 -0.81509,3.38295 -0.009,5.50382 1.35306,3.55881 3.39685,3.22198 4.81597,-0.79372 z m 10.36838,0.94345 c 1.58295,-3.47421 -0.31273,-8 -3.3509,-8 -2.68661,0 -3.97866,4.47069 -2.33476,8.07865 1.52327,3.34322 4.14306,3.30698 5.68566,-0.0786 z m 71.23009,1.11785 c 2.71374,-3.26985 -1.11551,-7.77638 -5.44112,-6.4035 -2.45684,0.77978 -2.55269,3.42156 -0.21774,6.00166 2.12895,2.35247 3.93364,2.48062 5.65886,0.40184 z M 194.20344,339.1624 c 1.13477,-0.6073 2.06321,-1.97291 2.06321,-3.03468 0,-2.57972 -3.77526,-5.87793 -5.82693,-5.09064 -1.95623,0.75068 -2.19877,6.11048 -0.35973,7.94952 1.55191,1.55191 1.55215,1.55192 4.12345,0.1758 z m 81.31579,-3.37019 c 0.96488,-7.19376 -2.45563,-11.26202 -4.63948,-5.51806 -1.08575,2.85574 -0.54383,6.25272 1.38139,8.65911 1.82378,2.27961 2.63606,1.4965 3.25809,-3.14105 z m -90.4151,1.21376 c 2.36624,-3.82865 -3.39625,-8.47271 -10.51321,-8.47271 -2.25716,0 -2.85416,0.50429 -2.84127,2.4 0.0198,2.91317 0.91138,4.33443 3.71701,5.92539 2.70815,1.5357 8.72258,1.62764 9.63747,0.14732 z m 79.45742,-1.05879 c 1.60324,-2.99569 0.90135,-7.4868 -1.39193,-8.90633 -3.34922,-2.07315 -5.05003,2.77856 -2.92937,8.35631 1.25563,3.30255 2.74662,3.49233 4.3213,0.55002 z m 93.7272,0.14407 c 2.53977,-1.60818 0.52036,-4.69194 -2.56538,-3.91747 -2.23718,0.5615 -2.65672,0.2906 -2.65672,-1.71543 0,-2.22948 -0.11472,-2.26751 -1.78918,-0.59307 -1.47362,1.47364 -1.57171,2.26643 -0.55619,4.49525 1.27324,2.79446 4.6631,3.56975 7.56747,1.73072 z M 223.80751,333.0557 c 0.22604,-1.58442 -0.2104,-2.3891 -1.29581,-2.3891 -1.82748,0 -4.16613,3.59001 -3.05953,4.69663 1.41181,1.4118 4.022,0.0289 4.35534,-2.30753 z m -55.27419,-2.18954 c 0,-2.99251 -8.10159,-9.79956 -11.66321,-9.79956 -2.23989,0 -1.07679,4.26076 2.17371,7.96288 3.76518,4.28831 9.4895,5.39624 9.4895,1.83668 z m 50.13333,-4.38704 c -2.22626,-1.28373 -34.63426,-3.13937 -38.75931,-2.21931 l -3.37402,0.75256 4.26667,0.78113 c 2.34667,0.42962 4.74667,0.94393 5.33333,1.14291 2.48951,0.84433 34.02199,0.40111 32.53333,-0.45729 z m 80.26667,-2.91896 c -0.73334,-0.2959 -1.93334,-0.2959 -2.66667,0 -0.73333,0.29591 -0.13333,0.53802 1.33333,0.53802 1.46667,0 2.06667,-0.24211 1.33334,-0.53802 z m -96.50609,-3.61 c 0.74476,-3.93417 -14.46691,-9.28273 -29.20453,-10.26858 -14.38059,-0.96196 -14.30902,2.10249 0.16768,7.18069 14.04413,4.92645 28.39979,6.45309 29.03685,3.08789 z m 9.26349,-0.2169 c -0.39583,-1.32 -1.38817,-3.10285 -2.20521,-3.96191 -1.29819,-1.36493 -1.48552,-1.32246 -1.48552,0.3368 0,2.51491 1.92804,6.02511 3.30941,6.02511 0.64392,0 0.80224,-0.99636 0.38132,-2.4 z m 69.12956,0.63367 c -0.72216,-0.29218 -2.16216,-0.30996 -3.2,-0.0396 -1.03783,0.27045 -0.44696,0.50951 1.31304,0.53125 1.76,0.0218 2.60913,-0.19953 1.88696,-0.49173 z m 16.5652,-10.22036 c 0.5222,-8.27357 -0.84523,-14.01338 -3.45839,-14.51662 -2.97003,-0.57198 -3.75965,1.74122 -3.77744,11.06597 -0.0118,6.19124 0.46271,9.24659 1.71338,11.03219 1.57656,2.25083 1.87899,2.32026 3.41528,0.78397 1.05742,-1.05742 1.84265,-4.17484 2.10717,-8.36551 z m -10.92881,2.83575 c 0.82316,-6.5884 -0.032,-15.25102 -1.66693,-16.88596 -2.22386,-2.22386 -3.58273,1.48276 -3.57563,9.7534 0.0109,12.7326 3.88443,18.00258 5.24256,7.13256 z m -10.98926,-1.59954 c 0.78961,-4.48034 -0.50622,-17.57719 -1.87451,-18.94548 -1.86092,-1.86092 -3.30182,5.07526 -2.84517,13.69596 0.59427,11.21868 3.16395,14.07684 4.71968,5.24952 z m -10.58189,-3.9348 c 0.95298,-7.73289 -1.76371,-18.39209 -4.09372,-16.0621 -1.34577,1.34579 -1.75427,14.51029 -0.58418,18.82624 1.58903,5.86128 3.77405,4.57017 4.6779,-2.76414 z m -99.01886,-13.58294 c 0,-11.0971 -1.60981,-15.13078 -3.79353,-9.50547 -1.2868,3.31483 -0.90471,18.28283 0.52579,20.59744 1.95801,3.16812 3.26774,-1.27761 3.26774,-11.09197 z m 6.92406,5.06823 c -0.0128,-8.49357 -1.17186,-17.33334 -2.27264,-17.33334 -1.03462,0 -1.27281,19.16781 -0.27063,21.77943 1.35725,3.53697 2.55218,1.44803 2.54327,-4.44609 z m 28.27544,0.53333 c 0.34622,-1.90667 0.48797,-11.36305 0.315,-21.01419 l -0.31451,-17.54752 -6.93333,-2.55716 c -3.81333,-1.40643 -9.70313,-3.42901 -13.08846,-4.49462 l -6.15513,-1.93747 0.28847,21.50882 0.28846,21.50881 11.73333,3.97621 c 6.45333,2.18692 12.07158,3.98692 12.485,4 0.41341,0.0131 1.03494,-1.53622 1.38117,-3.44288 z m -32.87085,-8.46667 c -0.3405,-0.85091 -0.59326,-0.59816 -0.64444,0.64445 -0.0463,1.12444 0.20578,1.75444 0.56023,1.4 0.35445,-0.35444 0.39234,-1.27445 0.0842,-2.04445 z m 137.67134,-0.564 c -1.61334,-0.2444 -4.25334,-0.2444 -5.86667,0 -1.61333,0.2444 -0.29333,0.44436 2.93333,0.44436 3.22667,0 4.54667,-0.19996 2.93334,-0.44436 z m 19.2,0 c -1.61334,-0.2444 -4.25334,-0.2444 -5.86667,0 -1.61333,0.2444 -0.29333,0.44436 2.93333,0.44436 3.22667,0 4.54667,-0.19996 2.93334,-0.44436 z m 17.6,0.0112 c -1.32,-0.25425 -3.48,-0.25425 -4.8,0 -1.32,0.25424 -0.24,0.46226 2.4,0.46226 2.64,0 3.72,-0.20802 2.4,-0.46226 z m 27.46666,-2.4472 c 0,-0.58666 -0.93167,-1.06666 -2.07038,-1.06666 -1.13871,0 -2.36704,0.48 -2.72962,1.06666 -0.37389,0.60497 0.52226,1.06667 2.07038,1.06667 1.50129,0 2.72962,-0.48 2.72962,-1.06667 z m -30.67653,-2.87184 c 4.19307,-1.93579 6.11631,-3.41338 5.90063,-4.53333 -0.25971,-1.34856 -2.02493,-1.66149 -9.37204,-1.66149 -8.15056,0 -9.05206,0.19985 -9.05206,2.00672 0,1.19919 1.49563,2.80883 3.7167,4 4.64074,2.48885 1.38882,2.74451 -3.7702,0.2964 -3.26932,-1.5514 -3.78362,-1.5514 -5.99854,0 -1.33245,0.93328 -3.31397,1.69688 -4.40338,1.69688 -1.62455,0 -1.8602,-0.54884 -1.31042,-3.05196 0.62956,-2.86637 0.4239,-3.09268 -3.38192,-3.72159 -7.22303,-1.19362 -9.17317,-0.91828 -8.31201,1.17355 1.94818,4.73224 1.87195,5.6 -0.49201,5.6 -1.28366,0 -3.05393,-0.72 -3.93393,-1.6 -1.83171,-1.83172 -4.64762,-2.13403 -4.64762,-0.49897 0,2.27983 5.30006,3.0324 21.8181,3.09802 16.29721,0.0647 17.28161,-0.0541 23.2387,-2.80423 z m -76.76983,0.0388 c -0.72217,-0.29218 -2.16217,-0.30996 -3.2,-0.0396 -1.03784,0.27044 -0.44697,0.5095 1.31303,0.53124 1.76,0.0218 2.60913,-0.19953 1.88697,-0.49172 z m 25.12141,-0.66944 c 0.62495,-0.753 0.79395,-1.92298 0.37557,-2.59994 -1.0071,-1.6295 -6.04597,-3.49761 -9.43418,-3.49761 -2.17203,0 -2.55423,0.37131 -1.92147,1.86667 0.43443,1.02667 0.75562,2.70667 0.71375,3.73333 -0.0612,1.50117 0.82517,1.86667 4.52697,1.86667 2.53171,0 5.11442,-0.6161 5.73936,-1.36911 z m -36.66678,-2.09755 c -0.28864,-0.73333 -3.90762,-2.70505 -8.04219,-4.38162 -11.24931,-4.56154 -19.94205,-10.87631 -25.90491,-18.81838 -4.83235,-6.4363 -9.19449,-9.4146 -9.19449,-6.27763 0,3.15449 4.80406,10.83603 9.19302,14.69935 4.43806,3.90654 18.22346,11.86009 25.47364,14.69713 4.41664,1.72827 9.14101,1.7735 8.47493,0.0812 z m 19.1992,-0.89579 c -0.43285,-0.70036 -2.15395,-0.89316 -4.32962,-0.485 -3.08666,0.57906 -3.61118,0.37954 -3.61118,-1.3736 0,-2.66399 -1.84074,-4.06261 -6.13333,-4.66019 -6.0213,-0.83824 -3.03827,4.58958 3.61872,6.58449 4.57597,1.3713 11.31734,1.32893 10.45541,-0.0657 z m 102.98142,-0.72105 c 3.97243,-0.5313 5.95557,-1.30835 6.16657,-2.41624 0.52557,-2.75984 -18.40816,-1.59098 -28.52556,1.76099 -1.38237,0.45799 -1.38237,0.64744 0,1.58443 1.54046,1.04415 10.33836,0.67853 22.35899,-0.92918 z m -76.10972,-7.66731 c -0.30913,-1.73455 0.75697,-4.53003 3.16052,-8.28737 1.99483,-3.11845 3.62698,-5.86604 3.62698,-6.10577 0,-1.01599 -11.53126,-1.7137 -15.21405,-0.92054 l -4.01405,0.8645 5.24164,6.47613 c 4.92295,6.08238 5.11836,6.55311 3.21405,7.74237 -2.0212,1.26226 -2.82489,6.49531 -1.24083,8.07937 1.42122,1.42122 5.72565,-5.0437 5.22574,-7.84869 z m -130.30655,2.13712 c 2.32268,-4.49157 2.112,-7.51963 -0.5232,-7.51963 -2.49992,0 -5.99075,6.30326 -4.96754,8.96971 1.03179,2.6888 3.71718,1.97961 5.49074,-1.45008 z M 349.203,273.59782 c 0.77367,-1.05807 1.91832,-1.60754 2.54367,-1.22106 1.39495,0.86214 10.90103,-10.84918 10.91205,-13.44344 0.006,-1.58905 -1.03366,-1.86667 -6.99553,-1.86667 -3.8519,0 -7.9319,0.49689 -9.06667,1.10419 -2.86081,1.53106 -2.57843,5.50658 0.60346,8.49581 2.6762,2.51415 3.54903,5.33333 1.65124,5.33333 -0.84019,0 -3.57851,-3.46396 -8.80912,-11.14355 -0.48865,-0.71742 -1.24653,-0.49677 -2.13333,0.62112 -0.7565,0.95361 -3.73587,4.73932 -6.62082,8.41268 l -5.24537,6.67885 10.87687,-0.52375 c 8.85845,-0.42657 11.1379,-0.88076 12.28355,-2.44751 z m -79.86968,-0.53117 c 0,-0.86394 -0.84,-1.73255 -1.86667,-1.93027 -1.30971,-0.25223 -1.86667,0.32371 -1.86667,1.93027 0,1.60656 0.55696,2.1825 1.86667,1.93027 1.02667,-0.19772 1.86667,-1.06633 1.86667,-1.93027 z m 50.66666,1.43402 c 0,-0.38462 -1.13074,-2.18462 -2.51276,-4 -1.38202,-1.81537 -3.59172,-5.41898 -4.91044,-8.008 l -2.39767,-4.70732 -4.22894,7.62486 c -2.32591,4.19368 -3.92788,8.11197 -3.55995,8.70732 0.72341,1.1705 17.60976,1.53789 17.60976,0.38314 z m -81.94163,-3.80232 c -0.61323,-0.61324 -1.98723,-0.77652 -3.05333,-0.36287 -1.74562,0.67732 -1.6732,0.89592 0.7283,2.1984 2.7908,1.51362 4.40211,0.24155 2.32503,-1.83553 z m 12.6083,2.89777 c 0,-0.29546 -0.94076,-2.29245 -2.09056,-4.43774 -1.14981,-2.14529 -1.84148,-4.30355 -1.53704,-4.79612 0.30442,-0.49259 -0.22717,-0.89561 -1.18133,-0.89561 -1.3037,0 -1.55389,-0.59644 -1.00675,-2.4 0.77418,-2.55199 0.80562,-2.79331 0.60866,-4.67059 -0.14369,-1.36957 -6.28696,-4.19098 -7.18026,-3.29768 -0.32206,0.32206 -0.0277,1.62778 0.65395,2.9016 1.50828,2.81823 0.64652,3.99777 -1.57422,2.15473 -2.32913,-1.933 -2.0063,0.27382 0.50755,3.46967 1.17334,1.49165 2.13334,3.02453 2.13334,3.4064 0,1.80503 6.98429,9.10254 8.71185,9.10254 1.07514,0 1.95481,-0.24174 1.95481,-0.5372 z m 80.07106,-7.55221 c 3.59,-4.51744 3.70729,-5.03605 1.54486,-6.83071 -1.69122,-1.40359 -16.80358,-1.18112 -18.25341,0.26871 -0.42958,0.42959 1.33245,3.84679 3.91563,7.5938 l 4.69668,6.81272 2.48365,-1.95363 c 1.366,-1.0745 3.89166,-3.7254 5.61259,-5.89089 z m -45.31715,5.95607 c 2.31705,0 1.83695,-1.40287 -1.99866,-5.84 l -3.51141,-4.0621 -2.93271,3.48534 c -1.613,1.91692 -2.75326,4.0249 -2.53392,4.68438 0.44358,1.33374 5.83233,2.76497 8.04337,2.1363 0.78131,-0.22216 2.10131,-0.40392 2.93333,-0.40392 z m 87.59401,-0.10792 c 2.24131,-2.24131 -1.73194,-11.62541 -4.92223,-11.62541 -1.75027,0 -9.69236,9.84058 -9.69236,12.00924 0,1.26274 13.31778,0.91298 14.61459,-0.38383 z m -113.81459,-3.91114 c 0,-1.39502 -5.35512,-8.78094 -6.36657,-8.78094 -1.39073,0 -2.41779,3.92871 -1.65519,6.33144 0.36044,1.13563 1.47278,2.27994 2.47189,2.54293 3.07064,0.80828 5.54987,0.76654 5.54987,-0.0934 z m 11.65592,-4.12479 c 1.21591,-1.54578 2.21075,-3.45664 2.21075,-4.24634 0,-2.73293 -10.55302,-3.48157 -11.42853,-0.81076 -0.42921,1.30933 4.66614,7.86762 6.11259,7.86762 0.49194,0 1.88927,-1.26474 3.10519,-2.81052 z m 17.14408,1.21052 c -0.73033,-0.88 -1.80788,-1.6 -2.39455,-1.6 -0.59502,0 -0.47951,0.70748 0.26122,1.6 0.73034,0.88 1.80788,1.6 2.39455,1.6 0.59502,0 0.47951,-0.70748 -0.26122,-1.6 z m -58.62696,-1.52582 c -1.20711,-2.2555 -7.50637,-7.12078 -7.50637,-5.79759 0,1.12871 6.60531,7.85674 7.71344,7.85674 0.49223,0 0.39904,-0.92662 -0.20707,-2.05915 z m 4.83599,-4.90836 c -0.94868,-1.44787 -2.1938,-2.63249 -2.76694,-2.63249 -1.84265,0 -1.11228,3.12981 1.29125,5.53334 2.91552,2.91552 3.95188,0.87829 1.47569,-2.90085 z m -30.74236,-7.92517 c 4.75182,-9.42315 3.04046,-12.32068 -9.54845,-16.1666 -3.93165,-1.20112 -8.13008,-1.87231 -9.32985,-1.49151 -2.93249,0.93073 -7.87749,9.48272 -7.029,12.15608 0.84491,2.66207 4.45301,4.99256 12.66071,8.17762 8.76214,3.40019 10.34386,3.08071 13.24659,-2.67559 z m 100.53333,3.63971 c 0,-2.40443 -11.25528,-19.68036 -12.82178,-19.68036 -0.55492,0 -2.19044,2.33158 -3.63449,5.18127 -3.23107,6.3762 -7.76059,11.8854 -9.77188,11.8854 -1.58471,0 -1.99547,1.28749 -0.79407,2.48888 0.84942,0.84943 27.02222,0.97031 27.02222,0.12481 z m 29.40933,-1.31229 c 1.06989,-0.59874 0.10528,-2.8491 -3.93831,-9.18758 l -5.35525,-8.3946 -3.75496,5.57579 c -2.06523,3.06668 -4.42363,7.17613 -5.24088,9.13211 -1.34256,3.21319 -1.30747,3.60932 0.36373,4.10541 2.43558,0.72302 16.11228,-0.2163 17.92567,-1.23113 z m -108.04242,-1.33518 c -0.31169,-1.19191 -1.49587,-2.66439 -2.63152,-3.27216 -1.9899,-1.06496 -2.00342,-0.98635 -0.3727,2.16711 1.90694,3.68762 3.86823,4.40904 3.00422,1.10505 z m 28.19538,-1.69282 c -1.02285,-1.02285 -4.06443,1.76503 -3.291,3.01649 0.38534,0.62349 1.32723,0.36873 2.32477,-0.6288 0.92232,-0.92233 1.35713,-1.99679 0.96623,-2.38769 z m 108.86083,-3.011 c -1.91938,-3.77902 -4.61022,-7.48177 -5.97963,-8.22833 -2.86165,-1.56009 -3.86199,-0.57806 -9.61606,9.43998 l -3.25051,5.65928 h 11.168 11.16801 z m -16.96187,-2.29561 c 3.00964,-4.45493 5.47208,-8.53493 5.47208,-9.06666 0,-0.53174 -5.32713,-0.9668 -11.83808,-0.9668 h -11.83808 l 2.26648,3.46667 c 1.24656,1.90667 3.81369,5.97305 5.70474,9.03641 1.89105,3.06336 3.73583,5.58336 4.09952,5.6 0.36368,0.0166 3.12368,-3.61468 6.13334,-8.06962 z m -33.49698,3.68114 c 1.55131,-1.84362 4.00207,-5.68362 5.44612,-8.53333 l 2.62555,-5.18127 h -11.21797 c -6.16988,0 -11.21797,0.26384 -11.21797,0.58631 0,2.28267 9.15169,16.48036 10.62309,16.48036 0.50633,0 2.18986,-1.50843 3.74118,-3.35207 z m -80.04175,1.34411 c 0.31996,-0.51772 -0.43347,-2.23195 -1.67431,-3.80941 -2.96334,-3.76728 -5.28267,-1.99046 -2.64884,2.02926 1.84129,2.81018 3.31223,3.41586 4.32315,1.78015 z m 39.01082,0.27114 c 0,-1.29316 -6.56512,-12.12985 -7.34854,-12.12985 -1.0977,0 -5.45146,7.92491 -5.45146,9.92301 0,0.8979 0.6,1.87466 1.33333,2.17056 1.95754,0.78988 11.46667,0.81997 11.46667,0.0363 z m 9.84373,-3.32985 c 1.89742,-2.15829 6.15627,-10.36552 6.15627,-11.86374 0,-0.55848 -1.92,-1.33979 -4.26667,-1.73626 -4.73203,-0.79946 -12.8,0.21994 -12.8,1.61731 0,1.41136 7.6272,13.84936 8.49268,13.84936 0.42717,0 1.51515,-0.84 2.41772,-1.86667 z m 94.70148,-5.06666 c 6.75122,-8.68206 6.28466,-9.74037 -4.07119,-9.23477 -4.51405,0.2204 -8.40736,0.58838 -8.65181,0.81774 -1.10267,1.03465 -0.26787,7.13859 1.51789,11.09871 2.65442,5.88646 4.97416,5.33129 11.20511,-2.68168 z m -132.27854,4.21369 c 0,-2.17452 -2.64278,-7.22336 -4.65528,-8.89359 -1.30931,-1.08663 -1.80088,-0.94159 -2.737,0.80756 -1.7217,3.21702 -1.37113,7.36566 0.72561,8.58689 2.88193,1.67858 6.66667,1.39422 6.66667,-0.50086 z m -26.66667,-1.48755 c 0,-0.55395 -1.18483,-2.35395 -2.63296,-4 -2.50641,-2.84897 -2.63458,-2.88113 -2.66667,-0.669 -0.0341,2.35141 2.48994,5.67619 4.30916,5.67619 0.54475,0 0.99047,-0.45324 0.99047,-1.00719 z m 38.4985,-4.51924 c 2.11749,-4.15061 2.15024,-4.55113 0.47252,-5.77792 -1.73624,-1.26956 -12.03295,-3.18928 -12.83018,-2.39206 -0.8362,0.83622 7.18496,12.62974 8.58991,12.62974 0.82091,0 2.51639,-2.00689 3.76775,-4.45976 z m -33.16916,1.52643 c -0.002,-0.44 -1.05514,-2.48 -2.3399,-4.53333 -1.85749,-2.9687 -2.42093,-3.34028 -2.75099,-1.81422 -0.4566,2.11111 2.39916,7.14755 4.0528,7.14755 0.57314,0 1.04029,-0.36 1.03809,-0.8 z m 9.89141,-10.00592 c -0.59013,-0.59012 -2.82622,-0.9202 -4.96911,-0.73352 l -3.89615,0.33944 2.8172,4.13219 2.81721,4.1322 2.15189,-3.39868 c 1.443,-2.27905 1.79843,-3.75215 1.07896,-4.47163 z m -25.88742,2.27259 c -0.62794,-1.17334 -1.38172,-2.13334 -1.67506,-2.13334 -0.29333,0 -0.0195,0.96 0.6084,2.13334 0.62794,1.17333 1.38173,2.13333 1.67506,2.13333 0.29333,0 0.0195,-0.96 -0.6084,-2.13333 z m -4.26666,-2.45334 c 0,-1.95786 -2.22584,-3.94666 -4.41705,-3.94666 -2.53321,0 -3.50816,1.89557 -1.94418,3.78005 1.59955,1.92734 6.36123,2.05205 6.36123,0.16661 z m 10.62886,-0.48 c -0.0208,-0.44 -0.72377,-2 -1.5622,-3.46666 -1.08873,-1.90456 -1.53521,-2.15813 -1.56219,-0.88725 -0.0532,2.50539 1.08229,5.15391 2.20965,5.15391 0.52389,0 0.93553,-0.36 0.91474,-0.8 z m 25.37223,-4.18937 c -1.67473,-1.67473 -1.83337,-1.67473 -2.47602,0 -0.37766,0.98416 -0.37766,2.59459 0,3.57875 0.64265,1.67473 0.80129,1.67473 2.47602,0 1.67473,-1.67472 1.67473,-1.90403 0,-3.57875 z m 81.01434,3.21258 c 0.7114,-1.85387 -3.68259,-10.91661 -7.79083,-16.06885 -1.99135,-2.4974 -2.54158,-2.69582 -4.03606,-1.45551 -2.06827,1.71651 -8.64617,12.46875 -9.65,15.77389 -0.65272,2.14916 -0.29419,2.37207 4.4088,2.74107 13.05955,1.02466 16.36846,0.83261 17.06809,-0.9906 z m 28.3234,-0.18332 5.07216,-0.70655 -5.4232,-9.33334 c -2.98276,-5.13333 -5.75245,-9.33333 -6.15487,-9.33333 -0.58878,0 -9.26409,13.28821 -12.36076,18.93333 -0.81519,1.48607 9.61123,1.72918 18.86667,0.43989 z m -60.49388,-3.10655 c -0.76395,-3.11399 -8.88863,-16.26667 -10.04824,-16.26667 -1.27112,0 -10.92475,17.06323 -10.26112,18.13699 0.36226,0.58616 5.22627,1.06301 10.843,1.06301 h 10.18601 z m 95.4217,2.37337 c 0,-1.48298 -7.4946,-15.20201 -8.9767,-16.43204 -1.37201,-1.13868 -1.9983,-1.14664 -3.32884,-0.0423 -1.93423,1.60522 -9.02779,14.02283 -9.02779,15.80352 0,0.84794 3.31823,1.23083 10.66667,1.23083 5.86666,0 10.66666,-0.25198 10.66666,-0.55996 z m -177.4804,-6.83678 c -0.89406,-3.0106 -1.35536,-6.17795 -1.02511,-7.03855 0.3742,-0.97513 -0.0454,-1.56471 -1.11369,-1.56471 -2.36546,0 -2.17095,3.34259 0.56454,9.70139 2.86994,6.67137 3.70795,6.08681 1.57426,-1.09813 z m 12.73786,-0.90136 c -0.34449,-0.34449 -1.11618,-0.1365 -1.71487,0.46219 -0.74025,0.74025 -0.66503,2.0826 0.2351,4.19555 l 1.32362,3.10703 0.39125,-3.56922 c 0.21519,-1.96306 0.10939,-3.85106 -0.2351,-4.19555 z m 113.9937,-2.9019 c 7.29057,-11.15981 7.26408,-11.2 -7.38449,-11.2 -6.74666,0 -12.26543,0.36 -12.26392,0.8 0.003,0.85872 6.15819,11.39586 9.94909,17.03182 2.72157,4.0462 2.72506,4.04382 9.69932,-6.63182 z m -32.58576,0.75612 c 5.7034,-9.43944 5.6635,-10.56945 -0.40524,-11.47952 -6.85581,-1.02809 -16.52682,0.32837 -16.52682,2.31806 0,1.59246 6.34605,12.18853 9.33106,15.58019 0.8914,1.01283 1.97599,1.62194 2.41022,1.35358 0.43422,-0.26838 2.77007,-3.76591 5.19078,-7.77231 z m 62.42841,0.78102 c 2.75374,-4.14124 5.45227,-8.70124 5.99676,-10.13333 l 0.98997,-2.60381 h -11.70694 c -9.63322,0 -11.70693,0.28009 -11.70693,1.58122 0,1.95242 10.00654,18.68545 11.17411,18.68545 0.13543,0 2.49929,-3.38829 5.25303,-7.52953 z m -106.30714,5.59182 c 0.97304,-0.61802 0.32064,-2.43605 -2.48222,-6.917 -2.09121,-3.34325 -4.16316,-6.07863 -4.60432,-6.07863 -1.40168,0 -5.75039,10.43553 -5.07843,12.18662 0.46369,1.20836 2.07659,1.67546 5.74484,1.66372 2.80508,-0.009 5.69413,-0.3936 6.42013,-0.85471 z m 14.24409,-7.92896 c 1.83047,-3.66667 4.59738,-8.04667 6.14868,-9.73333 l 2.82057,-3.06667 -12.05199,0.54088 c -6.6286,0.29749 -12.31091,0.7998 -12.62737,1.11626 -1.18957,1.18957 9.43494,17.80953 11.38496,17.80953 0.54836,0 2.49468,-3 4.32515,-6.66667 z m -40.1059,1.68181 c -2.65496,-6.35419 -3.67125,-7.11447 -5.79827,-4.33768 -4.55139,5.94179 -3.60923,8.21093 3.42107,8.23954 l 4.01432,0.0163 -1.63712,-3.91819 z m -18.65818,-1.24982 c 0,-1.08241 -0.96,-2.8368 -2.13333,-3.89866 -1.98104,-1.79282 -2.13334,-1.79961 -2.13334,-0.0951 0,2.40504 1.9315,5.96186 3.23753,5.96186 0.56603,0 1.02914,-0.88561 1.02914,-1.96801 z m 29.82886,-6.79446 c 0.0432,-3.30954 -2.48166,-5.1042 -7.18096,-5.1042 -4.47746,0 -4.7084,0.78991 -1.67153,5.71719 4.04545,6.56368 5.8187,7.67777 7.47453,4.69609 0.73709,-1.3273 1.35718,-3.71639 1.37796,-5.30908 z m -22.33087,-0.91316 c 1.13938,-2.75069 1.1273,-3.47497 -0.0703,-4.21512 -1.55612,-0.96173 -5.29437,0.53906 -5.29437,2.1255 0,2.20933 2.20103,6.51598 3.05912,5.98566 0.51138,-0.31606 1.54887,-2.06927 2.30554,-3.89604 z m 154.63533,-4.78732 c 0,-0.91463 -0.48,-1.3663 -1.06666,-1.00372 -0.58667,0.36259 -1.06667,1.11092 -1.06667,1.66296 0,0.55204 0.48,1.00371 1.06667,1.00371 0.58666,0 1.06666,-0.74833 1.06666,-1.66295 z m -146.3258,-2.78683 c -0.38436,-2.61215 -1.81576,-3.39951 -3.84365,-2.11426 -1.9335,1.22542 -0.42074,4.43071 2.09111,4.43071 1.54209,0 2.00363,-0.61006 1.75254,-2.31645 z m 106.85914,1.33924 c 1.87151,-0.53657 2.55844,-1.37955 2.30371,-2.82701 -0.40491,-2.30091 -9.99935,-19.66717 -10.83704,-19.61543 -0.49423,0.0305 -4.01598,5.71835 -10.35817,16.72898 -1.42856,2.48014 -2.29407,5.00014 -1.92333,5.6 0.75574,1.22281 16.64353,1.30941 20.81483,0.11346 z m 33.33333,-0.77183 c 1.02667,-0.29043 1.86422,-0.85571 1.86124,-1.25618 -0.01,-1.35169 -10.31453,-18.74597 -11.2922,-19.06163 -1.38985,-0.44874 -12.40507,17.77989 -11.75995,19.46104 0.86428,2.25227 14.33291,2.79682 21.19091,0.85677 z m -158.31564,-2.41208 c 0.19307,-1.31672 0.0473,-3.18567 -0.32404,-4.15323 -0.58246,-1.51787 -0.81129,-1.54381 -1.66802,-0.18909 -1.50683,2.38266 -1.27888,7.69795 0.30771,7.17545 0.73333,-0.24152 1.4913,-1.51642 1.68435,-2.83313 z m 61.54553,-0.1539 c 0.37902,-0.61327 -1.28282,-4.43429 -3.69298,-8.49119 -4.64917,-7.82572 -6.93284,-8.75319 -8.2308,-3.3428 -0.37152,1.54862 -1.56737,4.59655 -2.65746,6.77318 -1.09008,2.17663 -1.98198,4.45663 -1.98198,5.06667 0,1.47261 15.6529,1.46708 16.56322,-0.005 z m 31.81685,-1.78258 c -0.39999,-1.59369 -1.53237,-3.76178 -2.51639,-4.81801 -0.98402,-1.05622 -2.45,-3.2323 -3.25774,-4.83573 -0.80774,-1.60343 -1.5634,-3.07422 -1.67925,-3.26842 -1.29105,-2.16412 -11.02077,10.59142 -11.05002,14.48642 -0.007,0.96886 2.61983,1.33334 9.61032,1.33334 h 9.62032 z m 12.91019,-6.85377 c 2.66369,-4.73662 4.84307,-8.97086 4.84307,-9.40942 0,-1.10351 -13.25287,-2.24197 -17.11256,-1.47003 -1.73476,0.34695 -3.1541,0.80288 -3.1541,1.01318 0,0.21029 1.65132,3.87029 3.66959,8.13333 2.01827,4.26304 3.93488,8.6214 4.25913,9.68525 0.8803,2.88825 2.16532,1.52482 7.49487,-7.95231 z m 34.83551,-4.4899 c 1.76765,-3.4327 2.9723,-6.48288 2.67699,-6.77819 -0.29531,-0.2953 -5.60673,-0.79567 -11.80317,-1.11191 -8.88115,-0.45327 -11.26626,-0.27856 -11.26626,0.82527 0,1.40405 4.41549,9.66058 9.35308,17.48934 l 2.63837,4.18324 2.59353,-4.18324 c 1.42646,-2.30079 4.03981,-6.99182 5.80746,-10.42451 z m -106.79243,12.52391 c 0,-0.35787 -1.51186,-3.48724 -3.3597,-6.95413 -3.10214,-5.8202 -3.49967,-6.17676 -5.18559,-4.65103 -1.00424,0.90883 -2.70172,3.59465 -3.77216,5.96848 -1.66677,3.69622 -1.72628,4.45528 -0.41441,5.28539 1.70002,1.07572 12.73186,1.3801 12.73186,0.35129 z m 134.7923,-8.29767 c 5.39572,-10.27796 4.82081,-11.53655 -5.54202,-12.13265 -11.17833,-0.64301 -11.63179,-0.0768 -7.071,8.82908 3.64167,7.11115 6.51385,11.19802 7.8527,11.17377 0.34907,-0.006 2.49122,-3.54792 4.76032,-7.8702 z m -160.12384,6.19102 c 0.54807,-0.54808 0.21365,-2.01833 -2.04164,-8.97599 -0.82331,-2.53993 -4.62682,2.81839 -4.62682,6.51816 0,2.67287 0.40106,3.08184 3.02222,3.08184 1.66223,0 3.30303,-0.28081 3.64624,-0.62401 z m 38.70286,-10.36088 c 2.17128,-3.98835 3.77099,-7.39369 3.55491,-7.56741 -0.66719,-0.53638 -18.1115,1.24867 -18.78507,1.92225 -0.34896,0.34896 1.20606,4.2606 3.45561,8.69254 3.9204,7.72381 4.16757,7.97815 5.95841,6.13113 1.02759,-1.05983 3.64485,-5.19016 5.81614,-9.17851 z m 23.92558,7.82131 c 2.67495,-2.67494 7.7526,-12.63643 7.0339,-13.79931 -1.31625,-2.12974 -21.9308,-2.28123 -21.9308,-0.16116 0,0.38542 2.16,2.92311 4.8,5.63929 2.64,2.71619 4.8,5.85142 4.8,6.9672 0,3.9255 2.17056,4.48033 5.2969,1.35398 z m -78.8969,0.0265 c 0,-0.55204 -0.48,-1.30037 -1.06667,-1.66295 -0.58666,-0.36258 -1.06666,0.0891 -1.06666,1.00371 0,0.91462 0.48,1.66295 1.06666,1.66295 0.58667,0 1.06667,-0.45166 1.06667,-1.00371 z m 27.49479,-11.71298 c -0.33409,-1.73382 -5.56605,-3.44483 -7.85171,-2.56774 -1.99167,0.76428 -1.90463,2.65064 0.33943,7.35649 l 1.84917,3.87776 2.97895,-3.56831 c 1.63843,-1.96257 2.8463,-4.25676 2.68416,-5.0982 z m -21.05755,2.05003 c 0.41298,-3.06585 -0.0478,-4.26667 -1.63724,-4.26667 -1.6579,0 -2.09919,2.79132 -0.92503,5.85113 0.73205,1.90768 2.21542,0.99039 2.56227,-1.58446 z m -8.3778,-9.96174 c -0.93331,-1.92923 -1.11309,-1.4356 -1.10303,3.02841 0.0111,4.91985 0.0975,5.09854 1.11505,2.30492 0.76238,-2.09314 0.75867,-3.74024 -0.0121,-5.33333 z m 15.34972,0.51375 c -1.4188,-1.41881 -1.67064,-1.40666 -2.2521,0.1086 -0.36007,0.93831 -0.0661,2.80575 0.65323,4.14985 l 1.3079,2.44383 0.9442,-2.55241 c 0.68158,-1.84247 0.49987,-2.99676 -0.65323,-4.14987 z m 41.20101,1.30586 3.94352,-0.652 -5.92978,-11.82364 c -6.76511,-13.48925 -5.78462,-13.48078 -13.12434,-0.1134 -2.27567,4.14452 -4.89402,8.1633 -5.81857,8.93061 -0.92455,0.76731 -1.681,2.05634 -1.681,2.8645 0,1.13702 2.11118,1.46674 9.33333,1.45765 5.13333,-0.006 11.10792,-0.30513 13.27684,-0.66372 z m 64.65161,-3.03076 c 0.53922,-0.53922 -3.87618,-8.84706 -8.01464,-15.08003 -2.21192,-3.33139 -5.0479,-6.12649 -7.07027,-6.96836 -3.29536,-1.37178 -16.14651,-1.54464 -22.21937,-0.29888 l -2.8425,0.58309 4.30608,7.66854 c 4.39679,7.83007 7.00085,11.40186 8.31262,11.40186 0.40503,0 3.22961,-4.08 6.27688,-9.06666 4.85152,-7.93922 7.58941,-10.91834 7.58941,-8.25806 0,0.44472 -2.38893,4.88472 -5.30874,9.86666 -2.91982,4.98194 -5.31982,9.38618 -5.33333,9.78721 -0.0434,1.28879 5.60626,1.75538 14.89611,1.23019 4.97971,-0.28151 9.21321,-0.67102 9.40775,-0.86556 z m 32.04785,-0.10346 c 0.59203,-0.50455 -10.56341,-20.72365 -11.43379,-20.72365 -0.4282,0 -3.52629,4.68 -6.88465,10.4 l -6.10609,10.4 6.69079,0.61496 c 6.00855,0.55226 16.76663,0.13287 17.73374,-0.69132 z m -65.5982,-2.32365 c -0.40107,-1.61333 -2.54614,-6.39043 -4.76684,-10.61578 l -4.03762,-7.68244 -3.65538,5.01578 c -2.01046,2.75867 -4.92262,7.53577 -6.47146,10.61577 l -2.81607,5.6 h 11.23829 11.23829 z m -78.74062,0.73937 c 0.99543,-1.61065 -0.42968,-6.5525 -1.66875,-5.78671 -1.33051,0.82231 -1.35842,6.91401 -0.0317,6.91401 0.55204,0 1.31724,-0.50729 1.70043,-1.1273 z m 20.38518,-0.49457 c 0.62333,-1.62435 -3.68376,-9.0238 -5.26057,-9.03751 -0.6974,-0.006 -5.02875,8.79181 -5.02875,10.21448 0,0.24469 2.17506,0.4449 4.83347,0.4449 3.3414,0 5.02561,-0.50067 5.45585,-1.62187 z m 37.86396,-6.65413 c 2.13765,-3.36821 4.66998,-7.684 5.6274,-9.59067 l 1.74076,-3.46667 h -10.69405 c -12.47578,0 -12.38727,-0.11888 -7.36936,9.89709 3.50002,6.98618 5.03443,9.30898 6.13923,9.29358 0.36817,-0.005 2.41838,-2.76513 4.55602,-6.13333 z m 62.3845,1.076 c 6.06109,-9.29576 8.22871,-14.31149 6.62437,-15.32837 -0.78585,-0.4981 -6.34883,-0.91299 -12.36216,-0.92197 -12.55836,-0.0188 -12.64409,0.0722 -7.58304,8.0415 1.84267,2.90153 4.48868,7.0755 5.88005,9.2755 1.39136,2.2 2.89143,4 3.33346,4 0.44204,0 2.29034,-2.28 4.10732,-5.06666 z m 32.66124,-1.06667 c 4.09506,-7.03954 6.64658,-12.90994 5.92487,-13.63165 -0.71196,-0.71195 -21.0812,-0.89994 -21.78014,-0.201 -0.65648,0.65648 0.2259,2.47867 6.18184,12.76598 2.29267,3.96 4.60433,7.2 5.13702,7.2 0.53268,0 2.57407,-2.76 4.53641,-6.13333 z m -121.24727,-4.76454 c 1.41987,-2.76716 2.58158,-5.28716 2.58158,-5.6 0,-0.92386 -4.49824,-0.6407 -8.8,0.55396 -4.66634,1.2959 -4.91407,2.63333 -1.76778,9.54391 2.10326,4.61963 2.24587,4.71983 3.795,2.66667 0.88529,-1.17333 2.77133,-4.39738 4.1912,-7.16454 z m -22.94844,0.55248 c 0.98348,-2.97994 0.95918,-3.95189 -0.11537,-4.61599 -3.38018,-2.08907 -6.19867,2.65419 -4.8263,8.12218 0.55901,2.22726 0.98309,2.51998 2.19441,1.51468 0.82581,-0.68536 2.06209,-2.94477 2.74726,-5.02087 z m -15.20331,-0.25461 c 0.26666,-0.8 -0.13334,-1.2 -0.93334,-0.93333 -0.77,0.25666 -1.61,1.09666 -1.86666,1.86667 -0.26667,0.8 0.13333,1.2 0.93333,0.93333 0.77,-0.25667 1.61,-1.09667 1.86667,-1.86667 z m 5.53333,-5.46295 c 0,-2.61478 -0.42247,-4.06851 -1.06667,-3.67038 -1.80626,1.11633 -1.19437,8 0.71112,8 0.19555,0 0.35555,-1.94833 0.35555,-4.32962 z m 19.2264,-2.67315 c 1.72296,-4.53174 1.38001,-6.05411 -1.06862,-4.74365 -2.53128,1.35471 -4.64199,4.9824 -3.74416,6.43514 1.20754,1.95383 3.76912,1.05355 4.81278,-1.69149 z m -9.16926,-3.20675 c 1.82479,-1.82478 2.13811,-4.47783 0.78132,-6.61568 -0.9492,-1.49565 -3.13004,0.42106 -5.33053,4.68496 -1.90128,3.68412 1.39629,5.08364 4.54921,1.93072 z m 24.54821,-1.42461 c 0.69531,-1.12503 -3.606,-12.8992 -4.7123,-12.8992 -1.28119,0 -6.65932,11.56015 -5.92837,12.74286 0.84841,1.37275 9.80754,1.50438 10.64067,0.15634 z m 31.16125,-0.44359 c 0.27701,-0.277 -1.20716,-3.90086 -3.29814,-8.053 -2.09099,-4.15215 -3.81905,-8.64134 -3.84015,-9.97599 -0.0368,-2.32949 -0.1475,-2.29854 -2.76498,0.77338 -4.3582,5.11485 -11.06333,15.65362 -11.06333,17.38875 0,1.34251 1.59989,1.4959 10.23147,0.98093 5.62732,-0.33573 10.45813,-0.83705 10.73513,-1.11407 z M 253.70488,138.25 c 2.40291,-4.0425 4.12548,-7.74391 3.82794,-8.22536 -0.93805,-1.51779 -7.23071,-2.16879 -11.66617,-1.2069 -3.99037,0.86537 -4.2554,1.15511 -4.09266,4.47419 0.0957,1.95189 0.895,5.27971 1.77624,7.39514 0.88122,2.11544 1.90056,4.77147 2.26518,5.9023 0.87062,2.70007 2.09971,1.40089 7.88947,-8.33937 z m 44.0026,8.80441 c 1.99421,-0.66673 4.04318,-1.58808 4.55327,-2.04743 0.91358,-0.82271 -3.71702,-9.66689 -7.78747,-14.87358 l -2.08466,-2.66659 -2.19432,2.35533 c -1.20687,1.29542 -2.19432,2.69336 -2.19432,3.10653 0,0.41318 -1.49086,3.07453 -3.31302,5.91413 -1.82217,2.83959 -3.05052,5.84699 -2.72967,6.68311 0.95674,2.49324 10.18579,3.38888 15.75019,1.5285 z m 63.19476,0.53606 c 4.67645,-0.64099 4.89756,-0.8215 4.24622,-3.46667 -0.37792,-1.53476 -2.58822,-5.81304 -4.91176,-9.50727 -3.98128,-6.32992 -4.33519,-6.61673 -6.14438,-4.97944 -1.70459,1.54264 -9.55901,15.38628 -9.55901,16.84803 0,1.35631 9.7396,2.014 16.36893,1.10535 z m -25.09072,-1.72381 c -0.82408,-3.18599 -7.95873,-14.5785 -9.88215,-15.77969 -1.85934,-1.16118 -2.51278,-0.85249 -5.49267,2.59473 -2.89619,3.3504 -4.79644,7.7266 -5.14627,11.85162 -0.11449,1.35023 5.45013,2.34574 14.12109,2.52626 4.9217,0.1025 6.65166,-0.21999 6.4,-1.19292 z m -52.8782,-9.30317 c 2.78666,-4.67011 5.06666,-8.9874 5.06666,-9.59397 0,-1.30451 -19.86424,-1.55027 -20.66436,-0.25565 -1.02561,1.65947 7.84514,18.36131 9.74441,18.34676 0.43265,-0.003 3.06662,-3.82702 5.85329,-8.49714 z m 66.57959,-6.12139 c 1.02309,-1.88351 1.53507,-3.74967 1.1377,-4.14703 -1.28499,-1.28499 -20.69607,-1.86505 -21.45254,-0.64106 -0.7232,1.17016 3.92859,9.80678 8.65411,16.06743 l 2.7083,3.58812 3.54612,-5.72145 c 1.95037,-3.1468 4.3832,-7.26251 5.40631,-9.14601 z m -140.1003,8.65421 c -0.31581,-0.82297 -1.01791,-1.49632 -1.56022,-1.49632 -1.4585,0 -2.31961,2.9275 -1.49034,5.06667 0.68128,1.75738 0.80855,1.75132 2.17419,-0.10368 0.79781,-1.08369 1.19217,-2.64369 0.87637,-3.46667 z m 102.97273,-0.96299 c 2.43414,-2.60743 6.54797,-10.13662 6.54797,-11.9842 0,-0.99779 -2.77783,-1.34913 -10.66666,-1.34913 -8.24088,0 -10.66667,0.32731 -10.66667,1.43926 0,1.87984 7.42632,15.92991 8.95426,16.94084 0.64849,0.42905 1.77768,-0.051 2.5093,-1.06667 0.73163,-1.01572 2.22644,-2.80676 3.3218,-3.9801 z m -83.13955,-2.93333 c 1.12684,-3.16842 0.13141,-3.63116 -4.90536,-2.28032 -3.23307,0.8671 -3.82356,3.17212 -1.81005,7.0658 l 1.71529,3.31703 1.97845,-2.58459 c 1.08815,-1.42152 2.4479,-3.90459 3.02167,-5.51792 z m -23.46117,-2.93333 c 0.0137,-2.57329 -0.0406,-2.59417 -1.55189,-0.59613 -0.86134,1.1388 -1.52709,3.7788 -1.47944,5.86667 l 0.0866,3.79612 1.46525,-3.2 c 0.8059,-1.75999 1.47165,-4.39999 1.47945,-5.86666 z m 12.90843,0.46389 c 1.33806,-3.51935 1.32113,-3.66389 -0.42913,-3.66389 -2.1546,0 -4.00243,2.66462 -3.23488,4.6648 0.97245,2.53419 2.47615,2.12341 3.66401,-1.00091 z m -5.89306,-3.66389 c 0.36258,-0.58667 -0.0891,-1.06667 -1.00371,-1.06667 -0.91463,0 -1.66296,0.48 -1.66296,1.06667 0,0.58667 0.45167,1.06667 1.00371,1.06667 0.55205,0 1.30038,-0.48 1.66296,-1.06667 z m 18.4621,-4.74067 c 1.93742,-1.84156 0.52755,-7.21129 -1.77687,-6.7675 -0.94785,0.18254 -2.87464,2.41894 -4.28177,4.96977 l -2.5584,4.63789 3.6108,-0.75689 c 1.98594,-0.41628 4.23875,-1.35375 5.00624,-2.08327 z m 23.89976,-1.77527 c 4.44477,-1.13582 4.48458,-0.41259 -0.65415,-11.88406 -1.51112,-3.37333 -3.13253,-6.13333 -3.60313,-6.13333 -0.91531,0 -7.8662,12.39401 -9.77808,17.43511 l -1.1511,3.03513 5.6123,-0.72022 c 3.08676,-0.39611 7.39513,-1.17579 9.57416,-1.73263 z m 33.57426,-1.33129 c 0.37736,-0.37736 0.12609,-0.6861 -0.55835,-0.6861 -0.68444,0 -1.24444,-0.96728 -1.24444,-2.1495 0,-2.56898 -6.18223,-13.8505 -7.59003,-13.8505 -1.16548,0 -11.60997,15.72456 -11.60997,17.47924 0,1.28617 19.66613,0.54351 21.00279,-0.79314 z m 60.41314,-3.72434 c -0.88685,-2.2577 -3.42477,-6.20916 -5.63981,-8.78101 -3.68387,-4.27729 -4.19153,-4.54126 -5.95242,-3.09509 -1.05878,0.86955 -3.79529,4.461 -6.08111,7.981 l -4.15606,6.4 6.20673,0.62069 c 3.41371,0.34137 8.68812,0.70137 11.72092,0.8 l 5.5142,0.17931 z m -127.79042,0.82452 c 0.38644,-1.21755 0.43038,-2.48594 0.0976,-2.81867 -0.88937,-0.88937 -3.8565,1.85193 -3.8565,3.56299 0,2.30683 2.97759,1.7172 3.75885,-0.74432 z m 21.42476,-3.75627 c 1.54491,-2.63617 2.5137,-5.08827 2.15286,-5.4491 -0.36082,-0.36083 -2.57914,-0.0799 -4.92958,0.62433 -4.61996,1.38418 -5.28571,3.13959 -3.05091,8.04445 1.50036,3.29291 2.2555,2.8757 5.82763,-3.21968 z m 30.23221,-6.96758 2.32068,-4.1291 h -7.44768 c -12.15088,0 -12.5866,0.60152 -7.93832,10.95925 l 2.88383,6.42603 3.9304,-4.56354 c 2.16173,-2.50994 4.97471,-6.42163 6.25109,-8.69264 z m 44.25102,7.67121 c -3.78928,-6.96217 -8.34891,-12.32872 -9.74292,-11.46717 -1.21477,0.75077 -9.92392,14.79018 -9.92392,15.99764 0,0.40474 5.06996,0.73589 11.26657,0.73589 h 11.26657 z m -100.90552,0.0111 c 2.44333,-4.3473 1.66174,-6.74275 -1.14835,-3.51954 -1.67341,1.91941 -4.01296,6.06146 -4.01296,7.10473 0,0.3319 0.63161,0.60345 1.40358,0.60345 0.77197,0 2.46294,-1.88488 3.75773,-4.18864 z m 82.19455,-3.72152 c 6.58619,-9.49412 6.25626,-10.22321 -4.62625,-10.22321 -4.95204,0 -9.22849,0.36368 -9.50321,0.80819 -0.66539,1.07664 3.55723,10.77312 6.24026,14.3296 2.43505,3.22775 2.09281,3.44096 7.8892,-4.91463 z M 331.20077,108.8 c 0.78815,-0.88 1.76243,-2.92 2.16508,-4.53333 l 0.73207,-2.93333 -8.3823,0.0146 c -4.61027,0.008 -9.44044,0.29827 -10.73371,0.64503 -2.26915,0.60841 -2.28898,0.72916 -0.567,3.4521 0.98142,1.5519 3.65226,5.39248 5.93519,8.53464 l 4.1508,5.713 2.63344,-4.64634 c 1.44838,-2.55548 3.27828,-5.36633 4.06643,-6.24633 z m -98.70498,1.13679 c 1.53126,-2.86117 1.40725,-3.27012 -0.99161,-3.27012 -2.14285,0 -4.77099,3.44432 -3.55555,4.65975 1.30645,1.30645 3.45579,0.6496 4.54716,-1.38963 z m -6.3788,-5.36536 c 0.0137,-1.30231 -0.27057,-1.275 -1.70988,0.16431 -0.95104,0.95103 -1.37016,2.30232 -0.93333,3.00912 0.92302,1.49348 2.61566,-0.53869 2.64321,-3.17343 z m 19.68084,-2.52254 c 1.60676,-1.17489 1.72662,-1.81446 0.69968,-3.733329 -0.68159,-1.273556 -1.67515,-2.315557 -2.2079,-2.315557 -1.24764,0 -4.28962,4.328656 -4.28962,6.104006 0,1.77882 3.33312,1.74714 5.79784,-0.0551 z m 13.20126,-8.864397 5.54117,-6.548845 -9.33681,0.554062 c -11.7705,0.698482 -13.1524,1.629097 -8.97727,6.045585 1.7148,1.813923 3.69988,4.429575 4.4113,5.812559 0.71141,1.382986 1.63704,2.102986 2.05696,1.599996 0.41991,-0.50298 3.257,-3.861493 6.30465,-7.463357 z m 13.26756,5.872706 c 2.44026,-1.305867 2.36145,-3.633009 -0.24706,-7.296334 -2.64199,-3.710311 -6.11332,-4.806241 -6.94306,-2.191972 -0.32873,1.035701 -1.54542,2.740791 -2.70378,3.789089 -1.19296,1.079612 -2.1061,3.274255 -2.1061,5.061788 v 3.15579 l 5.06667,-0.75972 c 2.78666,-0.41785 5.90666,-1.209236 6.93333,-1.758641 z m -36.51193,-1.482972 c 0.7421,-0.894177 1.01784,-1.9572 0.61277,-2.362272 -0.88969,-0.889694 -4.07499,0.977172 -4.65957,2.730922 -0.60767,1.822996 2.4598,1.54356 4.0468,-0.36865 z m 69.31193,-0.253089 c 0,-1.531868 -6.93269,-11.276565 -8.84479,-12.432377 -2.05298,-1.240966 -2.21728,-1.08756 -9.33031,8.711243 l -3.29079,4.533333 h 10.73294 c 5.90312,0 10.73295,-0.36549 10.73295,-0.812199 z M 201.18997,93.398171 c 6.38551,-1.431002 14.73002,-2.935098 18.54335,-3.342434 8.12243,-0.867628 11.79234,-2.492315 14.31034,-6.335258 1.00491,-1.533704 3.95619,-3.70118 6.55839,-4.816612 2.6022,-1.115432 4.73127,-2.55153 4.73127,-3.19133 0,-0.639798 2.52,-2.282771 5.6,-3.651049 3.08,-1.368278 6.89156,-3.621864 8.47013,-5.007969 1.57857,-1.386104 3.97857,-3.387921 5.33333,-4.448482 2.40504,-1.882758 2.17188,-1.914396 -9.87412,-1.339827 -20.67503,0.986159 -36.61184,6.418864 -51.1599,17.439918 -6.4451,4.88256 -17.26831,17.294866 -15.08067,17.294866 0.52683,0 6.18238,-1.17082 12.56788,-2.601823 z m 83.51936,-2.348353 c 6.42889,-7.303603 5.69495,-9.67922 -2.60577,-8.434449 -2.57307,0.385855 -5.76277,1.579698 -7.08822,2.652984 l -2.40992,1.951429 3.04235,4.390107 c 1.67329,2.414558 3.41628,4.390105 3.87329,4.390105 0.45702,0 2.79174,-2.227578 5.18827,-4.950176 z m -24.44268,-8.292067 c 4.65235,-1.678103 5.18341,-4.026978 1.8154,-8.029621 l -2.61386,-3.10641 -3.50312,3.614299 c -1.92672,1.987863 -3.85706,3.395548 -4.28966,3.128187 -0.4326,-0.26736 -1.91655,0.455349 -3.29765,1.60602 -1.38111,1.15067 -2.00711,2.108098 -1.39111,2.127615 0.616,0.01952 1.696,-0.540513 2.4,-1.244513 0.99555,-0.995555 1.28,-0.758518 1.28,1.066667 0,1.868561 0.59763,2.330133 2.93333,2.265517 1.61334,-0.04463 4.61334,-0.687126 6.66667,-1.427761 z m 27.6,-3.424423 c 1.83333,-0.366666 3.33333,-1.049838 3.33333,-1.518159 0,-1.253015 -5.36648,-7.415173 -6.4577,-7.415173 -1.62543,0 -8.47563,6.555084 -8.47563,8.110497 0,1.619025 5.62429,2.017979 11.6,0.822835 z m -14.87742,-3.210516 c 3.16101,-4.018575 2.80647,-4.65615 -2.58925,-4.65615 -4.29759,0 -4.8,0.256791 -4.8,2.453333 0,2.676823 1.8033,5.013334 3.86925,5.013334 0.72009,0 2.30409,-1.264732 3.52,-2.810517 z m 77.37328,304.616538 c -1.37551,-2.22563 0.57455,-6.0821 3.73808,-7.39248 6.87541,-2.8479 8.61101,1.80743 2.26759,6.08226 -4.05284,2.73122 -4.99977,2.9378 -6.00567,1.31022 z m 4.97353,-3.84734 c 1.3391,-1.6233 1.23652,-1.65645 -1.20273,-0.38885 -3.57594,1.85831 -3.84513,2.16348 -1.90838,2.16348 0.90594,0 2.30594,-0.79858 3.11111,-1.77463 z m -126.78242,29.87496 c -0.72217,-0.29218 -2.16217,-0.30996 -3.2,-0.0396 -1.03784,0.27044 -0.44697,0.5095 1.31303,0.53124 1.76,0.0218 2.60913,-0.19953 1.88697,-0.49172 z m 227.42851,-6.76021 c 4.72394,-1.79604 7.99172,-13.1318 4.20446,-14.5851 -1.80648,-0.69321 -10.99094,3.20746 -15.04361,6.38907 -2.69601,2.11654 -3.43253,7.62563 -1.14301,8.54948 2.33624,0.94269 9.09763,0.74324 11.98216,-0.35345 z m 19.66604,-20.42308 c 2.53489,-2.3616 2.96693,-6.25037 0.69441,-6.25037 -2.04894,0 -9.49006,7.10819 -8.72945,8.33889 0.90172,1.45901 5.51406,0.26014 8.03504,-2.08852 z M 110.24172,326.13331 c -0.9234,-20.87267 -1.00225,-40.27993 -0.25609,-63.03936 l 0.41436,-12.63937 -4.26666,-3.65169 c -2.34667,-2.00843 -7.83999,-5.43983 -12.207382,-7.62534 -7.309616,-3.65783 -8.666004,-3.9738 -17.066665,-3.9756 -8.504338,-0.002 -9.743531,0.2963 -18.19262,4.37686 -11.499067,5.55358 -18.500345,11.20653 -25.955038,20.95651 -12.151067,15.89239 -17.56834,38.64473 -11.876106,49.8792 3.552466,7.01132 20.462713,19.89532 35.037722,26.69541 14.985274,6.9915 25.369474,9.20441 44.235149,9.42665 l 11.04173,0.13007 z m 359.7202,6.13334 c -0.61251,-2.64 -1.48452,-4.8 -1.9378,-4.8 -0.45328,0 -0.82415,0.42865 -0.82415,0.95254 0,2.42207 -4.92561,2.25424 -15.46666,-0.527 -4.20488,-1.10945 5.11191,4.22353 11.57562,6.62594 3.60674,1.34055 6.82972,2.46237 7.16218,2.49294 0.33246,0.0305 0.10336,-2.10442 -0.50919,-4.74442 z m 6.83805,3.10157 c 0,-0.34746 -0.96,-1.8522 -2.13333,-3.34385 -3.94077,-5.00987 -2.89686,-9.18437 4.09456,-16.3737 6.29351,-6.47167 6.85154,-8.6633 1.55597,-6.11097 -7.43001,3.58108 -12.42484,17.67426 -8.42665,23.77627 1.54776,2.36217 4.90945,3.76743 4.90945,2.05225 z m 44.8,-1.89453 c 5.08752,-1.64488 8.94331,-8.90522 8.00528,-15.07371 -1.44222,-9.484 -8.60624,-16.80593 -19.20528,-19.62858 -2.34667,-0.62495 -8.06348,-2.34738 -12.70401,-3.82761 -4.64054,-1.48023 -8.72054,-2.40683 -9.06667,-2.05908 -1.21317,1.21881 4.48146,4.74589 10.43096,6.46059 5.90191,1.701 18.23948,7.55174 21.56549,10.22681 4.45598,3.5839 5.03323,10.64237 1.22353,14.9612 -1.9581,2.21979 -12.50731,2.56331 -21.70371,0.70677 -8.37934,-1.69161 -8.53859,-1.68472 -9.86464,0.42673 -1.84901,2.94417 2.52781,6.0665 8.50388,6.0665 3.34357,0 4.68184,0.43499 4.68184,1.52179 0,0.83699 0.84,1.75516 1.86666,2.04041 2.50465,0.69587 11.64623,-0.32796 16.26667,-1.82182 z m -4.84779,-9.86964 c 0.94968,-0.36442 2.45923,-2.07917 3.35456,-3.81055 1.58666,-3.06825 1.53625,-3.2338 -1.9907,-6.53741 -4.04606,-3.78985 -17.05501,-9.25005 -23.98274,-10.06617 -4.28298,-0.50456 -4.53333,-0.38453 -4.53333,2.17356 0,3.86179 8.49692,13.8667 14.07198,16.5694 4.61217,2.23591 9.86098,2.90651 13.08023,1.67117 z m -49.9337,-4.33629 c 0.90365,-2.16272 2.85238,-5.51783 4.33054,-7.45578 1.47815,-1.93796 2.41737,-4.22764 2.08714,-5.08818 -0.78188,-2.03757 -14.86086,-6.31366 -17.75904,-5.39381 -2.75006,0.87283 -7.20116,7.4234 -8.10084,11.9218 -0.56846,2.84229 -0.23258,3.63686 2.21535,5.24081 2.6763,1.75359 10.99309,4.46923 14.19611,4.63539 0.76326,0.0396 2.1271,-1.69751 3.03074,-3.86023 z m 16.38149,-18.44746 c 0,-2.47981 -3.13027,-3.52628 -9.05712,-3.02788 l -4.05376,0.3409 4.68877,2.3852 c 5.88265,2.99253 8.42211,3.08353 8.42211,0.30178 z m -13.42222,-9.9016 c -0.0489,-1.01862 -0.16889,-3.77205 -0.26666,-6.11872 -0.20775,-4.98582 -1.83918,-5.64362 -2.82826,-1.14037 -1.28752,5.86201 -2.99842,6.12636 -11.34678,1.75307 -4.15223,-2.17515 -7.76912,-3.7352 -8.03754,-3.46679 -1.39848,1.39848 17.97356,11.67186 20.96813,11.11983 0.88,-0.16223 1.56,-1.12838 1.51111,-2.14702 z m 48.28238,-1.43832 c 0.31245,-0.81422 1.94566,-1.4804 3.62937,-1.4804 4.52362,0 6.85377,-4.18529 6.80332,-12.21975 -0.0765,-12.17359 -4.32334,-16.69554 -17.02618,-18.1289 l -6.4,-0.72216 5.86666,3.942 c 12.41719,8.34352 15.06081,12.75971 11.05867,18.47357 -2.44868,3.49598 -9.60972,6.47087 -15.64293,6.49849 -4.1064,0.0188 -5.60592,-0.50349 -7.58899,-2.64325 -4.24196,-4.57716 -11.90517,-2.45955 -8.02377,2.21725 4.51782,5.44364 25.59158,8.57738 27.32385,4.06315 z m -43.39349,0.59996 c 0,-0.61579 -0.82627,-2.65579 -1.83615,-4.53333 -1.67897,-3.12146 -1.86733,-3.21295 -2.20031,-1.06871 -0.20029,1.28973 0.16287,3.32973 0.80701,4.53333 1.23463,2.30692 3.22945,2.96706 3.22945,1.06871 z m -5.07945,-18.08036 c 2.19297,-4.4 3.99297,-8.33911 4,-8.75359 0.007,-0.41448 -3.89213,-1.98715 -8.66479,-3.49483 -10.22417,-3.22982 -11.99513,-2.65992 -15.73384,5.06323 -2.76764,5.71719 -2.81606,7.41369 -0.27717,9.71136 2.32534,2.1044 12.7784,6.06381 15.08858,5.71524 0.88,-0.13277 3.39425,-3.84141 5.58722,-8.24141 z m 46.00226,6.32258 c 3.65644,-2.87616 3.54783,-5.16345 -0.4388,-9.24108 -5.09232,-5.20854 -24.37095,-12.65329 -25.98858,-10.03591 -2.09554,3.39065 8.33565,16.72849 15.5238,19.84952 4.94857,2.14862 7.62273,2.0082 10.90358,-0.57253 z m -35.02908,-10.3844 c -0.83695,-0.83696 -4.06331,2.44285 -6.28614,6.39026 -1.84898,3.28351 -1.67472,3.20056 2.42052,-1.15236 2.42711,-2.57982 4.16664,-4.93688 3.86562,-5.2379 z m 2.6396,-10.49606 c 0,-2.1361 -2.6398,-2.88365 -5.24998,-1.48672 -2.70639,1.44841 -2.85715,2.9509 -0.35002,3.48828 2.90589,0.62286 5.6,-0.34007 5.6,-2.00156 z m 15.3994,-2.61761 c -0.64479,-1.0433 -6.96087,-4.15784 -8.43181,-4.15784 -1.68786,0 -0.21096,3.4121 1.83241,4.23343 3.46618,1.39323 7.47878,1.34726 6.5994,-0.0756 z m -28.5994,-6.42451 c -0.36667,-1.83333 -0.70319,-4.59333 -0.74782,-6.13333 -0.0754,-2.60322 -0.17431,-2.54215 -1.40681,0.86894 -0.72912,2.01792 -1.80593,3.82902 -2.39293,4.02469 -0.58699,0.19566 -4.28488,-0.85536 -8.21753,-2.3356 -8.28442,-3.11825 -10.77187,-3.43541 -7.17286,-0.91457 2.88627,2.02163 16.91886,7.73094 19.13795,7.78649 1.07722,0.027 1.28964,-0.8484 0.8,-3.29662 z m 49.01745,0.78989 c 7.2877,-3.39346 10.04921,-7.07217 10.04921,-13.38689 0,-3.54862 -0.78929,-6.18462 -2.75158,-9.18948 -4.97807,-7.62293 -16.20828,-14.34685 -23.96195,-14.34685 -4.06129,0 -6.35313,-1.00314 -6.35313,-2.78079 0,-0.94774 -1.18726,-1.48587 -3.27821,-1.48587 -2.53834,0 -3.1977,0.41808 -2.92147,1.85242 0.33159,1.72186 4.87476,3.9934 20.63698,10.31832 2.79257,1.12056 6.62994,3.40056 8.52752,5.06666 1.89758,1.66609 4.04276,3.02926 4.76707,3.02926 1.40435,0 1.35236,0.2493 -2.00198,9.6 l -2.10454,5.86667 -4.95844,0.32834 c -2.72714,0.18059 -8.57419,-0.41941 -12.99345,-1.33333 -10.52769,-2.17718 -12.07348,-2.12897 -12.07348,0.3765 0,2.74723 7.88811,6.49515 13.6701,6.49515 2.45478,0 4.46323,0.48 4.46323,1.06667 0,1.87236 5.69117,1.12754 11.28412,-1.47678 z m -44.83379,-3.3594 c -0.96659,-6.44575 0.6752,-10.94363 5.83298,-15.98006 6.5634,-6.40899 5.1983,-8.49094 -1.63402,-2.49209 -6.35907,5.58335 -9.36157,14.28895 -7.02721,20.375 1.85663,4.84048 3.65775,3.62868 2.82825,-1.90285 z m 38.92052,-7.44989 c 3.6617,-1.89353 5.13191,-6.1366 3.01493,-8.70113 -0.79884,-0.96772 -3.56547,-2.69625 -6.14805,-3.84117 -4.50993,-1.99937 -17.75888,-6.10496 -19.701,-6.10496 -1.74196,0 0.34359,6.47191 3.62025,11.23437 3.4288,4.98359 5.91389,6.77168 11.17636,8.04167 4.67613,1.12849 4.63277,1.13188 8.03751,-0.62878 z m -46.64603,-1.35018 c 2.62758,-2.90345 7.37058,-14.29502 6.36891,-15.29669 -1.31621,-1.31621 -13.07351,-5.20039 -15.74145,-5.20039 -2.62041,0 -5.88523,3.18199 -8.42751,8.2137 -3.37964,6.68905 -2.02443,8.62409 8.84167,12.6246 5.26363,1.93788 6.95409,1.8735 8.95838,-0.34122 z M 69.333329,232.21206 c 8.303305,-2.23798 9.254432,-2.72579 11.248517,-5.76915 2.469785,-3.76938 0.852847,-4.53618 -9.648517,-4.57569 -13.942476,-0.0525 -24.303087,-3.21788 -35.392185,-10.81321 -4.272086,-2.9261 -7.812271,-3.94864 -7.803825,-2.25402 0.0062,1.24835 4.247235,8.00632 6.693942,10.66666 1.214,1.32 3.031567,2.4 4.039036,2.4 1.050966,0 2.109475,1.1065 2.483279,2.59585 1.226185,4.88551 12.006788,10.47537 18.779754,9.73752 2.053333,-0.2237 6.373333,-1.11827 9.599999,-1.98796 z M 491.7333,231.46665 c -0.62794,-1.17333 -1.38172,-2.13333 -1.67506,-2.13333 -0.29333,0 -0.0195,0.96 0.6084,2.13333 0.62794,1.17334 1.38172,2.13334 1.67506,2.13334 0.29333,0 0.0195,-0.96 -0.6084,-2.13334 z M 101.50201,228.3909 c 3.13389,-1.07889 7.37798,-2.98641 9.43132,-4.23895 3.51189,-2.14225 3.57516,-2.27681 1.06666,-2.26865 -4.2145,0.0137 -12.728666,2.65026 -20.266662,6.27593 l -6.933333,3.33481 5.502018,-0.57077 c 3.026108,-0.31392 8.066108,-1.45349 11.199997,-2.53237 z m -3.730349,-6.60735 c 4.907149,-2.37551 9.961669,-7.57672 9.961669,-10.25078 0,-3.92131 -14.684347,1.79789 -16.85647,6.56518 -2.874832,6.30957 -0.80793,7.41443 6.894801,3.6856 z m -17.504999,-2.74539 7.199999,-0.68 v -9.75498 c 0,-20.58291 -7.272546,-35.09821 -20.93393,-41.7821 -4.841225,-2.3686 -6.710665,-2.73576 -11.213862,-2.20242 -10.168671,1.20433 -18.15375,7.85843 -24.422518,20.3517 -3.583953,7.1426 -4.069843,13.18737 -1.388916,17.27897 2.112204,3.22364 12.425836,10.40769 19.319112,13.45692 7.856989,3.47552 18.253493,4.5773 31.440115,3.33191 z M 414.64442,200.95554 c -0.35444,-0.35444 -1.27445,-0.39233 -2.04445,-0.0842 -0.85091,0.3405 -0.59816,0.59326 0.64445,0.64444 1.12444,0.0463 1.75445,-0.20579 1.4,-0.56024 z M 101.33333,186.64076 c 6.0487,-2.33333 7.4667,-5.94133 1.97514,-5.02565 -4.504145,0.75104 -13.919956,5.97975 -13.11467,7.28272 0.692246,1.12008 4.257588,0.39768 11.13953,-2.25707 z m 311.41285,-1.79771 c 16.33224,-4.93645 36.21839,-13.58748 47.49718,-20.66258 18.06743,-11.33358 25.93638,-20.76188 24.57432,-29.4441 -0.92461,-5.89371 -3.97379,-16.33638 -4.77011,-16.33638 -0.37472,0 -2.57872,1.95688 -4.89779,4.34862 -12.43741,12.82721 -33.033,23.37629 -66.25794,33.93742 -9.44551,3.00241 -17.77422,6.18259 -18.50827,7.06706 -1.51511,1.8256 -0.11636,17.85075 2.03058,23.26381 1.41036,3.55591 1.35584,3.56174 20.33203,-2.17385 z m 53.47818,-5.89925 2.57561,-2.13031 -2.89158,1.72382 c -1.59037,0.9481 -6.03037,3.4491 -9.86667,5.55779 -3.8363,2.10871 -6.97508,4.06375 -6.97508,4.34456 0,0.79172 14.26464,-7.10299 17.15772,-9.49586 z m -371.747714,1.7229 c 2.891175,-0.9533 6.216684,-2.68788 7.390014,-3.85463 2.1311,-2.11911 2.12923,-2.12061 -1.79461,-1.43189 -3.547244,0.62263 -13.672055,5.4937 -13.672055,6.57766 0,0.87641 2.917366,0.41003 8.076651,-1.29114 z m -3.519526,-5.73411 c 3.1371,-1.17374 6.635106,-2.8835 7.773347,-3.79947 1.937303,-1.55899 1.796913,-1.62171 -2.19714,-0.98163 -5.402223,0.86574 -13.333332,4.30894 -13.333332,5.78852 0,1.58698 1.260498,1.42328 7.757125,-1.00742 z m 1.37455,-8.29697 3.923908,-2.01308 -2.781953,-2.18829 c -3.730026,-2.93404 -10.968079,-3.9229 -16.13083,-2.20379 -5.257068,1.75052 -5.705234,3.30566 -1.957013,6.79082 2.630315,2.44572 3.651521,2.72783 8.018098,2.21505 2.752136,-0.3232 6.769642,-1.49351 8.92779,-2.60071 z m 21.29276,0.75406 c 0.94466,-2.97638 -0.32164,-7.64457 -1.93044,-7.11654 -1.4255,0.46786 -2.32003,5.43768 -1.40702,7.81695 0.84433,2.20028 2.52902,1.84672 3.33746,-0.70041 z m 371.69254,-7.12302 c -0.0118,-3.6645 -0.30248,-4.62389 -1.05033,-3.46667 -1.36286,2.10886 -1.36286,8.53333 0,8.53333 0.58666,0 1.05931,-2.28 1.05033,-5.06666 z m -382.06135,1.12474 c 0.40835,-2.75548 -5.36832,-7.79141 -8.937466,-7.79141 -3.586812,0 -3.24973,1.34454 1.620644,6.46437 4.377532,4.60174 6.767302,5.03517 7.316822,1.32704 z m 5.90018,-7.18009 c 0.82162,-2.14111 -1.84886,-4.02908 -5.12284,-3.62173 -2.64455,0.32905 -2.69034,0.44639 -1.07068,2.74374 1.90396,2.70063 5.30889,3.18331 6.19352,0.87799 z"
       id="path177"
       inkscape:connector-curvature="0" />
  </g>
</svg>
