<?xml version="1.0" encoding="UTF-8"?>
<!DOCTYPE svg PUBLIC "-//W3C//DTD SVG 1.1//EN" "http://www.w3.org/Graphics/SVG/1.1/DTD/svg11.dtd">
<!-- Creator: CorelDRAW 2019 (64-Bit) -->
<svg xmlns="http://www.w3.org/2000/svg" xml:space="preserve" width="350px" height="350px" version="1.1" style="shape-rendering:geometricPrecision; text-rendering:geometricPrecision; image-rendering:optimizeQuality; fill-rule:evenodd; clip-rule:evenodd"
viewBox="0 0 350 350"
 xmlns:xlink="http://www.w3.org/1999/xlink"
 xmlns:xodm="http://www.corel.com/coreldraw/odm/2003">
 <defs>
  <style type="text/css">
   <![CDATA[
    .fil0 {fill:white}
   ]]>
  </style>
 </defs>
 <g id="Layer_x0020_1">
  <metadata id="CorelCorpID_0Corel-Layer"/>
  <path class="fil0" d="M18.6 81.74c0,-34.73 28.41,-63.14 63.14,-63.14l87.1 0 0 12.59c-75.04,2.65 -135.45,62.75 -138.6,137.65l-11.64 0 0 -87.1zm177.36 90.78l-0.28 0.54 -0.25 1.4 -0.29 0.58 -0.04 0.43 -0.18 0.55 -0.03 0.37 -0.32 0.52 -0.05 0.47 -0.16 0.55 -0.06 0.35 -0.29 0.55 0.01 0.27 -0.31 0.52 -0.23 1.43 -0.31 0.48 0.01 0.31 -0.34 0.5 0.03 0.53 -0.18 0.51 -0.09 0.35 -0.17 0.52 -0.11 0.18 -0.2 0.53 -0.06 0.34 -0.2 0.52 -0.26 1.36 -0.34 0.48 -0.2 1.18 -0.35 0.47 -0.22 1.18 -0.34 0.45 -0.31 0.94 -0.2 0.52 -0.04 0.45 -0.21 0.49 -0.09 0.31 -0.19 0.47 -0.6 1.8 -0.2 0.48 -0.13 0.25 -0.2 0.43 -0.31 1.02 -0.2 0.49 -0.38 0.78 -0.19 0.48 -0.91 2.25 -0.21 0.47 -0.34 1.01 -0.21 0.41 -0.05 0.13 -0.23 0.41 -0.34 0.96 -0.22 0.36 -0.06 0.17 -0.2 0.39 -0.89 2.11 -0.25 0.37 -0.01 0.22 -0.24 0.38 -0.02 0.2 -0.24 0.38 -0.08 0.05 -0.24 0.4 0.02 0.29 -0.26 0.38 -0.03 0.17 -0.24 0.37 -0.06 0.14 -0.23 0.34 -0.05 0.2 -0.24 0.34 -1.08 2.23 -0.26 0.34 -0.59 0.96 -0.27 0.3 -0.03 0.25 -0.27 0.31 -0.27 0.46 -0.28 0.33 -0.05 0.21c-0.21,0.91 0.18,-0.31 -0.15,0.46 -0.02,0.05 -0.1,0.24 -0.12,0.2 -0.02,-0.04 -0.09,0.12 -0.14,0.18l-0.32 0.38 -0.29 0.28 -0.07 0.15c-0.24,0.69 -0.27,0.54 -0.47,0.76l-0.35 0.28 -0.47 0.75 -0.31 0.5c-0.48,1.18 0,0.25 -0.53,0.69 -0.56,0.51 -0.52,0.65 -1.13,1.24 -0.52,0.5 -0.62,0.6 -1.09,1.12 -0.79,0.89 -1.43,1.33 -2.2,2.18l-0.88 0.81c-0.63,0.46 -1.19,0.94 -1.85,1.42l-0.25 0.3 -0.66 0.22 -0.29 0.3 -0.43 0.29 -0.32 0.26 -3.6 1.66 -0.42 0.22 -0.94 0.33 -0.49 0.33 -0.4 -0.07 -0.52 0.29c-1.77,0.22 -3.3,0.64 -5.22,0.7 -2.01,0.07 -3.72,-0.33 -5.59,-0.36l-0.75 -0.35 -1.37 -0.26 -0.52 -0.32 -0.5 -0.01 -0.47 -0.2 -0.81 -0.35 -0.49 -0.21 -3.59 -1.66 -0.31 -0.27 -1.76 -1.19 -0.71 -0.45 -0.24 -0.37 -1.16 -0.71c-1.54,-1.54 -3.44,-3 -4.65,-4.68l-0.71 -1.1 -0.37 -0.24c-0.24,-0.25 -0.16,0.19 -0.45,-0.74 -0.53,-0.71 -0.81,-1.04 -1.12,-1.88l-0.31 -0.33 -0.55 -1.02 -0.25 -0.31 -0.06 -0.19 -0.26 -0.32 0 -0.27 -0.24 -0.4 -0.02 -0.14 -0.24 -0.41 -0.08 -0.05 -0.23 -0.38 -0.87 -2.11 -0.21 -0.44 -0.63 -1.75 -0.18 -0.48 -0.11 -0.32 -0.18 -0.48 -0.01 -0.51 -0.31 -0.53 0.01 -0.26 -0.3 -0.54 -0.03 -0.42 -0.17 -0.54 -0.05 -0.7 -0.27 -0.61 -0.27 -1.65 -0.34 -0.73 -0.48 -4.18 -0.26 -0.95 -0.59 -6.47 -0.31 -2.2 0.02 -4.37c-0.48,-1.59 -0.49,-8.77 -0.01,-10.35l0.33 -10 0.22 -1.29 0.1 -1.94 0.15 -0.87 0.08 -1.11 0.24 -1 -0.03 -1.35 0.25 -0.97 0.58 -4.28 0.31 -0.79 -0.06 -0.62 0.33 -0.77 -0.04 -0.58 0.35 -0.74 0.24 -1.71 0.27 -0.57 0.53 -2.51 0.3 -0.53 0.07 -0.4 0.18 -0.49 0.06 -0.4 0.19 -0.5 0.08 -0.34 0.19 -0.49 0.1 -0.31 0.2 -0.42 0.34 -0.94 0.21 -0.46 0.09 -0.36 0.21 -0.43 0.04 -0.11 0.2 -0.45 0.39 -0.96 0.2 -0.4 0.01 -0.23 0.24 -0.39 0.07 -0.03 0.26 -0.39 0.01 -0.2 0.26 -0.36 -0.02 -0.3 0.25 -0.36 0.04 -0.16 0.25 -0.36 0.55 -1 0.3 -0.3 0.01 -0.24 0.28 -0.29 0.28 -0.49 0.3 -0.3 0.23 -0.55 0.28 -0.3 0.29 -0.49 0.26 -0.39 0.19 -0.35 0.16 0.09 0.32 -0.46 0.13 -0.42 0.23 -0.3 0.13 -0.13 0.24 -0.29 0.17 -0.39c-0.04,-0.5 -0.17,-0.39 0.32,-0.39 0.61,-0.41 1.73,-2.03 2.58,-2.79 0.97,-0.86 1.72,-1.29 2.79,-2.32 0,-0.48 -0.1,-0.33 0.44,-0.26l0.37 -0.19 0.13 -0.07 0.39 -0.16 0.5 -0.28 0 -0.09 0.32 -0.28 2.95 -1.4 0.45 -0.21 1.82 -0.57 0.53 -0.29 0.5 -0.01 0.66 -0.25 0.74 -0.03 0.88 -0.27c3.06,0.08 4.98,0.02 8.15,0.31l0.67 0.23 0.56 -0.02 0.59 0.27 0.47 0.03 0.54 0.3 0.43 0.07 0.48 0.17 1.79 0.61 0.39 0.22 0.14 0.05 0.41 0.2 2.98 1.41 0.3 0.28 0.24 0.01 0.32 0.27c0.65,0.38 1.19,0.61 1.72,1.16l0.45 0.27 0.36 0.16 0.15 0.11 0.34 0.17c0.54,-0.06 0.44,-0.21 0.44,0.28l0.37 0.33 0.31 0.2c0.5,-0.06 0.39,-0.18 0.39,0.3l0.66 0.58 0.22 0.36c1.31,0.75 2.04,1.67 3.16,2.63 1.19,1 1.71,1.65 2.69,2.85l0.23 0.27 0.34 0.28c0.58,0.6 0.99,1.29 1.69,2.02 0.49,0 0.38,-0.12 0.3,0.39l0.18 0.34c0.48,0.68 0.52,0.59 0.85,1.34l0.3 0.26 0.25 0.6 0.27 0.27 0.3 0.47c0.39,0 0.29,-0.09 0.29,0.31l0.5 1.18 0.28 0.32 0.57 0.98 0.25 0.33 0 0.26 0.28 0.37 2.81 5.6 0.21 0.4 0.57 1.61 0.23 0.42 0.64 1.42 0.2 0.45 0.34 0.97 0.2 0.42 0.07 0.42 0.21 0.45 0.36 0.87 0.17 0.47 0.08 0.43 0.2 0.49 0.1 0.31 0.19 0.49 0.31 0.96 0.34 0.49 -0.06 0.32 0.34 0.47 -0.06 0.36 0.33 0.49 0.01 0.5 0.18 0.51 0 0.21 0.31 0.5 0.54 2.21 0.31 0.5 0.03 0.41 0.18 0.55 0.04 0.45 0.31 0.52 0.01 0.45 0.17 0.53 0.04 0.48 0.29 0.53 0.03 0.48 0.28 0.57 0.01 1.72 -0.29 0.56 -0.56 2.45zm-51.29 -66.18l-1.08 0.31 -0.95 0.03 -0.74 0.21 -1 0.05 -0.68 0.24 -0.65 0.07 -0.59 0.15 -0.31 0.07 -0.6 0.27 -0.59 -0.06 -0.57 0.32 -0.44 0.03 -0.54 0.19 -0.16 0.13 -0.51 0.17 -0.34 0.1 -0.49 0.19 -0.28 0.1 -0.51 0.19 -0.98 0.31 -0.45 0.22 -0.89 0.36 -0.42 0.2 -4.67 2.24 -0.27 0.26 -0.25 0.03 -0.34 0.25 -1.91 1.07 -0.32 0.31 -0.43 0.3 -0.27 0.31c-1.51,0.56 -2.89,2.14 -4.28,2.92l-0.21 0.35c-0.64,0.63 -1.03,0.69 -1.66,1.34 -0.77,0.79 -0.78,0.87 -1.51,1.51 -1.25,1.09 -2,2.04 -3.17,3.18 -0.14,0.21 -0.28,0.47 -0.43,0.66 -0.43,0.53 -0.18,0.26 -0.64,0.58 -0.62,0.41 -0.65,0.66 -1.1,1.27 -0.44,0.75 -0.23,0.34 -0.57,0.59l-0.82 1 -0.51 0.63 -0.35 0.4 -0.49 0.71c-0.8,1.1 -1.9,2.55 -2.51,3.82l-0.27 0.3 -0.59 1.04 -0.26 0.3 -0.56 1 -0.27 0.37 0 0.28 -0.25 0.34 -1.44 2.87 -0.23 0.39 -0.01 0.23 -0.24 0.4 -0.01 0.2 -0.23 0.41 -0.67 1.35 -0.21 0.45 -0.28 1.07 -0.21 0.47 -0.66 1.58 -0.18 0.51 -0.1 0.33 -0.19 0.51 -0.08 0.31 -0.18 0.52 0 0.52 -0.31 0.54 0 0.26 -0.3 0.52 -0.79 3.64 -0.38 0.71 -1.28 8.91 -0.38 1.56c0.28,2.76 -0.37,7.83 -0.33,11.1 0.05,3.55 0.34,7.01 0.76,10.53l0.19 0.82 0.04 0.97 0.19 0.77 0.32 2.37 0.34 0.77 -0.05 0.59 0.35 0.73 0.21 1.7 0.28 0.59 0 0.5 0.29 0.57 0.3 1.59 0.18 0.53 0.1 0.23 0.18 0.51 0.25 1.38 0.35 0.48 0.3 1.02 0.18 0.44 0.12 0.28 0.2 0.48 0.31 1.02 0.2 0.43 0.11 0.38 0.2 0.43 0.04 0.15 0.22 0.4 0.37 0.88c0.43,0 0.28,-0.08 0.23,0.43l-0.01 0.26 0.23 0.36 0.64 1.53 0.23 0.36 0.01 0.21 0.25 0.36 0.03 0.22 0.24 0.38 0.04 0.14 0.23 0.39 0.05 0.17 0.23 0.37 1.12 2.13 0.26 0.31 0.03 0.25 0.25 0.31 0.59 0.99 0.27 0.31 0.52 1.18 0.28 0.32 0.28 0.45 0.29 0.27 0.6 1.05 0.44 0.83 0.12 -0.03 0.46 0.81 0.33 0.3c0.43,0.42 0.09,-0.47 0.46,0.74l0.15 -0.1c0.29,0.33 0.13,0.09 0.43,0.57 0.01,0.03 0.22,0.49 0.26,0.6 0.86,1.26 2.4,2.72 3.36,3.79 1.16,1.27 2.42,2.51 3.87,3.58 1.09,0.44 0.25,-0.02 0.65,0.53l0.36 0.37 0.67 0.48 0.43 0.34c1.17,0.39 0.29,0.02 0.71,0.46l0.52 0.26 0.29 0.31 0.41 0.29 0.33 0.3 1.15 0.51 0.3 0.29 1.64 0.8 0.36 0.25 0.17 0.05 0.35 0.24 0.19 0.03c0.46,-0.02 0.37,-0.15 0.37,0.26l0.18 0.01c0.49,-0.03 0.4,-0.17 0.4,0.25l0.02 0.07 0.43 0.24 1.58 0.58 0.43 0.21 0.95 0.34 0.44 0.21 2.68 0.82 0.53 0.32 0.41 0.07 0.55 0.17 0.39 0.03 0.55 0.29 7.19 1.45 0.87 0.19 1.34 -0.03 1.4 0.3 1.17 -0.09 2.63 0.38 8.81 0.02 1.71 -0.3 1.04 0 1.12 -0.3 1.03 0 0.76 -0.2 1.03 0.01 0.8 -0.33 0.58 0.07 0.74 -0.36 0.56 0.02 0.62 -0.27 0.48 -0.02 0.58 -0.27 0.47 -0.05 0.54 -0.16 0.26 -0.12 0.5 -0.16 0.4 -0.08 0.48 -0.34 1.11 -0.22 0.44 -0.21 0.42 -0.07 0.48 -0.21 0.9 -0.35 0.41 -0.22 0.12 -0.05 0.39 -0.21 4.14 -1.92 0.38 -0.28 0.96 -0.58 0.28 -0.25 1.13 -0.58 0.25 -0.29 0.59 -0.24 0.25 -0.3 0.38 -0.33c0.31,-0.3 -0.29,-0.13 0.74,-0.47 0.9,-0.63 1.51,-1.11 2.38,-1.74 2.59,-1.89 2.66,-2.33 4.5,-4.04 0.83,-0.76 1.37,-1.43 2.21,-2.19 0.58,-0.73 0.57,-1.07 1.28,-1.65 0.45,-0.33 1.13,-1.13 1.46,-1.65 0.35,-0.81 0.25,-0.45 0.51,-0.69l0.34 -0.41c0.34,-1.29 0.06,-0.37 0.46,-0.8l0.28 -0.42 0.31 -0.29 0.27 -0.52 0.29 -0.25 0.27 -0.56 0.28 -0.28 0.24 -0.57 0.29 -0.3 1.13 -1.79 0.27 -0.31 0.84 -1.67 0.27 -0.3 0.85 -1.5 0.25 -0.41 0.03 -0.25 0.24 -0.32 1.39 -2.67 0.36 -0.44 0.2 0.59 -0.01 0.27 0.27 0.61 0 0.52 0.27 0.61 -0.01 0.54 0.28 0.54 0.01 0.52 0.29 0.55 0 0.51 0.29 0.58 -0.04 0.59 0.28 0.57 0.03 0.45 0.18 0.58 0.11 0.23 0.16 0.51 0.05 0.43 0.32 0.51 0.04 0.4 0.18 0.51 0.31 1.3 0.34 0.49 0.21 1.17 0.33 0.49 0.25 1.09 0.2 0.43 0.12 0.27 0.21 0.48 0.29 1.03 0.2 0.44 0.36 0.91 0.21 0.44 0.58 1.6 0.23 0.45 0.07 0.02 0.23 0.38 0.04 0.22 0.24 0.35 0.03 0.18 0.24 0.37 0.04 0.18c0.39,0 0.27,-0.09 0.27,0.33l-0.01 0.29 0.25 0.34 0.57 1 0.26 0.31 0.64 0.88c0.22,0.24 0.18,-0.12 0.47,0.79 0.64,1.2 2.36,2.73 3.32,3.56 0.08,0.05 0.5,0.33 0.51,0.33 0.37,0.28 0.2,0.16 0.47,0.45l0.34 0.38 0.68 0.46 0.5 0.3 0.29 0.28 0.49 0.27 0.29 0.29 0.26 0.02 0.31 0.25 1.31 0.6 0.38 0.19 0.14 0.06 0.41 0.22 0.42 0.07 0.49 0.18 0.36 0.1 0.56 0.16 0.23 0.1 0.67 0.26 0.7 0.02 0.93 0.27c2.25,-0.14 3.85,-0.07 6.23,-0.37l0.58 -0.16 0.43 0 0.48 -0.33 0.94 -0.33 0.46 -0.22 1.9 -0.82c0,-0.39 -0.09,-0.28 0.34,-0.27l1.08 -0.54 0.3 -0.3 0.45 -0.31 0.71 -0.51c0.63,-0.73 1.34,-1.04 2.03,-1.72 0.66,-0.66 1.01,-1.45 1.77,-1.92l0.69 -1.16 0.14 0.06 0.45 -0.83 0.59 -1.02 0.26 -0.34 0.02 -0.23 0.26 -0.35 0.05 -0.18 0.23 -0.34 0.04 -0.19 0.24 -0.36 0.02 -0.22 0.24 -0.4 0.06 -0.06 0.23 -0.42 0.33 -1.01 0.19 -0.45 0.36 -0.84 0.2 -0.49 0.05 -0.46 0.18 -0.55 0.14 -0.11 0.19 -0.51 0 -0.54 0.3 -0.51 -0.01 -0.3 0.3 -0.56 0.01 -0.45 0.29 -0.6 -0.01 -0.49 0.29 -0.61 1.07 -6.6 0.2 -0.8 0.07 -1.1 0.25 -0.97 -0.09 -0.87 0.39 -1.53 0.12 -1.74 -5.64 0.03 -0.32 0.99 -0.23 0.75 -0.28 1.85 -0.28 0.57 0.06 0.62 -0.32 0.52 -0.06 0.44 -0.18 0.48 -0.59 1.78c0.05,0.52 0.2,0.44 -0.23,0.44l-1.13 2.39 -0.27 0.34 -0.79 1.34 -0.34 0.27c-0.66,0.76 -0.98,1.4 -1.75,2.04 -0.56,0.45 -1.72,1.36 -2.38,1.74l-0.28 0.29 -1.61 0.84 -0.39 0.22 -0.88 0.38 -0.46 0.19 -0.52 0.01 -0.59 0.28c-2.88,0.49 -3.8,0.28 -6.59,0.04l-0.55 -0.3 -0.98 -0.3 -0.44 -0.22 -1.87 -0.87 -0.27 -0.29 -0.32 -0.32 -1.12 -0.73c-1.04,-0.81 -2.47,-2.34 -3.22,-3.65l-0.31 -0.24 -0.58 -0.99 -0.25 -0.38 -0.03 -0.15 -0.23 -0.4 -0.02 -0.24 -0.22 -0.38 -0.36 -0.9 -0.22 -0.47 -0.06 -0.41 -0.2 -0.47 -0.33 -0.91 -0.19 -0.46 -0.09 -0.35 -0.19 -0.48 0 -0.49 -0.35 -0.49 -0.56 -2.15 -0.18 -0.57 -0.11 -0.23 -0.17 -0.48 -0.07 -0.45 -0.28 -0.54 0.01 -0.53 -0.29 -0.57 0.02 -0.28 -0.3 -0.55 -0.55 -2.44 -0.29 -0.58 0.06 -0.59 -0.29 -0.58 -0.84 -3.5 -0.29 -0.59 0.01 -0.5 -0.29 -0.57 0 -0.53 -0.27 -0.59 0 -0.51 -0.28 -0.59 0.09 -0.89 0.18 -0.55 -0.01 -0.56 0.3 -0.53 0.06 -0.43 0.16 -0.53 0.12 -0.23 0.17 -0.53 0.06 -0.41 0.3 -0.56 -0.02 -0.55 0.28 -0.54 0.29 -1.35 0.17 -0.55 0.04 -0.39 0.31 -0.51 0.03 -0.48 0.19 -0.51 0.03 -0.41 0.32 -0.51 -0.03 -0.3 0.32 -0.51 -0.03 -0.56 0.3 -0.52 -0.02 -0.27 0.31 -0.58 0.03 -0.33 0.18 -0.58 0.04 -0.43 0.32 -0.56 -0.03 -0.52 0.19 -0.54 0.01 -0.42 0.34 -0.51 -0.03 -0.27 0.32 -0.54 -0.04 -0.55 0.32 -0.52 -0.09 -0.37 0.31 -0.56 0.05 -0.41 0.18 -0.54 0.03 -0.4 0.31 -0.5 0.04 -0.48 0.18 -0.51 0.04 -0.41 0.3 -0.53 -0.02 -0.31 0.31 -0.51 0.03 -0.4 0.19 -0.53 0.38 -1.34 0.17 -0.57 -0.01 -0.55 0.3 -0.55 0.06 -0.42 0.16 -0.55 0.05 -0.37 0.3 -0.56 -0.02 -0.27 0.3 -0.53 -0.02 -0.55 0.31 -0.52 0.32 -1.18 0.17 -0.57 -0.02 -0.55 0.3 -0.56 0.27 -1.37 0.31 -0.52 0.25 -1.38 0.32 -0.49 0.04 -0.46 0.17 -0.54 0.11 -0.21 0.17 -0.56 0.06 -0.4 0.31 -0.58 -0.03 -0.53 0.17 -0.57 0.03 -0.39 0.32 -0.53 0.04 -0.44 0.17 -0.55 0.04 -0.38 0.31 -0.52 0.27 -1.38 0.29 -0.51 -0.01 -0.28 0.3 -0.56 0 -0.54 0.28 -0.53 -0.02 -0.29 0.33 -0.53 0.02 -0.34 0.17 -0.58 -0.02 -0.55 0.3 -0.57 0.27 -1.35 0.3 -0.54 -0.01 -0.27 0.3 -0.54 -0.02 -0.56 0.29 -0.51 0.07 -0.44 0.17 -0.51 0.09 -0.25 0.18 -0.56 0.05 -0.42 0.31 -0.56 0.18 -1.47 0.32 -0.52 0.05 -0.45 0.17 -0.52 0.02 -0.42 0.32 -0.52 0.32 -1.2 0.18 -0.55 0.05 -0.43 0.3 -0.56 -0.01 -0.54 0.28 -0.53 0 -0.27 0.31 -0.56 0.18 -1.47 0.31 -0.52 0.06 -0.44 0.17 -0.54 0.02 -0.4 0.31 -0.53 -0.01 -0.29 0.31 -0.54 -0.04 -0.55 0.3 -0.5 0.33 -1.16 0.18 -0.59 -0.03 -0.56 0.32 -0.53 0.05 -0.44 0.18 -0.55 0.02 -0.39 0.32 -0.5 0.04 -0.47 0.17 -0.53 0.04 -0.39 0.31 -0.55 0.04 -0.44 0.18 -0.51 0.1 -0.21 0.19 -0.56 0.03 -0.45 0.31 -0.54 -0.02 -0.56 0.18 -0.52 0.03 0.17c-2.44,-0.89 -19.12,0.01 -23.46,-0.31l-0.14 0.5 -0.03 0.42 -0.29 0.53 -0.25 1.42 -0.3 0.54 -0.24 1.4 -0.31 0.51 -0.04 0.48 -0.17 0.56 -0.02 0.39 -0.3 0.55 -0.05 0.44 -0.17 0.57 -0.38 1.37 -0.17 0.56 -0.1 0.26 -0.29 0.56 0.01 0.56 -0.28 0.55 0.02 0.28 -0.31 0.54 -0.02 0.41 -0.18 0.53 -0.03 0.46 -0.3 0.55 0.03 0.58 -0.3 0.52 -0.04 0.47 -0.16 0.53 -0.33 1.24 -0.3 0.53 0.04 0.58 -0.3 0.53 -0.04 0.45 -0.18 0.55 -0.01 0.42 -0.31 0.55 -0.04 0.45 -0.17 0.55 -0.02 0.39 -0.32 0.53 -0.24 1.41 -0.3 0.55 -0.32 1.23 -0.3 0.59 0.03 0.56 -0.17 0.55 -0.1 0.3 -0.3 0.51 -0.03 0.42 -0.15 0.54 -0.07 0.45 -0.29 0.56 -0.03 0.4 -0.17 0.53 -0.1 0.62 -0.18 0.54 -0.02 0.42 -0.31 0.52 0.02 0.3 -0.31 0.53 0.04 0.57 -0.29 0.54 -0.24 1.42 -0.3 0.54 -0.06 0.45 -0.16 0.54 -0.03 0.39 -0.3 0.57 -0.05 0.43 -0.17 0.56 -0.1 0.25 -0.28 0.58 0.05 0.32c-0.27,0.45 -0.02,0.46 -0.31,0l-0.02 -0.18 -0.19 -0.45 -0.08 -0.4 -0.21 -0.47 -0.38 -0.76 -0.21 -0.48 -0.27 -1.09 -0.22 -0.47 -0.34 -0.9 -0.23 -0.41 -0.63 -1.41 -0.23 -0.44 -0.57 -1.59 -0.23 -0.42 -0.05 -0.1 -0.23 -0.4 -0.89 -2.11 -0.22 -0.37 -0.02 -0.23 -0.24 -0.37 -0.08 -0.05c-0.42,0 -0.29,0.09 -0.25,-0.38l-0.01 -0.2 -0.23 -0.37 -0.05 -0.17 -0.24 -0.37 -0.03 -0.2 -0.23 -0.38 -0.04 -0.17 -0.25 -0.37 -0.03 -0.17 -0.25 -0.38 -0.04 -0.14 -0.25 -0.38 -0.01 -0.25 -0.24 -0.36 -0.81 -1.62 -0.27 -0.33 -0.01 -0.24 -0.26 -0.36 -0.06 -0.12 -0.27 -0.32 -0.53 -1.1 -0.28 -0.31 -0.25 -0.54 -0.28 -0.27 -0.03 -0.25 -0.29 -0.31 -0.27 -0.44 -0.3 -0.29 -0.23 -0.59 -0.28 -0.3 -0.27 -0.52 -0.29 -0.28 -0.29 -0.51c-0.18,-0.21 -0.25,-0.21 -0.45,-0.74l-0.14 0.01c-0.27,-0.26 -0.24,-0.01 -0.47,-0.72l-0.33 -0.44c-0.28,-0.25 -0.17,0.16 -0.49,-0.71 -0.53,-0.88 -0.83,-1.05 -1.44,-1.84l-1.02 -1.33c-0.35,-0.2 -2.86,-2.76 -3.23,-3.23 -0.82,-0.58 -1.03,-0.43 -1.67,-1.22l-0.31 -0.38c-0.14,-0.06 -0.52,-0.21 -0.6,-0.26 -0.49,-0.29 -0.21,-0.13 -0.54,-0.44 -0.42,-0.66 -2.02,-1.63 -2.77,-2.02l-0.28 -0.28 -0.51 -0.27 -0.31 -0.3 -1.58 -0.81 -0.35 -0.26 -0.3 0.02c-0.44,0.02 -0.36,0.14 -0.36,-0.26l-0.2 -0.01c-0.45,0.03 -0.36,0.15 -0.36,-0.26l-0.19 -0.04 -0.37 -0.23 -0.06 -0.08 -0.4 -0.22 -1.48 -0.63 -0.44 -0.22 -1 -0.3 -0.45 -0.2 -0.45 -0.06 -0.52 -0.19 -0.14 -0.13 -0.51 -0.19 -0.54 0 -0.52 -0.31 -1.32 -0.28 -0.6 -0.27 -0.75 -0.02 -0.67 -0.24 -2.25 -0.22 -1.06 -0.32 -1.51 -0.06 -1.26 -0.22c-3.41,0.05 -6.52,0.13 -9.89,0.24zm36.49 -87.74l88.27 0c34.73,0 63.14,28.42 63.14,63.14l0 87.1 -14.78 0c-3.13,-74.25 -62.51,-133.94 -136.63,-137.57l0 -12.67zm151.41 162.56l0 85.7c0,34.73 -28.41,63.14 -63.14,63.14l-88.27 0 0 -11.27c74.12,-3.62 133.5,-63.32 136.63,-137.57l14.78 0zm-163.73 148.84l-87.1 0c-34.72,0 -63.14,-28.41 -63.14,-63.14l0 -85.7 11.64 0c3.15,74.91 63.56,135.01 138.6,137.66l0 11.18zm137.38 -148.84l-17.37 0c-3.08,58.28 -49.54,105.06 -107.69,108.62l0 17.38c67.73,-3.61 121.95,-58.14 125.06,-126zm-29.11 0l-16.12 0 0 -12.32 16.12 0c-3.05,-51.8 -44.28,-93.34 -95.95,-96.87l0 17.04 -12.32 0 0 -17.16c-52.59,2.59 -94.84,44.53 -97.93,96.99l19.37 0 0 12.32 -19.37 0c3.09,52.46 45.34,94.4 97.93,96.99l0 -17.16 12.32 0 0 17.05c51.67,-3.54 92.9,-45.08 95.95,-96.88zm-217.94 0l-17.36 0c3.14,68.52 58.38,123.45 127.03,126.09l0 -17.36c-59.07,-2.62 -106.55,-49.79 -109.67,-108.73zm109.67 -121.04l0 -17.36c-68.65,2.63 -123.89,57.56 -127.03,126.08l17.36 0c3.11,-58.93 50.6,-106.11 109.67,-108.72zm120.01 108.72l17.37 0c-3.11,-67.86 -57.33,-122.39 -125.06,-125.99l0 17.37c58.15,3.57 104.61,50.34 107.69,108.62zm-13.85 -168.84l-200 0c-41.25,0 -75,33.75 -75,75l0 200c0,41.25 33.75,75 75,75l200 0c41.25,0 75,-33.75 75,-75l0 -200c0,-41.25 -33.75,-75 -75,-75z"/>
 </g>
</svg>
