<?xml version="1.0"?>
<svg width="640" height="480" xmlns="http://www.w3.org/2000/svg" xmlns:svg="http://www.w3.org/2000/svg">
 <!-- Created with SVG-edit - https://github.com/SVG-Edit/svgedit-->

 <g class="layer">
  <title>Layer 1</title>
  <line fill="none" fill-opacity="0.01" id="svg_33" stroke="#ffffff" stroke-width="3" x1="250" x2="265" y1="210" y2="195"/>
  <line fill="none" fill-opacity="0.01" id="svg_34" stroke="#ffffff" stroke-width="3" x1="250" x2="275" y1="220" y2="195"/>
  <line fill="none" fill-opacity="0.01" id="svg_35" stroke="#ffffff" stroke-width="3" x1="250" x2="285" y1="230" y2="195"/>
  <line fill="none" fill-opacity="0.01" id="svg_36" stroke="#ffffff" stroke-width="3" x1="250" x2="270" y1="240" y2="220"/>
  <line fill="none" fill-opacity="0.01" id="svg_37" stroke="#ffffff" stroke-width="3" x1="250" x2="270" y1="250" y2="230"/>
  <line fill="none" fill-opacity="0.01" id="svg_38" stroke="#ffffff" stroke-width="3" x1="250" x2="270" y1="260" y2="240"/>
  <line fill="none" fill-opacity="0.01" id="svg_42" stroke="#ffffff" stroke-width="3" x1="255" x2="270" y1="265" y2="250"/>
  <line fill="none" fill-opacity="0.01" id="svg_43" stroke="#ffffff" stroke-width="3" x1="275" x2="320" y1="215" y2="170"/>
  <line fill="none" fill-opacity="0.01" id="svg_45" stroke="#ffffff" stroke-width="3" x1="250" x2="255" y1="200" y2="195"/>
  <line fill="none" fill-opacity="0.01" id="svg_46" stroke="#ffffff" stroke-width="3" x1="290" x2="315" y1="190" y2="165"/>
  <line fill="none" fill-opacity="0.01" id="svg_47" stroke="#ffffff" stroke-width="3" x1="290" x2="305" y1="180" y2="165"/>
  <line fill="none" fill-opacity="0.01" id="svg_49" stroke="#ffffff" stroke-width="3" x1="290" x2="295" y1="170" y2="165"/>
  <line fill="none" fill-opacity="0.01" id="svg_50" stroke="#ffffff" stroke-width="3" x1="280" x2="320" y1="220" y2="180"/>
  <line fill="none" fill-opacity="0.01" id="svg_51" stroke="#ffffff" stroke-width="3" x1="280" x2="320" y1="230" y2="190"/>
  <line fill="none" fill-opacity="0.01" id="svg_52" stroke="#ffffff" stroke-width="3" x1="280" x2="325" y1="240" y2="195"/>
  <line fill="none" fill-opacity="0.01" id="svg_53" stroke="#ffffff" stroke-width="3" x1="280" x2="335" y1="250" y2="195"/>
  <line fill="none" fill-opacity="0.01" id="svg_55" stroke="#ffffff" stroke-width="3" x1="280" x2="345" y1="260" y2="195"/>
  <line fill="none" fill-opacity="0.01" id="svg_57" stroke="#ffffff" stroke-width="3" x1="280" x2="330" y1="270" y2="220"/>
  <line fill="none" fill-opacity="0.01" id="svg_58" stroke="#ffffff" stroke-width="3" x1="280" x2="330" y1="280" y2="230"/>
  <line fill="none" fill-opacity="0.01" id="svg_59" stroke="#ffffff" stroke-width="3" x1="280" x2="330" y1="290" y2="240"/>
  <line fill="none" fill-opacity="0.01" id="svg_60" stroke="#ffffff" stroke-width="3" x1="280" x2="330" y1="300" y2="250"/>
  <line fill="none" fill-opacity="0.01" id="svg_61" stroke="#ffffff" stroke-width="3" x1="280" x2="300" y1="310" y2="290"/>
  <line fill="none" fill-opacity="0.01" id="svg_62" stroke="#ffffff" stroke-width="3" x1="280" x2="300" y1="320" y2="300"/>
  <line fill="none" fill-opacity="0.01" id="svg_63" stroke="#ffffff" stroke-width="3" x1="280" x2="300" y1="330" y2="310"/>
  <line fill="none" fill-opacity="0.01" id="svg_64" stroke="#ffffff" stroke-width="3" x1="285" x2="300" y1="335" y2="320"/>
  <line fill="none" fill-opacity="0.01" id="svg_65" stroke="#ffffff" stroke-width="3" x1="305" x2="330" y1="285" y2="260"/>
  <line fill="none" fill-opacity="0.01" id="svg_66" stroke="#ffffff" stroke-width="3" x1="310" x2="330" y1="290" y2="270"/>
  <line fill="none" fill-opacity="0.01" id="svg_67" stroke="#ffffff" stroke-width="3" x1="310" x2="330" y1="300" y2="280"/>
  <line fill="none" fill-opacity="0.01" id="svg_68" stroke="#ffffff" stroke-width="3" x1="310" x2="330" y1="310" y2="290"/>
  <line fill="none" fill-opacity="0.01" id="svg_69" stroke="#ffffff" stroke-width="3" x1="310" x2="330" y1="320" y2="300"/>
  <line fill="none" fill-opacity="0.01" id="svg_70" stroke="#ffffff" stroke-width="3" x1="310" x2="330" y1="330" y2="310"/>
  <line fill="none" fill-opacity="0.01" id="svg_73" stroke="#ffffff" stroke-width="3" x1="315" x2="330" y1="335" y2="320"/>
  <line fill="none" fill-opacity="0.01" id="svg_74" stroke="#ffffff" stroke-width="3" x1="335" x2="355" y1="215" y2="195"/>
  <line fill="none" fill-opacity="0.01" id="svg_75" stroke="#ffffff" stroke-width="3" x1="340" x2="360" y1="220" y2="200"/>
  <line fill="none" fill-opacity="0.01" id="svg_76" stroke="#ffffff" stroke-width="3" x1="340" x2="360" y1="230" y2="210"/>
  <line fill="none" fill-opacity="0.01" id="svg_77" stroke="#ffffff" stroke-width="3" x1="340" x2="360" y1="240" y2="220"/>
  <line fill="none" fill-opacity="0.01" id="svg_78" stroke="#ffffff" stroke-width="3" x1="340" x2="360" y1="250" y2="230"/>
  <line fill="none" fill-opacity="0.01" id="svg_79" stroke="#ffffff" stroke-width="3" x1="340" x2="360" y1="260" y2="240"/>
  <line fill="none" fill-opacity="0.01" id="svg_80" stroke="#ffffff" stroke-width="3" x1="345" x2="360" y1="265" y2="250"/>
 </g>
</svg>