<?xml version="1.0" encoding="UTF-8"?>
<!DOCTYPE svg PUBLIC "-//W3C//DTD SVG 1.1//EN" "http://www.w3.org/Graphics/SVG/1.1/DTD/svg11.dtd">
<!-- Creator: CorelDRAW 2019 (64-Bit) -->
<svg xmlns="http://www.w3.org/2000/svg" xml:space="preserve" width="204px" height="256px" version="1.1" style="shape-rendering:geometricPrecision; text-rendering:geometricPrecision; image-rendering:optimizeQuality; fill-rule:evenodd; clip-rule:evenodd"
viewBox="0 0 204 255.87"
 xmlns:xlink="http://www.w3.org/1999/xlink"
 xmlns:xodm="http://www.corel.com/coreldraw/odm/2003">
 <defs>
  <style type="text/css">
   <![CDATA[
    .fil0 {fill:white}
   ]]>
  </style>
 </defs>
 <g id="Layer_x0020_1">
  <metadata id="CorelCorpID_0Corel-Layer"/>
  <path class="fil0" d="M131.17 51.15c-1.12,-3.95 -2.56,-7.45 -4.36,-10.52 -1.77,-2.27 -3.53,-4.57 -5.3,-6.84 -5.47,-5.35 -12.75,-8.33 -21.87,-8.95 -15.57,2.24 -26.21,10.73 -31.22,26.31 -0.92,2.84 -1.64,5.91 -2.17,9.23 -0.16,12.33 -0.33,24.66 -0.49,37 2.29,8.54 12.56,15.03 33.72,18.75 18.05,-3.19 31.33,-8.55 34.05,-18.75 -0.18,-12.34 -0.33,-24.67 -0.49,-37 -0.46,-3.32 -1.08,-6.39 -1.87,-9.23zm-67.28 47.18c0.16,-12.33 0.33,-24.67 0.49,-37.02 0.51,-3.14 1.2,-6.07 2.05,-8.77l-13.21 0.13c0.77,0.12 1.58,0.3 2.39,0.51 1.57,3.37 3.13,6.74 4.7,10.11 -4.08,25.04 -8.53,36.54 -13.25,37.67 -3.78,-0.9 -7.41,-2.12 -10.87,-3.65l-0.3 8.25 -2.54 6.02 -1.41 3.35 0.15 6.43 12.51 5.09 6.41 -4.6 3.46 -10.69 9.35 -11.31 0.39 -0.48c-0.11,-0.35 -0.23,-0.69 -0.32,-1.04zm71.65 0c-0.16,-12.33 -0.32,-24.67 -0.49,-37.02 -0.51,-3.14 -1.19,-6.07 -2.03,-8.77l13.21 0.13c-0.79,0.12 -1.58,0.3 -2.41,0.51 -1.56,3.37 -3.13,6.74 -4.68,10.11 4.06,25.04 8.51,36.54 13.23,37.67 3.8,-0.9 7.41,-2.12 10.87,-3.65l0.32 8.25 2.54 6.02 1.41 3.35 -0.17 6.43 -12.5 5.09 -6.42 -4.6 -3.46 -10.69 -9.33 -11.31 -0.41 -0.48c0.13,-0.35 0.23,-0.69 0.32,-1.04zm-42.15 68.92c-3.88,-3.06 -6.51,-10.61 -8.22,-21.55 -2.15,-4.18 -5.05,-6.98 -9.67,-6.54 -0.35,0.07 -0.71,0.16 -1.08,0.26 0,-0.03 -0.02,-0.07 -0.02,-0.1 -0.4,0.07 -0.81,0.17 -1.23,0.3 -0.37,-2.35 -0.74,-4.68 -1.09,-7.01 -0.09,-0.16 -0.16,-0.3 -0.25,-0.44 -1.27,-2.33 -2.75,-3.62 -5.4,-3.74 -6.72,2.88 -10.55,7.09 -13.5,12.83 -4.32,6.86 -5.2,10.39 -2.22,20.6 0.1,-0.21 0.19,-0.44 0.3,-0.65 2.21,-0.7 4.41,-1.41 6.62,-2.13 1.64,-1.54 3.28,-3.07 4.92,-4.61 6.14,1.17 12.28,2.31 18.44,3.46 0.81,2.14 1.64,4.29 2.45,6.42 1.53,1.31 3.07,2.63 4.6,3.96 0,0 0,0 0,0.01 2.97,1.04 5.05,1.66 5.35,-0.97 0,-0.03 0,-0.07 0,-0.1zm25.16 -9.32c6.14,-1.15 12.28,-2.29 18.42,-3.46 1.64,1.54 3.3,3.07 4.94,4.61 2.21,0.72 4.39,1.43 6.6,2.13 0.14,0.28 0.26,0.55 0.41,0.83 2.98,-10.23 2.13,-13.92 -2.21,-20.78 -2.93,-5.74 -6.76,-9.95 -13.48,-12.83 -2.66,0.12 -4.15,1.43 -5.43,3.79 -0.07,0.13 -0.15,0.25 -0.22,0.39 -0.37,2.33 -0.72,4.66 -1.09,7.01 -0.44,-0.13 -0.85,-0.23 -1.25,-0.3 0,0.03 -0.02,0.07 -0.02,0.1 -0.37,-0.1 -0.74,-0.19 -1.09,-0.26 -4.61,-0.43 -7.48,2.38 -9.66,6.54 -1.69,10.94 -4.32,18.49 -8.22,21.55 0,0.03 0.02,0.07 0.02,0.1 0.3,2.6 2.31,2.03 5.2,1.03 0,-0.04 0,-0.06 0,-0.07 1.54,-1.33 3.08,-2.65 4.61,-3.96 0.83,-2.13 1.64,-4.28 2.47,-6.42zm39.45 57.91c-9.17,11.1 -20.16,11.13 -35.8,5.5 -0.58,5.1 -0.84,7.75 2.4,12.55 0.88,-1.63 1.93,-3.09 3.14,-4.4 10.18,0 20.37,0 30.56,0 3.27,-4.94 2.3,-10.14 -0.14,-14.25l-0.16 0.6zm-80.72 5.52c-15.07,5.42 -25.81,5.56 -34.78,-4.39 -0.33,-0.37 -0.65,-0.74 -0.98,-1.13l-0.16 -0.6c-2.46,4.16 -3.55,9.28 -0.18,14.25 10.2,0 20.4,0 30.6,0 1.21,1.31 2.25,2.77 3.12,4.4 3.21,-4.78 2.94,-7.43 2.38,-12.53zm95.6 -25.81l-0.34 -9.05 6.3 -5.49c-1.78,-1.08 -3.6,-2.53 -5.4,-4.11l-5.34 4.16 -1.8 6.42 2.13 12.83 4.45 -4.76zm17.39 -5.54l-2.82 -8.01c-0.65,0.56 -1.46,0.86 -2.45,0.81 -0.87,0.03 -1.75,-0.11 -2.67,-0.41l1.13 2.12 1.71 3.19 -4.11 3.94 -1.32 5.75 4.94 -1.15 0.69 -0.76 4.9 -5.48zm0.6 -17.38c-0.08,4.36 -0.7,7.78 -2.27,9.26l2.56 8.03 -4.49 5.47 3.44 7.51 3.62 -2.13 3.6 -14.8 -6.46 -13.34zm-1.5 -8.79c-6.74,3.27 -13.12,5.88 -19.88,8.35 1.41,1.3 2.86,2.66 4.3,3.93 1.8,1.59 3.62,3.04 5.39,4.09 0.98,0.59 1.94,1.06 2.89,1.36 0.9,0.29 1.8,0.44 2.66,0.39 0.99,0.05 1.8,-0.23 2.46,-0.81 1.71,-1.48 2.4,-4.9 2.5,-9.26 0.05,-2.46 -0.09,-5.19 -0.32,-8.05zm9.83 -17.27l-3.95 4.94 3.97 8.08 4.78 -1.48 -4.8 -11.54zm-22.04 -24.93c4.63,9.01 8.53,18.2 11.83,27.5 0.44,1.82 1.28,4.19 1.95,6.35l3.78 -4.71 3.93 -4.94 1.84 -2.29 -8.56 -19.41 -14.77 -2.5zm-144.73 46.28c-6.93,-3.18 -13.87,-6.35 -20.8,-9.55l-11.51 25.55 -0.12 0.25 0.33 5.27 16.13 7.41 5.1 -2.64 10.87 -26.29zm9.35 -5.81c1.96,-4.96 3.94,-9.91 5.89,-14.87 0.2,-0.55 0.41,-1.08 0.66,-1.64 2.15,-5.4 4.3,-10.82 6.44,-16.24 1.2,-2.47 -0.8,-3.91 -4.5,-5.29l-0.76 2.33 -6.42 4.61 -12.51 -5.1 -0.16 -6.41 1.41 -3.35c-2.15,-1.17 -4.27,-1.98 -6.02,-0.27 -6.51,10.91 -11.8,22.06 -16.12,33.4 -1.15,4.27 -0.06,6.3 2.31,7.08 0.14,0.05 0.28,0.12 0.44,0.19 6.91,3.18 13.85,6.36 20.78,9.55 0.94,0.42 1.86,0.85 2.79,1.27 1.92,0.14 3.85,-1.01 5.77,-5.26zm82.95 74.08c-0.89,1.66 -1.61,3.46 -2.18,5.42 -1.19,4.13 -1.72,8.89 -1.76,14.1 15.25,0.05 30.49,0.1 45.73,0.16 -0.38,-8.42 -2.43,-16.55 -8.06,-24.11 -0.03,0 -0.05,0 -0.09,0 -10.16,0 -20.34,0 -30.5,0 -1.22,1.33 -2.26,2.81 -3.14,4.43zm-53.08 -4.43c-10.16,0 -20.32,0 -30.5,0 -0.02,0 -0.06,0 -0.09,0 -2.37,3.2 -4.11,6.48 -5.37,9.85 -1.69,4.62 -2.47,9.39 -2.68,14.26 15.23,-0.06 30.47,-0.11 45.72,-0.16 -0.04,-5.21 -0.55,-9.97 -1.77,-14.1 -0.56,-1.96 -1.27,-3.76 -2.17,-5.42 -0.86,-1.62 -1.9,-3.1 -3.14,-4.43zm40.16 -61.36c-0.25,5.05 -0.3,9.76 -0.18,14.1 0.2,6.88 0.85,12.88 1.87,18 1.29,6.42 3.2,11.43 5.56,15.03 0.95,0.37 1.89,0.72 2.83,1.06 15.65,5.63 26.64,5.61 35.81,-5.5l0.18 -0.6 0.02 -0.15c0.72,-2.8 1.06,-6.14 1.04,-9.84 -0.04,-5.36 -0.85,-11.51 -2.42,-18 -1.68,-6.88 -4.22,-14.13 -7.67,-21.26 -2.19,-0.7 -4.4,-1.41 -6.6,-2.13 -1.64,-1.54 -3.29,-3.07 -4.94,-4.61 -6.14,1.17 -12.28,2.31 -18.43,3.46 -0.81,2.14 -1.64,4.29 -2.47,6.42 -1.53,1.31 -3.06,2.63 -4.6,3.95 0,0.02 0,0.04 0,0.07zm-24.1 -0.07c-1.54,-1.32 -3.07,-2.64 -4.61,-3.95 -0.83,-2.13 -1.64,-4.28 -2.47,-6.42 -6.14,-1.15 -12.28,-2.29 -18.42,-3.46 -1.64,1.54 -3.3,3.07 -4.94,4.61 -2.2,0.72 -4.39,1.43 -6.6,2.13 -0.97,2.01 -1.87,4.02 -2.7,6.03 -2.11,5.16 -3.77,10.29 -4.97,15.23 -2.68,11.07 -3.11,21.12 -1.34,27.99l0.16 0.6c0.31,0.38 0.65,0.77 0.97,1.14 8.99,9.95 19.74,9.79 34.86,4.36 0.92,-0.34 1.85,-0.69 2.82,-1.06 5.42,-8.29 8.39,-23.99 7.24,-47.18 0,0 0,-0.02 0,-0.02zm81.14 -44.34l-12.51 5.12 -6.4 -4.62 -0.64 -1.92c-3,1.3 -4.81,2.82 -3.21,4.88 4.03,10.92 10.84,24.47 14.86,35.38 0.33,0.79 0.72,1.5 1.16,2.12 1.94,2.78 4.72,4.09 6.16,3.97 7.45,-2.69 14.38,-5.54 21.81,-9.21 2.2,-0.76 -1.08,-8.07 -2.13,-12.34 -4.01,-11.34 -8.93,-22.49 -14.97,-33.4 -1.59,-1.66 -3.47,-0.95 -5.41,0.16l1.44 3.46 -0.16 6.4zm-44.88 -94.67c2.01,1.96 3.77,4.25 5.29,6.84 0.46,0.6 0.92,1.19 1.38,1.79 -0.27,-0.52 -0.55,-1.03 -0.83,-1.52 0.79,1.04 1.6,2.08 2.4,3.1 6.22,0.2 12.47,0.39 18.72,0.57 0.05,0 0.12,0 0.17,0 7.86,-8.88 15.69,-17.75 23.52,-26.65 1.79,-6.82 0.23,-12.13 -5.66,-15.45 -15.58,0.09 -31.14,0.16 -46.72,0.25 -0.06,9.54 -0.11,19.07 -0.16,28.62 0.63,0.81 1.25,1.64 1.89,2.45zm20.45 -5.14c-4.59,0 -8.31,-3.72 -8.31,-8.31 0,-4.58 3.72,-8.31 8.31,-8.31 4.6,0 8.33,3.73 8.33,8.31 0,4.59 -3.73,8.31 -8.33,8.31zm-95.79 15.92c6.21,-0.18 12.42,-0.37 18.61,-0.55 0.81,-1.04 1.61,-2.08 2.42,-3.12 -0.41,0.69 -0.8,1.41 -1.17,2.15 3.02,-3.9 6.04,-7.81 9.06,-11.71 -0.06,-9.55 -0.11,-19.08 -0.16,-28.62 -15.58,-0.09 -31.15,-0.16 -46.73,-0.25 -5.89,3.32 -7.44,8.63 -5.66,15.45 7.84,8.9 15.67,17.77 23.52,26.65 0.04,0 0.07,0 0.11,0zm14.46 -24.23c0,4.59 -3.72,8.31 -8.3,8.31 -4.59,0 -8.32,-3.72 -8.32,-8.31 0,-4.58 3.73,-8.31 8.32,-8.31 4.58,0 8.3,3.73 8.3,8.31zm3.2 31.99l-16.82 0.16 -0.49 -6.74c6.35,-0.19 12.7,-0.37 19.06,-0.56 0.86,-1.13 1.74,-2.24 2.61,-3.37 -1.8,3.06 -3.25,6.56 -4.36,10.51zm66.87 0l16.81 0.16 0.5 -6.74c-6.35,-0.19 -12.7,-0.37 -19.06,-0.56 -0.86,-1.13 -1.73,-2.24 -2.61,-3.37 1.8,3.06 3.25,6.56 4.36,10.51zm-88.59 47.62c4.45,-1.06 8.63,-11.91 12.47,-35.5 -1.48,-3.17 -2.94,-6.35 -4.43,-9.53 -15.47,-4.02 -25.99,9.18 -34.01,31.01 4.71,4.53 9.97,8.04 15.72,10.6 3.26,1.45 6.67,2.58 10.25,3.42zm97.64 -35.46c3.85,23.66 8.05,34.55 12.53,35.6 3.56,-0.84 6.97,-1.97 10.23,-3.42 5.79,-2.56 11.06,-6.09 15.81,-10.64 -8.06,-21.89 -18.61,-35.13 -34.14,-31.11 -1.48,3.2 -2.95,6.37 -4.43,9.57zm-8.98 39.43c-3.25,9.58 -16.27,14.72 -33.75,17.81 -20.29,-3.57 -30.56,-9.69 -33.4,-17.72l-0.41 0.49 3.64 18.2 2.29 1.57 1.66 7.6c0.09,0.14 0.16,0.3 0.25,0.44 0.35,2.33 0.72,4.68 1.09,7.01 6.02,-1.75 9.49,1.25 12,6.08 1.69,10.94 4.34,18.49 8.22,21.55 0,0.03 0,0.07 0,0.1l10 0c0,-0.03 0,-0.07 0,-0.1 3.89,-3.06 6.53,-10.61 8.22,-21.55 2.51,-4.83 5.99,-7.83 12,-6.08 0.37,-2.33 0.74,-4.68 1.1,-7.01 0.07,-0.12 0.14,-0.26 0.21,-0.39l1.71 -7.88 2.01 -1.34 3.62 -18.23 -0.46 -0.55zm-13.66 -53.74c-12.7,10.92 -25.49,12.23 -38.41,0.56 0.44,-2.33 0.89,-4.65 1.33,-6.98 10.64,7.71 22.05,8.04 34.45,-0.5 0.87,2.31 1.75,4.61 2.63,6.92z"/>
 </g>
</svg>
