<?xml version="1.0" encoding="UTF-8"?>
<!DOCTYPE svg PUBLIC "-//W3C//DTD SVG 1.1//EN" "http://www.w3.org/Graphics/SVG/1.1/DTD/svg11.dtd">
<!-- Creator: CorelDRAW 2019 (64-Bit) -->
<svg xmlns="http://www.w3.org/2000/svg" xml:space="preserve" width="279px" height="350px" version="1.1" style="shape-rendering:geometricPrecision; text-rendering:geometricPrecision; image-rendering:optimizeQuality; fill-rule:evenodd; clip-rule:evenodd"
viewBox="0 0 279 349.94"
 xmlns:xlink="http://www.w3.org/1999/xlink"
 xmlns:xodm="http://www.corel.com/coreldraw/odm/2003">
 <defs>
  <style type="text/css">
   <![CDATA[
    .fil0 {fill:white}
   ]]>
  </style>
 </defs>
 <g id="Layer_x0020_1">
  <metadata id="CorelCorpID_0Corel-Layer"/>
  <path class="fil0" d="M179.39 69.95c-1.53,-5.4 -3.5,-10.19 -5.96,-14.38 -2.42,-3.11 -4.83,-6.25 -7.25,-9.36 -7.48,-7.32 -17.43,-11.39 -29.91,-12.24 -21.29,3.06 -35.84,14.68 -42.7,35.98 -1.25,3.89 -2.24,8.09 -2.96,12.63 -0.22,16.86 -0.45,33.72 -0.67,50.6 3.13,11.68 17.17,20.56 46.11,25.64 24.69,-4.36 42.85,-11.69 46.57,-25.64 -0.24,-16.88 -0.45,-33.74 -0.67,-50.6 -0.63,-4.54 -1.48,-8.74 -2.56,-12.63l0 0zm-92.01 64.53c0.22,-16.86 0.45,-33.74 0.67,-50.63 0.7,-4.3 1.64,-8.3 2.8,-12l-18.06 0.18c1.05,0.17 2.16,0.41 3.26,0.7 2.15,4.61 4.28,9.22 6.43,13.83 -5.58,34.24 -11.66,49.97 -18.12,51.52 -5.17,-1.24 -10.13,-2.9 -14.87,-5l-0.41 11.29 -3.47 8.23 -1.93 4.58 0.21 8.8 17.11 6.96 8.76 -6.29 4.74 -14.62 12.78 -15.47 0.54 -0.66c-0.15,-0.48 -0.32,-0.94 -0.44,-1.42l0 0zm97.99 0c-0.22,-16.86 -0.44,-33.74 -0.67,-50.63 -0.7,-4.3 -1.63,-8.3 -2.78,-12l18.07 0.18c-1.08,0.17 -2.16,0.41 -3.3,0.7 -2.13,4.61 -4.28,9.22 -6.4,13.83 5.56,34.24 11.64,49.97 18.1,51.52 5.19,-1.24 10.13,-2.9 14.86,-5l0.44 11.29 3.47 8.23 1.93 4.58 -0.23 8.8 -17.1 6.96 -8.78 -6.29 -4.73 -14.62 -12.76 -15.47 -0.56 -0.66c0.18,-0.48 0.32,-0.94 0.44,-1.42l0 0zm-57.65 94.26c-5.3,-4.19 -8.9,-14.51 -11.24,-29.48 -2.94,-5.71 -6.9,-9.54 -13.22,-8.94 -0.48,0.1 -0.97,0.22 -1.48,0.36 0,-0.05 -0.03,-0.1 -0.03,-0.14 -0.55,0.09 -1.11,0.23 -1.68,0.41 -0.51,-3.22 -1.01,-6.4 -1.49,-9.59 -0.12,-0.22 -0.22,-0.41 -0.34,-0.6 -1.74,-3.19 -3.76,-4.95 -7.39,-5.12 -9.19,3.94 -14.43,9.7 -18.46,17.55 -5.91,9.38 -7.11,14.21 -3.04,28.18 0.14,-0.29 0.26,-0.61 0.41,-0.89 3.03,-0.96 6.03,-1.93 9.06,-2.92 2.24,-2.1 4.48,-4.2 6.73,-6.3 8.39,1.6 16.79,3.16 25.21,4.73 1.11,2.93 2.25,5.87 3.36,8.78 2.09,1.79 4.19,3.6 6.29,5.42 0,0 0,0 0,0.01 4.06,1.42 6.9,2.27 7.31,-1.33 0,-0.04 0,-0.09 0,-0.13l0 0zm34.41 -12.75c8.4,-1.57 16.8,-3.13 25.2,-4.73 2.24,2.1 4.51,4.2 6.75,6.3 3.02,0.99 6.01,1.96 9.03,2.92 0.19,0.38 0.35,0.75 0.56,1.13 4.07,-13.99 2.91,-19.04 -3.02,-28.42 -4.01,-7.85 -9.25,-13.61 -18.44,-17.55 -3.64,0.17 -5.67,1.96 -7.42,5.19 -0.1,0.18 -0.21,0.34 -0.31,0.53 -0.5,3.19 -0.98,6.38 -1.49,9.59 -0.6,-0.18 -1.16,-0.32 -1.71,-0.41 0,0.04 -0.02,0.09 -0.02,0.14 -0.51,-0.14 -1.02,-0.26 -1.49,-0.36 -6.31,-0.59 -10.23,3.26 -13.22,8.94 -2.31,14.97 -5.9,25.29 -11.24,29.48 0,0.04 0.03,0.09 0.03,0.13 0.41,3.56 3.16,2.78 7.11,1.41 0,-0.05 0,-0.08 0,-0.09 2.11,-1.82 4.21,-3.63 6.31,-5.42 1.13,-2.91 2.24,-5.85 3.37,-8.78l0 0zm53.96 79.2c-12.54,15.18 -27.57,15.22 -48.96,7.52 -0.8,6.98 -1.15,10.6 3.28,17.17 1.2,-2.23 2.64,-4.23 4.29,-6.02 13.93,0 27.86,0 41.8,0 4.47,-6.76 3.14,-13.87 -0.19,-19.49l-0.22 0.82 0 0zm-110.4 7.55c-20.61,7.41 -35.3,7.6 -47.57,-6 -0.45,-0.51 -0.88,-1.02 -1.34,-1.55l-0.21 -0.82c-3.37,5.69 -4.86,12.69 -0.25,19.49 13.95,0 27.9,0 41.85,0 1.65,1.79 3.08,3.79 4.27,6.02 4.39,-6.54 4.02,-10.16 3.25,-17.14l0 0zm130.75 -35.3l-0.47 -12.38 8.62 -7.5c-2.44,-1.48 -4.92,-3.46 -7.39,-5.63l-7.3 5.69 -2.46 8.78 2.91 17.55 6.09 -6.51 0 0zm23.78 -7.58l-3.86 -10.95c-0.88,0.77 -1.99,1.18 -3.35,1.11 -1.19,0.04 -2.39,-0.15 -3.65,-0.56l1.55 2.9 2.34 4.36 -5.62 5.39 -1.81 7.86 6.76 -1.57 0.94 -1.04 6.7 -7.5 0 0zm0.82 -23.77c-0.11,5.97 -0.96,10.65 -3.1,12.67l3.5 10.98 -6.14 7.48 4.7 10.27 4.95 -2.91 4.93 -20.24 -8.84 -18.25zm-2.05 -12.02c-9.22,4.48 -17.94,8.05 -27.19,11.42 1.93,1.78 3.91,3.64 5.88,5.38 2.46,2.17 4.95,4.16 7.37,5.59 1.34,0.81 2.66,1.45 3.96,1.86 1.23,0.4 2.46,0.6 3.63,0.53 1.36,0.07 2.47,-0.31 3.37,-1.1 2.34,-2.03 3.28,-6.71 3.42,-12.67 0.07,-3.36 -0.12,-7.1 -0.44,-11.01zm13.44 -23.62l-5.4 6.76 5.43 11.05 6.54 -2.02 -6.57 -15.79 0 0zm-30.14 -34.09c6.33,12.32 11.67,24.89 16.18,37.61 0.6,2.49 1.75,5.73 2.67,8.68l5.17 -6.44 5.37 -6.75 2.52 -3.14 -11.71 -26.54 -20.2 -3.42 0 0zm-197.94 63.29c-9.48,-4.35 -18.97,-8.68 -28.44,-13.06l-15.75 34.94 -0.16 0.35 0.45 7.2 22.06 10.14 6.98 -3.61 14.86 -35.96 0 0zm12.79 -7.94c2.68,-6.79 5.39,-13.56 8.06,-20.34 0.27,-0.75 0.56,-1.48 0.9,-2.24 2.94,-7.39 5.88,-14.8 8.81,-22.21 1.64,-3.38 -1.1,-5.35 -6.16,-7.24l-1.04 3.19 -8.78 6.3 -17.11 -6.97 -0.22 -8.77 1.93 -4.58c-2.94,-1.6 -5.84,-2.71 -8.23,-0.37 -8.9,14.92 -16.14,30.17 -22.05,45.68 -1.57,5.84 -0.08,8.62 3.16,9.68 0.19,0.07 0.38,0.17 0.6,0.26 9.45,4.35 18.95,8.7 28.42,13.06 1.29,0.58 2.55,1.17 3.82,1.74 2.62,0.19 5.26,-1.38 7.89,-7.19l0 0zm113.45 101.31c-1.22,2.27 -2.21,4.73 -2.99,7.41 -1.62,5.65 -2.35,12.16 -2.4,19.29 20.85,0.07 41.7,0.13 62.54,0.22 -0.52,-11.52 -3.32,-22.64 -11.02,-32.98 -0.04,0 -0.07,0 -0.13,0 -13.89,0 -27.81,0 -41.71,0 -1.67,1.82 -3.09,3.85 -4.29,6.06l0 0zm-72.6 -6.06c-13.89,0 -27.79,0 -41.71,0 -0.03,0 -0.08,0 -0.13,0 -3.24,4.38 -5.62,8.87 -7.34,13.47 -2.31,6.32 -3.38,12.85 -3.66,19.51 20.83,-0.09 41.67,-0.15 62.52,-0.22 -0.05,-7.13 -0.75,-13.64 -2.42,-19.29 -0.76,-2.68 -1.73,-5.14 -2.96,-7.41 -1.18,-2.21 -2.6,-4.24 -4.3,-6.06l0 0zm54.93 -83.92c-0.35,6.91 -0.41,13.35 -0.25,19.29 0.27,9.41 1.16,17.61 2.56,24.62 1.76,8.78 4.37,15.63 7.6,20.55 1.3,0.51 2.59,0.99 3.87,1.45 21.41,7.7 36.44,7.67 48.98,-7.52l0.24 -0.82 0.03 -0.21c0.99,-3.83 1.45,-8.39 1.42,-13.45 -0.05,-7.33 -1.16,-15.75 -3.31,-24.62 -2.29,-9.41 -5.77,-19.33 -10.49,-29.08 -2.99,-0.96 -6.01,-1.93 -9.02,-2.91 -2.25,-2.11 -4.5,-4.2 -6.76,-6.31 -8.4,1.6 -16.79,3.16 -25.2,4.74 -1.11,2.92 -2.25,5.86 -3.38,8.78 -2.09,1.79 -4.19,3.59 -6.29,5.4 0,0.03 0,0.05 0,0.09zm-32.96 -0.09c-2.11,-1.81 -4.2,-3.61 -6.31,-5.4 -1.13,-2.92 -2.24,-5.86 -3.38,-8.78 -8.39,-1.58 -16.79,-3.14 -25.19,-4.74 -2.24,2.11 -4.51,4.2 -6.75,6.31 -3.01,0.98 -6.01,1.95 -9.03,2.91 -1.33,2.75 -2.56,5.5 -3.69,8.25 -2.89,7.06 -5.16,14.07 -6.8,20.83 -3.67,15.14 -4.26,28.88 -1.83,38.28l0.21 0.82c0.43,0.52 0.89,1.05 1.33,1.56 12.3,13.61 27,13.39 47.68,5.96 1.26,-0.46 2.53,-0.94 3.85,-1.45 7.42,-11.34 11.48,-32.81 9.91,-64.52 0,0 0,-0.03 0,-0.03zm110.97 -60.64l-17.11 7 -8.76 -6.32 -0.87 -2.62c-4.1,1.77 -6.58,3.85 -4.39,6.67 5.51,14.94 14.82,33.47 20.32,48.39 0.45,1.08 0.99,2.05 1.59,2.9 2.65,3.8 6.45,5.59 8.42,5.43 10.19,-3.68 19.67,-7.58 29.83,-12.6 3.01,-1.04 -1.48,-11.04 -2.91,-16.88 -5.49,-15.51 -12.21,-30.75 -20.47,-45.68 -2.18,-2.27 -4.75,-1.3 -7.4,0.22l1.97 4.73 -0.22 8.76 0 0zm-61.38 -129.48c2.75,2.68 5.15,5.82 7.23,9.36 0.63,0.82 1.26,1.63 1.89,2.45 -0.37,-0.71 -0.75,-1.41 -1.14,-2.08 1.08,1.42 2.19,2.84 3.29,4.24 8.5,0.27 17.05,0.53 25.6,0.78 0.07,0 0.16,0 0.23,0 10.75,-12.15 21.46,-24.28 32.17,-36.45 2.45,-9.33 0.31,-16.59 -7.74,-21.13 -21.31,0.12 -42.59,0.22 -63.9,0.34 -0.08,13.05 -0.15,26.08 -0.22,39.14 0.86,1.11 1.71,2.25 2.59,3.35l0 0zm27.96 -7.03c-6.27,0 -11.36,-5.08 -11.36,-11.36 0,-6.27 5.09,-11.37 11.36,-11.37 6.3,0 11.4,5.1 11.4,11.37 0,6.28 -5.1,11.36 -11.4,11.36zm-131 21.78c8.49,-0.25 16.98,-0.51 25.45,-0.76 1.11,-1.42 2.2,-2.84 3.31,-4.26 -0.56,0.94 -1.1,1.93 -1.6,2.94 4.13,-5.34 8.26,-10.68 12.39,-16.02 -0.08,-13.06 -0.15,-26.09 -0.22,-39.14 -21.31,-0.12 -42.6,-0.22 -63.91,-0.34 -8.05,4.54 -10.17,11.8 -7.74,21.13 10.72,12.17 21.43,24.3 32.17,36.45 0.05,0 0.09,0 0.15,0zm19.77 -33.14c0,6.28 -5.08,11.36 -11.35,11.36 -6.27,0 -11.38,-5.08 -11.38,-11.36 0,-6.27 5.11,-11.37 11.38,-11.37 6.27,0 11.35,5.1 11.35,11.37zm4.38 43.75l-23 0.22 -0.67 -9.22c8.68,-0.26 17.37,-0.51 26.06,-0.77 1.18,-1.54 2.38,-3.06 3.57,-4.6 -2.46,4.18 -4.44,8.97 -5.96,14.37l0 0zm91.45 0l22.99 0.22 0.69 -9.22c-8.69,-0.26 -17.37,-0.51 -26.07,-0.77 -1.17,-1.54 -2.36,-3.06 -3.57,-4.6 2.46,4.18 4.45,8.97 5.96,14.37l0 0zm-121.15 65.13c6.08,-1.45 11.8,-16.29 17.05,-48.56 -2.02,-4.33 -4.02,-8.68 -6.06,-13.03 -21.16,-5.5 -35.54,12.56 -46.51,42.41 6.44,6.2 13.63,11 21.5,14.5 4.46,1.98 9.12,3.53 14.02,4.68l0 0zm133.53 -48.5c5.27,32.36 11.01,47.25 17.14,48.69 4.87,-1.15 9.53,-2.7 13.99,-4.68 7.92,-3.5 15.13,-8.33 21.62,-14.55 -11.02,-29.94 -25.45,-48.05 -46.69,-42.55 -2.02,4.38 -4.03,8.71 -6.06,13.09zm-12.28 53.93c-4.44,13.1 -22.25,20.13 -46.16,24.35 -27.75,-4.88 -41.79,-13.25 -45.68,-24.23l-0.56 0.67 4.98 24.89 3.13 2.15 2.27 10.39c0.13,0.19 0.22,0.41 0.34,0.6 0.48,3.19 0.99,6.4 1.5,9.59 8.23,-2.39 12.97,1.71 16.41,8.32 2.31,14.96 5.93,25.28 11.24,29.47 0,0.04 0,0.09 0,0.14l13.68 0c0,-0.05 0,-0.1 0,-0.14 5.32,-4.19 8.93,-14.51 11.24,-29.47 3.43,-6.61 8.19,-10.71 16.41,-8.32 0.51,-3.19 1.01,-6.4 1.5,-9.59 0.1,-0.16 0.19,-0.35 0.29,-0.53l2.34 -10.78 2.75 -1.83 4.95 -24.93 -0.63 -0.75 0 0zm-18.68 -73.5c-17.37,14.93 -34.86,16.73 -52.53,0.76 0.6,-3.18 1.22,-6.35 1.82,-9.54 14.55,10.54 30.15,10.99 47.11,-0.69 1.19,3.16 2.4,6.31 3.6,9.47l0 0z"/>
 </g>
</svg>
