<?xml version="1.0" encoding="UTF-8"?>
<!DOCTYPE svg PUBLIC "-//W3C//DTD SVG 1.1//EN" "http://www.w3.org/Graphics/SVG/1.1/DTD/svg11.dtd">
<!-- Creator: CorelDRAW 2019 (64-Bit) -->
<svg xmlns="http://www.w3.org/2000/svg" xml:space="preserve" width="256px" height="256px" version="1.1" style="shape-rendering:geometricPrecision; text-rendering:geometricPrecision; image-rendering:optimizeQuality; fill-rule:evenodd; clip-rule:evenodd"
viewBox="0 0 256 256"
 xmlns:xlink="http://www.w3.org/1999/xlink"
 xmlns:xodm="http://www.corel.com/coreldraw/odm/2003">
 <defs>
  <style type="text/css">
   <![CDATA[
    .fil0 {fill:none}
    .fil1 {fill:white}
   ]]>
  </style>
 </defs>
 <g id="Layer_x0020_1">
  <metadata id="CorelCorpID_0Corel-Layer"/>
  <rect class="fil0" width="256" height="256"/>
  <path class="fil1" d="M125.25 124.65c1.6,2.21 0.98,5.15 -1.09,6.95l-1.24 0.75c-0.81,0.34 -1.58,0.52 -2.44,0.43 -0.29,-0.03 0.04,0 -0.27,-0.05l-4.65 -1.33c-0.03,-0.01 -0.06,-0.02 -0.09,-0.03l-2.04 -0.76c-0.09,-0.03 -0.17,-0.07 -0.25,-0.1l-0.4 -0.18c-0.39,-0.18 -0.73,-0.3 -0.97,-0.41l-1.72 -0.87c-0.16,-0.08 -0.3,-0.16 -0.48,-0.26l-2.72 -1.61c-0.02,-0.02 -0.11,-0.08 -0.14,-0.09 -0.23,-0.16 -0.18,-0.12 -0.4,-0.27 -0.23,-0.16 -0.11,-0.07 -0.34,-0.24l-3.71 -2.95c-3.13,-2.95 -5.79,-5.94 -8,-9.96l-3.62 -8.81c-1.24,-4.55 -1.67,-9.36 -1.12,-14.21 0.03,-0.28 0.05,-0.27 0.08,-0.6l0.25 -1.73c0.37,-2.19 1.04,-5.31 2.13,-7.25 1.16,-2.07 3.71,-3.24 6.14,-2.41 0.92,0.31 1.75,0.84 2.35,1.57l0.55 0.76c0.32,0.59 0.56,1.26 0.71,2.02 0.13,0.69 0,1.58 -0.24,2.2 -0.68,1.72 -1.12,3.5 -1.38,5.3 -0.25,1.73 -0.35,3.32 -0.35,5.05 0,1.93 0.36,3.93 0.81,5.81l0.35 0.99c0.71,1 2.22,0.94 2.93,0.06 0.17,-0.22 0.26,-0.52 0.29,-0.89 0.13,-1.41 -2.19,-6.51 0.53,-14.58l0.15 -0.43c0.01,-0.03 0.02,-0.06 0.03,-0.09l0.18 -0.48c0.57,-1.33 1.2,-2.81 1.99,-4.02l1.51 -2.12c0.16,-0.2 0.13,-0.16 0.3,-0.39l5.05 -4.69c0.02,-0.01 0.04,-0.03 0.06,-0.05l5.17 -2.9c1.06,-0.42 3.24,-0.58 3.65,-1.81 0.22,-0.64 0.08,-1.3 -0.34,-1.79l-0.78 -0.52c-1.68,-0.54 -6.48,1.93 -7.85,2.76 -1.25,0.75 -2.4,1.71 -3.6,2.52l-0.61 0.56c-0.12,0.09 -0.31,0.18 -0.42,0.27l-0.88 0.88c-1.53,1.49 -2,2.35 -4.22,2.89l-1.66 -0.01 -1.44 -0.45c-1.8,-0.88 -3.33,-3.07 -2.95,-5.32l0.54 -1.7c0.5,-0.96 1.27,-1.7 2,-2.44l2.17 -2.04c0.15,-0.14 0.15,-0.13 0.34,-0.27l3.52 -2.66c1.71,-1.09 3.46,-2.06 5.26,-2.93 0,0 0.18,-0.1 0.23,-0.12l0.43 -0.19c0.14,-0.06 0.08,-0.03 0.24,-0.1 5.21,-2.18 10.81,-3.31 16.48,-3.14 0.39,0.01 0.75,0.03 1.14,0.05 3.77,0.16 7.6,1 11.1,2.38 1.98,0.78 3.9,1.64 5.79,2.7 0.2,0.11 0.59,0.36 0.79,0.48 0.18,0.11 0.16,0.11 0.34,0.22l2.87 1.95c0.12,0.08 0.21,0.17 0.35,0.28l3.8 3.36c0.47,0.46 0.71,0.69 1.15,1.23 0.13,0.14 0.25,0.27 0.37,0.41 0.45,0.51 0.74,1.33 0.91,2.02 0.12,0.49 0.16,0.53 0.15,0.99 0,0.77 -0.16,1.4 -0.37,1.96 -0.11,0.29 -0.25,0.57 -0.42,0.87 -0.47,0.8 -0.78,1.21 -1.73,1.77 -0.28,0.16 -0.6,0.33 -0.87,0.42l-0.89 0.27c-1.17,0.26 -2.37,-0.09 -3.45,-0.58 -0.11,-0.05 -0.12,-0.04 -0.22,-0.1 -0.01,-0.01 -0.04,-0.03 -0.06,-0.04l-4.49 -4.13 -4.74 -3.01c-0.17,-0.09 -0.04,-0.02 -0.23,-0.12 -0.71,-0.4 -1.38,-0.55 -2.12,-0.91 -0.28,-0.13 0.02,0.01 -0.26,-0.12l-1.29 -0.49c-0.23,-0.07 -0.32,-0.09 -0.58,-0.14 -1.1,-0.22 -2.26,-0.64 -3.05,0.42 -0.35,0.46 -0.54,1.17 -0.16,1.88 0.32,0.6 1.19,0.85 1.97,1.08l2.76 0.99c0.03,0.01 0.06,0.02 0.08,0.04 3.39,1.5 6.26,3.62 8.53,6.22l3.86 5.85c0.12,0.28 0.08,0.2 0.21,0.52 0.06,0.13 0.07,0.14 0.11,0.24 0.01,0.03 0.03,0.06 0.04,0.08l1.39 4.32c0.01,0.03 0.02,0.06 0.03,0.08 0.8,3.56 0.76,7.44 -0.13,10.96 -0.4,1.57 0.49,2.8 2.1,2.48l0.52 -0.19c0.41,-0.24 0.64,-0.55 0.76,-1.02 0.97,-3.87 1.08,-7.88 0.47,-11.85 -0.04,-0.19 -0.05,-0.39 -0.1,-0.61 -0.03,-0.16 -0.1,-0.37 -0.13,-0.54 -0.26,-1.24 -0.51,-2.33 -0.98,-3.47 -1.01,-2.43 0.23,-4.94 2.19,-6.19l1.21 -0.56c0.19,-0.07 0.36,-0.1 0.56,-0.14 2.19,-0.33 3.98,0.61 5.25,2.24 0.46,0.58 0.66,1.21 0.9,1.91l0.38 1.14c0.02,0.07 0.06,0.24 0.07,0.28l0.51 1.94c0.01,0.03 0.02,0.06 0.03,0.09l0.84 5.4c0.17,1.05 0.17,2.13 0.17,3.26 0.01,8.3 -2.15,14.5 -5.93,20.66 -1.77,2.88 -4.6,6.42 -7.26,8.53l-1.49 1.2c-2.87,2.65 -8.61,5.33 -12.04,6.45 -0.68,0.23 -1.26,0.4 -2.07,0.6l-1.57 0.45c-0.13,0.04 -0.29,0.06 -0.5,0.1 -2.83,0.5 -5.47,-1.71 -5.89,-4.45 -0.22,-1.39 0.15,-2.56 0.85,-3.62 0.35,-0.55 0.78,-1.03 1.34,-1.38 0.73,-0.48 1.52,-0.68 2.33,-0.96l2.15 -0.64c0.04,-0.01 0.07,-0.02 0.1,-0.03l5.3 -2.31c0.35,-0.19 0.56,-0.35 0.86,-0.53l1.34 -0.88c0.03,-0.02 0.06,-0.04 0.08,-0.05l1.47 -1.09c1.27,-1.19 4.99,-3.8 2.75,-5.53l-0.28 -0.17c-0.03,-0.01 -0.06,-0.03 -0.09,-0.04l-0.63 -0.17c-0.5,-0.04 -0.81,0.15 -1.03,0.27l-3.46 3.12c-2.4,1.87 -4.98,3.16 -7.85,4.07l-2.15 0.57c-2.93,0.61 -6.13,0.68 -9.13,0.16 -0.03,0 -0.06,-0.01 -0.09,-0.02l-0.19 -0.04c-0.04,-0.01 -0.07,-0.01 -0.1,-0.02l-5.92 -1.89c-0.03,-0.02 -0.19,-0.1 -0.22,-0.11 -0.09,-0.05 -0.09,-0.06 -0.22,-0.13 -0.28,-0.14 -0.26,-0.11 -0.5,-0.23l-1.03 -0.58c-0.09,-0.05 -0.17,-0.1 -0.23,-0.13l-0.22 -0.14c-0.03,-0.02 -0.12,-0.08 -0.15,-0.1l-1.53 -1.03c-0.02,-0.02 -0.05,-0.04 -0.07,-0.05l-1.45 -1.17c-0.76,-0.68 -1.63,-1.74 -2.34,-2.24 -1.09,-0.78 -2.82,0.05 -2.8,1.47 0,0.4 0.2,0.89 0.34,1.07l0.48 0.58c0.73,0.92 1.66,1.6 2.53,2.35l5.68 3.59c0.12,0.06 0.26,0.11 0.4,0.18l2.82 1.14c1.85,0.58 4.25,1.01 5.51,2.28l0.66 0.8zm2.75 30.79c-23.03,0 -41.37,21.19 -41.87,49.84 29.2,-4.42 56.31,-3.48 85.52,0.93 3.04,-26.51 -16.95,-50.77 -43.65,-50.77zm-44.48 40.95c4.61,-27.5 20.61,-43.73 43.14,-44.44l0 -11.41 -1.88 0c-0.19,-0.24 -0.11,-0.12 -0.55,-0.16l-6.16 -0.93c-0.24,-0.05 0.05,0.01 -0.17,-0.04l-6.14 -1.84c-1.82,-0.67 -3.19,-1.36 -4.87,-2.17l-5.17 -3.14c-2.5,-2.02 -2.9,-1.95 -6.05,-5.08l-3.19 -3.6c-0.15,-0.16 -0.18,-0.23 -0.32,-0.39l-1.95 -2.61c-0.27,-0.45 0.17,0.27 -0.13,-0.23 -0.02,-0.03 -0.07,-0.11 -0.09,-0.14l-0.51 -0.78c-0.01,-0.02 -0.03,-0.05 -0.04,-0.07 -0.08,-0.13 -0.16,-0.24 -0.28,-0.43l-1.45 -2.52c-0.3,-0.51 -0.6,-1.09 -0.89,-1.7l-1.41 -3.28c-0.01,-0.03 -0.03,-0.06 -0.04,-0.08l-0.52 -1.43c-0.01,-0.03 -0.02,-0.06 -0.03,-0.09l-0.36 -1.05c-0.01,-0.03 -0.02,-0.06 -0.03,-0.09 -0.77,-2.07 -1.4,-5.57 -1.76,-7.87l-0.19 -1.7c-0.02,-0.18 -0.03,-0.37 -0.07,-0.62 -0.01,-0.12 -0.03,-0.18 -0.06,-0.31 -0.01,-0.02 -0.04,-0.03 -0.04,-0.08 -0.01,-0.05 -0.04,-0.06 -0.05,-0.08l0 -6.46c0.13,-0.15 0.07,0.11 0.16,-0.43l0.51 -4.13c0.61,-3.56 2.23,-8.9 3.88,-12.04 2.04,-3.89 2.25,-4.25 4.55,-7.45l0.68 -0.93c0.01,-0.02 0.04,-0.05 0.05,-0.07 0.02,-0.02 0.04,-0.05 0.06,-0.07l0.48 -0.58c1.97,-2.44 4.01,-4.4 6.5,-6.5 2.67,-2.24 5.88,-4.16 8.96,-5.71 4.3,-2.16 10.72,-4.05 15.51,-4.38 0.35,-0.02 0.32,0 0.63,-0.05l0.55 -0.18 6.44 0c0.02,0.02 0.06,0.02 0.08,0.06l0.34 0.12c1.64,0.25 2.66,0.22 4.7,0.62 0.15,0.03 0.39,0.06 0.57,0.09l3.24 0.78c0.18,0.04 0.29,0.07 0.47,0.13 0.29,0.09 -0.1,-0.02 0.26,0.08l3.92 1.34c0.11,0.04 0.18,0.06 0.26,0.1l4.56 2.14c0.12,0.07 0.22,0.12 0.37,0.2l3.43 2.07c0.02,0.02 0.05,0.04 0.07,0.05l1.84 1.31c0.02,0.01 0.04,0.03 0.06,0.05l1.07 0.8c0.02,0.02 0.1,0.09 0.13,0.11 2.28,1.8 4.51,3.87 6.29,6.14l2.96 3.85c0.05,0.08 0.09,0.11 0.14,0.19l1.13 1.81c0.01,0.02 0.03,0.05 0.04,0.07 0.12,0.19 0.05,0.08 0.14,0.22l0.6 1.04c0.09,0.14 0.03,0.02 0.13,0.21 0.1,0.2 0.13,0.29 0.24,0.48 0.02,0.03 0.07,0.12 0.09,0.15 0.03,0.05 0.07,0.14 0.12,0.22l3.01 7.1c0,0.02 0.02,0.06 0.02,0.08l1.74 7.36c0.07,0.42 0.09,0.83 0.15,1.25l0.35 2.31 0 6.43c-0.01,0.03 -0.04,0.04 -0.05,0.09l-0.16 0.99c-0.05,0.42 -0.08,0.79 -0.12,1.17l-0.34 2.36c-1.01,7.06 -4.62,14.66 -8.9,20.25 -0.26,0.34 -0.35,0.45 -0.57,0.74l-1.74 2c-1.4,1.7 -2.96,2.94 -4.53,4.35 -3.21,2.89 -9.14,6.22 -13.02,7.61l-4.06 1.31c-1.35,0.39 -2.8,0.74 -4.31,0.97 -0.44,0.06 -0.65,0.11 -1.13,0.18 -0.69,0.11 -3.29,0.32 -3.58,0.51l-1.93 0 0 11.4c26.73,0.59 43.62,23.07 44.86,43.05 1.76,28.16 2.75,14.64 2.1,53.58 8.93,-1.98 41.84,-17.98 46.36,-23.7 3.4,-4.29 2.82,-21.66 2.13,-27.45 -2.84,-23.83 -7.6,-50.63 -12.44,-73.96 -3.22,-15.53 -6.85,-33.09 -11.6,-47.93 -2.81,-8.74 -9.83,-17.32 -15.92,-21.12 -24.88,-15.55 -36.21,-9.65 -37.45,-14.91 0.63,-3.04 29.92,-17.8 21.15,-33.94 -4.88,4.69 -9.2,13.89 -21.42,19.71 -10.54,5.03 -27.01,4.29 -37.5,0.39 -7.58,-2.82 -15.69,-16.99 -22.94,-19.31 -3.86,7.95 4.99,19.73 19.1,28.72 13.59,6.44 -4.63,8.1 -13.36,10.82 -4.12,1.28 -9.82,2.74 -13.54,4.36 -11.08,4.83 -19.84,12.1 -23.77,23.65 -4.9,14.39 -9.79,33.28 -12.95,48.52 -4.82,23.22 -9.08,51.16 -11.92,74.94 -0.74,6.2 -2.46,21.91 1.08,26.37 4.97,6.25 41.96,24.92 49.24,26.46 1.55,-36.77 1.82,-18.41 3.01,-53.8zm28.41 -87.84c1.6,1.45 2.48,2.66 4.67,4.03 0.2,0.13 0.17,0.1 0.35,0.22l3.45 1.71c0.09,0.04 0.2,0.09 0.23,0.11 2.44,0.93 5.45,1.4 8.48,1.3 4.27,-0.15 8.45,-1.86 11.88,-4.4l1.13 -0.96c0.63,-0.46 1.08,-1.11 1.6,-1.69 0.53,-0.59 1.28,-0.96 2.07,-1.22l0.45 -0.13c0.03,-0.01 0.06,-0.01 0.1,-0.02l2.19 0.02c0.54,0.12 1.22,0.37 1.69,0.71l0.21 0.15c2.46,1.7 3.07,5.57 0.85,7.83l-3.69 3.45c-1.37,1.26 -4.35,2.94 -6.35,3.82 -1.8,0.8 -3.6,1.44 -5.52,1.99 -0.95,0.28 -2.31,0.74 -2.37,1.98 -0.05,0.88 0.63,1.69 1.43,1.82 1.29,0.22 7.06,-2.09 8.21,-2.63 4.06,-1.89 7.13,-4.17 10.14,-7.18l2.98 -3.45c1.71,-2.13 2.84,-4.38 4.03,-6.83 2.56,-5.24 3.52,-12.23 2.74,-19.02l-0.84 -4.27c-0.32,-1.17 -0.58,-3.02 -1.58,-3.71 -1.16,-0.81 -3.06,0.3 -2.7,1.78l0.81 2.46c1.35,5.09 1.6,11.95 -0.09,16.97 -0.16,0.48 -0.52,0.92 -0.8,1.3l-0.69 0.69c-0.03,0.02 -0.12,0.08 -0.15,0.1l-1.2 0.68c-0.91,0.34 -1.84,0.52 -2.77,0.37 -1.26,-0.2 -2.56,-0.83 -3.34,-1.87l-1.15 -2.57c-0.26,-1.31 0.36,-3.06 0.55,-4.39l0.2 -2.35c0.01,-0.45 0,-0.84 -0.01,-1.3 -0.06,-1.93 -0.42,-3.96 -1.03,-5.81l-0.37 -1.01c-0.01,-0.04 -0.05,-0.14 -0.07,-0.17 -0.04,-0.1 -0.07,-0.18 -0.11,-0.29 -0.05,-0.14 -0.11,-0.3 -0.17,-0.42 -0.05,-0.1 -0.14,-0.27 -0.22,-0.45l-0.89 -1.69c-0.1,-0.17 -0.12,-0.24 -0.19,-0.4l-0.51 -0.77c-1.04,-1.52 -2.19,-2.86 -3.58,-4.05l-1.08 -0.92c-0.85,-0.69 -1.78,-1.29 -2.62,-1.71l-0.44 -0.25c-0.02,-0.01 -0.06,-0.02 -0.08,-0.04 -0.02,-0.01 -0.05,-0.03 -0.08,-0.04 -0.02,-0.01 -0.05,-0.03 -0.07,-0.04 -0.02,-0.01 -0.05,-0.02 -0.08,-0.04 -0.02,-0.01 -0.05,-0.02 -0.08,-0.04l-2.31 -0.98c-1.9,-0.62 -3.71,-0.95 -4.92,-2.71 -0.16,-0.24 -0.32,-0.55 -0.45,-0.87 -0.38,-0.88 -0.53,-2.13 -0.27,-3.14 0.08,-0.35 0.2,-0.71 0.32,-0.99l0.88 -1.34c0.02,-0.02 0.04,-0.04 0.06,-0.06 0.02,-0.02 0.04,-0.05 0.06,-0.07 0.93,-0.95 2.14,-1.62 3.47,-1.7 0.67,-0.04 1.69,0.1 2.24,0.24l0.76 0.2c0.31,0.08 -0.05,-0.02 0.28,0.08l3.66 1.46c0.35,0.17 0.59,0.25 0.89,0.41 0.3,0.16 0.16,0.1 0.39,0.22 0.19,0.1 0.19,0.09 0.38,0.19l5.07 3.34c0.02,0.01 0.05,0.04 0.06,0.05l0.89 0.77c0.9,0.68 2.49,2.81 3.39,3.05 1.61,0.42 2.73,-1.05 2.08,-2.44 -0.44,-0.93 -1.7,-1.91 -2.5,-2.63 -0.93,-0.84 -1.73,-1.57 -2.77,-2.31l-1.89 -1.35c-0.02,-0.02 -0.05,-0.04 -0.07,-0.05l-3.51 -1.99c-0.26,-0.13 -0.57,-0.28 -0.87,-0.42l-1.73 -0.74c-0.02,-0.01 -0.05,-0.03 -0.08,-0.04l-0.84 -0.32c-0.02,-0.01 -0.06,-0.02 -0.08,-0.03l-6.84 -1.74c-0.04,0 -0.24,-0.04 -0.31,-0.05 -1.66,-0.2 -3.17,-0.36 -4.95,-0.35 -0.38,0 -0.77,0 -1.15,0.02 -0.17,0.02 -0.38,0.05 -0.54,0.06 -3.76,0.23 -7.44,0.98 -10.95,2.36 -3.25,1.28 -6.53,3.05 -9.23,5.3 -0.02,0.01 -0.05,0.04 -0.07,0.05l-3.01 2.64c-0.86,0.87 -2.07,2.03 -1.18,3.35 0.34,0.49 0.88,0.81 1.65,0.74 0.94,-0.09 2.07,-1.57 2.78,-2.28l1.99 -1.75c0.35,-0.25 0.42,-0.3 0.74,-0.53l0.61 -0.46c0.03,-0.02 0.11,-0.09 0.14,-0.11 2.16,-1.67 7.61,-4.67 10.4,-4.83 0.24,-0.02 0.35,-0.02 0.49,-0.04 0.23,-0.03 0.43,-0.07 0.69,-0.07l2.82 0.94c0.27,0.19 0.5,0.37 0.7,0.56 2.46,2.41 1.99,6.72 -1.09,8.34 -1.62,0.85 -3.7,0.63 -8.17,3.88 -0.2,0.14 -0.19,0.15 -0.4,0.31 -1.37,1.05 -2.72,2.37 -3.78,3.74 -0.21,0.26 -0.36,0.45 -0.55,0.72l-1.43 2.32c-0.27,0.57 -0.59,1.04 -0.85,1.72 -0.23,0.61 -0.5,1.32 -0.68,1.93 -0.4,1.33 -0.71,2.74 -0.89,4.16l-0.12 2.42c0.01,0.4 0.03,0.75 0.07,1.14 0.03,0.24 0.08,0.9 0.11,1.17l0.27 1.63c0.38,2.04 0.83,2.93 -0.43,5.1 -0.12,0.2 0,0.01 -0.15,0.2l-0.25 0.34c-0.04,0.05 -0.11,0.13 -0.16,0.19 -0.14,0.15 -0.19,0.19 -0.35,0.36 -0.37,0.42 -1,0.79 -1.59,0.99 -1.71,0.6 -3.49,0.49 -4.91,-0.52 -0.17,-0.12 -0.22,-0.18 -0.31,-0.26 -1.32,-1 -1.69,-2.06 -2.03,-3.72 -0.09,-0.4 0.01,0.08 -0.13,-0.48l-0.47 -2.84c-0.04,-0.37 -0.09,-0.78 -0.11,-1.17l-0.11 -2.48c0,-1.39 0.06,-2.54 0.25,-3.84 0.35,-2.28 0.86,-4.65 1.62,-6.68 0.24,-0.62 0.08,-1.24 -0.2,-1.63 -0.88,-1.24 -2.72,-0.67 -3.15,0.62 -0.72,2.16 -1.33,4.46 -1.67,6.74l-0.13 0.94c-0.01,0.08 -0.02,0.44 -0.02,0.45 -0.16,1.89 -0.18,3.59 -0.13,5.52 0.02,0.35 0.03,0.72 0.07,1.06l0.12 1.05c0.04,0.29 0.02,0.1 0.06,0.39l0.09 0.64c0,0.03 0.01,0.06 0.01,0.09 0.01,0.05 0.02,0.16 0.03,0.2 0.26,1.95 0.81,3.88 1.4,5.75l1.06 2.72c0.06,0.14 0.09,0.25 0.16,0.41l0.53 1.11c0.02,0.03 0.03,0.06 0.04,0.08l1.54 2.79c0.01,0.02 0.03,0.05 0.05,0.07l0.96 1.5c0.16,0.22 0.1,0.1 0.21,0.25l1.49 2.01c0.07,0.09 0.11,0.14 0.16,0.21 0.23,0.25 0.32,0.31 0.49,0.53 0.25,0.33 0.26,0.36 0.5,0.59 0.75,0.73 1.3,1.47 2.14,2.19l3.61 2.94c0.07,0.04 0.24,0.17 0.28,0.19 0.02,0.02 0.04,0.04 0.06,0.05l0.76 0.53c0.02,0.02 0.05,0.04 0.07,0.05l1.45 0.9c0.02,0.02 0.05,0.03 0.07,0.05 0.02,0.01 0.05,0.02 0.08,0.04l0.75 0.42c0.02,0.01 0.05,0.03 0.07,0.04l2.6 1.27c0.24,0.12 -0.09,-0.01 0.31,0.15l0.52 0.2c0.02,0.01 0.05,0.03 0.07,0.04l1.3 0.5c0.03,0.01 0.13,0.05 0.17,0.07l0.74 0.25c0.03,0.02 0.06,0.02 0.09,0.04 0.89,0.29 3.48,1.12 4.16,1.04 1.33,-0.15 1.87,-1.47 1.33,-2.54 -0.28,-0.55 -0.67,-0.69 -1.36,-1l-0.68 -0.25c-0.15,-0.04 -0.29,-0.07 -0.37,-0.09l-4.44 -1.54c-0.31,-0.12 -0.12,-0.03 -0.4,-0.18l-1.74 -0.83c-0.03,-0.01 -0.06,-0.02 -0.08,-0.04l-3.37 -2.01c-1.58,-1.01 -5.12,-3.96 -5.96,-5.41l-0.62 -1.64c-0.36,-1.69 0.2,-3.93 1.76,-5.06 1.91,-1.39 3.88,-1.65 6.09,-0.56 0.15,0.07 0.25,0.12 0.38,0.22 0.14,0.1 0.14,0.12 0.24,0.21zm8.55 -1.86c1.48,0.92 2.98,1.57 4.77,1.92 2.81,0.55 5.9,0.3 8.48,-0.82l3.55 -2.18c0.26,-0.27 0.68,-0.49 0.94,-0.83l0.78 -1.18c0.02,-0.03 0.07,-0.1 0.09,-0.13l1.12 -1.72c0.37,-0.53 0.58,-1.12 0.8,-1.77l0.58 -1.99c0.33,-1.78 0.45,-0.55 0.45,-3.13 0,-3.58 -0.32,-2.74 -0.61,-3.64 -0.07,-0.24 -0.07,-0.36 -0.17,-0.63 -0.16,-0.5 -0.29,-0.83 -0.49,-1.28 -0.36,-0.8 -0.76,-1.68 -1.32,-2.39l-1.39 -1.77c-0.62,-0.63 -1.03,-1.13 -1.77,-1.66 -1.25,-0.89 -2.55,-1.51 -3.91,-1.91 -0.24,-0.07 -0.52,-0.18 -0.72,-0.23l-0.69 -0.14c-0.29,-0.06 -0.45,-0.09 -0.79,-0.14 -0.48,-0.06 -1.02,-0.11 -1.62,-0.13 -1.14,-0.02 -2.27,0.08 -3.16,0.25 -0.51,0.1 -0.87,0.18 -1.31,0.33 -1,0.37 -2.04,0.71 -2.97,1.26l-0.94 0.57c-0.03,0.01 -0.05,0.03 -0.08,0.05l-1.03 0.83c-0.03,0.02 -0.11,0.08 -0.14,0.1l-1.2 1.13c-0.08,0.1 -0.08,0.11 -0.15,0.2 -0.71,0.97 -1.57,1.95 -2.06,3.08l-0.82 2.1c-0.01,0.03 -0.02,0.06 -0.03,0.09l-0.19 0.75c-0.01,0.03 -0.01,0.06 -0.02,0.09 -0.01,0.03 -0.02,0.06 -0.02,0.09l-0.27 2.06c0,1.68 -0.02,3.26 0.49,4.89l0.06 0.18c0,0.03 0.01,0.06 0.02,0.09l0.06 0.18c0,0.03 0.01,0.06 0.02,0.09l1.08 2.47c0.74,1.19 1.62,2.4 2.65,3.34l1.93 1.53zm5.82 -11.72c0.24,0.36 1.12,1.3 1.52,1.41l1.44 -1.44 -1.53 -1.46 -1.43 1.49zm0.94 3.17l-2.51 1c-1.06,0.35 -1.91,0.55 -3.11,0.4l-1.7 -0.64c0.26,-0.43 0.66,-0.56 1.07,-0.8 0.8,-0.46 2.13,-1.02 2.64,-1.7l0.67 -0.5c-0.31,-0.43 -0.96,-0.76 -1.34,-1.1 -0.02,-0.01 -0.05,-0.04 -0.07,-0.05 -0.03,-0.03 -0.19,-0.11 -0.22,-0.13l-1.22 -1.12c-0.02,-0.03 -0.1,-0.09 -0.12,-0.11l-0.96 -1.46c-0.25,-0.44 -1.05,-2.94 0.28,-2.04l1.62 0.92c0.63,0.29 0.94,0.49 1.5,0.83 0.56,0.34 1.04,0.58 1.59,0.87 0.01,-1.58 0.27,-3.06 0.59,-4.33 0.29,-1.2 1.06,-2.58 2.46,-2.58l0 5.74c0.59,-0.01 0.77,-0.29 1.29,-0.47l1.29 -0.47c0.35,-0.1 0.53,-0.16 0.91,-0.26 0.81,-0.2 2.23,-0.18 3.11,0.24 0.11,0.06 0.56,0.35 0.75,0.51 -0.16,0.53 -1.55,1.11 -2.09,1.49 -0.34,0.24 -0.81,0.46 -1.18,0.69l-1.15 0.73c0.18,0.39 0.52,0.57 0.88,0.83 0.3,0.21 0.19,0.27 0.56,0.53 0.13,0.09 0.06,0.04 0.2,0.16 0.19,0.18 -0.03,0.01 0.17,0.18l1.99 2.27 0.38 2.2c-0.52,0.05 -0.6,-0.16 -1.02,-0.38 -0.03,-0.01 -0.06,-0.03 -0.08,-0.04 -0.95,-0.52 -1.86,-1.21 -2.85,-1.63l-1.4 -0.72c0,1.69 -0.28,4.7 -1.43,5.83 -0.46,0.45 -0.97,0.7 -1.5,0.97l0 -5.86zm-5.23 13.12c-5.18,-1.87 -9.41,-6.34 -10.85,-11.67 -0.34,-1.26 -0.48,-2.32 -0.67,-3.8 -0.29,-2.22 0.5,-5.46 1.24,-7.4 1.59,-4.17 4.59,-7.18 8.39,-9.22 4.48,-2.39 9.85,-2.35 14.31,-0.63 1.15,0.44 1.91,0.89 2.89,1.47 0.77,0.45 1.93,1.31 2.54,1.93 1.06,1.1 2.18,2.25 2.94,3.6 0.18,0.32 -0.05,-0.06 0.2,0.28 0.11,0.16 0.12,0.17 0.22,0.37 0.16,0.3 0.27,0.43 0.43,0.74l0.64 1.46c0.06,0.16 0.07,0.16 0.14,0.34 0.01,0.03 0.02,0.06 0.03,0.08 0.01,0.03 0.02,0.06 0.03,0.09l0.2 0.61c0.44,1.37 0.69,2.87 0.82,4.3 0.16,1.89 -0.07,3.4 -0.47,5l-0.49 1.76c-0.02,0.04 -0.09,0.24 -0.09,0.26l-0.5 1.14c-0.08,0.2 -0.05,0.18 -0.12,0.35l-1.22 2.17c-0.02,0.02 -0.03,0.05 -0.05,0.07l-1.22 1.58c-0.42,0.61 -1.27,1.49 -1.86,1.91l-0.22 0.14c-0.27,0.2 -0.02,0.05 -0.3,0.28l-0.35 0.24c-0.02,0.01 -0.04,0.03 -0.06,0.05 -0.02,0.02 -0.04,0.04 -0.06,0.06l-1.46 1c-0.02,0.01 -0.05,0.03 -0.07,0.05 -0.03,0.01 -0.05,0.03 -0.08,0.04l-1.13 0.62c-0.03,0.02 -0.06,0.03 -0.08,0.04l-1.57 0.65c-0.1,0.04 -0.29,0.1 -0.44,0.15l-1.08 0.33c-0.04,0 -0.07,0.01 -0.1,0.02 -0.03,0.01 -0.06,0.02 -0.1,0.02l-2.32 0.47c-0.4,0.04 -0.89,0.07 -1.09,0.09 -0.58,0.06 -1.49,0.06 -2.06,-0.01l-1.95 -0.24c-0.4,-0.08 -0.52,-0.1 -0.87,-0.19 -0.23,-0.05 -0.56,-0.13 -0.84,-0.21l-1.25 -0.39zm-8.58 23.22c2.32,0.81 4.78,1.57 7.2,1.94 0.87,0.13 1.46,0.23 2.34,0.33 0.42,0.05 0.81,0.11 1.15,0.14 3.62,0.26 7.64,0.12 11.2,-0.45 1.46,-0.24 2.88,-0.58 4.29,-0.98 0.74,-0.21 1.3,-0.39 2.06,-0.64l5.52 -2.34c1.84,-0.84 3.41,-1.87 5.04,-3.02l4.31 -3.42c1.19,-1.22 2.66,-2.51 3.73,-3.9l4.48 -6.4c1.81,-2.95 2.98,-6.22 3.97,-9.53 0.01,-0.05 0.07,-0.24 0.08,-0.27l1.36 -8.51 0.1 -2.57c-0.01,-10.41 -3.44,-19.18 -9.84,-27.16l-1.18 -1.38c-1.29,-1.45 -2.62,-2.66 -4.06,-3.91l-4.77 -3.44c-0.38,-0.23 -0.01,0 -0.2,-0.13 -0.2,-0.13 -0.19,-0.13 -0.44,-0.27 -0.02,-0.01 -0.05,-0.02 -0.07,-0.04l-0.88 -0.52c-0.03,-0.01 -0.05,-0.03 -0.08,-0.04l-3.11 -1.58c-0.02,-0.01 -0.05,-0.03 -0.08,-0.04 -0.02,-0.01 -0.05,-0.03 -0.08,-0.04 -0.17,-0.09 -0.37,-0.15 -0.53,-0.21l-5.8 -2.04c-0.03,-0.01 -0.26,-0.08 -0.26,-0.08l-3.26 -0.73c-4.8,-1.04 -10.41,-0.73 -14.9,-0.07 -0.45,0.07 -0.8,0.17 -1.17,0.24 -0.35,0.07 -0.7,0.14 -1.06,0.22 -0.66,0.15 -1.32,0.34 -2.04,0.54 -1.34,0.36 -2.61,0.82 -3.95,1.32 -2.14,0.8 -5.12,2.32 -6.99,3.55l-5.33 3.94c-1.71,1.45 -3.05,3.09 -4.59,4.69 -0.42,0.42 -0.81,1.11 -1.11,1.45 -0.19,0.21 -0.17,0.22 -0.31,0.4 -3.04,3.95 -5.48,8.94 -6.76,13.62 -0.38,1.41 -0.75,2.89 -1,4.28 -0.14,0.79 -0.22,1.56 -0.34,2.33 -0.43,2.77 -0.48,7.32 -0.01,10.12l1.12 5.8c0.73,2.43 1.49,4.77 2.58,7.05 0.09,0.19 0.1,0.22 0.18,0.39l0.58 1.2c0.01,0.02 0.03,0.05 0.04,0.08l1.68 2.96c0.02,0.03 0.13,0.19 0.14,0.21l3.59 4.78c0.08,0.09 0.15,0.22 0.25,0.33 0.22,0.26 0.45,0.46 0.62,0.66 3.27,3.74 7.56,6.87 11.98,9.13 1.2,0.61 2.14,1.07 3.63,1.63 0.35,0.13 0.7,0.28 0.98,0.38z"/>
 </g>
</svg>
