<?xml version="1.0" encoding="UTF-8"?>
<!DOCTYPE svg PUBLIC "-//W3C//DTD SVG 1.1//EN" "http://www.w3.org/Graphics/SVG/1.1/DTD/svg11.dtd">
<!-- Creator: CorelDRAW 2019 (64-Bit) -->
<svg xmlns="http://www.w3.org/2000/svg" xml:space="preserve" width="196px" height="245px" version="1.1" style="shape-rendering:geometricPrecision; text-rendering:geometricPrecision; image-rendering:optimizeQuality; fill-rule:evenodd; clip-rule:evenodd"
viewBox="0 0 194.41 242.45"
 xmlns:xlink="http://www.w3.org/1999/xlink"
 xmlns:xodm="http://www.corel.com/coreldraw/odm/2003">
 <defs>
  <style type="text/css">
   <![CDATA[
    .fil0 {fill:white}
   ]]>
  </style>
 </defs>
 <g id="Layer_x0020_1">
  <metadata id="CorelCorpID_0Corel-Layer"/>
  <path class="fil0" d="M95.27 118.03c1.59,2.19 0.98,5.1 -1.08,6.88l-1.23 0.74c-0.8,0.35 -1.56,0.52 -2.41,0.43 -0.29,-0.03 0.03,0.01 -0.27,-0.05l-4.61 -1.31c-0.03,-0.01 -0.06,-0.02 -0.08,-0.03l-2.03 -0.76c-0.09,-0.03 -0.17,-0.07 -0.25,-0.1l-0.39 -0.18c-0.39,-0.17 -0.73,-0.3 -0.96,-0.4l-1.71 -0.86c-0.16,-0.08 -0.3,-0.16 -0.48,-0.26l-2.69 -1.6c-0.03,-0.02 -0.11,-0.07 -0.14,-0.09 -0.23,-0.15 -0.18,-0.12 -0.4,-0.27 -0.22,-0.15 -0.1,-0.07 -0.33,-0.23l-3.68 -2.92c-3.1,-2.93 -5.74,-5.89 -7.93,-9.88l-3.58 -8.73c-1.23,-4.51 -1.66,-9.27 -1.12,-14.08 0.03,-0.28 0.05,-0.27 0.09,-0.6l0.24 -1.71c0.36,-2.17 1.03,-5.27 2.11,-7.18 1.15,-2.05 3.68,-3.22 6.08,-2.4 0.91,0.32 1.74,0.84 2.33,1.56l0.55 0.76c0.32,0.59 0.56,1.24 0.7,2 0.13,0.68 0,1.56 -0.23,2.17 -0.67,1.72 -1.11,3.48 -1.37,5.26 -0.25,1.72 -0.35,3.29 -0.35,5 0,1.92 0.36,3.9 0.81,5.76l0.34 0.98c0.71,1 2.21,0.93 2.9,0.06 0.18,-0.21 0.26,-0.51 0.3,-0.88 0.12,-1.39 -2.18,-6.45 0.52,-14.44l0.15 -0.44c0.01,-0.02 0.02,-0.06 0.03,-0.08l0.18 -0.48c0.56,-1.32 1.18,-2.79 1.96,-3.98l1.5 -2.11c0.16,-0.19 0.13,-0.15 0.3,-0.38l5 -4.65c0.02,-0.01 0.05,-0.03 0.07,-0.05l5.12 -2.87c1.05,-0.42 3.21,-0.58 3.62,-1.8 0.21,-0.64 0.08,-1.29 -0.34,-1.77l-0.77 -0.52c-1.66,-0.53 -6.43,1.91 -7.78,2.74 -1.24,0.75 -2.38,1.69 -3.57,2.5l-0.61 0.55c-0.11,0.09 -0.3,0.18 -0.41,0.27l-0.88 0.87c-1.51,1.48 -1.98,2.33 -4.17,2.86l-1.66 0 -1.42 -0.45c-1.79,-0.87 -3.3,-3.04 -2.92,-5.27l0.53 -1.69c0.5,-0.95 1.26,-1.68 1.98,-2.42l2.16 -2.01c0.15,-0.15 0.15,-0.14 0.33,-0.28l3.49 -2.63c1.7,-1.08 3.43,-2.05 5.22,-2.91 0,0 0.17,-0.09 0.22,-0.12l0.43 -0.18c0.14,-0.06 0.08,-0.04 0.24,-0.1 5.16,-2.16 10.71,-3.28 16.33,-3.12 0.39,0.02 0.74,0.04 1.13,0.06 3.74,0.16 7.53,0.99 11,2.36 1.96,0.77 3.86,1.62 5.73,2.67 0.21,0.11 0.6,0.36 0.8,0.48 0.17,0.1 0.15,0.11 0.33,0.21l2.85 1.93c0.11,0.09 0.2,0.18 0.34,0.29l3.77 3.33c0.46,0.45 0.7,0.68 1.14,1.21 0.12,0.15 0.24,0.27 0.36,0.41 0.45,0.51 0.73,1.32 0.9,2 0.13,0.49 0.16,0.53 0.16,0.98 -0.01,0.77 -0.17,1.39 -0.38,1.95 -0.11,0.29 -0.24,0.56 -0.41,0.86 -0.46,0.79 -0.78,1.2 -1.71,1.75 -0.28,0.17 -0.6,0.33 -0.87,0.42l-0.88 0.27c-1.16,0.26 -2.35,-0.1 -3.42,-0.58 -0.11,-0.05 -0.12,-0.04 -0.21,-0.09 -0.02,-0.01 -0.05,-0.03 -0.07,-0.05l-4.45 -4.09 -4.7 -2.99c-0.16,-0.08 -0.03,-0.01 -0.22,-0.11 -0.71,-0.39 -1.37,-0.55 -2.11,-0.9 -0.27,-0.13 0.03,0 -0.25,-0.12l-1.28 -0.49c-0.23,-0.07 -0.32,-0.09 -0.57,-0.14 -1.09,-0.22 -2.25,-0.63 -3.03,0.42 -0.34,0.46 -0.53,1.16 -0.16,1.86 0.32,0.6 1.18,0.85 1.96,1.07l2.74 0.98c0.02,0.01 0.05,0.03 0.08,0.04 3.36,1.49 6.2,3.59 8.45,6.17l3.82 5.8c0.12,0.27 0.08,0.19 0.21,0.51 0.06,0.13 0.06,0.14 0.11,0.24 0.01,0.02 0.02,0.05 0.04,0.08l1.38 4.28c0,0.03 0.01,0.05 0.02,0.08 0.8,3.52 0.76,7.37 -0.13,10.86 -0.39,1.55 0.49,2.77 2.09,2.46l0.51 -0.19c0.41,-0.23 0.64,-0.54 0.75,-1.01 0.97,-3.84 1.08,-7.81 0.47,-11.74 -0.03,-0.19 -0.05,-0.4 -0.1,-0.6 -0.03,-0.17 -0.09,-0.38 -0.13,-0.54 -0.26,-1.24 -0.5,-2.31 -0.97,-3.44 -1,-2.41 0.23,-4.9 2.18,-6.14l1.19 -0.55c0.19,-0.07 0.36,-0.11 0.56,-0.14 2.17,-0.33 3.94,0.61 5.2,2.22 0.46,0.58 0.66,1.19 0.9,1.89l0.37 1.13c0.02,0.07 0.06,0.24 0.07,0.28l0.51 1.92c0.01,0.03 0.01,0.06 0.02,0.09l0.84 5.35c0.16,1.05 0.16,2.11 0.16,3.23 0.02,8.23 -2.13,14.38 -5.87,20.47 -1.76,2.87 -4.56,6.37 -7.2,8.47l-1.47 1.18c-2.85,2.63 -8.54,5.28 -11.94,6.4 -0.67,0.22 -1.24,0.39 -2.05,0.59l-1.56 0.45c-0.13,0.03 -0.29,0.06 -0.49,0.09 -2.81,0.5 -5.42,-1.7 -5.84,-4.41 -0.21,-1.37 0.16,-2.54 0.84,-3.59 0.35,-0.54 0.78,-1.01 1.33,-1.37 0.72,-0.46 1.51,-0.67 2.32,-0.94l2.13 -0.64c0.03,-0.01 0.06,-0.02 0.09,-0.03l5.26 -2.29c0.35,-0.19 0.55,-0.34 0.85,-0.53l1.33 -0.87c0.02,-0.01 0.05,-0.03 0.07,-0.05l1.46 -1.08c1.26,-1.17 4.94,-3.76 2.72,-5.47l-0.27 -0.17c-0.03,-0.02 -0.06,-0.03 -0.09,-0.04l-0.62 -0.17c-0.5,-0.04 -0.8,0.15 -1.02,0.27l-3.43 3.09c-2.38,1.85 -4.94,3.13 -7.79,4.03l-2.12 0.56c-2.91,0.61 -6.08,0.68 -9.06,0.17 -0.03,-0.01 -0.06,-0.02 -0.09,-0.02l-0.18 -0.04c-0.04,-0.01 -0.07,-0.02 -0.1,-0.02l-5.87 -1.88c-0.03,-0.01 -0.18,-0.09 -0.21,-0.11 -0.1,-0.05 -0.1,-0.05 -0.23,-0.12 -0.27,-0.14 -0.25,-0.12 -0.49,-0.24l-1.02 -0.57c-0.09,-0.05 -0.17,-0.1 -0.23,-0.13l-0.21 -0.14c-0.04,-0.01 -0.12,-0.07 -0.16,-0.09l-1.51 -1.03c-0.02,-0.01 -0.05,-0.03 -0.07,-0.04l-1.43 -1.16c-0.76,-0.68 -1.63,-1.73 -2.32,-2.22 -1.09,-0.78 -2.8,0.04 -2.78,1.45 0,0.4 0.2,0.88 0.33,1.07l0.48 0.57c0.72,0.91 1.65,1.58 2.51,2.33l5.62 3.56c0.12,0.06 0.27,0.1 0.41,0.17l2.79 1.13c1.83,0.58 4.21,1.01 5.46,2.27l0.65 0.79zm2.73 30.51c-22.82,0 -41,21 -41.5,49.4 28.94,-4.38 55.81,-3.46 84.76,0.92 3.01,-26.28 -16.8,-50.32 -43.26,-50.32zm-44.09 40.59c4.57,-27.26 20.43,-43.34 42.76,-44.05l0 -11.31 -1.86 0c-0.19,-0.24 -0.11,-0.12 -0.55,-0.15l-6.1 -0.92c-0.24,-0.06 0.05,0 -0.17,-0.05l-6.09 -1.82c-1.8,-0.67 -3.16,-1.34 -4.82,-2.15l-5.12 -3.12c-2.48,-2 -2.88,-1.93 -6,-5.03l-3.16 -3.56c-0.15,-0.17 -0.18,-0.23 -0.32,-0.39l-1.93 -2.59c-0.27,-0.44 0.17,0.27 -0.13,-0.22 -0.02,-0.03 -0.07,-0.12 -0.09,-0.15l-0.5 -0.77c-0.01,-0.02 -0.03,-0.05 -0.05,-0.07 -0.08,-0.12 -0.15,-0.24 -0.27,-0.42l-1.44 -2.5c-0.3,-0.51 -0.6,-1.08 -0.88,-1.69l-1.4 -3.25c-0.01,-0.02 -0.03,-0.05 -0.04,-0.08l-0.51 -1.41c-0.01,-0.03 -0.02,-0.06 -0.03,-0.09l-0.36 -1.05c-0.01,-0.03 -0.02,-0.05 -0.03,-0.08 -0.76,-2.05 -1.39,-5.53 -1.74,-7.8l-0.2 -1.69c-0.01,-0.18 -0.02,-0.36 -0.06,-0.61 -0.02,-0.12 -0.03,-0.18 -0.06,-0.3 -0.01,-0.03 -0.04,-0.04 -0.05,-0.09 0,-0.05 -0.03,-0.05 -0.04,-0.08l0 -6.4c0.13,-0.15 0.07,0.11 0.16,-0.43l0.5 -4.09c0.61,-3.53 2.21,-8.82 3.85,-11.93 2.02,-3.85 2.23,-4.22 4.5,-7.39l0.68 -0.92c0.02,-0.02 0.04,-0.05 0.05,-0.07 0.02,-0.02 0.04,-0.04 0.06,-0.06l0.47 -0.58c1.96,-2.42 3.98,-4.36 6.45,-6.44 2.64,-2.22 5.82,-4.12 8.88,-5.66 4.26,-2.14 10.62,-4.01 15.37,-4.34 0.35,-0.02 0.31,0 0.63,-0.05l0.54 -0.18 6.38 0c0.03,0.02 0.06,0.02 0.08,0.06l0.34 0.12c1.63,0.25 2.64,0.22 4.65,0.61 0.16,0.03 0.4,0.06 0.57,0.1l3.21 0.76c0.18,0.05 0.29,0.08 0.47,0.13 0.29,0.09 -0.1,-0.02 0.26,0.08l3.88 1.33c0.11,0.04 0.18,0.06 0.26,0.1l4.51 2.12c0.13,0.07 0.22,0.12 0.37,0.2l3.4 2.05c0.02,0.02 0.05,0.04 0.07,0.05l1.82 1.3c0.02,0.01 0.05,0.03 0.07,0.05l1.05 0.79c0.03,0.03 0.1,0.09 0.13,0.11 2.26,1.79 4.47,3.84 6.24,6.09l2.93 3.81c0.06,0.08 0.09,0.12 0.14,0.19l1.12 1.79c0.01,0.02 0.03,0.05 0.05,0.08 0.11,0.18 0.04,0.07 0.13,0.22l0.6 1.02c0.08,0.14 0.02,0.03 0.12,0.21 0.1,0.2 0.13,0.28 0.24,0.47 0.02,0.03 0.07,0.12 0.09,0.15 0.03,0.06 0.07,0.14 0.12,0.23l2.98 7.03c0.01,0.02 0.02,0.05 0.03,0.08l1.72 7.29c0.06,0.41 0.09,0.83 0.15,1.24l0.34 2.29 0 6.38c-0.01,0.02 -0.04,0.03 -0.05,0.08l-0.15 0.99c-0.05,0.41 -0.08,0.78 -0.13,1.15l-0.33 2.34c-1,7 -4.58,14.53 -8.82,20.08 -0.26,0.33 -0.35,0.44 -0.56,0.73l-1.73 1.98c-1.39,1.68 -2.93,2.91 -4.49,4.31 -3.19,2.86 -9.06,6.16 -12.91,7.54l-4.02 1.3c-1.34,0.39 -2.78,0.73 -4.27,0.96 -0.44,0.06 -0.65,0.11 -1.13,0.18 -0.68,0.11 -3.25,0.31 -3.54,0.5l-1.91 0 0 11.3c26.49,0.58 43.23,22.87 44.46,42.67 1.74,27.91 2.73,14.51 2.07,53.1 8.86,-1.96 41.47,-17.82 45.95,-23.49 3.37,-4.25 2.8,-21.47 2.12,-27.21 -2.82,-23.61 -7.54,-50.18 -12.33,-73.3 -3.19,-15.38 -6.79,-32.79 -11.5,-47.49 -2.78,-8.67 -9.74,-17.17 -15.78,-20.94 -24.66,-15.4 -35.88,-9.56 -37.11,-14.77 0.63,-3.02 29.65,-17.64 20.96,-33.64 -4.84,4.64 -9.12,13.76 -21.23,19.53 -10.45,4.98 -26.76,4.25 -37.16,0.39 -7.52,-2.79 -15.55,-16.84 -22.74,-19.13 -3.83,7.87 4.94,19.55 18.93,28.46 13.46,6.38 -4.59,8.03 -13.24,10.72 -4.09,1.27 -9.73,2.72 -13.42,4.32 -10.99,4.78 -19.66,11.99 -23.56,23.44 -4.85,14.26 -9.7,32.98 -12.84,48.08 -4.77,23.02 -9,50.7 -11.8,74.28 -0.74,6.14 -2.45,21.71 1.06,26.13 4.93,6.2 41.59,24.69 48.8,26.23 1.54,-36.44 1.81,-18.25 2.98,-53.32zm28.16 -87.06c1.59,1.44 2.46,2.64 4.63,3.99 0.2,0.13 0.17,0.11 0.35,0.22l3.42 1.7c0.08,0.04 0.2,0.09 0.23,0.1 2.42,0.93 5.4,1.4 8.4,1.29 4.23,-0.15 8.37,-1.84 11.77,-4.36l1.12 -0.95c0.63,-0.46 1.08,-1.09 1.59,-1.67 0.52,-0.59 1.26,-0.96 2.05,-1.21l0.45 -0.13c0.03,-0.01 0.06,-0.01 0.1,-0.02l2.17 0.02c0.53,0.12 1.21,0.37 1.67,0.7l0.21 0.15c2.43,1.69 3.04,5.52 0.84,7.76l-3.66 3.42c-1.36,1.25 -4.3,2.91 -6.28,3.79 -1.8,0.79 -3.58,1.42 -5.48,1.97 -0.95,0.27 -2.29,0.73 -2.35,1.96 -0.05,0.87 0.63,1.67 1.42,1.81 1.28,0.21 6.99,-2.08 8.14,-2.61 4.02,-1.88 7.07,-4.14 10.04,-7.12l2.96 -3.41c1.69,-2.12 2.81,-4.35 4,-6.78 2.53,-5.19 3.48,-12.12 2.71,-18.85l-0.84 -4.23c-0.31,-1.16 -0.57,-2.99 -1.56,-3.68 -1.15,-0.8 -3.03,0.3 -2.67,1.77l0.8 2.44c1.34,5.04 1.58,11.84 -0.09,16.82 -0.16,0.47 -0.52,0.91 -0.8,1.29l-0.68 0.68c-0.03,0.02 -0.12,0.07 -0.15,0.09l-1.19 0.68c-0.9,0.33 -1.82,0.51 -2.74,0.36 -1.25,-0.2 -2.53,-0.82 -3.31,-1.84l-1.14 -2.55c-0.26,-1.3 0.35,-3.04 0.55,-4.35l0.19 -2.33c0.01,-0.45 0,-0.84 -0.01,-1.29 -0.06,-1.91 -0.42,-3.93 -1.02,-5.76l-0.36 -1c-0.02,-0.04 -0.06,-0.14 -0.07,-0.17 -0.04,-0.1 -0.07,-0.18 -0.11,-0.29 -0.06,-0.14 -0.11,-0.29 -0.17,-0.41 -0.05,-0.1 -0.14,-0.27 -0.22,-0.45l-0.88 -1.68c-0.1,-0.16 -0.12,-0.23 -0.2,-0.39l-0.5 -0.77c-1.02,-1.5 -2.17,-2.82 -3.54,-4.01l-1.08 -0.9c-0.83,-0.69 -1.76,-1.29 -2.59,-1.7l-0.44 -0.25c-0.02,-0.01 -0.05,-0.03 -0.08,-0.04 -0.02,-0.01 -0.05,-0.03 -0.07,-0.04 -0.03,-0.01 -0.05,-0.03 -0.08,-0.04 -0.02,-0.01 -0.05,-0.02 -0.07,-0.04 -0.03,-0.01 -0.06,-0.02 -0.08,-0.04l-2.3 -0.97c-1.87,-0.62 -3.67,-0.94 -4.87,-2.69 -0.16,-0.23 -0.31,-0.54 -0.45,-0.86 -0.37,-0.87 -0.52,-2.11 -0.27,-3.11 0.09,-0.35 0.2,-0.71 0.32,-0.98l0.88 -1.33c0.01,-0.02 0.04,-0.04 0.05,-0.06 0.02,-0.02 0.04,-0.05 0.06,-0.07 0.92,-0.94 2.13,-1.6 3.45,-1.68 0.66,-0.04 1.67,0.09 2.22,0.24l0.75 0.19c0.3,0.08 -0.05,-0.02 0.27,0.08l3.63 1.45c0.35,0.16 0.58,0.24 0.89,0.41 0.29,0.16 0.15,0.09 0.38,0.21 0.19,0.1 0.18,0.09 0.38,0.19l5.02 3.31c0.02,0.02 0.05,0.04 0.06,0.05l0.88 0.76c0.89,0.68 2.47,2.79 3.36,3.03 1.6,0.42 2.7,-1.04 2.06,-2.42 -0.44,-0.92 -1.68,-1.9 -2.47,-2.61 -0.93,-0.83 -1.72,-1.56 -2.75,-2.29l-1.87 -1.34c-0.02,-0.01 -0.05,-0.03 -0.07,-0.04l-3.48 -1.98c-0.26,-0.13 -0.57,-0.27 -0.86,-0.41l-1.71 -0.74c-0.03,-0.01 -0.06,-0.02 -0.08,-0.03l-0.84 -0.32c-0.02,-0.01 -0.05,-0.02 -0.08,-0.03l-6.78 -1.72c-0.04,-0.01 -0.23,-0.05 -0.3,-0.06 -1.65,-0.2 -3.15,-0.35 -4.91,-0.35 -0.38,0 -0.77,0 -1.14,0.03 -0.17,0.02 -0.38,0.05 -0.53,0.05 -3.73,0.24 -7.37,0.98 -10.86,2.34 -3.22,1.27 -6.47,3.02 -9.15,5.26 -0.02,0.01 -0.04,0.03 -0.06,0.05l-2.98 2.61c-0.85,0.87 -2.06,2.01 -1.17,3.32 0.33,0.49 0.86,0.81 1.63,0.73 0.93,-0.09 2.05,-1.55 2.75,-2.25l1.98 -1.74c0.35,-0.25 0.41,-0.29 0.73,-0.52l0.6 -0.46c0.03,-0.02 0.12,-0.09 0.15,-0.11 2.13,-1.65 7.54,-4.62 10.3,-4.79 0.24,-0.01 0.35,-0.01 0.49,-0.03 0.23,-0.03 0.42,-0.07 0.68,-0.08l2.79 0.93c0.28,0.2 0.5,0.37 0.7,0.57 2.44,2.38 1.97,6.65 -1.08,8.26 -1.61,0.84 -3.67,0.63 -8.1,3.84 -0.2,0.15 -0.19,0.15 -0.4,0.31 -1.35,1.04 -2.69,2.35 -3.74,3.71 -0.21,0.26 -0.36,0.45 -0.55,0.71l-1.41 2.31c-0.27,0.56 -0.59,1.03 -0.85,1.7 -0.23,0.6 -0.49,1.3 -0.67,1.91 -0.4,1.31 -0.71,2.71 -0.88,4.12l-0.12 2.4c0,0.4 0.03,0.74 0.07,1.13 0.03,0.23 0.07,0.89 0.11,1.16l0.26 1.62c0.38,2.01 0.83,2.9 -0.42,5.05 -0.12,0.2 -0.01,0.01 -0.15,0.2l-0.25 0.33c-0.04,0.06 -0.11,0.14 -0.16,0.19 -0.13,0.15 -0.19,0.19 -0.34,0.36 -0.37,0.41 -1,0.78 -1.58,0.98 -1.69,0.59 -3.46,0.49 -4.87,-0.52 -0.17,-0.12 -0.21,-0.18 -0.3,-0.25 -1.31,-1 -1.67,-2.04 -2.02,-3.69 -0.08,-0.4 0.02,0.08 -0.12,-0.47l-0.47 -2.82c-0.04,-0.37 -0.08,-0.77 -0.11,-1.16l-0.1 -2.46c0,-1.38 0.05,-2.52 0.24,-3.8 0.35,-2.26 0.86,-4.61 1.61,-6.62 0.23,-0.62 0.08,-1.23 -0.2,-1.62 -0.88,-1.23 -2.69,-0.66 -3.12,0.62 -0.72,2.13 -1.32,4.42 -1.66,6.68l-0.13 0.93c0,0.08 -0.02,0.44 -0.02,0.44 -0.15,1.88 -0.18,3.56 -0.12,5.48 0.01,0.35 0.02,0.71 0.06,1.04l0.12 1.04c0.04,0.29 0.03,0.1 0.06,0.39l0.09 0.63c0,0.04 0.01,0.06 0.01,0.1 0.01,0.04 0.02,0.15 0.03,0.2 0.26,1.93 0.8,3.84 1.39,5.69l1.05 2.7c0.05,0.13 0.08,0.25 0.16,0.41l0.53 1.1c0.01,0.02 0.02,0.05 0.03,0.08l1.53 2.76c0.01,0.02 0.03,0.05 0.04,0.07l0.96 1.49c0.16,0.22 0.1,0.09 0.2,0.25l1.48 1.98c0.08,0.09 0.11,0.15 0.16,0.21 0.23,0.25 0.32,0.31 0.49,0.52 0.25,0.33 0.25,0.36 0.49,0.6 0.75,0.72 1.29,1.45 2.13,2.16l3.57 2.91c0.07,0.05 0.24,0.17 0.27,0.19 0.03,0.02 0.05,0.04 0.07,0.06l0.75 0.52c0.02,0.02 0.05,0.04 0.07,0.05l1.44 0.89c0.02,0.02 0.05,0.03 0.07,0.05 0.02,0.01 0.05,0.02 0.08,0.04l0.74 0.42c0.02,0.01 0.05,0.03 0.07,0.04l2.58 1.26c0.23,0.11 -0.09,-0.01 0.3,0.14l0.52 0.2c0.02,0.01 0.05,0.03 0.07,0.04l1.28 0.5c0.04,0.01 0.14,0.05 0.17,0.06l0.74 0.26c0.03,0.01 0.06,0.02 0.09,0.03 0.88,0.29 3.45,1.12 4.12,1.04 1.32,-0.16 1.85,-1.47 1.32,-2.52 -0.28,-0.55 -0.67,-0.69 -1.35,-0.99l-0.67 -0.25c-0.15,-0.04 -0.29,-0.07 -0.36,-0.09l-4.41 -1.53c-0.31,-0.12 -0.12,-0.03 -0.39,-0.17l-1.73 -0.83c-0.03,-0.01 -0.06,-0.02 -0.08,-0.03l-3.34 -2c-1.56,-1.01 -5.08,-3.93 -5.9,-5.36l-0.62 -1.63c-0.36,-1.68 0.2,-3.89 1.74,-5.01 1.89,-1.38 3.85,-1.64 6.04,-0.56 0.15,0.08 0.24,0.12 0.38,0.22 0.14,0.1 0.14,0.12 0.23,0.21zm8.48 -1.84c1.46,0.91 2.95,1.55 4.72,1.89 2.79,0.55 5.85,0.31 8.41,-0.81l3.52 -2.16c0.26,-0.27 0.67,-0.48 0.93,-0.82l0.77 -1.17c0.02,-0.02 0.07,-0.1 0.09,-0.13l1.11 -1.7c0.36,-0.52 0.57,-1.11 0.79,-1.75l0.58 -1.97c0.32,-1.77 0.45,-0.55 0.45,-3.11 0,-3.54 -0.33,-2.71 -0.61,-3.6 -0.07,-0.24 -0.07,-0.36 -0.16,-0.63 -0.17,-0.49 -0.29,-0.82 -0.49,-1.27 -0.36,-0.79 -0.76,-1.66 -1.31,-2.37l-1.38 -1.75c-0.61,-0.62 -1.02,-1.12 -1.76,-1.64 -1.23,-0.89 -2.52,-1.51 -3.87,-1.9 -0.24,-0.07 -0.51,-0.18 -0.71,-0.23l-0.68 -0.14c-0.3,-0.06 -0.45,-0.09 -0.79,-0.13 -0.48,-0.06 -1.01,-0.12 -1.61,-0.13 -1.12,-0.02 -2.24,0.07 -3.13,0.25 -0.5,0.1 -0.86,0.17 -1.29,0.32 -1,0.36 -2.03,0.7 -2.94,1.25l-0.94 0.56c-0.03,0.02 -0.05,0.04 -0.08,0.05l-1.02 0.83c-0.03,0.02 -0.11,0.08 -0.14,0.1l-1.19 1.12c-0.08,0.1 -0.08,0.1 -0.14,0.19 -0.71,0.96 -1.57,1.94 -2.05,3.05l-0.81 2.09c-0.01,0.03 -0.02,0.05 -0.03,0.09l-0.19 0.74c-0.01,0.03 -0.01,0.05 -0.02,0.09 -0.01,0.03 -0.01,0.06 -0.02,0.09l-0.27 2.04c0,1.67 -0.01,3.23 0.49,4.85l0.05 0.17c0.01,0.03 0.02,0.07 0.03,0.1l0.05 0.18c0.01,0.03 0.02,0.06 0.03,0.09l1.07 2.44c0.73,1.17 1.6,2.38 2.63,3.31l1.91 1.52zm5.77 -11.62c0.23,0.36 1.11,1.29 1.51,1.4l1.42 -1.43 -1.52 -1.45 -1.41 1.48zm0.92 3.14l-2.48 0.99c-1.05,0.35 -1.89,0.55 -3.08,0.4l-1.69 -0.63c0.26,-0.43 0.65,-0.56 1.07,-0.8 0.78,-0.45 2.11,-1.01 2.61,-1.68l0.67 -0.49c-0.31,-0.43 -0.96,-0.76 -1.34,-1.09 -0.02,-0.02 -0.04,-0.04 -0.06,-0.06 -0.04,-0.03 -0.19,-0.11 -0.22,-0.13l-1.21 -1.11c-0.03,-0.02 -0.1,-0.09 -0.12,-0.11l-0.96 -1.44c-0.24,-0.44 -1.04,-2.92 0.29,-2.03l1.6 0.92c0.63,0.28 0.94,0.49 1.49,0.82 0.55,0.34 1.03,0.57 1.57,0.86 0.02,-1.56 0.27,-3.03 0.59,-4.29 0.29,-1.19 1.05,-2.55 2.44,-2.56l0 5.69c0.58,-0.01 0.76,-0.29 1.27,-0.46l1.28 -0.46c0.35,-0.11 0.53,-0.17 0.9,-0.26 0.8,-0.2 2.21,-0.18 3.08,0.24 0.11,0.05 0.57,0.34 0.75,0.49 -0.16,0.53 -1.53,1.11 -2.07,1.48 -0.34,0.24 -0.8,0.46 -1.17,0.69l-1.14 0.72c0.18,0.39 0.51,0.57 0.87,0.82 0.3,0.21 0.19,0.27 0.55,0.53 0.14,0.09 0.07,0.04 0.21,0.16 0.19,0.18 -0.04,0.01 0.16,0.18l1.97 2.25 0.38 2.18c-0.51,0.04 -0.59,-0.16 -1.01,-0.38 -0.02,-0.01 -0.05,-0.03 -0.08,-0.04 -0.94,-0.51 -1.84,-1.2 -2.82,-1.61l-1.39 -0.72c0,1.67 -0.28,4.66 -1.42,5.78 -0.45,0.44 -0.96,0.7 -1.49,0.96l0 -5.81zm-5.17 13.01c-5.14,-1.86 -9.33,-6.29 -10.76,-11.57 -0.33,-1.25 -0.48,-2.3 -0.67,-3.76 -0.28,-2.2 0.5,-5.42 1.24,-7.34 1.58,-4.13 4.55,-7.12 8.31,-9.14 4.44,-2.37 9.76,-2.33 14.18,-0.62 1.14,0.44 1.89,0.88 2.86,1.45 0.77,0.45 1.92,1.3 2.52,1.92 1.06,1.08 2.16,2.23 2.92,3.56 0.17,0.32 -0.05,-0.05 0.19,0.28 0.12,0.16 0.12,0.17 0.23,0.37 0.16,0.3 0.26,0.42 0.42,0.73l0.64 1.45c0.06,0.15 0.06,0.16 0.13,0.33 0.01,0.03 0.02,0.06 0.03,0.09 0.01,0.03 0.02,0.06 0.03,0.09l0.2 0.6c0.44,1.36 0.69,2.84 0.81,4.26 0.16,1.87 -0.07,3.37 -0.46,4.96l-0.49 1.74c-0.02,0.04 -0.09,0.24 -0.09,0.26l-0.49 1.13c-0.08,0.2 -0.05,0.18 -0.12,0.34l-1.21 2.15c-0.02,0.02 -0.03,0.05 -0.05,0.07l-1.21 1.57c-0.42,0.6 -1.26,1.48 -1.84,1.9l-0.22 0.13c-0.27,0.21 -0.02,0.05 -0.3,0.28l-0.34 0.23c-0.02,0.02 -0.05,0.04 -0.07,0.06 -0.01,0.01 -0.04,0.04 -0.06,0.05l-1.44 1c-0.02,0.01 -0.05,0.03 -0.07,0.04 -0.03,0.02 -0.05,0.03 -0.08,0.05l-1.12 0.62c-0.03,0.01 -0.06,0.02 -0.08,0.03l-1.55 0.64c-0.11,0.05 -0.3,0.11 -0.44,0.15l-1.07 0.33c-0.04,0.01 -0.07,0.01 -0.1,0.02 -0.03,0.01 -0.06,0.02 -0.1,0.03l-2.3 0.46c-0.39,0.04 -0.88,0.07 -1.08,0.09 -0.57,0.05 -1.48,0.05 -2.04,-0.01l-1.93 -0.24c-0.39,-0.08 -0.52,-0.1 -0.87,-0.19 -0.23,-0.05 -0.55,-0.13 -0.83,-0.21l-1.23 -0.38zm-8.51 23.01c2.3,0.8 4.74,1.56 7.14,1.92 0.85,0.13 1.44,0.22 2.31,0.33 0.42,0.05 0.81,0.11 1.14,0.13 3.59,0.27 7.58,0.12 11.11,-0.44 1.44,-0.23 2.85,-0.57 4.25,-0.97 0.73,-0.21 1.28,-0.39 2.04,-0.63l5.47 -2.33c1.83,-0.82 3.38,-1.85 4.99,-2.99l4.28 -3.38c1.18,-1.21 2.63,-2.5 3.69,-3.87l4.44 -6.34c1.8,-2.93 2.96,-6.17 3.93,-9.45 0.02,-0.04 0.07,-0.24 0.08,-0.27l1.36 -8.43 0.09 -2.55c0,-10.31 -3.41,-19.01 -9.74,-26.92l-1.18 -1.37c-1.28,-1.43 -2.59,-2.63 -4.02,-3.87l-4.73 -3.41c-0.37,-0.23 -0.01,0 -0.2,-0.13 -0.19,-0.13 -0.19,-0.12 -0.43,-0.26 -0.02,-0.01 -0.05,-0.03 -0.08,-0.04l-0.87 -0.52c-0.02,-0.01 -0.05,-0.03 -0.08,-0.04l-3.08 -1.56c-0.02,-0.02 -0.05,-0.03 -0.08,-0.04 -0.02,-0.02 -0.05,-0.04 -0.08,-0.05 -0.16,-0.08 -0.37,-0.14 -0.52,-0.2l-5.75 -2.03c-0.03,-0.01 -0.26,-0.07 -0.26,-0.07l-3.23 -0.73c-4.75,-1.02 -10.32,-0.72 -14.76,-0.06 -0.45,0.06 -0.8,0.16 -1.17,0.23 -0.34,0.07 -0.68,0.14 -1.05,0.22 -0.65,0.15 -1.3,0.34 -2.02,0.53 -1.33,0.36 -2.58,0.81 -3.91,1.31 -2.12,0.8 -5.08,2.3 -6.93,3.53l-5.29 3.89c-1.69,1.45 -3.01,3.07 -4.54,4.65 -0.41,0.42 -0.8,1.1 -1.1,1.44 -0.18,0.21 -0.17,0.22 -0.31,0.4 -3.01,3.91 -5.43,8.85 -6.7,13.5 -0.38,1.4 -0.74,2.86 -0.99,4.24 -0.14,0.78 -0.22,1.55 -0.34,2.31 -0.42,2.74 -0.47,7.25 0,10.03l1.11 5.74c0.72,2.42 1.47,4.73 2.55,6.99 0.09,0.19 0.1,0.22 0.18,0.39l0.57 1.19c0.01,0.02 0.03,0.05 0.04,0.08l1.67 2.93c0.01,0.03 0.13,0.19 0.14,0.21l3.56 4.73c0.07,0.1 0.14,0.22 0.24,0.33 0.22,0.26 0.45,0.46 0.62,0.65 3.24,3.71 7.49,6.82 11.87,9.05 1.19,0.61 2.12,1.06 3.6,1.62 0.35,0.13 0.7,0.28 0.97,0.38z"/>
 </g>
</svg>
