<?xml version="1.0" encoding="UTF-8"?>
<!DOCTYPE svg PUBLIC "-//W3C//DTD SVG 1.1//EN" "http://www.w3.org/Graphics/SVG/1.1/DTD/svg11.dtd">
<!-- Creator: CorelDRAW 2019 (64-Bit) -->
<svg xmlns="http://www.w3.org/2000/svg" xml:space="preserve" width="256px" height="256px" version="1.1" style="shape-rendering:geometricPrecision; text-rendering:geometricPrecision; image-rendering:optimizeQuality; fill-rule:evenodd; clip-rule:evenodd"
viewBox="0 0 256 256"
 xmlns:xlink="http://www.w3.org/1999/xlink"
 xmlns:xodm="http://www.corel.com/coreldraw/odm/2003">
 <defs>
  <style type="text/css">
   <![CDATA[
    .fil0 {fill:black}
    .fil1 {fill:white}
   ]]>
  </style>
 </defs>
 <g id="Layer_x0020_1">
  <metadata id="CorelCorpID_0Corel-Layer"/>
  <path class="fil0" d="M86.13 205.28c0.5,-28.65 18.84,-49.84 41.87,-49.84 26.7,0 46.69,24.26 43.65,50.77 -29.21,-4.41 -56.32,-5.35 -85.52,-0.93zm43.17 -64.74l0 11.4c26.73,0.59 43.62,23.07 44.86,43.05 1.76,28.16 2.75,14.64 2.1,53.58 8.93,-1.98 41.84,-17.98 46.36,-23.7 3.4,-4.29 2.82,-21.66 2.13,-27.45 -2.84,-23.83 -7.6,-50.63 -12.44,-73.96 -3.22,-15.53 -6.85,-33.09 -11.6,-47.93 -2.81,-8.74 -9.83,-17.32 -15.92,-21.12 -24.88,-15.55 -36.21,-9.65 -37.45,-14.91 0.63,-3.04 29.92,-17.8 21.15,-33.94 -4.88,4.69 -9.2,13.89 -21.42,19.71 -10.54,5.03 -27.01,4.29 -37.5,0.39 -7.58,-2.82 -15.69,-16.99 -22.94,-19.31 -3.86,7.95 4.99,19.73 19.1,28.72 13.59,6.44 -4.63,8.1 -13.36,10.82 -4.12,1.28 -9.82,2.74 -13.54,4.36 -11.08,4.83 -19.84,12.1 -23.77,23.65 -4.9,14.39 -9.79,33.28 -12.95,48.52 -4.82,23.22 -9.08,51.16 -11.92,74.94 -0.74,6.2 -2.46,21.91 1.08,26.37 4.97,6.25 41.96,24.92 49.24,26.46 1.55,-36.77 1.82,-18.41 3.01,-53.8 4.61,-27.5 20.61,-43.73 43.14,-44.44l0 -11.41 -1.88 0c-0.19,-0.24 -0.11,-0.12 -0.55,-0.16l-6.16 -0.93c-0.24,-0.05 0.05,0.01 -0.17,-0.04l-6.14 -1.84c-1.82,-0.67 -3.19,-1.36 -4.87,-2.17l-5.17 -3.14c-2.5,-2.02 -2.9,-1.95 -6.05,-5.08l-3.19 -3.6c-0.15,-0.16 -0.18,-0.23 -0.32,-0.39l-1.95 -2.61c-0.27,-0.45 0.17,0.27 -0.13,-0.23 -0.02,-0.03 -0.07,-0.11 -0.09,-0.14l-0.51 -0.78c-0.01,-0.02 -0.03,-0.05 -0.04,-0.07 -0.08,-0.13 -0.16,-0.24 -0.28,-0.43l-1.45 -2.52c-0.3,-0.51 -0.6,-1.09 -0.89,-1.7l-1.41 -3.28c-0.01,-0.03 -0.03,-0.06 -0.04,-0.08l-0.52 -1.43c-0.01,-0.03 -0.02,-0.06 -0.03,-0.09l-0.36 -1.05c-0.01,-0.03 -0.02,-0.06 -0.03,-0.09 -0.77,-2.07 -1.4,-5.57 -1.76,-7.87l-0.19 -1.7c-0.02,-0.18 -0.03,-0.37 -0.07,-0.62 -0.01,-0.12 -0.03,-0.18 -0.06,-0.31 -0.01,-0.02 -0.04,-0.03 -0.04,-0.08 -0.01,-0.05 -0.04,-0.06 -0.05,-0.08l0 -6.46c0.13,-0.15 0.07,0.11 0.16,-0.43l0.51 -4.13c0.61,-3.56 2.23,-8.9 3.88,-12.04 2.04,-3.89 2.25,-4.25 4.55,-7.45l0.68 -0.93c0.01,-0.02 0.04,-0.05 0.05,-0.07 0.02,-0.02 0.04,-0.05 0.06,-0.07l0.48 -0.58c1.97,-2.44 4.01,-4.4 6.5,-6.5 2.67,-2.24 5.88,-4.16 8.96,-5.71 4.3,-2.16 10.72,-4.05 15.51,-4.38 0.35,-0.02 0.32,0 0.63,-0.05l0.55 -0.18 6.44 0c0.02,0.02 0.06,0.02 0.08,0.06l0.34 0.12c1.64,0.25 2.66,0.22 4.7,0.62 0.15,0.03 0.39,0.06 0.57,0.09l3.24 0.78c0.18,0.04 0.29,0.07 0.47,0.13 0.29,0.09 -0.1,-0.02 0.26,0.08l3.92 1.34c0.11,0.04 0.18,0.06 0.26,0.1l4.56 2.14c0.12,0.07 0.22,0.12 0.37,0.2l3.43 2.07c0.02,0.02 0.05,0.04 0.07,0.05l1.84 1.31c0.02,0.01 0.04,0.03 0.06,0.05l1.07 0.8c0.02,0.02 0.1,0.09 0.13,0.11 2.28,1.8 4.51,3.87 6.29,6.14l2.96 3.85c0.05,0.08 0.09,0.11 0.14,0.19l1.13 1.81c0.01,0.02 0.03,0.05 0.04,0.07 0.12,0.19 0.05,0.08 0.14,0.22l0.6 1.04c0.09,0.14 0.03,0.02 0.13,0.21 0.1,0.2 0.13,0.29 0.24,0.48 0.02,0.03 0.07,0.12 0.09,0.15 0.03,0.05 0.07,0.14 0.12,0.22l3.01 7.1c0,0.02 0.02,0.06 0.02,0.08l1.74 7.36c0.07,0.42 0.09,0.83 0.15,1.25l0.35 2.31 0 6.43c-0.01,0.03 -0.04,0.04 -0.05,0.09l-0.16 0.99c-0.05,0.42 -0.08,0.79 -0.12,1.17l-0.34 2.36c-1.01,7.06 -4.62,14.66 -8.9,20.25 -0.26,0.34 -0.35,0.45 -0.57,0.74l-1.74 2c-1.4,1.7 -2.96,2.94 -4.53,4.35 -3.21,2.89 -9.14,6.22 -13.02,7.61l-4.06 1.31c-1.35,0.39 -2.8,0.74 -4.31,0.97 -0.44,0.06 -0.65,0.11 -1.13,0.18 -0.69,0.11 -3.29,0.32 -3.58,0.51l-1.93 0zm-32.88 -43.32c0.02,0.39 0.07,0.8 0.11,1.17l0.47 2.84c0.14,0.56 0.04,0.08 0.13,0.48 0.34,1.66 0.71,2.72 2.03,3.72 0.09,0.08 0.14,0.14 0.31,0.26 1.42,1.01 3.2,1.12 4.91,0.52 0.59,-0.2 1.22,-0.57 1.59,-0.99 0.16,-0.17 0.21,-0.21 0.35,-0.36 0.05,-0.06 0.12,-0.14 0.16,-0.19l0.25 -0.34c0.15,-0.19 0.03,0 0.15,-0.2 1.26,-2.17 0.81,-3.06 0.43,-5.1l-0.27 -1.63c-0.03,-0.27 -0.08,-0.93 -0.11,-1.17 -0.04,-0.39 -0.06,-0.74 -0.07,-1.14l0.12 -2.42c0.18,-1.42 0.49,-2.83 0.89,-4.16 0.18,-0.61 0.45,-1.32 0.68,-1.93 0.26,-0.68 0.58,-1.15 0.85,-1.72l1.43 -2.32c0.19,-0.27 0.34,-0.46 0.55,-0.72 1.06,-1.37 2.41,-2.69 3.78,-3.74 0.21,-0.16 0.2,-0.17 0.4,-0.31 4.47,-3.25 6.55,-3.03 8.17,-3.88 3.08,-1.62 3.55,-5.93 1.09,-8.34 -0.2,-0.19 -0.43,-0.37 -0.7,-0.56l-2.82 -0.94c-0.26,0 -0.46,0.04 -0.69,0.07 -0.14,0.02 -0.25,0.02 -0.49,0.04 -2.79,0.16 -8.24,3.16 -10.4,4.83 -0.03,0.02 -0.11,0.09 -0.14,0.11l-0.61 0.46c-0.32,0.23 -0.39,0.28 -0.74,0.53l-1.99 1.75c-0.71,0.71 -1.84,2.19 -2.78,2.28 -0.77,0.07 -1.31,-0.25 -1.65,-0.74 -0.89,-1.32 0.32,-2.48 1.18,-3.35l3.01 -2.64c0.02,-0.01 0.05,-0.04 0.07,-0.05 2.7,-2.25 5.98,-4.02 9.23,-5.3 3.51,-1.38 7.19,-2.13 10.95,-2.36 0.16,-0.01 0.37,-0.04 0.54,-0.06 0.38,-0.02 0.77,-0.02 1.15,-0.02 1.78,-0.01 3.29,0.15 4.95,0.35 0.07,0.01 0.27,0.05 0.31,0.05l6.84 1.74c0.02,0.01 0.06,0.02 0.08,0.03l0.84 0.32c0.03,0.01 0.06,0.03 0.08,0.04l1.73 0.74c0.3,0.14 0.61,0.29 0.87,0.42l3.51 1.99c0.02,0.01 0.05,0.03 0.07,0.05l1.89 1.35c1.04,0.74 1.84,1.47 2.77,2.31 0.8,0.72 2.06,1.7 2.5,2.63 0.65,1.39 -0.47,2.86 -2.08,2.44 -0.9,-0.24 -2.49,-2.37 -3.39,-3.05l-0.89 -0.77c-0.01,-0.01 -0.04,-0.04 -0.06,-0.05l-5.07 -3.34c-0.19,-0.1 -0.19,-0.09 -0.38,-0.19 -0.23,-0.12 -0.09,-0.06 -0.39,-0.22 -0.3,-0.16 -0.54,-0.24 -0.89,-0.41l-3.66 -1.46c-0.33,-0.1 0.03,0 -0.28,-0.08l-0.76 -0.2c-0.55,-0.14 -1.57,-0.28 -2.24,-0.24 -1.33,0.08 -2.54,0.75 -3.47,1.7 -0.02,0.02 -0.04,0.05 -0.06,0.07 -0.02,0.02 -0.04,0.04 -0.06,0.06l-0.88 1.34c-0.12,0.28 -0.24,0.64 -0.32,0.99 -0.26,1.01 -0.11,2.26 0.27,3.14 0.13,0.32 0.29,0.63 0.45,0.87 1.21,1.76 3.02,2.09 4.92,2.71l2.31 0.98c0.03,0.02 0.06,0.03 0.08,0.04 0.03,0.02 0.06,0.03 0.08,0.04 0.02,0.01 0.05,0.03 0.07,0.04 0.03,0.01 0.06,0.03 0.08,0.04 0.02,0.02 0.06,0.03 0.08,0.04l0.44 0.25c0.84,0.42 1.77,1.02 2.62,1.71l1.08 0.92c1.39,1.19 2.54,2.53 3.58,4.05l0.51 0.77c0.07,0.16 0.09,0.23 0.19,0.4l0.89 1.69c0.08,0.18 0.17,0.35 0.22,0.45 0.06,0.12 0.12,0.28 0.17,0.42 0.04,0.11 0.07,0.19 0.11,0.29 0.02,0.03 0.06,0.13 0.07,0.17l0.37 1.01c0.61,1.85 0.97,3.88 1.03,5.81 0.01,0.46 0.02,0.85 0.01,1.3l-0.2 2.35c-0.19,1.33 -0.81,3.08 -0.55,4.39l1.15 2.57c0.78,1.04 2.08,1.67 3.34,1.87 0.93,0.15 1.86,-0.03 2.77,-0.37l1.2 -0.68c0.03,-0.02 0.12,-0.08 0.15,-0.1l0.69 -0.69c0.28,-0.38 0.64,-0.82 0.8,-1.3 1.69,-5.02 1.44,-11.88 0.09,-16.97l-0.81 -2.46c-0.36,-1.48 1.54,-2.59 2.7,-1.78 1,0.69 1.26,2.54 1.58,3.71l0.84 4.27c0.78,6.79 -0.18,13.78 -2.74,19.02 -1.19,2.45 -2.32,4.7 -4.03,6.83l-2.98 3.45c-3.01,3.01 -6.08,5.29 -10.14,7.18 -1.15,0.54 -6.92,2.85 -8.21,2.63 -0.8,-0.13 -1.48,-0.94 -1.43,-1.82 0.06,-1.24 1.42,-1.7 2.37,-1.98 1.92,-0.55 3.72,-1.19 5.52,-1.99 2,-0.88 4.98,-2.56 6.35,-3.82l3.69 -3.45c2.22,-2.26 1.61,-6.13 -0.85,-7.83l-0.21 -0.15c-0.47,-0.34 -1.15,-0.59 -1.69,-0.71l-2.19 -0.02c-0.04,0.01 -0.07,0.01 -0.1,0.02l-0.45 0.13c-0.79,0.26 -1.54,0.63 -2.07,1.22 -0.52,0.58 -0.97,1.23 -1.6,1.69l-1.13 0.96c-3.43,2.54 -7.61,4.25 -11.88,4.4 -3.03,0.1 -6.04,-0.37 -8.48,-1.3 -0.03,-0.02 -0.14,-0.07 -0.23,-0.11l-3.45 -1.71c-0.18,-0.12 -0.15,-0.09 -0.35,-0.22 -2.19,-1.37 -3.07,-2.58 -4.67,-4.03 -0.1,-0.09 -0.1,-0.11 -0.24,-0.21 -0.13,-0.1 -0.23,-0.15 -0.38,-0.22 -2.21,-1.09 -4.18,-0.83 -6.09,0.56 -1.56,1.13 -2.12,3.37 -1.76,5.06l0.62 1.64c0.84,1.45 4.38,4.4 5.96,5.41l3.37 2.01c0.02,0.02 0.05,0.03 0.08,0.04l1.74 0.83c0.28,0.15 0.09,0.06 0.4,0.18l4.44 1.54c0.08,0.02 0.22,0.05 0.37,0.09l0.68 0.25c0.69,0.31 1.08,0.45 1.36,1 0.54,1.07 0,2.39 -1.33,2.54 -0.68,0.08 -3.27,-0.75 -4.16,-1.04 -0.03,-0.02 -0.06,-0.02 -0.09,-0.04l-0.74 -0.25c-0.04,-0.02 -0.14,-0.06 -0.17,-0.07l-1.3 -0.5c-0.02,-0.01 -0.05,-0.03 -0.07,-0.04l-0.52 -0.2c-0.4,-0.16 -0.07,-0.03 -0.31,-0.15l-2.6 -1.27c-0.02,-0.01 -0.05,-0.03 -0.07,-0.04l-0.75 -0.42c-0.03,-0.02 -0.06,-0.03 -0.08,-0.04 -0.02,-0.02 -0.05,-0.03 -0.07,-0.05l-1.45 -0.9c-0.02,-0.01 -0.05,-0.03 -0.07,-0.05l-0.76 -0.53c-0.02,-0.01 -0.04,-0.03 -0.06,-0.05 -0.04,-0.02 -0.21,-0.15 -0.28,-0.19l-3.61 -2.94c-0.84,-0.72 -1.39,-1.46 -2.14,-2.19 -0.24,-0.23 -0.25,-0.26 -0.5,-0.59 -0.17,-0.22 -0.26,-0.28 -0.49,-0.53 -0.05,-0.07 -0.09,-0.12 -0.16,-0.21l-1.49 -2.01c-0.11,-0.15 -0.05,-0.03 -0.21,-0.25l-0.96 -1.5c-0.02,-0.02 -0.04,-0.05 -0.05,-0.07l-1.54 -2.79c-0.01,-0.02 -0.02,-0.05 -0.04,-0.08l-0.53 -1.11c-0.07,-0.16 -0.1,-0.27 -0.16,-0.41l-1.06 -2.72c-0.59,-1.87 -1.14,-3.8 -1.4,-5.75 -0.01,-0.04 -0.02,-0.15 -0.03,-0.2 0,-0.03 -0.01,-0.06 -0.01,-0.09l-0.09 -0.64c-0.04,-0.29 -0.02,-0.1 -0.06,-0.39l-0.12 -1.05c-0.04,-0.34 -0.05,-0.71 -0.07,-1.06 -0.05,-1.93 -0.03,-3.63 0.13,-5.52 0,-0.01 0.01,-0.37 0.02,-0.45l0.13 -0.94c0.34,-2.28 0.95,-4.58 1.67,-6.74 0.43,-1.29 2.27,-1.86 3.15,-0.62 0.28,0.39 0.44,1.01 0.2,1.63 -0.76,2.03 -1.27,4.4 -1.62,6.68 -0.19,1.3 -0.25,2.45 -0.25,3.84l0.11 2.48zm29.88 -2.25l1.43 -1.49 1.53 1.46 -1.44 1.44c-0.4,-0.11 -1.28,-1.05 -1.52,-1.41zm-0.94 -2.46c-0.55,-0.29 -1.03,-0.53 -1.59,-0.87 -0.56,-0.34 -0.87,-0.54 -1.5,-0.83l-1.62 -0.92c-1.33,-0.9 -0.53,1.6 -0.28,2.04l0.96 1.46c0.02,0.02 0.1,0.08 0.12,0.11l1.22 1.12c0.03,0.02 0.19,0.1 0.22,0.13 0.02,0.01 0.05,0.04 0.07,0.05 0.38,0.34 1.03,0.67 1.34,1.1l-0.67 0.5c-0.51,0.68 -1.84,1.24 -2.64,1.7 -0.41,0.24 -0.81,0.37 -1.07,0.8l1.7 0.64c1.2,0.15 2.05,-0.05 3.11,-0.4l2.51 -1 0 5.86c0.53,-0.27 1.04,-0.52 1.5,-0.97 1.15,-1.13 1.43,-4.14 1.43,-5.83l1.4 0.72c0.99,0.42 1.9,1.11 2.85,1.63 0.02,0.01 0.05,0.03 0.08,0.04 0.42,0.22 0.5,0.43 1.02,0.38l-0.38 -2.2 -1.99 -2.27c-0.2,-0.17 0.02,0 -0.17,-0.18 -0.14,-0.12 -0.07,-0.07 -0.2,-0.16 -0.37,-0.26 -0.26,-0.32 -0.56,-0.53 -0.36,-0.26 -0.7,-0.44 -0.88,-0.83l1.15 -0.73c0.37,-0.23 0.84,-0.45 1.18,-0.69 0.54,-0.38 1.93,-0.96 2.09,-1.49 -0.19,-0.16 -0.64,-0.45 -0.75,-0.51 -0.88,-0.42 -2.3,-0.44 -3.11,-0.24 -0.38,0.1 -0.56,0.16 -0.91,0.26l-1.29 0.47c-0.52,0.18 -0.7,0.46 -1.29,0.47l0 -5.74c-1.4,0 -2.17,1.38 -2.46,2.58 -0.32,1.27 -0.58,2.75 -0.59,4.33zm-10.92 -0.65c0,-0.03 0.01,-0.06 0.02,-0.09 0.01,-0.03 0.01,-0.06 0.02,-0.09l0.19 -0.75c0.01,-0.03 0.02,-0.06 0.03,-0.09l0.82 -2.1c0.49,-1.13 1.35,-2.11 2.06,-3.08 0.07,-0.09 0.07,-0.1 0.15,-0.2l1.2 -1.13c0.03,-0.02 0.11,-0.08 0.14,-0.1l1.03 -0.83c0.03,-0.02 0.05,-0.04 0.08,-0.05l0.94 -0.57c0.93,-0.55 1.97,-0.89 2.97,-1.26 0.44,-0.15 0.8,-0.23 1.31,-0.33 0.89,-0.17 2.02,-0.27 3.16,-0.25 0.6,0.02 1.14,0.07 1.62,0.13 0.34,0.05 0.5,0.08 0.79,0.14l0.69 0.14c0.2,0.05 0.48,0.16 0.72,0.23 1.36,0.4 2.66,1.02 3.91,1.91 0.74,0.53 1.15,1.03 1.77,1.66l1.39 1.77c0.56,0.71 0.96,1.59 1.32,2.39 0.2,0.45 0.33,0.78 0.49,1.28 0.1,0.27 0.1,0.39 0.17,0.63 0.29,0.9 0.61,0.06 0.61,3.64 0,2.58 -0.12,1.35 -0.45,3.13l-0.58 1.99c-0.22,0.65 -0.43,1.24 -0.8,1.77l-1.12 1.72c-0.02,0.03 -0.07,0.1 -0.09,0.13l-0.78 1.18c-0.26,0.34 -0.68,0.56 -0.94,0.83l-3.55 2.18c-2.58,1.12 -5.67,1.37 -8.48,0.82 -1.79,-0.35 -3.29,-1 -4.77,-1.92l-1.93 -1.53c-1.03,-0.94 -1.91,-2.15 -2.65,-3.34l-1.08 -2.47c-0.01,-0.03 -0.02,-0.06 -0.02,-0.09l-0.06 -0.18c-0.01,-0.03 -0.02,-0.06 -0.02,-0.09l-0.06 -0.18c-0.51,-1.63 -0.49,-3.21 -0.49,-4.89l0.27 -2.06zm-3.95 3.93c0.19,1.48 0.33,2.54 0.67,3.8 1.44,5.33 5.67,9.8 10.85,11.67l1.25 0.39c0.28,0.08 0.61,0.16 0.84,0.21 0.35,0.09 0.47,0.11 0.87,0.19l1.95 0.24c0.57,0.07 1.48,0.07 2.06,0.01 0.2,-0.02 0.69,-0.05 1.09,-0.09l2.32 -0.47c0.04,0 0.07,-0.01 0.1,-0.02 0.03,-0.01 0.06,-0.02 0.1,-0.02l1.08 -0.33c0.15,-0.05 0.34,-0.11 0.44,-0.15l1.57 -0.65c0.02,-0.01 0.05,-0.02 0.08,-0.04l1.13 -0.62c0.03,-0.01 0.05,-0.03 0.08,-0.04 0.02,-0.02 0.05,-0.04 0.07,-0.05l1.46 -1c0.02,-0.02 0.04,-0.04 0.06,-0.06 0.02,-0.02 0.04,-0.04 0.06,-0.05l0.35 -0.24c0.28,-0.23 0.03,-0.08 0.3,-0.28l0.22 -0.14c0.59,-0.42 1.44,-1.3 1.86,-1.91l1.22 -1.58c0.02,-0.02 0.03,-0.05 0.05,-0.07l1.22 -2.17c0.07,-0.17 0.04,-0.15 0.12,-0.35l0.5 -1.14c0,-0.02 0.07,-0.22 0.09,-0.26l0.49 -1.76c0.4,-1.6 0.63,-3.11 0.47,-5 -0.13,-1.43 -0.38,-2.93 -0.82,-4.3l-0.2 -0.61c-0.01,-0.03 -0.02,-0.06 -0.03,-0.09 -0.01,-0.02 -0.02,-0.05 -0.03,-0.08 -0.07,-0.18 -0.08,-0.18 -0.14,-0.34l-0.64 -1.46c-0.16,-0.31 -0.27,-0.44 -0.43,-0.74 -0.1,-0.2 -0.11,-0.21 -0.22,-0.37 -0.25,-0.34 -0.02,0.04 -0.2,-0.28 -0.76,-1.35 -1.88,-2.5 -2.94,-3.6 -0.61,-0.62 -1.77,-1.48 -2.54,-1.93 -0.98,-0.58 -1.74,-1.03 -2.89,-1.47 -4.46,-1.72 -9.83,-1.76 -14.31,0.63 -3.8,2.04 -6.8,5.05 -8.39,9.22 -0.74,1.94 -1.53,5.18 -1.24,7.4zm59.67 1.64l-1.36 8.51c-0.01,0.03 -0.07,0.22 -0.08,0.27 -0.99,3.31 -2.16,6.58 -3.97,9.53l-4.48 6.4c-1.07,1.39 -2.54,2.68 -3.73,3.9l-4.31 3.42c-1.63,1.15 -3.2,2.18 -5.04,3.02l-5.52 2.34c-0.76,0.25 -1.32,0.43 -2.06,0.64 -1.41,0.4 -2.83,0.74 -4.29,0.98 -3.56,0.57 -7.58,0.71 -11.2,0.45 -0.34,-0.03 -0.73,-0.09 -1.15,-0.14 -0.88,-0.1 -1.47,-0.2 -2.34,-0.33 -2.42,-0.37 -4.88,-1.13 -7.2,-1.94 -0.28,-0.1 -0.63,-0.25 -0.98,-0.38 -1.49,-0.56 -2.43,-1.02 -3.63,-1.63 -4.42,-2.26 -8.71,-5.39 -11.98,-9.13 -0.17,-0.2 -0.4,-0.4 -0.62,-0.66 -0.1,-0.11 -0.17,-0.24 -0.25,-0.33l-3.59 -4.78c-0.01,-0.02 -0.12,-0.18 -0.14,-0.21l-1.68 -2.96c-0.01,-0.03 -0.03,-0.06 -0.04,-0.08l-0.58 -1.2c-0.08,-0.17 -0.09,-0.2 -0.18,-0.39 -1.09,-2.28 -1.85,-4.62 -2.58,-7.05l-1.12 -5.8c-0.47,-2.8 -0.42,-7.35 0.01,-10.12 0.12,-0.77 0.2,-1.54 0.34,-2.33 0.25,-1.39 0.62,-2.87 1,-4.28 1.28,-4.68 3.72,-9.67 6.76,-13.62 0.14,-0.18 0.12,-0.19 0.31,-0.4 0.3,-0.34 0.69,-1.03 1.11,-1.45 1.54,-1.6 2.88,-3.24 4.59,-4.69l5.33 -3.94c1.87,-1.23 4.85,-2.75 6.99,-3.55 1.34,-0.5 2.61,-0.96 3.95,-1.32 0.72,-0.2 1.38,-0.39 2.04,-0.54 0.36,-0.08 0.71,-0.15 1.06,-0.22 0.37,-0.07 0.72,-0.17 1.17,-0.24 4.49,-0.66 10.1,-0.97 14.9,0.07l3.26 0.73c0,0 0.23,0.07 0.26,0.08l5.8 2.04c0.16,0.06 0.36,0.12 0.53,0.21 0.03,0.01 0.06,0.03 0.08,0.04 0.03,0.01 0.06,0.03 0.08,0.04l3.11 1.58c0.03,0.01 0.05,0.03 0.08,0.04l0.88 0.52c0.02,0.02 0.05,0.03 0.07,0.04 0.25,0.14 0.24,0.14 0.44,0.27 0.19,0.13 -0.18,-0.1 0.2,0.13l4.77 3.44c1.44,1.25 2.77,2.46 4.06,3.91l1.18 1.38c6.4,7.98 9.83,16.75 9.84,27.16l-0.1 2.57zm-70.36 -1.87c0,-1.73 0.1,-3.32 0.35,-5.05 0.26,-1.8 0.7,-3.58 1.38,-5.3 0.24,-0.62 0.37,-1.51 0.24,-2.2 -0.15,-0.76 -0.39,-1.43 -0.71,-2.02l-0.55 -0.76c-0.6,-0.73 -1.43,-1.26 -2.35,-1.57 -2.43,-0.83 -4.98,0.34 -6.14,2.41 -1.09,1.94 -1.76,5.06 -2.13,7.25l-0.25 1.73c-0.03,0.33 -0.05,0.32 -0.08,0.6 -0.55,4.85 -0.12,9.66 1.12,14.21l3.62 8.81c2.21,4.02 4.87,7.01 8,9.96l3.71 2.95c0.23,0.17 0.11,0.08 0.34,0.24 0.22,0.15 0.17,0.11 0.4,0.27 0.03,0.01 0.12,0.07 0.14,0.09l2.72 1.61c0.18,0.1 0.32,0.18 0.48,0.26l1.72 0.87c0.24,0.11 0.58,0.23 0.97,0.41l0.4 0.18c0.08,0.03 0.16,0.07 0.25,0.1l2.04 0.76c0.03,0.01 0.06,0.02 0.09,0.03l4.65 1.33c0.31,0.05 -0.02,0.02 0.27,0.05 0.86,0.09 1.63,-0.09 2.44,-0.43l1.24 -0.75c2.07,-1.8 2.69,-4.74 1.09,-6.95l-0.66 -0.8c-1.26,-1.27 -3.66,-1.7 -5.51,-2.28l-2.82 -1.14c-0.14,-0.07 -0.28,-0.12 -0.4,-0.18l-5.68 -3.59c-0.87,-0.75 -1.8,-1.43 -2.53,-2.35l-0.48 -0.58c-0.14,-0.18 -0.34,-0.67 -0.34,-1.07 -0.02,-1.42 1.71,-2.25 2.8,-1.47 0.71,0.5 1.58,1.56 2.34,2.24l1.45 1.17c0.02,0.01 0.05,0.03 0.07,0.05l1.53 1.03c0.03,0.02 0.12,0.08 0.15,0.1l0.22 0.14c0.06,0.03 0.14,0.08 0.23,0.13l1.03 0.58c0.24,0.12 0.22,0.09 0.5,0.23 0.13,0.07 0.13,0.08 0.22,0.13 0.03,0.01 0.19,0.09 0.22,0.11l5.92 1.89c0.03,0.01 0.06,0.01 0.1,0.02l0.19 0.04c0.03,0.01 0.06,0.02 0.09,0.02 3,0.52 6.2,0.45 9.13,-0.16l2.15 -0.57c2.87,-0.91 5.45,-2.2 7.85,-4.07l3.46 -3.12c0.22,-0.12 0.53,-0.31 1.03,-0.27l0.63 0.17c0.03,0.01 0.06,0.03 0.09,0.04l0.28 0.17c2.24,1.73 -1.48,4.34 -2.75,5.53l-1.47 1.09c-0.02,0.01 -0.05,0.03 -0.08,0.05l-1.34 0.88c-0.3,0.18 -0.51,0.34 -0.86,0.53l-5.3 2.31c-0.03,0.01 -0.06,0.02 -0.1,0.03l-2.15 0.64c-0.81,0.28 -1.6,0.48 -2.33,0.96 -0.56,0.35 -0.99,0.83 -1.34,1.38 -0.7,1.06 -1.07,2.23 -0.85,3.62 0.42,2.74 3.06,4.95 5.89,4.45 0.21,-0.04 0.37,-0.06 0.5,-0.1l1.57 -0.45c0.81,-0.2 1.39,-0.37 2.07,-0.6 3.43,-1.12 9.17,-3.8 12.04,-6.45l1.49 -1.2c2.66,-2.11 5.49,-5.65 7.26,-8.53 3.78,-6.16 5.94,-12.36 5.93,-20.66 0,-1.13 0,-2.21 -0.17,-3.26l-0.84 -5.4c-0.01,-0.03 -0.02,-0.06 -0.03,-0.09l-0.51 -1.94c-0.01,-0.04 -0.05,-0.21 -0.07,-0.28l-0.38 -1.14c-0.24,-0.7 -0.44,-1.33 -0.9,-1.91 -1.27,-1.63 -3.06,-2.57 -5.25,-2.24 -0.2,0.04 -0.37,0.07 -0.56,0.14l-1.21 0.56c-1.96,1.25 -3.2,3.76 -2.19,6.19 0.47,1.14 0.72,2.23 0.98,3.47 0.03,0.17 0.1,0.38 0.13,0.54 0.05,0.22 0.06,0.42 0.1,0.61 0.61,3.97 0.5,7.98 -0.47,11.85 -0.12,0.47 -0.35,0.78 -0.76,1.02l-0.52 0.19c-1.61,0.32 -2.5,-0.91 -2.1,-2.48 0.89,-3.52 0.93,-7.4 0.13,-10.96 -0.01,-0.02 -0.02,-0.05 -0.03,-0.08l-1.39 -4.32c-0.01,-0.02 -0.03,-0.05 -0.04,-0.08 -0.04,-0.1 -0.05,-0.11 -0.11,-0.24 -0.13,-0.32 -0.09,-0.24 -0.21,-0.52l-3.86 -5.85c-2.27,-2.6 -5.14,-4.72 -8.53,-6.22 -0.02,-0.02 -0.05,-0.03 -0.08,-0.04l-2.76 -0.99c-0.78,-0.23 -1.65,-0.48 -1.97,-1.08 -0.38,-0.71 -0.19,-1.42 0.16,-1.88 0.79,-1.06 1.95,-0.64 3.05,-0.42 0.26,0.05 0.35,0.07 0.58,0.14l1.29 0.49c0.28,0.13 -0.02,-0.01 0.26,0.12 0.74,0.36 1.41,0.51 2.12,0.91 0.19,0.1 0.06,0.03 0.23,0.12l4.74 3.01 4.49 4.13c0.02,0.01 0.05,0.03 0.06,0.04 0.1,0.06 0.11,0.05 0.22,0.1 1.08,0.49 2.28,0.84 3.45,0.58l0.89 -0.27c0.27,-0.09 0.59,-0.26 0.87,-0.42 0.95,-0.56 1.26,-0.97 1.73,-1.77 0.17,-0.3 0.31,-0.58 0.42,-0.87 0.21,-0.56 0.37,-1.19 0.37,-1.96 0.01,-0.46 -0.03,-0.5 -0.15,-0.99 -0.17,-0.69 -0.46,-1.51 -0.91,-2.02 -0.12,-0.14 -0.24,-0.27 -0.37,-0.41 -0.44,-0.54 -0.68,-0.77 -1.15,-1.23l-3.8 -3.36c-0.14,-0.11 -0.23,-0.2 -0.35,-0.28l-2.87 -1.95c-0.18,-0.11 -0.16,-0.11 -0.34,-0.22 -0.2,-0.12 -0.59,-0.37 -0.79,-0.48 -1.89,-1.06 -3.81,-1.92 -5.79,-2.7 -3.5,-1.38 -7.33,-2.22 -11.1,-2.38 -0.39,-0.02 -0.75,-0.04 -1.14,-0.05 -5.67,-0.17 -11.27,0.96 -16.48,3.14 -0.16,0.07 -0.1,0.04 -0.24,0.1l-0.43 0.19c-0.05,0.02 -0.23,0.12 -0.23,0.12 -1.8,0.87 -3.55,1.84 -5.26,2.93l-3.52 2.66c-0.19,0.14 -0.19,0.13 -0.34,0.27l-2.17 2.04c-0.73,0.74 -1.5,1.48 -2,2.44l-0.54 1.7c-0.38,2.25 1.15,4.44 2.95,5.32l1.44 0.45 1.66 0.01c2.22,-0.54 2.69,-1.4 4.22,-2.89l0.88 -0.88c0.11,-0.09 0.3,-0.18 0.42,-0.27l0.61 -0.56c1.2,-0.81 2.35,-1.77 3.6,-2.52 1.37,-0.83 6.17,-3.3 7.85,-2.76l0.78 0.52c0.42,0.49 0.56,1.15 0.34,1.79 -0.41,1.23 -2.59,1.39 -3.65,1.81l-5.17 2.9c-0.02,0.02 -0.04,0.04 -0.06,0.05l-5.05 4.69c-0.17,0.23 -0.14,0.19 -0.3,0.39l-1.51 2.12c-0.79,1.21 -1.42,2.69 -1.99,4.02l-0.18 0.48c-0.01,0.03 -0.02,0.06 -0.03,0.09l-0.15 0.43c-2.72,8.07 -0.4,13.17 -0.53,14.58 -0.03,0.37 -0.12,0.67 -0.29,0.89 -0.71,0.88 -2.22,0.94 -2.93,-0.06l-0.35 -0.99c-0.45,-1.88 -0.81,-3.88 -0.81,-5.81zm54.25 -56.71c16.77,-12.09 26.2,-26.49 14.54,-38.85 -5.65,7.46 -17.94,20.62 -22.2,22.76 -6.45,3.23 -28.63,4.55 -36.53,-0.6 -2.43,-1.59 -18.06,-19.69 -23.81,-21.11 -9.48,13.9 -1.47,21.46 14.63,36.65 -0.76,0.59 -5.72,1.78 -7.44,2.51 -0.41,0.17 -0.86,0.27 -1.29,0.4l-7.2 2.39c-15.76,5.8 -28.89,13.95 -34.05,29.45 -8.88,26.72 -26.94,118.05 -26.26,145.31 0.22,8.52 4.25,12.74 8.97,16.12 8.62,6.15 44.4,26.71 50.79,21.19 2.46,-2.12 1.41,-6.4 1.23,-9.89 -0.2,-4 0.27,-8.35 0.35,-12.36 0.13,-7.56 0.01,-15.31 0.71,-22.8 19.13,-5.26 66.79,-4.1 86.07,0.92 0.8,9.84 0.32,24.61 -0.23,34.69 -0.43,7.82 -1.37,12.16 12.18,7.44 16.16,-5.63 25.13,-9.92 38.57,-19.53 6.14,-4.4 8.43,-9.08 8.49,-16.56 0.24,-27.99 -14.65,-98.89 -21.07,-125.81 -1.52,-6.38 -3.3,-13.22 -5.41,-19.32 -5.21,-15.11 -18.67,-23.45 -34.12,-28.99 -2.22,-0.79 -15.88,-3.13 -16.92,-4.01z"/>
  <rect class="fil1" width="256" height="256"/>
 </g>
</svg>
