<?xml version="1.0" encoding="UTF-8"?>
<!DOCTYPE svg PUBLIC "-//W3C//DTD SVG 1.1//EN" "http://www.w3.org/Graphics/SVG/1.1/DTD/svg11.dtd">
<!-- Creator: CorelDRAW 2019 (64-Bit) -->
<svg xmlns="http://www.w3.org/2000/svg" xml:space="preserve" width="256px" height="256px" version="1.1" style="shape-rendering:geometricPrecision; text-rendering:geometricPrecision; image-rendering:optimizeQuality; fill-rule:evenodd; clip-rule:evenodd"
viewBox="0 0 256 256"
 xmlns:xlink="http://www.w3.org/1999/xlink"
 xmlns:xodm="http://www.corel.com/coreldraw/odm/2003">
 <defs>
  <style type="text/css">
   <![CDATA[
    .fil0 {fill:white}
   ]]>
  </style>
 </defs>
 <g id="Layer_x0020_1">
  <metadata id="CorelCorpID_0Corel-Layer"/>
  <path class="fil0" d="M183 75.19c4.87,2.7 5.08,9.81 0.74,12.99 -1.41,1.17 -3.22,1.89 -5.2,1.89 -4.48,0 -8.11,-3.63 -8.11,-8.11 0,-4.48 3.63,-8.11 8.11,-8.11 1.65,0 3.18,0.49 4.46,1.34zm-168.41 93.36l0.09 0 0 -5.77 -0.09 0c-3.17,0 -5.76,-4.74 -5.76,-10.54l0 -11.86c0,-5.8 2.59,-10.54 5.76,-10.54l0.09 0 0 -6.59 -0.09 0c-3.17,0 -5.76,-4.74 -5.76,-10.54l0 -11.86c0,-5.8 2.59,-10.54 5.76,-10.54l0.09 0 0 -7.41 -0.09 0c-3.17,0 -5.76,-4.75 -5.76,-10.54l0 -11.86c0,-5.81 2.59,-10.55 5.76,-10.55l0.09 0 0 -6.59 -0.09 0c-3.17,0 -5.76,-4.74 -5.76,-10.54l0 -11.86c0,-5.8 2.59,-10.54 5.76,-10.54l57.39 0c3.17,0 5.76,4.75 5.76,10.54l0 11.86c0,5.58 -2.39,10.18 -5.4,10.52l0 6.64c3.01,0.34 5.4,4.94 5.4,10.52l0 11.86c0,5.57 -2.39,10.17 -5.4,10.51l0 7.46c3.01,0.35 5.4,4.95 5.4,10.52l0 11.86c0,5.58 -2.39,10.18 -5.4,10.52l0 6.63c3.01,0.35 5.4,4.95 5.4,10.52l0 11.86c0,5.58 -2.39,10.18 -5.4,10.52l0 5.81c3.01,0.35 5.4,4.95 5.4,10.52l0 11.86c0,5.58 -2.39,10.18 -5.4,10.52l0 6.64c3.01,0.34 5.4,4.94 5.4,10.51l0 11.86c0,5.8 -2.59,10.55 -5.76,10.55l-57.39 0c-3.17,0 -5.76,-4.75 -5.76,-10.55l0 -11.86c0,-5.8 2.59,-10.54 5.76,-10.54l0.09 0 0 -6.59 -0.09 0c-3.17,0 -5.76,-4.74 -5.76,-10.54l0 -11.86c0,-5.8 2.59,-10.54 5.76,-10.54zm46.94 46.12c2.98,0 5.4,4.43 5.4,9.88 0,5.46 -2.42,9.88 -5.4,9.88 -2.99,0 -5.41,-4.42 -5.41,-9.88 0,-5.45 2.42,-9.88 5.41,-9.88zm0 -39.53c2.98,0 5.4,4.42 5.4,9.88 0,5.45 -2.42,9.88 -5.4,9.88 -2.99,0 -5.41,-4.43 -5.41,-9.88 0,-5.46 2.42,-9.88 5.41,-9.88zm0 -38.71c2.98,0 5.4,4.43 5.4,9.88 0,5.46 -2.42,9.88 -5.4,9.88 -2.99,0 -5.41,-4.42 -5.41,-9.88 0,-5.45 2.42,-9.88 5.41,-9.88zm0 -40.36c2.98,0 5.4,4.43 5.4,9.89 0,5.45 -2.42,9.88 -5.4,9.88 -2.99,0 -5.41,-4.43 -5.41,-9.88 0,-5.46 2.42,-9.89 5.41,-9.89zm0 -38.7c2.98,0 5.4,4.42 5.4,9.88 0,5.45 -2.42,9.88 -5.4,9.88 -2.99,0 -5.41,-4.43 -5.41,-9.88 0,-5.46 2.42,-9.88 5.41,-9.88zm0 -41.18c2.98,0 5.4,4.42 5.4,9.88 0,5.45 -2.42,9.88 -5.4,9.88 -2.99,0 -5.41,-4.43 -5.41,-9.88 0,-5.46 2.42,-9.88 5.41,-9.88zm-41.89 152.36l47.74 0 0 -5.77 -47.74 0 0 5.77zm47.74 32.94l-47.74 0 0 6.59 47.74 0 0 -6.59zm-47.74 -111.18l47.74 0 0 -7.41 -47.74 0 0 7.41zm47.74 32.94l-47.74 0 0 6.59 47.74 0 0 -6.59zm0 -79.89l-47.74 0 0 6.59 47.74 0 0 -6.59zm188.62 -38.36l0 246c0,2.75 -2.25,5 -5,5l-246 0c-2.75,0 -5,-2.25 -5,-5l0 -246c0,-2.75 2.25,-5 5,-5l246 0c2.75,0 5,2.25 5,5zm-2.76 2.66l0 240.68c0,2.7 -2.2,4.9 -4.9,4.9l-240.68 0c-2.7,0 -4.9,-2.2 -4.9,-4.9l0 -240.68c0,-2.7 2.2,-4.9 4.9,-4.9l240.68 0c2.7,0 4.9,2.2 4.9,4.9zm-10.05 235.74l0 -230.8c0,-2.75 -2.25,-5 -5,-5l-148.99 0c-2.75,0 -5,2.25 -5,5l0 230.8c0,2.75 2.25,5 5,5l148.99 0c2.75,0 5,-2.25 5,-5zm-2.74 -2.93l0 -224.94c0,-2.66 -2.17,-4.83 -4.83,-4.83l-143.86 0c-2.65,0 -4.83,2.17 -4.83,4.83l0 224.94c0,2.66 2.18,4.83 4.83,4.83l143.86 0c2.66,0 4.83,-2.17 4.83,-4.83zm-6.12 -59.4c-3.35,2.37 -7.82,1.97 -10.65,-0.74l-16.09 11.37 0.09 0.14c2.03,3.83 8.34,14.33 8.34,18.75 0,6.8 -5.62,13.55 -13.54,13.55 -19.64,0 -21.46,-46.94 -39.44,-46.29 -7.31,0.27 -9.2,4.86 -11.62,9.81l-11.11 21.19c-1.41,2.63 -2.24,4.63 -3.43,6.99 -7.89,15.63 -26.08,6.73 -26.08,-5.25 0,-3.18 9.81,-22.12 11.9,-25.6 11.83,-19.76 22.89,-40.21 -6.85,-41.04l-13.58 28.33c2.95,2.38 3.99,6.58 2.27,10.18 -2.01,4.19 -7,5.99 -11.16,4 -4.16,-1.99 -5.9,-7 -3.9,-11.2 1.77,-3.7 5.87,-5.54 9.67,-4.55l12.9 -26.93c-5.37,-0.21 -11.11,0.72 -15.47,-2.31 -8.55,-5.95 -9.02,-24.51 13.13,-24.68 10.4,-0.08 20.89,0.04 31.3,0.04 -1.93,-2.64 -3.92,-2.9 -6.44,-6.06 -10.55,-13.27 -10.45,-23.27 -7.12,-37.63l-20.67 0c-0.87,3.68 -4.21,6.43 -8.2,6.43 -4.65,0 -8.42,-3.73 -8.42,-8.34 0,-4.61 3.77,-8.35 8.42,-8.35 4.1,0 7.52,2.91 8.27,6.76l21.95 0c10.37,-23.52 40.98,-29 60.32,-12l12.18 -12.83c-2.07,-3.17 -1.76,-7.48 0.98,-10.38 3.21,-3.37 8.52,-3.53 11.86,-0.36 3.34,3.18 3.45,8.48 0.25,11.86 -2.83,2.97 -7.29,3.45 -10.6,1.34l-12.24 12.89c8.28,9.01 9.69,15.43 9.86,27.37l16.49 4.43c1.8,-3.33 5.74,-5.12 9.59,-4.09 4.5,1.21 7.17,5.8 5.97,10.25 -1.19,4.45 -5.8,7.08 -10.3,5.87 -3.96,-1.06 -6.51,-4.76 -6.23,-8.67l-15.58 -4.18c-3.07,13.01 -6.93,18.2 -15.54,25.69 21.54,0 50,-5 50,14.59 0,13.63 -15.66,12.54 -21.88,12.5 -34.28,-0.23 -20.05,26.71 -8.26,44.86l16.05 -11.34c-1.42,-3.52 -0.28,-7.69 2.98,-10 3.8,-2.68 9.04,-1.81 11.7,1.95 2.66,3.77 1.73,9 -2.07,11.68zm-94.36 -100.7l6.25 0 0 -6.25 3.13 0 0 6.25 6.25 0 0 3.12 -6.25 0 0 6.25 -3.13 0 0 -6.25 0 0 -6.25 0 0 -3.12z"/>
 </g>
</svg>
