<?xml version="1.0" encoding="UTF-8" standalone="no"?>
<!-- Created with Inkscape (http://www.inkscape.org/) -->

<svg
   xmlns:dc="http://purl.org/dc/elements/1.1/"
   xmlns:cc="http://creativecommons.org/ns#"
   xmlns:rdf="http://www.w3.org/1999/02/22-rdf-syntax-ns#"
   xmlns:svg="http://www.w3.org/2000/svg"
   xmlns="http://www.w3.org/2000/svg"
   xmlns:sodipodi="http://sodipodi.sourceforge.net/DTD/sodipodi-0.dtd"
   xmlns:inkscape="http://www.inkscape.org/namespaces/inkscape"
   version="1.1"
   id="svg3817"
   width="512"
   height="512"
   viewBox="0 0 512 512"
   sodipodi:docname="ECM.svg"
   inkscape:version="0.92.4 (5da689c313, 2019-01-14)">
  <metadata
     id="metadata3823">
    <rdf:RDF>
      <cc:Work
         rdf:about="">
        <dc:format>image/svg+xml</dc:format>
        <dc:type
           rdf:resource="http://purl.org/dc/dcmitype/StillImage" />
        <dc:title></dc:title>
      </cc:Work>
    </rdf:RDF>
  </metadata>
  <defs
     id="defs3821" />
  <sodipodi:namedview
     pagecolor="#ffffff"
     bordercolor="#666666"
     borderopacity="1"
     objecttolerance="10"
     gridtolerance="10"
     guidetolerance="10"
     inkscape:pageopacity="0"
     inkscape:pageshadow="2"
     inkscape:window-width="1920"
     inkscape:window-height="1017"
     id="namedview3819"
     showgrid="false"
     inkscape:pagecheckerboard="true"
     inkscape:zoom="0.43212893"
     inkscape:cx="461.74008"
     inkscape:cy="258.47133"
     inkscape:window-x="-8"
     inkscape:window-y="-8"
     inkscape:window-maximized="1"
     inkscape:current-layer="svg3817" />
  <g
     id="g3835"
     transform="matrix(1.2802298,0,0,1.0115471,-71.010089,-16.312344)">
    <path
       style="display:inline;fill:#fefefe;stroke-width:1.0666666"
       d="m 251.21112,520.99327 c -39.76437,-5.31597 -71.40509,-15.27308 -87.59907,-27.56679 -7.88634,-5.98696 -11.04064,-10.67915 -13.22081,-19.66672 l -1.72061,-7.09312 -7.40199,-0.8049 c -18.27504,-1.98724 -28.89443,-4.16233 -37.16756,-7.61275 -18.11487,-7.55504 -21.202679,-9.01003 -22.088772,-10.40831 -1.215094,-1.91745 -1.189153,-3.3171 0.04732,-2.55293 1.667656,1.03068 2.283216,-1.2152 1.15,-4.19579 -0.589766,-1.5512 -1.553199,-2.52314 -2.140964,-2.15989 -0.634944,0.39242 -1.068666,-0.83394 -1.068666,-3.02169 0,-2.28904 0.605348,-3.91446 1.6,-4.29615 2.031522,-0.77956 2.106405,-4.94759 0.08889,-4.94759 -0.831111,0 -1.753216,0.6 -2.049122,1.33333 -0.295908,0.73334 -0.575908,-15.55833 -0.622223,-36.20371 -0.07578,-33.77949 0.478809,-42.22699 2.437208,-37.12349 0.336395,0.87663 1.106692,1.59387 1.711771,1.59387 1.863272,0 1.219049,-3.08109 -1.136806,-5.43694 -2.130614,-2.13062 -2.219348,-3.11518 -1.866666,-20.712 0.344226,-17.17496 0.539171,-18.70338 2.770282,-21.71986 2.791439,-3.77403 2.925321,-4.39786 0.94385,-4.39786 -0.800883,0 -2.719647,-0.99387 -4.26392,-2.20859 -2.248281,-1.7685 -2.595767,-2.60472 -1.743848,-4.19654 0.639546,-1.19501 1.063919,-14.73668 1.063919,-33.94956 v -31.96162 l -9.706542,-12.44641 c -5.338598,-6.84553 -9.835521,-12.29435 -9.993164,-12.1085 -0.157642,0.18584 -0.593188,15.21789 -0.96788,33.40456 l -0.681259,33.06666 9.135671,11.5832 c 5.024618,6.37075 8.903724,11.81514 8.620234,12.09863 -0.283491,0.28349 -4.859513,-4.92894 -10.168938,-11.58319 l -9.653501,-12.09864 -0.02564,-36.35099 -0.02564,-36.35101 5.066667,-2.33251 c 2.786666,-1.28288 9.626666,-3.91304 15.199999,-5.8448 l 10.133332,-3.5123 0.727219,-11.67086 c 1.820082,-29.20984 13.301161,-52.91867 29.669899,-61.26938 6.88796,-3.51397 15.84664,-5.3348 26.24785,-5.3348 h 9.79677 l 3.39852,-10.58444 c 4.7799,-14.886597 11.87294,-25.954344 25.01924,-39.039145 19.52071,-19.429392 45.00086,-33.338233 75.0818,-40.984873 18.71631,-4.757725 66.05914,-5.689377 84.99202,-1.672545 21.42854,4.546317 46.2225,14.871322 63.1648,26.303862 20.72889,13.987717 39.74357,38.116067 44.6439,56.650131 0.81343,3.07652 1.96651,12.55367 2.56244,21.06034 0.99708,14.23316 3.27893,115.85388 3.18556,141.86666 -0.0373,10.39234 -0.14499,10.95924 -1.49312,7.86138 -1.79912,-4.13412 -2.95828,-4.87472 -7.62984,-4.87472 -4.69877,0 -6.57381,1.59428 -9.65974,8.21334 -2.93778,6.3013 -3.33204,14.88122 -0.84686,18.42932 2.00874,2.86787 6.8294,3.14723 10.68743,0.61936 2.94785,-1.93151 7.80155,-9.54356 8.12497,-12.7424 0.15909,-1.57337 1.74414,75.83353 1.8551,90.59427 0.0277,3.6926 -2.41519,8.7444 -6.16692,12.7526 -2.72874,2.9153 -2.81254,3.43376 -3.51433,21.74364 -0.55358,14.44276 -1.15056,19.7143 -2.59546,22.91849 -1.79418,3.97882 -1.79282,4.33515 0.0312,8.12303 1.52947,3.17628 2.01194,7.66231 2.43361,22.62834 l 0.52595,18.66667 -6.03565,6.6208 c -15.27392,16.75469 -46.10102,28.31368 -90.73967,34.02392 -18.77753,2.40205 -82.46927,2.97451 -98.12219,0.88191 z m 30.6392,-1.9664 c 1.31534,-1.94739 0.9159,-15.02043 -0.517,-16.92081 -0.73334,-0.97258 -3.39149,-2.08857 -5.90702,-2.47999 l -4.57368,-0.71166 0.30701,10.49698 c 0.29842,10.20296 0.38172,10.51524 2.97369,11.14856 3.16194,0.77257 6.62425,0.0847 7.717,-1.53308 z m 15.10355,-1.9297 c 0.9642,-4.82101 0.78192,-11.0011 -0.41753,-14.15591 -0.95013,-2.49902 -1.54777,-2.76256 -5.6,-2.46944 l -4.53636,0.32815 v 9.55191 c 0,9.30707 0.0684,9.5683 2.66667,10.19135 4.71356,1.13027 7.1882,0.0491 7.88722,-3.44606 z m 22.16126,3.38909 c 21.46092,-1.46171 50.36374,-5.6145 67.16305,-9.65009 l 13.47821,-3.23778 0.76013,-10.13866 c 0.41807,-5.57625 0.53606,-10.3627 0.26221,-10.63656 -0.27385,-0.27386 -6.2011,0.93578 -13.17167,2.68806 -20.72645,5.2103 -39.64791,7.93754 -69.74041,10.05205 l -17.6,1.23669 -0.30529,10.4 c -0.25056,8.53553 -0.0268,10.4 1.24848,10.4 0.85457,0 8.91194,-0.50118 17.90529,-1.11371 z m -52.66181,-2.29962 c 0.77099,-0.771 1.28,-4.50371 1.28,-9.38667 0,-8.55768 -0.94905,-10.66667 -4.8,-10.66667 -3.85096,0 -4.8,2.10899 -4.8,10.66667 0,8.55767 0.94904,10.66666 4.8,10.66666 1.232,0 2.816,-0.576 3.52,-1.27999 z m -11.73236,-7.76436 c 0.42192,-9.7855 -0.20002,-11.8522 -3.96121,-13.16336 -5.4062,-1.8846 -7.02643,0.35008 -7.02643,9.69112 0,9.57219 1.29681,11.70202 6.84204,11.23719 l 3.82462,-0.32059 z m -13.74011,5.4144 c 0.78722,-0.94853 1.12802,-4.74582 0.93061,-10.36908 l -0.31147,-8.87247 -4.62936,-0.91267 c -2.54613,-0.50198 -4.9067,-0.63533 -5.24567,-0.29635 -1.15313,1.15313 -1.53861,11.79943 -0.56292,15.54719 1.36072,5.22671 7.15077,8.11818 9.81881,4.90338 z m -12.93922,-9.2693 c 0.16958,-4.44186 -0.19011,-9.38709 -0.79931,-10.98939 -0.93619,-2.46237 -1.63906,-2.86154 -4.5411,-2.57899 -3.00161,0.29226 -3.55306,0.84331 -4.38439,4.38118 -0.52302,2.22578 -0.62745,6.63606 -0.23205,9.80061 0.62038,4.96539 1.1114,5.89908 3.58371,6.81452 5.45264,2.01901 6.03857,1.3361 6.37314,-7.42793 z m -11.73017,-4.00413 c 0.34784,-9.9428 -0.50975,-11.89661 -5.22176,-11.89661 -3.81912,0 -4.65911,2.70899 -3.87376,12.49291 0.59897,7.46187 1.72283,9.03877 6.11738,8.58341 2.58098,-0.26745 2.67667,-0.56242 2.97814,-9.17971 z m 201.51875,-2.96056 c 9.71083,-4.60231 19.54459,-13.56138 23.29146,-21.2197 1.68249,-3.43889 3.04492,-8.41826 3.40816,-12.45607 l 0.60515,-6.72695 -4.70084,4.04809 c -7.21073,6.20946 -22.06908,15.8292 -28.46331,18.42802 -3.15688,1.28305 -6.21554,2.80857 -6.79702,3.39006 -1.22955,1.22954 -1.59654,16.42212 -0.44182,18.29049 0.96964,1.56891 3.24005,0.91821 13.09822,-3.75394 z M 296.8912,496.3532 c 0.39239,-0.3924 -0.10666,-1.61959 -1.1089,-2.7271 -1.36533,-1.50866 -1.93282,-4.53982 -2.26289,-12.08657 l -0.44056,-10.07289 h -6.8061 -6.8061 v 10.05591 c 0,9.41897 -0.16661,10.18698 -2.6305,12.12506 -1.44677,1.13803 -2.32677,2.37287 -1.95555,2.74409 0.90404,0.90405 21.10338,0.86871 22.0106,-0.0385 z m 45.99555,-1.07227 6.35344,-0.67298 -4.74017,-1.39961 c -6.6314,-1.95802 -7.43337,-3.52012 -7.43337,-14.47891 v -9.39613 h -4.02933 c -6.88228,0 -8.35247,1.87715 -9.1041,11.62424 -0.36181,4.69175 -1.39809,10.30216 -2.30286,12.46757 l -1.64502,3.93711 8.27399,-0.70416 c 4.55069,-0.38727 11.13303,-1.00699 14.62742,-1.37713 z m -91.2149,-8.61429 c -0.0942,-12.66763 -1.05293,-16.53851 -4.50613,-18.19358 -1.61337,-0.77328 -3.88568,-1.10371 -5.04956,-0.7343 -1.86651,0.5924 -2.11811,1.63844 -2.13251,8.86643 -0.009,4.50712 -0.41513,8.82361 -0.90256,9.59219 -0.48741,0.76857 -3.00006,2.03909 -5.58365,2.82337 -2.99568,0.90936 -4.11782,1.65687 -3.09745,2.06339 2.67319,1.06499 15.27557,3.62798 18.39999,3.74206 l 2.93334,0.1071 -0.0614,-8.26666 z m 56.38471,6.9198 c 0.61478,-0.74076 1.28578,-3.26076 1.4911,-5.6 l 0.37331,-4.25314 1.06757,4.8 c 0.93718,4.2138 1.44851,4.84375 4.1869,5.15818 4.4381,0.5096 5.89403,-2.07412 5.87665,-10.42871 -0.0217,-10.4067 -0.60393,-11.79613 -4.94333,-11.79613 -2.00332,0 -3.82724,0.6 -4.05316,1.33333 -0.22592,0.73333 -0.78022,2.77333 -1.23176,4.53333 l -0.82098,3.2 -0.60144,-4.26666 c -0.517,-3.66763 -1.00805,-4.31355 -3.49757,-4.6006 -2.34998,-0.27095 -3.02567,0.18223 -3.58309,2.40316 -1.2249,4.88037 -0.0355,18.73534 1.70265,19.83448 2.09809,1.32673 2.70864,1.27871 4.03315,-0.31724 z m -32.58991,-3.09211 c 1.33842,-1.57554 1.86667,-4.0588 1.86667,-8.77519 0,-7.96559 -1.78439,-10.95693 -7.13474,-11.96066 -5.49583,-1.03102 -6.73193,1.09567 -6.73193,11.58215 0,10.93036 1.04582,12.95306 6.22517,12.04001 2.1495,-0.37892 4.74816,-1.67776 5.77483,-2.88631 z m 99.93148,-0.41064 c 10.48577,-2.47156 12.71124,-5.12804 5.14608,-6.14275 -5.39325,-0.72338 -8.27757,-3.76388 -8.27757,-8.7258 0,-8.74044 -2.69539,-12.9442 -5.24502,-8.18018 -1.28468,2.40047 -2.76792,20.66954 -1.86844,23.01359 0.79324,2.06712 1.61221,2.06993 10.24495,0.0351 z M 354.9712,479.36202 c 0.32986,-10.51118 -0.75427,-13.00944 -5.05337,-11.64496 -1.99452,0.63303 -2.18452,1.55295 -2.18452,10.57701 0,5.43602 0.34204,10.22572 0.76009,10.64376 0.41803,0.41804 1.97803,0.61804 3.46666,0.44444 2.65039,-0.30908 2.71291,-0.51713 3.01114,-10.02025 z m 7.23376,6.49782 c 0.85692,-4.56773 0.17888,-18.23157 -0.96128,-19.37172 -1.7079,-1.7079 -2.81156,2.59555 -2.82737,11.02461 -0.0166,8.86981 0.56439,12.08724 2.18279,12.08724 0.49732,0 1.21995,-1.68306 1.60586,-3.74013 z m -149.93831,-1.52376 c 0,-1.72182 -0.48037,-4.39404 -1.06749,-5.93829 -0.87162,-2.29254 -1.50772,-2.66528 -3.46667,-2.03138 -1.31954,0.42699 -6.71917,1.35021 -11.99917,2.0516 -5.28,0.70138 -8.88,1.58317 -8,1.95952 5.17927,2.215 20.10329,6.94088 22.13333,7.00881 1.96197,0.0656 2.4,-0.49107 2.4,-3.05026 z m 14.79389,0.19111 c 1.14982,-2.14846 0.33752,-15.86778 -1.10486,-18.66055 -1.20173,-2.32681 -4.70759,-2.43964 -5.5749,-0.17943 -1.06588,2.77764 -0.73155,16.42922 0.45673,18.64955 1.37766,2.57416 4.88978,2.68163 6.22303,0.19043 z m 7.82975,-3.44054 c 0.44706,-2.61885 0.44852,-6.9347 0.003,-9.59077 -0.64147,-3.82622 -1.24758,-4.82924 -2.91824,-4.82924 -1.89618,0 -2.14032,0.8502 -2.42325,8.43905 -0.36046,9.66789 0.10528,11.59374 2.68346,11.09722 1.25591,-0.24186 2.10057,-1.86967 2.65481,-5.11626 z m -75.18534,-7.75335 c -0.23662,-1.90666 -0.43022,-0.34666 -0.43022,3.46667 0,3.81333 0.1936,5.37333 0.43022,3.46667 0.23661,-1.90667 0.23661,-5.02667 0,-6.93334 z m 233.42858,7.6251 c 1.0788,-1.74551 2.65701,-17.19873 1.97705,-19.35843 -0.93959,-2.98433 -5.63085,-2.39064 -6.87034,0.86944 -1.17926,3.10169 -1.36814,11.35787 -0.3736,16.33056 0.67793,3.38968 3.73233,4.6414 5.26689,2.15843 z m 23.57945,-4.65153 c 18.20454,-9.18043 26.06862,-17.47788 26.21323,-27.6578 0.15093,-10.62407 -3.6312,-12.2099 -4.62666,-1.93995 -0.74768,7.71369 -1.66426,9.05647 -7.34322,10.75793 -3.17583,0.9515 -4.40821,1.9517 -4.81267,3.90597 -0.29902,1.44482 -0.78935,3.8131 -1.08962,5.26283 -0.7908,3.81822 -4.21916,5.28545 -13.77002,5.89317 -8.09907,0.51534 -8.4901,0.66066 -9.43395,3.50614 -1.15947,3.49552 -0.40714,6.09814 1.76276,6.09814 0.85056,0 6.74563,-2.62189 13.10015,-5.82643 z m -235.37966,-2.10413 c 0,-5.36027 -1.80822,-7.91784 -6.08512,-8.60684 -7.67689,-1.23675 -8.90969,-1.65741 -11.00868,-3.7564 -1.44063,-1.44063 -2.1062,-3.54801 -2.1062,-6.66885 0,-2.50947 -0.68579,-5.54178 -1.52399,-6.73846 -0.83819,-1.1967 -1.67819,-4.0264 -1.86666,-6.28823 -0.43276,-5.19347 -2.3027,-5.89182 -4.10772,-1.53408 -4.68543,11.31163 1.37946,22.00618 18.64054,32.86984 6.35428,3.99921 8.05783,4.15207 8.05783,0.72302 z m 19.95758,-0.60277 c 1.85874,-3.68713 1.71055,-10.78066 -0.28473,-13.62932 -1.92936,-2.75455 -5.28909,-3.12339 -6.22539,-0.68344 -0.85003,2.21513 -0.83445,13.651 0.0216,15.88191 0.9705,2.52909 4.90176,1.57837 6.48848,-1.56915 z m 6.70909,-6.4 c 0,-1.69075 -0.48,-3.37075 -1.06667,-3.73333 -0.64515,-0.39873 -1.06667,1.07657 -1.06667,3.73333 0,2.65676 0.42152,4.13207 1.06667,3.73333 0.58667,-0.36258 1.06667,-2.04258 1.06667,-3.73333 z m 213.59998,1.41568 c 0.84841,-0.50365 1.14718,-19.54901 0.30668,-19.54901 -2.41097,0 -12.54654,4.8551 -13.3777,6.40815 -0.58427,1.09171 -1.06231,4.94361 -1.06231,8.5598 v 6.57484 l 6.66667,-0.75943 c 3.66666,-0.41769 7.02666,-0.97315 7.46666,-1.23435 z m -154.09601,-11.28234 -0.30398,-10.93334 -3.62148,-0.34579 c -2.17797,-0.20797 -3.97842,0.21721 -4.51699,1.06667 -1.15225,1.81736 -1.1689,15.91488 -0.0209,17.72437 0.74618,1.17619 5.15009,3.02534 7.93006,3.32974 0.46052,0.0505 0.70052,-4.82832 0.53333,-10.84165 z m 13.88269,9.65333 c 1.9861,-1.9861 1.67743,-16.30352 -0.39619,-18.37714 -1.93431,-1.93431 -5.03401,-2.15611 -7.99393,-0.572 -1.7679,0.94615 -2.06321,2.28972 -2.06321,9.38666 0,9.23559 0.86946,10.84248 5.86666,10.84248 1.81867,0 3.88267,-0.576 4.58667,-1.28 z m 15.17307,-1.45611 c 1.18253,-3.11031 1.35139,-9.30825 0.3852,-14.13921 -0.49811,-2.49057 -1.37761,-3.43401 -3.67077,-3.93767 -1.65864,-0.3643 -4.00386,-0.13353 -5.21161,0.51284 -1.94592,1.04142 -2.19589,2.18284 -2.19589,10.02657 0,4.86825 0.32,9.17136 0.71111,9.56246 0.39111,0.39112 2.56299,0.71112 4.8264,0.71112 3.43601,0 4.287,-0.45163 5.15556,-2.73611 z m 48.01627,0.1154 c 22.39346,-2.63475 49.29434,-8.52044 53.60782,-11.72894 1.05444,-0.78432 2.01444,-2.79652 2.13333,-4.47153 l 0.21617,-3.04549 -12.26667,-0.60226 c -6.74666,-0.33125 -14.49058,-1.21411 -17.2087,-1.96192 -4.13917,-1.13876 -7.69155,-1.06316 -21.86667,0.46537 -9.30854,1.00375 -24.12462,2.12661 -32.92462,2.49524 l -16,0.67024 -0.30733,10.5683 -0.30732,10.5683 15.77399,-0.69176 c 8.6757,-0.38047 21.7932,-1.39996 29.15,-2.26555 z m -90.29013,-1.19987 c 0.35611,-0.92798 0.64746,-5.27247 0.64746,-9.65442 v -7.96719 l -3.69907,-1.54558 c -5.59202,-2.33649 -6.78775,-1.98898 -7.57383,2.20119 -0.96446,5.14104 0.41454,15.10917 2.35926,17.05388 2.126,2.12601 7.43831,2.06953 8.26618,-0.0879 z m -13.43254,-0.65942 c 1.40833,-1.40833 1.83349,-18.53334 0.48,-19.33401 -0.44,-0.26028 -2.81124,-0.80594 -5.26944,-1.21257 l -4.46943,-0.73934 -0.74582,3.97559 c -0.41021,2.18657 -0.31897,6.65387 0.20276,9.92733 0.76087,4.77395 1.47631,6.2169 3.61526,7.29165 3.35032,1.6834 4.5765,1.70151 6.18667,0.0913 z m -91.52,-2.47973 c 0,-3.12507 -3.22093,-4.76526 -9.40277,-4.78816 -6.48541,-0.024 -8.73056,-1.01236 -8.73056,-3.84318 0,-1.63016 -0.61865,-2.54226 -1.72435,-2.54226 -1.28451,0 -1.58829,0.71174 -1.19093,2.79039 l 0.53342,2.79037 -6.5424,-0.69803 c -3.59832,-0.38392 -8.8224,-0.98143 -11.60907,-1.32781 -4.5803,-0.56931 -5.06667,-0.4229 -5.06667,1.52517 0,2.64868 5.43336,5.01885 15.10006,6.58703 10.07652,1.63466 12.43433,1.86477 20.89994,2.03972 7.60019,0.15707 7.73333,0.11345 7.73333,-2.53324 z m 28.8783,-0.65323 c 1.36924,-2.55848 0.67772,-8.8575 -1.22395,-11.14889 -0.68689,-0.82764 -2.39012,-1.50482 -3.78495,-1.50482 -2.37881,0 -2.53606,0.38363 -2.53606,6.18667 0,3.40267 0.576,6.76267 1.28,7.46667 1.98365,1.98365 4.91901,1.51529 6.26496,-0.99963 z m 47.87397,-0.32952 c 0.70407,-0.84837 1.36284,-4.85412 1.46393,-8.90168 0.21036,-8.42257 -1.23527,-11.18283 -5.59156,-10.67644 -2.29105,0.26633 -2.91606,1.07382 -3.69173,4.76959 -1.39477,6.64546 0.0128,14.12526 2.87508,15.27872 3.22582,1.29994 3.49656,1.27419 4.94428,-0.47019 z m -9.76966,-10.70247 c 0.34081,-9.18163 -0.69691,-11.22172 -5.70817,-11.22172 -1.94878,0 -2.4258,0.78793 -2.99612,4.94888 -0.93301,6.80699 -0.85404,9.38339 0.38766,12.64932 0.89458,2.35292 1.6235,2.74998 4.53334,2.46944 l 3.46735,-0.3343 z m -78.90842,2.82806 c 0.22636,-1.53835 -0.2215,-2.31644 -1.33333,-2.31644 -1.08909,0 -1.67419,0.96301 -1.67419,2.75555 0,3.34157 2.50504,2.97583 3.00752,-0.43911 z m 11.39248,0.88356 c 0,-1.88166 -6.61961,-2.87372 -8.25603,-1.23731 -1.87487,1.87487 0.3572,3.49568 4.35512,3.16246 2.61185,-0.21771 3.90091,-0.85388 3.90091,-1.92515 z m 284.02931,0.47285 c 1.90613,-1.33512 2.37067,-2.69372 2.37067,-6.93333 0,-6.32562 -1.73465,-6.9023 -6.48204,-2.15491 -2.95952,2.95951 -4.22158,8.22287 -2.40684,10.0376 1.20385,1.20387 4.03218,0.79192 6.51821,-0.94936 z m -312.94324,-2.88518 c 0.60783,-0.96361 0.77372,-2.08344 0.36865,-2.48852 -1.01478,-1.01478 -3.98805,1.60978 -3.98805,3.52034 0,1.93078 2.13447,1.32229 3.6194,-1.03182 z m 5.77754,0.54566 c -0.19772,-1.02667 -1.06634,-1.86667 -1.93027,-1.86667 -0.86394,0 -1.73256,0.84 -1.93028,1.86667 -0.25222,1.30971 0.32372,1.86667 1.93028,1.86667 1.60656,0 2.18249,-0.55696 1.93027,-1.86667 z m -11.53027,-2.5306 c 0,-0.51484 -0.72,-0.93607 -1.6,-0.93607 -0.91966,0 -1.6,0.96266 -1.6,2.26394 0,1.89145 0.26325,2.04547 1.6,0.93606 0.88,-0.73033 1.6,-1.74911 1.6,-2.26393 z m 300.01339,-0.24549 c 6.81249,-3.0128 19.98659,-11.19834 19.98659,-12.41837 0,-0.83337 -9.5336,-0.47722 -16.78704,0.62711 -1.89953,0.28921 -3.93346,1.42226 -4.51984,2.51792 -0.58637,1.09565 -2.7522,3.03414 -4.81296,4.30775 -2.61347,1.61523 -3.74683,3.09598 -3.74683,4.89534 0,3.34452 2.43722,3.36184 9.88008,0.0703 z m -304.48076,-0.96949 c 0.21704,-1.127 -0.30118,-1.85442 -1.32109,-1.85442 -0.92301,0 -1.67821,0.20075 -1.67821,0.44609 0,0.24535 -0.31004,1.25404 -0.68897,2.24153 -0.51852,1.35124 -0.19169,1.69965 1.32109,1.40832 1.10552,-0.21291 2.17076,-1.22159 2.36718,-2.24152 z m -12.599299,-0.23275 c 0,-0.80596 -8.683849,-5.02671 -9.226206,-4.48436 -0.847585,0.8476 5.16141,4.99602 7.236722,4.99602 1.094216,0 1.989484,-0.23024 1.989484,-0.51166 z m 7.839289,-1.05417 c 0.68394,-1.78232 -0.9052,-3.15682 -2.50596,-2.1675 -1.59482,0.98565 -1.28628,3.73333 0.41922,3.73333 0.81723,0 1.75627,-0.70463 2.08674,-1.56583 z M 293.634,444.10982 c 3.89055,-0.64298 3.96854,-0.73904 2.19297,-2.70103 -1.36352,-1.50666 -1.95952,-4.51239 -2.29783,-11.58824 l -0.45677,-9.55391 h -6.24921 c -7.17605,0 -6.99924,-0.28045 -7.63138,12.10406 -0.31843,6.23847 -0.74885,7.58771 -2.95029,9.24825 l -2.57747,1.94419 3.70132,0.44771 c 6.28293,0.75998 12.05639,0.79511 16.26866,0.099 z m 47.69931,-1.31837 8,-0.66302 -5.6013,-1.95039 c -4.22372,-1.47071 -5.76132,-2.58793 -6.25193,-4.54271 -0.77122,-3.07274 -5.38237,-6.60248 -9.7723,-7.48047 -2.65184,-0.53036 -3.24232,-0.2396 -3.80855,1.87539 -0.36856,1.37668 -0.67668,4.09461 -0.68469,6.03985 -0.009,1.94523 -0.51145,4.46523 -1.11875,5.6 -1.03587,1.93553 -0.72232,2.05458 5.06666,1.92379 3.39398,-0.0767 9.77086,-0.43778 14.17086,-0.80244 z m 40.8,-15.32481 c 0.4053,-24.72338 -0.12491,-35.09143 -1.93586,-37.8553 -1.91627,-2.92459 -5.37049,-3.37652 -4.16331,-0.5447 0.43767,1.02667 0.93017,4.74667 1.09444,8.26667 0.16429,3.52 0.0769,4.96 -0.19414,3.2 -0.80612,-5.23398 -1.39779,-6.36334 -2.6682,-5.09293 -1.50923,1.50923 -1.50923,26.80996 0,28.31919 1.523,1.523 2.00251,-0.01 3.26302,-10.42626 1.0209,-8.43691 1.02659,-8.40121 0.50337,3.15939 -0.29106,6.431 -0.75843,11.92195 -1.03861,12.20211 -0.68846,0.68847 -13.57086,-3.48158 -26.59404,-8.60853 -16.19233,-6.37458 -21.79645,-13.06105 -21.84324,-26.0619 -0.0275,-7.64609 2.73213,-12.79561 8.23026,-15.35774 1.88841,-0.88 3.44386,-1.89657 3.45656,-2.25906 0.0554,-1.57979 -33.49277,-13.18179 -35.15165,-12.15654 -1.31358,0.81183 -1.51933,31.48227 -0.21119,31.48227 0.48439,0 2.00806,-1.2 3.38593,-2.66667 2.92405,-3.11251 6.95617,-3.48029 8.40831,-0.76694 0.55918,1.04484 1.80587,7.64484 2.77043,14.66666 0.96456,7.02182 2.12011,13.69919 2.56789,14.83861 0.61475,1.56431 7.71704,4.48962 29.00042,11.9448 15.50245,5.43021 28.78628,9.89797 29.51961,9.92834 0.99966,0.0414 1.40006,-4.01559 1.6,-16.21147 z m -232.37552,13.98885 c 2.90849,-1.32519 4.41413,-3.97692 3.03892,-5.35214 -0.48028,-0.48027 -8.29601,-1.39372 -17.3683,-2.02988 -9.0723,-0.63616 -19.13508,-1.55252 -22.36175,-2.03633 -6.35339,-0.95265 -7.46667,-0.71433 -7.46667,1.5984 0,2.3214 5.1363,4.46361 15.01263,6.26134 15.24115,2.77425 25.29689,3.31201 29.14517,1.55861 z m 101.3863,-10.18481 c -0.0649,-12.54751 -0.88219,-14.20404 -7.00804,-14.20404 h -4.13606 v 7.64934 c 0,9.21977 -1.52742,11.55066 -7.56904,11.55066 -2.22112,0 -4.31292,0.44419 -4.64845,0.98708 -0.56729,0.9179 3.60698,2.08217 15.41749,4.30017 8.22052,1.54382 8.00668,1.82062 7.9441,-10.28321 z m 57.1455,7.5931 c 2.1968,-6.65638 -0.71432,-14.4547 -4.80936,-12.88328 -1.17439,0.45065 -1.61358,2.2442 -1.61358,6.58946 0,9.87426 3.96049,13.75513 6.42294,6.29382 z m 82.07448,1.40286 c 0.54176,-1.32 1.49624,-7.08219 2.12105,-12.80486 1.281,-11.73271 3.53097,-18.43389 6.77166,-20.16825 3.22545,-1.72622 5.30621,1.42687 9.18887,13.92428 5.15067,16.57891 7.78466,16.60285 8.99667,0.0818 1.56903,-21.38741 8.89855,-30.45152 13.98255,-17.29161 1.18818,3.0756 2.52366,5.59201 2.96772,5.59201 1.19162,0 0.95087,-33.32609 -0.25428,-35.2 -0.87998,-1.36828 -3.9286,-0.61766 -21.05034,5.18291 -11.01173,3.7306 -21.58133,7.42611 -23.48799,8.21224 l -3.46667,1.42933 v 26.00998 c 0,14.30548 0.32,26.32998 0.71111,26.72109 1.31207,1.31207 2.52731,0.72894 3.51965,-1.68889 z m 17.18687,0.4129 c 2.37563,-1.92367 2.40964,-2.18756 1.06553,-8.26667 -2.47742,-11.20478 -6.52695,-22.8129 -7.95835,-22.8129 -2.66045,0 -4.08275,5.32507 -7.62116,28.53334 l -0.69117,4.53333 h 6.37559 c 4.6299,0 7.0475,-0.54409 8.82956,-1.9871 z m -132.89993,-1.60289 c 2.38133,-1.74127 3.58998,-12.98761 1.76271,-16.40186 -1.46762,-2.74228 -10.61258,-4.43924 -12.01353,-2.22926 -1.0346,1.63205 -1.25599,15.87298 -0.28608,18.40053 0.81743,2.13018 7.73211,2.2815 10.5369,0.23059 z m 45.76818,-0.23059 c 0.35611,-0.92797 0.64746,-3.28872 0.64746,-5.24609 0,-4.97647 -0.95517,-6.93333 -3.38425,-6.93333 -5.32893,0 -8.38216,5.50192 -6.21558,11.20046 0.80832,2.12604 1.7523,2.66621 4.6593,2.66621 2.34034,0 3.87743,-0.60411 4.29307,-1.68725 z m 32.06856,-0.37238 c 0.87279,-1.4122 -1.03574,-2.33914 -3.14761,-1.52873 -1.42317,0.54613 -1.49685,0.86834 -0.36293,1.58713 1.85376,1.17509 2.7575,1.16006 3.51054,-0.0584 z m -250.63584,-2.23091 c -1.1339,-1.83468 -13.384465,-7.58954 -15.275382,-7.1758 -1.084968,0.2374 1.130075,1.90159 5.690133,4.27506 7.518257,3.91321 10.830479,4.91556 9.585249,2.90074 z m 110.06311,-6.52078 c -0.35684,-3.0129 -0.87919,-5.70839 -1.16079,-5.98999 -0.2816,-0.28162 -2.04814,0.0235 -3.92563,0.67798 -1.8775,0.6545 -6.342,1.19734 -9.92111,1.20632 -7.02589,0.0176 -11.13218,1.4326 -7.8323,2.69888 5.04212,1.93485 20.71291,6.80841 22.00671,6.84401 1.15925,0.0319 1.34065,-1.15195 0.83312,-5.4372 z m -58.03908,2.64078 c 3.27323,-2.02298 -6.86026,-4.25101 -11.43084,-2.51328 -3.17777,1.20819 -2.78277,2.58293 1.02156,3.55541 2.17535,0.55607 8.91511,-0.11869 10.40928,-1.04213 z m 72.86696,0.58051 c 0.90917,-1.47107 0.87486,-11.54628 -0.0538,-15.77408 -0.77576,-3.53199 -3.30721,-5.00279 -5.49106,-3.19036 -1.73223,1.43763 -2.01948,13.22334 -0.42454,17.41836 1.07804,2.83547 4.60746,3.7496 5.96932,1.54608 z m 8.28932,-5.00799 c 0.88387,-7.09372 -0.4421,-12.46865 -3.07597,-12.46865 -1.85666,0 -2.12475,0.87308 -2.40499,7.832 -0.31998,7.94603 0.78826,11.20023 3.46454,10.17325 0.76624,-0.29404 1.67364,-2.78551 2.01642,-5.5366 z m 197.2175,4.55924 c 2.86246,-1.09843 2.91283,-4.66304 0.21614,-15.29458 -2.83488,-11.17633 -5.20246,-17.19997 -6.7604,-17.19997 -1.71638,0 -4.33545,8.64438 -5.97881,19.73333 -2.34668,15.83481 -2.68165,14.81765 4.62818,14.05363 3.42185,-0.35765 6.97455,-0.93924 7.89489,-1.29241 z m -300.19639,-0.70789 c 1.96286,-1.96287 1.52277,-4.05333 -0.85334,-4.05333 -1.56445,0 -2.13333,0.71111 -2.13333,2.66666 0,2.91159 0.99827,3.37506 2.98667,1.38667 z m 6.41027,-0.58667 c -0.19772,-1.02666 -1.06634,-1.86666 -1.93028,-1.86666 -0.86393,0 -1.73255,0.84 -1.93027,1.86666 -0.25222,1.30971 0.32372,1.86667 1.93027,1.86667 1.60656,0 2.1825,-0.55696 1.93028,-1.86667 z m -18.12275,-2.21688 c 0.22153,-1.50557 -0.22317,-2.31645 -1.27038,-2.31645 -2.07424,0 -3.16504,1.7868 -2.36444,3.87312 0.86862,2.26356 3.22093,1.25615 3.63482,-1.55667 z m 4.90523,2.36943 c 0.92799,-0.3561 1.68725,-1.3513 1.68725,-2.21154 0,-2.18866 -3.62342,-1.29342 -4.06597,1.00457 -0.39156,2.03322 -0.12582,2.16806 2.37872,1.20697 z m 316.82619,-6.91387 c 2.41555,-6.49816 2.77685,-15.37201 0.62587,-15.37201 -2.71068,0 -4.26613,5.01721 -4.28244,13.81333 -0.0169,9.10503 0.73261,9.42452 3.65657,1.55868 z m -327.24036,3.78199 c 0.3474,-0.90531 0.34393,-1.9337 -0.007,-2.28534 -0.7597,-0.75971 -3.89088,1.65073 -3.89088,2.99528 0,1.60969 3.23449,1.02069 3.89858,-0.70994 z m 44.87446,-7.1349 c -0.2374,-1.91717 -0.43653,-0.60577 -0.44252,2.91423 -0.006,3.52 0.18825,5.0886 0.43164,3.48577 0.24338,-1.60282 0.24828,-4.48282 0.0109,-6.4 z m -49.30638,5.5809 c 0.36258,-0.58667 0.36178,-1.54797 -0.002,-2.13621 -0.77972,-1.26219 -4.79787,0.55816 -4.79787,2.17374 0,1.35973 3.95557,1.32881 4.8,-0.0375 z m -13.958683,-0.91777 c 0.632733,-1.02379 -7.602108,-5.07699 -8.496904,-4.1822 -0.563517,0.56352 5.782922,5.04763 7.19264,5.082 0.405377,0.01 0.992295,-0.39503 1.304264,-0.8998 z m 86.684963,-2.06902 c -0.95573,-1.05607 -2.13067,-3.81607 -2.61096,-6.13334 -0.87192,-4.20666 -0.88277,-4.21423 -6.9915,-4.87552 -7.2286,-0.78252 -10.05807,-2.94057 -10.86149,-8.28412 -0.31868,-2.11946 -1.11568,-5.29356 -1.77113,-7.05356 -0.65546,-1.76 -1.49387,-5.84 -1.86315,-9.06667 l -0.67142,-5.86666 -2.22695,4.26666 c -3.09286,5.92567 -3.71466,9.20154 -2.53037,13.33091 2.28915,7.98182 9.69627,15.32469 22.6799,22.48316 6.60056,3.63919 9.51762,4.15006 6.84707,1.19914 z m 16.70293,-1.09116 c 0.96793,-1.06955 2.06233,-4.15136 2.43201,-6.84847 0.60145,-4.38807 0.36275,-5.21325 -2.26969,-7.84568 -2.82095,-2.82095 -3.00176,-2.8599 -4.40002,-0.94766 -2.69089,3.68001 -1.41461,17.58643 1.61403,17.58643 0.4751,0 1.65576,-0.87509 2.62367,-1.94462 z m 118.49772,-2.85538 c -0.12004,-7.01024 -2.81682,-23.89753 -4.09554,-25.64626 -3.20948,-4.38923 -9.27309,8.82154 -9.54298,20.79124 -0.14267,6.32757 0.0584,6.99035 2.51158,8.27771 1.46667,0.76967 4.58667,1.27443 6.93333,1.12169 4.23418,-0.2756 4.26612,-0.31021 4.19361,-4.54438 z m -234.060258,2.3372 c 0,-1.91752 -2.869582,-5.68984 -3.698034,-4.86139 -1.153925,1.15393 0.65153,6.25752 2.213669,6.25752 0.816401,0 1.484365,-0.62826 1.484365,-1.39613 z m 64.888228,-4.31717 c 0.20817,-1.08898 -0.0947,-2.45317 -0.67308,-3.03154 -0.57836,-0.57837 -7.76376,-1.68903 -15.96756,-2.46814 -8.20379,-0.77911 -17.07885,-1.74092 -19.72234,-2.13733 -2.87657,-0.43136 -5.07251,-0.29009 -5.46926,0.35185 -1.11049,1.79681 0.40784,4.20647 3.42066,5.42873 5.08606,2.06336 20.76855,4.19647 29.51155,4.01413 7.37474,-0.15382 8.57247,-0.44419 8.90003,-2.1577 z m 58.8451,-2.82003 c 0,-1.69075 -0.48,-3.37075 -1.06667,-3.73334 -0.64515,-0.39873 -1.06667,1.07658 -1.06667,3.73334 0,2.65676 0.42152,4.13206 1.06667,3.73333 0.58667,-0.36258 1.06667,-2.04258 1.06667,-3.73333 z m 92.79999,-5.20273 c 0,-4.59256 -0.49863,-7.73236 -1.33333,-8.39577 -0.73333,-0.58283 -9.97333,-1.61732 -20.53333,-2.29886 -10.56,-0.68152 -21.96,-1.62309 -25.33334,-2.09236 l -6.13333,-0.8532 v 9.40114 c 0,8.87554 0.13418,9.43183 2.4,9.95017 3.17604,0.72656 13.65772,1.1614 34.13333,1.41602 l 16.8,0.20892 z m -200.05332,4.19345 c -2.239831,-2.23088 -15.74002,-8.59072 -18.235718,-8.59072 -3.978,0 -2.869102,3.40113 1.222386,3.74921 1.76,0.14973 5.84,1.48809 9.066666,2.97412 6.098974,2.80887 9.754346,3.66785 7.946666,1.86739 z m 269.35398,-4.85739 c 0,-1.76 -0.46529,-3.92 -1.034,-4.8 -0.73044,-1.13028 -1.03399,0.27888 -1.03399,4.8 0,4.52112 0.30355,5.93028 1.03399,4.8 0.56871,-0.88 1.034,-3.04 1.034,-4.8 z m -126.93818,2.73679 c 1.31162,-2.45077 1.44613,-12.81288 0.192,-14.79004 -0.48374,-0.76262 -5.15639,-2.0808 -10.38367,-2.92928 -14.18389,-2.30229 -13.24009,-2.70556 -13.22114,5.6492 0.009,3.96 0.42382,7.84288 0.92185,8.62863 0.79247,1.25027 14.50792,5.02031 19.55763,5.37589 1.00602,0.0708 2.32602,-0.79964 2.93333,-1.9344 z m -104.9717,-1.22973 c 1.09923,-1.77858 -1.37302,-3.81814 -2.8445,-2.34666 -1.23084,1.23084 -0.4605,3.50627 1.18706,3.50627 0.51742,0 1.26327,-0.52183 1.65744,-1.15961 z m 10.60923,-0.97373 c 0,-1.83894 -4.57916,-2.64365 -6.80333,-1.19557 -2.36126,1.53735 -0.22537,3.47784 3.43677,3.12236 2.13615,-0.20735 3.36656,-0.91155 3.36656,-1.92679 z m 198.73397,0.26667 c -0.19568,-1.02666 -1.43087,-2.02005 -2.74488,-2.20752 -2.864,-0.40861 -3.07754,0.64974 -0.52243,2.58933 2.57562,1.95519 3.68795,1.8252 3.26731,-0.38181 z m 14.44407,-0.47704 c 2.59133,-4.11508 -4.70925,-12.65919 -9.30866,-10.89423 -2.03872,0.78232 -2.30119,5.49723 -0.52325,9.39938 1.77899,3.90447 7.74346,4.8113 9.83191,1.49485 z m -229.17804,-1.40424 c 0,-2.9846 -3.12422,-2.65384 -3.55329,0.37617 -0.27396,1.93474 0.0852,2.41044 1.6,2.11873 1.11144,-0.21405 1.95329,-1.28932 1.95329,-2.4949 z m -12.44357,-1.52108 c 0.24218,-1.65467 -0.0997,-2.28491 -1.06667,-1.96622 -0.7827,0.25796 -1.58349,1.56488 -1.77952,2.90427 -0.24217,1.65468 0.0997,2.28492 1.06667,1.96623 0.7827,-0.25796 1.58349,-1.56488 1.77952,-2.90428 z m 6.20882,1.48969 c 0.3474,-0.9053 0.40103,-1.8766 0.1192,-2.15844 -0.95029,-0.95029 -4.01778,0.81989 -4.01778,2.31857 0,2.01849 3.11161,1.8907 3.89858,-0.16013 z m 51.56808,-2.95012 c 0,-5.36896 -1.95481,-8.59767 -4.8705,-8.04446 -1.46382,0.27774 -2.16309,1.43838 -2.40809,3.99692 -0.60178,6.28447 0.51697,8.64366 4.09891,8.64366 3.0365,0 3.17968,-0.20695 3.17968,-4.59612 z m -63.14666,2.24946 c 1.85388,-1.85388 1.57351,-2.98667 -0.73921,-2.98667 -2.02612,0 -3.72345,2.43513 -2.52952,3.62905 0.95432,0.95432 1.84758,0.77877 3.26873,-0.64238 z m -4.05333,-4.18394 c 0,-1.28596 -2.92101,-1.18376 -3.73334,0.13061 -1.15291,1.86545 0.55675,3.44178 2.2283,2.05451 0.82777,-0.68698 1.50504,-1.67029 1.50504,-2.18512 z m 331.76548,-4.25554 c 1.16181,-4.31462 0.48813,-7.34719 -1.63217,-7.34719 -1.96613,0 -2.67145,2.52374 -2.63275,9.42058 0.0314,5.58649 0.15464,5.88643 1.62183,3.94572 0.87334,-1.15522 2.06273,-3.86381 2.64309,-6.01911 z m -346.698816,4.50882 c 0,-1.38651 -4.95329,-4.39549 -7.162471,-4.35098 -1.49185,0.0301 -1.21125,0.60636 1.295805,2.66137 3.24161,2.65711 5.866666,3.41313 5.866666,1.68961 z m 9.599996,-1.27823 c 0,-2.59952 -2.49255,-2.23207 -3.01154,0.44395 -0.20413,1.05254 0.34001,1.77827 1.33333,1.77827 0.98948,0 1.67821,-0.912 1.67821,-2.22222 z m -21.333328,-2.94579 c 0,-0.49574 -0.96,-1.77013 -2.133334,-2.83199 -2.3477,-2.12464 -2.728929,-1.50596 -1.029137,1.67013 1.113075,2.0798 3.162471,2.83273 3.162471,1.16186 z m 63.379418,-2.94611 c 2.25588,-0.86566 2.14711,-3.33021 -0.17942,-4.06502 -1.02667,-0.32427 -8.51888,-1.32593 -16.64937,-2.22591 -8.13047,-0.89999 -16.74464,-2.07716 -19.14257,-2.61594 -4.75463,-1.0683 -6.07473,-0.72219 -6.07473,1.59268 0,4.26106 13.06576,7.74826 29.51276,7.87685 5.96535,0.0466 11.60535,-0.20655 12.53333,-0.56266 z m 130.49411,-0.66526 c -0.52701,-1.58103 -4.2007,-2.35489 -18.94021,-3.98971 -11.6381,-1.29082 -40.16667,-5.94785 -42.92855,-7.00767 -0.87037,-0.334 -2.21937,-1.90086 -2.99777,-3.48191 -1.35848,-2.75928 -1.4312,-2.78054 -1.81146,-0.52968 -0.62099,3.67572 1.54227,6.52808 5.88367,7.75791 2.1931,0.62126 10.94745,2.29796 19.45412,3.72599 29.06249,4.87881 42.16382,5.99595 41.3402,3.52507 z m 22.65979,-97.75898 v -99.07169 l -13.6,-0.73266 c -7.48,-0.40296 -19.03737,-1.18593 -25.68305,-1.73992 -6.64567,-0.554 -12.52567,-0.73371 -13.06666,-0.39936 -0.54099,0.33435 -0.98362,5.13043 -0.98362,10.65796 0,11.40146 -0.92087,10.42241 11.02638,11.723 10.30589,1.1219 25.96317,7.00178 24.58456,9.2324 -0.29683,0.4803 -2.43073,0.57087 -4.74199,0.20129 -4.92895,-0.78817 -5.35654,-0.0394 -1.26895,2.22214 2.79082,1.54407 2.57057,1.5932 -4.53333,1.01142 -4.10667,-0.33632 -17.63426,-2.01131 -30.06133,-3.72219 -25.47325,-3.50699 -25.71565,-3.52766 -24.25686,-2.06887 1.48385,1.48385 19.25347,4.98448 37.99441,7.48494 18.44941,2.46155 25.03181,2.68247 25.63914,0.86051 0.27018,-0.81056 0.67585,-0.6295 1.10701,0.4941 0.53095,1.38361 -0.14416,1.92822 -3.07073,2.47726 l -3.75129,0.70374 3.26649,1.98648 c 4.20323,2.55613 4.13992,3.93177 -0.20018,4.35024 -2.30337,0.22209 -3.35911,0.83586 -3.14616,1.82909 0.44062,2.05506 -11.97979,1.04235 -37.93997,-3.09344 -22.28939,-3.55101 -26.08795,-3.83421 -20.89439,-1.55779 8.14533,3.57022 51.13614,9.89358 58.80399,8.64926 1.96142,-0.31829 4.37854,-0.2444 5.37137,0.16421 1.20005,0.49388 0.19615,0.92816 -2.99484,1.2955 l -4.8,0.55259 3.73334,2.47941 c 3.22672,2.14296 3.369,2.39936 1.04851,1.88947 -1.47666,-0.32447 -8.91666,-1.34378 -16.53333,-2.26512 -7.61669,-0.92135 -20.70882,-2.86027 -29.09364,-4.30872 -17.06369,-2.94769 -18.35487,-3.06082 -18.35487,-1.6082 0,1.74565 9.60269,3.99387 27.29638,6.39073 9.33365,1.26438 20.61817,2.993 25.07671,3.8414 9.56131,1.81937 13.38745,1.94199 14.30432,0.45846 0.36849,-0.59623 1.16808,-0.77623 1.77683,-0.4 1.54902,0.95733 -1.13648,2.50579 -4.45425,2.56832 -2.62146,0.0494 -2.6305,0.0789 -0.53333,1.74298 2.0638,1.63755 2.0386,1.67077 -0.77291,1.01922 -1.59843,-0.37042 -5.91843,-0.94723 -9.6,-1.28179 -3.68156,-0.33456 -16.11898,-2.00847 -27.6387,-3.71981 -11.51974,-1.71134 -21.95974,-3.11152 -23.2,-3.11152 -3.76352,0 -2.52186,1.98632 1.74495,2.79143 2.2,0.41512 3.4,0.95687 2.66666,1.20388 -1.01577,0.34216 -1.33333,6.38095 -1.33333,25.35503 0,22.79858 0.15794,24.95258 1.86667,25.45769 2.8552,0.84402 19.49259,3.85863 21.29543,3.85863 1.37926,0 1.54241,-3.43629 1.2155,-25.60017 -0.36897,-25.01482 -0.32882,-25.60018 1.75573,-25.60051 2.07388,-3.4e-4 2.13333,0.71065 2.13333,25.50948 0,14.03041 0.24,25.74821 0.53334,26.03956 0.29333,0.29135 6.29333,1.059 13.33333,1.70588 7.04,0.64689 14.36,1.43107 16.26667,1.74262 l 3.46666,0.56648 v 8.40792 8.40793 l -6.13333,-0.56961 c -3.37333,-0.31329 -10.69333,-1.17748 -16.26667,-1.92043 -5.57333,-0.74295 -10.49333,-1.14361 -10.93333,-0.89037 -1.02983,0.59274 -1.01588,13.28871 0.0163,14.86343 0.44831,0.68392 7.74482,1.7944 17.05034,2.59494 l 16.26666,1.3994 v 8.33839 8.33839 h -2.97388 c -1.63562,0 -8.71562,-0.71616 -15.73333,-1.59148 -7.01769,-0.87531 -13.35945,-1.59531 -14.09279,-1.6 -1.86396,-0.0119 -1.82704,13.18719 0.0413,14.73772 1.58158,1.3126 11.25583,2.9086 23.95877,3.95258 l 8.79999,0.72322 v 6.82231 6.82232 h 9.6 9.6 v -99.0717 z m 48,96.37156 c 0,-1.71955 -2.83901,-3.34974 -3.93134,-2.25741 -0.75971,0.7597 1.65073,3.89088 2.99527,3.89088 0.51484,0 0.93607,-0.73506 0.93607,-1.63347 z m -245.33332,-1.5894 c 0,-1.45519 -5.129025,-3.73699 -6.136164,-2.72986 -0.920406,0.92041 2.677364,3.8194 4.740034,3.8194 0.76787,0 1.39613,-0.4903 1.39613,-1.08954 z m 231.16931,-2.33735 c 1.30312,-1.86452 2.14123,-3.61812 1.86245,-3.89689 -0.78832,-0.78832 -5.83177,4.32253 -5.83177,5.90971 0,2.3232 1.45424,1.58576 3.96932,-2.01282 z m 38.69734,2.50116 c 0,-1.60378 -26.75082,-11.31289 -29.05417,-10.5451 -2.26292,0.7543 3.80177,3.91838 14.78741,7.71492 10.86519,3.75491 14.26676,4.4297 14.26676,2.83018 z m -94.54841,-2.80548 c 0.36829,-0.95974 -0.33163,-2.18841 -1.75254,-3.07654 -1.7835,-1.11474 -43.01753,-7.66299 -59.8509,-9.50474 -1.1102,-0.12147 -2.23247,0.38598 -2.49395,1.12767 -1.03681,2.94089 11.85053,6.28145 40.24581,10.43217 20.31426,2.96947 23.05895,3.087 23.85158,1.02144 z M 151.09833,388.1297 c 0.78924,-0.65501 1.43499,-1.85217 1.43499,-2.66033 0,-2.108 -7.44727,-1.89763 -10.58333,0.29897 -2.44595,1.71319 -2.46167,1.81507 -0.50401,3.26623 2.16848,1.60743 7.19274,1.13642 9.65235,-0.90487 z m -25.42749,-3.41198 c 0.36542,-3.0867 -1.30274,-3.91049 -2.35672,-1.16383 -1.06566,2.77704 -0.73565,4.91948 0.68587,4.45271 0.73334,-0.24079 1.48522,-1.72079 1.67085,-3.28888 z m 6.40736,1.06053 c 0.20414,-1.05255 -0.34001,-1.77827 -1.33333,-1.77827 -0.98948,0 -1.67821,0.912 -1.67821,2.22222 0,2.59951 2.49255,2.23207 3.01154,-0.44395 z m 6.4,0 c 0.23254,-1.19902 -0.3755,-1.77827 -1.86667,-1.77827 -1.21634,0 -2.21154,0.64 -2.21154,1.42222 0,3.26693 3.45518,3.56858 4.07821,0.35605 z m 69.52179,1.50453 c 0,-0.54113 -4.68,-2.77241 -10.4,-4.95841 -5.72,-2.186 -14.61968,-6.06326 -19.77707,-8.61614 -5.15739,-2.55287 -9.95739,-4.62562 -10.66666,-4.6061 -4.64528,0.12783 16.75044,11.51419 30.9934,16.49405 8.03255,2.80847 9.85033,3.11971 9.85033,1.6866 z M 89.599995,385.68473 c 0,-1.63965 -5.655115,-3.33769 -7.440641,-2.23417 -0.60098,0.37142 -1.092692,1.367 -1.092692,2.21237 0,1.08211 1.26285,1.53705 4.266666,1.53705 2.975416,0 4.266667,-0.45857 4.266667,-1.51525 z m 355.142805,-0.0551 c 6.75176,-3.49148 11.14133,-19.91308 6.93003,-25.92556 -2.15705,-3.0796 -7.7224,-3.1542 -11.53575,-0.15462 -4.35071,3.42227 -5.15982,5.64669 -3.33003,9.15498 0.92578,1.77501 1.5825,5.93607 1.58635,10.05118 0.009,9.07932 0.67967,9.80594 6.3494,6.87402 z m -330.19007,-1.90857 c 1.32694,-2.10365 0.30409,-3.42688 -1.9734,-2.55292 -1.90424,0.73072 -2.28499,5.35603 -0.38887,4.72398 0.69141,-0.23046 1.75444,-1.20744 2.36227,-2.17106 z m 6.84656,9e-5 c 0.20673,-1.07351 -0.29463,-1.85447 -1.19048,-1.85447 -1.90519,0 -4.19601,2.5906 -3.18491,3.60169 1.2766,1.2766 4.0027,0.18796 4.37539,-1.74727 z m 276.57392,-1.93368 c 16.0141,-5.41121 28.93468,-10.77781 29.41455,-12.21743 0.207,-0.621 -10.6758,-3.82763 -25.15656,-7.41241 l -25.5214,-6.31794 -25.42158,2.88963 c -13.98186,1.58929 -27.02157,2.88538 -28.97713,2.88018 -5.15371,-0.0137 -3.79227,1.90819 3.59256,5.07147 9.91748,4.24814 54.08018,19.33237 56.78555,19.39571 1.33241,0.0311 8.21021,-1.89896 15.28401,-4.28921 z m -288.63988,1.14588 c 1.15291,-1.86545 -0.55675,-3.44178 -2.2283,-2.05452 -0.82777,0.68699 -1.50504,1.6703 -1.50504,2.18512 0,1.28597 2.92101,1.18377 3.73334,-0.1306 z m -11.200003,-1.04499 c 0,-1.10664 -7.632338,-5.35501 -9.620457,-5.35501 -2.008419,0 -0.01516,2.06146 4.089576,4.2295 4.508192,2.38113 5.530881,2.58925 5.530881,1.12551 z m 258.133313,0.0159 c 0,-1.12191 -3.4394,-3.23757 -5.26321,-3.23757 -1.98027,0 -1.22922,1.76276 1.26322,2.96481 3.07962,1.48525 3.99999,1.548 3.99999,0.27272 z m -194.14965,-7.65269 c 0.019,-5.75137 -3.15647,-10.91073 -5.37424,-8.73188 -1.72695,1.69665 -0.33779,12.59964 1.88908,14.8265 2.31167,2.31167 3.46406,0.29644 3.48516,-6.09462 z M 83.165351,375.402 c -1.014661,-1.89595 -3.165356,-2.89143 -3.165356,-1.46518 0,1.679 2.370866,4.70898 3.256403,4.16168 0.634616,-0.39221 0.600436,-1.40449 -0.09105,-2.69654 z m 160.453849,1.57749 c 1.23335,-3.21408 0.66074,-10.94708 -0.92827,-12.53609 -0.86665,-0.86665 -5.06665,-2.12721 -9.33333,-2.80124 -4.26669,-0.67404 -9.07761,-1.47739 -10.69095,-1.78523 l -2.93333,-0.5597 v 7.92902 7.92901 l 8.8,1.63947 c 11.73808,2.18683 14.30555,2.21828 15.08588,0.18476 z m -93.68975,-3.05028 c 1.65489,-1.22887 1.83416,-1.9248 0.89304,-3.46667 -1.31547,-2.15516 -4.76726,-2.74634 -26.55583,-4.54817 -7.62667,-0.63068 -14.82643,-1.25942 -15.99949,-1.39717 -2.93143,-0.34424 -3.53719,4.00886 -0.76435,5.49284 1.77108,0.94785 15.7781,3.57457 25.29717,4.74395 8.00296,0.98313 15.15881,0.63857 17.12946,-0.82478 z m -46.46279,-3.75832 c 0,-0.56603 -0.93087,-1.52732 -2.0686,-2.13622 -2.661561,-1.42442 -4.019233,0.48778 -1.4205,2.0007 2.39985,1.39713 3.4891,1.43944 3.4891,0.13552 z m -10.133332,-4.8734 c -4.513444,-3.70358 -9.770911,-5.32612 -11.800392,-3.6418 -2.061455,1.71084 -1.349886,2.3087 3.066996,2.57687 1.9848,0.1205 4.748581,1.01747 6.141735,1.99328 4.093675,2.86732 6.268112,2.08843 2.591661,-0.92835 z m 37.866662,-2.09746 c 0,-2.97915 -1.55606,-3.57622 -2.55254,-0.97943 -1.02425,2.66915 -0.76902,3.64609 0.95254,3.64609 0.99555,0 1.6,-1.0074 1.6,-2.66666 z m 7.26361,0.8 c -0.19772,-1.02667 -1.06634,-1.86667 -1.93028,-1.86667 -0.86393,0 -1.73255,0.84 -1.93027,1.86667 -0.25222,1.3097 0.32372,1.86666 1.93027,1.86666 1.60656,0 2.1825,-0.55696 1.93028,-1.86666 z m 12.51359,0.72903 c 1.13364,-1.83428 -0.4437,-2.5957 -5.3772,-2.5957 -2.54222,0 -4.95028,0.32807 -5.35125,0.72904 -1.59336,1.59335 0.91982,3.00429 5.35125,3.00429 2.57075,0 4.99049,-0.51193 5.3772,-1.13763 z m 280.15181,-1.7957 c 1.50048,-1.61333 3.54296,-4.21895 4.53885,-5.79027 1.71617,-2.70779 1.70946,-2.90914 -0.12859,-3.85697 -4.21478,-2.17343 -16.41478,-5.68905 -18.61396,-5.36389 -1.36712,0.20213 -3.82152,2.51357 -5.93996,5.59397 -4.38146,6.37103 -3.96907,6.99678 6.61463,10.03649 9.84467,2.82744 10.34463,2.80456 13.52903,-0.61933 z m -310.78413,-0.62173 c 0.23254,-1.19902 -0.3755,-1.77827 -1.86667,-1.77827 -1.21634,0 -2.21154,0.64 -2.21154,1.42222 0,3.26693 3.45518,3.56859 4.07821,0.35605 z m 5.35699,-0.12283 c 0.23573,-1.21603 -0.14866,-1.72891 -1.06667,-1.42323 -0.78935,0.26285 -1.60104,1.33341 -1.80373,2.37902 -0.23573,1.21602 0.14866,1.72891 1.06667,1.42322 0.78935,-0.26284 1.60104,-1.3334 1.80373,-2.37901 z m 152.22396,0.57363 c -0.6421,-1.03895 -7.43356,-2.2485 -27.71523,-4.93608 -14.99165,-1.98658 -31.83096,-5.33401 -34.78452,-6.91471 -1.15101,-0.61601 -2.09275,-1.79479 -2.09275,-2.61953 0,-0.82473 -0.48,-1.79617 -1.06667,-2.15875 -0.6496,-0.40147 -1.06666,1.18236 -1.06666,4.05069 v 4.70993 l 14.13333,2.45817 c 33.66527,5.8553 54.17127,7.96478 52.5925,5.41028 z m -163.09391,-1.74174 c 0.3474,-0.9053 0.34393,-1.9337 -0.007,-2.28533 -0.9223,-0.92231 -3.97963,1.85812 -3.28285,2.98553 0.91039,1.47304 2.59408,1.11476 3.29055,-0.7002 z m -16.698583,-1.43132 c 0,-1.12369 -4.280242,-4.04176 -8.006584,-5.45851 -4.295204,-1.63304 -3.115446,0.67533 1.873251,3.66529 4.858964,2.9122 6.133333,3.28478 6.133333,1.79322 z m 11.200003,-0.12268 c 1.15291,-1.86545 -0.55675,-3.44178 -2.2283,-2.05451 -0.82777,0.68698 -1.50504,1.67029 -1.50504,2.18512 0,1.28596 2.92101,1.18376 3.73334,-0.13061 z m 51.34079,-5.06666 c 1.06394,-6.69762 1.16361,-184.48321 0.1056,-188.26666 -1.14563,-4.09658 -2.66332,-3.65482 -3.66468,1.06667 -1.09448,5.16066 -1.01448,175.56505 0.0869,185.06666 0.45902,3.95999 1.24697,7.19999 1.75099,7.19999 0.50402,0 1.27859,-2.28 1.72126,-5.06666 z m 189.95253,1.78986 c 21.6683,-2.57681 26.35213,-2.56955 38.81142,0.0601 5.51571,1.16415 11.12045,2.12415 12.45497,2.13333 3.14861,0.0216 4.50694,-3.54056 4.50694,-11.81953 0,-7.94688 -0.85967,-8.37087 -11.00792,-5.42917 -14.78238,4.28499 -41.08656,8.26493 -72.12273,10.91245 -15.24656,1.3006 -19.71032,2.35588 -19.00459,4.49286 1.07996,3.27021 16.92551,3.15057 46.36191,-0.35003 z m -72.22667,0.0504 c 0,-2.82473 -2.48998,-3.66669 -15.46666,-5.2299 -9.71182,-1.16992 -43.55556,-6.07041 -46.5027,-6.73349 -0.67685,-0.15227 -1.45333,0.33124 -1.72552,1.07447 -0.68972,1.88333 7.00304,5.03504 17.29489,7.08568 13.75017,2.73971 34.74894,5.75802 40.79999,5.86446 4.94414,0.0869 5.6,-0.15442 5.6,-2.06122 z m -141.01332,-0.18693 c 0.704,-0.704 1.28,-3.83588 1.28,-6.95973 0,-5.01688 -0.29935,-5.79355 -2.56499,-6.65494 -1.41076,-0.53637 -3.93076,-0.60416 -5.6,-0.15066 -2.89067,0.78533 -3.0336,1.11471 -3.00546,6.92544 0.0203,4.18572 0.52252,6.41266 1.6,7.09406 2.21673,1.40187 6.77412,1.26216 8.29045,-0.25417 z m 12.8,0 c 0.704,-0.704 1.28,-3.80711 1.28,-6.89581 0,-4.63546 -0.39597,-5.82771 -2.26826,-6.82973 -1.64652,-0.88119 -2.96224,-0.89774 -4.8,-0.0604 -2.2508,1.02554 -2.53174,1.85641 -2.53174,7.48752 0,4.06913 0.47676,6.52636 1.33333,6.87199 2.44632,0.98712 5.69248,0.72062 6.98667,-0.57357 z m -26.98667,-8.32 v -6.93333 l -8.27669,-1.97694 c -4.55219,-1.08732 -8.99219,-1.70238 -9.86667,-1.3668 -2.08908,0.80165 -2.22352,11.6234 -0.16561,13.3313 1.74641,1.4494 13.24429,4.34673 16.17564,4.07608 1.89432,-0.17491 2.13333,-0.97374 2.13333,-7.13031 z m 326.72798,-1.86666 c 0.36775,-5.08277 -0.12308,-5.31904 -5.96226,-2.87013 -4.90098,2.05544 -7.5651,1.59514 -22.2085,-3.83714 -6.26556,-2.32434 -11.56413,-4.22607 -11.77458,-4.22607 -0.21046,0 -0.38266,2.7 -0.38266,6 v 6 l 3.46667,-0.89683 c 6.13801,-1.58791 14.86819,-0.75585 22.13333,2.10949 3.81334,1.50396 8.61334,2.62637 10.66667,2.49424 3.58543,-0.23072 3.74632,-0.41983 4.06133,-4.77356 z m -349.87924,-3.2 -0.315403,-7.2 -4.906723,-2.66667 c -2.698697,-1.46667 -6.62667,-3.98667 -8.728829,-5.6 -2.102159,-1.61333 -4.155972,-2.93333 -4.56403,-2.93333 -1.1635,0 0.548081,10.67301 2.23459,13.93435 1.352868,2.61616 13.561559,11.66565 15.738163,11.66565 0.4717,0 0.715702,-3.24 0.542232,-7.2 z m 142.54173,2.3238 c 1.06821,-1.06821 1.67619,-3.5741 1.67619,-6.90874 0,-4.25175 -0.44986,-5.52576 -2.4,-6.79683 -2.39613,-1.56175 -13.64939,-3.79493 -19.2,-3.81018 -2.86272,-0.007 -2.93294,0.13958 -2.917,6.12528 0.009,3.37333 0.38704,6.71671 0.84013,7.42974 0.62892,0.98972 11.7726,4.12159 19.60068,5.50867 0.3981,0.0705 1.4781,-0.62603 2.4,-1.54794 z m -91.1238,-6.3502 c 0,-0.89452 -1.22092,-2.0906 -2.71314,-2.65793 -3.8297,-1.45606 -41.95816,-6.86661 -42.75735,-6.06741 -1.63647,1.63647 1.036,3.99756 6.21994,5.49522 6.16962,1.78244 26.11729,4.54665 34.18388,4.73697 3.88142,0.0915 5.06667,-0.26092 5.06667,-1.50685 z m 295.52985,-1.25713 c 4.40806,-3.70915 6.3368,-8.4304 6.3368,-15.51154 0,-18.3913 -18.24308,-11.45578 -19.97028,7.59215 -0.49075,5.41204 -0.25924,6.5734 1.70111,8.53375 3.12869,3.12869 7.76788,2.88983 11.93237,-0.61436 z m -344.74044,-7.07639 c 1.36304,-1.64237 -0.66117,-3.75501 -8.21674,-8.57571 -2.545032,-1.62381 -5.425031,-4.35455 -6.4,-6.0683 -2.155354,-3.78858 -4.176701,-4.01389 -5.043046,-0.56209 -1.09481,4.36207 3.567264,10.05331 11.787914,14.39013 4.967017,2.62036 6.262882,2.75468 7.871872,0.81597 z m 47.96513,-1.61113 c 0.66429,-4.69261 -3.40806,-7.22249 -20.7934,-12.91754 -9.02974,-2.95794 -17.20279,-5.37808 -18.16235,-5.37808 -0.95954,0 -4.29536,0.80405 -7.41293,1.78677 -4.59987,1.44999 -6.409977,1.55916 -9.603083,0.57916 -4.732605,-1.45248 -6.11477,-0.83726 -4.576484,2.03706 4.174506,7.80014 34.007027,17.08683 53.260367,16.57966 6.40152,-0.16864 6.96053,-0.37475 7.28788,-2.68703 z m 128.65058,2.01618 c -0.99133,-0.99133 -8.97356,-2.47973 -42.84686,-7.98941 -17.42997,-2.83508 -21.93559,-4.43841 -23.26729,-8.27967 -0.70589,-2.0361 -0.91754,-1.66128 -1.27145,2.25156 -0.26275,2.90505 0.0594,4.99343 0.84533,5.47914 1.60168,0.98989 41.21805,7.44335 52.07835,8.4835 12.47988,1.19526 15.6142,1.20715 14.46192,0.0548 z m 150.43595,-8.50145 c 0.96022,-2.89098 3.19415,-7.25563 4.96429,-9.69921 1.77012,-2.4436 3.06306,-4.56785 2.87318,-4.72058 -0.18988,-0.15272 -3.71541,-1.54807 -7.83452,-3.10078 -10.26451,-3.86923 -13.57547,-3.73211 -16.95776,0.70227 -2.93911,3.85339 -7.48089,13.43557 -6.726,14.19045 1.03541,1.03541 18.4893,7.84641 20.15399,7.86465 1.19329,0.0131 2.35703,-1.7149 3.52682,-5.2368 z m -152.59499,3.54219 c 2.10576,-0.80805 2.21349,-4.25569 0.15765,-5.04459 -0.84128,-0.32283 -5.52128,-1.1148 -10.4,-1.75994 -4.87873,-0.64513 -16.89518,-2.35235 -26.70326,-3.79382 -20.01171,-2.94108 -25.75592,-3.25386 -25.12738,-1.36824 0.96048,2.88144 19.90205,7.30017 46.69357,10.89277 14.10398,1.89126 13.3808,1.84077 15.37942,1.07382 z m 71.97888,-14.77748 c 22.04921,-2.9579 32.49339,-4.99909 52.79333,-10.31785 l 4.15164,-1.08777 -0.72257,-12.086 c -0.44434,-7.43216 -0.24195,-15.83364 0.52559,-21.8186 0.68649,-5.35293 1.00473,-9.97604 0.7072,-10.27356 -0.29752,-0.29753 -4.08228,0.44129 -8.41056,1.64181 -17.48363,4.84936 -52.80533,10.06814 -76.13627,11.24912 -19.88356,1.0065 -17.6,-2.06033 -17.6,23.63678 v 22.01167 l 16.26667,-0.66229 c 8.94666,-0.36424 21.73791,-1.39624 28.42497,-2.29331 z M 96.118153,306.13331 c 1.227778,-4.44933 0.91304,-24.81757 -0.44503,-28.79999 -1.075608,-3.15413 -1.769598,-3.73334 -4.473129,-3.73334 -3.035581,0 -3.235956,0.27403 -3.899802,5.33334 -0.472678,3.60236 -0.627804,1.87141 -0.477965,-5.33334 0.307857,-14.80274 1.923653,-17.96345 11.384493,-22.26963 l 7.12649,-3.24369 0.65914,-6.97667 c 0.87268,-9.23687 0.81955,-14.1635 -0.16954,-15.71934 -0.60066,-0.94484 -3.96038,-0.28249 -12.945504,2.55214 l -12.134316,3.82814 0.612419,32.64786 c 0.336831,17.95632 0.939955,33.48511 1.340273,34.5084 1.290249,3.29814 2.637195,0.8332 2.65398,-4.85683 0.01171,-3.96835 0.309275,-5.08375 1.050333,-3.93704 0.568699,0.88 1.041349,4.32875 1.050332,7.66389 0.02329,8.6453 1.409804,11.7642 5.041336,11.34024 2.027153,-0.23666 3.110445,-1.13404 3.62649,-3.00414 z m 10.950207,1.27966 c 0.60057,-0.97175 -1.37687,-37.23271 -2.16389,-39.67965 -0.41488,-1.28991 -0.74422,-1.19084 -1.69939,0.5112 -1.32921,2.36854 -1.82004,35.11592 -0.5719,38.15546 0.78703,1.9166 3.49453,2.53499 4.43518,1.01299 z m 39.06496,-32.71666 v -30.24443 l -17.58947,-5.87447 c -9.97415,-3.33112 -17.85952,-5.4375 -18.21322,-4.86518 -1.43468,2.32134 -1.75455,13.82252 -1.01515,36.49969 l 0.78541,24.08836 17.21622,5.77258 c 9.46892,3.17491 17.57621,5.56902 18.01621,5.32023 0.44,-0.24879 0.8,-14.06235 0.8,-30.69678 z m 302.71999,30.157 c 1.53732,-1.53732 1.7175,-7.25333 0.22864,-7.25333 -1.10174,0 -10.06205,2.05428 -12.81531,2.93809 -0.99699,0.32004 0.41003,1.46602 3.73333,3.04071 6.11634,2.8981 7.08966,3.03821 8.85334,1.27453 z m -32.58667,-6.02436 c 2.78667,-1.3175 5.06667,-2.77702 5.06667,-3.24338 0,-0.92765 -7.19807,-3.31892 -9.99042,-3.31892 -1.35926,0 -1.74292,1.07616 -1.74292,4.88888 0,2.6889 0.36,4.7044 0.8,4.47889 0.44,-0.22549 3.08,-1.48795 5.86667,-2.80547 z m 11.95274,-18.08044 c 0.36056,-1.64165 2.34443,-5.78841 4.4086,-9.21503 2.06417,-3.42662 3.52404,-6.82698 3.24415,-7.55637 -0.66309,-1.72798 -12.88863,-5.84379 -17.35832,-5.84379 -3.67798,0 -6.67107,2.99869 -10.45264,10.47219 -3.17667,6.27807 -2.16862,7.74873 7.9388,11.58198 4.98667,1.8912 9.62854,3.46268 10.31525,3.49218 0.68672,0.0296 1.54359,-1.28952 1.90416,-2.93116 z M 151.46666,265.59998 c 0,-6.58768 -0.46129,-11.89252 -1.06667,-12.26666 -0.68869,-0.42564 -1.06667,3.92101 -1.06667,12.26666 0,8.34566 0.37798,12.69231 1.06667,12.26667 0.60538,-0.37414 1.06667,-5.67899 1.06667,-12.26667 z m -51.579237,-1.6 c 1.954587,-3.52 3.559527,-6.72186 3.566517,-7.11524 0.0251,-1.40948 -6.30678,-2.06957 -8.515129,-0.88769 -2.61319,1.39854 -6.395688,7.18524 -6.401496,9.79341 -0.0058,2.58391 3.104701,5.30969 5.629114,4.93296 1.381936,-0.20624 3.45487,-2.6424 5.720994,-6.72344 z m 349.546147,-12 c 0.37879,-5.72 0.69118,-29.28815 0.69422,-52.37369 l 0.005,-41.9737 -5.96336,5.45017 c -6.7062,6.1291 -17.70237,12.98238 -26.69406,16.63688 -3.30951,1.34507 -6.42812,3.09392 -6.93026,3.88631 -1.12094,1.76889 -1.26315,74.50895 -0.14565,74.50338 0.44,-0.002 2.37161,-0.96219 4.29245,-2.13333 4.79947,-2.92624 7.58531,-2.64226 20.50755,2.09053 6.16,2.25611 11.72761,4.14959 12.37246,4.20774 0.73707,0.0665 1.42819,-3.7563 1.86114,-10.29429 z m -99.03359,2.35802 c 15.30607,-1.73832 35.15726,-5.45973 47.46666,-8.89836 l 6.93334,-1.93681 0.65537,-12.69476 c 1.25434,-24.29706 1.06803,-46.29475 -0.3921,-46.29475 -0.7352,0 -4.6952,0.96332 -8.8,2.14072 -18.92612,5.42861 -48.10267,9.57525 -79.1966,11.25557 l -13.06667,0.70612 -2e-5,29.48212 -2e-5,29.48213 15.73335,-0.77299 c 8.65335,-0.42515 22.45336,-1.53619 30.66669,-2.46899 z m -70.17295,-12.88653 c -0.36401,-0.36401 -2.96401,-1.10748 -5.77778,-1.65216 -10.03986,-1.94348 -55.27363,-8.35129 -58.4322,-8.2775 l -3.21706,0.0752 3.73333,1.36938 c 11.44203,4.19686 66.77706,11.56848 63.69371,8.48513 z m -132.49377,-5.35535 c 2.65669,-5.59856 4.38564,-16.76582 3.14286,-20.29966 -1.10075,-3.12997 -7.61686,-6.21471 -20.36721,-9.64189 -6.14125,-1.65072 -6.73415,-1.64708 -9.33534,0.0573 -5.89442,3.86217 -13.71351,20.06516 -10.97933,22.75172 1.76912,1.73829 29.44316,11.00492 32.88422,11.01124 2.18798,0.004 3.22067,-0.85647 4.6548,-3.87869 z M 98.828272,223.82046 c 9.278008,-3.35718 12.044398,-5.9769 4.905058,-4.645 -5.375582,1.00287 -20.316925,6.81142 -21.201126,8.24208 -1.054432,1.7061 5.854785,0.18102 16.296068,-3.59708 z m -18.828277,1.9624 c 0,-3.23958 -16.724213,-24.18287 -19.311174,-24.18287 -1.740243,0 2.91805,7.6929 10.172918,16.8 6.747693,8.47043 9.138256,10.40179 9.138256,7.38287 z m 192.533325,-0.71621 c 0.36258,-0.58666 0.43353,-1.06666 0.15767,-1.06666 -1.66797,0 -37.14373,-5.79848 -46.02434,-7.52264 -5.86666,-1.139 -11.26666,-2.07236 -12,-2.07413 -2.64042,-0.006 -1.26014,1.98827 2.13334,3.08289 5.27863,1.70271 32.2461,6.53336 41.86666,7.49954 12.43236,1.24854 13.14253,1.25269 13.86667,0.081 z M 93.0251,219.93488 c 0.595672,-0.59567 -0.916475,-1.45765 -3.855301,-2.19766 -5.534452,-1.39359 -7.036471,-3.45715 -7.036471,-9.66711 0,-3.91479 0.259481,-4.33679 2.666667,-4.33679 3.179815,0 3.566803,-2.09766 0.533333,-2.89093 -2.54629,-0.66587 -2.627411,-1.26233 -0.570992,-4.19827 3.134901,-4.47571 -0.484466,-4.68067 -12.289182,-0.69593 -5.342577,1.8034 -8.353878,3.35743 -8.048404,4.15348 0.268452,0.69958 4.398936,6.32903 9.178855,12.50988 l 8.690761,11.23793 4.875324,-1.46725 c 2.681428,-0.807 5.316362,-1.9083 5.85541,-2.44735 z m -0.430441,-7.93489 c -0.261514,-3.61443 -0.735652,-4.53334 -2.339141,-4.53334 -1.106128,0 -2.363692,0.96 -2.794586,2.13334 -1.153682,3.1415 0.614268,6.93333 3.232688,6.93333 1.962735,0 2.189851,-0.54159 1.901039,-4.53333 z m 7.138668,-0.25206 c 0,-4.86401 -2.76909,-6.47607 -4.753846,-2.76752 -1.781631,3.32902 -0.289971,7.73909 2.483826,7.3434 1.88179,-0.26844 2.27002,-1.05103 2.27002,-4.57588 z m 10.986663,2.43872 c 2.14941,-2.1494 1.45658,-5.10566 -1.4561,-6.21306 -3.74424,-1.42357 -3.6639,-1.47872 -3.6639,2.51528 0,4.9745 2.23159,6.5862 5.12,3.69778 z m 132.26666,0 c 1.85558,-1.85557 1.70724,-17.3042 -0.18119,-18.87146 -0.80365,-0.66698 -6.3919,-2.11444 -12.4183,-3.21661 l -10.9571,-2.00392 0.66309,9.34177 c 0.97249,13.70052 0.51982,13.16829 12.7136,14.94781 8.27239,1.20726 8.78501,1.1973 10.1799,-0.19759 z m -91.7305,-11.26525 c 0.2485,-4.32003 -0.0623,-5.75971 -1.35,-6.25386 -2.34231,-0.89883 -20.30633,4.82561 -19.05868,6.07326 1.54125,1.54125 15.57302,6.23055 17.95252,5.99959 1.78997,-0.17375 2.18529,-1.1103 2.45616,-5.81899 z m -35.63695,2.32468 c 0.35611,-0.92798 0.64746,-2.88137 0.64746,-4.34085 0,-2.14179 -0.46292,-2.58788 -2.4,-2.31276 -1.92782,0.27379 -2.46513,1.12782 -2.73106,4.34085 -0.27891,3.37005 -0.003,4 1.75255,4 1.14598,0 2.37496,-0.75925 2.73105,-1.68724 z m -18.552539,-0.44609 c 0,-0.58667 -1.44,-1.06667 -3.2,-1.06667 -1.76,0 -3.2,0.48 -3.2,1.06667 0,0.58666 1.44,1.06666 3.2,1.06666 1.76,0 3.2,-0.48 3.2,-1.06666 z m 6.789079,-4.30426 c -1.42045,-1.42045 -4.117632,1.51943 -3.02136,3.29323 0.53302,0.86244 1.24388,0.72324 2.44611,-0.479 1.18314,-1.18314 1.3568,-2.03268 0.57525,-2.81423 z m 5.02969,-1.82908 c -0.88699,-1.52288 -1.08723,-1.17909 -1.08723,1.86667 0,3.04576 0.20024,3.38955 1.08723,1.86667 0.73853,-1.26799 0.73853,-2.46535 0,-3.73334 z m 14.22732,3.35255 c 2.38618,-0.91566 2.09997,-3.61921 -0.38314,-3.61921 -2.34416,0 -3.71447,1.60646 -2.72962,3.2 0.7733,1.25122 0.90008,1.2683 3.11276,0.41921 z m -17.51276,-6.80032 c 0,-1.0937 1.2,-3.41467 2.66667,-5.1577 3.02405,-3.59388 3.34793,-5.33339 1.15002,-6.17681 -1.63419,-0.62709 -5.99002,1.29615 -7.26702,3.20863 -1.1061,1.65655 -0.99982,5.35216 0.24834,8.63506 1.15378,3.03468 3.20199,2.70896 3.20199,-0.50918 z m 36.35716,-0.12309 c 3.76357,-1.23065 7.44284,-2.72942 8.17617,-3.33061 2.14318,-1.75699 1.55866,-5.96865 -1.06666,-7.68564 -3.45883,-2.2621 -15.63823,-3.29508 -20.38401,-1.72883 -4.36258,1.43977 -4.86637,3.09506 -1.78948,5.8796 1.15125,1.04187 2.62848,3.51626 3.28273,5.49866 1.41254,4.28007 2.48975,4.40504 11.78125,1.36682 z m -21.15716,-0.13099 c -1.72552,-0.83219 -3.07447,-0.83219 -4.8,0 -2.10721,1.01627 -1.81442,1.15747 2.4,1.15747 4.21442,0 4.50721,-0.1412 2.4,-1.15747 z m 213.59999,-0.88137 c 19.33796,-1.33715 39.83882,-4.35257 54.09772,-7.95712 14.31028,-3.61753 16.38136,-4.7982 17.20971,-9.81077 0.9647,-5.83773 0.84303,-10.98222 -0.25975,-10.98222 -0.52377,0 -7.12377,1.39445 -14.66667,3.09877 -26.37488,5.9594 -55.80068,9.66667 -76.91434,9.69022 l -9.86667,0.011 -0.002,8.8 -0.002,8.8 7.20224,-0.27177 c 3.96124,-0.14948 14.40224,-0.76963 23.20224,-1.37812 z m -33.6,-7.41677 v -8.53334 l -9.33333,-0.002 c -10.10816,-0.003 -36.31507,-1.76 -41.06667,-2.75356 l -2.93333,-0.61335 v 9.15141 c 0,5.03329 0.36,9.20614 0.8,9.27302 2.81347,0.42767 30.55565,1.68094 40.53333,1.83112 l 12,0.18016 z m -58.20952,3.65714 c 1.8439,-1.8439 2.32909,-11.64119 0.70362,-14.20809 -1.31248,-2.07264 -20.41017,-5.66927 -22.2029,-4.18143 -1.97479,1.63893 -1.79322,13.04318 0.23445,14.726 1.22239,1.01448 11.97719,3.98521 18.86483,5.2109 0.3981,0.0708 1.4781,-0.62547 2.4,-1.54738 z m -133.70057,-9.63213 c 0.70423,-0.84854 1.94455,-5.69024 2.75627,-10.75932 3.21536,-20.07946 11.68038,-29.34125 28.14623,-30.79544 11.63457,-1.02752 11.67427,-1.04676 11.67427,-5.65858 0,-6.16735 -2.71984,-8.05892 -11.52666,-8.01645 -21.08937,0.10165 -35.66664,19.22143 -38.16912,50.06312 l -0.7302,8.99936 3.2844,-1.14495 c 1.80642,-0.62971 3.86059,-1.83921 4.56481,-2.68774 z m 42.57677,-13.34539 v -12.92036 l -7.43257,0.41998 c -8.83722,0.49934 -12.23183,2.53645 -15.80271,9.4832 -1.70567,3.31821 -2.34481,6.17396 -2.13333,9.53205 0.27528,4.37103 0.58458,4.8545 3.50194,5.4738 1.76,0.37362 7.4,0.73609 12.53333,0.80551 l 9.33334,0.1262 z m 271.22956,6.98009 c 18.371,-9.07836 28.39827,-20.94051 27.2586,-32.24662 l -0.35485,-3.52026 -6.69787,5.68082 c -3.68383,3.12445 -11.84383,8.50273 -18.13334,11.95174 -15.36128,8.42376 -15.16879,8.22444 -15.16879,15.7066 0,5.95745 0.1199,6.23467 2.69625,6.23467 1.48293,0 6.16293,-1.71313 10.4,-3.80695 z m -76.56291,-0.97505 c 36.49894,-4.31661 65.49421,-12.08164 84.26666,-22.56692 10.16768,-5.67912 19.64037,-17.52655 19.70991,-24.65107 0.0342,-3.50446 -1.28338,-3.01597 -8.18117,3.03314 -11.68943,10.25121 -28.18925,18.25904 -51.25857,24.87721 -23.86795,6.84729 -36.22266,8.60428 -71.83037,10.21513 -27.57229,1.24735 -51.56222,0.1913 -75.08991,-3.30545 -22.28819,-3.31256 -21.34987,-3.38723 -21.34987,1.69893 0,3.57896 0.46091,4.47319 2.91087,5.64743 3.56889,1.71053 26.72815,5.14776 44.02246,6.53369 17.11826,1.37182 59.60088,0.55198 76.79999,-1.48209 z m -184.21505,-20.5157 c 0.26371,-4.47168 -0.13237,-5.91995 -2.31081,-8.4495 l -2.62908,-3.0528 -0.73992,2.94035 c -0.79916,3.17577 0.11221,9.69365 1.7951,12.83817 1.77833,3.32284 3.55168,1.37077 3.88471,-4.27622 z m 56.74839,3.02735 c 0,-0.51537 -5.08501,-2.69359 -11.30003,-4.84048 -11.41796,-3.94418 -29.27924,-12.37164 -36.87707,-17.39965 -5.20031,-3.4414 -6.86266,-2.13179 -2.22763,1.75493 6.42594,5.38849 19.47677,12.08192 32.57709,16.70794 12.88394,4.54962 17.82764,5.59706 17.82764,3.77726 z m -55.7833,-19.50355 c 0.43254,-3.93212 0.0134,-5.30615 -2.79393,-9.15943 -1.81654,-2.49333 -3.7798,-4.53333 -4.36278,-4.53333 -2.02471,0 -1.0439,7.76908 1.77331,14.04665 3.16368,7.04961 4.57923,6.95657 5.3834,-0.35389 z m 163.62691,4.40432 c 24.26013,-1.22986 36.2204,-2.85988 54.28972,-7.39894 16.6104,-4.17257 29.48284,-8.82948 41.59999,-15.04975 10.65611,-5.47025 23.46667,-15.11333 23.46667,-17.66441 0,-2.443328 -7.35526,-16.324278 -11.93455,-22.523021 C 420.94236,60.544068 403.93104,46.291401 384.53331,36.739628 352.23012,20.832988 321.3825,15.598734 281.59998,19.273805 226.07852,24.402825 179.12917,53.326352 160.83578,93.67157 l -3.22577,7.11427 5.6648,5.07374 c 3.11564,2.79056 5.95728,5.07375 6.31475,5.07375 0.35748,0 2.54606,-3.93861 4.86353,-8.75245 14.04318,-29.170557 38.06709,-53.101662 67.32686,-67.066775 9.59618,-4.580071 28.6806,-11.205496 35.3485,-12.271738 3.8039,-0.608266 4.03297,-0.470027 5.37608,3.24426 1.3936,3.853951 1.36881,3.918291 -3.75084,9.732744 -14.43671,16.395993 -18.11023,20.945501 -24.01012,29.735616 -11.21137,16.703575 -21.93058,40.538993 -26.16425,58.179223 -1.75153,7.29805 -1.74356,7.57561 0.27515,9.59359 1.50384,1.5033 5.76686,2.7018 15.41218,4.33297 25.15648,4.25435 44.86407,4.9979 82.24361,3.10297 z m 43.42383,-42.363746 c -0.87809,-1.026667 -4.83254,-8.072 -8.78768,-15.656295 -3.95514,-7.584295 -9.07534,-16.564203 -11.37822,-19.955352 -2.30289,-3.391148 -4.63541,-7.344978 -5.1834,-8.786287 -1.16201,-3.056315 -2.25471,-2.44682 14.7359,-8.219481 l 12.12073,-4.118086 7.07927,5.000916 c 8.09037,5.715165 31.76096,28.421636 34.52161,33.115523 1.74532,2.967546 1.74532,3.219613 0,4.787426 -3.48719,3.132517 -19.23896,10.315381 -28.51822,13.004401 -11.02834,3.195891 -12.49309,3.278941 -14.58999,0.827235 z M 221.86665,133.44745 c 0,-1.07887 -0.37755,-1.24632 -12.71083,-5.637 -4.93764,-1.75782 -14.93485,-5.79428 -22.21603,-8.96991 -13.793,-6.0157 -15.20647,-6.45546 -15.20647,-4.731 0,1.60902 18.40927,10.19072 33.147,15.45187 13.42691,4.79322 16.98633,5.60752 16.98633,3.88604 z m 17.66327,-46.160688 c 3.59035,-6.845612 9.781,-17.549512 13.75699,-23.786445 3.97599,-6.236934 7.03628,-11.532665 6.80066,-11.768291 -0.62609,-0.626096 -22.28003,-7.99883 -25.46587,-8.670618 -2.0588,-0.434137 -4.71678,0.769343 -11.04063,4.998993 -8.34793,5.583439 -29.67495,25.61079 -33.18949,31.166925 -1.7916,2.832362 -1.78849,3.053793 0.072,5.10964 4.00128,4.421367 33.85922,16.101814 39.90404,15.610483 2.21012,-0.179641 3.68556,-2.21845 9.16226,-12.660687 z m -23.52993,5.639964 c -12.72325,-4.395087 -19.6732,-7.617096 -21.70124,-10.060729 -1.05727,-1.273932 -0.35792,-2.651034 3.85133,-7.58374 6.63156,-7.771369 19.76007,-19.56468 28.03634,-25.184982 l 6.50149,-4.415085 10.07542,3.472966 c 5.54149,1.910133 10.54939,4.044064 11.12869,4.742072 0.73521,0.885871 -0.36966,3.391047 -3.65883,8.296061 -2.59165,3.864826 -7.99434,13.286038 -12.00598,20.936025 -4.46783,8.519929 -7.91382,13.897732 -8.89389,13.879808 -0.88,-0.0161 -6.88,-1.853173 -13.33333,-4.082396 z"
       id="path3843"
       inkscape:connector-curvature="0" />
  </g>
</svg>
