<?xml version="1.0" encoding="UTF-8"?>
<!DOCTYPE svg PUBLIC "-//W3C//DTD SVG 1.1//EN" "http://www.w3.org/Graphics/SVG/1.1/DTD/svg11.dtd">
<!-- Creator: CorelDRAW 2019 (64-Bit) -->
<svg xmlns="http://www.w3.org/2000/svg" xml:space="preserve" width="350px" height="350px" version="1.1" style="shape-rendering:geometricPrecision; text-rendering:geometricPrecision; image-rendering:optimizeQuality; fill-rule:evenodd; clip-rule:evenodd"
viewBox="0 0 350 350"
 xmlns:xlink="http://www.w3.org/1999/xlink"
 xmlns:xodm="http://www.corel.com/coreldraw/odm/2003">
 <defs>
  <style type="text/css">
   <![CDATA[
    .fil0 {fill:white}
   ]]>
  </style>
 </defs>
 <g id="Layer_x0020_1">
  <metadata id="CorelCorpID_0Corel-Layer"/>
  <path class="fil0" d="M18.6 81.74c0,-34.73 28.41,-63.14 63.14,-63.14l87.1 0 0 12.59c-75.04,2.65 -135.45,62.75 -138.6,137.65l-11.64 0 0 -87.1zm131.16 68.89c-2.91,-9.43 -2.3,-20.6 2.77,-29.33 1.12,-1.92 3.91,-5.13 5.67,-6.45 7.04,-5.32 15.83,-7.36 24.99,-5.95 10.16,1.57 12.76,6.04 17.41,14.24 2.12,3.73 3.58,7.05 6.01,9.71 0.96,1.05 2.89,2.47 4.59,3.26 1.97,0.93 4.33,1.28 6.73,0.96 7.37,-0.98 14.28,-8.95 9.94,-18.75 -3.17,-7.16 -9.39,-11.13 -17.77,-13.89 -15.86,-5.21 -39.17,-6.19 -55.4,-0.95 -10.97,3.54 -22.14,10.31 -27.18,20.19 -6.04,11.84 -2.74,27.82 6.5,35.07 10.45,8.2 17.3,8.92 20.74,11.08l-10.96 4.71c-10.32,4.76 -20.34,11.74 -24.97,22.61 -7.45,17.49 2.26,32.35 15.91,42.15 18.2,13.07 56.17,14.07 77.21,3.6 10.39,-5.17 22.05,-13.3 21.8,-25.48 -0.05,-2.3 -0.55,-4.45 -1.43,-6.34 -4.79,-10.26 -18.74,-11.67 -25.16,-2.82 -3.49,4.8 -7.13,21.23 -13.71,25.81 -1.64,1.15 -2.53,2.04 -4.78,3.06 -4.16,1.89 -8.53,2.62 -13.65,2.39 -19.4,-0.9 -29.03,-15.94 -28.82,-34.67 0.09,-7.6 1.9,-13.73 6.27,-19.39 0.35,-0.46 0.45,-0.75 0.85,-1.19 3.11,-3.38 6.91,-6.31 11.97,-8 10.9,-3.62 19.87,0.01 28.81,-0.02 4.53,-0.01 10.74,-0.86 11.26,-4.85 1.2,-9.2 -19.63,-5.53 -24.55,-5.02 -7.32,0.76 -13.95,0.87 -20.43,-2.56 -3.77,-1.99 -5.97,-4.24 -8.17,-7.77 -0.95,-1.54 -1.86,-3.5 -2.45,-5.41zm31.4 -132.03l88.27 0c34.73,0 63.14,28.42 63.14,63.14l0 87.1 -14.78 0c-3.13,-74.25 -62.51,-133.94 -136.63,-137.57l0 -12.67zm151.41 162.56l0 85.7c0,34.73 -28.41,63.14 -63.14,63.14l-88.27 0 0 -11.27c74.12,-3.62 133.5,-63.32 136.63,-137.57l14.78 0zm-163.73 148.84l-87.1 0c-34.72,0 -63.14,-28.41 -63.14,-63.14l0 -85.7 11.64 0c3.15,74.91 63.56,135.01 138.6,137.66l0 11.18zm137.38 -148.84l-17.37 0c-3.08,58.28 -49.54,105.06 -107.69,108.62l0 17.38c67.73,-3.61 121.95,-58.14 125.06,-126zm-29.11 0l-16.12 0 0 -12.32 16.12 0c-3.05,-51.8 -44.28,-93.34 -95.95,-96.87l0 17.04 -12.32 0 0 -17.16c-52.59,2.59 -94.84,44.53 -97.93,96.99l19.37 0 0 12.32 -19.37 0c3.09,52.46 45.34,94.4 97.93,96.99l0 -17.16 12.32 0 0 17.05c51.67,-3.54 92.9,-45.08 95.95,-96.88zm-217.94 0l-17.36 0c3.14,68.52 58.38,123.45 127.03,126.09l0 -17.36c-59.07,-2.62 -106.55,-49.79 -109.67,-108.73zm109.67 -121.04l0 -17.36c-68.65,2.63 -123.89,57.56 -127.03,126.08l17.36 0c3.11,-58.93 50.6,-106.11 109.67,-108.72zm120.01 108.72l17.37 0c-3.11,-67.86 -57.33,-122.39 -125.06,-125.99l0 17.37c58.15,3.57 104.61,50.34 107.69,108.62zm-13.85 -168.84l-200 0c-41.25,0 -75,33.75 -75,75l0 200c0,41.25 33.75,75 75,75l200 0c41.25,0 75,-33.75 75,-75l0 -200c0,-41.25 -33.75,-75 -75,-75z"/>
 </g>
</svg>
