<?xml version="1.0" encoding="UTF-8"?>
<!DOCTYPE svg PUBLIC "-//W3C//DTD SVG 1.1//EN" "http://www.w3.org/Graphics/SVG/1.1/DTD/svg11.dtd">
<!-- Creator: CorelDRAW 2019 (64-Bit) -->
<svg xmlns="http://www.w3.org/2000/svg" xml:space="preserve" width="350px" height="350px" version="1.1" style="shape-rendering:geometricPrecision; text-rendering:geometricPrecision; image-rendering:optimizeQuality; fill-rule:evenodd; clip-rule:evenodd"
viewBox="0 0 350 350"
 xmlns:xlink="http://www.w3.org/1999/xlink"
 xmlns:xodm="http://www.corel.com/coreldraw/odm/2003">
 <defs>
  <style type="text/css">
   <![CDATA[
    .fil0 {fill:white}
   ]]>
  </style>
 </defs>
 <g id="Layer_x0020_1">
  <metadata id="CorelCorpID_0Corel-Layer"/>
  <path class="fil0" d="M112.24 84.56c12.89,-8.96 27.77,-15.23 43.85,-18.01l3.62 -1.14 -1.92 -44.08 -0.12 -0.01c-29.75,3.28 -57.12,14.79 -79.08,32.78l-0.09 0.07 29.81 32.54 3.93 -2.15zm-21.02 31.87c-8.26,11.79 -14.09,25.41 -16.77,40.12l51.94 7.54c1.3,-5.78 3.59,-11.17 6.71,-16l-41.88 -31.66zm-24.56 38.99c2.89,-16.06 9.25,-30.9 18.29,-43.74l1.76 -3.37 -16.27 -14.9 -16.27 -14.91 -0.16 0.18c-17.37,21.8 -28.98,48.39 -32.5,77.47l-0.18 1.64 44.08 1.92 1.25 -4.29zm7.67 37.4c2.6,14.74 8.35,28.39 16.53,40.23l42.07 -31.4c-3.08,-4.84 -5.35,-10.26 -6.6,-16.05l-52 7.22zm10.23 44.94c-8.96,-12.89 -15.23,-27.77 -18.01,-43.86l-1.13 -3.61 -44.09 1.92 0.23 2.11c3.52,28.25 14.66,54.13 31.31,75.52l1.3 1.66 32.54 -29.81 -2.15 -3.93zm31.87 21.02c11.79,8.26 25.41,14.09 40.12,16.77l7.55 -51.94c-5.78,-1.3 -11.18,-3.59 -16.01,-6.7l-31.66 41.87zm38.99 24.56c-16.06,-2.88 -30.91,-9.25 -43.74,-18.29l-3.37 -1.76 -29.81 32.46 1.75 1.46c21.61,16.78 47.78,27.95 76.35,31.33l1.19 0.13 1.92 -44.08 -4.29 -1.25zm37.4 -7.67c14.74,-2.6 28.39,-8.35 40.23,-16.53l-31.39 -42.07c-4.85,3.08 -10.27,5.35 -16.06,6.6l7.22 52zm44.94 -10.23c-12.88,8.96 -27.77,15.23 -43.85,18.01l-3.62 1.13 1.92 44.09 0.64 -0.05c28.93,-3.32 55.43,-14.64 77.24,-31.68l1.41 -1.11 -29.81 -32.54 -3.93 2.15zm21.02 -31.87c8.26,-11.79 14.09,-25.41 16.77,-40.12l-51.94 -7.55c-1.3,5.78 -3.59,11.18 -6.7,16.01l41.87 31.66zm24.56 -38.99c-2.88,16.05 -9.25,30.91 -18.29,43.74l-1.76 3.37 32.54 29.81 0.77 -0.95c17.12,-21.77 28.53,-48.24 31.94,-77.16l0.13 -1.18 -44.08 -1.92 -1.25 4.29zm-7.67 -37.41c-2.6,-14.73 -8.34,-28.38 -16.53,-40.22l-42.07 31.4c3.08,4.84 5.34,10.26 6.6,16.05l52 -7.23zm-10.23 -44.93c8.96,12.89 15.23,27.77 18.01,43.85l1.14 3.62 44.08 -1.92 -0.15 -1.48c-3.5,-29.08 -15.08,-55.67 -32.43,-77.48l-0.26 -0.33 -32.54 29.81 2.15 3.93zm-31.87 -21.02c-11.79,-8.26 -25.41,-14.09 -40.12,-16.77l-7.55 51.94c5.78,1.3 11.18,3.59 16.01,6.71l31.66 -41.88zm-38.99 -24.56c16.05,2.89 30.9,9.25 43.73,18.29l3.38 1.76 29.81 -32.54 -0.49 -0.4c-22.08,-17.51 -49.06,-29.11 -78.54,-32.42l-0.26 -0.02 -1.92 44.08 4.29 1.25zm-37.4 7.67c-14.74,2.6 -28.39,8.35 -40.23,16.53l31.4 42.07c4.84,-3.08 10.26,-5.35 16.05,-6.6l-7.22 -52z"/>
  <path class="fil0" d="M180 196.4l-0.56 18.32 -8.86 0 -0.58 -18.32c-0.19,-6.55 10.18,-6.55 10,0zm-0.8 25.9l5.69 49.67 -19.81 -0.01 5.72 -49.66 8.4 0zm5.8 57.18l0 42.62c-6.81,0.46 -13.19,0.46 -20,0l0 -42.62 20 0zm0 50.12l-5 15.33c-2.27,6.76 -7.73,6.76 -10,0l-5 -15.33c6.89,0.44 13.11,0.44 20,0zm8.67 -166.2l12.55 -13.37c-1.85,-2.3 -3.95,-4.4 -6.25,-6.24l-13.37 12.55c-4.78,4.48 2.55,11.83 7.07,7.06zm17.73 -18.89l39.14 -31.08c-4.18,-5.13 -8.87,-9.82 -13.99,-14l-31.08 39.16c2.15,1.8 4.13,3.78 5.93,5.92zm44.55 -36.32l30.14 -30.14c-4.39,-5.02 -9.12,-9.75 -14.14,-14.14l-30.14 30.14c5.15,4.26 9.88,8.99 14.14,14.14zm35.44 -35.44l7.3 -14.38c3.18,-6.36 -0.69,-10.24 -7.05,-7.06l-14.39 7.3c5.01,4.4 9.74,9.13 14.14,14.14zm-94.99 107.25l18.32 -0.56 0 -8.86 -18.32 -0.57c-6.55,-0.2 -6.55,10.17 0,9.99zm25.9 -0.8l49.67 5.69 -0.01 -19.81 -49.66 5.72 0 8.4zm57.18 5.8l42.62 0 0 -20 -42.62 0 0 20zm50.12 0l15.33 -5c6.76,-2.27 6.76,-7.73 0,-9.99l-15.33 -5.01 0 20zm-166.2 -28.67l-13.37 -12.54c-2.3,1.84 -4.4,3.94 -6.25,6.24l12.56 13.37c4.48,4.78 11.83,-2.55 7.06,-7.07zm-18.89 -17.73l-31.08 -39.14c-5.13,4.18 -9.82,8.87 -14,13.99l39.16 31.08c1.8,-2.15 3.78,-4.13 5.92,-5.93zm-36.32 -44.55l-30.14 -30.14c-5.02,4.39 -9.75,9.12 -14.14,14.14l30.14 30.14c4.26,-5.15 8.99,-9.88 14.14,-14.14zm-35.44 -35.44l-14.39 -7.3c-6.36,-3.18 -10.23,0.7 -7.05,7.06l7.3 14.38c4.4,-5.01 9.13,-9.74 14.14,-14.14zm107.25 95l-0.56 -18.33 -8.86 0 -0.58 18.33c-0.19,6.54 10.18,6.54 10,0zm-0.8 -25.91l5.69 -49.67 -19.81 0.01 5.72 49.66 8.4 0zm5.8 -57.18l0 -42.62 -20 0 0 42.62 20 0zm0 -50.12l-5 -15.33c-2.27,-6.76 -7.73,-6.76 -10,0l-5 15.33c6.89,-0.44 13.11,-0.44 20,0zm-21.6 173.26l-13.36 12.56c-2.31,-1.84 -4.41,-3.94 -6.26,-6.25l12.56 -13.37c4.49,-4.78 11.84,2.56 7.06,7.06zm-18.87 17.75l-31.1 39.14c-5.13,-4.18 -9.82,-8.88 -14,-14l39.16 -31.08c1.8,2.15 3.79,4.14 5.94,5.94zm-36.34 44.54l-30.14 30.14c-5.02,-4.39 -9.75,-9.12 -14.14,-14.14l30.14 -30.14c4.26,5.15 8.99,9.89 14.14,14.14zm-35.44 35.44l-14.39 7.3c-6.36,3.18 -10.23,-0.69 -7.05,-7.05l7.3 -14.39c4.4,5.01 9.13,9.74 14.14,14.14zm80.85 -111.39l-18.32 -0.56 0 -8.86 18.32 -0.57c6.55,-0.2 6.55,10.17 0,9.99zm-25.9 -0.8l-49.67 5.69 0.01 -19.81 49.66 5.72 0 8.4zm-57.18 5.8l-42.62 0 0 -20 42.62 0 0 20zm-50.12 0l-15.33 -5c-6.76,-2.27 -6.76,-7.73 0,-9.99l15.33 -5.01 0 20zm173.26 1.6l12.56 13.36c-1.84,2.31 -3.94,4.41 -6.25,6.26l-13.37 -12.56c-4.78,-4.49 2.56,-11.84 7.06,-7.06zm17.75 18.87l39.13 31.11c-4.18,5.12 -8.87,9.81 -13.99,13.99l-31.08 -39.16c2.15,-1.8 4.14,-3.79 5.94,-5.94zm44.54 36.34l30.14 30.14c-4.39,5.02 -9.12,9.75 -14.14,14.14l-30.14 -30.14c5.15,-4.25 9.88,-8.99 14.14,-14.14zm35.44 35.44l7.3 14.39c3.18,6.36 -0.69,10.23 -7.05,7.05l-14.39 -7.3c5.01,-4.4 9.74,-9.13 14.14,-14.14z"/>
 </g>
</svg>
