<svg id="Layer_1" enable-background="new 0 0 512.002 512.002" height="512" viewBox="0 0 512.002 512.002" width="512" xmlns="http://www.w3.org/2000/svg"><g><g clip-rule="evenodd" fill-rule="evenodd"><path d="m256.001 30 86.603 50v100l-86.603 50-86.602-50v-100z" fill="#9de3d1"/><g fill="#5cd0b3"><ellipse cx="169.398" cy="80" rx="20" ry="20" transform="matrix(.553 -.833 .833 .553 9.05 176.872)"/><ellipse cx="256.001" cy="129.999" rx="20" ry="20" transform="matrix(.974 -.228 .228 .974 -22.883 61.736)"/><ellipse cx="342.604" cy="80" rx="20" ry="20" transform="matrix(.973 -.23 .23 .973 -9.215 80.854)"/><ellipse cx="256.001" cy="30" rx="20" ry="20" transform="matrix(.973 -.232 .232 .973 .017 60.141)"/><ellipse cx="169.398" cy="180" rx="20" ry="20" transform="matrix(.707 -.707 .707 .707 -77.664 172.504)"/><ellipse cx="256.001" cy="230" rx="20" ry="20" transform="matrix(.387 -.922 .922 .387 -55.212 376.91)"/><ellipse cx="342.604" cy="180" rx="20" ry="20" transform="matrix(.973 -.23 .23 .973 -32.191 83.53)"/></g><path d="m386.001 402.002h-260c-11 0-17.332 9.329-20 20l-10 40h320l-10-40c-2.668-10.672-9.001-20-20-20z" fill="#a7bdcd"/><path d="m416.001 462.002h-320c-11 0-20 9-20 20v20h360v-20c0-11-9-20-20-20z" fill="#6d91ac"/></g><g><path d="m424.088 453.118-8.385-33.541c-4.315-17.267-15.419-27.576-29.701-27.576h-260c-14.282 0-25.385 10.309-29.701 27.575l-8.386 33.542c-12.625 3.54-21.913 15.144-21.913 28.884v20c0 5.523 4.477 10 10 10h360c5.522 0 10-4.477 10-10v-20c-.001-13.74-9.289-25.344-21.914-28.884zm1.913 38.884h-340v-10c0-5.508 4.476-9.989 9.982-9.999.008 0 .017.001.025.001.019 0 .039-.002.058-.002h114.931c5.523 0 10-4.477 10-10s-4.477-10-10-10h-102.188l6.894-27.575c1.16-4.64 4.04-12.425 10.298-12.425h260c6.258 0 9.138 7.784 10.298 12.426l6.894 27.574h-102.196c-5.522 0-10 4.477-10 10s4.478 10 10 10h115.004c5.514 0 10 4.486 10 10z"/><path d="m246.001 291.216v70.784c0 5.523 4.477 10 10 10s10-4.477 10-10v-70.784c0-5.523-4.478-10-10-10s-10 4.477-10 10z"/><path d="m177.338 367c1.852 3.208 5.213 5.002 8.669 5.002 1.696 0 3.416-.433 4.991-1.342 4.783-2.761 6.422-8.877 3.66-13.66l-75.356-130.521c-2.762-4.784-8.878-6.422-13.66-3.66-4.783 2.761-6.422 8.877-3.66 13.66z"/><path d="m321.002 370.66c1.575.91 3.294 1.342 4.99 1.342 3.456 0 6.818-1.794 8.67-5.002l75.356-130.521c2.762-4.783 1.123-10.899-3.66-13.66-4.785-2.763-10.9-1.123-13.66 3.66l-75.356 130.521c-2.762 4.783-1.123 10.899 3.66 13.66z"/><path d="m139.399 180c0 16.542 13.458 30 30 30 7.429 0 14.23-2.72 19.475-7.209l37.638 21.73c-.33 1.778-.51 3.607-.51 5.478 0 16.542 13.458 30 30 30s30-13.458 30-30c0-1.872-.181-3.701-.51-5.479l37.638-21.73c5.245 4.489 12.047 7.209 19.475 7.209 16.542 0 30-13.458 30-30 0-13.037-8.361-24.152-20.001-28.28v-43.44c11.64-4.128 20.001-15.243 20.001-28.28 0-16.542-13.458-30-30-30-7.429 0-14.23 2.72-19.476 7.209l-37.638-21.73c.33-1.778.51-3.607.51-5.479 0-16.542-13.458-30-30-30s-30 13.458-30 30c0 1.872.181 3.701.51 5.479l-37.638 21.73c-5.244-4.488-12.046-7.208-19.474-7.208-16.542 0-30 13.458-30 30 0 13.036 8.361 24.152 20 28.28v43.441c-11.639 4.127-20 15.242-20 28.279zm116.602-120c7.429 0 14.23-2.72 19.475-7.209l37.638 21.73c-.33 1.778-.51 3.607-.51 5.479s.181 3.701.51 5.479l-37.638 21.73c-5.245-4.489-12.046-7.209-19.475-7.209s-14.23 2.72-19.475 7.209l-37.638-21.73c.33-1.778.51-3.607.51-5.479s-.181-3.701-.51-5.479l37.637-21.73c5.246 4.489 12.047 7.209 19.476 7.209zm56.603 120c0 1.872.181 3.701.51 5.479l-37.638 21.73c-2.77-2.37-5.973-4.246-9.475-5.488v-43.441c11.639-4.129 19.999-15.244 19.999-28.28 0-1.871-.181-3.7-.51-5.478l37.638-21.731c2.77 2.37 5.972 4.246 9.474 5.488v43.441c-11.638 4.129-19.998 15.244-19.998 28.28zm-46.604-50c0 5.514-4.485 10-10 10-5.514 0-10-4.486-10-10s4.486-10 10-10c5.515 0 10 4.485 10 10zm-77.126-27.209 37.638 21.73c-.33 1.778-.51 3.607-.51 5.479 0 13.036 8.361 24.152 20 28.28v43.441c-3.502 1.242-6.705 3.118-9.475 5.489l-37.638-21.73c.33-1.778.51-3.607.51-5.479 0-13.036-8.361-24.151-20-28.279v-43.441c3.502-1.244 6.705-3.12 9.475-5.49zm-19.475 87.209c-5.514 0-10-4.486-10-10s4.486-10 10-10 10 4.486 10 10-4.486 10-10 10zm86.602 50c-5.514 0-10-4.486-10-10s4.486-10 10-10 10 4.486 10 10-4.486 10-10 10zm86.603-50c-5.514 0-10-4.486-10-10s4.486-10 10-10 10 4.486 10 10-4.487 10-10 10zm0-120c5.514 0 10 4.486 10 10s-4.486 10-10 10-10-4.486-10-10 4.486-10 10-10zm-86.603-50c5.514 0 10 4.486 10 10s-4.485 10-10 10c-5.514 0-10-4.486-10-10s4.486-10 10-10zm-86.602 50c5.514 0 10 4.486 10 10s-4.486 10-10 10-10-4.486-10-10 4.486-10 10-10z"/><path d="m256.001 452.002h-.007c-5.523 0-9.996 4.477-9.996 10s4.48 10 10.003 10 10-4.477 10-10-4.477-10-10-10z"/></g></g></svg>