<?xml version="1.0" encoding="UTF-8"?>
<!DOCTYPE svg PUBLIC "-//W3C//DTD SVG 1.1//EN" "http://www.w3.org/Graphics/SVG/1.1/DTD/svg11.dtd">
<!-- Creator: CorelDRAW 2019 (64-Bit) -->
<svg xmlns="http://www.w3.org/2000/svg" xml:space="preserve" width="213px" height="256px" version="1.1" style="shape-rendering:geometricPrecision; text-rendering:geometricPrecision; image-rendering:optimizeQuality; fill-rule:evenodd; clip-rule:evenodd"
viewBox="0 0 213.79 257.34"
 xmlns:xlink="http://www.w3.org/1999/xlink"
 xmlns:xodm="http://www.corel.com/coreldraw/odm/2003">
 <defs>
  <style type="text/css">
   <![CDATA[
    .fil0 {fill:white}
   ]]>
  </style>
 </defs>
 <g id="Layer_x0020_1">
  <metadata id="CorelCorpID_0Corel-Layer"/>
  <path class="fil0" d="M82.05 99.73l5.27 -10.89 6.99 0 3.5 10.96 -6.34 48.72 -3.43 0.04 -5.99 -48.83zm54.47 90.14c4.59,-3.98 6.11,-2.1 15.32,6.18l10.6 11.19 6.09 18.25 32.51 18.38 12.75 13.47 -53.38 0 -13.42 -3.84 -46.95 -6.82 -13.19 -12.52 -13.57 -3.92c-3.41,-1.7 -9.26,-6.35 -7.4,-10.09 1.73,-3.48 7.71,-2.15 11.49,-1.24l6.7 1.28 -2.4 -7.21c-2.28,-3.06 -2.94,-12.21 1.13,-11.28 4.96,1.14 8.11,4.48 9.22,8.6l5.84 12.84 4.51 1.13 2.3 -15.86c-1.1,-2.95 1.86,-9.01 6.26,-8.11 6.17,1.27 2.02,10.18 3.19,14.8l-1.06 10.25 4.06 2.15 -0.25 -4.99 2.19 -6.39c4.16,-10.75 9.05,-13.05 13.35,-10.27 4.45,2.88 -0.76,8.88 -3.36,13.63l-0.92 6.92 1.16 3.64 7.93 2.83 13.55 -9.32 -2.33 -11.92 -9.17 -7.09c-2.38,-2.71 -7.51,-10.53 -2.75,-14.67zm-83.86 -78.62l9.27 -13.67 -5.35 -8.28 -24.6 0.36 -7.84 7.2 1.42 8.27 7.13 8.28 19.97 -2.16zm78.53 0l-9.28 -13.67 5.35 -8.28 24.61 0.36 7.84 7.2 -1.42 8.27 -7.14 8.28 -19.96 -2.16zm-53.91 -12.22l9.2 -18.57 8.94 0 7.93 18.83 -7.8 57.25 -10.6 0.39 -7.67 -57.9zm28.37 80.6l10.22 0 0 17.87 12.22 -0.22 7.05 -49.01 49.47 -5.89 10.74 -44.38c12.72,-52.58 -43.37,-98 -96.86,-98 -53.49,0 -108.76,45.23 -96.86,98l9.61 42.61 42.04 6.8 8.1 51.05 11.3 -0.2 0 -18.63 10.22 0 0 18.45 6.14 -0.11 0 -18.34 10.22 0 0 18.17 6.39 -0.12 0 -18.05zm-78.46 -95.04l35.27 -0.52 7.66 11.87 -13.28 19.6 -28.63 3.09 -10.22 -11.86 -2.04 -11.86 11.24 -10.32zm99.16 30.95l-13.29 -19.6 7.67 -11.87 35.26 0.52 11.25 10.32 -2.05 11.86 -10.22 11.86 -28.62 -3.09z"/>
 </g>
</svg>
