<?xml version="1.0" encoding="UTF-8"?>
<!DOCTYPE svg PUBLIC "-//W3C//DTD SVG 1.1//EN" "http://www.w3.org/Graphics/SVG/1.1/DTD/svg11.dtd">
<!-- Creator: CorelDRAW 2019 (64-Bit) -->
<svg xmlns="http://www.w3.org/2000/svg" xml:space="preserve" width="256px" height="256px" version="1.1" style="shape-rendering:geometricPrecision; text-rendering:geometricPrecision; image-rendering:optimizeQuality; fill-rule:evenodd; clip-rule:evenodd"
viewBox="0 0 256 256"
 xmlns:xlink="http://www.w3.org/1999/xlink"
 xmlns:xodm="http://www.corel.com/coreldraw/odm/2003">
 <defs>
  <style type="text/css">
   <![CDATA[
    .fil0 {fill:none}
    .fil1 {fill:white}
   ]]>
  </style>
 </defs>
 <g id="Layer_x0020_1">
  <metadata id="CorelCorpID_0Corel-Layer"/>
  <rect class="fil0" width="256" height="256"/>
  <path class="fil1" d="M103.68 99.21l5.24 -10.84 6.95 0 3.48 10.91 -6.31 48.46 -3.4 0.04 -5.96 -48.57zm54.18 89.67c4.56,-3.96 6.08,-2.09 15.24,6.14l10.54 11.13 6.07 18.16 32.34 18.28 12.68 13.41 -53.1 0 -13.35 -3.82 -46.71 -6.79 -13.11 -12.45 -13.5 -3.9c-3.4,-1.7 -9.22,-6.32 -7.37,-10.04 1.72,-3.46 7.67,-2.14 11.43,-1.23l6.67 1.27 -2.39 -7.17c-2.27,-3.05 -2.92,-12.14 1.12,-11.22 4.94,1.13 8.07,4.46 9.17,8.55l5.81 12.78 4.49 1.12 2.29 -15.77c-1.09,-2.94 1.85,-8.97 6.22,-8.08 6.15,1.27 2.02,10.13 3.18,14.73l-1.05 10.2 4.03 2.13 -0.25 -4.97 2.18 -6.35c4.14,-10.69 9,-12.98 13.28,-10.21 4.44,2.86 -0.75,8.83 -3.34,13.56l-0.91 6.88 1.15 3.61 7.89 2.83 13.48 -9.28 -2.32 -11.85 -9.12 -7.05c-2.37,-2.71 -7.47,-10.49 -2.74,-14.6zm-83.42 -78.21l9.23 -13.6 -5.33 -8.24 -24.47 0.36 -7.8 7.16 1.41 8.23 7.1 8.24 19.86 -2.15zm78.12 0l-9.23 -13.6 5.33 -8.24 24.47 0.36 7.8 7.16 -1.41 8.23 -7.1 8.24 -19.86 -2.15zm-53.63 -12.15l9.15 -18.48 8.9 0 7.88 18.73 -7.75 56.96 -10.55 0.38 -7.63 -57.59zm28.22 80.17l10.17 0 0 17.78 12.16 -0.22 7.01 -48.75 49.21 -5.87 10.68 -44.14c12.66,-52.31 -43.13,-97.49 -96.35,-97.49 -53.21,0 -108.19,44.99 -96.35,97.49l9.56 42.39 41.82 6.76 8.05 50.79 11.25 -0.2 0 -18.54 10.16 0 0 18.36 6.11 -0.11 0 -18.25 10.17 0 0 18.07 6.35 -0.11 0 -17.96zm-78.05 -94.54l35.09 -0.52 7.62 11.81 -13.22 19.5 -28.47 3.07 -10.17 -11.8 -2.03 -11.8 11.18 -10.26zm98.65 30.79l-13.22 -19.5 7.62 -11.81 35.09 0.52 11.18 10.26 -2.03 11.8 -10.17 11.8 -28.47 -3.07z"/>
 </g>
</svg>
