<?xml version="1.0" encoding="UTF-8"?>
<!DOCTYPE svg PUBLIC "-//W3C//DTD SVG 1.1//EN" "http://www.w3.org/Graphics/SVG/1.1/DTD/svg11.dtd">
<!-- Creator: CorelDRAW 2019 (64-Bit) -->
<svg xmlns="http://www.w3.org/2000/svg" xml:space="preserve" width="400px" height="283px" version="1.1" style="shape-rendering:geometricPrecision; text-rendering:geometricPrecision; image-rendering:optimizeQuality; fill-rule:evenodd; clip-rule:evenodd"
viewBox="0 0 400 282.86"
 xmlns:xlink="http://www.w3.org/1999/xlink"
 xmlns:xodm="http://www.corel.com/coreldraw/odm/2003">
 <defs>
  <style type="text/css">
   <![CDATA[
    .fil0 {fill:white}
   ]]>
  </style>
 </defs>
 <g id="Layer_x0020_1">
  <metadata id="CorelCorpID_0Corel-Layer"/>
  <path class="fil0" d="M135.42 53.15l46.04 3.36c0.04,-0.4 0.08,-0.81 0.13,-1.21 1.57,-13.48 8.03,-24.57 16.86,-26.03 0.45,-0.08 0.92,-0.13 1.39,-0.15 1.63,-0.08 3.22,0.11 4.75,0.54 8.51,2.39 15.08,12.37 15.04,26.82l0 0.03 45.94 -3.36 4.72 -5.73 -5.9 -12.3 -17.25 -10.69 -11.07 -6.85 -6.57 0 -47.73 0 -16.85 0 -11.06 6.85 -17.26 10.69 -5.9 12.3 4.72 5.73zm161.36 -4.88l-17.97 4.44 -4.53 5.5 -2.87 0.21 -0.33 8.39 -2.56 0.95 5.47 11.39 -0.01 0.72 9.53 -1.53 7.2 -1.16 11.52 -5.62 2.81 -14.05 -0.44 -0.49 -7.82 -8.75zm-23.24 -0.62l17.97 -4.44 108.49 -26.81 -9.28 -5.22 -140.15 13.25 17.26 10.69 5.9 12.3 -0.19 0.23zm88.36 99.01l-17.8 -4.86 -12.37 15.66 1.69 10.48 -5.62 16.86 12.93 8.14 12.08 -3.65 10.11 -16.86 -1.02 -25.77zm-39.16 -66.11l-7.58 7.31 -0.9 -0.23 -1.91 5.85 7.02 51.13 11.24 10.12 0.28 -0.36 12.37 -15.65 17.8 4.85 0.74 0.2 5.62 -25.28 -35.97 -66.6 -7.58 -1.96 3.65 13.76 -7.23 2.69 0.21 0.12 2.24 14.05zm-29.5 -1.96l-7.2 1.15 25.69 6.49 0.9 0.22 7.58 -7.3 -2.24 -14.05 -0.21 -0.13 -10.63 -6.55 0.44 0.5 -2.81 14.05 -11.52 5.62zm-33.34 -8.52l-7.93 24.44 -18.04 0.46 0 0.05c-0.03,0.76 -0.08,1.51 -0.13,2.26l10.13 29.07c-10.35,39.66 -7.17,82.29 13.21,128.69l0.04 0.37 3.61 27.45 31.18 -5.34 -5.33 -50.02c5.23,-36.04 -0.19,-71.38 -17.42,-105.92l0.84 -41.87 -5.47 -11.39 -4.69 1.75zm-31.87 -5.85l4.21 27.94 18.05 -0.46 7.92 -24.44 4.69 -1.75 2.56 -0.95 0.33 -8.39 -41.73 3.05 3.97 5zm-56.19 31.64c1.05,20.76 5.37,39.04 12.43,55.36 4.35,10.08 9.75,19.4 16.06,28.09 16.23,-22.35 26.72,-48.87 28.72,-81.58 0.04,-0.62 0.07,-1.24 0.11,-1.87l-0.01 -0.03 -4.21 -27.95 -3.97 -5.01 -1.34 0.1c-0.02,7.51 -1.83,16.22 -6.07,25.71 -11.92,6.66 -18.5,6.24 -28.18,0.32 -3.6,-8.37 -4.71,-17.61 -3.92,-26.02l-1.47 -0.11 -3.94 5.01 -4.21 27.95 0 0.03zm-9.26 1.79l-25.56 28.98 -40.74 86.83 18.26 8.42 16.02 -8 7.86 -13.49 5.9 -2.95 4.5 7.59 14.33 -10.26 -3.51 -11.66 20.97 -29.92c-7.05,-16.32 -11.37,-34.61 -12.43,-55.36l0.01 -0.03 -5.61 -0.15zm-19.29 -28.78l2.58 7.97 5.35 16.48 18.04 0.48 4.21 -27.96 3.94 -5.01 -41.79 -3.05 0.42 8.4 7.25 2.69zm-27.4 4.02l-1.38 8.57 -2.13 13.21 -27.25 33.44 0.03 0.03 6.99 6.85 0.14 10.26 0 0.7 16.16 -8.43 34.9 -58.99 -2.59 -7.97 -7.25 -2.7 -0.42 -8.39 -2.78 -0.2 -4.37 -5.32 -18.63 -4.62 8.58 23.56zm-115.89 -56.49l107.99 26.82 18.62 4.62 -0.34 -0.42 5.9 -12.3 17.48 -10.83 -140.38 -13.11 -9.27 5.22zm90.46 121.4l-6.98 -6.85 -14.51 17.53 -1.7 8.72 -0.55 2.8 6.04 10.54 10.26 -1.83 7.58 -8.15 0 -11.8 -0.14 -10.96zm-10.11 -6.88l27.25 -33.44 2.14 -13.21 -8.32 -20.79 -6.46 21.92 -8.99 4.07c-49.1,56.06 -70.75,87.48 -79.38,107.2 -0.93,6.87 2.25,8.43 7.31,7.44l50.28 -46.91 1.7 -8.72 14.51 -17.53 -0.04 -0.03zm101.42 -116.14l47.73 0 -8.42 -14.43 -30.91 -0.35 -8.4 14.78zm17.02 18.02c-7.28,1.44 -12.62,12.3 -13.92,25.51 -0.03,0.39 -0.07,0.79 -0.1,1.19 -0.65,8.24 0.26,17.29 3.24,25.49 7.98,5.8 13.41,6.22 23.26,-0.31 3.5,-9.29 4.99,-17.83 5.01,-25.19l0 -0.03c0.03,-14.15 -5.39,-23.94 -12.42,-26.28 -1.26,-0.42 -2.57,-0.6 -3.92,-0.52 -0.39,0.02 -0.77,0.07 -1.15,0.14z"/>
 </g>
</svg>
