<?xml version="1.0" encoding="UTF-8"?>
<!DOCTYPE svg PUBLIC "-//W3C//DTD SVG 1.1//EN" "http://www.w3.org/Graphics/SVG/1.1/DTD/svg11.dtd">
<!-- Creator: CorelDRAW 2019 (64-Bit) -->
<svg xmlns="http://www.w3.org/2000/svg" xml:space="preserve" width="256px" height="256px" version="1.1" style="shape-rendering:geometricPrecision; text-rendering:geometricPrecision; image-rendering:optimizeQuality; fill-rule:evenodd; clip-rule:evenodd"
viewBox="0 0 256 256"
 xmlns:xlink="http://www.w3.org/1999/xlink"
 xmlns:xodm="http://www.corel.com/coreldraw/odm/2003">
 <defs>
  <style type="text/css">
   <![CDATA[
    .fil0 {fill:none}
    .fil1 {fill:red}
    .fil2 {fill:red;fill-rule:nonzero}
   ]]>
  </style>
 </defs>
 <g id="Layer_x0020_1">
  <metadata id="CorelCorpID_0Corel-Layer"/>
  <rect class="fil0" width="256" height="256"/>
  <path class="fil1" d="M99.24 4.62c-27.18,9.29 -59.32,24.15 -85.82,36.32 -17.47,8.01 -18.34,12.94 0.09,20.85l28.66 12.29c12.1,5.89 3.46,-3.59 17.03,-7.94 5.44,-1.75 61.4,-26.74 67.69,-28.67 3.39,-1.04 8.41,0.36 10.21,3.69 1.52,2.83 3.95,9.36 -6.85,14.6 -9.66,4.69 -44.86,19.81 -56.88,24.74 -1.83,0.75 -8.72,2.87 -0.83,7.39 10.26,5.87 35.88,13.06 37.15,13.22 14.19,1.79 23.21,2.22 37.43,-0.42 15.97,-2.98 79.86,-30.82 105.54,-43.06 4.7,-2.24 4.66,-10.14 -1.52,-13.02 -27.18,-12.64 -57.1,-24.81 -84.77,-36.4 -21.51,-9.01 -44.86,-11.19 -67.13,-3.59zm55.5 32.78l9.55 0.7c0.01,-0.09 0.02,-0.17 0.03,-0.26 0.33,-2.79 1.67,-5.09 3.5,-5.4 0.09,-0.01 0.19,-0.02 0.29,-0.03 0.34,-0.02 0.67,0.02 0.98,0.11 1.77,0.5 3.13,2.57 3.13,5.57l0 0 9.53 -0.69 0.98 -1.19 -1.22 -2.55 -3.58 -2.22 -2.3 -1.42 -1.36 0 -9.91 0 -3.5 0 -2.3 1.42 -3.58 2.22 -1.22 2.55 0.98 1.19zm33.49 -1.01l-3.73 0.92 -0.94 1.14 -0.6 0.04 -0.07 1.74 -0.53 0.2 1.14 2.36 0 0.15 1.98 -0.31 1.49 -0.24 2.39 -1.17 0.58 -2.92 -0.09 -0.1 -1.62 -1.81zm-4.82 -0.13l3.72 -0.92 22.52 -5.57 -1.92 -1.08 -29.09 2.75 3.58 2.22 1.22 2.55 -0.03 0.05zm18.34 20.55l-3.7 -1.01 -2.57 3.25 0.35 2.17 -1.16 3.5 2.68 1.69 2.51 -0.76 2.1 -3.5 -0.21 -5.34zm-8.13 -13.73l-1.58 1.52 -0.18 -0.05 -0.4 1.22 1.46 10.61 2.33 2.1 0.06 -0.07 2.56 -3.25 3.7 1.01 0.15 0.04 1.17 -5.25 -7.47 -13.82 -1.57 -0.41 0.76 2.86 -1.5 0.55 0.04 0.03 0.47 2.91zm-6.13 -0.4l-1.49 0.24 5.33 1.34 0.19 0.05 1.57 -1.52 -0.46 -2.91 -0.05 -0.03 -2.2 -1.36 0.09 0.1 -0.58 2.92 -2.4 1.17zm-6.92 -1.77l-1.64 5.07 -3.75 0.1 0.01 0.01c-0.01,0.15 -0.02,0.31 -0.03,0.47l2.1 6.03c-2.15,8.23 -1.49,17.08 2.74,26.71l0.01 0.08 0.75 5.69 6.47 -1.1 -1.11 -10.38c1.09,-7.49 -0.03,-14.82 -3.61,-21.99l0.17 -8.69 -1.13 -2.36 -0.98 0.36zm-6.61 -1.21l0.87 5.8 3.75 -0.1 1.64 -5.07 0.98 -0.37 0.53 -0.19 0.07 -1.75 -8.67 0.64 0.83 1.04zm-11.66 6.56c0.22,4.31 1.11,8.11 2.58,11.49 0.9,2.09 2.02,4.03 3.33,5.83 3.37,-4.64 5.55,-10.14 5.96,-16.93 0.01,-0.13 0.02,-0.26 0.02,-0.39l0 0 -0.87 -5.81 -0.83 -1.03 -0.27 0.02c-0.01,1.56 -0.38,3.36 -1.26,5.33 -2.48,1.39 -3.84,1.3 -5.85,0.07 -0.75,-1.74 -0.98,-3.66 -0.82,-5.4l-0.3 -0.02 -0.82 1.03 -0.87 5.81 0 0zm-1.92 0.37l-5.31 6.02 -8.46 18.02 3.79 1.75 3.33 -1.66 1.63 -2.8 1.23 -0.62 0.93 1.58 2.97 -2.13 -0.73 -2.42 4.36 -6.21c-1.47,-3.39 -2.36,-7.18 -2.58,-11.49l0 -0.01 -1.16 -0.03zm-4.01 -5.97l0.54 1.66 1.11 3.42 3.74 0.09 0.87 -5.8 0.82 -1.04 -8.67 -0.63 0.09 1.74 1.5 0.56zm-5.68 0.84l-0.29 1.77 -0.44 2.75 -5.66 6.93 0.01 0.01 1.45 1.42 0.03 2.13 0 0.15 3.35 -1.75 7.24 -12.25 -0.53 -1.65 -1.51 -0.56 -0.09 -1.74 -0.57 -0.04 -0.91 -1.11 -3.87 -0.96 1.79 4.9zm-24.06 -11.73l22.42 5.57 3.86 0.96 -0.07 -0.09 1.22 -2.55 3.63 -2.25 -29.13 -2.72 -1.93 1.08zm18.78 25.2l-1.45 -1.42 -3.01 3.63 -0.36 1.81 -0.11 0.58 1.25 2.19 2.13 -0.38 1.58 -1.69 0 -2.45 -0.03 -2.27zm-2.1 -1.43l5.65 -6.94 0.45 -2.74 -1.73 -4.32 -1.34 4.55 -1.87 0.85c-10.19,11.63 -14.68,18.15 -16.47,22.24 -0.2,1.43 0.46,1.76 1.52,1.55l10.43 -9.74 0.35 -1.81 3.02 -3.63 -0.01 -0.01zm21.05 -24.11l9.91 0 -1.75 -2.99 -6.42 -0.07 -1.74 3.06zm3.53 3.75c-1.51,0.29 -2.62,2.55 -2.89,5.29 -0.01,0.08 -0.01,0.16 -0.02,0.25 -0.14,1.71 0.05,3.58 0.67,5.29 1.66,1.2 2.79,1.29 4.83,-0.07 0.73,-1.93 1.04,-3.7 1.04,-5.23l0 0c0.01,-2.94 -1.12,-4.97 -2.58,-5.46 -0.26,-0.08 -0.53,-0.12 -0.81,-0.11 -0.08,0.01 -0.16,0.02 -0.24,0.04zm-107.99 37.95c-3.47,2.03 -4.99,4.4 -5.98,9.98 -0.02,0.11 -3.11,68.24 -4.42,85.66 -1.44,18.95 16.81,16.46 18.7,5.68 1.24,-7.1 -2.95,-41.36 -3.83,-53.86 -0.37,-5.15 -2.64,-24.43 -1.87,-34.47 0.32,-4.17 2.89,-5.89 5.3,-6.97 10.85,-4.86 57.05,-24.16 62.55,-27.23 1.79,-0.99 2.8,-3.86 2.09,-5.82 -0.72,-1.96 -3.41,-2.47 -5.59,-1.84 -5,1.46 -63.49,26.85 -66.95,28.87zm8.51 19.44c-2.5,11.02 2.12,41.3 4.8,42.18 33.56,11.11 90.54,17.08 121.46,-5.54 5.33,-3.9 3.7,-34.97 2.8,-40.86 -15.04,7.27 -25.71,12.7 -35.78,15.59 -21.99,6.31 -37.68,8.23 -64.45,0.82 -8.7,-2.42 -16.76,-7.09 -28.83,-12.19z"/>
  <path class="fil2" d="M26.8 166.77l0 66.99 28.26 0 0 22.24 -55.06 0 0 -89.23 26.8 0zm62.43 0l28.64 0 29.9 89.23 -87.35 0 17.26 -55.73 22.51 0 -8.95 35.1 23.58 0 -25.59 -68.6zm139.71 0c9.4,0 16.25,1.86 20.56,5.59 4.33,3.72 6.5,9.28 6.5,16.65l0 66.99 -27.06 0 0 -55.73c0,-3.31 -0.07,-5.61 -0.23,-6.95 -0.15,-1.34 -0.53,-2.32 -1.16,-2.92 -0.6,-0.63 -1.58,-1.01 -2.92,-1.16 -1.34,-0.16 -3.64,-0.23 -6.95,-0.23l-37.91 0 0 66.99 -26.66 0 0 -89.23 75.83 0zm-11.26 33.5l0 55.73 -26.66 0 0 -55.73 26.66 0z"/>
 </g>
</svg>
