<?xml version="1.0" encoding="iso-8859-1"?>
<!-- Generator: Adobe Illustrator 19.0.0, SVG Export Plug-In . SVG Version: 6.00 Build 0)  -->
<svg version="1.1" id="Layer_1" xmlns="http://www.w3.org/2000/svg" xmlns:xlink="http://www.w3.org/1999/xlink" x="0px" y="0px"
	 viewBox="0 0 512 512" style="enable-background:new 0 0 512 512;" xml:space="preserve">
<path style="fill:#EE3840;" d="M256,11.584c-115.795,0-209.665,93.871-209.665,209.665c15.102-22.353,40.675-37.434,69.682-37.434
	c29.17,0,54.86,14.869,69.929,37.434l35.177-83.769h69.502l35.175,83.769c15.067-22.565,40.758-37.434,69.929-37.434
	s54.869,14.869,69.937,37.434C465.665,105.455,371.794,11.584,256,11.584z"/>
<rect x="222.904" y="362.153" style="fill:#FFB14D;" width="66.189" height="46.335"/>
<path style="fill:#FFE1D6;" d="M256,11.584c-38.598,0-69.973,93.871-69.973,209.665c15.067-22.565,40.675-37.434,69.845-37.434
	c29.17,0,54.904,14.869,69.973,37.434C325.844,105.455,294.598,11.584,256,11.584z"/>
<polygon style="fill:#FF9E24;" points="330.618,396.901 181.382,396.901 181.382,443.236 256,466.403 330.618,443.236 "/>
<rect x="181.388" y="443.239" style="fill:#FFB14D;" width="149.233" height="57.177"/>
<path style="fill:#11113F;" d="M474.14,229.134c0.134-0.145,0.266-0.291,0.393-0.441c0.107-0.126,0.208-0.254,0.309-0.385
	c0.11-0.144,0.215-0.291,0.32-0.439c0.093-0.133,0.186-0.265,0.273-0.401c0.122-0.191,0.233-0.388,0.343-0.586
	c0.08-0.144,0.159-0.287,0.233-0.434c0.124-0.246,0.241-0.496,0.348-0.751c0.046-0.112,0.086-0.226,0.129-0.338
	c0.081-0.213,0.158-0.427,0.227-0.646c0.037-0.119,0.071-0.239,0.104-0.359c0.06-0.218,0.115-0.439,0.163-0.661
	c0.025-0.12,0.052-0.24,0.074-0.36c0.042-0.228,0.074-0.46,0.102-0.693c0.014-0.116,0.032-0.232,0.043-0.348
	c0.023-0.263,0.035-0.528,0.041-0.796c0.002-0.089,0.009-0.178,0.009-0.268C477.236,99.241,377.989,0,255.999,0
	C134.004,0,34.755,99.248,34.75,221.242c0,0.07,0.007,0.139,0.008,0.208c0.005,0.285,0.017,0.568,0.043,0.847
	c0.01,0.108,0.027,0.214,0.039,0.322c0.029,0.242,0.063,0.483,0.105,0.721c0.021,0.114,0.045,0.226,0.069,0.339
	c0.05,0.232,0.105,0.46,0.169,0.686c0.031,0.112,0.063,0.224,0.097,0.336c0.072,0.231,0.153,0.456,0.239,0.68
	c0.039,0.102,0.074,0.205,0.116,0.307c0.119,0.288,0.25,0.571,0.393,0.848c0.056,0.109,0.118,0.215,0.178,0.322
	c0.115,0.206,0.232,0.411,0.358,0.61c0.083,0.131,0.174,0.258,0.263,0.387c0.107,0.154,0.215,0.306,0.33,0.454
	c0.097,0.126,0.197,0.251,0.3,0.374c0.13,0.155,0.266,0.306,0.404,0.454c0.095,0.102,0.188,0.206,0.287,0.305
	c0.241,0.241,0.492,0.475,0.755,0.695c0.037,0.031,0.078,0.059,0.116,0.09c0.243,0.198,0.496,0.386,0.756,0.565
	c0.032,0.023,0.063,0.049,0.095,0.072l179.14,120.385c-4.481,1.6-7.694,5.869-7.694,10.9v23.167h-29.937
	c-6.398,0-11.584,5.187-11.584,11.584v103.516c0,6.397,5.186,11.584,11.584,11.584h149.235c6.397,0,11.584-5.187,11.584-11.584
	V396.901c0-6.397-5.187-11.584-11.584-11.584h-29.938V362.15c0-5.03-3.212-9.299-7.693-10.899l179.14-120.387
	c0.03-0.021,0.057-0.044,0.087-0.065c0.275-0.189,0.541-0.386,0.797-0.597c0.024-0.021,0.052-0.038,0.076-0.059
	c0.263-0.219,0.513-0.453,0.755-0.694C473.945,229.346,474.04,229.239,474.14,229.134z M199.553,222.281
	c13.71-16.943,34.307-26.883,56.319-26.883c22.096,0,42.765,10.018,56.474,27.08l-56.347,113.603L199.553,222.281z M176.31,227.681
	c0.053,0.08,0.118,0.149,0.174,0.228l49.736,100.271L63.186,218.618c13.691-14.703,32.737-23.22,52.83-23.22
	C140.272,195.399,162.813,207.468,176.31,227.681z M336.122,226.683c13.567-19.609,35.753-31.284,59.606-31.284
	c20.364,0,39.514,8.506,53.125,23.192L285.779,328.18L336.122,226.683z M451.663,190.283c-16.055-11.59-35.533-18.052-55.934-18.052
	c-21.679,0-42.312,7.305-58.907,20.298c-1.356-30.142-4.835-59.121-10.269-85.059c-1.311-6.26-7.443-10.276-13.713-8.961
	c-6.261,1.311-10.274,7.451-8.961,13.713c5.067,24.189,8.355,51.223,9.713,79.421c-16.389-12.428-36.55-19.413-57.72-19.413
	c-21.07,0-41.138,6.921-57.485,19.237c4.928-105.016,35.304-168.3,57.613-168.3c12.515,0,27.079,20.019,38.011,52.246
	c1.637,4.826,6.142,7.867,10.969,7.867c1.234,0,2.488-0.199,3.722-0.617c6.058-2.054,9.304-8.632,7.249-14.69
	c-5.565-16.406-11.901-29.949-18.891-40.519C376.728,44.313,438.88,109.203,451.663,190.283z M214.918,27.457
	c-7.174,10.86-13.656,24.862-19.326,41.873c-11.299,33.897-18.371,76.933-20.431,123.379
	c-16.634-13.108-37.363-20.479-59.144-20.479c-20.223,0-39.626,6.492-55.692,18.127C73.078,109.251,135.234,44.331,214.918,27.457z
	 M192.965,488.833v-34.013h126.068v34.013H192.965z M319.033,431.652H192.965v-23.167h126.068L319.033,431.652L319.033,431.652z
	 M234.486,385.317v-11.584h43.025v11.584H234.486z"/>
<g>
</g>
<g>
</g>
<g>
</g>
<g>
</g>
<g>
</g>
<g>
</g>
<g>
</g>
<g>
</g>
<g>
</g>
<g>
</g>
<g>
</g>
<g>
</g>
<g>
</g>
<g>
</g>
<g>
</g>
</svg>
