<?xml version="1.0" encoding="UTF-8" standalone="no"?>
<!-- Created with Inkscape (http://www.inkscape.org/) -->

<svg
   xmlns:dc="http://purl.org/dc/elements/1.1/"
   xmlns:cc="http://creativecommons.org/ns#"
   xmlns:rdf="http://www.w3.org/1999/02/22-rdf-syntax-ns#"
   xmlns:svg="http://www.w3.org/2000/svg"
   xmlns="http://www.w3.org/2000/svg"
   xmlns:sodipodi="http://sodipodi.sourceforge.net/DTD/sodipodi-0.dtd"
   xmlns:inkscape="http://www.inkscape.org/namespaces/inkscape"
   version="1.1"
   id="svg203"
   width="512"
   height="512"
   viewBox="0 0 512 512"
   sodipodi:docname="LightTAG.svg"
   inkscape:version="0.92.4 (5da689c313, 2019-01-14)">
  <metadata
     id="metadata209">
    <rdf:RDF>
      <cc:Work
         rdf:about="">
        <dc:format>image/svg+xml</dc:format>
        <dc:type
           rdf:resource="http://purl.org/dc/dcmitype/StillImage" />
        <dc:title></dc:title>
      </cc:Work>
    </rdf:RDF>
  </metadata>
  <defs
     id="defs207" />
  <sodipodi:namedview
     pagecolor="#ffffff"
     bordercolor="#666666"
     borderopacity="1"
     objecttolerance="10"
     gridtolerance="10"
     guidetolerance="10"
     inkscape:pageopacity="0"
     inkscape:pageshadow="2"
     inkscape:window-width="1366"
     inkscape:window-height="705"
     id="namedview205"
     showgrid="false"
     inkscape:pagecheckerboard="true"
     inkscape:zoom="0.43212893"
     inkscape:cx="237.88414"
     inkscape:cy="280.26539"
     inkscape:window-x="-8"
     inkscape:window-y="-8"
     inkscape:window-maximized="1"
     inkscape:current-layer="svg203" />
  <g
     id="g213"
     transform="matrix(0.93914742,0,0,0.93792661,-0.44200708,-0.47341053)">
    <path
       style="display:inline;fill:#fefefb;stroke-width:1.0666666"
       d="m 75.38864,542.2615 c -5.50011,-5.79083 -14.991925,-19.13331 -20.550821,-28.8879 -5.05908,-8.87753 -6.03058,-12.81446 -2.837822,-11.50007 6.233151,2.56608 6.43744,2.29755 3.905483,-5.13333 -2.595355,-7.61694 -1.423363,-7.83073 3.777363,-0.68902 8.28807,11.3813 13.852792,13.4138 17.382161,6.34879 2.863241,-5.73157 2.41989,-21.27665 -1.334681,-46.79757 -3.794819,-25.79448 -3.893979,-30.33614 -0.97372,-44.59801 2.547336,-12.44058 1.888309,-18.69943 -2.921452,-27.74535 -3.79171,-7.13122 -15.554677,-21.9297 -18.820871,-23.67772 -3.135636,-1.67813 -6.08095,-0.95863 -6.08095,1.4855 0,3.3423 4.511582,14.92355 10.332201,26.52279 6.306831,12.56817 10.353274,23.01378 9.316683,24.05036 -0.881542,0.88155 -2.624286,-1.7389 -8.441935,-12.69357 -6.051299,-11.39465 -13.609531,-19.21309 -18.573634,-19.21309 -2.36153,0 -3.860651,0.90146 -5.765053,3.46667 -5.77842,7.78346 -6.230361,14.28055 -2.355783,33.86666 2.956045,14.9429 3.222254,18.99268 1.497322,22.7785 -0.936331,2.05501 -0.693456,4.93229 1.138644,13.48932 1.280866,5.98241 2.068519,11.13744 1.750341,11.45561 C 33.027759,467.59444 6.5824874,384.11013 3.6514833,363.19998 3.2403139,360.26664 2.3705247,357.52395 1.718618,357.10508 0.06062741,356.0398 0.05176757,295.69992 1.709448,294.62751 2.356309,294.20904 3.2203166,291.22665 3.6294648,287.99998 5.8830405,270.2276 13.7205,240.71384 18.429602,232.26665 c 2.686665,-4.81934 5.614888,-5.49975 4.590528,-1.06666 -0.372796,1.61333 -2.295581,7.49333 -4.272856,13.06666 -9.8592549,27.79022 -11.6440691,38.9254 -11.7115661,73.06666 -0.056114,28.38345 1.0070493,39.16978 6.3721961,64.64916 5.555993,26.38573 15.392098,55.48843 15.392098,45.54158 0,-1.53985 -2.864736,-14.24271 -6.366079,-28.22858 -8.987101,-35.8983 -10.78399,-47.59633 -11.442962,-74.49549 -0.417685,-17.0499 -0.141882,-25.4572 1.15474,-35.2 2.05868,-15.46887 3.958967,-26.38422 4.499249,-25.84394 0.21884,0.21885 1.149737,6.36325 2.06866,13.65425 2.006712,15.92181 2.920857,19.09864 6.449651,22.41377 2.45256,2.30406 3.603992,2.53216 12.502376,2.47675 13.44755,-0.0837 20.941811,-2.54213 27.747898,-9.10232 5.418252,-5.22251 5.97493,-7.61736 1.909313,-8.21393 -6.721681,-0.98632 -4.898837,-15.11791 1.950069,-15.11791 0.630575,0 2.653322,1.44 4.494993,3.2 1.841671,1.76 3.972874,3.2 4.736007,3.2 1.703518,0 5.714595,-5.18833 9.39997,-12.15887 3.331408,-6.30104 3.374896,-7.07559 0.5783,-10.30009 -3.049927,-3.5166 -2.538581,-9.93371 0.829713,-10.41242 1.785851,-0.2538 2.674294,-1.44992 3.565314,-4.8 2.914695,-10.95873 6.322784,-14.47976 6.322784,-6.53233 0,4.35451 1.409312,4.70032 3.867302,0.94894 1.08693,-1.65887 2.16677,-2.33782 2.76566,-1.73893 1.68122,1.68122 -0.34275,8.67579 -4.14571,14.32697 -2.09031,3.1062 -3.240519,5.8068 -2.702362,6.34495 0.538155,0.53817 5.175502,-0.007 10.895252,-1.28123 5.58139,-1.24323 11.29375,-1.92485 12.9967,-1.55082 3.32174,0.72958 5.63544,4.42491 8.76872,14.00507 1.95221,5.96898 4.51801,9.15416 5.31838,6.60222 0.25072,-0.7994 0.71706,-4.00119 1.03633,-7.11509 0.40101,-3.91122 1.41822,-6.65724 3.2901,-8.88185 5.63447,-6.69619 2.04297,-12.33042 -4.07813,-6.39762 -1.89593,1.8376 -3.78429,3.3411 -4.19637,3.3411 -0.41206,0 -0.74921,-1.74496 -0.74921,-3.87768 0,-2.76605 0.76447,-4.58617 2.66667,-6.34907 2.26053,-2.095 2.66666,-3.42437 2.66666,-8.72871 0,-8.80735 -2.53219,-16.55964 -6.49939,-19.89782 -3.55171,-2.98856 -6.22227,-3.46505 -8.22061,-1.46672 -1.95551,1.95551 -1.56817,3.88238 1.92,9.55138 9.07348,14.7463 -2.513,11.57642 -17.86666,-4.88802 -10.517599,-11.2785 -10.244798,-14.64019 0.86982,-10.71872 4.01944,1.41814 4.80101,1.42833 6.14914,0.0802 1.34813,-1.34812 1.19817,-2.13083 -1.17982,-6.15796 -3.55721,-6.02422 -9.25522,-11.43259 -13.139097,-12.47126 -1.705023,-0.45598 -3.229421,-1.51453 -3.387551,-2.35234 -0.15813,-0.8378 1.889343,-5.23601 4.549938,-9.7738 6.29415,-10.735 8.441,-11.45871 14.97344,-5.04761 3.953,3.87958 4.91446,4.36791 6.31362,3.20671 2.26653,-1.88105 2.127,-3.14081 -1.64643,-14.86492 -2.99207,-9.2964 -3.26054,-11.26243 -2.9033,-21.26059 0.36526,-10.22254 0.58377,-11.16498 3.03027,-13.07026 4.61614,-3.59494 7.55327,-2.32116 11.26906,4.88719 4.40662,8.54854 11.91318,15.7653 21.12653,20.3109 9.97494,4.92136 17.16766,5.82295 21.17437,2.65415 4.8078,-3.80235 3.63088,-10.19897 -2.41816,-13.1428 -1.68801,-0.82148 -4.19582,-4.38355 -6.91517,-9.82225 -6.07193,-12.14385 -9.73413,-11.57019 -10.02701,1.57068 -0.104,4.66821 -0.14264,4.71881 -1.79751,2.35616 -1.41368,-2.01832 -2.50762,-2.36356 -6.66667,-2.10401 l -4.97548,0.31049 0.22605,-9.45396 c 0.30183,-12.62316 3.74219,-24.266687 6.38832,-21.620554 0.33318,0.333173 -0.50034,4.433754 -1.85225,9.112404 -2.0339,7.03882 -2.22016,8.79325 -1.07947,10.1677 0.75822,0.91359 1.97374,1.66108 2.70116,1.66108 0.72742,0 5.14337,-3.51827 9.81322,-7.81838 4.66985,-4.30011 10.71524,-9.34894 13.4342,-11.21964 7.00472,-4.819369 19.29201,-10.524199 25.8084,-11.982502 4.77589,-1.068797 6.09602,-0.983562 9.45521,0.610478 7.87538,3.737113 26.10939,28.276714 21.01086,28.276714 -0.56521,0 -4.10638,-2.88 -7.86927,-6.4 -3.76289,-3.52 -7.14045,-6.4 -7.50569,-6.4 -1.43852,0 -0.51832,3.423 2.53593,9.43338 6.16387,12.12971 3.55706,11.73838 -9.01357,-1.35313 -9.94176,-10.3537 -12.62927,-12.34692 -16.64765,-12.34692 -3.50052,0 -14.87211,6.59926 -14.87211,8.63072 0,0.95606 2.7882,5.1592 6.196,9.34031 7.37559,9.04926 11.34413,15.74377 9.87225,16.65345 -0.57596,0.35597 -3.10694,-1.61289 -5.62439,-4.37521 -2.51746,-2.76233 -6.54598,-7.17714 -8.95226,-9.8107 -3.13214,-3.42797 -4.89583,-4.58845 -6.20815,-4.08486 -2.84563,1.09197 -1.60625,5.19548 2.30435,7.6295 2.11683,1.31755 4.70969,4.61384 6.69608,8.51268 6.08944,11.95224 9.00525,13.40284 21.42176,10.65724 20.63538,-4.56301 38.29435,-18.23215 38.29435,-29.64222 0,-3.76377 -6.67814,-16.378144 -12.23325,-23.107435 -7.6797,-9.302969 -9.35767,-14.641 -5.44455,-17.320472 2.13437,-1.46149 7.56208,-0.825357 11.29444,1.32372 7.48938,4.312346 8.52035,4.682952 9.7121,3.491215 1.71974,-1.719753 -5.45513,-9.070658 -14.91511,-15.28104 -11.14369,-7.315724 -14.78004,-6.854546 -17.21363,2.183105 -2.01944,7.499629 -3.44741,8.155452 -26.66666,12.247163 -22.34811,3.938197 -22.4,3.944786 -22.4,2.844177 0,-2.429655 35.53244,-23.558429 56.42739,-33.553612 10.17696,-4.868184 14.9426,-6.541664 20.30549,-7.130359 5.55139,-0.609389 10.55319,-2.439667 24.07066,-8.808027 24.47641,-11.531349 49.17254,-20.510565 71.46312,-25.9831276 4.10666,-1.0082282 7.80896,-2.3543326 8.22731,-2.9913431 1.04896,-1.59718536 27.31292,-1.57526482 28.34394,0.023656 0.41914,0.6500216 3.09791,2.2077264 5.95281,3.4615661 11.6189,5.1028866 27.24305,18.9757746 35.01459,31.0899066 2.06998,3.226667 6.3506,10.666666 9.51248,16.533333 3.24794,6.026361 7.952,12.891893 10.81319,15.781794 6.7067,6.773965 8.12562,9.797352 9.41172,20.054198 1.36972,10.923747 3.64944,17.767092 7.1614,21.497342 3.54199,3.76215 5.84564,3.70071 9.99713,-0.26667 1.84166,-1.76 3.98754,-3.2 4.76861,-3.2 1.74406,0 4.76859,5.81019 9.6608,18.5586 2.04901,5.33944 4.14249,10.14372 4.6522,10.67619 1.59496,1.66622 3.71586,-1.0803 12.78135,-16.55164 10.88393,-18.57472 18.46488,-28.539199 21.79625,-28.649227 4.19744,-0.13863 27.897,32.872437 31.13593,43.369167 1.05168,3.4083 2.40523,6.53985 3.00788,6.959 1.56929,1.09147 1.4982,61.45467 -0.0736,62.47721 -0.64311,0.41838 -1.47949,3.16069 -1.85862,6.09403 -0.87001,6.73125 -16.88685,85.65724 -20.55187,101.27319 -2.97381,12.67081 -7.47812,24.96441 -11.45722,31.27018 -1.38476,2.19447 -8.52082,14.78995 -15.8579,27.98995 -21.46163,38.61122 -37.77992,63.09183 -52.49631,78.75468 -7.33026,7.80171 -10.04922,8.68714 -25.83997,8.41489 -16.76402,-0.28903 -20.53497,0.82522 -46.23546,13.66176 -21.08446,10.53099 -34.9478,15.83988 -50.53392,19.35168 -20.36271,4.58806 -27.00863,7.92266 -40.4524,20.29714 -9.11989,8.39451 -16.02348,12.73594 -29.47181,18.53384 -20.97116,9.04115 -47.06999,14.58213 -63.44736,13.47034 -7.06055,-0.47932 -9.8749,-1.28448 -17.23143,-4.92978 -10.68442,-5.29435 -19.81733,-13.07333 -17.79017,-15.15285 1.75743,-1.80283 8.22541,-0.11942 19.33874,5.03326 10.93378,5.06943 16.85708,6.10029 26.78836,4.66217 24.18104,-3.50161 69.04404,-19.35475 72.95319,-25.77931 2.04199,-3.35594 -0.36011,-3.35289 -10.28375,0.0131 -12.42622,4.21476 -43.34272,11.93572 -47.79355,11.93572 -5.64914,0 -10.08423,-2.8584 -13.1365,-8.46642 -1.54332,-2.83559 -2.80152,-6.77066 -2.79601,-8.7446 0.005,-2.00988 2.83555,-10.13644 6.43186,-18.47 3.53201,-8.18457 6.18256,-15.50457 5.89012,-16.26667 -0.32745,-0.85334 -2.38206,-1.38564 -5.34837,-1.38564 -3.75606,0 -5.53178,0.64589 -8.06446,2.93333 -2.87589,2.59743 -3.31314,3.78835 -3.81835,10.4 -0.88667,11.60332 -1.0433,11.96446 -6.17349,14.23378 -5.12034,2.26497 -13.46067,9.26926 -13.46067,11.30441 0,2.0841 4.41574,5.65413 14.99842,12.12589 5.45848,3.33808 10.11685,6.66925 10.35193,7.40258 1.08218,3.3758 -22.97582,-1.13342 -32.92866,-6.17186 -11.8682,-6.00804 -14.82169,-10.52318 -14.82169,-22.6587 0,-10.12624 -2.32323,-17.82122 -6.82001,-22.5892 -5.75231,-6.09922 -12.07357,-4.89838 -15.64724,2.97249 -3.82292,8.41985 -2.47577,16.17966 3.95816,22.79969 5.13702,5.2856 5.86695,8.68973 2.57023,11.98645 -2.05781,2.05781 -3.34021,2.48287 -17.63193,5.84432 -8.10227,1.90568 -12.67342,4.30032 -11.99706,6.28479 0.48359,1.4189 25.08074,1.70061 34.32476,0.39313 3.27607,-0.46337 4.90052,-0.3697 4.26667,0.24601 -1.23249,1.1972 -41.62179,19.29288 -43.061422,19.29288 -0.555371,0 -1.804447,0.79468 -2.775725,1.76597 -1.198419,1.19842 -4.247675,1.92522 -9.488063,2.26153 l -7.722103,0.49558 z m 13.678021,-11.59487 c 0,-1.43144 -0.830103,-2.25078 -2.523024,-2.4903 -3.075062,-0.43508 -4.928079,1.20248 -4.024675,3.5567 1.006583,2.62312 6.547699,1.72065 6.547699,-1.0664 z m 90.480379,-44.46899 c -0.1024,-1.53196 -1.43335,-4.76089 -2.95757,-7.17539 l -2.77127,-4.38999 2.69089,-1.02307 c 3.12191,-1.18696 3.35088,-3.20377 1.0909,-9.60922 -2.33958,-6.63108 -2.02573,-9.13137 2.3046,-18.35913 2.14753,-4.57631 3.53709,-8.67763 3.08794,-9.11405 -1.62238,-1.57634 -10.22033,9.69876 -11.97436,15.70285 -3.03402,10.38544 -0.78434,30.10779 4.10653,36.00093 1.95615,2.35702 4.63361,1.12619 4.42234,-2.03293 z m 125.36794,-8.9138 c 1.17508,-1.49386 2.92129,-6.16655 3.88047,-10.38373 1.6863,-7.41412 6.41768,-17.83347 8.09811,-17.83347 0.45165,0 2.53537,-1.61667 4.63047,-3.59262 4.84386,-4.56834 4.93036,-7.81543 0.57075,-21.42525 -5.15638,-16.09715 -10.39465,-20.25359 -15.65815,-12.42439 -3.18,4.73011 -3.19416,10.9057 -0.0367,15.98303 3.45924,5.5625 3.37837,19.81154 -0.17802,31.36641 -1.40625,4.56895 -2.88234,8.50837 -3.28022,8.75428 -0.39788,0.2459 -0.50273,-5.66443 -0.233,-13.13405 0.48941,-13.55355 0.48449,-13.58817 -2.42423,-17.04499 -4.12581,-4.90325 -6.79183,-6.1656 -8.79365,-4.16379 -1.41363,1.41365 -1.32073,2.29854 0.82294,7.83748 1.92989,4.98656 2.51088,9.03621 2.88518,20.11056 0.49481,14.64006 1.69161,18.66666 5.54817,18.66666 1.11722,0 2.99275,-1.22225 4.16783,-2.71613 z m 38.2981,-6.92261 c 8.39493,-2.90495 42.20803,-20.59911 50.02783,-26.17921 3.76028,-2.68327 7.99981,-6.64194 9.4212,-8.79703 3.04196,-4.61222 5.5655,-14.60121 6.52056,-25.81049 0.92699,-10.87974 -0.17846,-11.87318 -9.45968,-8.50115 -16.98984,6.17271 -33.89176,15.66739 -41.91168,23.54398 -4.63815,4.55525 -6.22833,5.42902 -11.41728,6.27355 -8.14091,1.32497 -10.25265,2.64852 -12.55187,7.86698 -2.19271,4.97674 -5.30023,21.35481 -5.30544,27.96211 -0.006,7.44546 2.14245,7.97847 14.67636,3.64126 z M 213.08035,453.84295 c 3.52426,-1.04659 8.04773,-3.75566 12.72693,-7.62204 3.99265,-3.29909 11.09937,-8.49807 15.79271,-11.55329 8.90599,-5.79753 17.59999,-14.23333 17.59999,-17.07729 0,-3.15234 -2.81794,-2.7027 -12.85466,2.05114 -14.25904,6.7537 -31.58358,12.3585 -38.20037,12.3585 -5.20011,0 -5.57576,-0.19678 -8.14496,-4.26666 -4.6532,-7.37114 -8.36566,-5.03903 -11.03712,6.93333 -2.78474,12.48001 -1.44382,17.55284 2.43061,9.19522 1.13309,-2.4442 2.57309,-4.27465 3.2,-4.06766 0.62691,0.20699 1.39586,2.56349 1.70878,5.23667 0.61081,5.21808 2.3327,8.0178 5.79403,9.42081 3.18224,1.28988 4.91387,1.19392 10.98406,-0.60873 z m 64.74539,-10.48116 c 2.85344,-2.08649 1.09414,-3.89515 -3.78885,-3.89515 -2.90112,0 -4.44382,0.53845 -4.89248,1.70765 -1.27086,3.31181 4.98722,4.8887 8.68133,2.1875 z m 156.47819,-3.29473 c 6.31608,-5.19975 16.72463,-16.5091 25.09523,-27.26709 11.67721,-15.00766 27.00081,-40.11278 27.00081,-44.23624 0,-1.8362 -1.66296,-2.18776 -2.66667,-0.56375 -1.18212,1.91271 -6.78045,1.21206 -7.96247,-0.99655 -1.781,-3.32783 -1.27245,-13.11377 1.02914,-19.80345 2.53883,-7.37923 2.70883,-11.52783 0.54595,-13.32286 -1.69919,-1.41021 -2.16827,-0.80863 -2.89654,3.71474 -0.48188,2.99298 -4.82666,4.75981 -16.12932,6.55907 -8.23869,1.31152 -10.28177,2.0476 -12.91619,4.65345 -3.02955,2.9967 -3.14441,3.48646 -3.59824,15.34287 -0.61128,15.96981 0.3768,24.36816 2.81217,23.90253 1.48946,-0.28478 1.9021,-2.3535 2.51233,-12.59527 0.93401,-15.67583 2.46957,-20.66532 6.5025,-21.12854 6.41708,-0.73705 13.56734,11.2484 13.56734,22.74192 0,3.41995 -0.62226,4.95509 -2.76304,6.81647 -2.063,1.79375 -2.60108,3.04774 -2.12378,4.94942 1.63065,6.49708 -7.01083,20.21493 -15.14575,24.04298 -7.52535,3.5412 -11.79193,8.10573 -15.87359,16.98214 -2.02131,4.39573 -4.65962,9.0402 -5.86289,10.32103 -1.20329,1.28083 -1.86916,2.84432 -1.47975,3.47441 1.37832,2.23018 4.67311,1.08851 10.35276,-3.58728 z m -17.18488,-5.19555 c 1.50657,-8.1498 0.98996,-15.1382 -1.11908,-15.1382 -1.00037,0 -2.06752,1.79888 -2.84748,4.8 -1.38582,5.33221 -1.82958,17.36738 -0.68267,18.51428 1.46833,1.46834 3.53977,-2.17446 4.64923,-8.17608 z m -74.6174,-11.45674 c 2.35584,-1.20186 8.90688,-6.36104 14.55786,-11.46483 11.22615,-10.13913 11.28487,-11.34557 0.4087,-8.39646 -3.30086,0.89504 -8.79615,2.18286 -12.21174,2.86182 -4.97054,0.98808 -7.15299,2.13787 -10.93333,5.76008 -9.72205,9.31536 -3.85487,17.37836 8.17851,11.23939 z M 214.85973,411.43506 c 1.09932,-4.43785 -0.18151,-6.84608 -3.05471,-5.74353 -1.18292,0.45393 -1.6717,2.0776 -1.6717,5.55318 0,4.10239 0.30757,4.85299 1.86667,4.55549 1.14374,-0.21826 2.25126,-1.90879 2.85974,-4.36514 z m 17.09155,-2.27932 c 5.00599,-2.09164 7.29388,-5.87548 6.40796,-10.59783 -0.82523,-4.39885 -4.22546,-8.05173 -5.9187,-6.35849 -0.60997,0.60997 -1.43862,3.35303 -1.84146,6.09568 -0.9444,6.42977 -2.76853,6.80483 -3.20576,0.65914 -0.39722,-5.58317 -1.66724,-7.4876 -4.99333,-7.4876 -3.4284,0 -5.48221,2.69274 -3.69568,4.84537 0.75104,0.90495 1.33314,3.78807 1.29354,6.40694 -0.11003,7.27873 4.28025,9.64285 11.95343,6.43679 z m 189.1278,-12.26297 c 0.46851,-6.54796 0.30408,-7.55946 -1.22884,-7.55946 -0.97336,0 -2.23785,1.23124 -2.81,2.73611 -1.19079,3.13202 -1.4071,13.60817 -0.30375,14.7115 1.81148,1.8115 3.83519,-2.79651 4.34259,-9.88815 z m -90.03851,3.10214 c 3.05469,-3.63032 4.68985,-11.66899 3.23369,-15.89731 -1.86352,-5.41113 -6.81757,-6.63118 -31.12976,-7.6665 -12.14282,-0.51709 -23.99785,-1.41417 -26.34452,-1.99353 -7.02288,-1.73383 -7.22526,-1.38427 -3.56998,6.1665 2.02977,4.19296 2.14079,5.17539 0.95525,8.45393 -1.90891,5.27901 -0.0775,6.64649 11.11533,8.29962 5.2418,0.7742 10.04464,2.10048 11.11535,3.06946 2.66408,2.41096 5.89993,2.12277 10.78405,-0.96044 5.3929,-3.40438 7.15033,-3.3245 11.73333,0.53334 4.88884,4.11527 8.64153,4.1137 12.10726,-0.005 z m -127.30725,-4.67337 c 0,-0.81314 -3.3316,-3.45771 -7.40357,-5.87682 -8.45723,-5.02434 -13.66745,-10.83696 -17.85494,-19.91927 -2.3839,-5.17044 -2.94772,-7.99435 -3.08774,-15.46506 -0.19476,-10.39108 -1.57101,-14.0884 -5.05925,-13.5918 -2.05137,0.29203 -2.36829,1.09149 -2.66849,6.73139 -0.48035,9.02446 1.57451,25.07539 4.06006,31.71396 4.52734,12.09191 12.56296,17.88376 24.81393,17.88519 5.42618,6.4e-4 7.2,-0.36339 7.2,-1.47759 z m 153.44989,-3.39079 c 12.64596,-5.42515 17.47322,-9.49388 19.29627,-16.26417 2.08985,-7.76114 -1.02935,-11.93595 -8.91149,-11.92732 -11.09217,0.0122 -21.2953,5.2029 -25.17489,12.80753 -3.87395,7.59358 -2.41569,20.25319 2.33297,20.25319 0.60887,0 6.21459,-2.19115 12.45714,-4.86923 z m 31.61677,2.20256 c 0,-2.72273 -5.90284,-3.59359 -7.91601,-1.16786 -2.03084,2.447 -0.32456,3.98806 4.0151,3.62634 3.08141,-0.25684 3.90091,-0.77332 3.90091,-2.45848 z m 18.99082,-5.06667 c 1.41705,-1.32 3.12532,-4.38072 3.79616,-6.80161 0.67085,-2.42088 3.61821,-8.07573 6.5497,-12.56632 5.86427,-8.98317 6.27398,-10.23207 3.35669,-10.23207 -2.69832,0 -9.58341,5.14627 -14.43905,10.79247 -5.29729,6.15979 -11.68887,17.64363 -10.92617,19.6312 0.98548,2.56813 8.59871,2.03044 11.66267,-0.82367 z m 26.91861,-8.33588 c 1.13074,-1.82957 -0.54762,-8.52014 -2.30665,-9.19515 -2.9774,-1.14252 -4.07759,1.34 -2.6724,6.03013 1.236,4.12539 3.49718,5.56275 4.97905,3.16502 z m -42.46921,-4.22871 c 2.41661,-1.7772 6.06385,-5.74725 8.10498,-8.82234 8.42772,-12.6969 23.05763,-23.01267 49.96221,-35.22907 4.92627,-2.23686 8.69814,-4.6908 9.49305,-6.17611 2.59418,-4.84726 -0.96957,-57.58841 -4.31347,-63.83655 -0.63913,-1.19423 -1.60828,-2.17133 -2.15366,-2.17133 -2.04776,0 -3.08699,4.26516 -4.76077,19.53892 -1.95691,17.85745 -5.48535,33.06378 -9.51911,41.02401 -2.49856,4.93068 -3.13152,5.47089 -6.7628,5.77178 -3.02273,0.25046 -4.10003,0.85568 -4.38827,2.46529 -0.78527,4.38515 -7.86827,9.64899 -27.24598,20.24821 -12.74868,6.97328 -17.69159,12.75134 -19.2819,22.53973 -0.54249,3.33912 -0.2957,4.80514 1.03249,6.13333 2.52208,2.52208 4.86459,2.16811 9.83323,-1.48587 z M 200.53083,365.99168 c 9.26669,-3.33333 9.08148,-2.58445 8.98607,-36.33448 -0.0858,-30.35648 -1.0685,-39.68087 -5.21261,-49.46039 -2.60236,-6.14117 -4.79222,-4.8795 -8.47644,4.88359 -1.7129,4.5391 -3.57673,8.25292 -4.14186,8.25292 -1.33853,0 -0.18875,-8.74874 2.59341,-19.73334 5.35937,-21.15992 26.06654,-63.32817 33.48486,-68.18885 3.19256,-2.09184 3.3782,-4.9419 0.49202,-7.55385 -1.91398,-1.73214 -2.44817,-1.77843 -4.98517,-0.43199 -4.32758,2.29675 -11.58231,12.16083 -16.79912,22.84136 -5.63633,11.53947 -11.153,28.89281 -19.78154,62.22528 -8.01812,30.9744 -11.3748,39.32521 -13.53955,33.68397 -1.80599,-4.70634 6.12915,-40.00797 16.76326,-74.57591 8.22392,-26.7332 13.81916,-47.38461 13.81916,-51.00494 0,-3.10806 -0.0555,-3.14218 -2.10029,-1.29164 -2.38729,2.16047 -12.83473,28.10636 -18.69559,46.42991 -8.81747,27.56721 -14.69556,58.12973 -14.77094,76.79999 -0.0498,12.34054 1.23308,17.63778 5.16651,21.33304 2.19006,2.05746 2.87046,2.22597 4.27642,1.05913 1.27432,-1.0576 1.50664,-2.4901 0.97682,-6.02323 -0.47415,-3.16189 -0.30915,-4.6356 0.51903,-4.6356 2.27237,0 3.41152,5.7587 3.79039,19.16145 0.26545,9.39012 0.92209,14.73953 2.20191,17.93811 1.97916,4.94641 5.42918,8.08863 7.96907,7.25808 0.88,-0.28776 4.23888,-1.47244 7.46418,-2.63261 z m 87.95285,1.74163 c 0.22922,-0.73333 0.71997,-3.15503 1.09057,-5.38155 0.46886,-2.81682 1.38641,-4.32077 3.01644,-4.94425 2.96693,-1.13484 5.74225,-4.24981 6.2434,-7.00753 0.56844,-3.12798 4.36074,-3.19167 10.93129,-0.18357 8.0811,3.69965 11.88009,4.33074 17.16413,2.8513 6.94981,-1.94582 12.35032,-8.06099 13.86885,-15.7041 1.08814,-5.4769 1.53576,-6.20057 4.01752,-6.49514 2.47122,-0.29332 2.94449,0.19814 4.10861,4.26667 2.29112,8.00732 4.18386,9.14095 6.80363,4.07489 2.50768,-4.84933 6.37332,-7.01001 9.77145,-5.46171 4.436,2.02117 6.48728,0.57138 9.02012,-6.37516 1.27784,-3.50463 2.79144,-6.66133 3.36355,-7.01492 0.57211,-0.35358 2.69627,1.16482 4.72035,3.37423 3.58189,3.90985 3.83477,4.00115 9.47033,3.41951 3.68874,-0.38071 11.3741,-2.98973 21.17592,-7.1888 12.70513,-5.44283 15.57404,-7.0824 16.46644,-9.41053 0.63513,-1.65692 1.28855,-21.07049 1.58482,-47.086 0.2992,-26.27277 0.95941,-45.78422 1.62416,-48 0.61603,-2.05333 1.56899,-9.05841 2.11769,-15.56683 0.5487,-6.50842 1.64767,-12.87435 2.44214,-14.14651 1.22711,-1.96489 1.20398,-2.73687 -0.15364,-5.12952 -2.52179,-4.44434 -7.17001,-7.46375 -9.36991,-6.08653 -2.83166,1.77272 -2.74872,7.06467 0.24059,15.35175 2.87916,7.98168 3.41704,11.71098 1.6891,11.71098 -2.62688,0 -7.95506,-12.5459 -9.55964,-22.5094 -1.64784,-10.23213 -6.33877,-13.75727 -18.30693,-13.75727 -10.40225,0 -14.44819,1.74126 -22.28016,9.58878 -13.51806,13.54492 -45.36168,26.15495 -48.97912,19.39569 -1.65401,-3.09053 -2.82042,-18.80733 -1.3273,-17.88453 0.67571,0.41762 1.22857,1.4083 1.22857,2.20152 0,0.79323 1.49125,2.69704 3.31388,4.23069 3.99564,3.3621 6.51768,3.09585 20.31646,-2.14479 17.686,-6.71696 21.76172,-9.82225 23.08788,-17.59064 0.73255,-4.29112 1.14705,-4.78081 5.03998,-5.95421 5.86577,-1.76805 24.11926,-1.71404 32.66204,0.0966 20.54054,4.35367 28.11192,15.99819 30.55608,46.99418 0.58255,7.38766 1.11803,9.6 2.32361,9.6 4.61069,0 8.13238,-23.39874 7.14407,-47.46666 -0.98278,-23.9335 -3.84613,-37.58297 -8.68203,-41.38689 -2.91504,-2.29297 -10.97644,-18.00914 -18.76394,-36.581378 C 412.17894,51.500131 399.70965,33.536953 381.02244,21.239228 370.81263,14.52033 353.06665,7.5798139 353.06665,10.305617 c 0,0.388089 2.81501,4.348089 6.25559,8.799999 7.86342,10.17483 17.76035,25.388886 18.79614,28.894381 1.23945,4.194771 5.89225,8.441707 10.06843,9.19016 6.20572,1.112184 7.02337,1.941677 3.91898,3.975751 -5.03636,3.299954 -6.04606,7.039011 -7.05303,26.118454 -0.95138,18.025728 -3.06102,32.235688 -5.44492,36.675308 l -1.31036,2.44032 -1.37795,-3.36736 c -0.75788,-1.85204 -2.84569,-4.41247 -4.63957,-5.68982 -1.79389,-1.27737 -4.2038,-4.16931 -5.35535,-6.42655 -3.79868,-7.44603 -9.36823,-32.062633 -6.65797,-29.427259 0.44,0.427843 2.48,4.944079 4.53334,10.03608 4.29711,10.656289 6.56917,12.216789 9.07063,6.229942 1.88351,-4.507878 3.32002,-5.55597 5.32937,-3.888362 6.36447,5.282036 4.13258,-14.791387 -2.27738,-20.482683 -1.12494,-0.998809 -3.91599,-2.438809 -6.20236,-3.199999 -2.28635,-0.761191 -4.32141,-1.887006 -4.52235,-2.501812 -0.20095,-0.614807 1.56232,-3.701497 3.91836,-6.859313 2.35606,-3.157815 4.28578,-6.734792 4.28828,-7.948837 0.013,-6.300989 -25.43219,-36.662261 -32.74999,-39.077354 -4.47008,-1.475258 -14.20687,0.189031 -16.37257,2.798526 -1.47757,1.780378 -1.49306,1.758696 13.52062,18.933099 10.08398,11.535237 17.69518,21.969282 18.96109,25.993411 1.86028,5.913524 -4.76905,13.268221 -13.17057,14.611678 -6.6715,1.066816 -6.8334,1.65036 -6.93818,25.007383 -0.0744,16.5975 -0.49164,22.44415 -1.99274,27.9259 -3.58346,13.0862 -5.14721,17.06666 -6.70476,17.06666 -2.28039,0 -7.41045,-8.74474 -10.47214,-17.85091 -1.48102,-4.40492 -3.77695,-14.43048 -5.10206,-22.27901 -1.64112,-9.720271 -2.84924,-14.270072 -3.78919,-14.270072 -0.75895,0 -2.6881,2.201452 -4.28699,4.892117 -6.15414,10.356405 -21.34484,33.240505 -22.56661,33.995605 -5.05982,3.12714 -0.66539,-6.95733 12.93713,-29.68848 6.33732,-10.590305 11.52241,-20.019137 11.52241,-20.952962 0,-3.852194 -25.23233,-30.842247 -34.69045,-37.107052 -7.26827,-4.814296 -12.48236,-4.698275 -18.45088,0.410559 -2.45227,2.099049 -4.45867,4.728735 -4.45867,5.843748 0,1.120477 5.26939,7.578167 11.78029,14.436882 18.64766,19.643799 22.11372,27.812847 18.20261,42.901255 -1.77616,6.85216 -2.16986,11.78204 -2.19445,27.47868 -0.0325,20.76413 -0.92668,27.71597 -5.05483,39.29999 -6.01277,16.87248 -15.62535,28.79434 -29.13361,36.13257 -13.00787,7.06639 -29.07325,24.84317 -35.87175,39.69304 -2.40945,5.26294 -2.72181,7.07255 -2.18674,12.66868 0.34333,3.59078 1.62397,9.40869 2.84586,12.92869 4.10012,11.81158 6.01006,28.07308 7.42697,63.23435 0.6495,16.11744 1.32423,23.19435 2.32654,24.40207 1.21601,1.4652 3.63344,1.62623 17.43544,1.16144 8.81302,-0.29678 16.91495,-0.90875 18.00429,-1.35991 2.00946,-0.83227 2.01608,-3.13087 0.0287,-9.99513 -0.68276,-2.35821 -0.5131,-2.50014 2.18043,-1.8241 3.59076,0.90122 8.21413,3.83745 19.27689,12.24242 8.21285,6.23974 12.93743,8.01971 13.81703,5.20552 z m -19.20086,-32.88169 c -1.23044,-1.9909 -0.8968,-9.53101 0.4828,-10.91061 1.76807,-1.76807 3.26391,0.87096 3.2847,5.79503 0.0175,4.14304 -2.3673,7.38114 -3.7675,5.11558 z m -23.48258,-16.5227 c -2.07203,-13.81726 1.73875,-46.09109 8.21633,-69.58482 3.3289,-12.07371 12.01112,-31.1973 14.51675,-31.97481 2.65158,-0.82282 1.29336,5.2709 -2.87103,12.88094 -7.72349,14.11398 -13.41577,39.97956 -16.4387,74.69708 -0.85949,9.87104 -1.81041,18.19503 -2.11314,18.49776 -0.30273,0.30274 -0.89233,-1.72954 -1.31021,-4.51615 z m 47.45663,-12.47075 c -1.7224,-3.78027 -0.20935,-10.77437 5.0171,-23.19152 5.3834,-12.79004 8.92601,-23.99985 8.92601,-28.24435 0,-4.84717 1.64519,-5.62398 3.0961,-1.46188 2.4049,6.89873 1.472,12.71204 -3.75257,23.38365 -5.98818,12.23134 -8.94353,20.47674 -8.94353,24.95236 0,1.84936 -0.6778,4.28942 -1.50622,5.42236 -1.45362,1.98793 -1.5527,1.95788 -2.83689,-0.86062 z m -21.25689,-7.07219 c 0,-3.66046 5.35558,-20.57394 9.03907,-28.54641 3.62982,-7.85624 6.54245,-10.56249 5.28042,-4.90625 -1.68949,7.57209 -6.29538,21.65343 -9.22784,28.21172 -3.21534,7.19096 -5.09165,9.12229 -5.09165,5.24094 z m 72.66292,-32.94386 c -1.74868,-3.26745 -7.59625,-39.47035 -7.59625,-47.02918 0,-7.65733 0.68217,-9.74629 3.18276,-9.74629 2.38494,0 5.8312,7.77018 7.33294,16.53334 2.86741,16.73234 2.71387,36.47935 -0.31585,40.62274 -1.30917,1.79039 -1.45296,1.76937 -2.6036,-0.38061 z m 16.44018,-9.78318 c -2.10234,-3.40166 -4.00567,-11.55776 -4.7954,-20.54916 -0.50031,-5.69629 -1.97445,-13.94364 -3.27586,-18.32745 -2.58898,-8.72102 -2.27237,-12.71004 1.15438,-14.54397 8.09014,-4.32972 13.43981,11.58653 12.49535,37.17595 -0.27444,7.43546 -0.86141,14.35901 -1.30439,15.38567 -0.86853,2.01293 -3.26342,2.49423 -4.27408,0.85896 z m 18.14017,-13.12562 c -3.17942,-7.61259 -7.45204,-35.61007 -6.79612,-44.53333 0.29158,-3.96655 0.72226,-4.8 2.48032,-4.8 5.83485,0 12.14079,32.54833 9.45455,48.8 -0.82459,4.98881 -3.17598,5.23285 -5.13875,0.53333 z m -99.50993,-33.8999 c -4.38162,-1.7612 -2.6048,-6.18673 3.81954,-9.51337 3.28586,-1.70147 28.55856,-10.30862 32.98045,-11.23218 4.33372,-0.90514 4.64183,1.08517 0.86318,5.57584 -2.49466,2.96474 -8.64771,5.60294 -13.06767,5.60294 -2.19311,0 -5.96593,3.53501 -7.04426,6.60025 -1.14499,3.25473 -12.18985,5.12154 -17.55124,2.96652 z m 140.69426,-80.30617 c -3.34492,-4.03038 -4.27595,-25.08711 -1.44627,-32.709738 0.90898,-2.448629 1.02965,-2.488998 1.59425,-0.533333 0.33596,1.163699 1.17944,4.995811 1.87441,8.515811 1.36243,6.90065 4.68072,14.4 6.37168,14.4 1.38996,0 1.32664,4.20704 -0.12603,8.37417 -0.9347,2.6813 -1.76934,3.35917 -4.13605,3.35917 -1.63077,0 -3.49018,-0.63274 -4.13199,-1.40608 z m -17.87521,-28.0028 c -1.07003,-4.263315 0.2675,-25.937618 1.90423,-30.857788 2.08935,-6.280763 3.60004,-4.743118 3.18164,3.238424 -0.27057,5.161757 0.24363,8.588633 2.04055,13.599012 2.22306,6.198595 2.28984,7.053843 0.89506,11.463774 -1.24371,3.932348 -2.01351,4.823828 -4.40334,5.099378 -2.38139,0.27458 -3.02445,-0.17736 -3.61814,-2.5428 z M 77.428574,355.09473 c 1.518781,-1.67823 2.027413,-3.85575 2.031986,-8.6992 0.0078,-8.21521 -1.736027,-8.96221 -5.135183,-2.19981 -3.703249,7.36738 -4.295853,9.80594 -2.816234,11.58878 1.778806,2.14333 3.541387,1.93794 5.919431,-0.68977 z m 57.559186,-2.52716 c 2.0219,-4.83908 1.96396,-16.25964 -0.1387,-27.34401 -3.14778,-16.59368 -5.20522,-16.61987 -5.34548,-0.0681 -0.0688,8.12322 -0.6028,12.51216 -1.86667,15.34352 -2.17287,4.86771 -2.21811,7.29756 -0.22468,12.06852 1.06866,2.55767 2.23745,3.69909 3.78776,3.69909 1.55032,0 2.71911,-1.14142 3.78777,-3.69907 z M 66.799979,341.57626 c 5.309753,-4.31721 8.898421,-14.3441 8.920689,-24.92478 0.02539,-12.05953 -6.642095,-13.81013 -17.029266,-4.47117 -9.003794,8.09518 -11.957718,17.28079 -8.011329,24.91227 3.023451,5.84671 11.532597,8.21349 16.119906,4.48368 z m 429.739691,-0.25325 c 0.36608,-0.59233 -0.32559,-2.33706 -1.53705,-3.87717 -2.67276,-3.39787 -2.91957,-8.70438 -0.44893,-9.65244 0.96454,-0.37013 3.93135,0.13412 6.5929,1.12056 2.77983,1.03028 5.23797,1.39477 5.77624,0.85649 0.92329,-0.92329 -12.12524,-36.65972 -14.39196,-39.41567 -2.03842,-2.47839 -2.92929,0.24975 -4.12753,12.64001 -1.65586,17.12232 -2.38337,17.37338 -4.28067,1.47722 -0.6962,-5.83295 -1.30862,-20.92536 -1.36093,-33.53869 -0.0892,-21.51452 0.0507,-23.24903 2.26085,-28.03602 2.95139,-6.39232 5.94071,-7.71742 19.46116,-8.62671 5.54607,-0.37299 10.58196,-1.17634 11.19085,-1.78524 1.73962,-1.73961 -6.21445,-16.13846 -11.71684,-21.21039 -5.64117,-5.19985 -9.78697,-5.66144 -15.56774,-1.73331 -4.39163,2.98419 -10.47132,11.66574 -14.42565,20.59925 -2.99261,6.7608 -2.99898,12.86727 -0.0242,23.19242 2.88658,10.01903 0.073,8.88259 -10.197,-4.11858 -8.69265,-11.00442 -10.047,-10.64768 -5.66765,1.49287 3.34368,9.26947 5.90298,24.38463 5.9531,35.15904 0.0468,10.05319 1.76017,23.54881 3.16854,24.95718 2.52608,2.52608 3.6411,-1.74405 4.2192,-16.15794 l 0.58822,-14.66591 1.96105,10.66667 c 5.31502,28.90969 9.38506,42.81343 14.21205,48.54997 2.66331,3.16517 7.02812,4.26467 8.36201,2.10639 z M 155.08587,325.7794 c 0.9673,-2.52076 0.74979,-17.83319 -0.27632,-19.45141 -0.6515,-1.02745 -1.20671,-0.59724 -2.06489,1.6 -1.48477,3.80156 -2.80817,16.85908 -1.86359,18.38744 1.05288,1.7036 3.46328,1.39633 4.2048,-0.53603 z m 362.93921,-12.74101 c 1.17658,-3.06614 -4.02528,-21.30765 -12.76741,-44.77174 -7.11659,-19.10108 -9.14056,-23.52388 -10.8796,-23.77422 -3.26782,-0.47041 -6.06894,5.25086 -6.62544,13.53239 -0.59904,8.91476 1.30653,15.03164 5.27535,16.93382 3.01965,1.44725 7.15234,8.98754 13.57857,24.77468 1.79104,4.39999 4.21021,9.55999 5.37591,11.46666 2.25399,3.68666 5.01145,4.52559 6.04262,1.83841 z M 98.071036,307.99998 c 0.527251,-1.32 1.836961,-4.72027 2.910464,-7.55616 1.0735,-2.83588 3.45694,-6.91588 5.29651,-9.06666 2.93395,-3.4303 3.93536,-3.91051 8.15468,-3.91051 3.20283,0 5.54695,0.66693 7.01559,1.99603 1.21308,1.09782 2.95525,1.70836 3.87152,1.35676 1.80087,-0.69106 1.59436,-2.4766 -1.31304,-11.35279 -1.91149,-5.83566 -3.14548,-7.46667 -5.64916,-7.46667 -1.28224,0 -2.51124,-1.56254 -3.72145,-4.73144 -0.99382,-2.60228 -2.46039,-4.98219 -3.25904,-5.28865 -2.4491,-0.93981 -4.71045,3.69823 -4.71045,9.66115 0,3.0615 -0.43301,5.83398 -0.96224,6.16108 -0.52923,0.32708 -1.95305,-1.0846 -3.16403,-3.13706 -3.078359,-5.21743 -6.349963,-5.00618 -11.257278,0.72692 -4.903459,5.72859 -5.01456,10.45987 -0.578851,24.65041 3.329696,10.65223 5.398031,12.88643 7.366775,7.95759 z m 56.097734,-24.52027 c 0.63165,-5.22108 0.47172,-6.22339 -1.08849,-6.82209 -1.07109,-0.41102 -2.21954,-0.0849 -2.77161,0.78693 -1.11336,1.75833 -1.3045,13.07073 -0.23883,14.13638 1.51409,1.5141 3.38239,-2.17843 4.09893,-8.10122 z m 367.85041,-9.96697 c 0.84306,-2.19698 0.80761,-9.45447 -0.0725,-14.84609 -0.54515,-3.33948 -2.05517,-5.5995 -6.94877,-10.4 -6.0595,-5.94421 -8.58501,-7.24495 -9.90862,-5.1033 -0.66214,1.07137 9.01206,25.40104 11.77992,29.62534 1.83791,2.80499 4.22278,3.1403 5.14998,0.72405 z M 532.3239,237.744 c 3.50285,-13.4472 6.34766,-29.60192 6.23355,-35.39816 -0.0954,-4.84396 -0.21033,-5.12171 -0.90834,-2.19459 -0.43954,1.84319 -1.84635,5.04564 -3.12625,7.11656 -2.37691,3.84593 -4.35542,12.45017 -6.51213,28.32036 -2.00808,14.77648 0.67615,16.11813 4.31317,2.15583 z m -365.44204,5.18932 c 2.14252,-5.15908 3.18214,-17.13992 1.72374,-19.86496 -3.16017,-5.90483 -7.53894,0.77147 -7.53894,11.49459 0,10.88137 2.98692,15.18071 5.8152,8.37037 z m 302.84846,-14.05668 c 3.67268,-11.11899 0.57967,-12.64712 -3.36872,-1.66436 -2.57638,7.1664 -2.47432,11.31094 0.20792,8.44375 0.78346,-0.83749 2.20582,-3.88821 3.1608,-6.77939 z m 43.75403,-26.47665 c 2.5705,-4.02276 8.11562,-23.35535 8.11562,-28.29438 0,-5.00514 -1.14504,-7.92786 -4.5859,-11.70562 -5.31273,-5.8329 -6.82437,-2.23524 -8.45123,20.1136 -0.93037,12.78086 -0.92645,17.49191 0.0162,19.56096 1.53022,3.35845 2.90876,3.44991 4.90525,0.32544 z M 253.83797,191.24056 c 7.26238,-7.9256 14.94945,-22.21741 17.60502,-32.73129 1.06915,-4.23294 1.57855,-11.56027 1.55726,-22.4 -0.0174,-8.8601 0.56694,-20.3426 1.29854,-25.51667 1.63667,-11.574907 1.08798,-12.7417 -6.43241,-13.678523 -6.45001,-0.803484 -8.41772,-2.147605 -8.86975,-6.058808 -0.25962,-2.246519 -0.89852,-2.855274 -2.99665,-2.855274 -2.49874,0 -2.66443,0.340834 -2.63123,5.412407 0.0299,4.565171 1.37772,8.155058 8.61031,22.933328 l 8.57486,17.52093 -4.87697,11.28805 c -6.40574,14.82651 -10.56218,22.45888 -17.1268,31.4496 -6.3204,8.65627 -8.0056,13.57964 -6.3115,18.43934 1.75391,5.03125 4.25595,4.21091 11.59932,-3.80309 z m -34.30556,-3.73028 c 0.3998,-3.45342 -1.43523,-7.24362 -3.507,-7.24362 -2.41642,0 -2.8658,1.79361 -1.61405,6.44221 1.37107,5.09179 4.56647,5.59184 5.12105,0.80141 z m 11.71215,-13.95066 c 5.09067,-5.18702 5.62689,-7.15963 1.94621,-7.15963 -1.61305,0 -3.95274,1.56092 -6.4,4.26974 -3.90116,4.31813 -4.43501,5.46382 -3.14634,6.75248 1.47499,1.475 3.24409,0.57589 7.60013,-3.86259 z m 312.55959,-2.54404 c -0.38655,-3.26524 -2.68728,-4.54925 -3.65107,-2.03763 -0.91085,2.37361 0.26434,4.88871 2.28426,4.88871 1.22042,0 1.60849,-0.80951 1.36681,-2.85108 z m -297.18097,-9.68226 c 5.86009,-6.23791 17.45358,-26.14985 16.3063,-28.0062 -0.33982,-0.54985 -2.68538,-1.91429 -5.21235,-3.03208 -3.91852,-1.73335 -5.04075,-2.99899 -7.62766,-8.60241 -2.0665,-4.47616 -3.56269,-6.46421 -4.69466,-6.238 -1.99152,0.39799 -1.79714,5.25594 0.63004,15.74536 2.53227,10.9436 2.23393,17.74681 -1.06262,24.23121 -4.38351,8.62249 -3.57929,11.48024 1.66095,5.90212 z m 221.75703,-1.33893 c 1.15892,-4.16502 1.06587,-9.39879 -0.18078,-10.16927 -3.33663,-2.06215 -6.64947,6.39545 -4.59857,11.73999 0.96377,2.51156 3.91317,1.54225 4.77935,-1.57072 z M 331.80217,126.21888 c 1.47436,-3.87786 3.43375,-30.922223 2.57577,-35.552219 -0.99255,-5.356353 -3.30357,-7.466666 -8.17675,-7.466666 -5.44684,0 -5.9319,-1.697426 -2.44907,-8.570443 2.0435,-4.03266 2.65575,-6.510229 2.2013,-8.907978 -0.34625,-1.826869 -4.90429,-9.032549 -10.12898,-16.012625 -10.44629,-13.956018 -12.54832,-17.340646 -11.45093,-18.438035 0.98434,-0.984342 8.17471,6.08998 14.83516,14.59575 10.4945,13.402053 15.93752,18.133332 20.86115,18.133332 2.93752,0 7.66349,-4.049815 7.66349,-6.56705 0,-1.300931 -4.91268,-7.164042 -12.4795,-14.89385 -15.49615,-15.829942 -21.9865,-19.591641 -32.54729,-18.863862 -7.44269,0.512899 -23.23987,7.056632 -23.23987,9.626745 0,0.792436 3.90602,5.983669 8.68003,11.536073 16.82806,19.5718 21.32527,28.265877 28.11997,54.361942 5.54192,21.284596 9.05742,29.866666 12.23436,29.866666 1.42248,0 2.60691,-1.02176 3.30116,-2.84778 z m -6.03768,-5.03378 c -0.93977,-2.44903 0.82294,-8.3587 2.67761,-8.97693 1.16312,-0.3877 1.34758,0.47179 0.86823,4.04559 -0.70919,5.2873 -2.46969,7.73572 -3.54584,4.93134 z m 135.51813,4.54728 c 2.98737,-3.5503 3.08195,-5.52391 0.29065,-6.06539 -1.77326,-0.34399 -5.03996,4.67712 -5.03996,7.7467 0,2.56256 1.67825,1.96844 4.74931,-1.68131 z M 68.840127,495.89212 C 63.749053,491.42209 59.112365,481.27836 55.34919,466.37784 51.462427,450.98796 42.845235,404.18956 42.046492,394.13331 c -0.537555,-6.76787 -0.442619,-7.28131 1.014399,-5.48614 2.039683,2.51305 6.234181,20.07413 9.717961,40.68614 5.37623,31.8088 5.325009,31.62156 13.190309,48.21682 10.462401,22.07497 10.994521,25.47456 2.870966,18.34199 z M 45.209132,289.24393 c 0.576061,-4.34255 0.345303,-5.46254 -1.46258,-7.09865 -1.797956,-1.62713 -2.146555,-3.28035 -2.146555,-10.18001 0,-9.5426 -0.638772,-10.44244 -8.178408,-11.52093 -3.93801,-0.56331 -5.421385,-1.33564 -6.505237,-3.38703 -2.740577,-5.18703 0.542923,-18.13976 8.633071,-34.05566 5.675198,-11.16493 7.694538,-12.37 6.839073,-4.08134 -0.613781,5.94696 -2.867727,11.36156 -7.683604,18.45816 -2.971349,4.37853 -4.327676,9.85564 -3.26766,13.19545 0.50935,1.60482 1.598931,2.22606 3.904211,2.22606 4.927993,0 13.775974,-9.47385 19.067714,-20.4165 2.341628,-4.84219 4.257506,-9.53271 4.257506,-10.42337 0,-0.89066 -2.971298,-4.37747 -6.602885,-7.74845 l -6.602885,-6.12906 13.608821,-13.00843 c 19.985009,-19.10332 28.446295,-30.51408 45.386446,-61.20751 15.53656,-28.1503 28.62587,-46.399999 33.27968,-46.399999 2.9347,0 2.54019,4.039053 -0.88742,9.085722 -1.5867,2.336186 -5.5467,7.419997 -8.8,11.297357 -3.2533,3.87736 -7.16932,9.39736 -8.70227,12.26667 -1.53295,2.8693 -4.26125,7.85692 -6.06288,11.08358 -1.80163,3.22667 -6.00479,12.58667 -9.34035,20.8 -11.65098,28.68886 -15.324363,34.3856 -29.262059,45.37996 -5.299828,4.18061 -10.230908,8.64038 -10.957954,9.91058 -0.739646,1.29221 -1.335695,6.06812 -1.353216,10.84279 -0.02848,7.76252 -0.534376,9.79073 -5.600503,22.45334 -3.063055,7.65601 -5.569191,15.0851 -5.569191,16.5091 v 2.58908 l 2.55543,-2.64243 c 1.405487,-1.45334 5.996411,-8.88243 10.202056,-16.50909 5.491874,-9.95917 9.238808,-15.36956 13.29685,-19.2 6.2811,-5.92882 7.77786,-8.45439 11.220707,-18.93333 1.301054,-3.96 2.511145,-7.2 2.689091,-7.2 0.597316,0 -0.636687,14.34064 -1.725205,20.04902 -0.943959,4.95028 -1.963914,6.53573 -8.245962,12.81778 -8.76427,8.76427 -13.527449,17.1905 -23.533078,41.63083 -4.165012,10.17369 -8.294682,19.89369 -9.177044,21.59999 -2.520971,4.87502 -4.064394,3.9068 -3.27371,-2.05368 z"
       id="path215"
       inkscape:connector-curvature="0" />
  </g>
</svg>
