<?xml version="1.0" encoding="UTF-8"?>
<!DOCTYPE svg PUBLIC "-//W3C//DTD SVG 1.1//EN" "http://www.w3.org/Graphics/SVG/1.1/DTD/svg11.dtd">
<!-- Creator: CorelDRAW 2019 (64-Bit) -->
<svg xmlns="http://www.w3.org/2000/svg" xml:space="preserve" width="256px" height="257px" version="1.1" style="shape-rendering:geometricPrecision; text-rendering:geometricPrecision; image-rendering:optimizeQuality; fill-rule:evenodd; clip-rule:evenodd"
viewBox="0 0 255.76 256.25"
 xmlns:xlink="http://www.w3.org/1999/xlink"
 xmlns:xodm="http://www.corel.com/coreldraw/odm/2003">
 <defs>
  <style type="text/css">
   <![CDATA[
    .str1 {stroke:white;stroke-width:2.36;stroke-linecap:round;stroke-linejoin:round;stroke-miterlimit:22.9256}
    .str0 {stroke:white;stroke-width:2.08;stroke-linecap:round;stroke-linejoin:round;stroke-miterlimit:22.9256}
    .fil1 {fill:none}
    .fil0 {fill:white}
   ]]>
  </style>
 </defs>
 <g id="Layer_x0020_1">
  <metadata id="CorelCorpID_0Corel-Layer"/>
  <path class="fil0" d="M73.06 194.54c2.59,0.98 6.99,2.73 13.35,5.47 13.6,5.86 32.64,2.95 44.49,3.23 9.53,0.22 17.33,6.05 16.87,8.17 1.99,-0.26 4.74,0.37 5.44,-1.32 0.75,-1.81 -0.37,-3.91 -0.33,-5.91 0.09,-4.1 0.82,-8.25 2.61,-11.83 1.43,-2.84 3.75,-5.61 6.53,-7.39 0.12,-0.08 -0.87,-4.56 -2.76,-9.68 -0.98,-2.65 -2.14,-6.26 -2.3,-8.49 -0.44,-6.01 4.35,-19.51 4.46,-19.57 0.19,-0.11 1.24,-1.08 1.57,0.43 0.02,0.1 -4.77,10.11 -4.17,18.95 0.24,3.56 4.75,16.98 4.84,16.92 0.77,-0.56 2.19,-0.3 3.12,-0.44 11.15,-1.7 22.99,-0.99 33.74,2.42 7.37,2.33 15.43,6.98 18.41,14.11 2.51,5.99 -1.84,13.05 -4.57,18.95 -3.25,7.04 -8.57,12.92 -12.96,19.32l9.08 0c6.77,-10.29 11.46,-20.58 13.69,-30.88 1.26,-9.41 2.51,-18.81 3.77,-28.22 1.54,-13.75 -0.57,-22.55 -6.19,-26.61 -8.35,-6.07 -16.71,-12.14 -25.06,-18.21 -7.63,-7.37 -16.8,-9.62 -25.61,-13.06 1.79,1.77 -0.43,1.67 -0.53,2.56 -7.22,9.49 -35.19,29.66 -53.93,42.84 -16.4,-17.07 -10.95,-19.55 -12.02,-29.07 -0.48,-4.31 2.18,-8.64 4.45,-12.45 0.64,-1.09 3.11,-1.52 3.19,-2.65 0.11,-1.47 0.16,-2.76 0.14,-3.98 -1.35,1.44 -2.7,2.87 -4.06,4.31 -8.79,2.95 -17.91,6.69 -27.42,11.43 -8.77,5.22 -16.68,8.17 -26.88,8.73 -5.61,1.63 -12.35,4.78 -16.53,11.43 -2.59,3.98 -4.66,10.86 -3.25,23.81 10.99,-5.27 22.77,-8.49 32.95,-3.25 1.26,0.64 3.04,2.59 3.03,1.36 -0.04,-5.28 -2.2,-15.85 0.38,-14.96 0.75,0.26 0.51,2.02 0.59,4.24 0.19,5.14 1.25,13.13 1.32,13.25 0.36,0.61 -0.74,1.04 -0.51,1.72 0.69,2 0.89,4.26 0.82,6.62 -0.07,2 -2.81,3.7 -2.53,5.78 0.02,0.21 0.06,0.38 0.1,0.53 0.35,1.17 1.23,0.84 2.67,1.39z"/>
  <path class="fil1 str0" d="M110.92 108.09c1.35,5.73 1.7,8.74 1.32,14.04 -0.08,1.13 -2.55,1.56 -3.19,2.65 -2.27,3.81 -4.93,8.14 -4.45,12.45 1.07,9.52 -4.38,12 12.02,29.07 18.74,-13.18 46.71,-33.35 53.93,-42.84 0.12,-1.1 3.48,-0.69 -1.47,-4.15 -3.35,-2.35 -8.07,-4.79 -9.21,-8.8 -1.75,-6.14 1.3,-13.78 -0.73,-19.68m2.94 -26.62c-3.45,2.19 -3.53,13.59 -4.23,12.25 -4.26,-8.16 -3.25,-19.1 -10.62,-26.95 -4.19,-4.47 -11.54,0.95 -17.67,0.88 -6.55,-0.08 -16.13,-7.04 -20.16,-1.89 -7.21,9.21 -2.58,18.15 -4.88,31.6 -0.97,5.69 -1.21,-11 -4.51,-13.49m20.99 37.32c7.13,0.54 14.16,0.36 21.1,-0.53m-15.05 -18.15c-1.12,2.98 -4.42,5.48 -3.02,8.33 0.89,1.82 1.44,0.86 3.76,0.88 1.14,0.02 3.37,1.77 4.37,1.75 1.19,-0.03 2.34,-1.6 3.6,-1.98 1.15,-0.35 2.71,0.52 3.05,-0.51 0.88,-2.68 -2.25,-5.29 -3.22,-7.93 -0.23,-0.62 -0.59,-2.6 -0.81,-3.23m66.14 156.03c4.48,-6.68 10.07,-12.73 13.44,-20.03 2.73,-5.9 7.08,-12.96 4.57,-18.95 -2.98,-7.13 -11.04,-11.78 -18.41,-14.11 -10.75,-3.41 -22.59,-4.12 -33.74,-2.42 -4.81,0.73 -9.1,4.92 -11.29,9.27 -1.79,3.58 -2.52,7.73 -2.61,11.83 -0.04,2 1.08,4.1 0.33,5.91 -0.8,1.91 -4.21,0.85 -6.18,1.48m-76.61 -18.41l-21.5 -4.17m-14.92 -11.02c11.06,-5.34 22.93,-8.63 33.19,-3.36 4.63,2.38 5.8,7.08 5.63,12.23 -0.07,2 -2.81,3.7 -2.53,5.78 0.23,1.8 1.14,1.3 2.77,1.92 2.59,0.98 6.99,2.73 13.35,5.47 13.6,5.86 32.64,2.95 44.49,3.23 11.04,0.26 19.77,8.05 15.99,8.87 -14.34,3.12 -22.86,6.03 -29.43,11.15 -9.48,7.39 -18.12,9.82 -25.54,15.33m79.17 -117.7c8.8,3.45 17.97,5.7 25.6,13.07 8.35,6.07 16.71,12.14 25.06,18.21 5.62,4.06 7.73,12.86 6.19,26.61 -1.26,9.41 -2.51,18.81 -3.77,28.22 -2.26,10.44 -7.05,20.88 -13.97,31.32 -58.37,0 -116.73,0 -175.1,0 -4.35,-2.29 -11.72,-2.26 -13.07,-6.99 -4.15,-14.6 0.72,-22.39 -1.47,-31.18 -1.63,-6.52 6.76,-16.46 13.71,-22.04 -1.47,-13.11 0.61,-20.05 3.22,-24.06 4.18,-6.65 10.92,-9.8 16.53,-11.43 10.2,-0.56 18.11,-3.51 26.88,-8.73 9.51,-4.74 18.63,-8.48 27.42,-11.43 1.43,-1.52 2.87,-3.04 4.3,-4.57m18.08 -93.34c20.19,0.75 31.28,17.44 31.38,39.81 0.01,2.59 3.47,-1.96 3.14,0.76 -0.45,3.81 1.31,9.89 0.45,13.77 -0.9,4.06 -1.31,5.12 -2.79,8.88 -0.41,1.05 -2.69,0.58 -3.14,1.62 -0.2,0.47 -0.4,0.95 -0.6,1.44 -2.58,6.4 -4.73,14.72 -8.26,19.83 -1.94,2.81 -3.56,5.67 -6,7.31 -4.35,2.92 -9.9,3.43 -14.27,3.35 -3.77,-0.08 -7.92,0.15 -11,-1.78 -3.48,-2.19 -5.8,-6.81 -8.57,-11.26l-0.12 -0.19c-2.4,-3.95 -4.27,-9.77 -6.07,-14.4 -1.03,-2.65 -3.06,-1.19 -4.11,-3.77 -1.57,-3.84 -2.03,-11.77 -2.13,-16.09 -0.06,-2.14 -0.92,-1.75 -1.09,-3.92 -0.14,-1.65 2.54,-1.85 2.5,-3.44 -0.69,-24.83 9.51,-42.71 30.68,-41.92z"/>
  <path class="fil1 str0" d="M143.23 74.08c-6.2,0.43 -9.62,0.54 -8.99,3.12 0.63,2.57 4.34,3.75 9.31,3.6 4.97,-0.15 8.59,-1.52 8.68,-4.14 0.08,-2.61 -2.8,-3.02 -9,-2.58zm-23.95 0.06c6.21,0.25 9.68,0.7 9.12,3.29 -0.55,2.59 -4.23,3.88 -9.2,3.88 -4.96,0 -8.62,-1.27 -8.79,-3.88 -0.17,-2.61 2.66,-3.54 8.87,-3.29z"/>
  <path class="fil1 str0" d="M138.99 75.72c0,-0.5 0.14,-0.97 0.4,-1.39 1.05,-0.09 2.26,-0.16 3.61,-0.21 0.93,-0.04 1.77,-0.05 2.54,-0.03 0.35,0.47 0.56,1.03 0.56,1.63 0,1.67 -1.6,3.02 -3.56,3.02 -1.96,0 -3.55,-1.35 -3.55,-3.02zm-15.03 0.06c0,-0.5 -0.14,-0.97 -0.4,-1.39 -1.06,-0.09 -2.27,-0.16 -3.61,-0.21 -0.93,-0.04 -1.77,-0.05 -2.54,-0.03 -0.35,0.47 -0.56,1.03 -0.56,1.63 0,1.67 1.59,3.02 3.55,3.02 1.97,0 3.56,-1.35 3.56,-3.02z"/>
  <path class="fil0" d="M0.25 0.03l255.5 0 0 255.51 -255.5 0 0 -255.51zm3.08 3.08l249.34 0 0 249.34 -249.34 0 0 -249.34z"/>
  <path class="fil0" d="M15.18 14.96l225.64 0 0 225.65 -225.64 0 0 -225.65zm2.72 2.72l220.2 0 0 220.2 -220.2 0 0 -220.2z"/>
  <path class="fil1 str1" d="M1.18 255.07l15.28 -15.28m222.84 -222.84l15.28 -15.28m-252.99 -0.49l15.28 15.28m221.67 222.33l15.28 15.29"/>
  <path class="fil0" d="M109.4 48.5c4.03,-5.15 13.61,1.81 20.16,1.89 6.13,0.07 13.48,-5.35 17.67,-0.88 7.37,7.85 6.36,18.79 10.62,26.95 0.7,1.34 0.78,-10.06 4.23,-12.25 -0.15,-22.29 -11.24,-38.91 -31.38,-39.66 -21.17,-0.79 -31.37,17.09 -30.68,41.92 0,0.05 0,0.1 -0.01,0.14 3.3,2.49 3.54,19.18 4.51,13.49 2.3,-13.45 -2.33,-22.39 4.88,-31.6z"/>
 </g>
</svg>
