<?xml version="1.0" encoding="UTF-8"?>
<!DOCTYPE svg PUBLIC "-//W3C//DTD SVG 1.1//EN" "http://www.w3.org/Graphics/SVG/1.1/DTD/svg11.dtd">
<!-- Creator: CorelDRAW 2019 (64-Bit) -->
<svg xmlns="http://www.w3.org/2000/svg" xml:space="preserve" width="256px" height="256px" version="1.1" style="shape-rendering:geometricPrecision; text-rendering:geometricPrecision; image-rendering:optimizeQuality; fill-rule:evenodd; clip-rule:evenodd"
viewBox="0 0 256 256"
 xmlns:xlink="http://www.w3.org/1999/xlink"
 xmlns:xodm="http://www.corel.com/coreldraw/odm/2003">
 <defs>
  <style type="text/css">
   <![CDATA[
    .fil0 {fill:white}
   ]]>
  </style>
 </defs>
 <g id="Layer_x0020_1">
  <metadata id="CorelCorpID_0Corel-Layer"/>
  <path class="fil0" d="M31.91 0l-31.91 31.91 0 191.58 32.51 32.51 191.28 0 32.21 -32.21 0 -169.97 0 -22.52 -31.3 -31.3 -192.79 0zm6.59 15.92l179.6 0 21.98 21.98 0 179.29 -22.89 22.89 -178.08 0 -23.19 -23.19 0 -178.39 22.58 -22.58z"/>
  <path class="fil0" d="M166.56 57.03c-0.14,-21.37 -11.73,-34.6 -31.05,-35.31 -20.29,-0.76 -30.39,13.36 -29.73,37.16 0,0.04 0,0.09 -0.02,0.13 3.17,2.39 5.15,17.98 4.81,12.46 -0.83,-13.54 -2.39,-17.96 4.52,-26.79 3.86,-4.94 13.06,1.73 19.33,1.81 5.87,0.07 15.16,-5.6 19.18,-1.32 7.07,7.53 4.83,15.78 8.91,23.61 0.67,1.29 0.75,-9.65 4.05,-11.75zm47.5 154.3c2.48,-5.37 8.84,-11.81 6.56,-17.27 -2.72,-6.49 -10.07,-10.73 -16.78,-12.85 -9.78,-3.11 -19.16,-4.13 -29.3,-2.59 -1.53,0.24 -3,0.85 -4.35,1.72 -2.53,1.62 -4.64,4.15 -5.94,6.73 -1.63,3.26 -2.3,7.04 -2.38,10.78 -0.04,1.83 -0.44,4.12 -1.12,5.76 -0.64,1.54 -3.15,0.96 -4.96,1.21 -0.07,0.3 -0.32,0.53 -0.8,0.63 -13.06,2.84 -20.82,5.5 -26.81,10.16 -8.49,6.62 -16.24,8.87 -22.93,13.72 33.04,0 63.69,0 96.73,0 0.09,-0.14 0.18,-0.27 0.27,-0.4 4,-5.83 8.85,-11.19 11.81,-17.6zm-72.05 -5.96c0.42,-1.93 -6.69,-7.24 -15.36,-7.45 -10.81,-0.25 -28.15,2.4 -40.53,-2.94 -5.8,-2.5 -9.81,-4.09 -12.17,-4.98 -1.31,-0.5 -2.11,-0.2 -2.43,-1.27 -0.03,-0.13 -0.07,-0.29 -0.09,-0.48 -0.25,-1.9 2.24,-3.45 2.3,-5.27 0.07,-2.15 -0.11,-4.21 -0.74,-6.03 -0.49,-1.41 -1.25,-2.68 -2.37,-3.71 -0.57,-0.36 -1.37,-1.07 -2.01,-1.4 -9.28,-4.77 -20,-1.84 -30.02,2.96 0,0.07 0.02,0.15 0.02,0.22 -6.32,5.1 -13.96,14.15 -12.49,20.08 2.01,8.02 -2.43,15.11 1.35,28.41 1.22,4.31 7.94,4.29 11.9,6.37 17.37,0 34.74,0 52.1,0 6.69,-4.85 14.44,-7.1 22.93,-13.71 5.99,-4.67 13.75,-7.33 26.81,-10.17 0.48,-0.1 0.73,-0.33 0.8,-0.63zm-18.65 -42.46c-17.29,-14.32 -13.99,-20.27 -14.52,-30 -0.22,-3.95 2.19,-7.87 4.48,-11.34 0.65,-0.99 3.15,-1.38 3.23,-2.41 0.11,-1.34 0.15,-2.52 0.14,-3.63 -1.37,1.31 -2.73,2.62 -4.1,3.93 -8.87,2.68 -18.07,6.1 -27.66,10.41 -8.85,4.76 -16.03,9.52 -26.32,10.03 -5.67,1.48 -12.46,4.35 -16.68,10.41 -2.62,3.63 -4.71,9.9 -3.29,21.69 11.1,-4.8 22.98,-7.73 33.26,-2.96 0.85,0.4 1.59,0.86 2.22,1.39 0.49,0.28 0.83,0.34 0.83,-0.15 -0.04,-4.82 -2.22,-14.44 0.38,-13.63 0.76,0.23 0.52,1.84 0.59,3.87 0.2,4.67 1.27,11.95 1.34,12.07 0.36,0.55 -0.75,0.94 -0.51,1.56 0.69,1.82 0.9,3.88 0.81,6.03 -0.06,1.82 -2.82,3.37 -2.54,5.27 0.02,0.18 0.06,0.35 0.1,0.48 0.35,1.07 1.24,0.77 2.7,1.26 2.6,0.9 7.04,2.49 13.47,4.99 13.71,5.34 32.92,2.68 44.88,2.94 9.61,0.21 17.48,5.51 17.02,7.45 2.01,-0.24 4.78,0.33 5.49,-1.21 0.76,-1.64 -0.38,-3.55 -0.33,-5.39 0.09,-3.73 0.82,-7.51 2.63,-10.77 1.44,-2.59 3.78,-5.11 6.58,-6.73 0.13,-0.08 -0.87,-4.16 -2.78,-8.82 -0.99,-2.42 -2.16,-5.7 -2.32,-7.73 -0.44,-5.48 4.38,-17.77 4.5,-17.83 0.2,-0.1 1.26,-0.98 1.59,0.4 0.02,0.08 -4.82,9.19 -4.21,17.25 0.24,3.25 4.79,15.47 4.88,15.42 0.78,-0.51 2.21,-0.28 3.15,-0.4 11.25,-1.55 23.2,-0.91 34.04,2.2 7.43,2.13 15.56,6.36 18.57,12.85 2.54,5.46 -1.86,11.89 -4.61,17.27 -3.28,6.41 -8.64,11.77 -13.08,17.6l9.17 0c6.83,-9.38 11.56,-18.76 13.81,-28.13 1.27,-8.58 2.53,-17.14 3.8,-25.71 1.56,-12.52 -0.57,-20.54 -6.24,-24.25 -8.43,-5.53 -16.86,-11.05 -25.28,-16.59 -7.71,-6.7 -15.51,-8.44 -24.41,-11.57 2.65,2.37 -49.48,39.11 -54.78,42.48zm-0.31 -3.04c17.81,-12.01 44.41,-30.38 51.28,-39.02 0.09,-0.82 2.21,-0.73 0.5,-2.34 -0.4,-0.38 -1.01,-0.85 -1.9,-1.45 -3.18,-2.13 -7.67,-4.36 -8.76,-8.02 -1.66,-5.59 0.13,-9.98 -0.7,-17.92 -1.12,4.29 -1.99,6.96 -3.31,10.33 -1.17,3 -2.46,5.84 -4.06,8.05 -1.84,2.56 -3.86,4.84 -6.18,6.34 -4.14,2.66 -9.41,3.13 -13.57,3.05 -3.15,-0.06 -6.57,0.09 -9.34,-1.06 -1.69,-0.65 -2.94,-1.7 -4.32,-3.45 -1.65,-1.99 -3.1,-4.48 -4.67,-6.94 -0.1,-0.14 -0.19,-0.28 -0.28,-0.42l-0.11 -0.17c0.93,3.76 1.36,6.24 1.39,9.15 0.01,1.11 -0.03,2.29 -0.13,3.63 -0.08,1.03 -2.43,1.43 -3.05,2.41 -2.15,3.48 -4.68,7.42 -4.22,11.35 1.02,8.67 -4.16,10.93 11.43,26.48zm39.56 -86.47c-4.11,-7.82 -3.14,-18.31 -10.26,-25.84 -4.05,-4.29 -11.16,0.91 -17.08,0.84 -6.33,-0.07 -15.59,-6.75 -19.49,-1.81 -6.96,8.83 -2.49,17.4 -4.71,30.3 -0.94,5.45 -1.18,-10.54 -4.36,-12.93 -0.11,1.4 -2.54,1.63 -2.42,3.15 0.18,2.08 1.01,1.72 1.06,3.77 0.11,4.14 0.55,11.74 2.06,15.43 1.02,2.47 2.98,1.07 3.98,3.61 1.73,4.44 3.54,10.03 5.86,13.81l0.12 0.19c2.67,4.26 4.92,8.69 8.28,10.79 2.97,1.85 6.98,1.63 10.63,1.7 4.23,0.09 9.58,-0.41 13.8,-3.21 2.36,-1.57 3.92,-4.31 5.79,-7.01 3.41,-4.9 5.5,-12.87 7.99,-19.01 0.19,-0.47 0.38,-0.93 0.58,-1.38 0.44,-1 2.64,-0.55 3.04,-1.55 1.43,-3.61 1.82,-4.62 2.69,-8.52 0.83,-3.72 -0.87,-9.55 -0.44,-13.21 0.32,-2.61 -3.03,1.76 -3.03,-0.72 0,-0.05 0,-0.1 -0.01,-0.15 -3.32,2.11 -3.4,13.04 -4.08,11.75zm-21.83 8.03c0.71,-0.17 1.37,2.49 1.68,3.04 1.41,2.53 3.64,4.95 2.53,7.52 -0.41,0.96 -1.82,0.16 -2.92,0.49 -1.21,0.37 -2.32,1.88 -3.46,1.9 -0.95,0.01 -3.09,-1.65 -4.19,-1.67 -2.22,-0.03 -2.75,0.9 -3.6,-0.84 -1.34,-2.74 2.56,-9.48 3.1,-8.06 0.9,2.31 -3.08,4 -1.93,6.33 0.72,1.48 1.17,0.74 3.06,0.77 0.93,0 2.75,1.43 3.56,1.41 0.97,-0.02 1.6,-0.94 2.62,-1.25 0.94,-0.28 1.97,0.19 2.25,-0.66 0.71,-2.18 -1.64,-3.95 -2.43,-6.1 -0.19,-0.5 -0.91,-2.73 -0.27,-2.88zm7.41 19.9c0.5,-0.1 0.4,-1.58 -0.12,-1.54 -6.69,0.54 -13.41,0.72 -20.19,0.32 -0.57,-0.04 -0.57,1.61 -0.01,1.7 6.81,1.05 13.7,0.83 20.32,-0.48zm-1.34 -25.68c1.8,0 3.27,-1.23 3.27,-2.75 0,-0.44 -0.12,-0.85 -0.34,-1.22 -2,-0.02 -4.24,0.22 -6.04,0.38 -0.09,0.27 -0.15,0.55 -0.15,0.84 0,1.52 1.46,2.75 3.26,2.75zm-21.4 0.06c1.81,0 3.27,-1.23 3.27,-2.75 0,-0.3 -0.06,-0.58 -0.16,-0.84 -1.68,-0.16 -4.01,-0.35 -6.11,-0.25 -0.16,0.34 -0.26,0.71 -0.26,1.09 0,1.52 1.46,2.75 3.26,2.75zm14.34 -1.6c-0.46,-1.89 1.37,-2.4 4.96,-2.72 0,-0.01 0.01,-0.02 0.01,-0.03 0.77,-0.07 1.62,-0.12 2.54,-0.16 0.38,-0.03 0.78,-0.06 1.18,-0.08 6,-0.42 8.78,-0.03 8.69,2.47 -0.08,2.51 -3.58,3.83 -8.38,3.97 -4.8,0.14 -8.39,-0.98 -9,-3.45zm-10.31 -2.67c3.34,0.34 5.06,1.06 4.67,2.89 -0.53,2.48 -4.09,3.72 -8.89,3.72 -4.8,0 -8.34,-1.22 -8.5,-3.72 -0.17,-2.51 2.57,-3.39 8.57,-3.15 0.22,0 0.43,0.01 0.64,0.02 0.65,0.03 1.25,0.06 1.82,0.1 0.6,0.03 1.16,0.07 1.68,0.11 0.01,0.01 0.01,0.02 0.01,0.03z"/>
 </g>
</svg>
