<?xml version="1.0" encoding="UTF-8"?>
<!DOCTYPE svg PUBLIC "-//W3C//DTD SVG 1.1//EN" "http://www.w3.org/Graphics/SVG/1.1/DTD/svg11.dtd">
<!-- Creator: CorelDRAW 2019 (64-Bit) -->
<svg xmlns="http://www.w3.org/2000/svg" xml:space="preserve" width="350px" height="350px" version="1.1" style="shape-rendering:geometricPrecision; text-rendering:geometricPrecision; image-rendering:optimizeQuality; fill-rule:evenodd; clip-rule:evenodd"
viewBox="0 0 350 350"
 xmlns:xlink="http://www.w3.org/1999/xlink"
 xmlns:xodm="http://www.corel.com/coreldraw/odm/2003">
 <defs>
  <style type="text/css">
   <![CDATA[
    .fil0 {fill:white}
   ]]>
  </style>
 </defs>
 <g id="Layer_x0020_1">
  <metadata id="CorelCorpID_0Corel-Layer"/>
  <path class="fil0" d="M18.6 81.74c0,-34.73 28.41,-63.14 63.14,-63.14l87.1 0 0 12.59c-75.04,2.65 -135.45,62.75 -138.6,137.65l-11.64 0 0 -87.1zm86.13 79.17c0,10.87 0.21,17.01 4.3,27.24 5.47,13.68 18.16,25.66 31.29,31.51 1.91,0.85 7.41,2.95 9.78,2.95l0.28 7.19 -30.99 0c-4.61,0 -8.95,-1.13 -11.63,-3.03 -2.95,-2.1 -4.34,-7.04 -4.42,-10.52l-4.15 0 0 33.75 60.59 0c0,-6.91 -1.32,-17.75 -1.37,-24.36l-0.56 -8.29c-1.06,-0.5 -2.27,-0.85 -3.33,-1.38 -6.37,-3.14 -9.44,-5.22 -14.02,-10.87 -0.66,-0.81 -1.52,-2.13 -2.01,-2.97 -0.59,-1.03 -1.26,-2.09 -1.75,-3.23 -7.63,-17.86 -9.19,-42.86 -1.7,-61.63 1.61,-4.03 4.45,-8.76 6.96,-12.13 12.94,-17.34 34.54,-21.97 53.57,-11.63 6.58,3.58 13.84,10.88 17.51,17.62l2.13 4.24c0.4,0.87 0.68,1.44 1.02,2.3 6.81,17.21 6.46,44.86 -1.85,61.52 -3.26,6.53 -7.98,11.64 -14.39,15.21 -1.57,0.87 -5.28,2.55 -7.01,2.95l-1.06 12.22c-0.45,4.28 -0.38,7.78 -1.03,12.25l-0.67 8.18 60.59 0 0 -33.75 -4.15 0c0,9.69 -6.25,13.55 -15.5,13.55l-31.26 0c0,-1.77 0.5,-4.31 0.76,-5.87 0.27,-1.58 0.12,-1.17 1.68,-1.64 7.4,-2.25 16.56,-6.73 22.39,-11.92 0.7,-0.63 1.28,-1 1.94,-1.66 2.11,-2.08 4.8,-4.67 6.55,-7 3.21,-4.28 5.6,-7.71 7.79,-12.97 7.67,-18.41 6.57,-42.5 -4.64,-59.31 -1.18,-1.77 -2.07,-2.98 -3.39,-4.64 -1.26,-1.6 -2.41,-2.79 -3.82,-4.2 -0.76,-0.76 -1.32,-1.31 -2.08,-2.08 -3.01,-3.04 -7.79,-6.34 -11.57,-8.62 -24.81,-15.02 -67.41,-13.1 -89,6.96 -0.79,0.74 -1.26,0.98 -2.07,1.8 -8.18,8.27 -14.14,16.16 -17.44,27.93 -1.12,3.99 -2.27,9.39 -2.27,14.33zm76.43 -142.31l88.27 0c34.73,0 63.14,28.42 63.14,63.14l0 87.1 -14.78 0c-3.13,-74.25 -62.51,-133.94 -136.63,-137.57l0 -12.67zm151.41 162.56l0 85.7c0,34.73 -28.41,63.14 -63.14,63.14l-88.27 0 0 -11.27c74.12,-3.62 133.5,-63.32 136.63,-137.57l14.78 0zm-163.73 148.84l-87.1 0c-34.72,0 -63.14,-28.41 -63.14,-63.14l0 -85.7 11.64 0c3.15,74.91 63.56,135.01 138.6,137.66l0 11.18zm137.38 -148.84l-17.37 0c-3.08,58.28 -49.54,105.06 -107.69,108.62l0 17.38c67.73,-3.61 121.95,-58.14 125.06,-126zm-29.11 0l-16.12 0 0 -12.32 16.12 0c-3.05,-51.8 -44.28,-93.34 -95.95,-96.87l0 17.04 -12.32 0 0 -17.16c-52.59,2.59 -94.84,44.53 -97.93,96.99l19.37 0 0 12.32 -19.37 0c1.35,22.84 10.11,43.68 23.92,60.15l0.12 12.87 13 0.21c16.67,13.88 37.78,22.62 60.89,23.76l0 -17.16 12.32 0 0 17.05c22.39,-1.54 42.81,-10.2 59.02,-23.74l15.02 0.01 0.03 -15.51c12.63,-16.05 20.6,-35.95 21.88,-57.64zm-217.94 0l-17.36 0c3.14,68.52 58.38,123.45 127.03,126.09l0 -17.36c-59.07,-2.62 -106.55,-49.79 -109.67,-108.73zm109.67 -121.04l0 -17.36c-68.65,2.63 -123.89,57.56 -127.03,126.08l17.36 0c3.11,-58.93 50.6,-106.11 109.67,-108.72zm120.01 108.72l17.37 0c-3.11,-67.86 -57.33,-122.39 -125.06,-125.99l0 17.37c58.15,3.57 104.61,50.34 107.69,108.62zm-13.85 -168.84l-200 0c-41.25,0 -75,33.75 -75,75l0 200c0,41.25 33.75,75 75,75l200 0c41.25,0 75,-33.75 75,-75l0 -200c0,-41.25 -33.75,-75 -75,-75z"/>
 </g>
</svg>
