<?xml version="1.0" encoding="iso-8859-1"?>
<!-- Generator: Adobe Illustrator 19.0.0, SVG Export Plug-In . SVG Version: 6.00 Build 0)  -->
<svg version="1.1" id="Layer_1" xmlns="http://www.w3.org/2000/svg" xmlns:xlink="http://www.w3.org/1999/xlink" x="0px" y="0px"
	 viewBox="0 0 505 505" style="enable-background:new 0 0 505 505;" xml:space="preserve">
<circle style="fill:#FD8469;" cx="252.5" cy="252.5" r="252.5"/>
<path style="fill:#324A5E;" d="M252.5,75C154.4,75,75,154.5,75,252.5C75,350.6,154.5,430,252.5,430S430,350.6,430,252.5
	S350.6,75,252.5,75z M284.7,376l-14-75.3h-36.3l-14,75.3c-2.2,11.6-14.5,18.6-25.4,14c-35.7-14.9-64.3-43.3-79.5-78.8
	c-4.2-9.7,0.5-21,10.3-24.9l59.9-23.9l-5.4-24.2l-53-27.1c-9.2-4.7-12.8-16-8.2-25.2c24.6-48.9,75-82.4,133.4-82.4
	s108.8,33.6,133.3,82.4c4.6,9.3,1,20.5-8.2,25.2l-53,27.1l-5.4,24.2l59.9,23.9c9.8,3.9,14.5,15.2,10.3,24.9
	c-15.2,35.5-43.8,63.9-79.5,78.8C299.1,394.6,286.8,387.6,284.7,376z"/>
<path style="fill:#E6E9EE;" d="M171.5,234.2L171.5,234.2c-7.5,7.5-7.5,19.8,0,27.3l67.4,67.4c7.5,7.5,19.8,7.5,27.3,0l67.3-67.4
	c7.5-7.5,7.5-19.8,0-27.3l0,0c-3.6-3.6-8.5-5.7-13.7-5.7H185.1C180,228.5,175.1,230.6,171.5,234.2z"/>
<rect x="226" y="252.5" style="fill:#CED5E0;" width="53.1" height="20.5"/>
<g>
</g>
<g>
</g>
<g>
</g>
<g>
</g>
<g>
</g>
<g>
</g>
<g>
</g>
<g>
</g>
<g>
</g>
<g>
</g>
<g>
</g>
<g>
</g>
<g>
</g>
<g>
</g>
<g>
</g>
</svg>
