<svg id="Layer_1" enable-background="new 0 0 512.003 512.003" height="512" viewBox="0 0 512.003 512.003" width="512" xmlns="http://www.w3.org/2000/svg"><g><g clip-rule="evenodd" fill-rule="evenodd"><g fill="#6d91ac"><path d="m106.001 66.002h40v-36.002c0-11-9-20-20-20s-20 9-20 20z"/><path d="m236.001 30v36.001h40v-36.001c0-11-9-20-20-20-11 .001-20 9-20 20z"/><path d="m366.001 30v36.001h40v-36.001c0-11-9-20-20-20-11 .001-20 9-20 20z"/><path d="m482.003 106.001h-36.001v40h36.001c11 0 20-9 20-20-.001-11-9-20-20-20z"/><path d="m482.003 236.001h-36.001v40h36.001c11 0 20-9 20-20-.001-11-9-20-20-20z"/><path d="m482.003 366.001h-36.001v40h36.001c11 0 20-9 20-20-.001-11-9-20-20-20z"/><path d="m406.001 482.003v-36.001h-40v36.001c0 11 9 20 20 20s20-9 20-20z"/><path d="m276.002 482.003v-36.001h-40v36.001c0 11 9 20 20 20s20-9 20-20z"/><path d="m146.002 482.003v-36.001h-40v36.001c0 11 9 20 20 20s20-9 20-20z"/><path d="m30 406.002h36.001v-40h-36.001c-11 0-20 9-20 20s9 20 20 20z"/><path d="m30 276.002h36.001v-40h-36.001c-11 0-20 9-20 20s9 20 20 20z"/><path d="m30 146.002h36.001v-40h-36.001c-11 0-20 9-20 20s9 20 20 20z"/></g><path d="m66.001 106.002v40 89.999 40 90 40c0 22 18 40 40 40h40.001 89.999 40 90 40c22 0 40-18 40-40v-40-89.999-40-90-40c0-22-18-40-40-40h-40-89.999-40-90-40c-22.001 0-40.001 18-40.001 40zm40.001 295v-290c0-2.75 2.25-5 5-5h290c2.75 0 5 2.25 5 5v290c0 2.75-2.25 5-5 5h-290c-2.751-.001-5-2.25-5-5z" fill="#5cd0b3"/><path d="m106.002 111.001v290c0 2.75 2.25 5 5 5h290c2.75 0 5-2.25 5-5v-290c0-2.75-2.25-5-5-5h-290c-2.751 0-5 2.25-5 5zm59.999 75c0-11 8.999-20 20-20h140.001c11 0 20 9 20 20v140c0 11-9 20-20 20h-140.001c-11 0-20-9-20-20z" fill="#fff"/><path d="m166.001 186.001v140c0 11 8.999 20 20 20h140.001c11 0 20-9 20-20v-140c0-11-9-20-20-20h-140.001c-11 .001-20 9-20 20zm54.142 55.859 21.716-21.716c7.778-7.778 20.506-7.778 28.284 0l21.716 21.716c7.778 7.778 7.778 20.506 0 28.284l-21.716 21.716c-7.778 7.778-20.506 7.778-28.284 0l-21.716-21.716c-7.778-7.779-7.778-20.506 0-28.284z" fill="#5cd0b3"/><path d="m220.143 241.86c-7.778 7.778-7.778 20.506 0 28.284l21.716 21.716c7.778 7.778 20.506 7.778 28.284 0l21.716-21.716c7.778-7.778 7.778-20.506 0-28.284l-21.716-21.716c-7.778-7.778-20.506-7.778-28.284 0z" fill="#ffc144"/></g><g><path d="m401.002 96.001h-100.004c-5.522 0-10 4.478-10 10s4.478 10 10 10h95.003v280h-279.999v-280h94.996c5.522 0 10-4.478 10-10s-4.478-10-10-10h-99.997c-8.271 0-14.999 6.729-14.999 15v290c0 8.271 6.729 15 14.999 15h290.001c8.271 0 14.999-6.729 14.999-15v-290c0-8.271-6.729-15-14.999-15z"/><path d="m196.001 156.001v-9.999c0-5.522-4.478-10-10-10s-10 4.478-10 10v11.719c-8.51 3.018-15.262 9.771-18.28 18.281h-11.718c-5.522 0-10 4.478-10 10s4.478 10 10 10h9.998v26.667h-9.998c-5.522 0-10 4.478-10 10s4.478 10 10 10h9.998v26.666h-9.998c-5.522 0-10 4.478-10 10s4.478 10 10 10h9.998v26.667h-9.998c-5.522 0-10 4.478-10 10s4.478 10 10 10h11.719c3.018 8.509 9.771 15.261 18.281 18.279v11.719c0 5.522 4.478 10 10 10s10-4.478 10-10v-9.999h26.667v9.999c0 5.522 4.478 10 10 10s10-4.478 10-10v-9.999h26.667v9.999c0 5.522 4.478 10 10 10s10-4.478 10-10v-9.999h26.666v9.999c0 5.522 4.478 10 10 10s10-4.478 10-10v-11.719c8.509-3.018 15.262-9.771 18.279-18.281h11.718c5.522 0 10-4.478 10-10s-4.478-10-10-10h-9.999v-26.666h9.999c5.522 0 10-4.478 10-10s-4.478-10-10-10h-9.999v-26.667h9.999c5.522 0 10-4.478 10-10s-4.478-10-10-10h-9.999v-26.667h9.999c5.522 0 10-4.478 10-10s-4.478-10-10-10h-11.719c-3.018-8.509-9.771-15.261-18.28-18.279v-11.719c0-5.522-4.478-10-10-10s-10 4.478-10 10v9.999h-26.667v-9.999c0-5.522-4.478-10-10-10s-10 4.478-10 10v9.999h-26.666v-9.999c0-5.522-4.478-10-10-10s-10 4.478-10 10v9.999zm-20 30c0-5.514 4.486-10 10-10h140.001c5.514 0 9.999 4.486 9.999 10v140c0 5.514-4.485 10-9.999 10h-140.001c-5.514 0-10-4.486-10-10z"/><path d="m234.788 298.93c5.651 5.65 13.185 8.763 21.213 8.763 8.029 0 15.563-3.112 21.214-8.763l21.716-21.715c5.65-5.651 8.763-13.185 8.763-21.213 0-8.029-3.112-15.563-8.763-21.214l-21.716-21.716c-5.651-5.65-13.185-8.763-21.214-8.763-8.028 0-15.562 3.112-21.213 8.763l-21.716 21.716c-5.65 5.651-8.763 13.185-8.763 21.214 0 8.028 3.112 15.562 8.763 21.213zm-7.573-49.999 21.716-21.716c1.873-1.873 4.384-2.905 7.07-2.905 2.688 0 5.198 1.032 7.071 2.905l21.716 21.716c1.873 1.873 2.905 4.384 2.905 7.071s-1.032 5.197-2.905 7.07l-21.716 21.715c-1.873 1.873-4.384 2.905-7.071 2.905s-5.197-1.032-7.07-2.905l-21.716-21.715c-3.9-3.898-3.9-10.242 0-14.141z"/><path d="m456.002 286.001h26.001c16.542 0 30-13.458 30-30s-13.458-30-30-30h-26.001-.001v-70h.001 26.001c16.542 0 30-13.458 30-30s-13.458-30-30-30h-27.008c-3.987-19.563-19.431-35.007-38.994-38.994v-27.007c0-16.542-13.458-30-30-30s-30 13.458-30 30v26.001h-69.999v-26.001c0-16.542-13.458-30-30.001-30-16.542 0-30 13.458-30 30v26.001h-69.999v-26.001c0-16.542-13.458-30-30.001-30-16.542 0-30 13.458-30 30v27.007c-19.563 3.987-35.007 19.431-38.994 38.994h-27.007c-16.542 0-30 13.458-30 30.001 0 16.542 13.458 30 30 30h26.001v69.999h-26.001c-16.542 0-30 13.458-30 30s13.458 30 30 30h26.001v70h-26.001c-16.542 0-30 13.458-30 30s13.458 30 30 30h27.007c3.987 19.563 19.432 35.007 38.995 38.994v27.007c0 16.542 13.458 30 30 30s30-13.458 30-30v-26.001h69.999v26.001c0 16.542 13.458 30 30.001 30 16.542 0 30-13.458 30-30v-26.001h69.999v26.001c0 16.542 13.458 30 30.001 30 16.542 0 29.999-13.458 29.999-30v-27.007c19.563-3.987 35.007-19.431 38.994-38.994h27.008c16.542 0 30-13.458 30-30.001 0-16.542-13.458-29.999-30-29.999h-26.001-.001l.001-70c-.001 0 0 0 0 0zm0-40h26.001c5.514 0 10 4.486 10 10s-4.486 10-10 10h-26.001-.001l.001-20c-.001 0 0 0 0 0zm36.001-120c0 5.514-4.486 10-10 10h-26.001-.001v-20h26.002c5.514 0 10 4.487 10 10zm-116.002-96.001c0-5.514 4.486-10 10-10s10 4.486 10 10v26.001h-20zm-130 0c0-5.514 4.486-10 10.001-10 5.514 0 10 4.486 10 10v26.001h-20.001zm-119.999-10c5.514 0 10 4.486 10 10v26.001h-20.001v-26.001c0-5.513 4.486-10 10.001-10zm-96.002 116.002c-5.514 0-10-4.486-10-10.001 0-5.514 4.486-10 10-10h26.001v20.001zm0 129.999c-5.514 0-10-4.486-10-10s4.486-10 10-10h26.001v20zm-10 120c0-5.514 4.486-10 10-10h26.001v20h-26.001c-5.514 0-10-4.486-10-10zm116.002 96.001c0 5.514-4.486 10-10.001 10-5.514 0-9.999-4.486-9.999-10v-26.001h20zm130 0c0 5.514-4.486 10-10.001 10-5.514 0-10-4.486-10-10v-26.001h20.001zm119.999 10c-5.514 0-10-4.486-10-10v-26.001h20v26.001c0 5.514-4.486 10-10 10zm20-56.001h-300c-16.538 0-29.993-13.451-30-29.987 0-.004.001-.009.001-.013 0-.007-.001-.013-.001-.019v-299.961c0-.006.001-.013.001-.019 0-.004-.001-.009-.001-.013.007-16.536 13.462-29.987 30-29.987h300c16.542 0 30 13.458 30 30v300c0 16.541-13.458 29.999-30 29.999zm50.001-60h26.001c5.514 0 10 4.486 10 10s-4.486 10-10 10h-26.002l.001-20c-.001 0 0 0 0 0z"/><path d="m256.002 116.001c5.522 0 10-4.478 10-10s-4.478-10-10-10h-.008c-5.522 0-9.996 4.478-9.996 10s4.481 10 10.004 10z"/></g></g></svg>