<?xml version="1.0" encoding="UTF-8"?>
<!DOCTYPE svg PUBLIC "-//W3C//DTD SVG 1.1//EN" "http://www.w3.org/Graphics/SVG/1.1/DTD/svg11.dtd">
<!-- Creator: CorelDRAW 2019 (64-Bit) -->
<svg xmlns="http://www.w3.org/2000/svg" xml:space="preserve" width="256px" height="256px" version="1.1" style="shape-rendering:geometricPrecision; text-rendering:geometricPrecision; image-rendering:optimizeQuality; fill-rule:evenodd; clip-rule:evenodd"
viewBox="0 0 256 256"
 xmlns:xlink="http://www.w3.org/1999/xlink"
 xmlns:xodm="http://www.corel.com/coreldraw/odm/2003">
 <defs>
  <style type="text/css">
   <![CDATA[
    .fil0 {fill:white}
   ]]>
  </style>
 </defs>
 <g id="Layer_x0020_1">
  <metadata id="CorelCorpID_0Corel-Layer"/>
  <path class="fil0" d="M14.62 85.21c15.08,15.08 37.41,18.49 55.78,10.24l5.67 5.66 25.04 -25.05 -5.66 -5.66c8.25,-18.37 4.84,-40.7 -10.24,-55.78 -19.49,-19.49 -51.1,-19.49 -70.59,0 -19.49,19.49 -19.49,51.1 0,70.59zm110.94 96.54l30.81 30.81 57.05 -57.05c-14.23,-14.22 -6.83,-6.83 -30.82,-30.81l-57.04 57.05zm38.77 26.98l11.88 11.88 44.4 -44.4 -11.88 -11.88 -44.4 44.4zm-99.84 -73.65l52.17 52.18 70.6 -70.6 -52.18 -52.17c-5.09,-5.09 -13.41,-5.09 -18.5,0l-52.09 52.09c-5.09,5.09 -5.09,13.41 0,18.5zm137.91 111.72c-7.64,-7.64 -10.52,-18.24 -8.63,-28.11l-5.96 -5.96 24.98 -24.98 6 6c9.84,-1.85 20.4,1.03 28.01,8.65 12.27,12.26 12.27,32.14 0,44.4 -12.26,12.27 -32.14,12.27 -44.4,0zm7.72 -7.71c-8.01,-8 -8.01,-20.97 0,-28.97 8,-8.01 20.97,-8.01 28.97,0 8,8 8,20.97 0,28.97 -8,8 -20.97,8 -28.97,0zm-183.24 -166.14c12.72,12.72 33.35,12.72 46.07,0 12.72,-12.72 12.72,-33.35 0,-46.07 -12.72,-12.72 -33.35,-12.72 -46.07,0 -12.72,12.72 -12.72,33.35 0,46.07z"/>
 </g>
</svg>
