<?xml version="1.0" encoding="UTF-8"?>
<!DOCTYPE svg PUBLIC "-//W3C//DTD SVG 1.1//EN" "http://www.w3.org/Graphics/SVG/1.1/DTD/svg11.dtd">
<!-- Creator: CorelDRAW 2019 (64-Bit) -->
<svg xmlns="http://www.w3.org/2000/svg" xml:space="preserve" width="256px" height="256px" version="1.1" style="shape-rendering:geometricPrecision; text-rendering:geometricPrecision; image-rendering:optimizeQuality; fill-rule:evenodd; clip-rule:evenodd"
viewBox="0 0 256 256"
 xmlns:xlink="http://www.w3.org/1999/xlink"
 xmlns:xodm="http://www.corel.com/coreldraw/odm/2003">
 <defs>
  <style type="text/css">
   <![CDATA[
    .fil0 {fill:white}
   ]]>
  </style>
 </defs>
 <g id="Layer_x0020_1">
  <metadata id="CorelCorpID_0Corel-Layer"/>
  <g>
   <path class="fil0" d="M57.29 174.65c3.21,13.9 11.82,22.5 25.82,25.82l-25.82 -25.82zm-31 16.49c8.16,18.84 21.74,32.42 40.74,40.74l-40.74 -40.74zm10.88 -5.77c6.33,17.01 18.07,28.75 35.22,35.22l-35.22 -35.22zm10.06 -5.64c4.87,15.55 15.13,25.82 30.8,30.8l-30.8 -30.8zm64.43 -68.89c6.66,5.56 12.93,10.72 18.82,16.61 5.89,5.89 11.14,12.38 16.54,18.75 -11.79,11.78 -23.64,23.5 -35.43,35.28 -5.42,-6.38 -10.44,-12.65 -16.33,-18.54 -5.89,-5.89 -12.25,-11.41 -18.95,-16.74 11.78,-11.79 23.56,-23.57 35.35,-35.36zm-7.64 -86.9l42.82 42.81 -35.08 35.08 -42.82 -42.81 35.08 -35.08zm87.03 87.02l42.81 42.82 -35.07 35.08 -42.82 -42.82 35.08 -35.08zm-39.45 39.46l42.81 42.81 -35.08 35.08 -42.81 -42.81 35.08 -35.08zm8.54 65.38l4.48 4.49 -4.97 4.97 -4.49 -4.49 4.98 -4.97zm26.76 -26.76l4.49 4.49 -4.97 4.97 -4.49 -4.49 4.97 -4.97zm-35.23 -35.24l4.49 4.49 -4.97 4.97 -4.49 -4.49 4.97 -4.97zm6.01 6.01l4.49 4.49 -4.97 4.97 -4.49 -4.49 4.97 -4.97zm6.01 6.01l4.49 4.49 -4.97 4.97 -4.49 -4.49 4.97 -4.97zm6.01 6.01l3.37 3.38 -4.97 4.97 -3.37 -3.38 4.97 -4.97zm5.18 5.18l4.49 4.49 -4.97 4.98 -4.49 -4.49 4.97 -4.98zm6.01 6.02l4.49 4.48 -4.97 4.98 -4.49 -4.49 4.97 -4.97zm-0.35 12.37l4.49 4.49 -4.97 4.97 -4.49 -4.49 4.97 -4.97zm-35.24 -35.24l4.49 4.49 -4.97 4.97 -4.49 -4.48 4.97 -4.98zm6.02 6.01l4.48 4.49 -4.97 4.98 -4.49 -4.49 4.98 -4.98zm6.01 6.02l4.48 4.48 -4.97 4.98 -4.49 -4.49 4.98 -4.97zm6.01 6.01l3.37 3.37 -4.97 4.97 -3.38 -3.37 4.98 -4.97zm5.18 5.18l4.49 4.49 -4.97 4.97 -4.49 -4.49 4.97 -4.97zm6.01 6.01l4.49 4.49 -4.97 4.97 -4.49 -4.49 4.97 -4.97zm-0.84 12.86l4.49 4.49 -4.97 4.97 -4.49 -4.49 4.97 -4.97zm-35.23 -35.24l4.49 4.49 -4.98 4.97 -4.48 -4.49 4.97 -4.97zm6.01 6.01l4.49 4.49 -4.97 4.97 -4.49 -4.49 4.97 -4.97zm6.01 6.01l4.49 4.49 -4.97 4.97 -4.49 -4.49 4.97 -4.97zm6.01 6.01l3.37 3.38 -4.97 4.97 -3.37 -3.37 4.97 -4.98zm5.18 5.19l4.49 4.48 -4.97 4.98 -4.49 -4.49 4.97 -4.97zm6.01 6.01l4.49 4.49 -4.97 4.97 -4.49 -4.49 4.97 -4.97zm-1.18 13.2l4.49 4.49 -4.97 4.97 -4.49 -4.49 4.97 -4.97zm-35.24 -35.24l4.49 4.49 -4.97 4.97 -4.49 -4.49 4.97 -4.97zm6.02 6.01l4.48 4.49 -4.97 4.97 -4.49 -4.48 4.98 -4.98zm6.01 6.01l4.49 4.49 -4.98 4.98 -4.49 -4.49 4.98 -4.98zm6.01 6.02l3.37 3.37 -4.97 4.97 -3.37 -3.37 4.97 -4.97zm5.18 5.18l4.49 4.49 -4.97 4.97 -4.49 -4.49 4.97 -4.97zm6.01 6.01l4.49 4.49 -4.97 4.97 -4.49 -4.49 4.97 -4.97zm-35.59 -22.86l4.49 4.49 -4.97 4.97 -4.49 -4.49 4.97 -4.97zm6.01 6.01l4.49 4.49 -4.97 4.97 -4.49 -4.49 4.97 -4.97zm6.01 6.01l4.49 4.49 -4.97 4.97 -4.49 -4.49 4.97 -4.97zm6.01 6.01l3.38 3.37 -4.97 4.98 -3.38 -3.38 4.97 -4.97zm5.19 5.18l4.48 4.49 -4.97 4.97 -4.49 -4.49 4.98 -4.97zm6.01 6.01l4.48 4.49 -4.97 4.97 -4.49 -4.49 4.98 -4.97zm45.46 -33.44l4.49 4.49 -4.97 4.97 -4.49 -4.49 4.97 -4.97zm26.77 -26.77l4.48 4.49 -4.97 4.97 -4.49 -4.49 4.98 -4.97zm-35.24 -35.23l4.49 4.49 -4.97 4.97 -4.49 -4.49 4.97 -4.97zm6.01 6.01l4.49 4.49 -4.97 4.97 -4.49 -4.49 4.97 -4.97zm6.01 6.01l4.49 4.49 -4.97 4.97 -4.49 -4.49 4.97 -4.97zm6.01 6.01l3.38 3.38 -4.97 4.97 -3.38 -3.38 4.97 -4.97zm5.18 5.18l4.49 4.49 -4.97 4.97 -4.49 -4.49 4.97 -4.97zm6.02 6.01l4.48 4.49 -4.97 4.97 -4.49 -4.49 4.98 -4.97zm-0.36 12.38l4.49 4.49 -4.97 4.97 -4.49 -4.49 4.97 -4.97zm-35.23 -35.24l4.49 4.49 -4.98 4.97 -4.49 -4.49 4.98 -4.97zm6.01 6.01l4.49 4.49 -4.98 4.97 -4.48 -4.49 4.97 -4.97zm6.01 6.01l4.49 4.49 -4.97 4.97 -4.49 -4.48 4.97 -4.98zm6.01 6.01l3.37 3.38 -4.97 4.97 -3.37 -3.37 4.97 -4.98zm5.18 5.19l4.49 4.49 -4.97 4.97 -4.49 -4.49 4.97 -4.97zm6.01 6.01l4.49 4.49 -4.97 4.97 -4.49 -4.49 4.97 -4.97zm-0.83 12.85l4.48 4.49 -4.97 4.97 -4.49 -4.48 4.98 -4.98zm-35.24 -35.23l4.49 4.49 -4.97 4.97 -4.49 -4.49 4.97 -4.97zm6.01 6.01l4.49 4.49 -4.97 4.97 -4.49 -4.49 4.97 -4.97zm6.01 6.01l4.49 4.49 -4.97 4.97 -4.49 -4.49 4.97 -4.97zm6.01 6.01l3.38 3.38 -4.97 4.97 -3.38 -3.38 4.97 -4.97zm5.18 5.18l4.49 4.49 -4.97 4.97 -4.49 -4.49 4.97 -4.97zm6.01 6.01l4.49 4.49 -4.97 4.97 -4.49 -4.49 4.97 -4.97zm-1.18 13.21l4.49 4.49 -4.97 4.97 -4.49 -4.49 4.97 -4.97zm-35.23 -35.24l4.49 4.49 -4.98 4.97 -4.48 -4.49 4.97 -4.97zm6.01 6.01l4.49 4.49 -4.98 4.97 -4.48 -4.49 4.97 -4.97zm6.01 6.01l4.49 4.49 -4.97 4.97 -4.49 -4.49 4.97 -4.97zm6.01 6.01l3.37 3.38 -4.97 4.97 -3.37 -3.38 4.97 -4.97zm5.18 5.18l4.49 4.49 -4.97 4.98 -4.49 -4.49 4.97 -4.98zm6.01 6.02l4.49 4.48 -4.97 4.98 -4.49 -4.49 4.97 -4.97zm-35.59 -22.86l4.49 4.48 -4.97 4.98 -4.49 -4.49 4.97 -4.97zm6.01 6.01l4.49 4.49 -4.97 4.97 -4.49 -4.49 4.97 -4.97zm6.01 6.01l4.49 4.49 -4.97 4.97 -4.49 -4.49 4.97 -4.97zm6.02 6.01l3.37 3.37 -4.97 4.97 -3.38 -3.37 4.98 -4.97zm5.18 5.18l4.49 4.49 -4.98 4.97 -4.48 -4.49 4.97 -4.97zm6.01 6.01l4.49 4.49 -4.97 4.97 -4.49 -4.49 4.97 -4.97zm-129.01 -106.95l42.81 42.81 -35.08 35.08 -42.81 -42.81 35.08 -35.08zm8.54 65.38l4.49 4.49 -4.97 4.98 -4.49 -4.49 4.97 -4.98zm26.76 -26.76l4.49 4.49 -4.97 4.97 -4.49 -4.49 4.97 -4.97zm-35.23 -35.24l4.49 4.49 -4.97 4.97 -4.49 -4.49 4.97 -4.97zm6.01 6.01l4.49 4.49 -4.97 4.97 -4.49 -4.49 4.97 -4.97zm6.01 6.01l4.49 4.49 -4.97 4.97 -4.49 -4.48 4.97 -4.98zm6.01 6.01l3.38 3.38 -4.98 4.97 -3.37 -3.37 4.97 -4.98zm5.18 5.19l4.49 4.48 -4.97 4.98 -4.49 -4.49 4.97 -4.97zm6.01 6.01l4.49 4.49 -4.97 4.97 -4.49 -4.49 4.97 -4.97zm-0.35 12.37l4.49 4.49 -4.97 4.97 -4.49 -4.49 4.97 -4.97zm-35.24 -35.23l4.49 4.48 -4.97 4.98 -4.49 -4.49 4.97 -4.97zm6.02 6.01l4.48 4.49 -4.97 4.97 -4.49 -4.49 4.98 -4.97zm6.01 6.01l4.49 4.49 -4.98 4.97 -4.49 -4.49 4.98 -4.97zm6.01 6.01l3.37 3.37 -4.97 4.97 -3.37 -3.37 4.97 -4.97zm5.18 5.18l4.49 4.49 -4.97 4.97 -4.49 -4.49 4.97 -4.97zm6.01 6.01l4.49 4.49 -4.97 4.97 -4.49 -4.49 4.97 -4.97zm-0.84 12.86l4.49 4.49 -4.97 4.97 -4.49 -4.49 4.97 -4.97zm-35.23 -35.24l4.49 4.49 -4.97 4.97 -4.49 -4.49 4.97 -4.97zm6.01 6.01l4.49 4.49 -4.97 4.97 -4.49 -4.48 4.97 -4.98zm6.01 6.01l4.49 4.49 -4.97 4.97 -4.49 -4.48 4.97 -4.98zm6.01 6.01l3.38 3.38 -4.98 4.97 -3.37 -3.37 4.97 -4.98zm5.18 5.19l4.49 4.49 -4.97 4.97 -4.49 -4.49 4.97 -4.97zm6.01 6.01l4.49 4.49 -4.97 4.97 -4.49 -4.49 4.97 -4.97zm-1.18 13.2l4.49 4.49 -4.97 4.97 -4.49 -4.49 4.97 -4.97zm-35.23 -35.23l4.49 4.48 -4.98 4.98 -4.49 -4.49 4.98 -4.97zm6.01 6.01l4.49 4.48 -4.98 4.98 -4.48 -4.49 4.97 -4.97zm6.01 6.01l4.49 4.48 -4.98 4.98 -4.48 -4.49 4.97 -4.97zm6.01 6.01l3.37 3.37 -4.97 4.97 -3.37 -3.37 4.97 -4.97zm5.18 5.18l4.49 4.49 -4.97 4.97 -4.49 -4.49 4.97 -4.97zm6.01 6.01l4.49 4.49 -4.97 4.97 -4.49 -4.49 4.97 -4.97zm-35.59 -22.86l4.49 4.49 -4.97 4.97 -4.49 -4.49 4.97 -4.97zm6.01 6.01l4.49 4.49 -4.97 4.97 -4.49 -4.49 4.97 -4.97zm6.01 6.01l4.49 4.49 -4.97 4.97 -4.49 -4.49 4.97 -4.97zm6.01 6.01l3.38 3.38 -4.97 4.97 -3.38 -3.38 4.97 -4.97zm5.19 5.18l4.49 4.49 -4.98 4.97 -4.49 -4.49 4.98 -4.97zm6.01 6.01l4.49 4.49 -4.98 4.97 -4.49 -4.48 4.98 -4.98zm45.46 -33.44l4.49 4.49 -4.97 4.97 -4.49 -4.49 4.97 -4.97zm26.77 -26.77l4.49 4.49 -4.98 4.98 -4.48 -4.49 4.97 -4.98zm-35.24 -35.23l4.49 4.49 -4.97 4.97 -4.49 -4.49 4.97 -4.97zm6.01 6.01l4.49 4.49 -4.97 4.97 -4.49 -4.49 4.97 -4.97zm6.01 6.01l4.49 4.49 -4.97 4.97 -4.49 -4.49 4.97 -4.97zm6.01 6.01l3.38 3.38 -4.97 4.97 -3.38 -3.38 4.97 -4.97zm5.19 5.18l4.48 4.49 -4.97 4.97 -4.49 -4.49 4.98 -4.97zm6.01 6.01l4.49 4.49 -4.98 4.97 -4.49 -4.48 4.98 -4.98zm-0.36 12.38l4.49 4.49 -4.97 4.97 -4.49 -4.49 4.97 -4.97zm-35.23 -35.24l4.49 4.49 -4.97 4.97 -4.49 -4.48 4.97 -4.98zm6.01 6.01l4.49 4.49 -4.97 4.97 -4.49 -4.48 4.97 -4.98zm6.01 6.01l4.49 4.49 -4.97 4.97 -4.49 -4.48 4.97 -4.98zm6.01 6.01l3.37 3.38 -4.97 4.97 -3.37 -3.37 4.97 -4.98zm5.18 5.19l4.49 4.49 -4.97 4.97 -4.49 -4.49 4.97 -4.97zm6.01 6.01l4.49 4.49 -4.97 4.97 -4.49 -4.49 4.97 -4.97zm-0.83 12.86l4.49 4.48 -4.98 4.98 -4.49 -4.49 4.98 -4.97zm-35.24 -35.24l4.49 4.49 -4.97 4.97 -4.49 -4.49 4.97 -4.97zm6.01 6.01l4.49 4.49 -4.97 4.97 -4.49 -4.49 4.97 -4.97zm6.01 6.01l4.49 4.49 -4.97 4.97 -4.49 -4.49 4.97 -4.97zm6.01 6.01l3.38 3.38 -4.97 4.97 -3.38 -3.38 4.97 -4.97zm5.18 5.18l4.49 4.49 -4.97 4.97 -4.49 -4.48 4.97 -4.98zm6.02 6.01l4.48 4.49 -4.97 4.98 -4.49 -4.49 4.98 -4.98zm-1.19 13.21l4.49 4.49 -4.97 4.97 -4.49 -4.49 4.97 -4.97zm-35.23 -35.24l4.49 4.49 -4.97 4.97 -4.49 -4.49 4.97 -4.97zm6.01 6.01l4.49 4.49 -4.97 4.97 -4.49 -4.49 4.97 -4.97zm6.01 6.01l4.49 4.49 -4.97 4.97 -4.49 -4.48 4.97 -4.98zm6.01 6.01l3.38 3.38 -4.98 4.97 -3.37 -3.37 4.97 -4.98zm5.18 5.19l4.49 4.49 -4.97 4.97 -4.49 -4.49 4.97 -4.97zm6.01 6.01l4.49 4.49 -4.97 4.97 -4.49 -4.49 4.97 -4.97zm-35.59 -22.86l4.49 4.49 -4.97 4.97 -4.49 -4.49 4.97 -4.97zm6.02 6.01l4.48 4.49 -4.97 4.97 -4.49 -4.49 4.98 -4.97zm6.01 6.01l4.49 4.49 -4.98 4.97 -4.49 -4.49 4.98 -4.97zm6.01 6.01l3.37 3.37 -4.97 4.98 -3.37 -3.38 4.97 -4.97zm5.18 5.18l4.49 4.49 -4.97 4.97 -4.49 -4.49 4.97 -4.97zm6.01 6.01l4.49 4.49 -4.97 4.97 -4.49 -4.49 4.97 -4.97zm69.47 -1.79c5.64,5.65 15.53,18.14 12.8,20.87 -5.27,-5.96 -10.43,-11.86 -15.98,-17.41 -5.57,-5.57 -11.04,-10.58 -17.37,-15.94 3.25,-3.25 14.88,6.82 20.55,12.48zm-112.89 89.13c3.31,5.38 6.35,9.66 10.36,13.67 4.01,4.01 8.8,7.14 13.72,10.41 3.38,-3.39 6.7,-6.84 10.08,-10.23 -3.58,-4.69 -6.81,-9.02 -10.82,-13.03 -4.01,-4.01 -8.67,-7.71 -13.18,-10.97 -3.39,3.38 -6.77,6.76 -10.16,10.15zm9.95 -21.23c6.36,5.26 12.72,10.79 18.61,16.68 5.89,5.89 11.12,12.09 16.74,18.68 -1.66,0.55 -4.14,0.28 -5.8,0.83 -4.75,-5.86 -8.96,-10.89 -14.33,-16.26 -5.36,-5.36 -10.36,-9.81 -16.12,-14.19 0.6,-1.61 0.3,-4.12 0.9,-5.74zm77.74 -79.51c6.62,5.78 13.18,11.37 19.36,17.56 6.19,6.19 11.59,12.56 17.77,19.56 -12.38,12.38 -24.75,24.75 -37.13,37.13 -5.89,-6.73 -11.44,-13.24 -17.62,-19.43 -6.19,-6.18 -12.95,-12.12 -19.5,-17.7 12.37,-12.37 24.75,-24.75 37.12,-37.12z"/>
  </g>
  <polygon class="fil0" points="17.89,228.11 17.89,27.89 27.89,17.89 192.45,17.89 192.45,7.78 20.28,7.78 7.78,20.28 7.78,235.72 20.28,248.22 235.72,248.22 248.22,235.72 248.22,68.93 238.11,68.93 238.11,228.11 228.11,238.11 27.89,238.11 "/>
  <polygon class="fil0" points="248.82,50.32 212.66,50.32 212.66,39 248.82,39 248.82,12.77 244.97,8.03 203.76,8.03 200.05,12.85 200.05,23.18 212.66,23.18 212.66,17.68 236.21,17.68 236.21,29.34 203.84,29.34 200.05,33.84 200.05,59.98 248.82,59.98 "/>
 </g>
</svg>
