<?xml version="1.0" encoding="UTF-8"?>
<!DOCTYPE svg PUBLIC "-//W3C//DTD SVG 1.1//EN" "http://www.w3.org/Graphics/SVG/1.1/DTD/svg11.dtd">
<!-- Creator: CorelDRAW 2019 (64-Bit) -->
<svg xmlns="http://www.w3.org/2000/svg" xml:space="preserve" width="256px" height="256px" version="1.1" style="shape-rendering:geometricPrecision; text-rendering:geometricPrecision; image-rendering:optimizeQuality; fill-rule:evenodd; clip-rule:evenodd"
viewBox="0 0 256 256"
 xmlns:xlink="http://www.w3.org/1999/xlink"
 xmlns:xodm="http://www.corel.com/coreldraw/odm/2003">
 <defs>
  <style type="text/css">
   <![CDATA[
    .fil0 {fill:white}
   ]]>
  </style>
 </defs>
 <g id="Layer_x0020_1">
  <metadata id="CorelCorpID_0Corel-Layer"/>
  <path class="fil0" d="M6.36 40.56c39.91,-11.95 79.81,-23.89 119.72,-35.84 41.27,10.75 82.55,21.5 123.82,32.25 -19.7,49.43 -39.41,98.87 -59.11,148.3 -21.86,22 -43.71,44.01 -65.56,66.01 -20.28,-22.02 -40.56,-44.03 -60.83,-66.05 -19.35,-48.22 -38.7,-96.45 -58.04,-144.67zm105.8 164.27c2.76,0.54 1.65,0.39 3.87,1.11 13.42,4.41 18.7,0.71 27.99,-1.11 -3.19,20.7 -28.77,20.24 -31.86,0zm77.41 -105.87l5.34 12.74c10.16,0.63 27.91,-6.53 24.45,-13.42l-2.46 -2.21c-2.92,-1.42 -1.75,0.17 -9.25,-4.29 -3.71,1.65 -4.47,2.71 -8.3,4.26 -3.09,1.25 -5.8,2.25 -9.78,2.92zm-128.59 12.6c1.95,-2.57 2.51,-5.44 4.7,-9.42 0.58,-1.06 0.21,-0.52 0.73,-1.26 -2.61,-3.94 -5.25,-2.36 -14.09,-7.29 -3.72,-2.08 -3.01,-2.04 -6.61,-0.19 -1.21,0.62 -7.13,2.98 -7.55,3.28 -8.05,5.7 10.5,15.93 22.82,14.88zm4.5 -83.56c-6.86,4.77 -25.31,11.09 -25.31,33.84 0,11.08 5.73,17.67 12.5,22.78l17.2 7.39c2.06,-1.78 4.23,-6.84 6.83,-10.97l1.33 -2.17c2.26,-3.47 7.34,-9.13 8.82,-12.78 -13.91,0.81 -26.42,-2.38 -24.15,-16.04 2.72,-16.31 13.55,-14.65 6.1,-22.05l-3.32 0zm121.9 0c-7.63,7.23 7.07,8.59 6.56,25.73 -0.34,11.55 -13.9,12.91 -24.59,12.36 5.05,8.93 10.31,12.6 16.09,25.9 5.88,-0.99 9.63,-2.53 13.45,-4.42l4.51 -2.6c0.14,-0.1 0.35,-0.26 0.49,-0.37 19.21,-13.87 13.74,-39.87 -3.27,-51.12 -3.32,-2.19 -6.81,-3.32 -9.92,-5.48l-3.32 0zm-55.86 200l-6.86 0c-2.23,-1.06 -5.4,-1.62 -8.19,-3.03 -9.67,-4.89 -12.38,-13.27 -12.17,-24.58l7.7 3.82c1.62,-10.8 2.45,-7.09 5.61,-9.5 8.13,-6.18 -5.09,-16.73 -9.04,-6.16l-4.27 11.84c-2.29,-2.15 -5.08,-3.56 -7.33,-5.94 -3.42,-5.74 3.14,-19.45 -18.3,-46.28 -5.05,-6.31 -3.16,-4.02 -9.34,-9.17 -7.16,-5.97 -10.66,-2.61 2.9,-32.15 4.57,-9.96 7.69,-16.14 13.1,-24.2 2.47,-3.67 4.99,-7.66 7.27,-10.62 2.55,-3.32 6.6,-7.64 9.14,-9.6 6.84,-5.29 14,-11.27 26.09,-11.46 12.42,-0.2 23.42,7.49 30.41,14.88l2.53 3c0.11,0.15 0.27,0.36 0.38,0.51 9.09,11.83 16.97,22.5 22.69,36.85 3.55,8.92 8,16.19 9.96,27.59 -1.55,1.09 0.1,-0.19 -1.72,1.27l-4.99 3.99c-2.66,1.78 -4.03,2.75 -6.27,5.2l-12.33 17.04c-0.91,1.64 -1.37,2.59 -2.15,4.24 -1.61,3.37 -2.09,4.52 -3.24,8.07 -1.97,6.06 -3.32,14.11 -3,20.84l-4.4 2.95c-1.62,1.07 -3.14,2.42 -3.82,3 -1.31,-5.38 -5.02,-20.69 -13.02,-15.38l-1.81 1.97c-1.9,3.07 -0.98,5.45 1.28,7.34 0.88,0.74 6.14,1.92 5.72,9.62l7.8 -3.61c0.06,1.86 0.16,3.68 0.09,5.48 -0.68,17.36 -14.81,19.52 -20.42,22.18zm35.99 -110.98c3.04,16.9 -10.73,30.22 -27.12,18.24l27.12 -18.24zm-51.75 17.97c-1.45,2.3 -5.85,4.23 -8.62,4.73 -10.84,1.93 -21.21,-8.05 -18.46,-22.68l27.08 17.95zm10.24 -134.99c-42,12.55 -84,25.09 -126,37.64 20.27,50.28 40.54,100.56 60.81,150.83 21.44,22.51 42.87,45.02 64.31,67.53 23.08,-22.5 46.17,-44.99 69.25,-67.49 20.54,-51.51 41.09,-103.02 61.63,-154.53 -43.33,-11.33 -86.66,-22.65 -130,-33.98z"/>
 </g>
</svg>
