<?xml version="1.0" encoding="iso-8859-1"?>
<!-- Generator: Adobe Illustrator 19.0.0, SVG Export Plug-In . SVG Version: 6.00 Build 0)  -->
<svg version="1.1" id="Capa_1" xmlns="http://www.w3.org/2000/svg" xmlns:xlink="http://www.w3.org/1999/xlink" x="0px" y="0px"
	 viewBox="0 0 512 512" style="enable-background:new 0 0 512 512;" xml:space="preserve">
<g>
	<g transform="translate(1 1)">
		<path style="fill:#558B30;" d="M135.533,220.867c0.028-9.414,7.652-17.039,17.067-17.067v-51.2H127v17.067
			c-0.014,4.707-3.826,8.519-8.533,8.533v25.6c-9.414,0.027-17.039,7.652-17.067,17.067v179.2
			c0.028,9.414,7.652,17.039,17.067,17.067v25.6c4.707,0.014,8.519,3.826,8.533,8.533v17.067h25.6v-51.2
			c-9.414-0.028-17.039-7.653-17.067-17.067V220.867z"/>
		<path style="fill:#8BC34A;" d="M357.4,203.8v-51.2H152.6v51.2c-9.414,0.027-17.039,7.652-17.067,17.067v179.2
			c0.028,9.414,7.653,17.039,17.067,17.067v51.2h119.467v-25.6c0.027-9.414,7.652-17.039,17.067-17.067h8.533
			c9.414,0.027,17.039,7.652,17.067,17.067v25.6H357.4v-51.2c9.414-0.028,17.039-7.653,17.067-17.067v-179.2
			C374.439,211.452,366.814,203.828,357.4,203.8z M340.333,374.467c-0.028,9.414-7.652,17.039-17.067,17.067H186.733
			c-9.414-0.028-17.039-7.652-17.067-17.067v-128c0.028-9.414,7.652-17.039,17.067-17.067h136.533
			c9.414,0.028,17.039,7.652,17.067,17.067V374.467z"/>
		<g>
			<path style="fill:#2E7D32;" d="M127,451.267v17.067h-8.533v-25.6C123.174,442.747,126.986,446.56,127,451.267z"/>
			<path style="fill:#2E7D32;" d="M127,152.6v17.067c-0.014,4.707-3.826,8.519-8.533,8.533v-25.6H127z"/>
			<path style="fill:#2E7D32;" d="M314.733,442.733v25.6h-42.667v-25.6c0.027-9.414,7.652-17.039,17.067-17.067h8.533
				C307.081,425.694,314.706,433.319,314.733,442.733z"/>
		</g>
		<path id="SVGCleanerId_0" style="fill:#2E7D32;" d="M186.733,229.4h136.533c9.426,0,17.067,7.641,17.067,17.067v128
			c0,9.426-7.641,17.067-17.067,17.067H186.733c-9.426,0-17.067-7.641-17.067-17.067v-128
			C169.667,237.041,177.308,229.4,186.733,229.4z"/>
		<path style="fill:#2E7D32;" d="M417.133,220.867v179.2c-0.028,9.414-7.653,17.039-17.067,17.067v51.2H357.4v-51.2
			c9.414-0.028,17.039-7.653,17.067-17.067v-179.2c-0.027-9.414-7.652-17.039-17.067-17.067v-51.2h42.667v51.2
			C409.481,203.828,417.106,211.452,417.133,220.867z"/>
		<path style="fill:#5E5F62;" d="M246.467,7.533h17.067c4.713,0,8.533,3.821,8.533,8.533V152.6h-34.133V16.067
			C237.933,11.354,241.754,7.533,246.467,7.533z"/>
		<path style="fill:#2E7D32;" d="M152.6,135.533V203.8c-9.414,0.027-17.039,7.652-17.067,17.067v179.2
			c0.028,9.414,7.653,17.039,17.067,17.067V485.4c-0.028,9.414-7.653,17.039-17.067,17.067h-51.2
			c-9.414-0.028-17.039-7.653-17.067-17.067V135.533c0.028-9.414,7.652-17.039,17.067-17.067h51.2
			C144.948,118.494,152.572,126.119,152.6,135.533z"/>
		<rect x="67.267" y="220.867" style="fill:#8BC34A;" width="68.267" height="179.2"/>
		<path style="fill:#2E7D32;" d="M442.733,135.533V485.4c-0.028,9.414-7.653,17.039-17.067,17.067h-51.2
			c-9.414-0.028-17.039-7.653-17.067-17.067v-68.267c9.414-0.028,17.039-7.653,17.067-17.067v-179.2
			c-0.027-9.414-7.652-17.039-17.067-17.067v-68.267c0.027-9.414,7.652-17.039,17.067-17.067h51.2
			C435.081,118.494,442.706,126.119,442.733,135.533z"/>
		<path style="fill:#4CAF50;" d="M417.133,135.533V485.4c-0.028,9.414-7.653,17.039-17.067,17.067h-25.6
			c-9.414-0.028-17.039-7.653-17.067-17.067v-68.267c9.414-0.028,17.039-7.653,17.067-17.067v-179.2
			c-0.027-9.414-7.652-17.039-17.067-17.067v-68.267c0.027-9.414,7.652-17.039,17.067-17.067h25.6
			C409.481,118.494,417.106,126.119,417.133,135.533z"/>
		<rect x="374.467" y="220.867" style="fill:#558B30;" width="68.267" height="179.2"/>
		<g>
			<path id="SVGCleanerId_0_1_" style="fill:#2E7D32;" d="M186.733,229.4h136.533c9.426,0,17.067,7.641,17.067,17.067v128
				c0,9.426-7.641,17.067-17.067,17.067H186.733c-9.426,0-17.067-7.641-17.067-17.067v-128
				C169.667,237.041,177.308,229.4,186.733,229.4z"/>
		</g>
		<g>
			<path style="fill:#4CAF50;" d="M186.733,229.4h110.933c9.426,0,17.067,7.641,17.067,17.067v128
				c0,9.426-7.641,17.067-17.067,17.067H186.733c-9.426,0-17.067-7.641-17.067-17.067v-128
				C169.667,237.041,177.308,229.4,186.733,229.4z"/>
			<path style="fill:#4CAF50;" d="M237.933,152.6h34.133c4.713,0,8.533,3.821,8.533,8.533v34.133h-51.2v-34.133
				C229.4,156.421,233.221,152.6,237.933,152.6z"/>
		</g>
		<path style="fill:#9E9D24;" d="M255,263.533h51.2v25.6c0,9.426-7.641,17.067-17.067,17.067h-17.067
			c-9.426,0-17.067-7.641-17.067-17.067V263.533z"/>
		<circle style="fill:#CDDC39;" cx="280.6" cy="348.867" r="17.067"/>
		<g>
			<path style="fill:#4CAF50;" d="M212.333,425.667h8.533c9.426,0,17.067,7.641,17.067,17.067v25.6h-42.667v-25.6
				C195.267,433.308,202.908,425.667,212.333,425.667z"/>
			<path style="fill:#4CAF50;" d="M314.733,442.733v25.6h-42.667v-25.6c0.027-9.414,7.652-17.039,17.067-17.067h8.533
				C307.081,425.694,314.706,433.319,314.733,442.733z"/>
		</g>
		<rect x="67.267" y="280.6" style="fill:#8BC34A;" width="68.267" height="51.2"/>
		<rect x="374.467" y="280.6" style="fill:#558B30;" width="68.267" height="51.2"/>
		<g>
			<rect x="374.467" y="220.867" style="fill:#8BC34A;" width="42.667" height="179.2"/>
			<rect x="374.467" y="280.6" style="fill:#8BC34A;" width="42.667" height="51.2"/>
		</g>
		<path style="fill:#4CAF50;" d="M229.4,186.733h51.2c4.713,0,8.533,3.821,8.533,8.533V229.4h-68.267v-34.133
			C220.867,190.554,224.687,186.733,229.4,186.733z"/>
	</g>
	<g>
		<path d="M136.533,110.933h-51.2c-14.132,0.015-25.585,11.468-25.6,25.6V486.4c0.015,14.132,11.468,25.585,25.6,25.6h51.2
			c14.132-0.015,25.585-11.468,25.6-25.6v-8.533h187.733v8.533c0.015,14.132,11.468,25.585,25.6,25.6h51.2
			c14.132-0.015,25.585-11.468,25.6-25.6V136.533c-0.015-14.132-11.468-25.585-25.6-25.6h-51.2
			c-14.132,0.015-25.585,11.468-25.6,25.6v8.533H281.6V8.533c0.001-2.263-0.898-4.434-2.499-6.035S275.33-0.001,273.067,0h-34.133
			c-2.263-0.001-4.434,0.898-6.035,2.499c-1.6,1.6-2.499,3.771-2.499,6.035v136.533h-68.267v-8.533
			C162.118,122.401,150.665,110.949,136.533,110.933z M85.333,128h51.2c4.711,0.005,8.529,3.822,8.533,8.533v61.306
			c-7.229,2.577-12.917,8.266-15.494,15.494H76.8v-76.8C76.805,131.822,80.622,128.005,85.333,128z M76.8,392.533v-51.2H128v51.2
			H76.8z M76.8,290.133H128v34.133H76.8V290.133z M128,273.067H76.8V230.4H128V273.067z M145.067,486.4
			c-0.005,4.711-3.822,8.529-8.533,8.533h-51.2c-4.711-0.005-8.529-3.822-8.533-8.533v-76.8h52.773
			c2.577,7.229,8.265,12.917,15.494,15.494V486.4z M204.8,460.8v-17.067c0.005-4.711,3.822-8.529,8.533-8.533h8.533
			c4.711,0.005,8.529,3.822,8.533,8.533V460.8H204.8z M281.6,460.8v-17.067c0.005-4.711,3.822-8.529,8.533-8.533h8.533
			c4.711,0.005,8.529,3.822,8.533,8.533V460.8H281.6z M426.667,494.933h-51.2c-4.711-0.005-8.529-3.822-8.533-8.533v-61.306
			c7.229-2.577,12.917-8.266,15.494-15.494H435.2v76.8C435.195,491.111,431.378,494.929,426.667,494.933z M435.2,230.4v42.667H384
			V230.4H435.2z M435.2,324.267H384v-34.133h51.2V324.267z M384,341.333h51.2v51.2H384V341.333z M366.933,136.533
			c0.005-4.711,3.822-8.529,8.533-8.533h51.2c4.711,0.005,8.529,3.822,8.533,8.533v76.8h-52.772
			c-2.577-7.229-8.266-12.917-15.494-15.494V136.533z M221.867,238.933h102.4c4.711,0.005,8.529,3.822,8.533,8.533v128
			c-0.005,4.711-3.822,8.529-8.533,8.533H187.733c-4.711-0.005-8.529-3.822-8.533-8.533v-128c0.005-4.711,3.822-8.529,8.533-8.533
			H221.867z M230.4,221.867v-25.6h51.2v25.6H230.4z M273.067,179.2h-34.133v-17.067h34.133V179.2z M247.467,17.067h17.067v128
			h-17.067V17.067z M221.867,162.133v19.441c-5.262,3.024-8.514,8.623-8.533,14.692v25.6h-25.6
			c-14.132,0.015-25.585,11.468-25.6,25.6v128c0.015,14.132,11.468,25.585,25.6,25.6h136.533c14.132-0.015,25.585-11.468,25.6-25.6
			v-128c-0.015-14.132-11.468-25.585-25.6-25.6h-25.6v-25.6c-0.02-6.069-3.272-11.668-8.533-14.692v-19.441h59.733V204.8
			c-0.001,2.263,0.898,4.434,2.499,6.035c1.6,1.6,3.771,2.499,6.035,2.499c4.711,0.005,8.529,3.822,8.533,8.533v179.2
			c-0.005,4.711-3.822,8.529-8.533,8.533c-2.263-0.001-4.434,0.898-6.035,2.499c-1.6,1.6-2.499,3.771-2.499,6.035V460.8h-25.6
			v-17.067c-0.015-14.132-11.468-25.585-25.6-25.6h-8.533c-14.132,0.015-25.585,11.468-25.6,25.6V460.8h-17.067v-17.067
			c-0.015-14.132-11.468-25.585-25.6-25.6h-8.533c-14.132,0.015-25.585,11.468-25.6,25.6V460.8h-25.6v-42.667
			c0.001-2.263-0.898-4.434-2.499-6.035c-1.6-1.6-3.771-2.499-6.035-2.499c-4.711-0.005-8.529-3.822-8.533-8.533v-179.2
			c0.005-4.711,3.822-8.529,8.533-8.533c2.263,0.001,4.434-0.898,6.035-2.499c1.6-1.6,2.499-3.771,2.499-6.035v-42.667H221.867z"/>
		<path d="M273.067,315.733h17.067c14.132-0.015,25.585-11.468,25.6-25.6v-25.6c0.001-2.263-0.898-4.434-2.499-6.035
			s-3.771-2.499-6.035-2.499H256c-2.263-0.001-4.434,0.898-6.035,2.499c-1.6,1.6-2.499,3.771-2.499,6.035v25.6
			C247.482,304.265,258.935,315.718,273.067,315.733z M264.533,273.067h34.133v17.067c-0.005,4.711-3.822,8.529-8.533,8.533h-17.067
			c-4.711-0.005-8.529-3.822-8.533-8.533V273.067z"/>
		<path d="M204.8,298.667c2.263,0.001,4.434-0.898,6.035-2.499c1.6-1.6,2.499-3.771,2.499-6.035V281.6
			c0-4.713-3.821-8.533-8.533-8.533c-4.713,0-8.533,3.82-8.533,8.533v8.533c-0.001,2.263,0.898,4.434,2.499,6.035
			C200.366,297.768,202.537,298.667,204.8,298.667z"/>
		<path d="M204.8,332.8c2.263,0.001,4.434-0.898,6.035-2.499c1.6-1.6,2.499-3.771,2.499-6.035v-8.533
			c0-4.713-3.821-8.533-8.533-8.533c-4.713,0-8.533,3.821-8.533,8.533v8.533c-0.001,2.263,0.898,4.434,2.499,6.035
			C200.366,331.902,202.537,332.801,204.8,332.8z"/>
		<path d="M204.8,366.933c2.263,0.001,4.434-0.898,6.035-2.499c1.6-1.6,2.499-3.771,2.499-6.035v-8.533
			c0-4.713-3.821-8.533-8.533-8.533c-4.713,0-8.533,3.821-8.533,8.533v8.533c-0.001,2.263,0.898,4.434,2.499,6.035
			C200.366,366.035,202.537,366.934,204.8,366.933z"/>
		<path d="M281.6,324.267c-14.138,0-25.6,11.462-25.6,25.6c0,14.138,11.462,25.6,25.6,25.6s25.6-11.462,25.6-25.6
			C307.185,335.735,295.732,324.282,281.6,324.267z M281.6,358.4c-4.713,0-8.533-3.821-8.533-8.533c0-4.713,3.82-8.533,8.533-8.533
			s8.533,3.821,8.533,8.533C290.129,354.578,286.311,358.395,281.6,358.4z"/>
		<path d="M93.867,179.2c2.263,0.001,4.434-0.898,6.035-2.499c1.6-1.6,2.499-3.771,2.499-6.035V153.6
			c0-4.713-3.821-8.533-8.533-8.533s-8.533,3.82-8.533,8.533v17.067c-0.001,2.263,0.898,4.434,2.499,6.035
			C89.432,178.302,91.603,179.201,93.867,179.2z"/>
		<path d="M119.467,179.2c2.263,0.001,4.434-0.898,6.035-2.499c1.6-1.6,2.499-3.771,2.499-6.035V153.6
			c0-4.713-3.82-8.533-8.533-8.533s-8.533,3.82-8.533,8.533v17.067c-0.001,2.263,0.898,4.434,2.499,6.035
			C115.032,178.302,117.203,179.201,119.467,179.2z"/>
		<path d="M93.867,443.733c-2.263-0.001-4.434,0.898-6.035,2.499c-1.6,1.6-2.499,3.771-2.499,6.035v17.067
			c0,4.713,3.821,8.533,8.533,8.533s8.533-3.821,8.533-8.533v-17.067c0.001-2.263-0.898-4.434-2.499-6.035
			C98.301,444.632,96.13,443.733,93.867,443.733z"/>
		<path d="M119.467,443.733c-2.263-0.001-4.434,0.898-6.035,2.499c-1.6,1.6-2.499,3.771-2.499,6.035v17.067
			c0,4.713,3.821,8.533,8.533,8.533s8.533-3.821,8.533-8.533v-17.067c0.001-2.263-0.898-4.434-2.499-6.035
			C123.901,444.632,121.73,443.733,119.467,443.733z"/>
		<path d="M392.533,179.2c2.263,0.001,4.434-0.898,6.035-2.499c1.6-1.6,2.499-3.771,2.499-6.035V153.6
			c0-4.713-3.82-8.533-8.533-8.533S384,148.887,384,153.6v17.067c-0.001,2.263,0.898,4.434,2.499,6.035
			C388.099,178.302,390.27,179.201,392.533,179.2z"/>
		<path d="M418.133,179.2c2.263,0.001,4.434-0.898,6.035-2.499c1.6-1.6,2.499-3.771,2.499-6.035V153.6
			c0-4.713-3.82-8.533-8.533-8.533s-8.533,3.82-8.533,8.533v17.067c-0.001,2.263,0.898,4.434,2.499,6.035
			C413.699,178.302,415.87,179.201,418.133,179.2z"/>
		<path d="M392.533,443.733c-2.263-0.001-4.434,0.898-6.035,2.499c-1.6,1.6-2.499,3.771-2.499,6.035v17.067
			c0,4.713,3.82,8.533,8.533,8.533s8.533-3.821,8.533-8.533v-17.067c0.001-2.263-0.898-4.434-2.499-6.035
			C396.968,444.632,394.797,443.733,392.533,443.733z"/>
		<path d="M418.133,443.733c-2.263-0.001-4.434,0.898-6.035,2.499c-1.6,1.6-2.499,3.771-2.499,6.035v17.067
			c0,4.713,3.82,8.533,8.533,8.533s8.533-3.821,8.533-8.533v-17.067c0.001-2.263-0.898-4.434-2.499-6.035
			C422.568,444.632,420.397,443.733,418.133,443.733z"/>
	</g>
</g>
<g>
</g>
<g>
</g>
<g>
</g>
<g>
</g>
<g>
</g>
<g>
</g>
<g>
</g>
<g>
</g>
<g>
</g>
<g>
</g>
<g>
</g>
<g>
</g>
<g>
</g>
<g>
</g>
<g>
</g>
</svg>
