<?xml version="1.0" encoding="iso-8859-1"?>
<!-- Generator: Adobe Illustrator 19.0.0, SVG Export Plug-In . SVG Version: 6.00 Build 0)  -->
<svg version="1.1" id="Layer_1" xmlns="http://www.w3.org/2000/svg" xmlns:xlink="http://www.w3.org/1999/xlink" x="0px" y="0px"
	 viewBox="0 0 496.158 496.158" style="enable-background:new 0 0 496.158 496.158;" xml:space="preserve">
<path style="fill:#978874;" d="M248.082,0.003C111.07,0.003,0,111.061,0,248.085c0,137,111.07,248.07,248.082,248.07
	c137.006,0,248.076-111.07,248.076-248.07C496.158,111.061,385.088,0.003,248.082,0.003z"/>
<path style="fill:#FFFFFF;" d="M317.162,173.625c2.115-1.301,5.939-1.952,11.473-1.952v-6.348H167.523v6.348
	c5.533,0,9.355,0.651,11.475,1.952c2.113,1.303,3.172,4.232,3.172,8.788v132.308c0,3.581-1.059,6.103-3.172,7.567
	c-2.119,1.465-5.941,2.197-11.475,2.197v6.347h161.111v-6.347c-5.533,0-9.357-0.732-11.473-2.197s-3.174-3.986-3.174-7.567V182.413
	C313.988,177.858,315.047,174.928,317.162,173.625z M235.873,314.721c0,3.581-1.057,6.103-3.172,7.567
	c-2.119,1.465-5.941,2.197-11.475,2.197s-9.357-0.732-11.473-2.197s-3.174-3.986-3.174-7.567V182.413
	c0-4.556,1.059-7.485,3.174-8.788c2.115-1.301,5.939-1.952,11.473-1.952s9.355,0.651,11.475,1.952
	c2.115,1.303,3.172,4.232,3.172,8.788V314.721z M289.578,314.721c0,3.581-1.059,6.103-3.172,7.567
	c-2.119,1.465-5.941,2.197-11.475,2.197c-5.535,0-9.357-0.732-11.473-2.197c-2.117-1.465-3.174-3.986-3.174-7.567V182.413
	c0-4.556,1.057-7.485,3.174-8.788c2.115-1.301,5.938-1.952,11.473-1.952c5.533,0,9.355,0.651,11.475,1.952
	c2.113,1.303,3.172,4.232,3.172,8.788V314.721z"/>
<path style="fill:none;stroke:#FFFFFF;stroke-width:2;stroke-linecap:round;stroke-linejoin:round;stroke-miterlimit:10;" d="
	M317.162,173.625c2.115-1.301,5.939-1.952,11.473-1.952v-6.348H167.523v6.348c5.533,0,9.355,0.651,11.475,1.952
	c2.113,1.303,3.172,4.232,3.172,8.788v132.308c0,3.581-1.059,6.103-3.172,7.567c-2.119,1.465-5.941,2.197-11.475,2.197v6.347
	h161.111v-6.347c-5.533,0-9.357-0.732-11.473-2.197s-3.174-3.986-3.174-7.567V182.413
	C313.988,177.858,315.047,174.928,317.162,173.625z M235.873,314.721c0,3.581-1.057,6.103-3.172,7.567
	c-2.119,1.465-5.941,2.197-11.475,2.197s-9.357-0.732-11.473-2.197s-3.174-3.986-3.174-7.567V182.413
	c0-4.556,1.059-7.485,3.174-8.788c2.115-1.301,5.939-1.952,11.473-1.952s9.355,0.651,11.475,1.952
	c2.115,1.303,3.172,4.232,3.172,8.788V314.721z M289.578,314.721c0,3.581-1.059,6.103-3.172,7.567
	c-2.119,1.465-5.941,2.197-11.475,2.197c-5.535,0-9.357-0.732-11.473-2.197c-2.117-1.465-3.174-3.986-3.174-7.567V182.413
	c0-4.556,1.057-7.485,3.174-8.788c2.115-1.301,5.938-1.952,11.473-1.952c5.533,0,9.355,0.651,11.475,1.952
	c2.113,1.303,3.172,4.232,3.172,8.788V314.721z"/>
<g>
</g>
<g>
</g>
<g>
</g>
<g>
</g>
<g>
</g>
<g>
</g>
<g>
</g>
<g>
</g>
<g>
</g>
<g>
</g>
<g>
</g>
<g>
</g>
<g>
</g>
<g>
</g>
<g>
</g>
</svg>
