<?xml version="1.0" encoding="UTF-8"?>
<!DOCTYPE svg PUBLIC "-//W3C//DTD SVG 1.1//EN" "http://www.w3.org/Graphics/SVG/1.1/DTD/svg11.dtd">
<!-- Creator: CorelDRAW 2019 (64-Bit) -->
<svg xmlns="http://www.w3.org/2000/svg" xml:space="preserve" width="256px" height="256px" version="1.1" style="shape-rendering:geometricPrecision; text-rendering:geometricPrecision; image-rendering:optimizeQuality; fill-rule:evenodd; clip-rule:evenodd"
viewBox="0 0 256 256"
 xmlns:xlink="http://www.w3.org/1999/xlink"
 xmlns:xodm="http://www.corel.com/coreldraw/odm/2003">
 <defs>
  <style type="text/css">
   <![CDATA[
    .fil0 {fill:white}
   ]]>
  </style>
 </defs>
 <g id="Layer_x0020_1">
  <metadata id="CorelCorpID_0Corel-Layer"/>
  <path class="fil0" d="M15.92 38.51l22.59 -22.59 179.59 0 21.98 21.98 0 179.29 -22.89 22.89 -178.08 0 -23.19 -23.19 0 -178.38zm106.64 92.29l0 15.06c-12.09,0 -24.19,0.01 -36.28,0.01 -1.73,0 -2.93,0.04 -3.63,0.12 -0.7,0.08 -1.21,0.28 -1.52,0.6 -0.33,0.32 -0.53,0.83 -0.61,1.53 -0.05,0.5 -0.1,3.04 -0.12,3.79l0 18.46 -9.86 0 0 -39.57c17.34,0 34.68,0 52.02,0zm-37.63 23.45l22.2 0c4.26,0 7.88,0.93 10.88,2.76 3,1.83 5.26,4.28 6.77,7.31 1.51,3.05 2.28,6.33 2.28,9.85 0,2.58 -0.43,5.07 -1.29,7.47 -0.84,2.41 -2.12,4.57 -3.81,6.48 -1.69,1.91 -3.79,3.42 -6.3,4.51 -2.51,1.1 -5.35,1.65 -8.53,1.65l-36.62 0 0 -15.06 31.94 0c1.03,0 1.85,-0.44 2.44,-1.32 0.61,-0.88 0.91,-1.95 0.91,-3.17 0,-1.24 -0.3,-2.29 -0.89,-3.16 -0.59,-0.88 -1.4,-1.31 -2.46,-1.31l-17.52 0 0 -16.01zm72.53 -9.53c-3.06,0.09 -5.49,2.08 -7.3,5.95 -1.8,3.88 -2.77,8.44 -2.9,13.68 0.13,4.95 1.05,9.12 2.78,12.54 1.74,3.4 4.21,5.1 7.42,5.1 2.16,0 3.99,-0.84 5.47,-2.53 1.49,-1.68 2.6,-3.91 3.33,-6.67 0.75,-2.76 1.12,-5.72 1.12,-8.83 0,-3.34 -0.38,-6.49 -1.16,-9.44 -0.78,-2.95 -1.91,-5.32 -3.42,-7.12 -1.49,-1.79 -3.27,-2.68 -5.34,-2.68zm0.02 51.28c-4.9,0 -9.38,-1.49 -13.46,-4.46 -4.08,-2.98 -7.29,-7.01 -9.64,-12.11 -2.34,-5.1 -3.51,-10.64 -3.51,-16.62 0,-6.05 1.06,-11.63 3.17,-16.71 2.12,-5.1 5.2,-9.15 9.25,-12.14 4.04,-3 8.77,-4.49 14.19,-4.49 3.99,0.14 7.62,1.08 10.93,2.82 3.29,1.75 6.1,4.13 8.43,7.19 2.32,3.03 4.1,6.54 5.31,10.53 1.21,3.98 1.81,8.26 1.81,12.8 0,5.98 -1.16,11.52 -3.49,16.62 -2.34,5.1 -5.55,9.13 -9.6,12.11 -4.07,2.97 -8.53,4.46 -13.39,4.46zm-82.71 -138.98l49.07 0c-6.01,-1.79 -10.4,-7.36 -10.4,-13.95 0,-8.04 6.52,-14.56 14.56,-14.56 8.04,0 14.56,6.52 14.56,14.56 0,6.59 -4.39,12.16 -10.4,13.95l47.84 0 40.06 141.96 -184.12 0 38.83 -141.96zm53.23 -24.11c5.61,0 10.16,4.55 10.16,10.16 0,5.61 -4.55,10.16 -10.16,10.16 -5.61,0 -10.16,-4.55 -10.16,-10.16 0,-5.61 4.55,-10.16 10.16,-10.16zm128 20.92l0 -22.53 -31.3 -31.3 -192.79 0 -31.91 31.91 0 191.57 32.52 32.52 191.27 0 32.21 -32.21 0 -169.96z"/>
 </g>
</svg>
