<?xml version="1.0" encoding="UTF-8"?>
<!DOCTYPE svg PUBLIC "-//W3C//DTD SVG 1.1//EN" "http://www.w3.org/Graphics/SVG/1.1/DTD/svg11.dtd">
<!-- Creator: CorelDRAW 2019 (64-Bit) -->
<svg xmlns="http://www.w3.org/2000/svg" xml:space="preserve" width="256px" height="256px" version="1.1" style="shape-rendering:geometricPrecision; text-rendering:geometricPrecision; image-rendering:optimizeQuality; fill-rule:evenodd; clip-rule:evenodd"
viewBox="0 0 256 256"
 xmlns:xlink="http://www.w3.org/1999/xlink"
 xmlns:xodm="http://www.corel.com/coreldraw/odm/2003">
 <defs>
  <style type="text/css">
   <![CDATA[
    .fil0 {fill:white}
   ]]>
  </style>
 </defs>
 <g id="Layer_x0020_1">
  <metadata id="CorelCorpID_0Corel-Layer"/>
  <path class="fil0" d="M15.92 38.51l22.59 -22.59 179.59 0 21.98 21.98 0 179.29 -22.89 22.89 -178.08 0 -23.19 -23.19 0 -178.38zm58.85 18.51l49.07 0c-6.01,-1.79 -10.4,-7.36 -10.4,-13.95 0,-8.04 6.52,-14.56 14.56,-14.56 8.04,0 14.56,6.52 14.56,14.56 0,6.59 -4.39,12.16 -10.4,13.95l47.84 0 40.06 141.96 -184.12 0 38.83 -141.96zm20.74 87.38c4.9,0 8.48,0.96 10.72,2.91 2.26,1.94 3.39,4.84 3.39,8.68l0 34.94 -14.11 0 0 -29.07c0,-1.72 -0.04,-2.92 -0.12,-3.62 -0.08,-0.7 -0.28,-1.21 -0.6,-1.52 -0.32,-0.33 -0.83,-0.53 -1.53,-0.61 -0.7,-0.08 -1.9,-0.12 -3.62,-0.12l-19.77 0 0 34.94 -13.91 0 0 -46.53 39.55 0zm-5.87 17.46l0 29.07 -13.91 0 0 -29.07 13.91 0zm37.81 -17.46l14.94 0 15.6 46.53 -45.56 0 9 -29.07 11.74 0 -4.67 18.31 12.3 0 -13.35 -35.77zm52.95 36.19c-3.18,3.43 -6.3,6 -9.36,7.7 -3.06,1.69 -6.49,2.57 -10.27,2.64l0 -11.6c2.85,0 5.31,-0.55 7.38,-1.65 2.08,-1.11 3.62,-2.56 4.67,-4.37 1.05,-1.8 1.58,-3.71 1.58,-5.72 0,-1.5 -0.3,-2.94 -0.88,-4.32 -0.57,-1.38 -1.43,-2.62 -2.57,-3.71 -1.16,-1.1 -2.59,-1.96 -4.32,-2.6 -1.74,-0.64 -3.68,-0.97 -5.86,-0.97l0 -11.59c3.76,0 7.18,0.86 10.25,2.57 3.07,1.72 6.2,4.31 9.38,7.77 3.23,-3.42 6.37,-5.98 9.42,-7.68 3.06,-1.71 6.47,-2.59 10.22,-2.66l0 11.59c-2.87,0 -5.34,0.55 -7.4,1.66 -2.06,1.1 -3.61,2.56 -4.66,4.36 -1.04,1.81 -1.57,3.72 -1.57,5.72 0,2.02 0.53,3.89 1.56,5.65 1.04,1.75 2.6,3.17 4.66,4.25 2.06,1.09 4.53,1.65 7.41,1.7l0 11.74c-3.8,-0.07 -7.24,-0.95 -10.29,-2.67 -3.06,-1.71 -6.18,-4.32 -9.35,-7.81zm-52.4 -147.68c5.61,0 10.16,4.55 10.16,10.16 0,5.61 -4.55,10.16 -10.16,10.16 -5.61,0 -10.16,-4.55 -10.16,-10.16 0,-5.61 4.55,-10.16 10.16,-10.16zm128 20.92l0 -22.53 -31.3 -31.3 -192.79 0 -31.91 31.91 0 191.57 32.52 32.52 191.27 0 32.21 -32.21 0 -169.96z"/>
 </g>
</svg>
