<?xml version="1.0" encoding="UTF-8"?>
<!DOCTYPE svg PUBLIC "-//W3C//DTD SVG 1.1//EN" "http://www.w3.org/Graphics/SVG/1.1/DTD/svg11.dtd">
<!-- Creator: CorelDRAW 2019 (64-Bit) -->
<svg xmlns="http://www.w3.org/2000/svg" xml:space="preserve" width="256px" height="256px" version="1.1" style="shape-rendering:geometricPrecision; text-rendering:geometricPrecision; image-rendering:optimizeQuality; fill-rule:evenodd; clip-rule:evenodd"
viewBox="0 0 256 256"
 xmlns:xlink="http://www.w3.org/1999/xlink"
 xmlns:xodm="http://www.corel.com/coreldraw/odm/2003">
 <defs>
  <style type="text/css">
   <![CDATA[
    .fil0 {fill:white}
   ]]>
  </style>
 </defs>
 <g id="Layer_x0020_1">
  <metadata id="CorelCorpID_0Corel-Layer"/>
  <path class="fil0" d="M15.92 38.51l22.59 -22.59 179.59 0 21.98 21.98 0 179.29 -22.89 22.89 -178.08 0 -23.19 -23.19 0 -178.38zm58.85 18.51l49.07 0c-6.01,-1.79 -10.4,-7.36 -10.4,-13.95 0,-8.04 6.52,-14.56 14.56,-14.56 8.04,0 14.56,6.52 14.56,14.56 0,6.59 -4.39,12.16 -10.4,13.95l47.84 0 40.06 141.96 -184.12 0 38.83 -141.96zm53.23 -24.11c5.61,0 10.16,4.55 10.16,10.16 0,5.61 -4.55,10.16 -10.16,10.16 -5.61,0 -10.16,-4.55 -10.16,-10.16 0,-5.61 4.55,-10.16 10.16,-10.16zm128 20.92l0 -22.53 -31.3 -31.3 -192.79 0 -31.91 31.91 0 191.57 32.52 32.52 191.27 0 32.21 -32.21 0 -169.96z"/>
 </g>
</svg>
