<?xml version="1.0" encoding="UTF-8"?>
<!DOCTYPE svg PUBLIC "-//W3C//DTD SVG 1.1//EN" "http://www.w3.org/Graphics/SVG/1.1/DTD/svg11.dtd">
<!-- Creator: CorelDRAW 2019 (64-Bit) -->
<svg xmlns="http://www.w3.org/2000/svg" xml:space="preserve" width="350px" height="350px" version="1.1" style="shape-rendering:geometricPrecision; text-rendering:geometricPrecision; image-rendering:optimizeQuality; fill-rule:evenodd; clip-rule:evenodd"
viewBox="0 0 350 350"
 xmlns:xlink="http://www.w3.org/1999/xlink"
 xmlns:xodm="http://www.corel.com/coreldraw/odm/2003">
 <defs>
  <style type="text/css">
   <![CDATA[
    .fil0 {fill:white}
   ]]>
  </style>
 </defs>
 <g id="Layer_x0020_1">
  <metadata id="CorelCorpID_0Corel-Layer"/>
  <path class="fil0" d="M13.74 326.26l0 -302.52c0,-5.5 4.5,-10 10,-10l128.88 0c-2.54,-4.58 -4.67,-9.16 -6.12,-13.74l-136.5 0c-5.5,0 -10,4.5 -10,10l0 330c0,5.5 4.5,10 10,10l136.52 0c1.48,-4.58 3.63,-9.16 6.21,-13.74l-128.99 0c-5.5,0 -10,-4.5 -10,-10zm191.86 -244.73c0,31.25 -43.26,62.31 -43.26,93.47 0,31.35 43.26,62.78 43.26,94.03 0,9.73 -4.19,19.44 -9.96,29.13 2.73,3.61 4.36,8.11 4.36,12.99 0,11.88 -9.63,21.51 -21.51,21.51 -1.83,0 -3.62,-0.23 -5.32,-0.66 -0.87,1.42 -1.71,2.84 -2.5,4.26 -2.57,4.58 -4.73,9.16 -6.21,13.74l32.06 0c1.48,-4.58 3.63,-9.16 6.21,-13.74l-0.01 0c12.57,-22.38 34.94,-44.76 34.94,-67.23 0,-31.25 -43.26,-62.68 -43.26,-94.03 0,-31.16 43.26,-62.22 43.26,-93.47 0,-22.53 -22.5,-45.16 -35.04,-67.79 -2.54,-4.58 -4.67,-9.16 -6.13,-13.74l-32.05 0c1.45,4.58 3.58,9.16 6.12,13.74l32.06 0 -32.06 0c0.94,1.69 1.93,3.38 2.97,5.07 1.59,-0.38 3.25,-0.58 4.96,-0.58 11.88,0 21.51,9.63 21.51,21.51 0,4.8 -1.57,9.23 -4.22,12.81 5.7,9.67 9.82,19.34 9.82,28.98zm83.63 226.64c-6.33,9.36 -13.31,18.73 -18.56,28.09 -2.57,4.58 -4.73,9.16 -6.21,13.74l32.06 0c1.48,-4.58 3.63,-9.16 6.2,-13.74l0 0c0.8,-1.42 1.64,-2.84 2.51,-4.26 -9.32,-2.36 -16.21,-10.8 -16.21,-20.85 0,-1.01 0.07,-2.01 0.21,-2.98zm47.03 4.33c-5.47,7.92 -11.15,15.84 -15.59,23.76 -2.57,4.58 -4.73,9.16 -6.21,13.74l25.54 0c3.24,0 6.13,-1.56 7.96,-3.96 0.57,-1.42 1.2,-2.83 1.88,-4.25 0.11,-0.58 0.16,-1.18 0.16,-1.79l0 -49.87c-3.61,7.46 -8.59,14.92 -13.74,22.37zm-17.01 -1.36l-22.93 0c0,7.51 5.81,13.66 13.19,14.18 3.14,-4.72 6.49,-9.45 9.74,-14.18zm-6.91 -136.14c0,4.52 0.9,9.04 2.44,13.56 5.77,-1.81 9.96,-7.2 9.96,-13.57l-12.4 0.01zm23.92 -50c-6.84,9.9 -13.99,19.79 -18.67,29.68 8.41,2.92 14.45,10.92 14.45,20.32 0,9.43 -6.06,17.43 -14.51,20.34 4.68,10.01 11.86,20.03 18.73,30.04 5.15,7.51 10.13,15.02 13.74,22.52l0 -51.7c-3.4,-7.07 -5.6,-14.14 -5.6,-21.2 0,-7.02 2.2,-14.03 5.6,-21.04l0 -51.34c-3.61,7.47 -8.59,14.92 -13.74,22.38l0 0zm-15.7 -111.26c4.46,8.05 10.18,16.09 15.7,24.14 5.15,7.51 10.13,15.01 13.74,22.51l0 -50.39c0,-0.53 -0.04,-1.05 -0.12,-1.56 -0.73,-1.54 -1.41,-3.07 -2.01,-4.6 -1.84,-2.33 -4.69,-3.84 -7.87,-3.84l-25.56 0c1.45,4.58 3.58,9.16 6.12,13.74l5.7 0 -5.7 0zm-24.24 25.99c0,7.85 6.36,14.22 14.21,14.22 5.77,0 10.73,-3.44 12.96,-8.38 -1.27,-1.94 -2.58,-3.89 -3.9,-5.84l-23.27 0zm-25.76 -25.99c5.25,9.47 12.24,18.93 18.59,28.39 -0.08,-0.78 -0.13,-1.58 -0.13,-2.39 0,-10.17 7.07,-18.7 16.56,-20.93 -1.03,-1.69 -2.03,-3.38 -2.96,-5.07 -2.54,-4.58 -4.67,-9.16 -6.13,-13.74l-32.05 0c1.45,4.58 3.58,9.16 6.12,13.74l32.06 0 -32.06 0zm35.04 67.79c0,31.25 -43.26,62.31 -43.26,93.47 0,31.35 43.26,62.78 43.26,94.03 0,8.15 -2.94,16.29 -7.3,24.42 3.48,-2.4 7.69,-3.81 12.23,-3.81 7,0 13.23,3.35 17.16,8.54 3.78,-6.35 6.88,-12.71 8.57,-19.07 0.89,-3.36 1.4,-6.72 1.4,-10.08 0,-3.35 -0.51,-6.71 -1.4,-10.07l0 -0.01c-5.83,-22 -28.46,-44.08 -37.79,-66.14 -5.7,-3.87 -9.45,-10.4 -9.45,-17.81 0,-7.44 3.78,-14 9.52,-17.86 9.38,-21.84 31.9,-43.65 37.72,-65.54 0.89,-3.35 1.4,-6.71 1.4,-10.07 0,-3.35 -0.5,-6.71 -1.4,-10.07l0 -0.01c-1.67,-6.3 -4.72,-12.61 -8.44,-18.92 -3.91,5.29 -10.2,8.72 -17.29,8.72 -4.4,0 -8.49,-1.32 -11.9,-3.59 4.17,7.97 6.97,15.93 6.97,23.87zm-50 0c0,31.25 -43.26,62.31 -43.26,93.47 0,31.35 43.26,62.78 43.26,94.03 0,22.47 -22.37,44.85 -34.93,67.23 -2.57,4.58 -4.73,9.16 -6.21,13.74l32.06 0c1.48,-4.58 3.63,-9.16 6.21,-13.74l-0.01 0c12.57,-22.38 34.94,-44.76 34.94,-67.23 0,-31.25 -43.26,-62.68 -43.26,-94.03 0,-31.16 43.26,-62.22 43.26,-93.47 0,-22.53 -22.5,-45.16 -35.04,-67.79 -2.54,-4.58 -4.67,-9.16 -6.13,-13.74l-32.05 0c1.45,4.58 3.58,9.16 6.12,13.74l32.06 0 -32.06 0c12.55,22.63 35.04,45.26 35.04,67.79zm-68.4 229.61c-3.25,4.73 -6.6,9.45 -9.75,14.18 0.34,0.02 0.69,0.04 1.04,0.04 7.85,0 14.21,-6.37 14.21,-14.22l-5.5 0zm0.33 -271.41c1.33,1.96 2.64,3.91 3.91,5.86 0.81,-1.78 1.26,-3.77 1.26,-5.86l-5.17 0zm-126.74 135.27c0,-11.88 -9.63,-21.51 -21.51,-21.51 -11.88,0 -21.51,9.63 -21.51,21.51 0,11.88 9.63,21.51 21.51,21.51 11.88,0 21.51,-9.63 21.51,-21.51zm-21.51 14.21c7.85,0 14.21,-6.37 14.21,-14.22l-28.43 0c0,7.85 6.37,14.22 14.22,14.22zm142.86 100.74c-1.18,-0.2 -2.4,-0.31 -3.65,-0.31 -11.88,0 -21.51,9.63 -21.51,21.51 0,4.55 1.41,8.77 3.82,12.24 1.51,-2.23 3.06,-4.46 4.61,-6.69 -0.73,-1.71 -1.13,-3.58 -1.13,-5.56l4.97 0c4.86,-7.06 9.49,-14.12 12.89,-21.19zm-21.13 -262.74c-2.53,3.53 -4.03,7.86 -4.03,12.53 0,11.88 9.63,21.51 21.51,21.51 1.3,0 2.58,-0.11 3.82,-0.34 -1.1,-2.32 -2.33,-4.64 -3.66,-6.96l-0.16 0c-7.85,0 -14.21,-6.37 -14.21,-14.22 9.19,0 1.82,-4.95 -3.27,-12.52zm-100.22 283.94c0,-11.88 -9.63,-21.51 -21.51,-21.51 -11.88,0 -21.51,9.63 -21.51,21.51 0,11.88 9.63,21.51 21.51,21.51 11.88,0 21.51,-9.63 21.51,-21.51zm-21.51 14.21c7.85,0 14.21,-6.37 14.21,-14.22l-28.43 0c0,7.85 6.37,14.22 14.22,14.22zm21.51 -285.62c0,-11.88 -9.63,-21.51 -21.51,-21.51 -11.88,0 -21.51,9.63 -21.51,21.51 0,11.88 9.63,21.51 21.51,21.51 11.88,0 21.51,-9.63 21.51,-21.51zm-21.51 14.21c7.85,0 14.21,-6.37 14.21,-14.22l-28.43 0c0,7.85 6.37,14.22 14.22,14.22z"/>
 </g>
</svg>
