<?xml version="1.0" encoding="UTF-8"?>
<!DOCTYPE svg PUBLIC "-//W3C//DTD SVG 1.1//EN" "http://www.w3.org/Graphics/SVG/1.1/DTD/svg11.dtd">
<!-- Creator: CorelDRAW 2019 (64-Bit) -->
<svg xmlns="http://www.w3.org/2000/svg" xml:space="preserve" width="256px" height="256px" version="1.1" style="shape-rendering:geometricPrecision; text-rendering:geometricPrecision; image-rendering:optimizeQuality; fill-rule:evenodd; clip-rule:evenodd"
viewBox="0 0 256 256"
 xmlns:xlink="http://www.w3.org/1999/xlink"
 xmlns:xodm="http://www.corel.com/coreldraw/odm/2003">
 <defs>
  <style type="text/css">
   <![CDATA[
    .fil0 {fill:white}
   ]]>
  </style>
 </defs>
 <g id="Layer_x0020_1">
  <metadata id="CorelCorpID_0Corel-Layer"/>
  <path class="fil0" d="M128 144.61c-9.17,0 -16.61,-7.44 -16.61,-16.61 0,-9.17 7.44,-16.61 16.61,-16.61 9.17,0 16.61,7.44 16.61,16.61 0,9.17 -7.44,16.61 -16.61,16.61zm101.64 90.25c-2.89,0 -5.23,-2.34 -5.23,-5.22 0,-2.89 2.34,-5.23 5.23,-5.23 2.88,0 5.22,2.34 5.22,5.23 0,2.88 -2.34,5.22 -5.22,5.22zm11.16 0.88l11.33 -6.1 -11.33 -6.11 15.2 -20.26 -20.26 15.2 -6.1 -11.33 -6.11 11.33 -20.26 -15.2 15.2 20.26 -11.33 6.11 11.33 6.1 -15.2 20.26 20.26 -15.2 6.11 11.33 6.1 -11.33 20.26 15.2 -15.2 -20.26zm-214.44 -0.88c-2.88,0 -5.22,-2.34 -5.22,-5.22 0,-2.89 2.34,-5.23 5.22,-5.23 2.89,0 5.23,2.34 5.23,5.23 0,2.88 -2.34,5.22 -5.23,5.22zm11.17 0.88l11.33 -6.1 -11.33 -6.11 15.2 -20.26 -20.26 15.2 -6.11 -11.33 -6.1 11.33 -20.26 -15.2 15.2 20.26 -11.33 6.11 11.33 6.1 -15.2 20.26 20.26 -15.2 6.1 11.33 6.11 -11.33 20.26 15.2 -15.2 -20.26zm192.11 -204.15c-2.89,0 -5.23,-2.34 -5.23,-5.23 0,-2.88 2.34,-5.22 5.23,-5.22 2.88,0 5.22,2.34 5.22,5.22 0,2.89 -2.34,5.23 -5.22,5.23zm11.16 0.88l11.33 -6.11 -11.33 -6.1 15.2 -20.26 -20.26 15.2 -6.1 -11.33 -6.11 11.33 -20.26 -15.2 15.2 20.26 -11.33 6.1 11.33 6.11 -15.2 20.26 20.26 -15.2 6.11 11.33 6.1 -11.33 20.26 15.2 -15.2 -20.26zm-214.44 -0.88c-2.88,0 -5.22,-2.34 -5.22,-5.23 0,-2.88 2.34,-5.22 5.22,-5.22 2.89,0 5.23,2.34 5.23,5.22 0,2.89 -2.34,5.23 -5.23,5.23zm11.17 0.88l11.33 -6.11 -11.33 -6.1 15.2 -20.26 -20.26 15.2 -6.11 -11.33 -6.1 11.33 -20.26 -15.2 15.2 20.26 -11.33 6.1 11.33 6.11 -15.2 20.26 20.26 -15.2 6.1 11.33 6.11 -11.33 20.26 15.2 -15.2 -20.26zm157.3 34.36l61.17 61.17 -19.27 -19.27 0 38.54 -41.9 41.9 -8.7 -11.6 36.75 -36.74 0 -25.66 12.83 12.83 -49.57 -49.57 8.69 -11.6zm-54 156.05l-25.66 0 -36.74 -36.75 -11.6 8.7 41.9 41.9 38.54 0 41.9 -41.9 -11.6 -8.7 -36.74 36.75zm-25.66 -189.76l25.66 0 36.74 36.75 11.6 -8.7 -41.9 -41.9 -38.54 0 -41.9 41.9 11.6 8.7 36.74 -36.75zm-82.05 107.71l0 -25.66 -12.83 12.83 49.57 -49.57 -8.69 -11.6 -61.17 61.17 19.27 -19.27 0 38.54 41.9 41.9 8.7 -11.6 -36.75 -36.74zm121.87 1.92l27.38 -14.75 -27.38 -14.75 36.72 -48.96 -48.96 36.72 -14.75 -27.38 -14.75 27.38 -48.96 -36.72 36.72 48.96 -27.38 14.75 27.38 14.75 -36.72 48.97 48.96 -36.73 14.75 27.38 14.75 -27.38 48.96 36.73 -36.72 -48.97z"/>
 </g>
</svg>
