<?xml version="1.0" encoding="UTF-8"?>
<!DOCTYPE svg PUBLIC "-//W3C//DTD SVG 1.1//EN" "http://www.w3.org/Graphics/SVG/1.1/DTD/svg11.dtd">
<!-- Creator: CorelDRAW 2019 (64-Bit) -->
<svg xmlns="http://www.w3.org/2000/svg" xml:space="preserve" width="685px" height="268px" version="1.1" style="shape-rendering:geometricPrecision; text-rendering:geometricPrecision; image-rendering:optimizeQuality; fill-rule:evenodd; clip-rule:evenodd"
viewBox="0 0 682.98 266.91"
 xmlns:xlink="http://www.w3.org/1999/xlink"
 xmlns:xodm="http://www.corel.com/coreldraw/odm/2003">
 <defs>
  <style type="text/css">
   <![CDATA[
    .str0 {stroke:#CCCCCC;stroke-width:0.9;stroke-miterlimit:22.9256}
    .fil0 {fill:none}
    .fil1 {fill:#B3B3B3}
   ]]>
  </style>
 </defs>
 <g id="Layer_x0020_1">
  <metadata id="CorelCorpID_0Corel-Layer"/>
  <path class="fil0 str0" d="M36.53 134.05l174.21 0m-209.91 -9.47l9.6 9.15 -10.12 9.67"/>
  <path class="fil0 str0" d="M123.6 28.88l0 -20.19 6.23 -6.23 18.17 0m413.25 26.42l0 -20.19 -6.23 -6.23 -18.17 0m-151.31 -2.46l0 6.78m3.28 -3.6l-6.39 0m91.26 84.69l0 6.78m3.27 -3.6l-6.39 0m3.12 -91.05l0 6.78m3.27 -3.6l-6.39 0m90.43 84.69l0 6.78m3.28 -3.6l-6.4 0m91.1 -3.18l0 6.78m3.28 -3.6l-6.4 0m3.12 -91.05l0 6.78m3.28 -3.6l-6.4 0m-346.55 -3.18l0 6.78m-3.28 -3.6l6.39 0m-91.25 84.69l0 6.78m-3.28 -3.6l6.39 0m-3.11 -91.05l0 6.78m-3.28 -3.6l6.39 0m-90.43 84.69l0 6.78m-3.28 -3.6l6.4 0m-91.1 -3.18l0 6.78m-3.27 -3.6l6.39 0m-3.12 -91.05l0 6.78m-3.27 -3.6l6.39 0"/>
  <path class="fil0 str0" d="M123.6 238.04l0 20.18 6.23 6.24 18.17 0m413.25 -26.42l0 20.18 -6.23 6.24 -18.17 0m-151.31 2.45l0 -6.78m3.28 3.6l-6.39 0m91.26 -84.68l0 -6.79m3.27 3.61l-6.39 0m3.12 91.04l0 -6.78m3.27 3.6l-6.39 0m90.43 -84.68l0 -6.79m3.28 3.61l-6.4 0m91.1 3.18l0 -6.79m3.28 3.61l-6.4 0m3.12 91.04l0 -6.78m3.28 3.6l-6.4 0m-346.55 3.18l0 -6.78m-3.28 3.6l6.39 0m-91.25 -84.68l0 -6.79m-3.28 3.61l6.39 0m-3.11 91.04l0 -6.78m-3.28 3.6l6.39 0m-90.43 -84.68l0 -6.79m-3.28 3.61l6.4 0m-91.1 3.18l0 -6.79m-3.27 3.61l6.39 0m-3.12 91.04l0 -6.78m-3.27 3.6l6.39 0"/>
  <path class="fil0 str0" d="M646.45 134.05l-174.21 0m209.91 -9.47l-9.61 9.15 10.13 9.67"/>
  <path class="fil1" d="M336.32 203.37c0,-3.4 2.76,-6.15 6.15,-6.15 3.4,0 6.15,2.75 6.15,6.15 0,3.39 -2.75,6.14 -6.15,6.14 -3.39,0 -6.15,-2.75 -6.15,-6.14zm133.79 -122.62l0 19.44 -32.55 11.66 5.46 -1.96 0 -14.75 -8.32 10.95 8.5 -11.19 5.89 -2.24 0 -11.91 21.02 0zm-209.21 29.01c0,-1.36 -1.11,-2.47 -2.47,-2.47 -1.36,0 -2.47,1.11 -2.47,2.47 0,1.37 1.11,2.47 2.47,2.47 1.36,0 2.47,-1.1 2.47,-2.47zm-7.75 -2.88l-7.18 -9.58 9.57 7.19 2.89 -5.36 2.88 5.36 9.58 -7.19 -7.18 9.58 5.35 2.88 -5.35 2.89 7.18 9.58 -9.58 -7.19 -2.88 5.36 -2.89 -5.36 -9.57 7.19 7.18 -9.58 -5.36 -2.89 5.36 -2.88zm49.03 16.47c0,-1.37 -1.11,-2.47 -2.47,-2.47 -1.36,0 -2.47,1.1 -2.47,2.47 0,1.36 1.11,2.47 2.47,2.47 1.36,0 2.47,-1.11 2.47,-2.47zm-7.75 -2.89l-7.18 -9.57 9.57 7.18 2.89 -5.36 2.88 5.36 9.58 -7.18 -7.18 9.57 5.35 2.89 -5.35 2.88 7.18 9.58 -9.58 -7.18 -2.88 5.35 -2.89 -5.35 -9.57 7.18 7.18 -9.58 -5.35 -2.88 5.35 -2.89zm129.72 -10.7c0,-1.36 1.1,-2.47 2.47,-2.47 1.36,0 2.47,1.11 2.47,2.47 0,1.37 -1.11,2.47 -2.47,2.47 -1.37,0 -2.47,-1.1 -2.47,-2.47zm7.75 -2.88l7.18 -9.58 -9.58 7.19 -2.88 -5.36 -2.89 5.36 -9.57 -7.19 7.18 9.58 -5.36 2.88 5.36 2.89 -7.18 9.58 9.57 -7.19 2.89 5.36 2.88 -5.36 9.58 7.19 -7.18 -9.58 5.35 -2.89 -5.35 -2.88zm-49.03 16.47c0,-1.37 1.1,-2.47 2.47,-2.47 1.36,0 2.47,1.1 2.47,2.47 0,1.36 -1.11,2.47 -2.47,2.47 -1.37,0 -2.47,-1.11 -2.47,-2.47zm7.75 -2.89l7.18 -9.57 -9.58 7.18 -2.88 -5.36 -2.89 5.36 -9.57 -7.18 7.18 9.57 -5.36 2.89 5.36 2.88 -7.18 9.58 9.57 -7.18 2.89 5.35 2.88 -5.35 9.58 7.18 -7.18 -9.58 5.35 -2.88 -5.35 -2.89zm-50.59 17.22c0,-1.36 1.11,-2.47 2.47,-2.47 1.36,0 2.47,1.11 2.47,2.47 0,1.36 -1.11,2.47 -2.47,2.47 -1.36,0 -2.47,-1.11 -2.47,-2.47zm7.75 -2.89l7.18 -9.57 -9.58 7.18 -2.88 -5.36 -2.88 5.36 -9.58 -7.18 7.18 9.57 -5.35 2.89 5.35 2.88 -7.18 9.58 9.58 -7.18 2.88 5.35 2.88 -5.35 9.58 7.18 -7.18 -9.58 5.35 -2.88 -5.35 -2.89zm63.91 -13.67l-5.38 1.92 -5.35 1.92 0 -15.06 16.89 -6.05 -6.16 2.21 0 15.06zm-42.06 15.06l-11.35 4.06 0 -15.06 19 -6.8 -7.65 2.74 0 15.06zm-35.45 6.73l-19.36 -6.93 0 -15.06 -7.07 -2.53 21.81 7.81 -2.61 -0.93 0 15.05 7.23 2.59zm-42.2 -15.11l-13.29 -4.76 -8.08 -2.89 3.49 1.25 0 -14.99 9.65 3.57 -0.27 -0.1 0 14.88 8.5 3.04zm-49.22 -17.63l-27.87 -9.98 0.12 -19.44 20.9 0 0 11.91 6.85 2.46 0 15.05zm227.35 -66.22l0 19.44 -32.55 11.66 5.46 -1.96 0 -14.75 -8.32 10.94 8.5 -11.19 5.89 -2.23 0 -11.91 21.02 0zm-209.21 29.01c0,-1.36 -1.11,-2.47 -2.47,-2.47 -1.36,0 -2.47,1.11 -2.47,2.47 0,1.37 1.11,2.47 2.47,2.47 1.36,0 2.47,-1.1 2.47,-2.47zm-7.75 -2.88l-7.18 -9.58 9.57 7.19 2.89 -5.36 2.88 5.36 9.58 -7.19 -7.18 9.58 5.35 2.88 -5.35 2.89 7.18 9.58 -9.58 -7.19 -2.88 5.36 -2.89 -5.36 -9.57 7.19 7.18 -9.58 -5.36 -2.89 5.36 -2.88zm49.03 16.47c0,-1.37 -1.11,-2.47 -2.47,-2.47 -1.36,0 -2.47,1.1 -2.47,2.47 0,1.36 1.11,2.47 2.47,2.47 1.36,0 2.47,-1.11 2.47,-2.47zm-7.75 -2.89l-7.18 -9.58 9.57 7.19 2.89 -5.36 2.88 5.36 9.58 -7.19 -7.18 9.58 5.35 2.89 -5.35 2.88 7.18 9.58 -9.58 -7.19 -2.88 5.36 -2.89 -5.36 -9.57 7.19 7.18 -9.58 -5.35 -2.88 5.35 -2.89zm129.72 -10.7c0,-1.36 1.1,-2.47 2.47,-2.47 1.36,0 2.47,1.11 2.47,2.47 0,1.37 -1.11,2.47 -2.47,2.47 -1.37,0 -2.47,-1.1 -2.47,-2.47zm7.75 -2.88l7.18 -9.58 -9.58 7.19 -2.88 -5.36 -2.89 5.36 -9.57 -7.19 7.18 9.58 -5.36 2.88 5.36 2.89 -7.18 9.58 9.57 -7.19 2.89 5.36 2.88 -5.36 9.58 7.19 -7.18 -9.58 5.35 -2.89 -5.35 -2.88zm-49.03 16.47c0,-1.37 1.1,-2.47 2.47,-2.47 1.36,0 2.47,1.1 2.47,2.47 0,1.36 -1.11,2.47 -2.47,2.47 -1.37,0 -2.47,-1.11 -2.47,-2.47zm7.75 -2.89l7.18 -9.58 -9.58 7.19 -2.88 -5.36 -2.89 5.36 -9.57 -7.19 7.18 9.58 -5.36 2.89 5.36 2.88 -7.18 9.58 9.57 -7.19 2.89 5.36 2.88 -5.36 9.58 7.19 -7.18 -9.58 5.35 -2.88 -5.35 -2.89zm-50.59 17.22c0,-1.37 1.11,-2.47 2.47,-2.47 1.36,0 2.47,1.1 2.47,2.47 0,1.36 -1.11,2.47 -2.47,2.47 -1.36,0 -2.47,-1.11 -2.47,-2.47zm7.75 -2.89l7.18 -9.57 -9.58 7.18 -2.88 -5.36 -2.88 5.36 -9.58 -7.18 7.18 9.57 -5.35 2.89 5.35 2.88 -7.18 9.58 9.58 -7.18 2.88 5.35 2.88 -5.35 9.58 7.18 -7.18 -9.58 5.35 -2.88 -5.35 -2.89zm63.91 -13.67l-5.38 1.92 -5.35 1.92 0 -15.06 16.89 -6.05 -6.16 2.21 0 15.06zm-42.06 15.06l-11.35 4.06 0 -15.06 19 -6.8 -7.65 2.74 0 15.06zm-35.45 6.73l-19.36 -6.93 0 -15.06 -7.07 -2.53 21.81 7.81 -2.61 -0.94 0 15.06 7.23 2.59zm-42.2 -15.11l-13.29 -4.76 -8.08 -2.9 3.49 1.25 0 -14.98 9.65 3.57 -0.27 -0.1 0 14.88 8.5 3.04zm-49.22 -17.63l-27.87 -9.98 0.12 -19.44 20.9 0 0 11.91 6.85 2.46 0 15.05zm227.35 -65.58l0 19.44 -32.55 11.65 5.46 -1.95 0 -14.76 -8.32 10.95 8.5 -11.19 5.89 -2.23 0 -11.91 21.02 0zm-209.21 29.01c0,-1.36 -1.11,-2.47 -2.47,-2.47 -1.36,0 -2.47,1.11 -2.47,2.47 0,1.36 1.11,2.47 2.47,2.47 1.36,0 2.47,-1.11 2.47,-2.47zm-7.75 -2.89l-7.18 -9.57 9.57 7.18 2.89 -5.36 2.88 5.36 9.58 -7.18 -7.18 9.57 5.35 2.89 -5.35 2.88 7.18 9.58 -9.58 -7.18 -2.88 5.35 -2.89 -5.35 -9.57 7.18 7.18 -9.58 -5.36 -2.88 5.36 -2.89zm49.03 16.47c0,-1.36 -1.11,-2.47 -2.47,-2.47 -1.36,0 -2.47,1.11 -2.47,2.47 0,1.36 1.11,2.47 2.47,2.47 1.36,0 2.47,-1.11 2.47,-2.47zm-7.75 -2.88l-7.18 -9.58 9.57 7.18 2.89 -5.35 2.88 5.35 9.58 -7.18 -7.18 9.58 5.35 2.88 -5.35 2.89 7.18 9.57 -9.58 -7.18 -2.88 5.35 -2.89 -5.35 -9.57 7.18 7.18 -9.57 -5.35 -2.89 5.35 -2.88zm129.72 -10.7c0,-1.36 1.1,-2.47 2.47,-2.47 1.36,0 2.47,1.11 2.47,2.47 0,1.36 -1.11,2.47 -2.47,2.47 -1.37,0 -2.47,-1.11 -2.47,-2.47zm7.75 -2.89l7.18 -9.57 -9.58 7.18 -2.88 -5.36 -2.89 5.36 -9.57 -7.18 7.18 9.57 -5.36 2.89 5.36 2.88 -7.18 9.58 9.57 -7.18 2.89 5.35 2.88 -5.35 9.58 7.18 -7.18 -9.58 5.35 -2.88 -5.35 -2.89zm-49.03 16.47c0,-1.36 1.1,-2.47 2.47,-2.47 1.36,0 2.47,1.11 2.47,2.47 0,1.36 -1.11,2.47 -2.47,2.47 -1.37,0 -2.47,-1.11 -2.47,-2.47zm7.75 -2.88l7.18 -9.58 -9.58 7.18 -2.88 -5.35 -2.89 5.35 -9.57 -7.18 7.18 9.58 -5.36 2.88 5.36 2.89 -7.18 9.57 9.57 -7.18 2.89 5.35 2.88 -5.35 9.58 7.18 -7.18 -9.57 5.35 -2.89 -5.35 -2.88zm-50.59 17.21c0,-1.36 1.11,-2.47 2.47,-2.47 1.36,0 2.47,1.11 2.47,2.47 0,1.36 -1.11,2.47 -2.47,2.47 -1.36,0 -2.47,-1.11 -2.47,-2.47zm7.75 -2.88l7.18 -9.58 -9.58 7.18 -2.88 -5.35 -2.88 5.35 -9.58 -7.18 7.18 9.58 -5.35 2.88 5.35 2.89 -7.18 9.57 9.58 -7.18 2.88 5.35 2.88 -5.35 9.58 7.18 -7.18 -9.57 5.35 -2.89 -5.35 -2.88zm63.91 -13.68l-5.38 1.93 -5.35 1.91 0 -15.06 16.89 -6.05 -6.16 2.21 0 15.06zm-42.06 15.06l-11.35 4.06 0 -15.05 19 -6.81 -7.65 2.74 0 15.06zm-35.45 6.74l-19.36 -6.94 0 -15.05 -7.07 -2.53 21.81 7.81 -2.61 -0.94 0 15.05 7.23 2.6zm-42.2 -15.12l-13.29 -4.75 -8.08 -2.9 3.49 1.25 0 -14.98 9.65 3.56 -0.27 -0.1 0 14.88 8.5 3.04zm-49.22 -17.62l-27.87 -9.98 0.12 -19.44 20.9 0 0 11.91 6.85 2.45 0 15.06zm177.72 182.31c0,-3.39 2.75,-6.14 6.15,-6.14 3.39,0 6.14,2.75 6.14,6.14 0,3.4 -2.75,6.15 -6.14,6.15 -3.4,0 -6.15,-2.75 -6.15,-6.15zm5.99 -43.79l20.66 20.66 10.51 -7.88 -7.88 10.51 20.35 20.35 -20.49 20.48 8.02 10.69 -10.69 -8.02 -20.48 20.48 -20.35 -20.34 -10.5 7.88 7.88 -10.51 -20.67 -20.66 20.53 -20.53 -7.74 -10.33 10.32 7.75 20.53 -20.53zm0 6.46l16.97 16.97 -9.63 7.23 -7.18 -13.33 -7.18 13.33 -9.82 -7.36 16.84 -16.84zm20.52 20.52l16.66 16.66 -16.8 16.79 -7.09 -9.46 13.33 -7.18 -13.33 -7.18 7.23 -9.63zm-3.73 37.04l-16.79 16.79 -16.66 -16.65 9.64 -7.23 7.18 13.33 7.18 -13.33 9.45 7.09zm-36.99 -3.41l-16.97 -16.97 16.83 -16.84 7.36 9.81 -13.33 7.18 13.33 7.18 -7.22 9.64zm-153.73 -16.82c0,-3.39 2.75,-6.14 6.15,-6.14 3.39,0 6.14,2.75 6.14,6.14 0,3.4 -2.75,6.15 -6.14,6.15 -3.4,0 -6.15,-2.75 -6.15,-6.15zm5.99 -43.79l20.66 20.66 10.51 -7.88 -7.88 10.51 20.35 20.35 -20.49 20.48 8.02 10.69 -10.69 -8.02 -20.48 20.48 -20.35 -20.34 -10.51 7.88 7.88 -10.51 -20.66 -20.66 20.53 -20.53 -7.75 -10.33 10.33 7.75 20.53 -20.53zm0 6.46l16.97 16.97 -9.63 7.23 -7.18 -13.33 -7.18 13.33 -9.82 -7.36 16.84 -16.84zm20.52 20.52l16.65 16.66 -16.79 16.79 -7.09 -9.46 13.33 -7.18 -13.33 -7.18 7.23 -9.63zm-3.73 37.04l-16.79 16.79 -16.66 -16.65 9.64 -7.23 7.18 13.33 7.18 -13.33 9.45 7.09zm-37 -3.41l-16.97 -16.97 16.84 -16.84 7.36 9.81 -13.33 7.18 13.33 7.18 -7.23 9.64zm103.99 -76.77l20.67 20.66 10.5 -7.88 -7.88 10.51 20.35 20.35 -20.48 20.48 8.01 10.69 -10.68 -8.02 -20.49 20.48 -20.34 -20.34 -10.51 7.88 7.88 -10.51 -20.66 -20.66 20.52 -20.53 -7.74 -10.33 10.32 7.75 20.53 -20.53zm0 6.46l16.97 16.97 -9.63 7.23 -7.18 -13.33 -7.18 13.33 -9.81 -7.36 16.83 -16.84zm20.52 20.52l16.66 16.66 -16.79 16.79 -7.09 -9.45 13.33 -7.18 -13.33 -7.18 7.22 -9.64zm-3.73 37.04l-16.79 16.79 -16.65 -16.65 9.63 -7.23 7.18 13.33 7.18 -13.33 9.45 7.09zm-36.99 -3.41l-16.97 -16.97 16.83 -16.84 7.36 9.82 -13.32 7.18 13.32 7.18 -7.22 9.63z"/>
 </g>
</svg>
