<?xml version="1.0" encoding="UTF-8"?>
<!DOCTYPE svg PUBLIC "-//W3C//DTD SVG 1.1//EN" "http://www.w3.org/Graphics/SVG/1.1/DTD/svg11.dtd">
<!-- Creator: CorelDRAW 2019 (64-Bit) -->
<svg xmlns="http://www.w3.org/2000/svg" xml:space="preserve" width="239px" height="256px" version="1.1" style="shape-rendering:geometricPrecision; text-rendering:geometricPrecision; image-rendering:optimizeQuality; fill-rule:evenodd; clip-rule:evenodd"
viewBox="0 0 222.96 239"
 xmlns:xlink="http://www.w3.org/1999/xlink"
 xmlns:xodm="http://www.corel.com/coreldraw/odm/2003">
 <defs>
  <style type="text/css">
   <![CDATA[
    .fil0 {fill:white}
   ]]>
  </style>
 </defs>
 <g id="Layer_x0020_1">
  <metadata id="CorelCorpID_0Corel-Layer"/>
  <path class="fil0" d="M119.5 103.3c8.94,0 16.2,7.26 16.2,16.2 0,8.94 -7.26,16.2 -16.2,16.2l0 -32.4zm-56.01 63.65l-47.45 -47.45 47.44 -47.44 -25.71 -34.29 34.28 25.72 47.45 -47.45 0 14.13 -39.37 39.37 20.45 15.34 18.92 -35.13 0 53.55c-8.94,0 -16.2,7.26 -16.2,16.2 0,8.94 7.26,16.2 16.2,16.2l0 53.55 -18.92 -35.13 -20.45 15.34 39.37 39.37 0 14.13 -47.44 -47.44 -34.29 25.71 25.72 -34.28zm56.01 -150.91l0 -16.04 -54.8 54.8 -39.6 -29.7 29.7 39.6 -54.8 54.8 54.8 54.8 -29.7 39.6 39.6 -29.7 54.8 54.8 0.11 -0.11 -0.11 0 0 -15.93 47.44 -47.44 34.29 25.71 -25.72 -34.28 47.45 -47.45 -47.44 -47.44 25.71 -34.29 -34.28 25.72 -47.45 -47.45zm0 14.13l39.37 39.37 -20.45 15.34 -18.92 -35.13 0 -19.58zm-49.96 128.7l15.34 -20.45 -35.12 -18.92 35.12 -18.92 -15.34 -20.45 -39.37 39.37 39.37 39.37zm49.96 30.38l18.92 -35.13 20.45 15.34 -39.37 39.37 0 -19.58zm49.96 -109.12l39.37 39.37 -39.37 39.37 -15.34 -20.45 35.12 -18.92 -35.12 -18.92 15.34 -20.45z"/>
 </g>
</svg>
