<?xml version="1.0" encoding="UTF-8"?>
<!DOCTYPE svg PUBLIC "-//W3C//DTD SVG 1.1//EN" "http://www.w3.org/Graphics/SVG/1.1/DTD/svg11.dtd">
<!-- Creator: CorelDRAW 2019 (64-Bit) -->
<svg xmlns="http://www.w3.org/2000/svg" xml:space="preserve" width="215px" height="256px" version="1.1" style="shape-rendering:geometricPrecision; text-rendering:geometricPrecision; image-rendering:optimizeQuality; fill-rule:evenodd; clip-rule:evenodd"
viewBox="0 0 215 256.01"
 xmlns:xlink="http://www.w3.org/1999/xlink"
 xmlns:xodm="http://www.corel.com/coreldraw/odm/2003">
 <defs>
  <style type="text/css">
   <![CDATA[
    .fil0 {fill:white}
   ]]>
  </style>
 </defs>
 <g id="Layer_x0020_1">
  <metadata id="CorelCorpID_0Corel-Layer"/>
  <path class="fil0" d="M49.62 0l115.76 0 0 59.45 -8.16 8.17 22.69 0 0.48 -0.48 0 -67.14 15.33 0c0,35.15 -0.02,70.29 -0.02,105.43l-16.99 17 0 -29.05 10.01 0 0 -13.51 0 -5.15 -10.01 0 0 4.48 -14.83 0 0 -4.48 -10.01 0 0 4.48 -14.82 0 0 -4.48 -10.01 0 0 18.66 10.01 0 0 29.06 -16.99 -16.99 0 -37.83 16.62 0 0 -27.13 15.73 0 0 -29.34 -15.73 0 0 7.04 -23.31 0 0 -7.04 -15.74 0 0 7.04 -23.31 0 0 -7.04 -15.73 0 0 29.34 15.73 0 0 27.13 16.62 0 0 37.83 -16.99 16.99 0 -29.06 10.01 0 0 -18.66 -10.01 0 0 4.48 -14.82 0 0 -4.48 -10.01 0 0 4.48 -14.83 0 0 -4.48 -10.01 0 0 5.11 0 13.55 10.01 0 0 29.05 -16.99 -17c0,-35.14 -0.02,-70.28 -0.02,-105.43l15.33 0 0 67.1 0.52 0.52 22.68 0 -8.19 -8.19 0 -59.43zm57.88 197.01c-2.33,0 -4.22,-1.88 -4.22,-4.21 0,-2.33 1.89,-4.22 4.22,-4.22 2.33,0 4.22,1.89 4.22,4.22 0,2.33 -1.89,4.21 -4.22,4.21zm9.01 0.71l9.15 -4.92 -9.15 -4.93 12.27 -16.35 -16.35 12.27 -4.93 -9.15 -4.93 9.15 -16.35 -12.27 12.27 16.35 -9.15 4.93 9.15 4.92 -12.27 16.36 16.35 -12.27 4.93 9.15 4.93 -9.15 16.35 12.27 -12.27 -16.36zm-43.34 -44.66l68.66 0 -34.33 -34.33 -34.33 34.33zm71.33 2.67l0 35.33 -17.07 17.07 0 -13.95 2.57 -1.38 -2.57 -1.39 0 -12.47 10.05 0 0 -18.75 -10.05 0 0 4.5 -14.9 0 0 -4.5 -10.06 0 0 4.5 -14.9 0 0 -4.5 -10.05 0 0 18.75 10.05 0 0 12.47 -2.57 1.39 2.57 1.38 0 13.94 -17.07 -17.08 0 -35.31 -9.59 9.59 0 30.63 21.51 21.51 -1.28 1.7 1.7 -1.28 19.63 19.64 0 -31.56 5.03 9.34 5.03 -9.34 0 31.56 19.64 -19.63 1.69 1.27 -1.27 -1.69 21.5 -21.5 0 -30.65 -9.59 -9.59zm19.38 9.35l0 34.56 -56.37 56.37 -56.39 -56.4 0 -34.53 -51.12 -51.12 0 -46.34 9.75 0 0 42.69 41.37 41.37 0 -57.84 10.01 0 0 57.86 38.5 -38.5 0 -71.99 15.74 0 0 71.99 38.5 38.5 0 -57.86 10.01 0 0 57.84 41.37 -41.37 0 -42.69 9.75 0 0 46.34 -51.12 51.12z"/>
 </g>
</svg>
