<?xml version="1.0" encoding="UTF-8"?>
<!DOCTYPE svg PUBLIC "-//W3C//DTD SVG 1.1//EN" "http://www.w3.org/Graphics/SVG/1.1/DTD/svg11.dtd">
<!-- Creator: CorelDRAW 2019 (64-Bit) -->
<svg xmlns="http://www.w3.org/2000/svg" xml:space="preserve" width="350px" height="350px" version="1.1" style="shape-rendering:geometricPrecision; text-rendering:geometricPrecision; image-rendering:optimizeQuality; fill-rule:evenodd; clip-rule:evenodd"
viewBox="0 0 350 350"
 xmlns:xlink="http://www.w3.org/1999/xlink"
 xmlns:xodm="http://www.corel.com/coreldraw/odm/2003">
 <defs>
  <style type="text/css">
   <![CDATA[
    .fil0 {fill:white}
   ]]>
  </style>
 </defs>
 <g id="Layer_x0020_1">
  <metadata id="CorelCorpID_0Corel-Layer"/>
  <path class="fil0" d="M13.74 326.26l0 -302.52c0,-5.5 4.5,-10 10,-10l302.52 0c5.5,0 10,4.5 10,10l0 302.52c0,5.5 -4.5,10 -10,10l-302.52 0c-5.5,0 -10,-4.5 -10,-10zm318.3 -151.26c0,-11.88 -9.63,-21.51 -21.51,-21.51 -11.88,0 -21.51,9.63 -21.51,21.51 0,11.88 9.63,21.51 21.51,21.51 11.88,0 21.51,-9.63 21.51,-21.51zm-21.51 14.21c7.85,0 14.21,-6.37 14.21,-14.22l-28.42 0c0,7.85 6.36,14.22 14.21,14.22zm-249.74 -14.21c0,-11.88 -9.63,-21.51 -21.51,-21.51 -11.88,0 -21.51,9.63 -21.51,21.51 0,11.88 9.63,21.51 21.51,21.51 11.88,0 21.51,-9.63 21.51,-21.51zm-21.51 14.21c7.85,0 14.21,-6.37 14.21,-14.22l-28.43 0c0,7.85 6.37,14.22 14.22,14.22zm160.72 121.94c0,-11.88 -9.63,-21.51 -21.51,-21.51 -11.88,0 -21.51,9.63 -21.51,21.51 0,11.88 9.63,21.51 21.51,21.51 11.88,0 21.51,-9.63 21.51,-21.51zm-21.51 14.21c7.85,0 14.21,-6.37 14.21,-14.22l-28.42 0c0,7.85 6.36,14.22 14.21,14.22zm21.51 -285.62c0,-11.88 -9.63,-21.51 -21.51,-21.51 -11.88,0 -21.51,9.63 -21.51,21.51 0,11.88 9.63,21.51 21.51,21.51 11.88,0 21.51,-9.63 21.51,-21.51zm-21.51 14.21c7.85,0 14.21,-6.37 14.21,-14.22l-28.42 0c0,7.85 6.36,14.22 14.21,14.22zm153.55 257.2c0,-11.88 -9.63,-21.51 -21.51,-21.51 -11.88,0 -21.51,9.63 -21.51,21.51 0,11.88 9.63,21.51 21.51,21.51 11.88,0 21.51,-9.63 21.51,-21.51zm-21.51 14.21c7.85,0 14.21,-6.37 14.21,-14.22l-28.42 0c0,7.85 6.36,14.22 14.21,14.22zm-249.74 -14.21c0,-11.88 -9.63,-21.51 -21.51,-21.51 -11.88,0 -21.51,9.63 -21.51,21.51 0,11.88 9.63,21.51 21.51,21.51 11.88,0 21.51,-9.63 21.51,-21.51zm-21.51 14.21c7.85,0 14.21,-6.37 14.21,-14.22l-28.43 0c0,7.85 6.37,14.22 14.22,14.22zm292.76 -285.62c0,-11.88 -9.63,-21.51 -21.51,-21.51 -11.88,0 -21.51,9.63 -21.51,21.51 0,11.88 9.63,21.51 21.51,21.51 11.88,0 21.51,-9.63 21.51,-21.51zm-21.51 14.21c7.85,0 14.21,-6.37 14.21,-14.22l-28.42 0c0,7.85 6.36,14.22 14.21,14.22zm-249.74 -14.21c0,-11.88 -9.63,-21.51 -21.51,-21.51 -11.88,0 -21.51,9.63 -21.51,21.51 0,11.88 9.63,21.51 21.51,21.51 11.88,0 21.51,-9.63 21.51,-21.51zm-21.51 14.21c7.85,0 14.21,-6.37 14.21,-14.22l-28.43 0c0,7.85 6.37,14.22 14.22,14.22zm310.72 286.05l0 -330c0,-5.5 -4.5,-10 -10,-10l-330 0c-5.5,0 -10,4.5 -10,10l0 330c0,5.5 4.5,10 10,10l330 0c5.5,0 10,-4.5 10,-10z"/>
 </g>
</svg>
