<?xml version="1.0" encoding="UTF-8"?>
<!DOCTYPE svg PUBLIC "-//W3C//DTD SVG 1.1//EN" "http://www.w3.org/Graphics/SVG/1.1/DTD/svg11.dtd">
<!-- Creator: CorelDRAW 2019 (64-Bit) -->
<svg xmlns="http://www.w3.org/2000/svg" xml:space="preserve" width="156px" height="256px" version="1.1" style="shape-rendering:geometricPrecision; text-rendering:geometricPrecision; image-rendering:optimizeQuality; fill-rule:evenodd; clip-rule:evenodd"
viewBox="0 0 156 256.1"
 xmlns:xlink="http://www.w3.org/1999/xlink"
 xmlns:xodm="http://www.corel.com/coreldraw/odm/2003">
 <defs>
  <style type="text/css">
   <![CDATA[
    .fil0 {fill:white}
   ]]>
  </style>
 </defs>
 <g id="Layer_x0020_1">
  <metadata id="CorelCorpID_0Corel-Layer"/>
  <path class="fil0" d="M58.07 38.37l0 -12.48 -10.06 0 0 -18.76 10.06 0 0 4.5 14.9 0 0 -4.5 10.06 0 0 4.5 14.9 0 0 -4.5 10.06 0 0 18.76 -10.06 0 0 12.48 2.58 1.38 -2.58 1.39 0 13.95 17.08 -17.08 0 -35.34 9.6 9.59 0 30.67c-16.28,16.27 -25.57,25.56 -41.58,41.57l0 -31.58 -5.03 9.34 -5.03 -9.34 0 31.57c-16.02,-16.02 -25.29,-25.29 -41.58,-41.58l0 -30.65 9.6 -9.59 0 35.33 17.08 17.08 0 -13.94 -2.58 -1.39 2.58 -1.38zm56.47 70.81c24.66,13.1 41.46,39.05 41.46,68.92 0,43.08 -34.92,78 -78,78 -43.08,0 -78,-34.92 -78,-78 0,-29.87 16.8,-55.82 41.46,-68.92l0 10.93c-19.23,12.14 -32,33.57 -32,57.99 0,37.86 30.69,68.55 68.54,68.55 37.85,0 68.54,-30.69 68.54,-68.55 0,-24.42 -12.77,-45.85 -32,-57.99l0 -10.93zm-36.54 85.76c-2.89,0 -5.23,-2.34 -5.23,-5.23 0,-2.88 2.34,-5.23 5.23,-5.23 2.89,0 5.23,2.35 5.23,5.23 0,2.89 -2.34,5.23 -5.23,5.23zm33.06 -17.68c0,11.21 -5.62,21.59 -15.01,27.72l-6.88 -9.16 11.34 -6.11 -11.34 -6.1 15.2 -20.27 -20.26 15.2 -6.11 -11.34 -6.11 11.34 -20.26 -15.2 15.2 20.27 -11.34 6.1 11.34 6.11 -6.88 9.16c-9.03,-5.9 -15.01,-16.1 -15.01,-27.7l0 -82.68 12.52 0 0 69.9 41.08 0 0 -69.9 12.52 0 0 82.66zm-18.71 29.81c-4.05,1.95 -8.56,3.11 -13.33,3.25l5.09 -9.44 8.24 6.19zm-15.37 3.25c-4.77,-0.14 -9.28,-1.29 -13.33,-3.25l8.24 -6.19 5.09 9.44zm37.56 -76.34c12.67,10.51 20.75,26.37 20.75,44.12 0,31.64 -25.65,57.29 -57.29,57.29 -31.64,0 -57.29,-25.65 -57.29,-57.29 0,-17.75 8.08,-33.61 20.75,-44.12l0 16.67c-5.75,7.64 -9.16,17.15 -9.16,27.45 0,25.24 20.46,45.71 45.7,45.71 25.24,0 45.7,-20.47 45.7,-45.71 0,-10.3 -3.41,-19.81 -9.16,-27.45l0 -16.67zm-36.54 25.29l17.73 -19.56 -10.47 0 0 -43.97 49.14 -49.14 0 -46.6 -112.8 0 0 46.57 49.14 49.16 0 43.98 -10.47 0 17.73 19.56zm-4.22 -119.47c0,-2.33 1.89,-4.22 4.22,-4.22 2.33,0 4.22,1.89 4.22,4.22 0,2.33 -1.89,4.22 -4.22,4.22 -2.33,0 -4.22,-1.89 -4.22,-4.22zm22.38 0l-9.14 -4.93 12.26 -16.35 -16.35 12.27 -4.93 -9.15 -4.93 9.15 -16.35 -12.27 12.26 16.35 -9.14 4.93 9.14 4.93 -12.26 16.35 16.35 -12.27 4.93 9.15 4.93 -9.15 16.35 12.27 -12.26 -16.35 9.14 -4.93z"/>
 </g>
</svg>
