<?xml version="1.0" encoding="UTF-8"?>
<!DOCTYPE svg PUBLIC "-//W3C//DTD SVG 1.1//EN" "http://www.w3.org/Graphics/SVG/1.1/DTD/svg11.dtd">
<!-- Creator: CorelDRAW 2019 (64-Bit) -->
<svg xmlns="http://www.w3.org/2000/svg" xml:space="preserve" width="400px" height="600px" version="1.1" style="shape-rendering:geometricPrecision; text-rendering:geometricPrecision; image-rendering:optimizeQuality; fill-rule:evenodd; clip-rule:evenodd"
viewBox="0 0 400 600"
 xmlns:xlink="http://www.w3.org/1999/xlink"
 xmlns:xodm="http://www.corel.com/coreldraw/odm/2003">
 <defs>
  <style type="text/css">
   <![CDATA[
    .str0 {stroke:white;stroke-width:8.33;stroke-miterlimit:22.9256}
    .fil0 {fill:none}
   ]]>
  </style>
 </defs>
 <g id="Layer_x0020_1">
  <metadata id="CorelCorpID_0Corel-Layer"/>
  <g id="_2838773494128">
   <polygon class="fil0" points="0,0 400,0 400,600 0,600 "/>
   <path class="fil0 str0" d="M288.97 565.5l53.95 -48.02m-285.84 -435.57l53.26 -47.41m-53.26 77.41l86.97 -77.41m-86.97 107.41l120.67 -107.41m-120.67 137.41l100.05 -89.05m25.58 -22.77l28.74 -25.59m-154.37 167.41l85.75 -76.33m28.59 -25.45l23.42 -20.85m21.57 -19.19l28.74 -25.59m-188.07 197.41l85.75 -76.33m28.59 -25.45l57.13 -50.85m14.32 -12.75l35.99 -32.03m-250.36 252.85l114.33 -101.77m42.88 -38.17l42.87 -38.16m14.29 -12.72l63.41 -56.44m-249.2 251.82l42.88 -38.17m85.75 -76.33l28.58 -25.44m37.13 -33.05l71.67 -63.79m-266.01 266.78l42.88 -38.17m50.83 -45.24l63.5 -56.53m42.87 -38.16l82.73 -73.64m-311.39 307.18l25.81 -22.97m2.77 -2.47l42.88 -38.17m28.58 -25.44l88.4 -78.69m40.22 -35.8l85.76 -76.33m-299.08 296.22l56.12 -49.96m28.58 -25.44l105.21 -93.65m23.41 -20.84l85.76 -76.33m-285.84 284.43l42.88 -38.17m28.58 -25.44l122.01 -108.61m18.07 -16.08l74.29 -66.13m-285.83 284.43l42.88 -38.17m28.58 -25.44l138.81 -123.56m18.05 -16.06l57.51 -51.2m-285.83 284.43l42.88 -38.17m28.58 -25.44l142.92 -127.22m28.58 -25.44l42.87 -38.16m-285.83 284.43l42.88 -38.17m28.58 -25.44l142.92 -127.22m28.58 -25.44l47.5 -42.28m-287.77 286.16l50.16 -44.66m28.67 -25.51l132.86 -118.27m28.58 -25.44l64.3 -57.23m-287.77 286.15l50.17 -44.65m28.66 -25.52l116.06 -103.31m28.58 -25.44l42.88 -38.16m19.18 -17.08l9.4 -8.37m-278.13 277.57l65.25 -58.08m28.75 -25.59l84.09 -74.85m28.58 -25.44l42.88 -38.16m-222.47 228.02l71.88 -63.98m28.74 -25.59l50.39 -44.85m28.58 -25.44l43.22 -38.47m-160.35 172.74l43.12 -38.39m74.01 -65.88l71.46 -63.61m-154.89 167.88l56.41 -50.22m27.02 -24.05l42.88 -38.16m-96.34 115.75l96.34 -85.75m-79.53 100.79l79.53 -70.79"/>
  </g>
 </g>
</svg>
