<?xml version="1.0" encoding="UTF-8"?>
<!DOCTYPE svg PUBLIC "-//W3C//DTD SVG 1.1//EN" "http://www.w3.org/Graphics/SVG/1.1/DTD/svg11.dtd">
<!-- Creator: CorelDRAW 2019 (64-Bit) -->
<svg xmlns="http://www.w3.org/2000/svg" xml:space="preserve" width="400px" height="600px" version="1.1" style="shape-rendering:geometricPrecision; text-rendering:geometricPrecision; image-rendering:optimizeQuality; fill-rule:evenodd; clip-rule:evenodd"
viewBox="0 0 400 600"
 xmlns:xlink="http://www.w3.org/1999/xlink"
 xmlns:xodm="http://www.corel.com/coreldraw/odm/2003">
 <defs>
  <style type="text/css">
   <![CDATA[
    .fil0 {fill:none}
    .fil1 {fill:white}
   ]]>
  </style>
 </defs>
 <g id="Layer_x0020_1">
  <metadata id="CorelCorpID_0Corel-Layer"/>
  <rect class="fil0" width="400" height="600"/>
  <path id="svg_132" class="fil1" d="M157.13 475.93l85.74 0 28.59 -25.59 0 -191.93 -57.17 -51.18 0 -63.97 14.29 -12.8 0 -51.18 -57.16 0 0 51.18 14.29 12.8 0 63.97 -57.17 51.18 0 191.93 28.59 25.59zm185.79 -62.69l0 113.87 -42.88 38.39 -28.58 0 -28.59 -25.59 -85.74 0 -28.59 25.59 -28.58 0 -42.88 -38.39 0 -121.55 -28.58 -25.59 0 -25.59 28.58 0 0 -63.98 -28.58 0c0,0 0,-25.59 0,-25.59l28.58 -25.59 0 -166.33 42.88 -38.39 200.08 0 42.88 38.39 -0.01 166.33 28.59 25.59 0 25.59 -28.58 0 0 76.77 28.58 0 0 25.6 -28.58 20.47zm-42.88 56.29l0 -217.52c-5.35,-4.79 -39.89,-36.7 -42.88,-37.79l0 -90.16 -14.29 -12.79 0 -51.18 -85.74 0 0 51.18 -14.3 12.8 0 90.15c-2.95,1.08 -37.55,33.02 -42.87,37.79l0 223.92 28.58 25.59 128.63 0 42.87 -31.99z"/>
 </g>
</svg>
