<?xml version="1.0"?>
<svg width="640" height="480" xmlns="http://www.w3.org/2000/svg" xmlns:svg="http://www.w3.org/2000/svg">
 <!-- Created with SVG-edit - https://github.com/SVG-Edit/svgedit-->

 <g class="layer">
  <title>Layer 1</title>
  <path d="m300,370l60,0l20,-20l0,-150l-40,-40l0,-50l10,-10l0,-40l-40,0l0,40l10,10l0,50l-40,40l0,150l20,20z" fill="none" id="svg_132" stroke="#ffffff" stroke-opacity="0.01" stroke-width="5"/>
  <line fill="none" id="svg_182" stroke="#ffffff" stroke-width="5" x1="310" x2="325" y1="75" y2="60"/>
  <line fill="none" id="svg_183" stroke="#ffffff" stroke-width="5" x1="310" x2="340" y1="90" y2="60"/>
  <line fill="none" id="svg_187" stroke="#ffffff" stroke-width="5" x1="320" x2="350" y1="110" y2="80"/>
  <line fill="none" id="svg_188" stroke="#ffffff" stroke-width="5" x1="320" x2="350" y1="125" y2="95"/>
  <line fill="none" id="svg_189" stroke="#ffffff" stroke-width="5" x1="320" x2="340" y1="140" y2="120"/>
  <line fill="none" id="svg_191" stroke="#ffffff" stroke-width="5" x1="320" x2="340" y1="155" y2="135"/>
  <line fill="none" id="svg_199" stroke="#ffffff" stroke-width="5" x1="380" x2="340" y1="330" y2="370"/>
  <line fill="none" id="svg_200" stroke="#ffffff" stroke-width="5" x1="380" x2="320" y1="310" y2="370"/>
  <line fill="none" id="svg_201" stroke="#ffffff" stroke-width="5" x1="380" x2="300" y1="290" y2="370"/>
  <line fill="none" id="svg_202" stroke="#ffffff" stroke-width="5" x1="380" x2="290" y1="270" y2="360"/>
  <line fill="none" id="svg_203" stroke="#ffffff" stroke-width="5" x1="380" x2="280" y1="250" y2="350"/>
  <line fill="none" id="svg_204" stroke="#ffffff" stroke-width="5" x1="380" x2="280" y1="230" y2="330"/>
  <line fill="none" id="svg_205" stroke="#ffffff" stroke-width="5" x1="380" x2="280" y1="210" y2="310"/>
  <line fill="none" id="svg_206" stroke="#ffffff" stroke-width="5" x1="375" x2="280" y1="195" y2="290"/>
  <line fill="none" id="svg_207" stroke="#ffffff" stroke-width="5" x1="280" x2="365" y1="270" y2="185"/>
  <line fill="none" id="svg_208" stroke="#ffffff" stroke-width="5" x1="280" x2="355" y1="250" y2="175"/>
  <line fill="none" id="svg_209" stroke="#ffffff" stroke-width="5" x1="280" x2="345" y1="230" y2="165"/>
  <line fill="none" id="svg_210" stroke="#ffffff" stroke-width="5" x1="280" x2="340" y1="210" y2="150"/>
  <line fill="none" id="svg_231" stroke="#ffffff" stroke-width="5" x1="350" x2="312" y1="65" y2="102"/>
 </g>
</svg>