<?xml version="1.0" encoding="UTF-8"?>
<!DOCTYPE svg PUBLIC "-//W3C//DTD SVG 1.1//EN" "http://www.w3.org/Graphics/SVG/1.1/DTD/svg11.dtd">
<!-- Creator: CorelDRAW 2019 (64-Bit) -->
<svg xmlns="http://www.w3.org/2000/svg" xml:space="preserve" width="400px" height="600px" version="1.1" style="shape-rendering:geometricPrecision; text-rendering:geometricPrecision; image-rendering:optimizeQuality; fill-rule:evenodd; clip-rule:evenodd"
viewBox="0 0 400 600"
 xmlns:xlink="http://www.w3.org/1999/xlink"
 xmlns:xodm="http://www.corel.com/coreldraw/odm/2003">
 <defs>
  <style type="text/css">
   <![CDATA[
    .fil0 {fill:none}
    .fil1 {fill:white}
   ]]>
  </style>
 </defs>
 <g id="Layer_x0020_1">
  <metadata id="CorelCorpID_0Corel-Layer"/>
  <g id="_2837949797232">
   <rect class="fil0" width="400" height="600"/>
   <g>
    <path id="svg_132" class="fil1" d="M160.26 467.6l79.48 0 23.39 -20.94 0 -184.57 -54.37 -48.67 -2.8 -2.51 0 -3.68 0 -63.97 0 -3.68 2.8 -2.51 11.49 -10.29 0 -39.16 -40.5 0 0 39.16 11.49 10.29 2.8 2.51 0 3.68 0 63.97 0 3.68 -2.8 2.51 -54.37 48.67 0 184.57 23.39 20.94zm-3.13 8.33l85.74 0 28.59 -25.59 0 -191.93 -57.17 -51.18 0 -63.97 14.29 -12.8 0 -51.18 -57.16 0 0 51.18 14.29 12.8 0 63.97 -57.17 51.18 0 191.93 28.59 25.59zm185.79 -62.69l0 113.87 -42.88 38.39 -28.58 0 -28.59 -25.59 -85.74 0 -28.59 25.59 -28.58 0 -42.88 -38.39 0 -121.55 -28.58 -25.59 0 -25.59 28.58 0 0 -63.98 -28.58 0c0,0 0,-25.59 0,-25.59l28.58 -25.59 0 -166.33 42.88 -38.39 200.08 0 42.88 38.39 -0.01 166.33 28.59 25.59 0 25.59 -28.58 0 0 76.77 28.58 0 0 25.6 -28.58 20.47zm-42.88 56.29l0 -217.52c-5.35,-4.79 -39.89,-36.7 -42.88,-37.79l0 -90.16 -14.29 -12.79 0 -51.18 -85.74 0 0 51.18 -14.3 12.8 0 90.15c-2.95,1.08 -37.55,33.02 -42.87,37.79l0 223.92 28.58 25.59 128.63 0 42.87 -31.99zm34.54 53.9l0 -110.19 0 -4.28 3.49 -2.49 25.1 -17.98 0 -12.98 -20.25 0 -8.34 0 0 -8.34 0 -76.77 0 -8.33 8.34 0 20.25 0 0 -13.58 -25.8 -23.09 -2.76 -2.47 0 -3.71 0.01 -162.63 -37.71 -33.76 -193.82 0 -37.67 33.73 0 162.66 0 3.68 -2.8 2.5 -25.79 23.09 0 13.58 20.25 0 8.34 0 0 8.33 0 63.98 0 8.33 -8.34 0 -20.25 0 0 13.58 25.79 23.08 2.8 2.51 0 3.68 0 117.87 37.67 33.73 22.32 0 26.18 -23.44 2.4 -2.15 3.14 0 85.74 0 3.14 0 2.4 2.15 26.18 23.44 22.32 0 37.67 -33.73zm-26.2 -271.42l0 217.52 0 4.17 -3.36 2.5 -42.87 31.99 -2.23 1.67 -2.75 0 -128.63 0 -3.13 0 -2.4 -2.15 -28.59 -25.59 -2.8 -2.51 0 -3.68 0 -223.92 0 -3.67 2.8 -2.51c0.37,-0.33 2.19,-2.01 5.78,-5.28 9.21,-8.41 25.49,-23.26 34.3,-30.3l0 -86.18 0 -3.68 2.8 -2.51 11.49 -10.29 0 -47.5 0 -8.34 8.34 0 85.74 0 8.34 0 0 8.34 0 47.5 11.49 10.29 2.8 2.5 0 3.68 0 86.18c8.8,7.04 25.07,21.88 34.29,30.3 3.62,3.3 5.27,4.82 5.79,5.29l2.8 2.51 0 3.67z"/>
   </g>
  </g>
 </g>
</svg>
