<svg height="512" viewBox="0 0 64 64" width="512" xmlns="http://www.w3.org/2000/svg"><g id="Filled_outline" data-name="Filled outline"><path d="m27 12-4 13 5.693 1.594 1.307-3.594h12l2.964 8.15 3.036.85 4-13z" fill="#8ec13f"/><path d="m46 34h-20l4-11h12z" fill="#3e8051"/><path d="m50 56h-34l-11-7v-7h54v6z" fill="#3e8051"/><g fill="#f9bb4b"><circle cx="32" cy="51" r="5"/><circle cx="44" cy="51" r="5"/><circle cx="20" cy="51" r="5"/><circle cx="11" cy="48" r="4"/><circle cx="53" cy="48" r="4"/></g><path d="m5 36h4v6h-4z" fill="#d3843d"/><path d="m17 38h38v4h-38z" fill="#8ec13f"/><path d="m15 34h46v4h-46z" fill="#c8d952"/><rect fill="#f9bb4b" height="4" rx="2" width="8" x="3" y="32"/><circle cx="36" cy="28" fill="#98d085" r="3"/><path d="m14.364 11.273-7.364-3.273-3 5 7.773 3.455z" fill="#f9bb4b"/><path d="m26.28 14.339-11.28-4.339-4 8 12.656 4.868z" fill="#d3843d"/><circle cx="32" cy="51" r="2"/><circle cx="44" cy="51" r="2"/><circle cx="20" cy="51" r="2"/><path d="m10 47h2v2h-2z"/><path d="m52 47h2v2h-2z"/><path d="m61 33h-14.3l-.132-.363 1.162.326a1 1 0 0 0 1.226-.669l4-13a1 1 0 0 0 -.686-1.257l-3.87-1.083 2.546-7.638-1.9-.632-2.577 7.731-1.169-.329 1.661-5.812-1.924-.548-1.663 5.821-16.1-4.51a1 1 0 0 0 -1.226.669l-.405 1.315-10.284-3.955a1 1 0 0 0 -1.254.487l-.205.417-6.494-2.884a1 1 0 0 0 -1.263.4l-3 5a1 1 0 0 0 .451 1.429l6.816 3.029-.3.61a1 1 0 0 0 .536 1.381l11.784 4.533-.381 1.239a1 1 0 0 0 .686 1.257l4.655 1.3-2.09 5.736h-10.3a1 1 0 0 0 -1 1v4a1 1 0 0 0 1 1h1v2h-6v-4.184a2.993 2.993 0 0 0 -1-5.816h-4a2.993 2.993 0 0 0 -1 5.816v12.184a1 1 0 0 0 .463.844l11 7a1.012 1.012 0 0 0 .537.156h34a1 1 0 0 0 .664-.253l9-8a1 1 0 0 0 .336-.747v-6a1 1 0 0 0 -1-1h-3v-2h5a1 1 0 0 0 1-1v-4a1 1 0 0 0 -1-1zm-55.561-20.455 1.961-3.272 5.6 2.489-1.7 3.39zm6.948 4.917 3.1-6.2 2.02.777-1.437 3.592 1.858.742 1.446-3.616 2.293.882-1.6 3.992 1.858.742 1.606-4.016 1.515.582-2.031 6.611zm11.871 6.851 3.411-11.087 23.073 6.461-3.411 11.087-1.6-.449-2.79-7.667a1 1 0 0 0 -.941-.658h-12a1 1 0 0 0 -.939.658l-.991 2.723zm20.314 8.687h-17.144l3.272-9h10.6zm-40.572 1a1 1 0 0 1 1-1h4a1 1 0 0 1 0 2h-4a1 1 0 0 1 -1-1zm4 3v4h-2v-4zm0 11a3 3 0 1 1 3 3 3 3 0 0 1 -3-3zm4.666 4.693a4.978 4.978 0 0 0 1.411-.782 5.947 5.947 0 0 0 .793 2.189zm7.334 2.307a4 4 0 1 1 4-4 4 4 0 0 1 -4 4zm12 0a4 4 0 1 1 4-4 4 4 0 0 1 -4 4zm12 0a4 4 0 1 1 4-4 4 4 0 0 1 -4 4zm5.62 0h-1.16a5.972 5.972 0 0 0 1.463-3.089 4.945 4.945 0 0 0 2.064.985zm5.531-4.916-.184.163a2.973 2.973 0 0 1 -1.967.753 3.012 3.012 0 1 1 2.151-.916zm2.849-7.084v4.551l-.042.037a4.973 4.973 0 0 0 -9.769-.876 5.992 5.992 0 0 0 -8.649 8.288h-3.08a6 6 0 1 0 -8.92 0h-3.08a5.992 5.992 0 0 0 -8.649-8.288 4.989 4.989 0 0 0 -9.811 1.288 4.8 4.8 0 0 0 .049.482l-.049-.031v-5.451zm-40-2v-2h36v2zm42-4h-44v-2h44z"/><path d="m32 28a4 4 0 1 0 4-4 4 4 0 0 0 -4 4zm4-2a2 2 0 1 1 -2 2 2 2 0 0 1 2-2z"/><path d="m29.734 18.188 8.049 1.789.434-1.954-9-2a1 1 0 0 0 -1.187.735l-1 4 1.94.484z"/><path d="m45.5 19.919h1.999v3.162h-1.999z" transform="matrix(.316 -.949 .949 .316 11.399 58.815)"/></g></svg>