<?xml version="1.0" encoding="UTF-8"?>
<!DOCTYPE svg PUBLIC "-//W3C//DTD SVG 1.1//EN" "http://www.w3.org/Graphics/SVG/1.1/DTD/svg11.dtd">
<!-- Creator: CorelDRAW 2019 (64-Bit) -->
<svg xmlns="http://www.w3.org/2000/svg" xml:space="preserve" width="350px" height="350px" version="1.1" style="shape-rendering:geometricPrecision; text-rendering:geometricPrecision; image-rendering:optimizeQuality; fill-rule:evenodd; clip-rule:evenodd"
viewBox="0 0 350 350"
 xmlns:xlink="http://www.w3.org/1999/xlink"
 xmlns:xodm="http://www.corel.com/coreldraw/odm/2003">
 <defs>
  <style type="text/css">
   <![CDATA[
    .fil0 {fill:white}
   ]]>
  </style>
 </defs>
 <g id="Layer_x0020_1">
  <metadata id="CorelCorpID_0Corel-Layer"/>
  <path class="fil0" d="M150.05 150c16.65,0 33.3,0 49.95,0 29.58,66.67 94.14,133.33 150,200 -116.67,0 -233.33,0 -350,0 55.88,-66.67 120.45,-133.33 150.05,-200zm-113.38 -14.76c-3.42,0 -6.18,2.62 -6.18,5.86 0,3.24 2.76,5.86 6.18,5.86 3.41,0 6.18,-2.62 6.18,-5.86 0,-3.24 -2.77,-5.86 -6.18,-5.86zm35.31 7.81c-3.41,0 -6.18,2.63 -6.18,5.86 0,3.24 2.77,5.87 6.18,5.87 3.41,0 6.18,-2.63 6.18,-5.87 0,-3.23 -2.77,-5.86 -6.18,-5.86zm-56.88 8.44c-3.41,0 -6.18,2.62 -6.18,5.86 0,3.24 2.77,5.86 6.18,5.86 3.42,0 6.19,-2.62 6.19,-5.86 0,-3.24 -2.77,-5.86 -6.19,-5.86zm26.25 -42.81c-3.41,0 -6.18,2.62 -6.18,5.86 0,3.24 2.77,5.86 6.18,5.86 3.42,0 6.19,-2.62 6.19,-5.86 0,-3.24 -2.77,-5.86 -6.19,-5.86zm16.88 -17.19c-3.42,0 -6.18,2.62 -6.18,5.86 0,3.24 2.76,5.86 6.18,5.86 3.41,0 6.18,-2.62 6.18,-5.86 0,-3.24 -2.77,-5.86 -6.18,-5.86zm40.31 13.12c-3.41,0 -6.18,2.63 -6.18,5.87 0,3.23 2.77,5.86 6.18,5.86 3.42,0 6.18,-2.63 6.18,-5.86 0,-3.24 -2.76,-5.87 -6.18,-5.87zm30.27 51.01c-12.83,5.16 -27.77,-1.15 -53.19,14.74 -25.43,15.9 -26.08,53.75 -12.59,23.06 13.48,-30.69 50.56,-29.77 58.97,-29.66 8.41,0.11 19.64,-13.3 6.81,-8.14zm3.23 -16.28c-13.31,-3.73 -21.31,-17.83 -51.16,-20.71 -29.85,-2.89 -53.42,26.73 -24.03,10.61 29.4,-16.12 58.23,7.2 64.84,12.41 6.6,5.21 23.67,1.42 10.35,-2.31zm20.45 -3.43c-10.65,-8.83 -12.21,-24.97 -38.29,-39.76 -26.09,-14.79 -59.68,2.66 -26.27,-0.09 33.41,-2.75 50.25,30.29 54.16,37.74 3.91,7.44 21.04,10.93 10.4,2.11zm156.44 -0.67c3.42,0 6.18,2.62 6.18,5.86 0,3.24 -2.76,5.86 -6.18,5.86 -3.41,0 -6.18,-2.62 -6.18,-5.86 0,-3.24 2.77,-5.86 6.18,-5.86zm-35.31 7.81c3.41,0 6.18,2.63 6.18,5.86 0,3.24 -2.77,5.87 -6.18,5.87 -3.42,0 -6.18,-2.63 -6.18,-5.87 0,-3.23 2.76,-5.86 6.18,-5.86zm56.88 8.44c3.41,0 6.18,2.62 6.18,5.86 0,3.24 -2.77,5.86 -6.18,5.86 -3.42,0 -6.19,-2.62 -6.19,-5.86 0,-3.24 2.77,-5.86 6.19,-5.86zm-26.25 -42.81c3.41,0 6.18,2.62 6.18,5.86 0,3.24 -2.77,5.86 -6.18,5.86 -3.42,0 -6.19,-2.62 -6.19,-5.86 0,-3.24 2.77,-5.86 6.19,-5.86zm-16.88 -17.19c3.42,0 6.18,2.62 6.18,5.86 0,3.24 -2.76,5.86 -6.18,5.86 -3.41,0 -6.18,-2.62 -6.18,-5.86 0,-3.24 2.77,-5.86 6.18,-5.86zm-40.31 13.12c3.41,0 6.18,2.63 6.18,5.87 0,3.23 -2.77,5.86 -6.18,5.86 -3.42,0 -6.18,-2.63 -6.18,-5.86 0,-3.24 2.76,-5.87 6.18,-5.87zm-30.27 51.01c12.83,5.16 27.77,-1.15 53.19,14.74 25.43,15.9 26.08,53.75 12.59,23.06 -13.49,-30.69 -50.56,-29.77 -58.97,-29.66 -8.41,0.11 -19.64,-13.3 -6.81,-8.14zm-3.24 -16.28c13.32,-3.73 21.32,-17.83 51.17,-20.71 29.85,-2.89 53.42,26.73 24.03,10.61 -29.4,-16.12 -58.23,7.2 -64.84,12.41 -6.6,5.21 -23.67,1.42 -10.36,-2.31zm-20.44 -3.43c10.65,-8.83 12.21,-24.97 38.29,-39.76 26.09,-14.79 59.68,2.66 26.27,-0.09 -33.41,-2.75 -50.25,30.29 -54.16,37.74 -3.91,7.44 -21.05,10.93 -10.4,2.11zm29.02 -135.91c12.22,0 22.13,9.39 22.13,20.98 0,10.67 -8.4,19.48 -19.26,20.81 -0.05,2.57 -1.04,4.93 -2.64,6.78 6.39,0.05 11.55,4.98 11.55,11.05 0,6.1 -5.21,11.04 -11.65,11.04 -0.86,0 -1.71,-0.09 -2.52,-0.26 -1.29,7.47 -7.27,13.44 -14.98,15.11 0.75,1.91 1.16,3.98 1.16,6.14 0,8.58 -6.49,15.73 -15.08,17.25 0.05,0.39 0.07,0.79 0.07,1.19 0,3.96 -2.19,7.42 -5.48,9.37 2.21,0.9 3.75,2.98 3.75,5.39 0,3.08 -2.51,5.61 -5.69,5.85 -0.18,1.17 -0.72,2.22 -1.51,3.06 0.6,0.9 0.95,1.98 0.95,3.12 0,3.24 -2.77,5.87 -6.19,5.87 -3.41,0 -6.18,-2.63 -6.18,-5.87 0,-0.35 0.03,-0.7 0.1,-1.04 -2.17,-0.91 -3.69,-2.97 -3.69,-5.36 0,-0.26 0.02,-0.51 0.05,-0.76 -4.66,-0.07 -8.41,-3.67 -8.41,-8.11 0,-3.19 1.94,-5.95 4.76,-7.27 0.02,-0.29 0.05,-0.56 0.1,-0.84 -0.08,-0.51 -0.12,-1.04 -0.12,-1.57 0,-0.98 0.14,-1.93 0.39,-2.83 -4.14,-1.7 -7.04,-5.6 -7.04,-10.14 0,-2.07 0.6,-4 1.65,-5.66 -3.93,-1.78 -6.65,-5.57 -6.65,-9.97 0,-5.03 3.54,-9.26 8.38,-10.61 -0.05,-0.57 -0.08,-1.15 -0.08,-1.74 0,-5.6 2.32,-10.7 6.1,-14.46 -6.22,-3.72 -10.36,-10.29 -10.36,-17.77 0,-11.59 9.91,-20.99 22.13,-20.99 6.12,0 11.65,2.36 15.66,6.16 1.81,-1.33 4.05,-2.15 6.48,-2.27 0,-0.22 -0.01,-0.44 -0.01,-0.67 0,-11.59 9.91,-20.98 22.13,-20.98zm-8.87 52.61c-0.33,0 -0.65,-0.01 -0.97,-0.04 0.21,0.15 0.41,0.31 0.62,0.47 0.11,-0.15 0.23,-0.29 0.35,-0.43zm-55.72 108.58c0.84,-0.99 8.73,0.76 2.81,11.85 -2.17,4.08 3.34,3.63 3.34,11.29 0,7.3 -9.99,9.69 0.43,19.05 7.52,6.76 -1.99,19.79 4.78,26.56 3.64,3.65 3.67,-4.41 2.41,-6.92 -2.75,-5.45 4.63,-12.86 0.66,-18.59 -10.33,-14.94 -1.79,-9.3 -2.95,-21.62 -0.63,-6.65 -5.37,-13.27 5.84,-18.4 4.63,-2.11 5.79,10.02 9.33,6.42 6.1,-6.22 2.58,-11.96 8.76,-8.5 2.3,1.28 5.41,10.97 12.54,0.01l-5.49 -11.64c-16.65,0 -33.03,0 -49.68,0l-5.53 11.71c-1.89,3.98 9.17,3 12.75,-1.22z"/>
 </g>
</svg>
