<?xml version="1.0" encoding="UTF-8"?>
<!DOCTYPE svg PUBLIC "-//W3C//DTD SVG 1.1//EN" "http://www.w3.org/Graphics/SVG/1.1/DTD/svg11.dtd">
<!-- Creator: CorelDRAW 2019 (64-Bit) -->
<svg xmlns="http://www.w3.org/2000/svg" xml:space="preserve" width="388px" height="600px" version="1.1" style="shape-rendering:geometricPrecision; text-rendering:geometricPrecision; image-rendering:optimizeQuality; fill-rule:evenodd; clip-rule:evenodd"
viewBox="0 0 388 600.66"
 xmlns:xlink="http://www.w3.org/1999/xlink"
 xmlns:xodm="http://www.corel.com/coreldraw/odm/2003">
 <defs>
  <style type="text/css">
   <![CDATA[
    .fil0 {fill:white}
   ]]>
  </style>
 </defs>
 <g id="Layer_x0020_1">
  <metadata id="CorelCorpID_0Corel-Layer"/>
  <path class="fil0" d="M257.23 45.66c-13.94,-59.51 -107.98,-62.32 -124.64,0.25l-21.28 31.32 73.35 76.16c6.16,6.39 1.15,11.2 6.38,16.64l2.95 3.06c6.68,-7.48 0.54,-10.56 4.82,-15.01l77.39 -80.34 -18.97 -32.08zm-78.22 113.38l-153.12 -158.97 -25.84 27.02 153.96 159.84c6.47,6.73 10.01,-1.21 15.86,4.86l8.62 8.94 -9.34 9.7c-5.24,5.43 -9.87,0.22 -16.03,6.62l-153.12 158.97 26.03 26.83 153.96 -159.85c6.47,-6.72 -1.17,-10.4 4.67,-16.47l9.34 -9.69 8.55 8.87c5.14,5.35 -3.26,7.6 4.53,16.47l47.76 49.44c21.14,21.94 86.05,89.34 107.18,111.27l25.94 -26.92 -157.6 -163.62c-4.41,-4.57 -7.43,2.31 -15.1,-5.65l-5.75 -5.97 7.83 -8.12c5.15,-5.34 7.32,3.38 15.86,-4.71l47.62 -49.58c21.14,-21.94 86.05,-89.34 107.18,-111.28l-25.93 -26.92 -157.6 163.62c-4.41,4.57 2.23,7.7 -5.44,15.67l-5.03 5.22 -8.62 -8.95c-5.23,-5.43 -0.21,-10.24 -6.37,-16.64zm-87.74 -25.72c-1.66,23.95 3.42,44.42 4,51.35 -0.86,30.83 3.49,51.45 9.99,70.54l42.21 -43.82c6.16,-6.39 10.79,-1.18 16.03,-6.62l3.89 -4.04 -3.17 -3.29c-5.85,-6.06 -9.39,1.88 -15.87,-4.85l-57.08 -59.27zm34.9 177.08c3.43,10.25 6.75,21.71 9.68,35.1 3.59,16.33 26.08,57 39.67,59.6 0.77,21.33 -1.62,83.06 0.63,135.33 1.92,44.54 7.22,60.23 20.74,60.23 13.16,0 18.49,-16.21 20.43,-60.89 2.4,-55.07 -0.35,-119.97 0.11,-135.35 11.72,-4.26 36.95,-47.15 38.21,-58.92 1.43,-13.38 3.63,-24.82 6.26,-35.02l-12.71 -13.2 -47.76 -49.45c-7.8,-8.86 0.61,-11.12 -4.54,-16.46l-2.89 -3 -3.68 3.82c-5.85,6.07 1.8,9.74 -4.68,16.47l-59.47 61.74zm155.57 -56.23c6.73,-18.85 11.76,-39.16 10.79,-69.68 0.77,-10.9 6.16,-29.85 4.78,-51.76l-10.83 11.24 -47.63 49.59c-8.54,8.09 -10.71,-0.64 -15.86,4.71l-2.37 2.46 0.3 0.32c7.67,7.96 10.68,1.07 15.09,5.64l45.73 47.48z"/>
 </g>
</svg>
