<?xml version="1.0" encoding="UTF-8"?>
<!DOCTYPE svg PUBLIC "-//W3C//DTD SVG 1.1//EN" "http://www.w3.org/Graphics/SVG/1.1/DTD/svg11.dtd">
<!-- Creator: CorelDRAW 2019 (64-Bit) -->
<svg xmlns="http://www.w3.org/2000/svg" xml:space="preserve" width="256px" height="256px" version="1.1" style="shape-rendering:geometricPrecision; text-rendering:geometricPrecision; image-rendering:optimizeQuality; fill-rule:evenodd; clip-rule:evenodd"
viewBox="0 0 256 256"
 xmlns:xlink="http://www.w3.org/1999/xlink"
 xmlns:xodm="http://www.corel.com/coreldraw/odm/2003">
 <defs>
  <style type="text/css">
   <![CDATA[
    .fil0 {fill:red}
    .fil1 {fill:red;fill-rule:nonzero}
   ]]>
  </style>
 </defs>
 <g id="Layer_x0020_1">
  <metadata id="CorelCorpID_0Corel-Layer"/>
  <path class="fil0" d="M99.24 4.62c-27.18,9.29 -59.32,24.15 -85.83,36.32 -17.46,8.01 -18.33,12.94 0.1,20.84l28.66 12.3c12.1,5.89 3.46,-3.59 17.03,-7.94 5.44,-1.75 61.4,-26.74 67.69,-28.67 3.39,-1.04 8.41,0.36 10.21,3.69 1.52,2.83 3.95,9.36 -6.85,14.6 -9.66,4.69 -44.86,19.81 -56.88,24.74 -1.83,0.74 -8.72,2.87 -0.83,7.39 10.26,5.87 35.88,13.06 37.15,13.22 14.19,1.79 23.21,2.22 37.43,-0.42 15.97,-2.98 79.86,-30.82 105.54,-43.06 4.7,-2.24 4.66,-10.14 -1.52,-13.02 -27.18,-12.64 -57.1,-24.81 -84.77,-36.4 -21.51,-9.02 -44.86,-11.19 -67.13,-3.59zm64.22 15.16c-1.8,-7.67 -13.93,-8.03 -16.08,0.04l-2.74 4.04 9.46 9.82c0.79,0.82 0.15,1.44 0.82,2.15l0.38 0.39c0.86,-0.96 0.07,-1.36 0.62,-1.94l9.99 -10.36 -2.45 -4.14 0 0zm-10.09 14.63l-19.75 -20.51 -3.33 3.49 19.86 20.61c0.83,0.87 1.29,-0.15 2.04,0.63l1.11 1.15 -1.2 1.26c-0.68,0.7 -1.27,0.02 -2.07,0.85l-19.75 20.5 3.36 3.46 19.86 -20.61c0.83,-0.87 -0.15,-1.34 0.6,-2.13l1.2 -1.25 1.11 1.15c0.66,0.69 -0.42,0.98 0.58,2.12l6.16 6.38c2.73,2.83 11.1,11.52 13.83,14.35l3.34 -3.47 -20.33 -21.11c-0.57,-0.59 -0.95,0.3 -1.94,-0.72l-0.75 -0.78 1.01 -1.04c0.67,-0.69 0.95,0.43 2.05,-0.61l6.14 -6.39c2.73,-2.83 11.1,-11.53 13.83,-14.36l-3.35 -3.47 -20.33 21.1c-0.57,0.59 0.29,1 -0.7,2.02l-0.65 0.68 -1.11 -1.16c-0.67,-0.7 -0.03,-1.32 -0.82,-2.14l0 0zm-11.32 -3.32c-0.21,3.09 0.44,5.73 0.52,6.62 -0.11,3.98 0.45,6.64 1.29,9.1l5.44 -5.65c0.8,-0.82 1.39,-0.15 2.07,-0.85l0.5 -0.53 -0.41 -0.42c-0.75,-0.78 -1.21,0.24 -2.04,-0.63l-7.37 -7.64 0 0zm4.5 22.84c0.45,1.32 0.88,2.8 1.25,4.53 0.47,2.1 3.37,7.35 5.12,7.68 0.1,2.76 -0.21,10.72 0.08,17.46 0.25,5.75 0.93,7.77 2.68,7.77 1.69,0 2.38,-2.09 2.63,-7.86 0.31,-7.1 -0.04,-15.47 0.02,-17.45 1.51,-0.55 4.76,-6.08 4.92,-7.6 0.19,-1.73 0.47,-3.2 0.81,-4.52l-1.64 -1.7 -6.16 -6.38c-1,-1.14 0.08,-1.43 -0.58,-2.12l-0.38 -0.39 -0.47 0.49c-0.76,0.79 0.23,1.26 -0.6,2.13l-7.68 7.96 0 0zm20.07 -7.25c0.87,-2.43 1.52,-5.05 1.39,-8.99 0.1,-1.41 0.8,-3.85 0.62,-6.68l-1.4 1.45 -6.14 6.4c-1.1,1.04 -1.38,-0.08 -2.05,0.61l-0.3 0.31 0.04 0.05c0.98,1.02 1.37,0.13 1.94,0.72l5.9 6.13 0 0zm-106.72 24.45c-3.47,2.03 -4.99,4.4 -5.98,9.98 -0.02,0.11 -3.11,68.24 -4.42,85.66 -1.44,18.95 16.81,16.46 18.7,5.68 1.24,-7.1 -2.95,-41.36 -3.83,-53.86 -0.37,-5.15 -2.64,-24.43 -1.87,-34.47 0.32,-4.17 2.89,-5.89 5.3,-6.97 10.85,-4.86 57.05,-24.16 62.55,-27.23 1.79,-0.99 2.8,-3.86 2.09,-5.82 -0.72,-1.96 -3.41,-2.48 -5.59,-1.84 -5,1.46 -63.49,26.85 -66.95,28.87zm8.51 19.44c-2.5,11.02 2.12,41.3 4.8,42.18 33.56,11.11 90.55,17.08 121.46,-5.54 5.33,-3.9 3.7,-34.97 2.8,-40.86 -15.04,7.27 -25.71,12.7 -35.78,15.59 -21.99,6.31 -37.68,8.23 -64.45,0.81 -8.7,-2.41 -16.76,-7.08 -28.83,-12.18z"/>
  <path class="fil1" d="M0 180.63l22.52 0 12.21 49.89 12.35 -49.89 22.52 0 -22.52 74.92 -24.56 0 -22.52 -74.92zm122.79 -0.23l0 19.01 -48.68 0 0 -19.01 48.68 0zm-24.55 28.52l0 22.99c0,1.44 0.2,2.51 0.6,3.23 0.4,0.72 1.21,1.24 2.47,1.58 1.26,0.32 3.26,0.49 5.98,0.49l12.35 0 0 18.79 -24.69 0c-5.56,0 -9.62,-1.06 -12.18,-3.19 -2.57,-2.13 -4.13,-4.85 -4.72,-8.15 -0.58,-3.28 -0.86,-7.92 -0.86,-13.88l0 -21.86 21.05 0zm68.01 -9.51c-4.52,0 -8.39,1.62 -11.6,4.88 -3.2,3.27 -4.81,7.23 -4.81,11.87 0,3.11 0.74,5.98 2.19,8.56 1.47,2.61 3.47,4.67 6,6.17 2.52,1.5 5.28,2.24 8.22,2.24 4.4,0 8.18,-1.65 11.34,-4.96 3.15,-3.29 4.73,-7.32 4.73,-12.01 0,-3.02 -0.71,-5.81 -2.17,-8.4 -1.44,-2.56 -3.41,-4.61 -5.88,-6.11 -2.47,-1.49 -5.15,-2.24 -8.02,-2.24zm0 -22.86c6.91,0 13.34,1.79 19.28,5.37 5.96,3.59 10.69,8.41 14.19,14.51 3.5,6.1 5.24,12.67 5.24,19.73 0,7.13 -1.75,13.75 -5.24,19.88 -3.5,6.13 -8.24,10.97 -14.19,14.56 -5.95,3.59 -12.37,5.4 -19.28,5.4 -6.99,0 -13.48,-1.8 -19.48,-5.4 -5.98,-3.59 -10.72,-8.45 -14.21,-14.58 -3.48,-6.13 -5.24,-12.75 -5.24,-19.86 0,-7.04 1.75,-13.6 5.24,-19.71 3.49,-6.1 8.23,-10.95 14.21,-14.53 5.99,-3.58 12.49,-5.37 19.48,-5.37zm65.87 4.08l0 56.58 23.88 0 0 18.79 -46.51 0 0 -75.37 22.63 0z"/>
 </g>
</svg>
