<?xml version="1.0" encoding="UTF-8"?>
<!DOCTYPE svg PUBLIC "-//W3C//DTD SVG 1.1//EN" "http://www.w3.org/Graphics/SVG/1.1/DTD/svg11.dtd">
<!-- Creator: CorelDRAW 2019 (64-Bit) -->
<svg xmlns="http://www.w3.org/2000/svg" xml:space="preserve" width="256px" height="256px" version="1.1" style="shape-rendering:geometricPrecision; text-rendering:geometricPrecision; image-rendering:optimizeQuality; fill-rule:evenodd; clip-rule:evenodd"
viewBox="0 0 256 256"
 xmlns:xlink="http://www.w3.org/1999/xlink"
 xmlns:xodm="http://www.corel.com/coreldraw/odm/2003">
 <defs>
  <style type="text/css">
   <![CDATA[
    .fil0 {fill:none}
    .fil1 {fill:white}
   ]]>
  </style>
 </defs>
 <g id="Layer_x0020_1">
  <metadata id="CorelCorpID_0Corel-Layer"/>
  <rect class="fil0" width="256" height="256"/>
  <path class="fil1" d="M146.07 4.73l-14.02 0.25 -67.11 88.34 3.51 13.58 20.29 15.42 9.31 -12.26 -9.56 -7.27 -1.76 -6.79 53.74 -70.74 7.01 -0.13 41.95 31.87 1.76 6.8 -53.74 70.73 -7.01 0.13 -9.91 -7.53 -9.32 12.26 20.64 15.68 14.02 -0.26 67.11 -88.34 -3.51 -13.58 -63.4 -48.16zm-36.14 246.54l14.03 -0.25 67.11 -88.34 -3.52 -13.58 -21.05 -16 -9.32 12.26 10.33 7.85 1.76 6.79 -53.74 70.74 -7.01 0.13 -9.91 -7.53 -32.04 -24.34 -1.75 -6.79 53.73 -70.74 7.01 -0.13 10.4 7.42 9.31 -12.26 -21.12 -15.57 -14.02 0.26 -67.11 88.34 3.51 13.58 63.4 48.16z"/>
 </g>
</svg>
