<?xml version="1.0" encoding="utf-8"?>
<!-- Generator: Adobe Illustrator 16.2.0, SVG Export Plug-In . SVG Version: 6.00 Build 0)  -->
<!DOCTYPE svg PUBLIC "-//W3C//DTD SVG 1.1//EN" "http://www.w3.org/Graphics/SVG/1.1/DTD/svg11.dtd">
<svg version="1.1" id="Слой_1" xmlns="http://www.w3.org/2000/svg" xmlns:xlink="http://www.w3.org/1999/xlink" x="0px" y="0px"
	 width="612px" height="792px" viewBox="0 0 612 792" enable-background="new 0 0 612 792" xml:space="preserve">
<path opacity="0" fill-rule="evenodd" clip-rule="evenodd" d="M318.753,408.753c-8.001,0-16.002,0-24.003,0
	c0-8.001,0-16.001,0-24.003c8.001,0,16.002,0,24.003,0C318.753,392.751,318.753,400.752,318.753,408.753z M296.25,386.25
	c0,2.387,0,4.38,0,5.673c3.727,3.727,7.104,7.104,10.351,10.352c3.163-3.162,6.501-6.5,9.732-9.732c0-2.12,0-4.197,0-6.293
	c-1.284,0-2.4-0.018-3.516,0.005c-1.003,0.021-2.004,0.084-3.007,0.13c2.062,0.266,3.757,0.983,5.168,2.469c0,0.468,0,0.96,0,1.374
	c-2.914,2.915-5.801,5.802-8.496,8.496c-2.851-2.852-5.745-5.746-8.817-8.818c0.362-3.074,3.271-2.539,5.388-3.225
	c-0.252-0.173-0.438-0.412-0.627-0.415C300.451,386.24,298.474,386.25,296.25,386.25z M302.853,406.393
	c0.014-0.214,0.027-0.427,0.041-0.64c-0.589,0-1.191,0.076-1.766-0.014c-2.324-0.366-3.731-1.806-4.127-4.147
	c-0.097-0.572-0.182-1.146-0.273-1.719c-0.104,0.021-0.208,0.041-0.312,0.063c0,2.178,0,4.354,0,6.457
	C298.674,406.393,300.763,406.393,302.853,406.393z M309.862,406.371c2.177,0,4.353,0,6.653,0c-0.067-2.288,0.1-4.449-0.269-6.585
	C315.25,405.04,313.911,405.423,309.862,406.371z"/>
<path fill-rule="evenodd" clip-rule="evenodd" fill="#909090" d="M296.25,386.25c2.224,0,4.2-0.01,6.176,0.017
	c0.189,0.003,0.375,0.241,0.627,0.415c-2.117,0.686-5.025,0.151-5.388,3.225c3.073,3.073,5.966,5.966,8.817,8.818
	c2.695-2.694,5.582-5.582,8.496-8.496c0-0.414,0-0.906,0-1.374c-1.411-1.486-3.106-2.204-5.168-2.469
	c1.003-0.045,2.004-0.109,3.007-0.13c1.115-0.022,2.231-0.005,3.516-0.005c0,2.096,0,4.173,0,6.293
	c-3.231,3.231-6.569,6.57-9.732,9.732c-3.248-3.248-6.625-6.625-10.351-10.352C296.25,390.631,296.25,388.638,296.25,386.25z"/>
<path fill-rule="evenodd" clip-rule="evenodd" fill="#909090" d="M302.853,406.393c-2.09,0-4.179,0-6.437,0c0-2.103,0-4.279,0-6.457
	c0.104-0.021,0.208-0.041,0.312-0.063c0.091,0.573,0.176,1.146,0.273,1.719c0.396,2.342,1.803,3.781,4.127,4.147
	c0.575,0.09,1.177,0.014,1.766,0.014C302.88,405.966,302.867,406.179,302.853,406.393z"/>
<path fill-rule="evenodd" clip-rule="evenodd" fill="#909090" d="M309.862,406.371c4.049-0.948,5.388-1.331,6.385-6.585
	c0.368,2.136,0.201,4.297,0.269,6.585C314.215,406.371,312.039,406.371,309.862,406.371z"/>
</svg>
