<?xml version="1.0" encoding="UTF-8"?>
<!DOCTYPE svg PUBLIC "-//W3C//DTD SVG 1.1//EN" "http://www.w3.org/Graphics/SVG/1.1/DTD/svg11.dtd">
<!-- Creator: CorelDRAW 2019 (64-Bit) -->
<svg xmlns="http://www.w3.org/2000/svg" xml:space="preserve" width="256px" height="256px" version="1.1" style="shape-rendering:geometricPrecision; text-rendering:geometricPrecision; image-rendering:optimizeQuality; fill-rule:evenodd; clip-rule:evenodd"
viewBox="0 0 256 256"
 xmlns:xlink="http://www.w3.org/1999/xlink"
 xmlns:xodm="http://www.corel.com/coreldraw/odm/2003">
 <defs>
  <style type="text/css">
   <![CDATA[
    .fil0 {fill:white}
   ]]>
  </style>
 </defs>
 <g id="Layer_x0020_1">
  <metadata id="CorelCorpID_0Corel-Layer"/>
  <path class="fil0" d="M18.09 151.02c-1.44,-7.23 -6.85,-14.5 -10.92,-21.02l19.33 0c11.98,19.04 10.24,16.82 6.95,34.97l-17.87 7.44c1.29,-7.49 4.04,-13.71 2.51,-21.39zm-10.94 -25.02c4.05,-6.42 8.97,-11.12 10.5,-18.79 1.46,-7.34 -0.85,-16.26 -2.1,-23.92l17.87 7.46c3.78,22.49 3.21,19.46 -6.93,35.25l-19.34 0zm10.26 -46.31c6.11,-4.25 12.32,-6.73 16.6,-13.13 4.17,-6.24 5.45,-15.43 7.23,-23l13.65 13.75c-5.01,21.72 -4.25,19.27 -19.65,29.82l-17.83 -7.44zm27.14 -38.69c7.18,-1.54 13.79,-1.5 20.12,-5.73 6.08,-4.06 10.68,-11.73 15.11,-17.95l7.41 17.85c-12.36,17.5 -11.49,15.9 -29.05,19.53l-13.59 -13.7zm39.03 -25.42c7.5,1.29 13.72,4.04 21.4,2.51 7.25,-1.44 14.54,-6.88 21.07,-10.95l-0.02 19.34c-19.11,12.02 -16.82,10.26 -35.03,6.97l-7.42 -17.87zm46.62 -8.31c6.32,4.03 11,8.87 18.59,10.38 7.14,1.42 15.78,-0.72 23.29,-2l-7.37 17.86c-21.56,3.73 -19.42,2.91 -34.53,-6.91l0.02 -19.33zm45.86 9.79c4.4,6.22 6.85,12.59 13.38,16.95 6.1,4.07 15,5.39 22.46,7.1l-13.66 13.68c-21.95,-4.97 -19.09,-4.78 -29.57,-19.84l7.39 -17.89zm38.82 26.95c1.67,7.39 1.51,14.17 5.85,20.66 4.02,6.02 11.59,10.6 17.78,14.99l-17.83 7.42c-18.02,-12.68 -15.68,-11.82 -19.47,-29.39l13.67 -13.68zm25.54 39.58c-1.29,7.49 -4.04,13.72 -2.51,21.39 1.44,7.24 6.85,14.5 10.93,21.02l-19.34 0c-11.97,-19.02 -10.24,-16.82 -6.95,-34.97l17.87 -7.44zm8.44 46.41c-4.06,6.42 -8.98,11.12 -10.51,18.79 -1.46,7.34 0.85,16.26 2.1,23.92l-17.87 -7.45c-3.78,-22.5 -3.2,-19.49 6.94,-35.26l19.34 0zm-10.27 46.31c-6.11,4.25 -12.32,6.73 -16.6,13.13 -4.17,6.25 -5.45,15.43 -7.23,23l-13.65 -13.75c5.02,-21.73 4.25,-19.27 19.65,-29.81l17.83 7.43zm-27.14 38.69c-7.18,1.54 -13.79,1.5 -20.12,5.73 -6.07,4.06 -10.68,11.73 -15.11,17.95l-7.41 -17.84c12.35,-17.51 11.5,-15.91 29.05,-19.53l13.59 13.69zm-39.03 25.42c-7.5,-1.28 -13.72,-4.04 -21.4,-2.51 -7.25,1.44 -14.54,6.88 -21.07,10.96l0.02 -19.35c19.11,-12.02 16.82,-10.25 35.03,-6.97l7.42 17.87zm-46.62 8.31c-6.32,-4.03 -11,-8.87 -18.59,-10.38 -7.13,-1.42 -15.78,0.72 -23.29,2l7.37 -17.86c21.56,-3.73 19.41,-2.91 34.53,6.91l-0.02 19.33zm-45.86 -9.78c-4.4,-6.22 -6.85,-12.6 -13.38,-16.96 -6.1,-4.07 -14.99,-5.39 -22.46,-7.1l13.66 -13.67c21.96,4.97 19.09,4.78 29.57,19.83l-7.39 17.9zm-38.82 -26.96c-1.67,-7.39 -1.51,-14.17 -5.85,-20.66 -4.02,-6.02 -11.59,-10.6 -17.78,-14.98l17.83 -7.42c18.03,12.68 15.68,11.81 19.47,29.38l-13.67 13.68zm204.8 -130.69c-3.28,19.23 -7.29,20.22 6.99,41.76l3.09 4.94c0,-7.65 0,7.47 0,0 -6.92,11.25 -14.42,16.89 -12.51,31.86l2.77 17.13c-15.83,12.44 -20.37,7.11 -26.44,35.84l-1.31 5.68c-6.32,1.77 -12.31,1.85 -18.38,3.91l0 0.01c-11.32,4.03 -16.17,14.61 -23.15,23.83 -12.46,-1.5 -19.12,-6.93 -32.7,-0.16l-16.28 9.9c7.81,0 -8.25,0 0,0 -18.68,-10.5 -13.86,-15.95 -44.09,-10.55l-4.89 0.81c-12.24,-15.59 -7.2,-20.15 -34.58,-26.17l-6.95 -1.58c-5.29,-18.98 1,-21.79 -22.67,-37.91l-5.08 -3.61c2.47,-20.51 9.44,-19.45 -7.1,-44.75l-2.64 -4.24 2 -3.25c7.08,-10.61 11.87,-14.16 10.51,-28.6l-0.5 -3.95 -2.27 -13.18c16.03,-12.61 20.25,-7.01 26.44,-35.85l1.31 -5.68c6.32,-1.77 12.31,-1.84 18.39,-3.91l0 0c9.74,-3.48 14.97,-12.09 20.74,-20.51l2.4 -3.32c12.74,1.53 18.93,6.92 32.7,0.15l16.28 -9.9c-7.58,0 8.26,0 0,0 17.24,10.59 17.03,15.45 40.23,11.26l8.75 -1.51c12.39,15.74 7.05,20.01 34.58,26.16l6.95 1.58c5.29,18.95 -1.03,21.77 22.67,37.92l5.08 3.61c-0.1,0.77 -0.21,1.53 -0.34,2.28zm-29.14 12.13l-14.73 6.13c-2.62,13.35 -3.41,12.77 5.29,26.44l15.93 0c-11.05,-17.51 -9.6,-15.77 -6.49,-32.57zm-20.96 8.72l-12.76 5.31c-1.94,9 -1.97,9.66 3.75,18.54l13.79 0c-7.71,-12.06 -7.19,-11.93 -4.78,-23.85zm-17.73 7.38l-10.23 4.26c-1.32,5.61 -0.91,6.9 2.53,12.21l11.06 0c-4.97,-7.69 -5.1,-8.6 -3.36,-16.47zm-15.2 6.32l-10.44 4.34 1.32 5.81 11.25 0c-2.73,-4.23 -3.21,-5.61 -2.13,-10.15zm-15.73 6.55l-8.67 3.6 9.55 0 -0.88 -3.6zm76.12 7.6l-15.94 0c-7.64,11.55 -8.07,10.45 -5.24,26.71l14.72 6.14c-3.52,-20.72 -2.98,-18.26 6.46,-32.85zm-22.68 0l-13.8 0c-5.32,7.73 -5.6,8.14 -3.67,18.8l12.74 5.32c-2.53,-14.4 -2.16,-13.83 4.73,-24.12zm-19.18 0l-11.07 0c-3.44,4.82 -3.59,6.02 -2.4,12.47l10.22 4.26c-1.69,-9.26 -1.46,-9.96 3.25,-16.73zm-16.45 0l-11.29 0 -1.1 6.06 10.41 4.34c-0.95,-5.16 -0.83,-6.49 1.98,-10.4zm-17.03 0l-9.89 0 9.23 3.85 0.66 -3.85zm67.07 36.48l-14.68 -6.13c-11.44,7.62 -11.34,6.86 -14.87,22.58l11.25 11.33c4.58,-20.04 4.03,-18.08 18.3,-27.78zm-20.9 -8.72l-12.72 -5.3c-7.8,5.01 -8.17,5.54 -10.42,15.87l9.73 9.81c3.1,-13.93 3.18,-13.64 13.41,-20.38zm-17.67 -7.37l-10.21 -4.26c-4.94,3.07 -5.53,4.27 -6.86,10.52l7.81 7.87c1.93,-8.97 2.4,-9.77 9.26,-14.13zm-15.16 -6.32l-10.4 -4.34 -3.25 5.1 7.95 8.01c1.07,-4.99 1.68,-6.3 5.7,-8.77zm-15.69 -6.54l-8.89 -3.71 6.88 6.93 2.01 -3.22zm47.88 59.36l-11.21 -11.29c-12.96,2.51 -13.09,2.1 -21.94,14.78l6.1 14.7c11.36,-16.15 10.8,-14.89 27.05,-18.19zm-15.95 -16.07l-9.7 -9.77c-8.78,1.56 -9.61,2.05 -15.37,10.38l5.28 12.73c7.83,-11.24 8.21,-11.15 19.79,-13.34zm-13.48 -13.57l-7.78 -7.84c-5.51,0.89 -6.65,1.85 -10.1,6.86l4.23 10.21c4.99,-7.23 5.94,-7.91 13.65,-9.23zm-11.56 -11.65l-7.93 -7.99 -4.76 3.32 4.31 10.39c2.76,-3.99 3.92,-5 8.38,-5.72zm-11.96 -12.04l-6.53 -6.58 3.6 8.67 2.93 -2.09zm22.08 73.23l-6.11 -14.73c-13.4,-2.61 -12.76,-3.46 -26.5,5.29l-0.02 15.93c17.59,-11.09 15.79,-9.59 32.63,-6.49zm-8.7 -20.96l-5.3 -12.75c-9.02,-1.93 -9.64,-2.05 -18.59,3.73l-0.01 13.79c12.14,-7.76 11.95,-7.17 23.9,-4.77zm-7.36 -17.72l-4.25 -10.23c-5.64,-1.31 -6.89,-0.99 -12.26,2.49l-0.01 11.07c7.75,-5.02 8.61,-5.07 16.52,-3.33zm-6.31 -15.2l-4.33 -10.44 -5.85 1.27 -0.01 11.26c4.27,-2.76 5.62,-3.18 10.19,-2.09zm-6.53 -15.73l-3.64 -8.76 -0.01 9.59 3.65 -0.83zm-7.87 75.98l0.01 -15.92c-11.06,-7.39 -10.55,-7.99 -26.1,-5.22l-6.07 14.71c19.86,-3.46 18.19,-2.7 32.16,6.43zm0.02 -22.66l0.01 -13.8c-7.4,-5.12 -8.13,-5.5 -18.3,-3.64l-5.25 12.74c13.75,-2.47 13.69,-1.96 23.54,4.7zm0.02 -19.17l0.01 -11.07c-4.58,-3.28 -5.97,-3.49 -12.06,-2.37l-4.21 10.21c8.8,-1.61 9.8,-1.3 16.26,3.23zm0.02 -16.44l0.01 -11.28 -5.75 -1.07 -4.29 10.4c4.86,-0.89 6.32,-0.73 10.03,1.95zm0.01 -17.01l0.01 -9.3 -3.58 8.68 3.57 0.62zm-36.19 67.4l6.08 -14.74c-7.58,-11.24 -6.52,-11.49 -22.36,-15l-11.26 11.26c20.22,4.55 17.9,4.52 27.54,18.48zm8.66 -20.98l5.26 -12.77c-4.99,-7.7 -5.33,-8.27 -15.69,-10.5l-9.75 9.74c14.02,3.08 13.46,3.46 20.18,13.53zm7.32 -17.74l4.22 -10.25c-3.04,-4.88 -4.15,-5.57 -10.37,-6.9l-7.81 7.82c8.98,1.93 9.62,2.55 13.96,9.33zm6.28 -15.23l4.31 -10.44 -4.99 -3.23 -7.95 7.96c4.95,1.06 6.18,1.74 8.63,5.71zm6.5 -15.75l3.58 -8.69 -6.71 6.72 3.13 1.97zm-59.27 48.32l11.27 -11.28c-2.63,-13.01 -1.67,-13.12 -14.7,-22.2l-14.7 6.11c16.62,11.66 14.67,11.08 18.13,27.37zm16.04 -16.05l9.76 -9.76c-1.62,-8.84 -1.77,-9.66 -10.3,-15.55l-12.72 5.29c11.54,8.01 10.98,8.4 13.26,20.02zm13.56 -13.56l7.83 -7.84c-0.92,-5.55 -1.67,-6.69 -6.78,-10.21l-10.2 4.24c7.4,5.1 7.77,6.05 9.15,13.81zm11.63 -11.64l7.98 -7.99 -3.23 -4.8 -10.38 4.32c4.05,2.81 4.9,3.97 5.63,8.47zm12.04 -12.05l6.45 -6.46 -8.47 3.53 2.02 2.93zm-73.25 21.97l14.73 -6.13c2.61,-13.35 3.42,-12.76 -5.29,-26.44l-15.93 0c11.05,17.51 9.6,15.77 6.49,32.57zm20.96 -8.72l12.76 -5.31c1.94,-8.99 1.97,-9.66 -3.75,-18.54l-13.79 0c7.71,12.07 7.19,11.93 4.78,23.85zm17.73 -7.37l10.23 -4.26c1.31,-5.62 0.91,-6.91 -2.53,-12.22l-11.05 0c4.96,7.69 5.09,8.6 3.35,16.48zm15.2 -6.33l10.44 -4.34 -1.31 -5.81 -11.26 0c2.73,4.23 3.21,5.61 2.13,10.15zm15.73 -6.54l8.67 -3.61 -9.55 0 0.88 3.61zm-76.12 -7.61l15.94 0c7.64,-11.55 8.07,-10.45 5.24,-26.71l-14.72 -6.14c3.52,20.72 2.98,18.27 -6.46,32.85zm22.68 0l13.8 0c5.32,-7.74 5.6,-8.13 3.67,-18.8l-12.74 -5.31c2.53,14.39 2.16,13.83 -4.73,24.11zm19.18 0l11.07 0c3.44,-4.82 3.59,-6.02 2.4,-12.47l-10.22 -4.26c1.69,9.26 1.45,9.97 -3.25,16.73zm16.45 0l11.29 0 1.1 -6.06 -10.41 -4.34c0.95,5.16 0.83,6.49 -1.98,10.4zm17.03 0l9.89 0 -9.23 -3.85 -0.66 3.85zm-67.07 -36.48l14.69 6.13c11.43,-7.62 11.33,-6.85 14.86,-22.58l-11.25 -11.33c-4.59,20.04 -4.03,18.07 -18.3,27.78zm20.9 8.72l12.72 5.31c7.79,-5.02 8.18,-5.54 10.42,-15.88l-9.73 -9.8c-3.1,13.92 -3.17,13.63 -13.41,20.37zm17.67 7.37l10.21 4.26c4.94,-3.07 5.53,-4.27 6.86,-10.52l-7.81 -7.86c-1.93,8.96 -2.39,9.76 -9.26,14.12zm15.16 6.32l10.4 4.34 3.25 -5.09 -7.95 -8.01c-1.07,4.98 -1.68,6.29 -5.7,8.76zm15.69 6.54l8.89 3.71 -6.88 -6.93 -2.01 3.22zm-47.88 -59.36l11.21 11.29c12.97,-2.51 13.08,-2.09 21.94,-14.78l-6.1 -14.7c-11.37,16.15 -10.79,14.89 -27.05,18.19zm15.95 16.07l9.7 9.77c8.78,-1.56 9.61,-2.05 15.37,-10.38l-5.28 -12.72c-7.83,11.23 -8.21,11.14 -19.79,13.33zm13.48 13.57l7.78 7.85c5.51,-0.9 6.65,-1.86 10.1,-6.87l-4.23 -10.2c-4.99,7.22 -5.94,7.9 -13.65,9.22zm11.56 11.65l7.94 7.99 4.75 -3.32 -4.31 -10.39c-2.76,3.99 -3.92,5.01 -8.38,5.72zm11.96 12.05l6.53 6.57 -3.6 -8.66 -2.93 2.09zm-22.08 -73.23l6.11 14.72c13.4,2.61 12.76,3.46 26.5,-5.28l0.02 -15.94c-17.59,11.09 -15.78,9.6 -32.63,6.5zm8.7 20.95l5.3 12.76c9.03,1.93 9.63,2.03 18.59,-3.73l0.01 -13.8c-12.14,7.76 -11.94,7.17 -23.9,4.77zm7.36 17.72l4.25 10.24c5.65,1.31 6.89,0.98 12.26,-2.5l0.01 -11.06c-7.75,5.01 -8.6,5.06 -16.52,3.32zm6.31 15.21l4.33 10.43 5.85 -1.27 0.01 -11.26c-4.27,2.76 -5.62,3.18 -10.19,2.1zm6.53 15.73l3.64 8.75 0.01 -9.58 -3.65 0.83zm7.87 -75.99l-0.01 15.92c11.05,7.39 10.56,7.99 26.1,5.22l6.07 -14.71c-19.86,3.47 -18.19,2.7 -32.16,-6.43zm-0.02 22.66l-0.01 13.8c7.39,5.13 8.14,5.5 18.3,3.64l5.25 -12.73c-13.75,2.47 -13.69,1.95 -23.54,-4.71zm-0.02 19.17l-0.01 11.07c4.59,3.29 5.96,3.49 12.06,2.37l4.21 -10.21c-8.8,1.61 -9.8,1.3 -16.26,-3.23zm-0.02 16.44l-0.01 11.28 5.75 1.07 4.29 -10.4c-4.86,0.89 -6.32,0.73 -10.03,-1.95zm-0.01 17.01l-0.01 9.3 3.58 -8.67 -3.57 -0.63zm36.19 -67.4l-6.08 14.74c7.58,11.24 6.52,11.49 22.36,15l11.26 -11.26c-20.22,-4.55 -17.89,-4.51 -27.54,-18.48zm-8.66 20.98l-5.26 12.77c4.99,7.7 5.33,8.27 15.69,10.51l9.75 -9.75c-14.02,-3.08 -13.46,-3.46 -20.18,-13.53zm-7.32 17.75l-4.22 10.24c3.04,4.88 4.14,5.57 10.37,6.9l7.81 -7.82c-8.97,-1.92 -9.62,-2.55 -13.96,-9.32zm-6.28 15.22l-4.31 10.44 4.99 3.24 7.95 -7.97c-4.95,-1.06 -6.17,-1.74 -8.63,-5.71zm-6.5 15.75l-3.58 8.69 6.71 -6.71 -3.13 -1.98zm59.27 -48.32l-11.27 11.28c2.62,13 1.67,13.12 14.7,22.2l14.7 -6.11c-16.62,-11.66 -14.67,-11.08 -18.13,-27.37zm-16.04 16.05l-9.76 9.76c1.62,8.83 1.77,9.66 10.3,15.55l12.72 -5.29c-11.55,-8.01 -10.98,-8.4 -13.26,-20.02zm-13.56 13.57l-7.83 7.83c0.92,5.55 1.68,6.69 6.78,10.21l10.2 -4.24c-7.39,-5.09 -7.77,-6.05 -9.15,-13.8zm-11.63 11.64l-7.98 7.98 3.23 4.8 10.38 -4.32c-4.05,-2.81 -4.9,-3.97 -5.63,-8.46zm-12.03 12.04l-6.46 6.46 8.47 -3.52 -2.01 -2.94z"/>
 </g>
</svg>
