<svg height="512pt" viewBox="0 -24 512 512" width="512pt" xmlns="http://www.w3.org/2000/svg"><path d="m463 232.308594c0 114.324218-92.675781 207-207 207s-207-92.675782-207-207c0-114.324219 92.675781-207 207-207s207 92.675781 207 207zm0 0" fill="#f0c48a"/><path d="m85.40625 221.992188h28.8125v119.621093h-28.8125zm0 0" fill="#d3e6f8"/><path d="m393.964844 221.992188h28.808594v119.621093h-28.808594zm0 0" fill="#d3e6f8"/><path d="m114.214844 347.476562h-28.808594c-3.234375 0-5.859375-2.625-5.859375-5.863281v-119.621093c0-3.238282 2.625-5.863282 5.859375-5.863282h28.808594c3.238281 0 5.863281 2.625 5.863281 5.863282v119.621093c0 3.238281-2.625 5.863281-5.863281 5.863281zm-22.945313-11.726562h17.082031v-107.894531h-17.082031zm0 0" fill="#4c4372"/><path d="m422.773438 347.476562h-28.808594c-3.238282 0-5.863282-2.625-5.863282-5.863281v-119.621093c0-3.238282 2.625-5.863282 5.863282-5.863282h28.808594c3.238281 0 5.863281 2.625 5.863281 5.863282v119.621093c0 3.238281-2.625 5.863281-5.863281 5.863281zm-22.945313-11.726562h17.082031v-107.894531h-17.082031zm0 0" fill="#4c4372"/><path d="m436.910156 420.910156h-61.019531v-85.253906c0-16.851562 13.660156-30.507812 30.507813-30.507812 16.851562 0 30.507812 13.660156 30.507812 30.507812v85.253906zm0 0" fill="#a4cff2"/><path d="m462.25 458.753906h-111.699219v-18.171875c0-10.863281 8.808594-19.671875 19.675781-19.671875h72.347657c10.867187 0 19.675781 8.808594 19.675781 19.671875zm0 0" fill="#7babf1"/><path d="m436.910156 426.769531h-61.019531c-3.238281 0-5.863281-2.625-5.863281-5.863281v-85.25c0-20.054688 16.316406-36.371094 36.371094-36.371094 20.054687 0 36.371093 16.316406 36.371093 36.371094v85.25c.003907 3.238281-2.621093 5.863281-5.859375 5.863281zm-55.15625-11.722656h49.292969v-79.390625c0-13.589844-11.054687-24.644531-24.648437-24.644531-13.589844 0-24.644532 11.054687-24.644532 24.644531zm0 0" fill="#4c4372"/><path d="m462.25 464.617188h-111.699219c-3.238281 0-5.863281-2.625-5.863281-5.863282v-18.171875c0-14.082031 11.457031-25.535156 25.535156-25.535156h72.351563c14.082031 0 25.539062 11.453125 25.539062 25.535156v18.171875c0 3.238282-2.625 5.863282-5.863281 5.863282zm-105.835938-11.726563h99.972657v-12.308594c0-7.613281-6.195313-13.8125-13.8125-13.8125h-72.351563c-7.613281 0-13.808594 6.199219-13.808594 13.8125zm0 0" fill="#4c4372"/><path d="m130.320312 420.910156h-61.019531v-85.253906c0-16.851562 13.660157-30.507812 30.511719-30.507812 16.847656 0 30.507812 13.660156 30.507812 30.507812zm0 0" fill="#a4cff2"/><path d="m155.660156 458.753906h-111.699218v-18.171875c0-10.863281 8.808593-19.671875 19.675781-19.671875h72.351562c10.863281 0 19.671875 8.808594 19.671875 19.671875zm0 0" fill="#7babf1"/><path d="m130.320312 426.769531h-61.015624c-3.238282 0-5.863282-2.625-5.863282-5.863281v-85.25c0-20.054688 16.316406-36.371094 36.371094-36.371094s36.371094 16.316406 36.371094 36.371094v85.25c0 3.238281-2.625 5.863281-5.863282 5.863281zm-55.15625-11.722656h49.292969v-79.390625c0-13.589844-11.054687-24.644531-24.644531-24.644531s-24.648438 11.054687-24.648438 24.644531zm0 0" fill="#4c4372"/><path d="m155.660156 464.617188h-111.699218c-3.238282 0-5.863282-2.625-5.863282-5.863282v-18.171875c0-14.082031 11.457032-25.535156 25.539063-25.535156h72.347656c14.082031 0 25.539063 11.453125 25.539063 25.535156v18.171875c0 3.238282-2.625 5.863282-5.863282 5.863282zm-105.835937-11.726563h99.976562v-12.308594c0-7.613281-6.199219-13.8125-13.8125-13.8125h-72.351562c-7.617188 0-13.8125 6.199219-13.8125 13.8125zm0 0" fill="#4c4372"/><path d="m440.9375 255.484375h-375.664062c-16.464844 0-29.8125-13.351563-29.8125-29.816406 0-16.464844 13.347656-29.816407 29.8125-29.816407h375.664062c16.464844 0 29.816406 13.351563 29.816406 29.816407 0 16.464843-13.351562 29.816406-29.816406 29.816406zm0 0" fill="#fd919e"/><path d="m479.609375 150.683594h-94.738281c-14.648438 0-26.527344-11.878906-26.527344-26.53125v-91.761719c0-14.652344 11.875-26.527344 26.527344-26.527344h94.738281c14.652344 0 26.527344 11.875 26.527344 26.527344v91.761719c0 14.652344-11.875 26.53125-26.527344 26.53125zm0 0" fill="#a4cff2"/><path d="m127.128906 150.683594h-94.738281c-14.652344 0-26.527344-11.878906-26.527344-26.53125v-91.761719c0-14.652344 11.875-26.527344 26.527344-26.527344h94.738281c14.648438 0 26.527344 11.875 26.527344 26.527344v91.761719c0 14.652344-11.875 26.53125-26.527344 26.53125zm0 0" fill="#a4cff2"/><path d="m127.128906 156.542969h-94.738281c-17.859375 0-32.390625-14.53125-32.390625-32.390625v-91.761719c0-17.859375 14.53125-32.390625 32.390625-32.390625h94.738281c17.859375 0 32.390625 14.53125 32.390625 32.390625v91.761719c0 17.859375-14.53125 32.390625-32.390625 32.390625zm-94.738281-144.816407c-11.394531 0-20.664063 9.269532-20.664063 20.664063v91.761719c0 11.394531 9.269532 20.664062 20.664063 20.664062h94.738281c11.394532 0 20.664063-9.269531 20.664063-20.664062v-91.761719c0-11.394531-9.269531-20.664063-20.664063-20.664063zm0 0" fill="#4c4372"/><path d="m68.664062 49.054688c0 10.777343-8.738281 19.511718-19.515624 19.511718-10.777344 0-19.511719-8.734375-19.511719-19.511718 0-10.777344 8.734375-19.515626 19.511719-19.515626 10.777343 0 19.515624 8.738282 19.515624 19.515626zm0 0" fill="#fd919e"/><path d="m129.882812 49.054688c0 10.777343-8.734374 19.511718-19.511718 19.511718s-19.515625-8.734375-19.515625-19.511718c0-10.777344 8.738281-19.515626 19.515625-19.515626s19.511718 8.738282 19.511718 19.515626zm0 0" fill="#fd919e"/><path d="m68.664062 107.492188c0 10.777343-8.738281 19.511718-19.515624 19.511718-10.777344 0-19.511719-8.734375-19.511719-19.511718 0-10.777344 8.734375-19.515626 19.511719-19.515626 10.777343 0 19.515624 8.738282 19.515624 19.515626zm0 0" fill="#fd919e"/><path d="m129.882812 107.492188c0 10.777343-8.734374 19.511718-19.511718 19.511718s-19.515625-8.734375-19.515625-19.511718c0-10.777344 8.738281-19.515626 19.515625-19.515626s19.511718 8.738282 19.511718 19.515626zm0 0" fill="#fd919e"/><g fill="#4c4372"><path d="m49.148438 74.429688c-13.992188 0-25.375-11.382813-25.375-25.375 0-13.996094 11.382812-25.378907 25.375-25.378907 13.992187 0 25.378906 11.382813 25.378906 25.378907 0 13.992187-11.386719 25.375-25.378906 25.375zm0-39.027344c-7.527344 0-13.652344 6.121094-13.652344 13.652344 0 7.523437 6.125 13.648437 13.652344 13.648437 7.527343 0 13.652343-6.125 13.652343-13.648437 0-7.527344-6.125-13.652344-13.652343-13.652344zm0 0"/><path d="m110.371094 74.429688c-13.992188 0-25.378906-11.382813-25.378906-25.375 0-13.996094 11.386718-25.378907 25.378906-25.378907 13.992187 0 25.375 11.382813 25.375 25.378907 0 13.992187-11.382813 25.375-25.375 25.375zm0-39.027344c-7.527344 0-13.652344 6.121094-13.652344 13.652344 0 7.523437 6.125 13.648437 13.652344 13.648437s13.648437-6.125 13.648437-13.648437c0-7.527344-6.121093-13.652344-13.648437-13.652344zm0 0"/><path d="m49.148438 132.867188c-13.992188 0-25.375-11.382813-25.375-25.378907 0-13.992187 11.382812-25.375 25.375-25.375 13.992187 0 25.378906 11.382813 25.378906 25.375 0 13.996094-11.386719 25.378907-25.378906 25.378907zm0-39.027344c-7.527344 0-13.652344 6.125-13.652344 13.652344 0 7.527343 6.125 13.652343 13.652344 13.652343 7.527343 0 13.652343-6.125 13.652343-13.652343 0-7.527344-6.125-13.652344-13.652343-13.652344zm0 0"/><path d="m110.371094 132.867188c-13.992188 0-25.378906-11.382813-25.378906-25.378907 0-13.992187 11.386718-25.375 25.378906-25.375 13.992187 0 25.375 11.382813 25.375 25.375 0 13.996094-11.382813 25.378907-25.375 25.378907zm0-39.027344c-7.527344 0-13.652344 6.125-13.652344 13.652344 0 7.527343 6.125 13.652343 13.652344 13.652343s13.648437-6.125 13.648437-13.652343c0-7.527344-6.121093-13.652344-13.648437-13.652344zm0 0"/></g><path d="m479.609375 5.863281h-28.457031c14.652344 0 26.53125 11.875 26.53125 26.527344v91.761719c0 14.652344-11.878906 26.527344-26.53125 26.527344h28.457031c14.652344 0 26.527344-11.875 26.527344-26.527344v-91.761719c0-14.652344-11.875-26.527344-26.527344-26.527344zm0 0" fill="#7babf1"/><path d="m479.609375 156.542969h-94.738281c-17.859375 0-32.390625-14.53125-32.390625-32.390625v-91.761719c0-17.859375 14.53125-32.390625 32.390625-32.390625h94.738281c17.859375 0 32.390625 14.53125 32.390625 32.390625v91.761719c0 17.859375-14.53125 32.390625-32.390625 32.390625zm-94.738281-144.816407c-11.394532 0-20.664063 9.269532-20.664063 20.664063v91.761719c0 11.394531 9.269531 20.664062 20.664063 20.664062h94.738281c11.394531 0 20.664063-9.269531 20.664063-20.664062v-91.761719c0-11.394531-9.269532-20.664063-20.664063-20.664063zm0 0" fill="#4c4372"/><path d="m421.144531 49.054688c0 10.777343-8.738281 19.511718-19.515625 19.511718s-19.511718-8.734375-19.511718-19.511718c0-10.777344 8.734374-19.515626 19.511718-19.515626s19.515625 8.738282 19.515625 19.515626zm0 0" fill="#fd919e"/><path d="m482.363281 49.054688c0 10.777343-8.734375 19.511718-19.511719 19.511718-10.777343 0-19.515624-8.734375-19.515624-19.511718 0-10.777344 8.738281-19.515626 19.515624-19.515626 10.777344 0 19.511719 8.738282 19.511719 19.515626zm0 0" fill="#fd919e"/><path d="m421.144531 107.492188c0 10.777343-8.738281 19.511718-19.515625 19.511718s-19.511718-8.734375-19.511718-19.511718c0-10.777344 8.734374-19.515626 19.511718-19.515626s19.515625 8.738282 19.515625 19.515626zm0 0" fill="#fd919e"/><path d="m482.363281 107.492188c0 10.777343-8.734375 19.511718-19.511719 19.511718-10.777343 0-19.515624-8.734375-19.515624-19.511718 0-10.777344 8.738281-19.515626 19.515624-19.515626 10.777344 0 19.511719 8.738282 19.511719 19.515626zm0 0" fill="#fd919e"/><path d="m401.628906 74.429688c-13.992187 0-25.375-11.382813-25.375-25.375 0-13.996094 11.382813-25.378907 25.375-25.378907 13.992188 0 25.378906 11.382813 25.378906 25.378907 0 13.992187-11.386718 25.375-25.378906 25.375zm0-39.027344c-7.527344 0-13.648437 6.121094-13.648437 13.652344 0 7.523437 6.121093 13.648437 13.648437 13.648437s13.652344-6.125 13.652344-13.648437c0-7.527344-6.125-13.652344-13.652344-13.652344zm0 0" fill="#4c4372"/><path d="m462.851562 74.429688c-13.992187 0-25.378906-11.382813-25.378906-25.375 0-13.996094 11.386719-25.378907 25.378906-25.378907 13.992188 0 25.375 11.382813 25.375 25.378907 0 13.992187-11.382812 25.375-25.375 25.375zm0-39.027344c-7.527343 0-13.652343 6.121094-13.652343 13.652344 0 7.523437 6.125 13.648437 13.652343 13.648437 7.527344 0 13.652344-6.125 13.652344-13.648437 0-7.527344-6.125-13.652344-13.652344-13.652344zm0 0" fill="#4c4372"/><path d="m401.628906 132.867188c-13.992187 0-25.375-11.382813-25.375-25.378907 0-13.992187 11.382813-25.375 25.375-25.375 13.992188 0 25.378906 11.382813 25.378906 25.375 0 13.996094-11.386718 25.378907-25.378906 25.378907zm0-39.027344c-7.527344 0-13.648437 6.125-13.648437 13.652344 0 7.527343 6.121093 13.652343 13.648437 13.652343s13.652344-6.125 13.652344-13.652343c0-7.527344-6.125-13.652344-13.652344-13.652344zm0 0" fill="#4c4372"/><path d="m462.851562 132.867188c-13.992187 0-25.378906-11.382813-25.378906-25.378907 0-13.992187 11.386719-25.375 25.378906-25.375 13.992188 0 25.375 11.382813 25.375 25.375 0 13.996094-11.382812 25.378907-25.375 25.378907zm0-39.027344c-7.527343 0-13.652343 6.125-13.652343 13.652344 0 7.527343 6.125 13.652343 13.652343 13.652343 7.527344 0 13.652344-6.125 13.652344-13.652343 0-7.527344-6.125-13.652344-13.652344-13.652344zm0 0" fill="#4c4372"/><path d="m440.9375 195.851562h-113.636719c16.464844 0 29.8125 13.347657 29.8125 29.816407 0 16.464843-13.347656 29.8125-29.8125 29.8125h113.636719c16.464844 0 29.816406-13.347657 29.816406-29.8125 0-16.464844-13.351562-29.816407-29.816406-29.816407zm0 0" fill="#e8677d"/><path d="m440.9375 261.34375h-375.664062c-19.671876 0-35.675782-16.003906-35.675782-35.675781s16.003906-35.675781 35.675782-35.675781h375.664062c19.671875 0 35.675781 16.003906 35.675781 35.675781s-16.003906 35.675781-35.675781 35.675781zm-375.664062-59.628906c-13.207032 0-23.949219 10.746094-23.949219 23.953125s10.742187 23.949219 23.949219 23.949219h375.664062c13.207031 0 23.953125-10.742188 23.953125-23.949219s-10.746094-23.953125-23.953125-23.953125zm0 0" fill="#4c4372"/><path d="m376.148438 187.199219c0 67.953125-55.085938 123.042969-123.042969 123.042969-67.953125 0-123.042969-55.089844-123.042969-123.042969s55.089844-123.042969 123.042969-123.042969c67.957031 0 123.042969 55.089844 123.042969 123.042969zm0 0" fill="#d3e6f8"/><path d="m253.105469 64.15625c-5.253907 0-10.425781.332031-15.507813.96875 60.636719 7.625 107.539063 59.371094 107.539063 122.074219s-46.902344 114.449219-107.539063 122.074219c5.082032.636718 10.253906.96875 15.507813.96875 67.957031 0 123.042969-55.089844 123.042969-123.042969 0-67.957031-55.085938-123.042969-123.042969-123.042969zm0 0" fill="#a4cff2"/><path d="m345.136719 181.84375c0-50.824219-41.203125-92.027344-92.03125-92.027344-50.824219 0-92.027344 41.203125-92.027344 92.027344zm0 0" fill="#fff"/><path d="m253.105469 316.105469c-71.078125 0-128.90625-57.828125-128.90625-128.90625 0-71.082031 57.828125-128.90625 128.90625-128.90625s128.90625 57.828125 128.90625 128.90625c0 71.082031-57.828125 128.90625-128.90625 128.90625zm0-246.085938c-64.613281 0-117.179688 52.566407-117.179688 117.179688s52.566407 117.179687 117.179688 117.179687 117.179687-52.566406 117.179687-117.179687-52.566406-117.179688-117.179687-117.179688zm0 0" fill="#4c4372"/><path d="m345.136719 187.707031h-184.058594c-3.238281 0-5.863281-2.625-5.863281-5.863281 0-53.976562 43.914062-97.890625 97.890625-97.890625 53.976562 0 97.890625 43.914063 97.890625 97.890625 0 3.238281-2.625 5.863281-5.859375 5.863281zm-178-11.726562h171.9375c-3.023438-44.789063-40.425781-80.300781-85.96875-80.300781-45.542969-.003907-82.945313 35.511718-85.96875 80.300781zm0 0" fill="#4c4372"/></svg>