<?xml version="1.0" encoding="UTF-8"?>
<!DOCTYPE svg PUBLIC "-//W3C//DTD SVG 1.1//EN" "http://www.w3.org/Graphics/SVG/1.1/DTD/svg11.dtd">
<!-- Creator: CorelDRAW 2019 (64-Bit) -->
<svg xmlns="http://www.w3.org/2000/svg" xml:space="preserve" width="2008px" height="2008px" version="1.1" style="shape-rendering:geometricPrecision; text-rendering:geometricPrecision; image-rendering:optimizeQuality; fill-rule:evenodd; clip-rule:evenodd"
viewBox="0 0 2008.24 2008.36"
 xmlns:xlink="http://www.w3.org/1999/xlink"
 xmlns:xodm="http://www.corel.com/coreldraw/odm/2003">
 <defs>
  <style type="text/css">
   <![CDATA[
    .fil0 {fill:red}
   ]]>
  </style>
 </defs>
 <g id="Layer_x0020_1">
  <metadata id="CorelCorpID_0Corel-Layer"/>
  <path class="fil0" d="M1826.42 664c-28.64,-69.16 -65.83,-134.09 -110.4,-193.45l-1235.83 1252.46c319.83,233.54 758.51,227.55 1072.22,-18.26 308.53,-241.75 421.1,-654.57 283.7,-1016.33 -3.11,-8.2 -6.34,-16.34 -9.69,-24.42zm-316.09 -391.48c-359.56,-249.16 -841.9,-197.33 -1142.21,109.84 -78.88,80.69 -142.62,176.6 -185.91,281.28 -115.57,279.44 -81.61,600.65 92.57,849.71l1235.55 -1240.83zm-976.27 -155.7c338.12,-179.53 747.93,-149.3 1055.07,71.19 263.04,188.84 419.11,491.05 419.11,816.14 0,239.71 -84.04,460.84 -225.98,634.64 -7.96,9.75 -16.11,19.36 -24.43,28.8l-99.26 98.08c-13.34,12.3 -46.19,37.64 -61.49,48.85 -410.17,300.59 -976.66,244.86 -1322.3,-120.51 -251.76,-266.12 -341.41,-652.54 -223.35,-1007.22 81.37,-244.44 255.03,-449.12 482.63,-569.97z"/>
 </g>
</svg>
