<?xml version="1.0" encoding="UTF-8" standalone="no"?>
<svg
   xmlns:dc="http://purl.org/dc/elements/1.1/"
   xmlns:cc="http://creativecommons.org/ns#"
   xmlns:rdf="http://www.w3.org/1999/02/22-rdf-syntax-ns#"
   xmlns:svg="http://www.w3.org/2000/svg"
   xmlns="http://www.w3.org/2000/svg"
   xmlns:sodipodi="http://sodipodi.sourceforge.net/DTD/sodipodi-0.dtd"
   xmlns:inkscape="http://www.inkscape.org/namespaces/inkscape"
   style="height: 512px; width: 512px;"
   viewBox="0 0 512 512"
   version="1.1"
   id="svg6"
   sodipodi:docname="sbi_stopwatch.svg"
   inkscape:version="0.92.4 (5da689c313, 2019-01-14)">
  <metadata
     id="metadata12">
    <rdf:RDF>
      <cc:Work
         rdf:about="">
        <dc:format>image/svg+xml</dc:format>
        <dc:type
           rdf:resource="http://purl.org/dc/dcmitype/StillImage" />
      </cc:Work>
    </rdf:RDF>
  </metadata>
  <defs
     id="defs10" />
  <sodipodi:namedview
     pagecolor="#ffffff"
     bordercolor="#666666"
     borderopacity="1"
     objecttolerance="10"
     gridtolerance="10"
     guidetolerance="10"
     inkscape:pageopacity="0"
     inkscape:pageshadow="2"
     inkscape:window-width="640"
     inkscape:window-height="480"
     id="namedview8"
     showgrid="false"
     inkscape:zoom="0.4609375"
     inkscape:cx="256"
     inkscape:cy="256"
     inkscape:window-x="0"
     inkscape:window-y="0"
     inkscape:window-maximized="0"
     inkscape:current-layer="svg6" />
  <g
     class=""
     style="touch-action:none;fill:#37abc8"
     transform="translate(0,0)"
     id="g4">
    <path
       d="M256 91.088c-111.453 0-202.122 88.575-202.122 197.456C53.878 397.426 144.548 486 256 486c111.453 0 202.122-88.574 202.122-197.456 0-108.881-90.67-197.455-202.122-197.455zm0 375.866c-100.942 0-183.076-80.039-183.076-178.41 0-98.37 82.134-178.41 183.076-178.41s183.076 80.04 183.076 178.41c0 98.371-82.134 178.41-183.076 178.41zm-.571-178.41l128.558 99.55A165.602 165.602 0 0 1 256 447.908c-90.467 0-164.03-71.493-164.03-159.365 0-87.681 73.266-159.055 163.447-159.352v159.352zM256 72.043a224.727 224.727 0 0 0-66.66 10.07V56.354A30.354 30.354 0 0 1 219.694 26h72.695a30.354 30.354 0 0 1 30.27 30.354v25.76A224.727 224.727 0 0 0 256 72.042zm128.939 40.71l20.117-19.748c8.797-8.642 21.272-10.463 27.878-4.083l20.403 19.748c6.594 6.38 4.761 18.558-3.988 27.2l-19.438 19.045a221.06 221.06 0 0 0-44.96-42.162zM82.435 154.51l-19.391-19.046c-8.797-8.642-10.713-20.724-4.202-26.985L78.875 89.1c6.476-6.26 18.856-4.344 27.652 4.298l20.046 19.688a221.06 221.06 0 0 0-44.138 41.425z"
       fill="#fff"
       fill-opacity="1"
       id="path2"
       style="fill:#37abc8" />
  </g>
</svg>
