<?xml version="1.0" encoding="UTF-8"?>
<!DOCTYPE svg PUBLIC "-//W3C//DTD SVG 1.1//EN" "http://www.w3.org/Graphics/SVG/1.1/DTD/svg11.dtd">
<!-- Creator: CorelDRAW 2019 (64-Bit) -->
<svg xmlns="http://www.w3.org/2000/svg" xml:space="preserve" width="256px" height="256px" version="1.1" style="shape-rendering:geometricPrecision; text-rendering:geometricPrecision; image-rendering:optimizeQuality; fill-rule:evenodd; clip-rule:evenodd"
viewBox="0 0 256 256"
 xmlns:xlink="http://www.w3.org/1999/xlink"
 xmlns:xodm="http://www.corel.com/coreldraw/odm/2003">
 <defs>
  <style type="text/css">
   <![CDATA[
    .fil0 {fill:white}
   ]]>
  </style>
 </defs>
 <g id="Layer_x0020_1">
  <metadata id="CorelCorpID_0Corel-Layer"/>
  <path class="fil0" d="M243.49 133.16c-0.54,12.8 -3.01,25.08 -7.13,36.58l-7.68 -2.56c2.82,-7.84 4.83,-16.08 5.91,-24.6l-10.96 -0.45c-6.29,46.25 -42.67,82.87 -88.68,89.31l-0.14 11.09c10.57,-1.33 20.7,-4.09 30.18,-8.09l2.89 7.59c-6.34,2.66 -12.94,4.8 -19.77,6.38l-0.46 7.59c57.28,-12.21 100.67,-62.17 103.13,-122.73l-7.29 -0.11zm-79.02 32.29l15.41 16.1c27.11,-30.24 27.39,-76.12 0.62,-106.69l-15.38 16.19c17.74,21.68 17.45,53.04 -0.65,74.4zm-130.43 32.79c4.93,0 4.93,7.48 0,7.48 -4.92,0 -4.92,-7.48 0,-7.48zm-25.08 -57.24c4.93,0 4.93,7.48 0,7.48 -4.92,0 -4.92,-7.48 0,-7.48zm2.63 12.54c4.93,0 4.93,7.48 0,7.48 -4.92,0 -4.92,-7.48 0,-7.48zm2.83 12.34c4.93,0 4.93,7.48 0,7.48 -4.92,0 -4.92,-7.48 0,-7.48zm5.67 11.73c4.93,0 4.92,7.48 0,7.48 -4.93,0 -4.93,-7.48 0,-7.48zm6.27 10.72c4.92,0 4.92,7.48 0,7.48 -4.93,0 -4.93,-7.48 0,-7.48zm90.39 23.38c-44.67,-1.94 -80.18,-39.02 -79.9,-84.46l-7.66 0c-0.3,49.52 38.47,90.01 87.21,92.14l0.35 -7.68zm-0.21 -164.67l0.61 2.78c19.38,-0.8 37.46,5.54 51.67,16.89l1.93 -2.04c-14.89,-11.97 -33.89,-18.59 -54.21,-17.63zm-50.06 16.7c53.77,-45.67 137.54,-7.6 137.54,64.12 0,20.29 -7.17,38.9 -19.11,53.42l5.58 5.27c49.11,-59.04 7.63,-150.32 -70.06,-150.32 -22.57,0 -43.24,8.23 -59.16,21.87l5.21 5.64zm-56.87 64.18c0.27,-59.75 48.09,-108.28 107.57,-109.68 -0.09,-6.1 -0.24,-12.15 -0.28,-18.21 32.59,-0.73 64.16,10.87 88.48,32.61l-13.03 12.77c6.46,5.66 12.26,12.05 17.26,19.05l10.24 -9.31c12.32,16.78 20.52,36.78 23.1,58.51 -4.6,0.14 -9.2,0.29 -13.8,0.43 0.28,2.5 0.93,13.71 0.92,14.98l-8.5 0.43c-0.58,56.24 -46.63,101.23 -102.84,100.67l0 8.49c-25.73,-0.25 -49.35,-9.32 -67.99,-24.33l5.23 -6.7c-23.1,-18.65 -37.87,-47.19 -37.87,-79.19 -2.13,-0.13 3.93,0.23 -8.49,-0.52zm95.3 -114.96l-0.12 -7.61c-18.97,2.3 -36.62,8.88 -51.95,18.74l4.58 6.05c14.07,-8.95 30.18,-14.96 47.49,-17.18zm93.79 19.8c-21.09,-17.4 -48.03,-27.97 -77.43,-28.3l-0.14 13.75c25.67,0.3 49.23,9.37 67.82,24.35l9.75 -9.8zm18.42 96.97c0.76,-54.16 -43.03,-98.58 -97.28,-98.58 -53.76,0 -97.29,43.46 -97.29,97.57 0.08,53.32 43.28,96.44 96.18,97 53.67,0.53 97.68,-42.28 98.39,-95.99zm-152.98 -51.24c2.7,-6.46 18.89,-16.4 28.37,-20.58l0.08 -5.35c-69.54,25.95 -69.11,125.58 0.72,150.85l-0.02 -3.91c-3.23,-2.45 -23.15,-10.22 -26.49,-18.45l0.08 -0.85 11.18 -11.59c-3.12,-5.28 -5.99,-6.6 -10.41,-16.03 -10.66,-22.79 -4.97,-42.75 6.85,-59.97 0.67,-1.09 1.2,-1.97 1.49,-2.64l-11.85 -11.48zm169.95 97.1c-11.56,27.73 -32.89,50.33 -59.66,63.47l-3.01 -7.57c24.55,-12.21 44.14,-32.96 54.93,-58.38l0.04 -0.09 7.7 2.57z"/>
 </g>
</svg>
