<?xml version="1.0" encoding="UTF-8"?>
<!DOCTYPE svg PUBLIC "-//W3C//DTD SVG 1.1//EN" "http://www.w3.org/Graphics/SVG/1.1/DTD/svg11.dtd">
<!-- Creator: CorelDRAW 2019 (64-Bit) -->
<svg xmlns="http://www.w3.org/2000/svg" xml:space="preserve" width="256px" height="256px" version="1.1" style="shape-rendering:geometricPrecision; text-rendering:geometricPrecision; image-rendering:optimizeQuality; fill-rule:evenodd; clip-rule:evenodd"
viewBox="0 0 256 256"
 xmlns:xlink="http://www.w3.org/1999/xlink"
 xmlns:xodm="http://www.corel.com/coreldraw/odm/2003">
 <defs>
  <style type="text/css">
   <![CDATA[
    .fil0 {fill:white}
   ]]>
  </style>
 </defs>
 <g id="Layer_x0020_1">
  <metadata id="CorelCorpID_0Corel-Layer"/>
  <path class="fil0" d="M80.39 110.28l0 -28.98 30.6 0 0 28.98 -30.6 0zm-19.57 96.94l0 -150.23c0.06,-0.39 0.11,-0.78 0.16,-1.16l187.37 0 0 171.36 -171.48 0 0 0.01 -23.71 0 0 0.02 -22.57 0c-12.3,0 -22.04,-10.5 -22.55,-22.53 0,-12.99 9.23,-23.52 22.55,-23.52 12.26,0 22.23,9.76 22.56,21.94l0 3.93c0,2.08 1.72,3.78 3.83,3.78l0 0c2.04,0 3.72,-1.6 3.82,-3.6l0.02 0zm-7.66 -8.4l0 -15.73 0 15.67 0 0.06zm4.17 35.36l198.67 0 0 -185.35 -195.01 0c-1.7,-15.28 -14.66,-27.16 -30.4,-27.16 -16.9,0 -30.59,13.69 -30.59,30.59 0,51.1 0.06,102.21 0.06,153.31 0.93,16.15 14.38,28.84 30.53,28.76l26.74 -0.15 0 0zm-4.17 -175.48l0 124.39c-5.59,-6.11 -13.63,-9.94 -22.57,-9.94 -8.93,0 -16.95,3.82 -22.55,9.91l0 -24.82 -0.02 0 0 -104.41 0.06 0c-0.04,-0.52 -0.06,-1.04 -0.06,-1.57 0,-12.47 10.1,-22.57 22.57,-22.57 12.47,0 22.57,10.1 22.57,22.57l0 6.44zm-24.73 -5.16l0 0c1.76,0 3.2,1.44 3.2,3.2l0 101.52c0,1.76 -1.44,3.19 -3.2,3.19l0 0c-1.76,0 -3.2,-1.43 -3.2,-3.19l0 -101.52c0,-1.76 1.44,-3.2 3.2,-3.2zm0.5 -11.65c1.77,0 3.2,1.43 3.2,3.2 0,1.76 -1.43,3.19 -3.2,3.19 -1.76,0 -3.19,-1.43 -3.19,-3.19 0,-1.77 1.43,-3.2 3.19,-3.2zm171.36 90.87l0 74.44 27.23 0 0 -74.44 -27.23 0zm7.26 68.1l0 -61.75 12.98 0 0 61.75 -12.98 0zm-43.23 -68.1l0 74.44 27.23 0 0 -74.44 -27.23 0zm7.26 6.35l12.98 0 0 61.75 -12.98 0 0 -61.75zm-24.22 -6.35l-73.47 0 0 74.44 16.13 0.01c4.02,0 4.43,-6.35 -0.28,-6.35l-9.58 0 0 -61.75 60.93 0 0 61.75 -28.11 0c-4.21,0 -4.17,6.35 -0.03,6.35l34.41 -0.01 0 -74.44zm-46.14 68.06c1.76,0 3.2,1.43 3.2,3.2 0,1.76 -1.44,3.2 -3.2,3.2 -1.77,0 -3.2,-1.44 -3.2,-3.2 0,-1.77 1.43,-3.2 3.2,-3.2zm23.13 -126.01l0 41.97 102.17 0 0 -41.97 -29.36 0 0 0.01c-4.22,0 -4.17,6.49 -0.03,6.49l22.9 -0.01 0 28.98 -88.68 0 0 -28.98 37.73 0.01c4.02,0 4.43,-6.49 -0.28,-6.49l0 -0.01 -44.45 0zm58.12 0.08c1.76,0 3.19,1.43 3.19,3.2 0,1.77 -1.43,3.2 -3.19,3.2 -1.77,0 -3.2,-1.43 -3.2,-3.2 0,-1.77 1.43,-3.2 3.2,-3.2zm-64.36 41.89l0 -41.97 -44.72 0 0 41.97 44.72 0z"/>
 </g>
</svg>
