<?xml version="1.0" encoding="UTF-8"?>
<!DOCTYPE svg PUBLIC "-//W3C//DTD SVG 1.1//EN" "http://www.w3.org/Graphics/SVG/1.1/DTD/svg11.dtd">
<!-- Creator: CorelDRAW 2019 (64-Bit) -->
<svg xmlns="http://www.w3.org/2000/svg" xml:space="preserve" width="256px" height="256px" version="1.1" style="shape-rendering:geometricPrecision; text-rendering:geometricPrecision; image-rendering:optimizeQuality; fill-rule:evenodd; clip-rule:evenodd"
viewBox="0 0 256 256"
 xmlns:xlink="http://www.w3.org/1999/xlink"
 xmlns:xodm="http://www.corel.com/coreldraw/odm/2003">
 <defs>
  <style type="text/css">
   <![CDATA[
    .fil0 {fill:white}
   ]]>
  </style>
 </defs>
 <g id="Layer_x0020_1">
  <metadata id="CorelCorpID_0Corel-Layer"/>
  <path class="fil0" d="M39.2 47.37l1.13 -1.96 -3.32 0 -0.24 0.41c-1.32,-0.81 -2.66,-1.59 -4.02,-2.34l0.01 169.03c1.34,-0.73 2.65,-1.5 3.95,-2.29l0.3 0.52 3.32 0 -1.19 -2.07c26.26,-17.22 43.62,-46.91 43.62,-80.67 0,-33.73 -17.33,-63.41 -43.56,-80.63zm65.5 35.98l10.99 0c2.22,0 4.04,0.23 5.47,0.69 1.43,0.46 2.51,1.29 3.26,2.51 0.75,1.2 1.12,2.9 1.12,5.08 0,2.08 -0.43,3.72 -1.28,4.94 -0.85,1.2 -2.01,2.05 -3.47,2.54 -1.46,0.48 -3.15,0.72 -5.09,0.72l-3.04 0 0 10.16 -7.96 0 0 -16.64 10.92 0c0.5,0 0.89,-0.16 1.17,-0.48 0.29,-0.32 0.43,-0.71 0.43,-1.16 0,-0.48 -0.14,-0.89 -0.41,-1.22 -0.27,-0.34 -0.64,-0.5 -1.12,-0.5l-10.99 0 0 -6.64zm34.28 26.64l-6.48 0 0 -20.56 -5.36 0 4.68 -6.08 7.16 0 0 26.64zm-8.7 12.41c3.09,0 5.6,2.51 5.6,5.6 0,3.09 -2.51,5.6 -5.6,5.6 -3.09,0 -5.6,-2.51 -5.6,-5.6 0,-3.09 2.51,-5.6 5.6,-5.6zm-87.06 93.34l2.88 5 -3.32 0 -2.89 -5 3.33 0zm5.77 10l2.89 5 -3.33 0 -2.88 -5 3.32 0zm65.45 5l2.89 -5 3.32 0 -2.88 5 -3.33 0zm5.78 -10l2.88 -5 3.33 0 -2.89 5 -3.32 0zm5.77 -10l1.71 -2.96 1.18 -2.04 3.32 0 -1.97 3.42 -0.92 1.58 -3.32 0zm5.77 -10l2.89 -5 3.32 0 -2.88 5 -3.33 0zm5.78 -10l2.89 -5 3.32 0 -2.89 5 -3.32 0zm5.77 -10l2.89 -5 3.32 0 -2.88 5 -3.33 0zm5.78 -10l2.88 -5 3.33 0 -2.89 5 -3.32 0zm5.77 -10l2.89 -5 3.32 0 -2.89 5 -3.32 0zm5.77 -10l2.89 -5 3.32 0 -2.88 5 -3.33 0zm63.78 -25.24l10 0 0 5 -10 0 0 -5zm-12.5 0l10 0 0 5 -10 0 0 -5zm-12.5 0l10 0 0 5 -10 0 0 -5zm-52.35 0l10 0 0 5 -10 0 0 -5zm-9.69 0l7.19 0 0 5 -7.19 0 0 -5zm-15.78 0l1.49 0 0 5 -1.49 0 0 -5zm-12.03 0l10 0 0 5 -10 0 0 -5zm-12.5 0l10 0 0 5 -10 0 0 -5zm-12.5 0l10 0 0 5 -10 0 0 -5zm93.57 -17.02c10.71,0.09 19.35,8.8 19.35,19.52 0,10.72 -8.64,19.43 -19.35,19.52 -0.1,0.97 -0.21,1.93 -0.34,2.89l-3.15 0c0.14,-1.03 0.26,-2.06 0.38,-3.1 -9.4,-1.42 -16.59,-9.52 -16.59,-19.31 0,-9.79 7.19,-17.89 16.59,-19.31 -0.13,-1.09 -0.26,-2.19 -0.4,-3.28l3.15 0c0.13,1.02 0.25,2.04 0.36,3.07zm23.34 -77.13c3.32,-0.72 6.41,-1.17 9.87,-1.3 10.77,-0.41 18.07,2.91 20.19,2.48l0.56 -4.46c-3.14,-1.69 -5.17,-1.5 -8.62,-2.53 2.48,-0.03 6.36,1.08 8.02,0.76 -0.37,-6.47 -6.83,-5.88 -8.36,-6.37l3.9 -0.02c-3.32,-4.6 -15.49,-7.09 -24.16,-3.7 -2.01,0.79 -5.84,2.59 -5.95,4.06l4.14 -0.09c-2.71,0.38 -4.66,0.47 -6.28,1.7 -1.14,0.88 -2.53,3.28 -2.26,5.29 2.93,0.04 5.14,-1.3 8.5,-0.9 -0.01,0 -9.33,0.73 -9.16,3.87 0.05,0.85 0.44,3.08 0.92,3.74l8.69 -2.53zm-7.17 27.88c1.98,-1.72 4.5,-4.1 6.55,-5.51 -0.25,-1.04 -0.8,-2.04 -1.28,-3l-1.24 -2.2c-0.31,-0.42 -0.28,-0.35 -0.48,-0.56 -4.98,3.29 -9.61,10.16 -14.52,10.52 -5.06,0.38 -7.48,-0.16 -9.13,3.57 -2.13,4.86 4.14,2.78 7.34,3.1 4.59,0.47 0.38,6.46 3.39,8 3.95,2.02 6.24,-2.41 6.07,-5.7 -0.33,-6.25 -0.86,-4.63 3.3,-8.22zm25.42 -9.07c2.39,-3.33 0.35,-3.09 3.61,-3.31 -0.55,1.54 -3.79,10.39 -4.79,10.98l-0.03 -2.01c-2.72,0.03 -1.1,1.97 -2.09,3.22 -0.46,-0.71 -0.14,-1.29 -0.3,-2.03 -0.27,-1.2 0,-0.16 -0.34,-0.68l-1.13 -0.14c-1.3,2.32 0.67,2.36 -0.94,3.33 -0.35,-0.56 -0.31,0.57 -0.29,-1.02 0.01,-0.55 0.89,-2.88 -1.7,-2.42 -1.74,0.31 -0.88,1.99 -0.87,2.64 0.03,1.4 0.2,0.41 -0.51,0.79 -0.9,-1.18 0.01,-1.67 -0.77,-3.3l-1.17 -0.04c-0.31,0.57 -0.27,0.61 -0.32,1.43 -0.14,2.22 0.26,0.84 -0.63,1.48 0,-2.11 0.77,-3.1 -1.65,-3.32l-0.22 2.07c-2.07,-1.83 -2.84,-8.25 -4.7,-10.96l2.14 0.24c0.63,1.6 0.06,1.73 1.53,2.73 -0.42,1.43 -1.42,2.19 0.72,2.79l0.35 -0.37c0.59,-1.11 0.14,-0.96 0.63,-1.72 0.05,1.63 -0.41,3.94 2.06,2.84l0.25 -1.73c0.24,-0.78 0.03,-0.24 0.44,-0.74l0.11 2.89 2.08 -0.09c1.25,-2.12 -0.63,-1.96 1.17,-2.75l0.35 2.47c2.55,1.21 2.59,-0.16 2.56,-2.49 0.66,0.9 0.24,-0.17 0.46,1.32 0.1,0.75 -0.27,0.97 0.52,1.32 1.38,0.61 1.72,-0.96 1.79,-1.85 0.39,0.38 0.52,0.57 0.52,0.65 0.09,0.02 0.22,0.06 0.37,0.11 0.43,0.14 0.64,0.16 0.97,-0.13 0.71,-0.62 0.12,-1.54 -0.18,-2.2zm-1.99 12.16c2.94,-1.71 4.62,-9.52 7.39,-14.31 1.04,-1.79 1.42,-1.63 3.06,-2.66 3.63,-2.28 0.23,-4.14 0.84,-7.64 0.23,-1.34 1.01,-2.44 1.37,-3.91 -3.48,-2.11 -13.71,-2.93 -18.7,-2.78 -7.27,0.23 -11.81,1.77 -17.63,3.51 0.49,1.85 1.37,2.41 1.2,4.63 -0.17,2.11 -1.19,2.33 -0.78,4.84l3.3 2.35c1.82,1.19 4.51,8.75 5.29,10.8 1.03,2.75 2.27,5.05 5.12,5.91 2.82,0.84 7.27,0.56 9.54,-0.74zm-5.29 -23.74c1.15,1.38 1.89,3.87 1.25,5.91l-2.35 0.01c-0.62,-0.02 -0.52,-0.08 -0.81,-0.2 -0.54,-1.22 -0.36,-5.09 1.91,-5.72zm-2.62 -1.51c-0.06,5.9 -9.3,7.27 -11.67,2.13 -1.43,-3.08 0.68,-5.49 4.25,-4.93l7.42 2.8zm16.22 2.24c-2.59,5.11 -12.34,3.29 -11.58,-2.49 2.76,-0.8 6.55,-2.5 7.76,-2.6 3.62,-0.28 5.25,2.28 3.82,5.09zm14.14 19.33c-5.3,-0.66 -8.66,-7.29 -13.97,-10.47 -0.97,0.77 -2.58,4.21 -2.96,5.56 1,1.02 2.21,1.92 3.36,2.91 0.89,0.77 2.05,2 3.08,2.94 4.19,3.86 3.69,1.37 3.36,8.14 -0.16,3.3 2.32,7.6 5.99,5.64 2.78,-1.47 -0.69,-7.16 3.14,-7.94 1.99,-0.41 4.18,0.66 6.26,0.2 1.94,-0.42 2.13,-2.06 1.24,-3.73 -2.08,-3.93 -4.4,-2.62 -9.5,-3.25zm5.98 -26.06c-4.88,-6.21 -10.58,-1.53 -14,-1.85 0.24,2.8 -1.23,1.82 -2.18,5.99l2.14 0.27c0.63,2.85 -0.23,4.11 2.15,5.76 1.65,1.14 3.49,2.22 4.66,3.65 2.94,3.61 0.48,9.66 4.08,11.71 0.75,-7.11 4.76,-7.6 2.04,-16.54 -1.14,-3.73 -3.54,-6.94 -7.32,-8.39 -1.26,-0.49 -3,-0.69 -3.98,-1.23 2.16,-1.01 6.98,1.69 9.03,3.61 2.17,2.03 3.48,5.31 3.88,8.71 0.55,4.79 -0.54,6.08 2.11,10.39 1.43,2.33 4.2,5.03 7.23,5.99 -1.72,-3.23 -2.17,-3.24 -2.91,-7.38 -1.32,-7.43 0.93,-10.8 -2.88,-15.64 -1.33,-1.69 -2.72,-3.37 -4.05,-5.05zm-11.81 -24.91c-2.18,3.57 4.38,5.85 -5.3,12.86 4.05,3.74 1.88,3.36 3.56,5.82 1.61,-1.66 3.49,-2.96 5.29,-4.56 2.15,-1.93 2.97,-2.91 7.05,-2.16 3.75,0.68 6.08,0.04 6.52,-3.13 0.56,-4.01 -2.35,-3.74 -5.97,-4.2 -3.47,-0.44 -2.18,-3.65 -3.93,-5.72 -1.86,-2.2 -6.12,-0.72 -7.22,1.09zm-42.69 18.9c0.48,-2.71 1.1,-4.1 3.07,-5.7 0.04,-0.04 0.13,-0.1 0.19,-0.16 -1.47,-1.67 -3.74,-2.59 -4.87,-5.02 -1.54,-3.3 0.87,-5.66 -0.31,-7.76 -0.92,-1.65 -5.19,-3.42 -7.16,-1.26 -1.84,2.02 -0.57,5.42 -4.09,5.84 -3.65,0.44 -6.34,0.11 -5.94,4 0.34,3.31 2.83,4 6.41,3.35 5.01,-0.91 5.93,0.97 9.89,4.33 0.05,0.05 0.12,0.11 0.17,0.15 0.96,0.8 1.81,1.42 2.64,2.23zm-171.31 186.85l-0.02 -172.45 20.52 -20.56 127.3 0 -0.38 -20.41 -135.79 0.38 -31.98 32.08 0 0.74 0.3 189.28 33.28 33.52 188.5 0 33.64 -33.98 0.28 -142.63 -20.43 -0.19 0 134.42 -22.03 22.09 -171.14 -0.09 -22.05 -22.2zm153.58 -58.01c-0.26,1.68 -0.55,3.35 -0.86,5l3.17 0c0.31,-1.66 0.59,-3.32 0.85,-5l-3.16 0zm-1.88 10c-0.36,1.68 -0.75,3.35 -1.17,5l3.22 0c0.41,-1.65 0.79,-3.32 1.15,-5l-3.2 0zm-2.5 10c-0.47,1.68 -0.96,3.35 -1.48,5.01l3.27 0c0.51,-1.66 1,-3.33 1.46,-5.01l-3.25 0zm-3.14 10c-0.58,1.68 -1.19,3.35 -1.82,5.01l3.34 0c0.62,-1.66 1.22,-3.33 1.79,-5.01l-3.31 0zm-3.83 10.01c-0.7,1.67 -1.43,3.34 -2.18,5l3.42 0c0.74,-1.66 1.46,-3.32 2.14,-5l-3.38 0zm-4.56 10c-0.83,1.68 -1.69,3.35 -2.58,5l3.54 0c0.86,-1.65 1.7,-3.32 2.52,-5l-3.48 0zm-5.37 10c-0.98,1.68 -1.98,3.35 -3.01,5l3.67 0c1.01,-1.65 1.99,-3.32 2.94,-5l-3.6 0zm-6.25 10c-1.14,1.69 -2.3,3.35 -3.5,5l3.84 0c1.17,-1.65 2.3,-3.32 3.41,-5l-3.75 0zm30.67 -125.01c-0.27,-1.67 -0.55,-3.34 -0.86,-5l-3.18 0c0.32,1.66 0.61,3.33 0.87,5l3.17 0zm-1.86 -10c-0.36,-1.67 -0.74,-3.34 -1.15,-5l-3.22 0c0.41,1.66 0.81,3.33 1.18,5l3.19 0zm-2.46 -10c-0.46,-1.68 -0.95,-3.34 -1.46,-5l-3.28 0c0.52,1.66 1.02,3.32 1.5,5l3.24 0zm-3.09 -10c-0.58,-1.68 -1.18,-3.34 -1.8,-5l-3.34 0c0.63,1.65 1.25,3.32 1.83,5l3.31 0zm-3.77 -10c-0.69,-1.68 -1.4,-3.35 -2.15,-5l-3.42 0c0.75,1.65 1.48,3.32 2.19,5l3.38 0zm-4.48 -10c-0.81,-1.68 -1.66,-3.35 -2.53,-5l-3.53 0c0.88,1.65 1.74,3.32 2.58,5l3.48 0zm-5.26 -10c-0.95,-1.69 -1.93,-3.35 -2.94,-5l-3.68 0c1.04,1.65 2.04,3.31 3.02,5l3.6 0zm-6.12 -10c-1.11,-1.69 -2.24,-3.36 -3.41,-5l-3.84 0c1.19,1.64 2.36,3.31 3.5,5l3.75 0zm-106.81 10l2.88 -5 -3.32 0 -2.89 5 3.33 0zm5.77 -10l2.89 -5 -3.33 0 -2.88 5 3.32 0zm65.45 -5l2.89 5 3.32 0 -2.88 -5 -3.33 0zm5.78 10l2.88 5 3.33 0 -2.89 -5 -3.32 0zm5.77 10l1.71 2.97 1.18 2.03 3.32 0 -1.97 -3.42 -0.92 -1.58 -3.32 0zm5.77 10l2.89 5 3.32 0 -2.88 -5 -3.33 0zm5.78 10l2.89 5 3.32 0 -2.89 -5 -3.32 0zm5.77 10l2.89 5 3.32 0 -2.88 -5 -3.33 0zm5.78 10l2.88 5 3.33 0 -2.89 -5 -3.32 0zm5.77 10l2.89 5 3.32 0 -2.89 -5 -3.32 0zm5.77 10l2.89 5 3.32 0 -2.88 -5 -3.33 0z"/>
 </g>
</svg>
