<?xml version="1.0" encoding="UTF-8"?>
<!DOCTYPE svg PUBLIC "-//W3C//DTD SVG 1.1//EN" "http://www.w3.org/Graphics/SVG/1.1/DTD/svg11.dtd">
<!-- Creator: CorelDRAW 2019 (64-Bit) -->
<svg xmlns="http://www.w3.org/2000/svg" xml:space="preserve" width="256px" height="256px" version="1.1" style="shape-rendering:geometricPrecision; text-rendering:geometricPrecision; image-rendering:optimizeQuality; fill-rule:evenodd; clip-rule:evenodd"
viewBox="0 0 256 256"
 xmlns:xlink="http://www.w3.org/1999/xlink"
 xmlns:xodm="http://www.corel.com/coreldraw/odm/2003">
 <defs>
  <style type="text/css">
   <![CDATA[
    .fil0 {fill:white}
   ]]>
  </style>
 </defs>
 <g id="Layer_x0020_1">
  <metadata id="CorelCorpID_0Corel-Layer"/>
  <path class="fil0" d="M200.88 47.15l2.15 0.24c0.62,1.6 0.05,1.73 1.52,2.72 -0.42,1.44 -1.42,2.2 0.72,2.8l0.35 -0.38c0.59,-1.1 0.15,-0.95 0.63,-1.71 0.05,1.63 -0.4,3.93 2.06,2.84l0.25 -1.73c0.24,-0.78 0.03,-0.25 0.44,-0.74l0.11 2.89 2.08 -0.09c1.25,-2.13 -0.63,-1.96 1.17,-2.76l0.35 2.48c2.55,1.21 2.59,-0.16 2.57,-2.49 0.66,0.9 0.23,-0.17 0.45,1.31 0.11,0.76 -0.26,0.98 0.52,1.33 1.38,0.61 1.72,-0.96 1.79,-1.85 1.42,1.36 -0.68,0.24 0.89,0.76 0.43,0.14 0.65,0.16 0.97,-0.13 0.71,-0.62 0.12,-1.54 -0.18,-2.21 2.39,-3.33 0.35,-3.08 3.61,-3.31 -0.55,1.54 -3.79,10.4 -4.78,10.99l-0.04 -2.01c-2.72,0.03 -1.1,1.97 -2.09,3.22 -0.46,-0.71 -0.14,-1.29 -0.3,-2.03 -0.27,-1.2 0.01,-0.17 -0.34,-0.68l-1.13 -0.15c-1.3,2.33 0.67,2.37 -0.93,3.33 -0.36,-0.55 -0.32,0.58 -0.3,-1.01 0.01,-0.55 0.9,-2.88 -1.69,-2.42 -1.75,0.31 -0.89,1.99 -0.88,2.63 0.04,1.41 0.2,0.41 -0.51,0.79 -0.9,-1.17 0.01,-1.66 -0.77,-3.3l-1.17 -0.04c-0.31,0.57 -0.27,0.62 -0.32,1.43 -0.14,2.23 0.26,0.85 -0.63,1.49 0,-2.11 0.77,-3.1 -1.65,-3.32l-0.22 2.07c-2.07,-1.83 -2.84,-8.25 -4.7,-10.96zm4.77 81.33l-45.28 34.19 -0.33 25.84 54.11 -40.55c13.93,-10.44 12.73,-30.82 -0.49,-40.45l-53.62 -39.08 0.33 25.84 45.28 34.21zm-185.3 85.22l-0.01 -172.45 20.51 -20.56 127.3 0 -0.38 -20.41 -135.79 0.38 -31.98 32.08 0.3 190.02 33.28 33.52 188.5 0 33.64 -33.98 0.28 -142.64 -20.43 -0.19 0 134.42 -22.03 22.1 -171.14 -0.09 -22.05 -22.2zm122.74 -72.22l16.65 -12.81 -16.53 -12.83 -0.12 25.64zm-69.48 7.71c-0.74,0 -1.35,0.7 -1.35,1.56 0,0.86 0.61,1.56 1.35,1.56 0.74,0 1.34,-0.7 1.34,-1.56 0,-0.86 -0.6,-1.56 -1.34,-1.56zm0 -45.17c-0.74,0 -1.35,0.7 -1.35,1.55 0,0.87 0.61,1.57 1.35,1.57 0.74,0 1.34,-0.7 1.34,-1.57 0,-0.85 -0.6,-1.55 -1.34,-1.55zm-0.01 4.21l0 0c-0.74,0 -1.34,0.7 -1.34,1.56l0 36.87c0,0.86 0.6,1.56 1.34,1.56l0 0c0.74,0 1.35,-0.7 1.35,-1.56l0 -36.87c0,-0.86 -0.61,-1.56 -1.35,-1.56zm7.63 6.67l0 0c-0.74,0 -1.34,0.7 -1.34,1.56l0 23.54c0,0.86 0.6,1.56 1.34,1.56l0 0c0.74,0 1.35,-0.7 1.35,-1.56l0 -23.54c0,-0.86 -0.61,-1.56 -1.35,-1.56zm0.01 -4.37c-0.75,0 -1.35,0.7 -1.35,1.56 0,0.86 0.6,1.55 1.35,1.55 0.74,0 1.34,-0.69 1.34,-1.55 0,-0.86 -0.6,-1.56 -1.34,-1.56zm0 32.28c-0.75,0 -1.35,0.7 -1.35,1.56 0,0.86 0.6,1.56 1.35,1.56 0.74,0 1.34,-0.7 1.34,-1.56 0,-0.86 -0.6,-1.56 -1.34,-1.56zm-16.39 -41.24l0 0c-0.74,0 -1.34,0.7 -1.34,1.56l0 50.2c0,0.85 0.6,1.56 1.34,1.56l0 0c0.74,0 1.35,-0.71 1.35,-1.56l0 -50.2c0,-0.86 -0.61,-1.56 -1.35,-1.56zm0 -4.06c-0.74,0 -1.34,0.7 -1.34,1.56 0,0.86 0.6,1.56 1.34,1.56 0.75,0 1.35,-0.7 1.35,-1.56 0,-0.86 -0.6,-1.56 -1.35,-1.56zm0 58.58c-0.74,0 -1.34,0.7 -1.34,1.56 0,0.86 0.6,1.56 1.34,1.56 0.75,0 1.35,-0.7 1.35,-1.56 0,-0.86 -0.6,-1.56 -1.35,-1.56zm-8.75 -59.85l0 0c0.74,0 1.35,0.7 1.35,1.56l0 60.86c0,0.86 -0.61,1.56 -1.35,1.56l0 0c-0.74,0 -1.34,-0.7 -1.34,-1.56l0 -60.86c0,-0.86 0.6,-1.56 1.34,-1.56zm0 -4.85c0.75,0 1.35,0.7 1.35,1.56 0,0.86 -0.6,1.56 -1.35,1.56 -0.74,0 -1.34,-0.7 -1.34,-1.56 0,-0.86 0.6,-1.56 1.34,-1.56zm0 70.16c0.75,0 1.35,0.7 1.35,1.57 0,0.86 -0.6,1.55 -1.35,1.55 -0.74,0 -1.34,-0.69 -1.34,-1.55 0,-0.87 0.6,-1.57 1.34,-1.57zm40.28 -12.36c0.74,0 1.34,0.7 1.34,1.56 0,0.86 -0.6,1.56 -1.34,1.56 -0.74,0 -1.35,-0.7 -1.35,-1.56 0,-0.86 0.61,-1.56 1.35,-1.56zm0 -45.17c0.74,0 1.34,0.7 1.34,1.55 0,0.87 -0.6,1.57 -1.34,1.57 -0.74,0 -1.35,-0.7 -1.35,-1.57 0,-0.85 0.61,-1.55 1.35,-1.55zm0 4.21l0 0c0.74,0 1.35,0.7 1.35,1.56l0 36.87c0,0.86 -0.61,1.56 -1.35,1.56l0 0c-0.74,0 -1.34,-0.7 -1.34,-1.56l0 -36.87c0,-0.86 0.6,-1.56 1.34,-1.56zm-7.63 6.67l0 0c0.74,0 1.35,0.7 1.35,1.56l0 23.54c0,0.86 -0.61,1.56 -1.35,1.56l0 0c-0.74,0 -1.34,-0.7 -1.34,-1.56l0 -23.54c0,-0.86 0.6,-1.56 1.34,-1.56zm0 -4.37c0.74,0 1.34,0.7 1.34,1.56 0,0.86 -0.6,1.55 -1.34,1.55 -0.74,0 -1.34,-0.69 -1.34,-1.55 0,-0.86 0.6,-1.56 1.34,-1.56zm0 32.28c0.74,0 1.34,0.7 1.34,1.56 0,0.86 -0.6,1.56 -1.34,1.56 -0.74,0 -1.34,-0.7 -1.34,-1.56 0,-0.86 0.6,-1.56 1.34,-1.56zm16.38 -41.24l0 0c0.75,0 1.35,0.7 1.35,1.56l0 50.2c0,0.85 -0.6,1.56 -1.35,1.56l0 0c-0.74,0 -1.34,-0.71 -1.34,-1.56l0 -50.2c0,-0.86 0.6,-1.56 1.34,-1.56zm0 -4.06c0.75,0 1.35,0.7 1.35,1.56 0,0.86 -0.6,1.56 -1.35,1.56 -0.74,0 -1.34,-0.7 -1.34,-1.56 0,-0.86 0.6,-1.56 1.34,-1.56zm0 58.58c0.75,0 1.35,0.7 1.35,1.56 0,0.86 -0.6,1.56 -1.35,1.56 -0.74,0 -1.34,-0.7 -1.34,-1.56 0,-0.86 0.6,-1.56 1.34,-1.56zm25.37 -6.9c-0.75,0 -1.35,0.7 -1.35,1.56 0,0.86 0.6,1.56 1.35,1.56 0.74,0 1.34,-0.7 1.34,-1.56 0,-0.86 -0.6,-1.56 -1.34,-1.56zm0 -45.17c-0.75,0 -1.35,0.7 -1.35,1.55 0,0.87 0.6,1.57 1.35,1.57 0.74,0 1.34,-0.7 1.34,-1.57 0,-0.85 -0.6,-1.55 -1.34,-1.55zm-0.01 4.21l0 0c-0.74,0 -1.35,0.7 -1.35,1.56l0 36.87c0,0.86 0.61,1.56 1.35,1.56l0 0c0.74,0 1.35,-0.7 1.35,-1.56l0 -36.87c0,-0.86 -0.61,-1.56 -1.35,-1.56zm7.63 6.67l0 0c-0.74,0 -1.34,0.7 -1.34,1.56l0 23.54c0,0.86 0.6,1.56 1.34,1.56l0 0c0.74,0 1.35,-0.7 1.35,-1.56l0 -23.54c0,-0.86 -0.61,-1.56 -1.35,-1.56zm0 -4.37c-0.74,0 -1.34,0.7 -1.34,1.56 0,0.86 0.6,1.55 1.34,1.55 0.75,0 1.35,-0.69 1.35,-1.55 0,-0.86 -0.6,-1.56 -1.35,-1.56zm0 32.28c-0.74,0 -1.34,0.7 -1.34,1.56 0,0.86 0.6,1.56 1.34,1.56 0.75,0 1.35,-0.7 1.35,-1.56 0,-0.86 -0.6,-1.56 -1.35,-1.56zm-16.38 -41.24l0 0c-0.74,0 -1.35,0.7 -1.35,1.56l0 50.2c0,0.85 0.61,1.56 1.35,1.56l0 0c0.74,0 1.35,-0.71 1.35,-1.56l0 -50.2c0,-0.86 -0.61,-1.56 -1.35,-1.56zm0 -4.06c-0.74,0 -1.35,0.7 -1.35,1.56 0,0.86 0.61,1.56 1.35,1.56 0.74,0 1.34,-0.7 1.34,-1.56 0,-0.86 -0.6,-1.56 -1.34,-1.56zm0 58.58c-0.74,0 -1.35,0.7 -1.35,1.56 0,0.86 0.61,1.56 1.35,1.56 0.74,0 1.34,-0.7 1.34,-1.56 0,-0.86 -0.6,-1.56 -1.34,-1.56zm-7.85 -59.85l-0.01 0c-0.73,0 -1.34,0.7 -1.34,1.56l0 60.86c0,0.86 0.61,1.56 1.34,1.56l0.01 0c0.74,0 1.34,-0.7 1.34,-1.56l0 -60.86c0,-0.86 -0.6,-1.56 -1.34,-1.56zm-0.01 -4.85c-0.74,0 -1.34,0.7 -1.34,1.56 0,0.86 0.6,1.56 1.34,1.56 0.74,0 1.35,-0.7 1.35,-1.56 0,-0.86 -0.61,-1.56 -1.35,-1.56zm0 70.16c-0.74,0 -1.34,0.7 -1.34,1.57 0,0.86 0.6,1.55 1.34,1.55 0.74,0 1.35,-0.69 1.35,-1.55 0,-0.87 -0.61,-1.57 -1.35,-1.57zm-74.5 -12.36c0.75,0 1.35,0.7 1.35,1.56 0,0.86 -0.6,1.56 -1.35,1.56 -0.74,0 -1.34,-0.7 -1.34,-1.56 0,-0.86 0.6,-1.56 1.34,-1.56zm0 -45.17c0.75,0 1.35,0.7 1.35,1.55 0,0.87 -0.6,1.57 -1.35,1.57 -0.74,0 -1.34,-0.7 -1.34,-1.57 0,-0.85 0.6,-1.55 1.34,-1.55zm0.01 4.21l0 0c0.74,0 1.34,0.7 1.34,1.56l0 36.87c0,0.86 -0.6,1.56 -1.34,1.56l0 0c-0.74,0 -1.35,-0.7 -1.35,-1.56l0 -36.87c0,-0.86 0.61,-1.56 1.35,-1.56zm-7.63 6.67l0 0c0.74,0 1.35,0.7 1.35,1.56l0 23.54c0,0.86 -0.61,1.56 -1.35,1.56l0 0c-0.74,0 -1.35,-0.7 -1.35,-1.56l0 -23.54c0,-0.86 0.61,-1.56 1.35,-1.56zm0 -4.37c0.74,0 1.34,0.7 1.34,1.56 0,0.86 -0.6,1.55 -1.34,1.55 -0.75,0 -1.35,-0.69 -1.35,-1.55 0,-0.86 0.6,-1.56 1.35,-1.56zm0 32.28c0.74,0 1.34,0.7 1.34,1.56 0,0.86 -0.6,1.56 -1.34,1.56 -0.75,0 -1.35,-0.7 -1.35,-1.56 0,-0.86 0.6,-1.56 1.35,-1.56zm16.38 -41.24l0 0c0.74,0 1.35,0.7 1.35,1.56l0 50.2c0,0.85 -0.61,1.56 -1.35,1.56l0 0c-0.74,0 -1.35,-0.71 -1.35,-1.56l0 -50.2c0,-0.86 0.61,-1.56 1.35,-1.56zm0 -4.06c0.74,0 1.34,0.7 1.34,1.56 0,0.86 -0.6,1.56 -1.34,1.56 -0.74,0 -1.34,-0.7 -1.34,-1.56 0,-0.86 0.6,-1.56 1.34,-1.56zm0 58.58c0.74,0 1.34,0.7 1.34,1.56 0,0.86 -0.6,1.56 -1.34,1.56 -0.74,0 -1.34,-0.7 -1.34,-1.56 0,-0.86 0.6,-1.56 1.34,-1.56zm109.37 26.49l0.21 -16.04c-0.19,-1.6 -0.97,-2.01 -2.51,-0.89l-12.84 9.52c-1.2,1.14 -1.22,2.14 0.28,2.94l12.64 6.53c1.38,0.45 2.18,-0.14 2.22,-2.06zm0.23 -109.09l0.21 16.05c-0.2,1.59 -0.98,2 -2.52,0.88l-12.84 -9.51c-1.19,-1.15 -1.21,-2.14 0.29,-2.95l12.63 -6.53c1.38,-0.44 2.19,0.14 2.23,2.06zm26.87 67.99l16.64 -12.81 -16.52 -12.83 -0.12 25.64zm-59.74 41.63l57.53 -40.93 0 -27.92 -57.53 -40.93c-11.09,-6.97 -18.72,9.04 -6.59,18.3l48.77 36.59c-16.25,12.2 -32.51,24.39 -48.77,36.59 -12.13,9.26 -4.5,25.27 6.59,18.3zm66.79 -156.26c0.48,-2.72 1.1,-4.1 3.07,-5.7 0.04,-0.04 0.13,-0.1 0.19,-0.16 -1.47,-1.67 -3.74,-2.59 -4.87,-5.02 -1.54,-3.3 0.87,-5.66 -0.31,-7.76 -0.92,-1.65 -5.19,-3.42 -7.16,-1.26 -1.84,2.02 -0.57,5.42 -4.08,5.84 -3.66,0.43 -6.35,0.1 -5.95,4 0.34,3.31 2.83,4 6.41,3.35 5.01,-0.91 5.93,0.97 9.89,4.33 0.05,0.04 0.12,0.1 0.17,0.15 0.96,0.8 1.81,1.42 2.64,2.23zm37.39 -6.04c4.05,3.74 1.88,3.35 3.56,5.82 1.61,-1.66 3.5,-2.96 5.29,-4.56 2.15,-1.93 2.97,-2.91 7.06,-2.17 3.74,0.69 6.07,0.05 6.51,-3.13 0.57,-4 -2.35,-3.74 -5.97,-4.19 -3.46,-0.44 -2.18,-3.65 -3.93,-5.72 -1.86,-2.2 -6.12,-0.72 -7.22,1.09 -2.18,3.57 4.38,5.85 -5.3,12.86zm-31.2 27.43c-4.98,3.28 -9.61,10.16 -14.52,10.52 -5.06,0.38 -7.48,-0.16 -9.12,3.57 -2.14,4.86 4.13,2.78 7.33,3.1 4.59,0.46 0.38,6.46 3.39,8 3.95,2.02 6.24,-2.41 6.07,-5.7 -0.33,-6.26 -0.85,-4.63 3.3,-8.23 1.98,-1.71 4.5,-4.09 6.55,-5.51 -0.25,-1.03 -0.79,-2.03 -1.28,-2.99l-1.24 -2.2c-0.31,-0.43 -0.28,-0.35 -0.48,-0.56zm28.76 8.68c0.89,0.76 2.05,2 3.08,2.94 4.19,3.86 3.69,1.37 3.36,8.14 -0.16,3.3 2.32,7.6 5.99,5.64 2.78,-1.47 -0.69,-7.16 3.14,-7.95 1.99,-0.41 4.18,0.67 6.27,0.21 1.93,-0.42 2.12,-2.06 1.23,-3.73 -2.08,-3.93 -4.4,-2.62 -9.5,-3.26 -5.3,-0.65 -8.66,-7.29 -13.97,-10.46 -0.97,0.77 -2.58,4.2 -2.96,5.55 1.01,1.02 2.21,1.93 3.36,2.92zm7.14 -24.69c2.16,-1.01 6.98,1.69 9.03,3.61 2.17,2.03 3.49,5.31 3.88,8.71 0.56,4.79 -0.54,6.08 2.11,10.39 1.43,2.33 4.2,5.03 7.23,5.98 -1.72,-3.22 -2.16,-3.23 -2.9,-7.37 -1.33,-7.43 0.92,-10.8 -2.89,-15.64 -1.33,-1.69 -2.72,-3.38 -4.05,-5.06 -4.88,-6.2 -10.58,-1.52 -14,-1.85 0.24,2.81 -1.23,1.83 -2.17,6l2.13 0.27c0.63,2.84 -0.23,4.11 2.15,5.76 1.66,1.14 3.49,2.21 4.66,3.64 2.94,3.62 0.48,9.67 4.08,11.72 0.75,-7.11 4.76,-7.61 2.04,-16.54 -1.14,-3.74 -3.54,-6.95 -7.32,-8.4 -1.25,-0.48 -2.99,-0.68 -3.98,-1.22zm-36.83 -11.68l4.14 -0.1c-2.71,0.39 -4.66,0.48 -6.27,1.71 -1.15,0.87 -2.54,3.28 -2.27,5.29 2.93,0.04 5.14,-1.3 8.5,-0.91 -0.01,0 -9.33,0.74 -9.16,3.88 0.05,0.85 0.44,3.08 0.92,3.74l8.69 -2.53c3.32,-0.73 6.41,-1.18 9.87,-1.31 10.77,-0.4 18.07,2.92 20.19,2.49l0.56 -4.46c-3.14,-1.69 -5.17,-1.51 -8.62,-2.53 2.48,-0.03 6.36,1.08 8.02,0.75 -0.37,-6.47 -6.83,-5.87 -8.36,-6.37l3.9 -0.01c-3.32,-4.6 -15.49,-7.1 -24.16,-3.7 -2.01,0.79 -5.84,2.59 -5.95,4.06zm13.61 24.03c-0.54,-1.23 -0.35,-5.1 1.92,-5.73 1.15,1.39 1.88,3.87 1.24,5.92l-2.35 0.01c-0.61,-0.02 -0.52,-0.08 -0.81,-0.2zm-0.71 -7.23c-0.06,5.89 -9.3,7.27 -11.67,2.13 -1.42,-3.08 0.68,-5.49 4.25,-4.93l7.42 2.8zm4.64 -0.25c2.76,-0.8 6.55,-2.51 7.76,-2.6 3.62,-0.28 5.25,2.28 3.82,5.08 -2.59,5.12 -12.34,3.3 -11.58,-2.48zm-16.68 9.53c1.82,1.19 4.51,8.74 5.29,10.8 1.04,2.74 2.27,5.05 5.12,5.91 2.82,0.84 7.27,0.56 9.54,-0.75 2.94,-1.7 4.62,-9.52 7.39,-14.3 1.04,-1.8 1.42,-1.63 3.06,-2.66 3.63,-2.28 0.24,-4.14 0.84,-7.64 0.23,-1.35 1.02,-2.44 1.37,-3.91 -3.48,-2.11 -13.71,-2.93 -18.7,-2.78 -7.27,0.23 -11.81,1.76 -17.63,3.51 0.49,1.85 1.38,2.41 1.2,4.63 -0.17,2.11 -1.19,2.33 -0.78,4.84l3.3 2.35z"/>
 </g>
</svg>
