<?xml version="1.0" encoding="UTF-8" standalone="no"?>
<!-- Created with Inkscape (http://www.inkscape.org/) -->

<svg
   xmlns:dc="http://purl.org/dc/elements/1.1/"
   xmlns:cc="http://creativecommons.org/ns#"
   xmlns:rdf="http://www.w3.org/1999/02/22-rdf-syntax-ns#"
   xmlns:svg="http://www.w3.org/2000/svg"
   xmlns="http://www.w3.org/2000/svg"
   xmlns:sodipodi="http://sodipodi.sourceforge.net/DTD/sodipodi-0.dtd"
   xmlns:inkscape="http://www.inkscape.org/namespaces/inkscape"
   version="1.1"
   id="svg98"
   width="512"
   height="512"
   viewBox="0 0 512 512"
   sodipodi:docname="AMS.svg"
   inkscape:version="0.92.4 (5da689c313, 2019-01-14)">
  <metadata
     id="metadata104">
    <rdf:RDF>
      <cc:Work
         rdf:about="">
        <dc:format>image/svg+xml</dc:format>
        <dc:type
           rdf:resource="http://purl.org/dc/dcmitype/StillImage" />
        <dc:title></dc:title>
      </cc:Work>
    </rdf:RDF>
  </metadata>
  <defs
     id="defs102" />
  <sodipodi:namedview
     pagecolor="#ffffff"
     bordercolor="#666666"
     borderopacity="1"
     objecttolerance="10"
     gridtolerance="10"
     guidetolerance="10"
     inkscape:pageopacity="0"
     inkscape:pageshadow="2"
     inkscape:window-width="1920"
     inkscape:window-height="1017"
     id="namedview100"
     showgrid="false"
     inkscape:pagecheckerboard="true"
     inkscape:snap-page="false"
     inkscape:zoom="0.5855728"
     inkscape:cx="256"
     inkscape:cy="256"
     inkscape:window-x="-8"
     inkscape:window-y="-8"
     inkscape:window-maximized="1"
     inkscape:current-layer="g4665" />
  <g
     id="g4665">
    <path
       style="display:inline;fill:#fefefe"
       d="m 362.5,511.0411 c -1.1,-0.49529 -3.71892,-0.93216 -5.81982,-0.97081 -4.62917,-0.0852 -11.97057,-4.79738 -14.20456,-9.11744 C 340.97369,498.04844 340.81479,498 332.79004,498 c -9.96454,0 -14.94076,-2.09221 -20.79516,-8.74316 l -4.02766,-4.57566 -6.76102,0.21929 c -4.88186,0.15833 -8.03275,-0.32584 -11.33654,-1.74201 -5.28558,-2.26567 -11.49255,-7.39494 -12.39697,-10.24452 -0.54384,-1.71347 -1.22557,-1.88295 -5.36523,-1.33381 -5.55605,0.73704 -15.72015,-1.55961 -20.80196,-4.70034 -1.84694,-1.14147 -4.19394,-3.70467 -5.21556,-5.696 l -1.85747,-3.6206 -7.86624,-0.10957 c -16.60472,-0.23128 -25.02838,-8.51455 -27.35993,-26.90397 -0.52104,-4.10948 -1.25627,-20.28289 -1.63386,-35.94091 l -0.68653,-28.46912 -4.21778,4.33978 c -5.61766,5.78014 -9.86907,7.86844 -16.18842,7.95177 -8.65696,0.11415 -9.62099,-2.03726 -12.81682,-28.60315 l -0.56204,-4.67198 -5.70042,2.56677 c -17.99315,8.10189 -47.16834,22.76219 -52.38493,26.323 -7.02446,4.79486 -49.681712,26.12506 -67.485565,33.74528 C 37.041792,412.19452 34.204408,413 28.981064,413 21.674805,413 17.478081,411.24279 12.215283,405.97999 5.8951568,399.65986 2.8397862,392.90309 1.6364302,382.58547 0.38239575,371.83333 0.27576478,351.53133 1.4180134,341 c 0.9945733,-9.16979 3.0498672,-12.59096 10.8785656,-18.10807 11.215303,-7.90375 65.616977,-32.58655 81.18527,-36.8349 4.390018,-1.19797 11.671381,-3.90709 16.180801,-6.02028 l 8.19896,-3.84216 -2.97869,-7.67107 c -4.49196,-11.56826 -9.64635,-32.88719 -10.91001,-45.12469 -3.38654,-32.79564 5.70102,-69.13949 20.55786,-82.217 4.64809,-4.09141 16.32337,-10.56341 24.62428,-13.65006 l 4.65505,-1.73096 0.56688,-12.15041 c 0.31178,-6.68272 0.82416,-21.470575 1.13862,-32.861899 1.07019,-38.767719 3.61062,-47.155365 18.88143,-62.340235 C 185.99487,6.9157073 193.84928,2.6204386 205.5,1.4392882 c 10.26335,-1.04049908 29.74466,-1.03998475 40,0.00106 11.59615,1.1771492 21.41655,6.3796481 32.09823,17.0045068 8.66574,8.619643 12.88783,15.811325 15.92636,27.128139 1.22686,4.569372 2.93083,23.41857 3.43736,38.024 0.0209,0.603345 1.00188,2.178345 2.17989,3.5 1.17802,1.321656 3.917,6.22801 6.08664,10.90301 10.69871,23.052926 12.21938,26.126796 13.41679,27.120556 0.9508,0.78909 4.38645,-0.16965 13.07225,-3.64791 9.61654,-3.85097 13.28164,-4.81248 19.93778,-5.23054 10.09566,-0.63408 14.69804,1.26619 22.14988,9.14542 l 5.02907,5.31749 2.83287,-5.50549 c 3.35765,-6.52535 6.55562,-9.15146 12.04005,-9.88708 3.58275,-0.48055 4.47222,-0.14518 7.95138,2.99803 l 3.91736,3.53911 5.96205,-2.84605 c 12.9861,-6.19905 26.81163,-7.72968 35.01004,-3.87597 4.87273,2.29045 18.8813,14.42441 21.63257,18.73772 0.92431,1.44909 2.94931,6.23471 4.5,10.63471 2.75045,7.80427 2.81805,8.50155 2.76293,28.5 -0.0721,26.14146 -2.05992,35.04995 -10.20974,45.75428 -3.2085,4.21418 -13.70206,11.04176 -23.40415,15.22776 l -7.67038,3.30942 5.29438,7.60427 c 2.91191,4.18235 6.04793,9.08667 6.96894,10.89849 1.96731,3.87015 6.14297,6.63515 13.07745,8.65949 2.75,0.8028 7.78543,3.16663 11.18984,5.25296 7.56666,4.63709 24.26451,18.39895 30.7939,25.3794 l 4.80817,5.14033 -0.64177,13.1368 c -0.35298,7.22524 -0.92031,23.7118 -1.26073,36.6368 -0.60405,22.93464 -0.55415,23.80073 2.07405,36 4.08398,18.95652 5.72086,39.24144 4.01533,49.7597 -0.94114,5.80414 -7.66053,13.10708 -17.37805,18.88725 -4.18041,2.48659 -30.29617,15.82458 -58.03503,29.63998 -34.40134,17.13367 -52.04466,25.39516 -55.5,25.98788 -8.31441,1.42625 -14.93932,1.72373 -17.06571,0.76629 z m 5.91329,-11.39284 c 1.88753,-2.52815 2.08187,-4.69336 2.68213,-29.88365 0.35593,-14.9369 0.34422,-39.78199 -0.026,-55.21131 -0.62712,-26.13464 -0.82684,-28.39441 -2.92013,-33.04084 -2.94445,-6.53575 -5.57446,-9.27284 -11.64852,-12.12282 l -4.99926,-2.34568 -2.24085,2.24086 c -3.97255,3.97254 -4.40023,10.5936 -4.0703,63.01378 L 345.5,481.5 l 2.62262,5.5 c 2.96277,6.21334 7.57211,11.25734 12.81859,14.0274 4.26052,2.24948 4.84322,2.14193 7.47208,-1.37914 z M 383.9281,444.3664 c 0.41849,-24.12652 0.48563,-46.3414 0.1492,-49.3664 -0.59662,-5.36441 -0.64692,-5.43837 -2.04026,-3 -2.80937,4.91644 -2.65873,100.02169 0.15397,97.20899 0.5812,-0.5812 1.28408,-18.72577 1.73709,-44.84259 z m -52.09167,39.64097 c 1.2169,-1.64594 2.65152,-5.30736 3.18806,-8.13649 1.27143,-6.70423 1.2334,-89.31336 -0.0452,-98.15588 -0.53959,-3.73175 -2.0668,-8.90675 -3.39379,-11.5 -2.86142,-5.59188 -10.18473,-13.05656 -11.44555,-11.66649 -1.7418,1.92036 -5.138,18.58585 -6.23312,30.58652 -1.49594,16.39309 -0.63837,80.54668 1.16048,86.81394 1.36731,4.76374 10.28774,15.05103 13.05122,15.05103 0.82794,0 2.50099,-1.34668 3.71789,-2.99263 z M 395,477 c 0,-1.11111 -0.66667,-2 -1.5,-2 -0.83333,0 -1.5,0.88889 -1.5,2 0,1.11111 0.66667,2 1.5,2 0.83333,0 1.5,-0.88889 1.5,-2 z m 13.9704,-3.44113 C 408.9541,472.97649 407.17595,466.875 405.01891,460 c -3.49264,-11.13188 -3.92489,-12.00748 -3.94931,-8 -0.0151,2.475 1.08613,7.65 2.44713,11.5 1.36101,3.85 2.49083,8.8 2.51072,11 0.0338,3.73448 0.13361,3.87115 1.50435,2.05887 0.80751,-1.06762 1.45488,-2.41762 1.4386,-3 z m -110.0937,-2.12925 c 2.77033,-3.5219 3.27372,-8.24405 2.92403,-27.42962 L 301.5,427.5 l -4.68357,19 c -6.29909,25.55374 -6.06279,24.11078 -4.2459,25.92767 2.23283,2.23283 3.98259,1.9559 6.30617,-0.99805 z m 128.14826,-6.94219 C 430.86123,462.55551 434,460.76466 434,460.50775 c 0,-0.25691 -1.86242,-1.41724 -4.1387,-2.57851 -4.95545,-2.52808 -12.95334,-10.30482 -15.45479,-15.02744 -0.99101,-1.87099 -2.05039,-5.33678 -2.35417,-7.70176 -0.51312,-3.99459 -0.68543,-4.20214 -2.42644,-2.92266 -1.8071,1.32804 -1.72055,1.87511 2.42044,15.29995 4.50722,14.6121 6.63882,20.42267 7.49204,20.42267 0.28135,0 3.65031,-1.58066 7.48658,-3.51257 z m 19.5982,-16.99757 c 8.86825,-3.338 16.712,-7.91103 19.73857,-11.5079 2.32838,-2.76712 5.27277,-9.68079 4.46631,-10.48725 -0.20421,-0.20421 -3.69827,2.28036 -7.76458,5.52127 -4.06631,3.2409 -12.04408,8.43879 -17.72838,11.55086 C 439.65079,445.67891 435,448.62449 435,449.11258 c 0,1.60529 4.84372,0.92906 11.62316,-1.62272 z M 234.85588,430.86558 c 3.41497,-21.0525 3.48555,-21.93383 1.7019,-21.24938 -2.60357,0.99908 -6.15103,-0.42806 -7.29275,-2.93387 -1.48801,-3.26583 -7.61175,-6.10232 -10.19253,-4.72113 -5.61857,3.00696 -2.62317,31.02707 4.19334,39.22609 1.22879,1.47802 3.57778,3.38092 5.21998,4.22867 3.73983,1.93061 3.67124,2.0873 6.37006,-14.55038 z m 253.72007,-1.5707 c 4.66384,-5.10401 5.49604,-5.59538 10.25,-6.05218 2.86452,-0.27524 5.17413,-0.99833 5.17422,-1.61993 1.7e-4,-1.15315 -7.08867,-30.91368 -7.47576,-31.3849 -0.11844,-0.14417 -2.22535,0.627 -4.68204,1.71371 -7.50643,3.32045 -7.95505,4.28226 -9.45888,20.27915 -0.73778,7.8481 -1.80089,16.42892 -2.36245,19.06849 -0.56157,2.63957 -1.02104,5.01791 -1.02104,5.28518 0,1.47076 5.16121,-2.45812 9.57595,-7.28952 z m -86.2441,-13.63764 C 408.60937,411.1777 415,404.79644 415,403.00767 c 0,-0.50751 -2.78181,0.39284 -6.18179,2.00078 -3.39999,1.60794 -8.12499,3.21493 -10.5,3.57108 -3.53735,0.53046 -4.31978,1.03389 -4.3269,2.78401 -0.005,1.17505 -0.27852,4.61146 -0.60832,7.63646 -0.568,5.20995 -0.51531,5.38633 0.99914,3.34459 0.87932,-1.18547 4.4567,-4.19478 7.94972,-6.68735 z M 27.527124,396.25205 c -0.794881,-3.16706 -1.278111,-3.8344 -2.14722,-2.96529 C 24.432701,394.23397 25.890528,399 27.12746,399 c 0.688847,0 0.835787,-1.0103 0.399664,-2.74795 z M 238.02069,336.76234 c -0.84513,-5.50167 -4.8285,-16.90348 -6.48371,-18.5587 -0.21783,-0.21782 -3.09102,1.04037 -6.38488,2.79598 -7.06717,3.76676 -7.75777,5.14574 -8.62536,17.22283 -0.77219,10.74915 0.0575,12.76876 5.25844,12.79951 3.92306,0.0232 11.47327,2.99697 14.45098,5.69176 1.54607,1.39918 1.76323,3.43313 1.70239,15.94502 C 237.9002,380.54643 237.51548,387 237.08362,387 c -0.43186,0 -0.28985,1.58491 0.31559,3.52202 1.50829,4.82584 2.07609,-44.29037 0.62148,-53.75968 z M 39.5,388 c -0.465783,-1.46755 -1.032007,-1.86799 -1.698674,-1.20133 -0.55,0.55 -0.685597,1.9906 -0.301326,3.20133 0.465783,1.46755 1.032007,1.86799 1.698674,1.20133 0.55,-0.55 0.685597,-1.9906 0.301326,-3.20133 z M 14.531949,386.10066 C 14.165251,384.9453 13.445549,384 12.932612,384 c -1.072236,0 -1.273779,4.3255 -0.249279,5.35 1.219705,1.2197 2.533885,-1.09025 1.848616,-3.24934 z M 51.791261,380.75 c 1.853381,-7.65717 2.187831,-12.1664 1.316518,-17.75 l -0.858267,-5.5 -0.124756,8.11514 c -0.101149,6.57952 -0.517965,8.61503 -2.202711,10.75683 -1.542168,1.96055 -1.908445,3.41346 -1.420544,5.63486 0.917412,4.17695 2.082256,3.73193 3.28976,-1.25683 z m 367.477879,-3.90866 c 1.79041,-2.39807 1.77081,-2.73818 -0.83008,-14.39871 -1.4651,-6.56845 -2.80304,-12.09492 -2.9732,-12.28105 -0.17015,-0.18614 -3.31026,1.09376 -6.97801,2.84422 C 400.31859,356.90463 399,359.40094 399,370.96788 V 379 h 2.8 c 3.25453,0 5.2,1.60746 5.2,4.29652 0,1.72771 0.46445,1.63413 5.2177,-1.05129 2.86974,-1.62129 6.04288,-4.05305 7.05144,-5.40389 z m -391.249124,2.64831 c 1.606382,-0.83069 3.457709,-2.51819 4.114059,-3.75 1.077023,-2.0213 1.033001,-2.10737 -0.45154,-0.88282 -0.971706,0.80153 -3.216954,1.20691 -5.486072,0.99052 -3.820189,-0.36432 -3.835478,-0.35125 -2.799577,2.39317 1.22271,3.23932 0.92833,3.15978 4.62313,1.24913 z M 381.27362,377.75 c 1.53926,-1.16196 1.53511,-1.5108 -0.0589,-4.95272 -1.55752,-3.36321 -1.88435,-3.57565 -3.56438,-2.31691 -1.62325,1.2162 -1.70555,1.82239 -0.67245,4.95273 1.28719,3.90023 1.81859,4.18684 4.2957,2.3169 z m 106.09519,-2.38883 C 490.96438,373.64656 493,370.48658 493,366.61961 c 0,-3.51721 -0.96315,-3.76829 -5.23829,-1.36553 -4.77253,2.68232 -6.10323,4.91448 -5.24883,8.80457 0.75852,3.45352 0.49401,3.38257 4.85593,1.30252 z M 85.5,361.02124 c 20.23157,-9.17279 28.82581,-13.49527 30.19559,-15.1869 3.42609,-4.23109 2.06462,-22.42722 -2.3264,-31.09248 C 110.38387,308.85062 99.074474,297 96.437605,297 c -1.629686,0 -1.635932,0.12337 -0.09259,1.82874 2.015754,2.22738 2.311277,12.39641 0.404988,13.93575 -0.6875,0.55516 -3.275,1.33143 -5.75,1.72505 -3.561628,0.56644 -5.353076,1.63265 -8.590962,5.11307 C 78.688878,323.60142 77.889825,324 73.593296,324 70.994668,324 67.998101,323.53417 66.934259,322.96482 65.271623,322.075 65,322.2667 65,324.32996 65,328.0335 61.355275,332 57.952171,332 c -2.770783,0 -2.851896,0.12495 -1.785201,2.75 0.614608,1.5125 1.921411,5.45 2.904007,8.75 1.695578,5.69452 1.790165,5.80907 1.857781,2.25 C 61.016658,341.12316 63.866283,338 68,338 c 2.619048,0 3,0.35556 3,2.8 0,1.54 -0.495524,3.29552 -1.101163,3.90116 C 68.648788,345.95121 69.627206,352 71.079455,352 71.585755,352 72,350.875 72,349.5 c 0,-2 0.5,-2.5 2.5,-2.5 2.416839,0 2.5,0.22192 2.5,6.67126 0,4.80435 -0.463137,7.18302 -1.654988,8.5 -1.838164,2.03115 -7.317837,2.44884 -10.410753,0.79356 C 63.153687,362.01188 63,362.29104 63,366.47824 v 4.5486 l 3.25,-1.37568 c 1.7875,-0.75662 10.45,-4.64008 19.25,-8.62992 z M 80.2,352.8 C 78.739468,351.33947 78.574822,337.2485 79.975249,333.5651 80.841489,331.28672 81.505806,331 85.918545,331 92.581341,331 94,333.01877 94,342.5 94,351.88725 92.556584,354 86.143296,354 83.534483,354 80.86,353.46 80.2,352.8 Z m 18.112561,-6.58566 c -3.373495,-2.14506 -4.50733,-15.00323 -1.786881,-20.264 1.326781,-2.56571 2.076394,-2.94834 5.75,-2.93503 2.32338,0.008 4.71945,0.34592 5.32462,0.75 2.33423,1.55861 3.3997,5.37238 3.3997,12.16895 0,5.73241 -0.37741,7.44315 -2,9.06574 -2.03626,2.03626 -8.27924,2.7456 -10.687439,1.21434 z M 43,365 c 0,-1.1 -0.401855,-2 -0.893011,-2 -1.12404,0 -2.172536,2.60112 -1.371421,3.40223 C 41.939331,367.606 43,366.94919 43,365 Z M 8.9681966,362.75 c -0.029911,-3.05666 -0.1181366,-3.1359 -1.4830543,-1.33204 -1.0767423,1.423 -1.1659668,2.2617 -0.3457519,3.25 1.6159521,1.9471 1.8640819,1.68687 1.8288062,-1.91796 z M 389.65629,358.54668 C 389.12987,357.17487 356.4036,333.07577 348.27514,328.07428 345.52716,326.38343 342.80621,325 342.22861,325 341.31542,325 337,332.61029 337,334.2207 c 0,0.32409 1.9125,1.71687 4.25,3.09506 5.06633,2.98712 9.2569,7.29756 10.23459,10.52735 0.64145,2.11902 1.05864,2.26444 4.36235,1.52064 6.88736,-1.55065 12.54129,-0.69698 19.88822,3.00288 6.95925,3.50462 11.39545,7.57877 12.93353,11.87797 0.72819,2.03545 0.83932,1.92917 1.13955,-1.0898 0.18297,-1.83985 0.11459,-3.91351 -0.15195,-4.60812 z M 368,361.09055 c -0.825,-0.46674 -2.625,-1.1236 -4,-1.45967 -2.08385,-0.50933 -2.00062,-0.37052 0.5,0.83393 3.20473,1.54359 6.00831,2.04483 3.5,0.62574 z m -25.16052,-3.6376 c 1.37651,-3.0211 1.42049,-3.45295 0.35165,-3.45295 -2.00464,0 -4.26165,2.65265 -3.63857,4.27638 0.92264,2.40435 1.93139,2.15164 3.28692,-0.82343 z m -91.38565,-15.37613 c 1.39323,-7.93275 2.38331,-14.57301 2.20019,-14.75613 -0.85417,-0.85417 -3.92411,3.93141 -4.71898,7.3562 -0.83822,3.61154 -1.20828,24.95352 -0.39575,22.82311 0.20977,-0.55 1.52131,-7.49043 2.91454,-15.42318 z m -201.010261,7.67764 c -2.427453,-7.41513 -6.208941,-14.77144 -9.301032,-18.09374 -3.259641,-3.50232 -7.824252,-5.97546 -9.321201,-5.0503 -0.646417,0.39951 0.3055,1.1567 2.251428,1.79087 4.916813,1.60237 7.889671,7.34542 7.910786,15.28229 0.01593,5.98986 0.102176,6.19349 2.752938,6.5 1.760431,0.20356 3.454671,1.43102 4.75,3.44133 2.679215,4.15806 3.069133,2.58122 0.957081,-3.87045 z M 485.03324,345.48315 490,342.96631 v -5.15442 C 490,332.66643 491.87545,329 494.50746,329 c 0.78644,0 1.4257,-2.96897 1.86233,-8.64935 0.36566,-4.75715 0.5015,-8.81269 0.30186,-9.01233 -0.74647,-0.74648 -21.67164,9.86392 -21.67148,10.98882 10e-5,0.64507 0.6751,4.69995 1.5,9.01083 0.82491,4.31088 1.49983,9.52338 1.49983,11.58333 0,3.32663 0.58644,5.0787 1.69991,5.0787 0.20162,0 2.60162,-1.13258 5.33333,-2.51685 z M 31.565533,342.31722 c -0.663885,-1.72338 -0.750991,-1.72645 -1.686905,-0.0593 -1.20512,2.14668 -0.139999,4.40345 1.367022,2.89643 0.560953,-0.56095 0.704901,-1.83766 0.319883,-2.83713 z M 173.5,325.43499 c 62.97602,-28.86459 108.87747,-50.40406 110,-51.61801 1.99516,-2.15766 -5.57992,0.14873 -18.29056,5.56895 -19.04474,8.12128 -90.9229,41.34752 -113.71178,52.56416 -11.00129,5.41481 -20.87606,10.81056 -21.94394,11.99055 -1.92223,2.12404 -1.92221,2.13845 0.002,1.44508 C 130.62523,345.00053 150.4,336.0227 173.5,325.43499 Z m 230.50018,17.06492 c 6.52123,-3.28404 6.89305,-3.65055 6.02354,-5.93753 -4.02826,-10.59511 -9.9636,-17.57952 -18.60033,-21.8879 l -5.0766,-2.53244 -8.4234,3.49272 c -4.63286,1.92099 -10.11089,4.18789 -12.17339,5.03756 -2.0625,0.84966 -3.74265,1.83348 -3.73366,2.18626 0.009,0.35278 3.4475,3.11642 7.64114,6.14142 4.19364,3.025 11.21264,8.0875 15.59778,11.25 4.38514,3.1625 8.83286,5.75 9.88383,5.75 1.05096,0 5.03845,-1.57504 8.86109,-3.50009 z m -386.831402,-2.1628 c -0.825009,-1.47421 -1.008172,-1.41849 -1.614237,0.49105 -0.899862,2.83521 0.383142,5.03458 1.633532,2.80026 0.551453,-0.9854 0.543834,-2.28506 -0.01929,-3.29131 z M 204.51356,339.742 c 2.22954,-1.91777 2.57697,-2.93006 2.30576,-6.71817 l -0.31932,-4.46016 -3.20634,2.96816 C 199.59821,334.95277 197.60504,342 200.33295,342 c 0.85554,0 2.73681,-1.0161 4.18061,-2.258 z M 56,321 c 0,-0.55 -0.45,-1 -1,-1 -0.55,0 -1,0.45 -1,1 0,0.55 0.45,1 1,1 0.55,0 1,-0.45 1,-1 z m 151.40165,-35.44565 c 74.92256,-34.60886 82.31177,-38.17426 81.27143,-39.2146 -0.6814,-0.6814 -16.71197,6.1355 -65.68518,27.93219 -74.88903,33.33115 -96.9879,43.8121 -96.9879,45.999 0,1.52008 0.49235,1.82121 2.25,1.37618 1.2375,-0.31333 36.85574,-16.55508 79.15165,-36.09277 z m 39.28116,27.79513 c -0.3688,-0.3688 -1.55883,0.13333 -2.6445,1.11585 -1.61803,1.46429 -1.77153,2.16463 -0.85133,3.88404 1.08295,2.02352 1.1764,1.98409 2.6445,-1.11585 0.83704,-1.76742 1.22014,-3.51524 0.85133,-3.88404 z M 62,312.43261 c 0,-1.16273 -0.580893,-1.38967 -2.25,-0.87903 -4.759738,1.45616 -5.336354,2.3849 -1.5,2.41601 2.751257,0.0223 3.75,-0.38703 3.75,-1.53698 z m 14,-0.90123 c 0,-0.92914 -0.581796,-1.24535 -1.583846,-0.86083 -1.275223,0.48935 -1.323937,0.77253 -0.25,1.4533 C 75.942275,313.24973 76,313.23108 76,311.53138 Z m 184.71056,-3.15416 C 260.10211,307.76878 256,309.26484 256,310.09519 c 0,0.47406 1.1269,0.34848 2.50423,-0.27907 1.37732,-0.62755 2.37017,-1.27505 2.20633,-1.4389 z m 220.30942,-2.88726 C 485.95899,303.00944 490,300.56335 490,300.0542 c 0,-2.67399 -26.26775,-21.54917 -28.69357,-20.61829 -2.07625,0.79673 -1.17983,6.52878 1.64041,10.48943 1.13822,1.59849 2.36061,4.40672 2.71641,6.2405 0.3558,1.83379 1.44601,4.36779 2.42269,5.63112 0.97668,1.26333 2.06765,3.62583 2.42437,5.25 0.35673,1.62417 0.84684,2.95304 1.08913,2.95304 0.24229,0 4.48153,-2.02952 9.42054,-4.51004 z M 77.683114,304.8125 c -0.319226,-0.79773 -0.556183,-0.56078 -0.604167,0.60417 -0.04342,1.05416 0.192928,1.64479 0.52522,1.3125 0.332291,-0.33229 0.367818,-1.1948 0.07895,-1.91667 z M 165.5,278.23741 c 44.29287,-20.32539 105.90127,-48.88175 109.7827,-50.88582 5.08868,-2.6274 1.76247,-3.27907 -4.55811,-0.89303 -14.82162,5.59523 -150.78111,68.19796 -153.0597,70.47655 -0.48984,0.48984 -0.606,1.35116 -0.25812,1.91404 0.73307,1.18613 -1.40964,2.10445 48.09323,-20.61174 z m 198.79492,-3.43061 c 2.45028,-3.28187 1.71944,-10.00178 -1.62957,-14.98354 -2.70129,-4.01826 -5.60932,-4.64764 -8.20775,-1.7764 -1.60188,1.77005 -1.99604,4.00424 -2.30646,13.07344 l -0.3744,10.93856 5.27934,-2.31376 c 2.90364,-1.27257 6.16112,-3.49481 7.23884,-4.9383 z M 169.41245,252.52607 c 28.11857,-12.60022 30.06385,-14.23162 29.76813,-24.96489 -0.44896,-16.29444 -6.26074,-39.12041 -13.88567,-54.53649 -4.76207,-9.62794 -6.89279,-12.69964 -13.23535,-19.08048 -12.16582,-12.23921 -21.10925,-15.10509 -31.39017,-10.05881 -10.50831,5.1579 -18.72386,16.69266 -20.78063,29.17635 -1.99504,12.10898 1.41307,37.37695 7.19754,53.36311 C 131.6878,239.14174 145.7095,261 149.26566,261 c 0.68002,0 9.74608,-3.81327 20.14679,-8.47393 z m 144.02711,0.94444 c 1.61877,-8.62879 -5.60265,-32.92347 -11.91097,-40.07152 l -3.44095,-3.89899 4.47845,9 C 308.0181,229.45647 311,240.84783 311,250.71898 c 0,7.61235 1.26087,9.03446 2.43956,2.75153 z M 325,243.15108 c 0,-12.64068 -5.31746,-28.36889 -11.55784,-34.1863 l -2.64399,-2.46478 2.12683,3.6265 c 5.54158,9.44909 10.075,25.82356 10.075,36.39036 0,3.47947 0.3788,5.36707 1,4.98314 0.55,-0.33992 1,-4.09693 1,-8.34892 z m 15.08975,-5.88384 c -0.8704,-1.49495 -1.03151,-1.30501 -1.04569,1.23276 -0.009,1.65 0.3146,4.125 0.71959,5.5 0.66422,2.25512 0.76665,2.13437 1.04569,-1.23276 0.17013,-2.05302 -0.15368,-4.52802 -0.71959,-5.5 z m 92.49848,-28.29326 c 2.25475,-8.2983 2.32168,-24.1268 0.13965,-33.02412 -1.97476,-8.05217 -5.23946,-16.91676 -7.18514,-19.50968 -0.80072,-1.0671 -0.35597,0.81427 0.98834,4.18082 6.42322,16.08559 7.33047,27.48581 3.68067,46.24993 -1.21646,6.25401 -2.19373,11.87901 -2.17171,12.5 0.0789,2.22598 2.82242,-4.0455 4.54819,-10.39695 z m -74.20142,5.6185 c 6.72781,-2.97536 7.71867,-4.64575 6.53,-11.00836 C 363.93652,198.33688 362.54664,196 360.40607,196 c -1.20656,0 -12.30288,4.56348 -13.14571,5.40631 -0.18664,0.18663 0.80344,2.48858 2.20015,5.11545 1.39672,2.62687 2.53949,6.0591 2.53949,7.62718 0,1.56808 0.21217,2.85106 0.47149,2.85106 0.25931,0 2.92121,-1.08339 5.91532,-2.40752 z M 420.4437,208.5 c 0.57454,-3.98528 0.46775,-4.75346 -0.52624,-3.78519 -0.68589,0.66814 -1.40378,3.81814 -1.59531,7 -0.40769,6.77277 0.98617,4.66064 2.12155,-3.21481 z m -167.3804,4.49897 c 1.95982,-0.54443 5.96299,-2.78029 8.89594,-4.96856 2.93295,-2.18828 9.31697,-6.03651 14.1867,-8.55163 4.86973,-2.51511 8.85406,-4.97519 8.85406,-5.46684 0,-1.86668 -2.05228,-1.97339 -9.16216,-0.47641 -9.24936,1.94745 -24.38062,4.13815 -37.43752,5.42019 -11.66799,1.14567 -13.40238,1.65082 -13.39474,3.90127 0.0138,4.06222 2.24059,9.30253 4.30668,10.13488 3.01016,1.21268 19.39364,1.21757 23.75104,0.007 z m 72.99143,-17.38591 C 324.92463,193.27858 324,190.63557 324,189.73969 c 0,-1.44526 -0.56355,-1.39465 -5,0.44905 -2.75,1.14285 -5,2.41616 -5,2.82958 0,0.41341 1.04818,1.43846 2.3293,2.27787 1.28111,0.83942 4.31861,4.43875 6.75,7.99851 l 4.4207,6.47229 0.30473,-4.95472 c 0.21244,-3.45422 -0.31753,-6.24012 -1.75,-9.19921 z m 127.43819,9.39839 c 0.35034,-0.56686 -0.0511,-0.7345 -0.94098,-0.39301 -1.73242,0.66479 -2.04939,1.38156 -0.61096,1.38156 0.51754,0 1.21592,-0.44485 1.55194,-0.98855 z m -238.81384,-3.61754 c 0.8756,-2.28178 -5.72176,-24.83599 -9.61082,-32.8562 -7.2697,-14.99196 -19.77582,-28.88712 -28.7522,-31.94568 C 173.74628,135.71641 171.10674,135 170.45043,135 c -0.65631,0 2.49995,3.7125 7.01391,8.25 11.99342,12.05596 20.95736,28.54419 25.6406,47.1632 3.81673,15.17405 3.45363,14.53508 7.54598,13.2791 1.9614,-0.60197 3.77408,-1.63625 4.02816,-2.29839 z m 176.78038,-2.44115 C 399.71196,194.76811 401,193.39916 401,188.81289 401,184.40987 398.64215,178 397.02251,178 c -1.17634,0 -12.82554,5.67513 -14.64808,7.13609 -0.82841,0.66406 -0.774,1.88723 0.20611,4.63309 0.73242,2.05195 1.35143,5.64332 1.37557,7.98082 0.0241,2.3375 0.38139,4.2443 0.79389,4.23733 0.4125,-0.007 3.43176,-1.37252 6.70946,-3.03457 z M 374.66228,197.75 c -0.27741,-0.6875 -0.50439,-0.125 -0.50439,1.25 0,1.375 0.22698,1.9375 0.50439,1.25 0.27741,-0.6875 0.27741,-1.8125 0,-2.5 z m 89.76109,-12.94405 c 3.20574,-4.57684 1.63047,-4.76004 -6.62047,-0.76998 -4.50841,2.18022 -9.45841,3.96403 -11,3.96403 -2.93533,0 -3.39319,1.19654 -2.18383,5.70709 0.58121,2.16779 0.74879,2.12823 9.40971,-2.22154 4.84988,-2.43576 9.52744,-5.44158 10.39459,-6.6796 z m -117.59906,3.78229 c 8.9761,-4.50807 14.58781,-8.81031 8.57457,-6.57373 C 347.56036,184.92998 337,190.46486 337,191.65769 c 0,1.86459 1.2e-4,1.86455 9.82431,-3.06945 z m 75.15456,-4.06278 c 1.14501,-1.37965 1.08015,-2.50728 -0.42148,-7.32801 -2.18705,-7.02115 -7.93559,-19.69512 -9.32167,-20.55177 C 410.03975,155.2885 385,166.33948 385,168.66583 c 0,1.78718 1.02371,1.6898 7,-0.66583 6.63734,-2.6162 10.40635,-2.55358 12.98638,0.21575 2.63175,2.82486 5.01362,10.80576 5.01362,16.79908 0,2.55851 0.27981,4.93164 0.62179,5.27363 0.81025,0.81025 9.60595,-3.65302 11.35708,-5.763 z M 253.5,185.92369 c 23.74072,-2.10676 26.68864,-3.5567 30.7803,-15.13933 2.51187,-7.11059 2.58702,-8.08353 3.1503,-40.78436 0.76158,-44.213248 -0.39286,-73.415615 -3.21217,-81.25354 -11.40353,-31.702876 -50.78292,-49.59262952 -78.46698,-35.646942 -9.59856,4.835221 -19.68301,15.922163 -25.81851,28.38513 -2.50254,5.083393 -3.1641,8.02223 -3.95297,17.560242 -1.09364,13.222971 -1.20207,54.54393 -0.15864,60.45511 0.65869,3.73156 1.15917,4.2245 7.45765,7.34527 15.78966,7.82348 30.13899,28.37986 36.89029,52.84781 l 2.3266,8.43205 10.00207,-0.61265 c 5.50113,-0.33696 14.95206,-1.05191 21.00206,-1.58879 z m 52.59378,-10.22991 c -1.30594,-1.30594 -1.48759,0.14136 -0.37332,2.97443 0.69488,1.76676 0.7337,1.7659 1.09378,-0.0244 0.20532,-1.02092 -0.11888,-2.34842 -0.72046,-2.95 z M 371.29786,172.75 c -0.597,-7.67146 -1.17265,-9.75 -2.70028,-9.75 -1.56541,0 -2.56418,3.02104 -2.58393,7.81574 -0.0175,4.25211 1.56391,7.18426 3.87474,7.18426 1.57839,0 1.76417,-0.69202 1.40947,-5.25 z m -33.19664,-4.3139 c 6.56977,-4.14731 8.21468,-8.72857 4.71016,-13.11837 -1.14075,-1.42891 -5.56839,-0.0171 -16.62611,5.30146 l -7.41811,3.56796 0.65248,4.9186 c 1.08194,8.15606 0.92465,8.06613 8.27751,4.73219 3.60573,-1.63492 8.28756,-4.06574 10.40407,-5.40184 z M 459.5,166.64937 c 7.30757,-3.40693 7.69333,-4.13621 5.9244,-11.20014 C 463.48988,147.72408 460.99136,142 459.55389,142 c -0.6283,0 -3.59746,1.48204 -6.59813,3.29343 -4.70427,2.83978 -5.42758,3.68268 -5.25115,6.11937 0.34086,4.7078 4.51105,17.58787 5.69106,17.57743 0.60738,-0.005 3.35433,-1.05876 6.10433,-2.34086 z m -101.92867,-7.17788 c 0.77347,-4.12298 0.15726,-6.85838 -2.52321,-11.20062 -1.25007,-2.02506 -2.53206,-3.02239 -3.43813,-2.6747 -1.22195,0.4689 -1.15244,1.1983 0.45065,4.72912 1.04249,2.29609 1.90532,5.60041 1.9174,7.34292 0.0473,6.81982 2.42804,8.0146 3.59329,1.80328 z m 36.60244,-9.16258 4.94442,-2.69109 -2.79366,-1.46375 c -3.44104,-1.80294 -9.77082,-1.79379 -14.21731,0.0206 l -3.33809,1.36208 4.86544,2.70732 c 2.67599,1.48902 5.02953,2.71825 5.2301,2.73163 0.20057,0.0134 2.58966,-1.18666 5.3091,-2.66676 z m 49.67042,-13.79637 c 3.97505,-2.08883 7.06276,-4.29618 6.86158,-4.90521 -0.20119,-0.60903 -2.44322,-2.39472 -4.98231,-3.96819 -3.3801,-2.09466 -6.33504,-2.99881 -11.03314,-3.37593 -3.85833,-0.30971 -6.66834,-0.10779 -7.04796,0.50645 -0.34723,0.56183 0.49119,4.00377 1.86315,7.64876 1.37197,3.64498 2.49449,8.03268 2.49449,9.75043 v 3.1232 l 2.30841,-2.49082 c 1.26963,-1.36995 5.56073,-4.19986 9.53578,-6.28869 z m -24.67293,3.83247 c 2.16864,-1.96259 2.32905,-3.6849 0.48569,-5.21475 -1.04306,-0.86566 -1.60146,-0.54746 -2.5,1.42461 -1.28361,2.81723 -1.51801,5.44513 -0.48569,5.44513 0.36919,0 1.49419,-0.74474 2.5,-1.65499 z m -51.72856,-1.67945 c 1.72992,-1.26495 1.67193,-1.50571 -1.11343,-4.62307 l -2.93838,-3.28862 -4.44545,2.0388 c -3.45398,1.5841 -3.92896,2.0576 -2.1297,2.12307 3.19868,0.11639 6.18426,1.86375 6.18426,3.61944 0,1.8268 2.0408,1.88669 4.4427,0.13038 z M 299,135.95203 c 0,-0.4587 -0.45,-1.11211 -1,-1.45203 -0.55,-0.33992 -1,-0.40328 -1,-0.1408 0,0.26247 -0.2751,1.19413 -0.61134,2.07035 -0.44745,1.16604 -0.17937,1.42737 1,0.9748 C 298.2749,137.06427 299,136.41073 299,135.95203 Z m 5,-12.42635 c 0,-0.26088 -1.35,-1.17243 -3,-2.02568 -1.65,-0.85325 -3,-1.17667 -3,-0.71872 0,0.45795 1.2375,1.32163 2.75,1.9193 1.5125,0.59766 2.8625,1.13453 3,1.19304 0.1375,0.0585 0.25,-0.10706 0.25,-0.36794 z M 164.74251,76.75 c -0.18982,-3.9875 -0.34512,-0.725 -0.34512,7.25 0,7.975 0.1553,11.2375 0.34512,7.25 0.18981,-3.9875 0.18981,-10.5125 0,-14.5 z"
       id="path4667"
       inkscape:connector-curvature="0" />
  </g>
</svg>
