<?xml version="1.0"?>
<svg width="640" height="480" xmlns="http://www.w3.org/2000/svg" xmlns:svg="http://www.w3.org/2000/svg">
 <!-- Created with SVG-edit - https://github.com/SVG-Edit/svgedit-->

 <g class="layer">
  <title>Layer 1</title>
  <line fill="none" id="svg_3" stroke="#ffffff" stroke-width="5" x1="160" x2="160" y1="310" y2="240"/>
  <line fill="none" id="svg_4" stroke="#ffffff" stroke-width="5" x1="160" x2="200" y1="240" y2="240"/>
  <line fill="none" id="svg_5" stroke="#ffffff" stroke-width="5" x1="160" x2="180" y1="310" y2="310"/>
  <line fill="none" id="svg_6" stroke="#ffffff" stroke-width="5" x1="250" x2="250" y1="310" y2="260"/>
  <line fill="none" id="svg_7" stroke="#ffffff" stroke-width="5" x1="180" x2="190" y1="260" y2="260"/>
  <line fill="none" id="svg_14" stroke="#ffffff" stroke-width="5" x1="190" x2="190" y1="380" y2="260"/>
  <line fill="none" id="svg_13" stroke="#ffffff" stroke-width="5" x1="200" x2="230" y1="210" y2="210"/>
  <line fill="none" id="svg_12" stroke="#ffffff" stroke-width="5" x1="250" x2="270" y1="310" y2="310"/>
  <line fill="none" id="svg_11" stroke="#ffffff" stroke-width="5" x1="270" x2="270" y1="310" y2="240"/>
  <line fill="none" id="svg_10" stroke="#ffffff" stroke-width="5" x1="230" x2="270" y1="240" y2="240"/>
  <line fill="none" id="svg_17" stroke="#ffffff" stroke-width="5" x1="190" x2="210" y1="380" y2="380"/>
  <line fill="none" id="svg_18" stroke="#ffffff" stroke-width="5" x1="210" x2="210" y1="380" y2="330"/>
  <line fill="none" id="svg_19" stroke="#ffffff" stroke-width="5" x1="210" x2="220" y1="330" y2="330"/>
  <line fill="none" id="svg_20" stroke="#ffffff" stroke-width="5" x1="220" x2="220" y1="330" y2="380"/>
  <line fill="none" id="svg_21" stroke="#ffffff" stroke-width="5" x1="220" x2="240" y1="380" y2="380"/>
  <line fill="none" id="svg_23" stroke="#ffffff" stroke-width="5" x1="240" x2="240" y1="380" y2="260"/>
  <line fill="none" id="svg_24" stroke="#ffffff" stroke-width="5" x1="240" x2="250" y1="260" y2="260"/>
  <line fill="none" id="svg_25" stroke="#ffffff" stroke-width="5" x1="180" x2="180" y1="310" y2="260"/>
  <line fill="none" id="svg_26" stroke="#ffffff" stroke-width="5" x1="230" x2="230" y1="210" y2="240"/>
  <line fill="none" id="svg_27" stroke="#ffffff" stroke-width="5" x1="200" x2="200" y1="210" y2="240"/>
  <path d="m300,305l-20,0l0,-70l40,0l0,-30l30,0l0,30l40,0l0,70l-20,0l0,-50l-10,0l0,120l-20,0l0,-50l-10,0l0,50l-20,0l0,-120l-10,0l0,50z" fill="#ffffff" id="svg_28" stroke="#ffffff" stroke-width="5"/>
  <polygon fill="#ffffff" id="svg_30"/>
  <polygon fill="#ffffff" id="svg_31"/>
  <line fill="none" fill-opacity="0.01" id="svg_33" stroke="#ffffff" stroke-width="5" x1="405" x2="420" y1="250" y2="235"/>
  <line fill="none" fill-opacity="0.01" id="svg_34" stroke="#ffffff" stroke-width="5" x1="405" x2="430" y1="260" y2="235"/>
  <line fill="none" fill-opacity="0.01" id="svg_35" stroke="#ffffff" stroke-width="5" x1="405" x2="440" y1="270" y2="235"/>
  <line fill="none" fill-opacity="0.01" id="svg_36" stroke="#ffffff" stroke-width="5" x1="405" x2="425" y1="280" y2="260"/>
  <line fill="none" fill-opacity="0.01" id="svg_37" stroke="#ffffff" stroke-width="5" x1="405" x2="425" y1="290" y2="270"/>
  <line fill="none" fill-opacity="0.01" id="svg_38" stroke="#ffffff" stroke-width="5" x1="405" x2="425" y1="300" y2="280"/>
  <line fill="none" fill-opacity="0.01" id="svg_42" stroke="#ffffff" stroke-width="5" x1="410" x2="425" y1="305" y2="290"/>
  <line fill="none" fill-opacity="0.01" id="svg_43" stroke="#ffffff" stroke-width="5" x1="430" x2="475" y1="255" y2="210"/>
  <line fill="none" fill-opacity="0.01" id="svg_45" stroke="#ffffff" stroke-width="5" x1="405" x2="410" y1="240" y2="235"/>
  <line fill="none" fill-opacity="0.01" id="svg_46" stroke="#ffffff" stroke-width="5" x1="445" x2="470" y1="230" y2="205"/>
  <line fill="none" fill-opacity="0.01" id="svg_47" stroke="#ffffff" stroke-width="5" x1="445" x2="460" y1="220" y2="205"/>
  <line fill="none" fill-opacity="0.01" id="svg_49" stroke="#ffffff" stroke-width="5" x1="445" x2="450" y1="210" y2="205"/>
  <line fill="none" fill-opacity="0.01" id="svg_50" stroke="#ffffff" stroke-width="5" x1="435" x2="475" y1="260" y2="220"/>
  <line fill="none" fill-opacity="0.01" id="svg_51" stroke="#ffffff" stroke-width="5" x1="435" x2="475" y1="270" y2="230"/>
  <line fill="none" fill-opacity="0.01" id="svg_52" stroke="#ffffff" stroke-width="5" x1="435" x2="480" y1="280" y2="235"/>
  <line fill="none" fill-opacity="0.01" id="svg_53" stroke="#ffffff" stroke-width="5" x1="435" x2="490" y1="290" y2="235"/>
  <line fill="none" fill-opacity="0.01" id="svg_55" stroke="#ffffff" stroke-width="5" x1="435" x2="500" y1="300" y2="235"/>
  <line fill="none" fill-opacity="0.01" id="svg_57" stroke="#ffffff" stroke-width="5" x1="435" x2="485" y1="310" y2="260"/>
  <line fill="none" fill-opacity="0.01" id="svg_58" stroke="#ffffff" stroke-width="5" x1="435" x2="485" y1="320" y2="270"/>
  <line fill="none" fill-opacity="0.01" id="svg_59" stroke="#ffffff" stroke-width="5" x1="435" x2="485" y1="330" y2="280"/>
  <line fill="none" fill-opacity="0.01" id="svg_60" stroke="#ffffff" stroke-width="5" x1="435" x2="485" y1="340" y2="290"/>
  <line fill="none" fill-opacity="0.01" id="svg_61" stroke="#ffffff" stroke-width="5" x1="435" x2="455" y1="350" y2="330"/>
  <line fill="none" fill-opacity="0.01" id="svg_62" stroke="#ffffff" stroke-width="5" x1="435" x2="455" y1="360" y2="340"/>
  <line fill="none" fill-opacity="0.01" id="svg_63" stroke="#ffffff" stroke-width="5" x1="435" x2="455" y1="370" y2="350"/>
  <line fill="none" fill-opacity="0.01" id="svg_64" stroke="#ffffff" stroke-width="5" x1="440" x2="455" y1="375" y2="360"/>
  <line fill="none" fill-opacity="0.01" id="svg_65" stroke="#ffffff" stroke-width="5" x1="460" x2="485" y1="325" y2="300"/>
  <line fill="none" fill-opacity="0.01" id="svg_66" stroke="#ffffff" stroke-width="5" x1="465" x2="485" y1="330" y2="310"/>
  <line fill="none" fill-opacity="0.01" id="svg_67" stroke="#ffffff" stroke-width="5" x1="465" x2="485" y1="340" y2="320"/>
  <line fill="none" fill-opacity="0.01" id="svg_68" stroke="#ffffff" stroke-width="5" x1="465" x2="485" y1="350" y2="330"/>
  <line fill="none" fill-opacity="0.01" id="svg_69" stroke="#ffffff" stroke-width="5" x1="465" x2="485" y1="360" y2="340"/>
  <line fill="none" fill-opacity="0.01" id="svg_70" stroke="#ffffff" stroke-width="5" x1="465" x2="485" y1="370" y2="350"/>
  <line fill="none" fill-opacity="0.01" id="svg_73" stroke="#ffffff" stroke-width="5" x1="470" x2="485" y1="375" y2="360"/>
  <line fill="none" fill-opacity="0.01" id="svg_74" stroke="#ffffff" stroke-width="5" x1="490" x2="510" y1="255" y2="235"/>
  <line fill="none" fill-opacity="0.01" id="svg_75" stroke="#ffffff" stroke-width="5" x1="495" x2="515" y1="260" y2="240"/>
  <line fill="none" fill-opacity="0.01" id="svg_76" stroke="#ffffff" stroke-width="5" x1="495" x2="515" y1="270" y2="250"/>
  <line fill="none" fill-opacity="0.01" id="svg_77" stroke="#ffffff" stroke-width="5" x1="495" x2="515" y1="280" y2="260"/>
  <line fill="none" fill-opacity="0.01" id="svg_78" stroke="#ffffff" stroke-width="5" x1="495" x2="515" y1="290" y2="270"/>
  <line fill="none" fill-opacity="0.01" id="svg_79" stroke="#ffffff" stroke-width="5" x1="495" x2="515" y1="300" y2="280"/>
  <line fill="none" fill-opacity="0.01" id="svg_80" stroke="#ffffff" stroke-width="5" x1="500" x2="515" y1="305" y2="290"/>
 </g>
</svg>