<svg id="_x33_0" enable-background="new 0 0 64 64" height="512" viewBox="0 0 64 64" width="512" xmlns="http://www.w3.org/2000/svg" xmlns:xlink="http://www.w3.org/1999/xlink"><linearGradient id="SVGID_1_" gradientUnits="userSpaceOnUse" x1="31.881" x2="31.881" y1="63" y2=".591"><stop offset="0" stop-color="#9f2fff"/><stop offset="1" stop-color="#0bb1d3"/></linearGradient><path d="m10 53c-1.245 0-2.377.735-2.884 1.873l-1.385 3.117.973.382c1.062.417 2.17.628 3.296.628 1.654 0 3-1.346 3-3s-1.346-3-3-3zm0 4c-.526 0-1.049-.06-1.562-.178l.505-1.136c.186-.416.601-.686 1.057-.686.552 0 1 .448 1 1s-.448 1-1 1zm15-13.465c0 1.212.472 2.351 1.328 3.207l.93.93c.856.856 1.995 1.328 3.207 1.328 2.501 0 4.535-2.034 4.535-4.535v-5.465h-5.465c-2.501 0-4.535 2.034-4.535 4.535zm8 .93c0 1.397-1.138 2.535-2.535 2.535-.678 0-1.314-.264-1.793-.742l-.93-.93c-.478-.478-.742-1.115-.742-1.793 0-1.397 1.138-2.535 2.535-2.535h3.465zm8.022-35.675c-1.763 8.225-4.878 15.989-9.239 23.11-.252-2.685-.728-5.346-1.47-7.944l-.922-3.225-4.965 6.951-3.857-4.82-2.186 7.648c-.221.778-.329 1.579-.359 2.384l-5.249-2.625.93 7.441c.22 1.753.895 3.424 1.953 4.834 1.118 1.491 2.624 2.646 4.354 3.338l1.096.438c-2.346 1.56-4.936 2.808-7.596 3.634-1.033-.602-2.231-.954-3.512-.954-2.824 0-5.391 1.668-6.539 4.249l-2.698 6.073 1.437 1.077c2.235 1.677 5.005 2.601 7.8 2.601 3.421 0 6.273-2.47 6.877-5.719 3.537-1.207 6.859-2.929 9.892-5.129.021.01.042.02.063.03l5.252 4.596c1.638 1.433 3.739 2.222 5.916 2.222 3.859 0 7-3.141 7-7 0-2.757-2.243-5-5-5-.058 0-.112.015-.169.017l2.492-1.994c13.14-10.512 20.677-26.193 20.677-43.023v-1.409l-21.86 7.65zm3.527 20.523c-1.756 2.436-3.616 4.749-5.549 6.915v-1.228h-1.577c1.914-2.125 3.732-4.36 5.417-6.68zm-7.549 7.687v7.465c0 3.603-2.932 6.535-6.535 6.535-1.745 0-3.387-.68-4.621-1.914l-.93-.93c-1.234-1.234-1.914-2.876-1.914-4.621 0-3.603 2.932-6.535 6.535-6.535zm-8.397-11.724c.842 3.176 1.286 6.439 1.365 9.724h-.432c-1.146 0-2.239.231-3.238.642l-.387-.58c-.597-.893-.911-1.932-.911-3.005 0-1.136.349-2.225 1.009-3.149zm-8.294 5.784 1.121-3.922 1.99 2.488c-.27.776-.42 1.592-.42 2.431 0 1.47.431 2.893 1.246 4.115l.301.452c-.868.628-1.613 1.413-2.193 2.316l-.005-.005c-1.515-1.515-2.349-3.529-2.349-5.671 0-.744.104-1.487.309-2.204zm-3.05 10.285c-.85-1.132-1.392-2.475-1.568-3.882l-.467-3.732 2.966 1.482c.379 1.934 1.322 3.712 2.746 5.137l.503.503c-.281.844-.439 1.744-.439 2.682 0 .202.015.4.029.6l-.273-.109c-1.39-.556-2.599-1.483-3.497-2.681zm1.831 9.008 3.018 2.415c-.752.422-1.517.819-2.297 1.185zm-1.158 4.406c-.329.131-.657.262-.99.383-.172-1.399-.756-2.669-1.63-3.689.614-.218 1.219-.455 1.817-.711zm-7.932 6.241c-2.365 0-4.709-.781-6.601-2.2l-.162-.122 2.052-4.616c.826-1.86 2.676-3.062 4.711-3.062 2.757 0 5 2.243 5 5s-2.243 5-5 5zm13.937-9.332-3.327-2.662c.558-.325 1.099-.68 1.639-1.04.351.575.764 1.117 1.252 1.605l.93.93c.172.172.352.331.535.486-.34.233-.684.459-1.029.681zm19.063.332c0 2.757-2.243 5-5 5-1.692 0-3.326-.613-4.6-1.729l-2.615-2.288c1.988-.074 3.804-.827 5.22-2.04 0 .02-.005.038-.005.057 0 2.206 1.794 4 4 4v-2c-1.103 0-2-.897-2-2s.897-2 2-2c1.654 0 3 1.346 3 3zm-1.928-8.539-2.107 1.686c.018-.226.035-.452.035-.682v-5.281c2.761-2.93 5.392-6.156 7.818-9.608l.627-.893-1.718-.998c4.819-7.006 8.532-14.664 11.037-22.793l4.217-1.476c-.41 15.68-7.614 30.21-19.909 40.045zm13.323-37.74c-2.447 7.456-5.937 14.494-10.401 20.957l-1.724-1.002-.528.744c-2.142 3.02-4.512 5.901-7.04 8.58h-2.515c5.073-7.729 8.668-16.212 10.671-25.241z" fill="url(#SVGID_1_)"/></svg>