<?xml version="1.0" encoding="UTF-8" standalone="no"?>
<!-- Created with Inkscape (http://www.inkscape.org/) -->

<svg
   xmlns:dc="http://purl.org/dc/elements/1.1/"
   xmlns:cc="http://creativecommons.org/ns#"
   xmlns:rdf="http://www.w3.org/1999/02/22-rdf-syntax-ns#"
   xmlns:svg="http://www.w3.org/2000/svg"
   xmlns="http://www.w3.org/2000/svg"
   xmlns:sodipodi="http://sodipodi.sourceforge.net/DTD/sodipodi-0.dtd"
   xmlns:inkscape="http://www.inkscape.org/namespaces/inkscape"
   width="144.46249mm"
   height="144.46249mm"
   viewBox="0 0 144.4625 144.46251"
   version="1.1"
   id="svg4359"
   inkscape:version="0.92.4 (5da689c313, 2019-01-14)"
   sodipodi:docname="EWS.svg">
  <defs
     id="defs4353" />
  <sodipodi:namedview
     id="base"
     pagecolor="#ffffff"
     bordercolor="#666666"
     borderopacity="1.0"
     inkscape:pageopacity="0.0"
     inkscape:pageshadow="2"
     inkscape:zoom="0.35"
     inkscape:cx="421.35713"
     inkscape:cy="246.06678"
     inkscape:document-units="mm"
     inkscape:current-layer="g4506"
     showgrid="false"
     inkscape:pagecheckerboard="true"
     inkscape:window-width="1366"
     inkscape:window-height="705"
     inkscape:window-x="-8"
     inkscape:window-y="-8"
     inkscape:window-maximized="1" />
  <metadata
     id="metadata4356">
    <rdf:RDF>
      <cc:Work
         rdf:about="">
        <dc:format>image/svg+xml</dc:format>
        <dc:type
           rdf:resource="http://purl.org/dc/dcmitype/StillImage" />
        <dc:title></dc:title>
      </cc:Work>
    </rdf:RDF>
  </metadata>
  <g
     inkscape:label="Layer 1"
     inkscape:groupmode="layer"
     id="layer1"
     transform="translate(5.65074,-69.476003)"
     style="display:inline">
    <g
       id="g4394"
       transform="translate(-141.3631,-0.75595238)"
       style="display:inline">
      <g
         id="g4506"
         transform="translate(-140.60714,-0.75595238)">
        <path
           style="display:inline;fill:#fdfdfd;stroke-width:0.28225851"
           d="m 338.4967,215.07002 c -11.84962,-1.85515 -21.82749,-5.64783 -30.89488,-11.74345 -6.44419,-4.33213 -15.32843,-13.22788 -19.5594,-19.58475 -5.26377,-7.90857 -8.95242,-16.99104 -10.9906,-27.06187 -0.70603,-3.48849 -0.73232,-3.97577 -0.73232,-13.5656 0,-9.5377 0.0293,-10.08605 0.70854,-13.3217 2.49007,-11.85918 6.82594,-21.59835 13.72876,-30.837261 2.78455,-3.726913 9.53,-10.415239 13.49865,-13.384315 9.74521,-7.290708 21.08665,-12.198003 32.16867,-13.918962 4.03598,-0.626759 14.87243,-0.875976 19.89378,-0.457518 13.02725,1.085637 26.87343,6.70071 37.33238,15.139462 3.05916,2.468278 9.00105,8.406976 11.43869,11.432589 8.67108,10.762435 14.23463,24.389785 15.40578,37.734785 0.37641,4.28945 0.38374,10.80033 0.0169,15.05637 -1.33777,15.52073 -8.37874,31.0792 -19.02413,42.03771 -7.20155,7.41342 -12.88751,11.6532 -20.86398,15.55754 -6.90312,3.37893 -12.3701,5.17866 -19.22638,6.32933 -5.78177,0.97031 -18.38964,1.29386 -22.90047,0.58764 z m 6.50375,-8.20933 c 0.0943,-0.24562 0.17129,-1.64318 0.17129,-3.10568 v -2.65911 h 3.24508 3.24509 l 0.004,2.7528 c 0.002,1.51401 0.11702,2.93087 0.25478,3.14855 0.19729,0.31181 0.72035,0.35643 2.46475,0.21026 2.6143,-0.21904 6.52586,-0.87315 6.7876,-1.13502 0.10127,-0.10138 -0.0308,-1.10373 -0.29345,-2.22751 -0.59945,-2.56441 -0.59471,-3.11364 0.0318,-3.68084 0.55131,-0.49921 3.41622,-1.32693 4.59276,-1.32693 0.96155,0 1.54676,0.67905 1.94667,2.25869 0.54187,2.14053 0.89417,2.82336 1.45675,2.82336 0.63572,0 6.74227,-2.41498 7.4851,-2.96017 0.50173,-0.36821 0.47878,-0.47692 -0.5339,-2.5285 -0.58202,-1.17905 -1.0582,-2.37357 -1.0582,-2.6545 0,-0.68389 0.95073,-1.51649 2.77444,-2.42977 2.16348,-1.08342 2.75941,-0.92047 4.27863,1.16994 0.6992,0.96212 1.44789,1.82261 1.66376,1.9122 0.45084,0.1871 0.89605,-0.0842 4.47514,-2.72693 1.43562,-1.06001 2.61018,-2.04851 2.61018,-2.19667 0,-0.14813 -0.6984,-1.05249 -1.55198,-2.00968 -0.98936,-1.10941 -1.55202,-1.99211 -1.55202,-2.43495 0,-0.46678 0.57012,-1.28869 1.73784,-2.50541 2.0895,-2.1772 2.75404,-2.3043 4.20318,-0.80392 1.17966,1.22131 2.69869,2.19892 3.06492,1.97248 0.14775,-0.0915 1.37337,-1.62315 2.72366,-3.40399 2.70553,-3.56823 2.69806,-3.51997 0.72521,-4.69961 -1.59628,-0.95447 -2.29628,-1.69102 -2.29628,-2.4162 0,-0.79651 1.23898,-3.35632 2.0556,-4.24701 0.77778,-0.84836 1.58323,-0.80082 3.58803,0.21177 0.92239,0.46584 1.86193,0.84698 2.08791,0.84698 0.43124,0 1.50342,-2.09884 2.86081,-5.60009 0.58182,-1.50071 0.72558,-2.19357 0.52208,-2.51635 -0.15445,-0.24499 -1.08039,-0.66439 -2.05761,-0.93204 -2.65339,-0.72675 -2.77051,-0.91572 -2.19924,-3.54951 0.78729,-3.62989 1.0617,-3.81793 4.61524,-3.16281 1.2207,0.22504 1.89519,0.23972 2.08936,0.0454 0.15769,-0.15778 0.56597,-2.21864 0.90734,-4.57971 0.54516,-3.77069 0.5696,-4.32513 0.20065,-4.55852 -0.231,-0.14612 -1.53524,-0.26764 -2.89833,-0.27003 l -2.47829,-0.004 0.0797,-3.17627 0.0797,-3.17628 2.62132,-0.14118 c 1.67298,-0.0902 2.70072,-0.2702 2.84077,-0.49783 0.19346,-0.31436 -0.5266,-6.72362 -0.95511,-8.50158 -0.14758,-0.6123 -0.26454,-0.65501 -1.34665,-0.49193 -3.45946,0.5214 -3.75507,0.527 -4.20218,0.0796 -0.54469,-0.54502 -1.43456,-4.05851 -1.30816,-5.16509 0.0846,-0.74014 0.27644,-0.86897 2.20894,-1.48275 1.16398,-0.36972 2.19918,-0.80179 2.30044,-0.96023 0.21476,-0.33603 -0.0911,-1.25465 -1.74497,-5.24073 -0.66644,-1.60623 -1.38598,-2.98733 -1.599,-3.06913 -0.21301,-0.0819 -1.13073,0.24778 -2.03939,0.73234 -2.0348,1.08514 -2.61024,1.09998 -3.45273,0.0892 -0.95472,-1.14562 -2.32078,-4.16382 -2.1207,-4.68552 0.094,-0.24521 0.88111,-0.90036 1.74909,-1.4559 0.86795,-0.5555 1.64914,-1.1952 1.7359,-1.42152 0.0869,-0.22632 -0.19386,-0.94832 -0.62374,-1.60442 -1.18697,-1.8117 -4.42362,-5.85148 -4.68817,-5.85148 -0.12853,0 -0.93474,0.63525 -1.79163,1.41169 -0.85689,0.77641 -1.82235,1.41167 -2.14546,1.41167 -0.77955,0 -4.20362,-3.42596 -4.20362,-4.205902 0,-0.323304 0.6349,-1.289312 1.41091,-2.146646 0.77601,-0.857358 1.4109,-1.674779 1.4109,-1.816494 0,-0.141714 -1.11108,-1.129878 -2.46908,-2.195933 -3.3241,-2.609466 -4.17207,-3.187146 -4.67839,-3.187146 -0.23605,0 -0.91485,0.730541 -1.50846,1.623433 -0.67046,1.008478 -1.31098,1.656447 -1.69091,1.710589 -1.31783,0.187826 -5.17313,-2.302635 -5.17313,-3.341749 0,-0.256714 0.39661,-1.260894 0.88137,-2.231512 0.74093,-1.48354 0.81963,-1.82171 0.49382,-2.122158 -0.41431,-0.382086 -6.15516,-2.822557 -7.3389,-3.119818 -0.87546,-0.219848 -1.15051,0.089 -1.92594,2.162689 -0.69376,1.855207 -1.1477,2.072384 -3.43936,1.645442 -3.26207,-0.607731 -3.61479,-1.062793 -3.09815,-3.997335 0.20004,-1.136207 0.21111,-1.858959 0.0318,-2.075131 -0.15135,-0.182437 -1.89484,-0.547346 -3.87444,-0.81091 -1.97961,-0.263562 -3.87581,-0.537315 -4.21379,-0.608341 -1.11365,-0.234035 -1.50185,0.540667 -1.50185,2.997232 v 2.238518 h -3.2451 -3.24505 V 81.97068 c 0,-2.536313 -0.35642,-3.187977 -1.63348,-2.98693 -0.4208,0.06625 -2.3219,0.336492 -4.22469,0.600555 -1.90277,0.264064 -3.57765,0.622442 -3.72194,0.796399 -0.16256,0.195964 -0.14175,1.095899 0.0547,2.365634 0.29481,1.905583 0.27752,2.088891 -0.2463,2.613002 -0.34782,0.348001 -1.43627,0.744252 -2.84491,1.035685 -2.76251,0.571537 -2.90601,0.492625 -3.75702,-2.066027 -0.47682,-1.433616 -0.72292,-1.813814 -1.17417,-1.813814 -0.72727,0 -7.28888,2.737279 -7.83849,3.269965 -0.36185,0.350676 -0.30035,0.629614 0.49381,2.240993 0.4989,1.012256 0.90707,2.01734 0.90707,2.233523 0,0.817581 -3.7641,3.26662 -5.02068,3.26662 -0.59626,0 -1.37151,-0.78737 -2.29339,-2.329278 -0.35009,-0.58554 -0.85607,-1.058758 -1.13204,-1.058758 -0.77018,0 -7.07388,4.793837 -7.07388,5.379528 0,0.143667 0.63494,0.962687 1.41094,1.820045 0.77598,0.857334 1.4109,1.793683 1.4109,2.080755 0,0.596263 -1.88504,2.838683 -3.13475,3.729043 -1.06497,0.75873 -1.72956,0.59772 -3.56352,-0.86327 -0.78357,-0.62426 -1.55508,-1.135 -1.71445,-1.135 -0.4131,0 -5.132,6.29332 -5.132,6.84427 0,0.25192 0.4127,0.7412 0.9171,1.08733 1.63249,1.12023 2.4691,2.04124 2.4691,2.71821 0,0.7935 -1.24059,3.35446 -2.0556,4.24339 -0.76935,0.83916 -1.29729,0.80273 -3.34331,-0.23065 -0.94294,-0.47626 -1.87548,-0.80411 -2.07228,-0.72854 -0.52538,0.20172 -3.05346,6.36853 -3.08427,7.52352 -0.0257,0.96854 0.008,0.99942 1.7299,1.55554 2.60145,0.84041 2.76734,1.08419 2.33577,3.43191 -0.19512,1.06136 -0.52989,2.36035 -0.74394,2.88663 -0.3881,0.95422 -0.39333,0.9564 -1.86864,0.78165 -0.81372,-0.0965 -2.00581,-0.25604 -2.64918,-0.35482 -1.01538,-0.15592 -1.19386,-0.10344 -1.3528,0.39759 -0.39093,1.23241 -1.18144,8.23789 -0.9685,8.58288 0.14868,0.24093 1.08345,0.39782 2.75558,0.46253 l 2.53056,0.0979 0.15813,1.73724 c 0.087,0.95548 0.19097,2.3725 0.23116,3.1489 l 0.073,1.41169 -2.65937,0.2045 c -1.46265,0.11249 -2.77928,0.3245 -2.92583,0.47114 -0.24921,0.24932 0.32973,5.43674 0.88565,7.9356 l 0.21983,0.98818 1.67549,-0.1091 c 0.92153,-0.06 2.24625,-0.12354 2.94385,-0.14116 l 1.26832,-0.0322 0.46432,1.44566 c 1.24927,3.88965 1.0338,4.50398 -1.92532,5.48924 -1.00191,0.33361 -1.89139,0.78831 -1.9766,1.01047 -0.18352,0.47857 0.73235,3.1053 2.078,5.95969 1.12287,2.3818 1.34912,2.4577 3.57656,1.19992 0.82501,-0.46587 1.82767,-0.84701 2.22809,-0.84701 0.8793,0 1.94337,1.18007 2.99074,3.31674 0.88946,1.81457 0.81044,1.99655 -1.60317,3.692 -0.95592,0.67148 -1.73801,1.41676 -1.73801,1.6562 0,0.80498 4.67127,6.86353 5.29193,6.86353 0.21647,0 1.12578,-0.69877 2.02069,-1.55287 1.03969,-0.99224 1.86983,-1.55284 2.29945,-1.55284 0.87887,0 4.2148,3.26146 4.2148,4.12069 0,0.33754 -0.69007,1.38159 -1.55199,2.3481 -0.8536,0.95716 -1.552,1.85273 -1.552,1.99015 0,0.54342 6.2617,5.37553 6.96589,5.37553 0.19955,0 0.70657,-0.53998 1.12672,-1.19993 1.88363,-2.95876 2.68133,-3.27774 5.05735,-2.02242 1.76394,0.93198 2.65218,1.75975 2.65218,2.4717 0,0.30941 -0.44443,1.37157 -0.98763,2.36035 -0.54321,0.98877 -0.98764,1.96628 -0.98764,2.17225 0,0.53699 6.70267,3.55877 7.89372,3.55877 0.42537,0 0.70008,-0.51032 1.32992,-2.47042 0.7866,-2.44809 0.80274,-2.47114 1.78144,-2.54729 1.39007,-0.10818 4.82403,0.82378 5.18636,1.40755 0.21954,0.35372 0.1609,1.17326 -0.21818,3.04958 -0.28513,1.41126 -0.45105,2.63331 -0.36871,2.71565 0.25232,0.25249 6.17448,1.1786 7.71578,1.20659 1.0801,0.0195 1.49506,-0.0879 1.62253,-0.42023 z m -30.02212,-21.17201 c 0,-1.34109 4.67173,-6.05028 6.00215,-6.05028 0.31671,0 0.9843,0.31171 1.4835,0.69268 2.02789,1.54759 4.68836,1.54653 7.33086,-0.003 0.64698,-0.37936 1.45775,-0.68974 1.8017,-0.68974 0.90508,0 6.23847,5.22603 6.23847,6.11285 v 0.6632 h -11.42834 -11.42834 z m 44.86683,0.14841 c 0,-0.7337 4.92459,-5.86677 5.85193,-6.09963 0.45798,-0.11501 1.38182,0.16103 2.85698,0.85365 1.19908,0.56301 2.49195,1.02293 2.87306,1.02207 1.06335,-0.002 2.86697,-0.56788 3.69938,-1.15983 0.41234,-0.29321 1.22297,-0.53261 1.80344,-0.53261 0.95454,0 1.30458,0.25029 3.69532,2.64237 1.68848,1.68939 2.64095,2.86037 2.64095,3.24685 v 0.60449 h -11.71054 c -11.60807,0 -11.71052,-0.005 -11.71052,-0.57736 z m -35.45097,-6.50592 c -1.16147,-0.33685 -2.81825,-2.20283 -3.67315,-4.13698 -1.08887,-2.46346 -1.50129,-4.74031 -1.50581,-8.31302 -0.006,-5.39365 1.08391,-9.13763 3.39199,-11.64295 2.95754,-3.21031 6.56679,-1.92909 9.17747,3.25792 l 1.00865,2.00399 -0.0895,6.39287 -0.0894,6.39284 -0.91499,1.75237 c -2.07402,3.97218 -4.16824,5.2028 -7.30549,4.29296 z m 45.18624,-0.13676 c -1.33677,-0.69564 -2.00737,-1.45792 -3.08113,-3.50242 -1.4074,-2.67976 -1.93798,-5.15498 -1.93798,-9.04105 0,-5.50782 1.11507,-8.89762 3.75592,-11.41794 1.5572,-1.48614 1.72133,-1.56949 3.09046,-1.56949 0.79519,0 1.80164,0.18408 2.23651,0.40909 1.83506,0.94947 3.83353,4.24713 4.50855,7.43962 0.44009,2.08122 0.38735,8.28656 -0.0895,10.53756 -1.19978,5.66335 -5.06817,8.92153 -8.48282,7.14463 z m -47.12115,-27.74209 c -0.0793,-0.20683 -0.14423,-2.84313 -0.14423,-5.85847 v -5.48245 h 3.80945 3.80945 v 5.86787 5.8679 l -3.66521,-0.009 c -2.78512,-0.007 -3.69985,-0.0997 -3.80946,-0.38543 z m 48.1793,0.30681 -2.61016,-0.0932 v -5.77729 -5.77728 h 3.52726 3.52728 v 5.92904 5.92904 l -0.9171,-0.0585 c -0.50438,-0.0323 -2.09166,-0.10056 -3.52728,-0.15178 z m -26.52092,-3.61291 c -2.5184,-0.67862 -4.35715,-1.81002 -6.62506,-4.07651 -3.75142,-3.74908 -4.90828,-6.97314 -4.66208,-12.99306 0.14946,-3.65509 0.41797,-4.77342 1.81336,-7.55307 0.40941,-0.81557 0.64951,-1.57788 0.53356,-1.69402 -0.11596,-0.11614 -6.32722,-0.2747 -13.8028,-0.35234 l -13.59192,-0.14116 -0.0769,-4.83069 -0.0769,-4.83072 4.30979,-3.24816 c 2.37036,-1.7865 5.65983,-4.2818 7.30992,-5.54515 l 3.00019,-2.29696 h 8.45496 8.45497 l 0.18482,3.85617 c 0.10168,2.12088 0.18485,5.73147 0.18485,8.02349 0,2.29201 0.0771,4.36827 0.17128,4.61389 0.24301,0.63362 0.85092,0.55302 1.36471,-0.18089 0.34551,-0.49354 0.43927,-1.45034 0.43927,-4.48208 0,-2.12003 0.0797,-4.25375 0.17731,-4.74158 l 0.17729,-0.887 7.22996,0.0752 7.22996,0.0752 0.19484,4.50173 c 0.10715,2.47595 0.26617,4.78615 0.35338,5.13379 0.14363,0.57261 1.14976,1.18246 1.45196,0.88009 0.0679,-0.0679 0.21709,-3.85933 0.33147,-8.42528 l 0.20799,-8.30171 8.46544,-0.0715 8.46543,-0.0715 6.49018,4.95999 c 3.56959,2.72798 6.77587,5.27648 7.12506,5.66331 0.60579,0.67109 0.63492,0.9228 0.63492,5.4873 v 4.78398 h -13.66914 c -7.51802,0 -13.72996,0.0985 -13.80433,0.21884 -0.0743,0.12037 0.36076,1.23207 0.96688,2.47044 1.235,2.52311 1.66928,4.68696 1.67251,8.33307 0.004,4.52961 -1.55361,8.24991 -4.84771,11.57868 -2.09627,2.11833 -4.24417,3.38593 -6.91803,4.08276 -2.04483,0.53292 -7.31956,0.52452 -9.32108,-0.0147 z m 8.63815,-15.75708 c 0.24286,-0.2928 0.12928,-0.64002 -0.48842,-1.49325 -1.54617,-2.13556 -3.4943,-2.73243 -5.01422,-1.53623 -1.05472,0.83011 -2.44103,2.77493 -2.22607,3.12293 0.28513,0.46157 7.33906,0.37629 7.72871,-0.0935 z m -13.23492,-0.58757 c 0.42974,-1.13103 0.70569,-6.37163 0.33548,-6.37163 -0.65523,0 -2.72646,5.04053 -2.441,5.94043 0.13464,0.42453 1.05912,1.04929 1.62591,1.09884 0.12024,0.0107 0.33606,-0.28993 0.47961,-0.66764 z m 20.6992,-0.0111 c 0.32861,-0.32878 0.3588,-0.6668 0.14472,-1.62009 -0.53259,-2.37189 -1.87517,-4.70352 -1.96697,-3.41607 -0.0647,0.90712 0.0509,3.30503 0.21169,4.39286 0.17069,1.15459 0.83452,1.41975 1.61056,0.6433 z m -6.9206,-8.39609 c 0.12727,-1.49206 -0.79848,-2.40386 -2.85086,-2.80793 -1.24685,-0.24547 -1.99761,-0.24136 -3.15273,0.0172 -1.82243,0.40808 -2.04423,0.64173 -2.16887,2.28512 l -0.0963,1.27052 3.104,-0.0953 c 1.7072,-0.0522 3.42147,0.0345 3.80947,0.19285 1.01973,0.41632 1.25932,0.26382 1.35539,-0.86268 z m -38.17758,-7.56666 c 0.44639,-0.49353 0.46458,-0.65835 0.13964,-1.26584 -0.20547,-0.38414 -0.6163,-0.77549 -0.91294,-0.86969 -0.68345,-0.21703 -1.62772,0.60661 -1.62772,1.41973 0,1.29324 1.47972,1.73439 2.40102,0.7158 z m 8.19823,-0.0164 c 0.48223,-0.53315 0.49136,-0.64985 0.10482,-1.3411 -0.54876,-0.98142 -1.46102,-1.10372 -2.21255,-0.2966 -0.72722,0.781 -0.72777,0.8384 -0.0151,1.60375 0.72157,0.77495 1.44216,0.78647 2.12282,0.034 z m 8.19176,-0.12188 c 0.42817,-0.65386 0.42817,-0.75783 0,-1.41167 -0.53631,-0.81896 -1.17879,-0.89928 -1.90847,-0.23859 -0.6403,0.57982 -0.656,1.1687 -0.049,1.83978 0.64947,0.71806 1.41147,0.64426 1.9575,-0.18952 z m 36.84702,0.23857 c 0.64031,-0.57979 0.65602,-1.1687 0.049,-1.83977 -0.65385,-0.72289 -1.36756,-0.64315 -2.05359,0.22942 -0.48391,0.61555 -0.52445,0.82508 -0.2321,1.19994 0.78904,1.01186 1.44045,1.13138 2.23665,0.41041 z m 8.46544,0 c 0.66764,-0.60452 0.65037,-0.90613 -0.0974,-1.70264 -1.03052,-1.09755 -2.2082,-0.69317 -2.2082,0.75824 0,1.35585 1.27472,1.87798 2.30572,0.9444 z m 8.27705,-0.0985 c 0.42502,-0.46987 0.45677,-0.68665 0.18728,-1.27843 -0.40492,-0.88918 -1.02126,-1.14026 -1.86022,-0.75779 -0.825,0.37609 -1.06317,1.2694 -0.53834,2.01911 0.51825,0.74031 1.54995,0.74829 2.21128,0.017 z m -59.48892,-7.95346 c 0.80852,-0.75998 0.81398,-1.01357 0.0397,-1.83835 -0.72931,-0.77673 -1.00639,-0.80721 -1.69224,-0.1862 -0.64175,0.58109 -0.66171,1.44475 -0.049,2.12212 0.60419,0.668 0.90565,0.6507 1.70171,-0.0975 z m 8.18327,0 c 0.82776,-0.77807 0.82058,-1.10659 -0.0418,-1.91727 -0.66387,-0.624 -0.72701,-0.63222 -1.4109,-0.18388 -0.82389,0.54015 -0.92683,1.44927 -0.24892,2.19872 0.60417,0.668 0.9056,0.6507 1.70168,-0.0975 z m 32.22929,-0.062 c 0.53578,-0.57061 0.58088,-0.76201 0.28956,-1.2287 -0.85049,-1.36262 -2.24754,-1.37202 -2.67706,-0.018 -0.14835,0.46787 -0.0114,0.77817 0.56104,1.27082 0.94186,0.81062 1.04395,0.80928 1.82646,-0.0241 z m 7.97751,0.20865 c 0.73996,-0.67002 0.64912,-1.69116 -0.19992,-2.24778 -0.68389,-0.44834 -0.74705,-0.44012 -1.41088,0.18388 -0.8637,0.81183 -0.8639,0.97612 -0.002,1.83816 0.81991,0.82036 0.93816,0.83691 1.61313,0.22574 z m -52.18133,29.3388 -1.76362,-0.10023 v -5.20975 -5.20974 h 5.22036 5.22033 v 5.36438 5.36439 l -3.45671,-0.0544 c -1.9012,-0.0299 -4.25035,-0.0995 -5.22036,-0.15463 z m 45.36064,-5.30273 v -5.22944 l 5.29092,0.0767 5.29088,0.0768 0.0768,5.1526 0.0768,5.15264 h -5.36783 -5.36779 z"
           id="path4508"
           inkscape:connector-curvature="0" />
      </g>
    </g>
  </g>
</svg>
