<?xml version="1.0" encoding="UTF-8" standalone="no"?>
<!-- Created with Inkscape (http://www.inkscape.org/) -->

<svg
   xmlns:dc="http://purl.org/dc/elements/1.1/"
   xmlns:cc="http://creativecommons.org/ns#"
   xmlns:rdf="http://www.w3.org/1999/02/22-rdf-syntax-ns#"
   xmlns:svg="http://www.w3.org/2000/svg"
   xmlns="http://www.w3.org/2000/svg"
   xmlns:sodipodi="http://sodipodi.sourceforge.net/DTD/sodipodi-0.dtd"
   xmlns:inkscape="http://www.inkscape.org/namespaces/inkscape"
   version="1.1"
   id="svg292"
   width="512"
   height="512"
   viewBox="0 0 512 512"
   sodipodi:docname="NARC.svg"
   inkscape:version="0.92.4 (5da689c313, 2019-01-14)">
  <metadata
     id="metadata298">
    <rdf:RDF>
      <cc:Work
         rdf:about="">
        <dc:format>image/svg+xml</dc:format>
        <dc:type
           rdf:resource="http://purl.org/dc/dcmitype/StillImage" />
        <dc:title></dc:title>
      </cc:Work>
    </rdf:RDF>
  </metadata>
  <defs
     id="defs296" />
  <sodipodi:namedview
     pagecolor="#ffffff"
     bordercolor="#666666"
     borderopacity="1"
     objecttolerance="10"
     gridtolerance="10"
     guidetolerance="10"
     inkscape:pageopacity="0"
     inkscape:pageshadow="2"
     inkscape:window-width="1366"
     inkscape:window-height="705"
     id="namedview294"
     showgrid="false"
     inkscape:pagecheckerboard="true"
     inkscape:zoom="0.43212893"
     inkscape:cx="927.51509"
     inkscape:cy="261.36197"
     inkscape:window-x="-8"
     inkscape:window-y="-8"
     inkscape:window-maximized="1"
     inkscape:current-layer="svg292" />
  <g
     id="g302"
     transform="matrix(0.93903018,0,0,0.93876871,-0.42133755,-0.56700828)">
    <path
       style="display:inline;fill:#fefefb;stroke-width:1.0666666"
       d="m 103.46666,545.34717 c -1.46667,-0.27259 -2.90667,-0.83058 -3.2,-1.24 -0.293333,-0.40942 -2.495542,-1.317 -4.893796,-2.01682 -11.612298,-3.38859 -19.086845,-18.26951 -24.490213,-48.75705 -0.935785,-5.28 -1.974947,-14.49667 -2.309249,-20.48148 -0.573362,-10.26457 -0.446286,-11.21166 2.241468,-16.70522 2.055094,-4.20046 4.884096,-7.48848 10.149427,-11.79622 12.361842,-10.11361 15.020006,-15.91283 15.029748,-32.7899 0.0069,-11.92353 -2.136901,-24.52907 -5.170135,-30.40063 -3.048813,-5.90173 -9.938993,-12.05579 -21.28726,-19.01302 -29.849016,-18.29942 -56.736651,-43.30275 -56.736651,-52.76054 0,-3.58578 3.600511,-2.60623 9.766604,2.65704 7.704703,6.57662 12.633395,7.61041 12.633395,2.64987 0,-4.50252 -21.509287,-20.29322 -27.6423753,-20.29322 -2.4359911,0 -4.3576229,-3.51927 -4.3576229,-7.98055 0,-1.37959 -0.6,-2.70829 -1.3333332,-2.95268 -1.79492495,-0.59818 -1.93288135,-42.08684 -0.1437667,-43.23601 0.6542617,-0.42025 1.5600203,-1.96409 2.012797,-3.43075 1.6059875,-5.20223 6.7607451,-11.30147 11.8930971,-14.07222 8.462031,-4.56828 15.789304,-6.13554 36.611172,-7.83083 28.488139,-2.31948 36.473855,-4.59477 38.040961,-10.83861 0.393142,-1.56641 0.114467,-11.04033 -0.619277,-21.05317 -3.351546,-45.736 -2.642541,-68.26042 2.732487,-86.808521 6.493534,-22.407826 14.498563,-28.858083 36.180733,-29.153575 7.74366,-0.105536 9.41172,0.234199 14.35208,2.92308 7.95265,4.328371 14.22121,11.998383 20.84115,25.500517 6.53705,13.333109 10.02757,24.578739 13.28746,42.809159 1.24486,6.96162 3.31661,14.8175 4.60391,17.4575 2.09388,4.2942 2.76808,4.83525 6.39805,5.13449 6.01146,0.49556 15.3636,-3.03785 38.85076,-14.67854 22.14542,-10.97568 62.64468,-33.20392 65.33082,-35.85717 1.38505,-1.3681 1.094,-6.92272 -2.44222,-46.609315 -2.20807,-24.780865 -3.99567,-46.083818 -3.97245,-47.339893 0.0353,-1.908104 2.22245,-3.180205 13.29627,-7.7333336 7.28971,-2.9972572 13.96971,-5.4495586 14.84443,-5.4495586 0.87472,0 1.77877,-0.5650917 2.00899,-1.2557594 0.26702,-0.8010724 3.25069,-1.28384739 8.24032,-1.33333323 6.13871,-0.060882 7.89244,0.26670295 8.15035,1.52242603 0.18074,0.8799999 1.59459,4.9599997 3.1419,9.0666658 1.54732,4.106667 5.15149,16.407464 8.00929,27.335104 6.12097,23.405366 7.81827,27.986389 11.41832,30.818195 9.37505,7.374415 35.20367,-3.910316 62.81434,-27.444092 17.92858,-15.281314 29.97261,-20.811156 45.718,-20.990753 17.03049,-0.194256 29.08096,5.50949 44.8216,21.215016 10.5661,10.542544 19.82361,23.590924 25.58651,36.063973 3.7212,8.054035 9.05074,25.854988 9.05586,30.246998 10e-4,1.27111 0.60269,2.51098 1.33602,2.75525 1.79712,0.59865 1.94642,58.08077 0.15386,59.23852 -0.6487,0.41897 -1.49308,2.44178 -1.87637,4.49511 -1.23862,6.63538 -5.82244,14.88834 -11.15298,20.08047 -6.05225,5.89506 -14.1203,10.08909 -30.91873,16.07251 -20.26718,7.21896 -27.76321,11.78682 -42.31404,25.78494 -7.05378,6.78584 -14.38506,13.41853 -16.29173,14.73929 -4.39018,3.04111 -4.41954,5.66093 -0.1395,12.44729 4.01561,6.36708 10.22608,13.52984 28.00238,32.29617 7.40874,7.82137 13.47045,14.58378 13.47045,15.02758 0,1.53643 -24.07895,24.32885 -27.76498,26.2815 -2.30353,1.22028 -5.91757,1.95884 -9.56835,1.95537 -8.92531,-0.009 -16.65179,-4.46885 -47.22059,-27.25965 -24.9417,-18.59548 -25.64612,-18.71545 -46.16521,-7.86238 -39.67317,20.98415 -68.75228,40.98518 -89.11605,61.29533 -13.01363,12.97936 -15.8758,17.85447 -17.69428,30.13851 -2.34911,15.86848 -7.85236,23.64609 -19.22243,27.16656 -3.99897,1.23818 -8.16112,1.4294 -19.07919,0.87652 l -13.96442,-0.70715 -3.73023,4.35795 c -3.81726,4.4596 -6.58166,12.19937 -13.14441,36.80162 -10.6289,39.84537 -31.89329,76.86237 -37.8065,65.81345 -1.72517,-3.22351 1.24106,-11.0741 7.9605,-21.06867 7.15804,-10.64697 7.18984,-12.51549 0.24949,-14.66012 -2.44712,-0.75619 -2.37549,-4.39986 0.15639,-7.95556 6.17698,-8.67477 6.86202,-35.46863 1.51754,-59.35488 -1.68631,-7.5367 -4.72511,-14.75436 -6.7349,-15.99648 -2.12449,-1.313 -5.37485,0.73085 -8.58702,5.39959 -4.00473,5.82067 -7.3707,7.62999 -16.63523,8.94201 -8.46438,1.1987 -12.51877,3.76694 -12.96853,8.21485 -0.41354,4.08965 2.26335,6.49469 9.29276,8.34901 7.30395,1.92675 13.60796,5.76023 21.5695,13.11645 8.35812,7.72266 12.65616,13.61534 12.65616,17.3518 0,1.84261 -1.5853,4.84038 -4.28699,8.10663 -7.24484,8.75875 -9.94014,18.42036 -11.60886,41.61311 -1.5222,21.15648 -3.43224,23.90781 -16.44701,23.6911 -4.79809,-0.0799 -9.9238,-0.36829 -11.39047,-0.64087 z m 20.2045,-26.28084 c 3.63693,-11.47141 4.8978,-18.69163 3.57474,-20.47009 -2.825,-3.79735 -41.971965,-26.06294 -45.823396,-26.06294 -2.752741,0 -4.917648,3.26686 -4.422819,6.67406 0.565299,3.89245 8.642723,8.96068 20.19488,12.67142 12.837255,4.12354 16.219165,6.92345 17.915305,14.83229 0.63623,2.96665 1.15679,9.61027 1.15679,14.76362 0,14.77315 2.18227,14.06335 7.4045,-2.40836 z m 10.85433,-42.14087 c 2.27764,-2.27765 4.14117,-4.88072 4.14117,-5.78461 0,-4.91085 -21.13414,-19.38207 -33.86667,-23.18958 -3.51158,-1.0501 -5.460284,-1.07792 -8.646072,-0.12344 -4.607301,1.38039 -14.02059,9.11058 -14.02059,11.51373 0,2.64958 5.098769,6.47342 16.31215,12.23333 13.864722,7.12183 20.326582,9.40569 26.746672,9.45326 4.63265,0.0344 5.6384,-0.40776 9.33334,-4.10269 z m 86.57542,-69.84493 c 7.21667,-3.05449 7.69908,-4.45801 7.69908,-22.39927 v -16.14795 h 3.73333 c 3.25428,0 3.77566,-0.36623 4.0632,-2.85403 0.95334,-8.2485 -19.23646,-52.76854 -30.14832,-66.4793 -11.8279,-14.86177 -19.43747,-18.97266 -30.80294,-16.64059 -9.22493,1.89285 -18.31194,5.65419 -18.31194,7.57978 0,0.91112 3.88469,3.66056 9.06667,6.41705 11.63512,6.18915 19.41766,11.56809 32,22.11696 16.65089,13.95988 29.94642,29.33593 27.49029,31.79206 -1.6507,1.65071 -11.80814,-5.1975 -33.41436,-22.52816 -21.51447,-17.25708 -31.33822,-24.10126 -34.03839,-23.71447 -3.09902,0.44391 -4.5356,5.79296 -5.9981,22.33375 -1.44132,16.30121 -0.72263,55.86744 1.12612,61.9971 2.58644,8.57551 13.11267,14.69415 31.50111,18.31082 10.08165,1.98288 31.55584,2.11175 36.03425,0.21625 z m -21.10092,-7.60365 c -4.69334,-1.33347 -9.39108,-2.77945 -10.43946,-3.21329 -5.19669,-2.15053 -7.63143,-15.15713 -6.92971,-37.01901 0.28032,-8.73313 1.00219,-16.37096 1.60417,-16.97293 0.74821,-0.74821 1.86124,0.14613 3.51799,2.8268 3.32273,5.37629 7.92301,7.95935 14.1838,7.96421 7.23317,0.005 8.88995,1.22114 10.23912,7.51211 2.36172,11.01232 0.87378,37.06966 -2.28689,40.04879 -1.05789,0.99713 -3.23017,0.74524 -9.88902,-1.14668 z M 111.86185,354.6 c 3.57513,-4.54506 4.68386,-9.68809 4.21276,-19.54168 -0.52166,-10.91075 -3.55889,-18.39098 -8.75356,-21.55858 -4.55971,-2.78043 -5.64046,-2.59369 -9.954092,1.71994 l -3.753036,3.75304 0.498137,9.84696 c 1.025936,20.28023 10.851101,34.55058 17.749791,25.78032 z m -45.08619,-7.41667 c 1.487989,-2.27096 1.655992,-4.60682 1.09324,-15.2 -2.416388,-45.4858 -2.356015,-46.2129 4.824856,-58.1088 5.049746,-8.36545 4.953448,-10.97286 -0.560583,-15.17862 -4.51231,-3.44171 -24.828685,-11.16 -31.427443,-11.93943 -4.204237,-0.49661 -5.299502,-0.22537 -7.089768,1.75576 -3.760085,4.16095 -3.423607,22.42108 0.413154,22.42108 0.488065,0 2.193505,-1.97368 3.789866,-4.38594 4.80919,-7.26717 5.367729,-4.99583 5.485183,22.30596 0.119187,27.70474 1.320843,35.45918 7.430256,47.94836 2.639522,5.39584 4.969831,8.54097 7.705634,10.4 4.911868,3.33769 6.138397,3.33499 8.335605,-0.0183 z m 81.45347,-0.44656 c 2.70657,-5.05727 -1.04707,-12.87012 -6.18338,-12.87012 -5.20994,0 -5.51894,5.82658 -0.61792,11.65112 3.18213,3.78175 5.23304,4.14933 6.8013,1.219 z m 304.69449,-21.00029 c 2.00532,-0.95159 5.79787,-4.12351 8.42787,-7.04869 7.41629,-8.2487 6.96922,-10.65093 -4.01818,-21.59027 -10.92949,-10.88169 -16.11175,-13.27695 -24.57432,-11.35837 -7.23892,1.64116 -30.09235,13.00399 -30.09235,14.96206 0,1.99759 23.64613,18.55935 33.03658,23.13881 8.29435,4.04495 11.86429,4.4381 17.2204,1.89646 z m -178.39423,-7.90124 c 3.71608,-4.4163 4.27505,-8.53087 3.53266,-26.00394 -0.88537,-20.83876 -6.21169,-43.69489 -13.60018,-58.36083 -10.04617,-19.94134 -40.43725,-49.00123 -60.02829,-57.39893 -9.3872,-4.02383 -16.70026,-2.16613 -16.70026,4.24226 0,4.55133 3.06439,7.3446 9.75728,8.89403 7.86024,1.81968 14.26557,5.66194 22.97999,13.78464 24.09966,22.46326 36.35518,48.57055 39.76657,84.71263 2.71545,28.76905 3.95795,33.36155 9.02593,33.36155 1.52631,0 3.63705,-1.29515 5.2663,-3.23141 z M 135.77853,299.33252 c 2.10501,-6.31813 -4.90869,-13.97551 -9.39239,-10.25437 -2.48639,2.06352 -1.87697,5.54961 1.73651,9.93339 3.80724,4.61884 6.19066,4.71877 7.65588,0.32098 z m -34.1207,-1.70905 c 3.80363,-2.41219 5.00883,-3.8238 5.00883,-5.86667 0,-2.16474 -0.52548,-2.69015 -2.6905,-2.69015 -2.95454,0 -12.242832,7.79093 -12.242832,10.26918 0,2.44784 4.622034,1.65037 9.924502,-1.71236 z m 209.3933,-0.68849 c 2.28186,-1.53908 6.18971,-4.66977 8.68411,-6.95708 5.55565,-5.09442 10.02325,-7.36907 10.66892,-5.43204 1.12304,3.36911 4.76417,0.98009 10.58625,-6.94588 6.75498,-9.19595 7.86613,-10.23676 9.34732,-8.75558 2.01532,2.01532 4.77457,0.93964 11.05849,-4.31108 3.51053,-2.93334 6.64233,-5.33334 6.95954,-5.33334 0.31722,0 0.30413,1.68 -0.0291,3.73334 -0.33321,2.05333 -0.24189,3.73333 0.20293,3.73333 0.44482,0 4.70762,-3.96439 9.4729,-8.80978 9.77336,-9.93765 16.63874,-14.08067 25.19746,-15.20581 14.23634,-1.87153 22.74674,-11.39676 22.66071,-25.36288 -0.0743,-12.05957 -12.36409,-31.77884 -23.02103,-36.93777 -9.41402,-4.55728 -21.18786,-2.15783 -39.1063,7.96966 -12.05695,6.81458 -17.90319,9.01325 -23.96614,9.01325 -4.02962,0 -4.70322,-0.38123 -6.4698,-3.66157 -1.61301,-2.99516 -1.74876,-4.15127 -0.7459,-6.35232 1.25709,-2.75899 16.21593,-12.97214 61.58184,-42.04497 35.50374,-22.75265 43.3435,-29.45639 41.74428,-35.69536 -0.86716,-3.38309 -16.06658,-18.519059 -23.3455,-23.248058 -21.86357,-14.204407 -40.71841,-7.664302 -139.46544,48.375848 -39.91338,22.65133 -49.6,28.57188 -49.6,30.316 0,1.24225 6.82963,10.23672 16,21.07163 29.35295,34.68091 38.3071,50.45769 45.9032,80.87921 4.43686,17.76914 6.8847,24.20671 10.89031,28.64045 4.57624,5.06535 8.69407,5.43307 14.79097,1.3208 z M 167.76816,269.96602 c 8.13281,-3.48612 11.69585,-11.21109 13.57543,-29.4327 2.26807,-21.98768 -3.44468,-47.46667 -10.64269,-47.46667 -4.94033,0 -10.41872,10.54532 -13.37311,25.7418 -2.04324,10.50981 -3.28307,35.24774 -2.20074,43.91046 1.18056,9.44889 3.88608,10.99995 12.64111,7.24711 z m -30.37297,-11.0526 c 2.37807,-2.86539 3.81984,-16.83645 3.87816,-37.5801 0.0725,-25.80168 -0.64607,-28.45089 -10.52162,-38.78846 -7.6287,-7.98559 -18.63099,-16.14487 -21.77039,-16.14487 -1.648,0 -2.5018,1.02313 -3.33801,4 -2.02063,7.19332 -3.50033,35.52285 -2.82749,54.13333 0.97312,26.91596 2.42925,30.26995 12.3582,28.46531 7.20868,-1.31022 12.40139,-0.0488 16.4449,3.99466 3.67049,3.67049 4.18236,3.84065 5.77625,1.92013 z m 74.89487,-12.94835 c 11.57815,-6.62796 18.10993,-12.1188 18.10993,-15.22384 0,-2.9305 -3.95847,-8.53272 -8.75801,-12.39477 -4.62496,-3.72157 -12.72659,-5.02629 -17.90121,-2.88289 -4.38832,1.8177 -9.239,7.59247 -10.82554,12.88788 -1.59259,5.31557 0.24784,18.40844 3.01787,21.46929 2.71479,2.99981 5.54802,2.33196 16.35696,-3.85567 z m -129.855805,2.17239 c 4.805862,-2.04776 8.484086,-6.32556 8.053606,-9.36642 -0.768336,-5.42744 -15.206541,-9.05645 -40.363821,-10.14534 -10.377523,-0.44917 -15.898254,-0.30492 -16.350741,0.42721 -1.075952,1.74093 1.200876,2.94665 12.626698,6.68658 11.357745,3.71767 18.188813,6.81946 24.5997,11.17 4.522491,3.06904 6.592114,3.29131 11.434558,1.22797 z M 137.44695,147.69841 c 1.76585,-1.48586 3.78171,-4.43194 4.47969,-6.54683 1.41863,-4.2985 0.70528,-13.61093 -1.22038,-15.93119 -1.77216,-2.13532 -7.33946,-1.82467 -11.37293,0.63458 -4.6615,2.84216 -4.56159,5.92407 0.26666,8.2265 2.05334,0.97917 3.73334,2.51832 3.73334,3.42032 0,0.90202 -2.00459,3.36651 -4.45465,5.47664 -5.56106,4.78954 -5.157,7.42156 1.13933,7.42156 2.95783,0 5.17766,-0.80725 7.42894,-2.70158 z m 27.45076,0.46027 c 1.40403,-1.55144 1.96702,-3.60345 1.82904,-6.66667 -0.29093,-6.45896 -8.53265,-39.60183 -11.09867,-44.631652 -6.9059,-13.536687 -25.63407,-22.708244 -38.99535,-19.096794 -5.36202,1.449314 -14.56749,9.420091 -17.485845,15.140534 -4.614619,9.045402 -1.401293,17.607942 7.032365,18.739142 3.2721,0.43888 4.67537,0.13685 5.83041,-1.25488 1.63115,-1.96544 1.60899,-1.99297 -5.82632,-7.23816 -3.49027,-2.46219 -3.43953,-4.494308 0.17125,-6.858949 2.38338,-1.560831 5.22535,-1.886652 16.26666,-1.864897 20.91471,0.0412 22.1192,1.38061 24.50951,27.254826 1.34493,14.5584 3.34128,22.00075 6.94438,25.88856 3.23492,3.49054 7.96377,3.74787 10.82257,0.58894 z m 264.18283,-5.60152 c 7.63024,-4.95003 13.30398,-10.99929 11.76238,-12.54089 -2.50042,-2.50042 -23.77628,11.64487 -23.77628,15.80771 0,2.49565 5.39098,1.02974 12.0139,-3.26682 z m 109.36844,-5.16672 C 539.51904,117.36509 523.14039,72.698204 509.21006,57.651777 492.62688,39.739971 451.19997,20.606009 451.19997,30.858501 c 0,2.298342 5.85175,5.487533 14.99874,8.174294 18.85661,5.538778 35.14618,21.610844 47.98918,47.34843 5.58902,11.20047 8.52414,19.003045 13.34082,35.464585 6.66542,22.77976 10.26023,27.89685 10.92027,15.54463 z m -429.63238,3.92287 c 1.10249,-1.32841 0.98201,-2.02113 -0.6694,-3.84861 -2.70184,-2.98995 -11.991816,-7.61925 -13.855184,-6.90421 -2.397515,0.92001 -1.725741,4.29004 1.441311,7.2305 5.670453,5.26475 10.547483,6.57776 13.083273,3.52232 z m 355.18337,-19.27889 c 10.3836,-5.56964 20.26667,-12.83623 20.26667,-14.90119 0,-2.68794 -2.19292,-2.72901 -7.83335,-0.14674 -12.079,5.52995 -26.2823,16.31993 -24.74878,18.8012 1.14954,1.86 2.77283,1.36529 12.31546,-3.75327 z m 0.63504,-20.04506 c 16.9422,-8.045813 32.43163,-21.038533 32.43163,-27.204045 0,-3.791075 -5.20581,-8.651986 -9.26587,-8.651986 -9.37607,0 -41.93413,27.609082 -41.93413,35.559961 0,6.19983 6.13301,6.29658 18.76837,0.29607 z m -154.98206,-0.28105 c 20.21738,-10.413707 32.74703,-21.737321 32.74703,-29.594975 0,-3.22074 -8.93104,-43.610642 -10.63885,-48.113336 -1.81816,-4.793652 -6.4126,-11.051408 -8.63082,-11.755445 -3.11729,-0.989391 -10.85699,1.550866 -14.16135,4.647921 -7.09498,6.649853 -9.23564,15.429788 -9.23564,37.880137 0,18.570814 1.79934,43.943579 3.3175,46.780268 1.26485,2.3634 2.2696,2.38706 6.60213,0.15543 z"
       id="path304"
       inkscape:connector-curvature="0" />
  </g>
</svg>
