<?xml version="1.0" encoding="iso-8859-1"?>
<!-- Generator: Adobe Illustrator 19.0.0, SVG Export Plug-In . SVG Version: 6.00 Build 0)  -->
<svg version="1.1" id="Layer_1" xmlns="http://www.w3.org/2000/svg" xmlns:xlink="http://www.w3.org/1999/xlink" x="0px" y="0px"
	 viewBox="0 0 496.158 496.158" style="enable-background:new 0 0 496.158 496.158;" xml:space="preserve">
<path style="fill:#978874;" d="M248.082,0.003C111.07,0.003,0,111.062,0,248.085c0,137,111.07,248.07,248.082,248.07
	c137.006,0,248.076-111.07,248.076-248.07C496.158,111.062,385.088,0.003,248.082,0.003z"/>
<path style="fill:#FFFFFF;" d="M263.459,173.627c2.115-1.302,5.938-1.954,11.473-1.954v-6.347h-53.705v6.347
	c5.534,0,9.356,0.652,11.474,1.954c2.115,1.302,3.173,4.231,3.173,8.788v132.307c0,3.582-1.058,6.103-3.173,7.567
	c-2.117,1.464-5.939,2.197-11.474,2.197v6.347h53.705v-6.347c-5.534,0-9.357-0.732-11.473-2.197
	c-2.118-1.464-3.174-3.986-3.174-7.567V182.414C260.285,177.858,261.341,174.928,263.459,173.627z"/>
<path style="fill:none;stroke:#FFFFFF;stroke-width:2;stroke-linecap:round;stroke-linejoin:round;stroke-miterlimit:10;" d="
	M263.459,173.627c2.115-1.302,5.938-1.954,11.473-1.954v-6.347h-53.705v6.347c5.534,0,9.356,0.652,11.474,1.954
	c2.115,1.302,3.173,4.231,3.173,8.788v132.307c0,3.582-1.058,6.103-3.173,7.567c-2.117,1.464-5.939,2.197-11.474,2.197v6.347h53.705
	v-6.347c-5.534,0-9.357-0.732-11.473-2.197c-2.118-1.464-3.174-3.986-3.174-7.567V182.414
	C260.285,177.858,261.341,174.928,263.459,173.627z"/>
<g>
</g>
<g>
</g>
<g>
</g>
<g>
</g>
<g>
</g>
<g>
</g>
<g>
</g>
<g>
</g>
<g>
</g>
<g>
</g>
<g>
</g>
<g>
</g>
<g>
</g>
<g>
</g>
<g>
</g>
</svg>
