<?xml version="1.0" encoding="UTF-8"?>
<!DOCTYPE svg PUBLIC "-//W3C//DTD SVG 1.1//EN" "http://www.w3.org/Graphics/SVG/1.1/DTD/svg11.dtd">
<!-- Creator: CorelDRAW 2019 (64-Bit) -->
<svg xmlns="http://www.w3.org/2000/svg" xml:space="preserve" width="512px" height="512px" version="1.1" style="shape-rendering:geometricPrecision; text-rendering:geometricPrecision; image-rendering:optimizeQuality; fill-rule:evenodd; clip-rule:evenodd"
viewBox="0 0 512 512"
 xmlns:xlink="http://www.w3.org/1999/xlink"
 xmlns:xodm="http://www.corel.com/coreldraw/odm/2003"
 xmlns:rdf="http://www.w3.org/1999/02/22-rdf-syntax-ns#"
 xmlns:cc="http://web.resource.org/cc/"
 xmlns:dc="http://purl.org/dc/elements/1.1/"
 xmlns:svg="http://www.w3.org/2000/svg">
 <defs>
  <style type="text/css">
   <![CDATA[
    .fil0 {fill:none}
    .fil2 {fill:#CCCCCC}
    .fil1 {fill:white}
   ]]>
  </style>
 </defs>
 <g id="Layer_x0020_1">
  <metadata id="CorelCorpID_0Corel-Layer"/>
  <rect class="fil0" width="512" height="512"/>
  <path class="fil1" d="M367.16 430.14l96.36 58.38 48.48 8.65 0 -254.08 -181.06 -62c-1.1,4.23 -2.22,8.12 -2.88,11.02 -2.82,12.68 -7.38,11.63 -7.06,16.73 0.22,3.58 0.86,0.51 -0.53,4.4l-4.36 13.28c-13.41,6.61 -27.09,7.52 -47.71,7.82l-19.89 42.45 -15.78 33.66 -9.95 21.23 -7.93 37.74 154.94 52.72 -2.63 8zm-33.83 -259.69l178.67 61.18 0 -190.64 -77.01 -26.44 -22.7 27.42c-9.78,11.85 -18.64,22.54 -26.69,32.17l-143.38 -55.46c-10.92,-4.22 -23.31,1.26 -27.54,12.18l0 0.01c-4.23,10.92 1.25,23.31 12.18,27.54l129.53 50.09c-18.78,21.58 -31.01,34.23 -39.92,41.25 3.13,0.97 6.69,1.93 11.41,2.37 6.83,0.64 7.08,8.99 5.45,18.33l0 0zm-118.66 210.5l-2.37 13.01 148.71 50.67 3.63 -12.6 -149.97 -51.08zm-4.36 23.95l-1.79 9.81 146.71 50 2.73 -9.5 -147.65 -50.31zm-3.78 20.74l-1.9 10.45 144.85 48.57 2.7 -9.36 -145.65 -49.66zm28.47 -402.05c7.84,0 14.2,6.36 14.2,14.2 0,7.84 -6.36,14.19 -14.2,14.19 -7.84,0 -14.19,-6.35 -14.19,-14.19 0,-7.84 6.35,-14.2 14.19,-14.2z"/>
  <path class="fil2" d="M260.7 250.79c-3.1,0.08 -5.85,0.79 -10.26,0.14 -15.18,-2.23 -36.92,-22.18 -47.49,-10.68 -1.7,-2.09 -2.64,-4.37 -6.1,-5.42 -1.41,-0.43 -7.4,-2.31 -8.52,-2.18 0.27,-0.48 0.52,-0.81 0.78,-1.05 -0.26,-0.03 -0.46,-0.04 -0.59,-0.03 1.55,-2.79 2.72,-0.69 5.72,-3.05 9.86,-7.74 7.13,-9.86 22.48,-13.19 9.08,-1.97 5.99,-12.99 18.76,-7.73 2.27,0.94 1.56,7.21 2.87,10.2 4.76,10.87 17.29,14.64 26.42,14.98l1.79 1.59 1.84 -0.03c20.62,-0.3 34.3,-1.21 47.71,-7.82l4.36 -13.28c1.39,-3.89 0.75,-0.82 0.53,-4.4 -0.32,-5.1 4.24,-4.05 7.06,-16.73 0.66,-2.9 1.78,-6.79 2.88,-11.02l0.04 -0.16 0.04 -0.16 0.04 -0.16 0.04 -0.17 0.05 -0.16 0 0 0.04 -0.16 0.04 -0.17 0.04 -0.16 0.04 -0.16 0.04 -0.17 0 0 0.05 -0.16 0 0 0.04 -0.17 0.04 -0.16 0.04 -0.17 0 0 0.04 -0.16 0 0 0.04 -0.17 0 0 0.04 -0.16 0 0 0.04 -0.17 0.04 -0.17 0.08 -0.33 0.04 -0.17 0.04 -0.16 0 0 0.04 -0.17 0 0 0.04 -0.17 0.04 -0.16 0.04 -0.17 0.04 -0.17 0.04 -0.16 0.04 -0.17 0 0 0.04 -0.17 0 0 0.04 -0.17 0 0 0.03 -0.17 0.04 -0.16 0 0 0.08 -0.34 0 0 0.03 -0.17 0.01 0 0.07 -0.33 0.04 -0.17 0 0 0.07 -0.34 0 0 0.03 -0.16 0 0 0.07 -0.34 0.01 0 0.03 -0.17 0.03 -0.16 0.01 0 0.03 -0.17 0 0 0.07 -0.34 0 0 0.03 -0.16 0.03 -0.17 0.01 0 0.06 -0.33 0 0 0.03 -0.17 0 0 0.03 -0.17 0.01 0 0.02 -0.16 0.01 0 0.03 -0.17 0 0 0.03 -0.17 0 0 0.03 -0.16 0 0 0.03 -0.17 0 0 0.03 -0.17 0 0 0.03 -0.16 0 0 0.03 -0.17 0 0c1.63,-9.34 1.38,-17.69 -5.45,-18.33 -4.72,-0.44 -8.28,-1.4 -11.41,-2.37 -7.34,-2.26 -12.3,-4.53 -24.4,-0.04 -12.53,4.65 -39.54,1.22 -44.11,-0.73 -18.11,-7.74 -25.68,0.5 -44.22,4.24 -3.36,0.68 -17.32,5.17 -20,4.8 0.39,-0.43 0.78,-0.86 1.18,-1.28 -19.9,2.67 -12.07,-4.03 -27.07,6.58l-14.53 10.79c-1.56,-1.92 -3.09,-3.96 -5.63,-5.3 0.57,-3.27 0.11,-2.52 -3.41,-5.95 -5.68,-5.54 -5.21,-10.92 -9.94,-18.02 0.05,-0.05 0.1,-0.1 0.15,-0.15 -0.16,-0.24 -0.31,-0.47 -0.48,-0.71 5.53,-6.11 20.64,-10.38 25.02,-21.93 1.22,-3.2 0.42,-3.02 1.2,-6.19 8.18,-13.31 4.94,-13.44 8,-16.19 1.89,-9.21 5.59,-3.07 11.99,-20.86 -2.28,-10.97 -9.31,16.68 -15.88,0.07 -4.33,-2.14 -12.95,-10.15 10.26,-10.71l-0.79 -3.96c-1.06,-5.32 -23.02,1.71 -30.4,6.03 -5.28,3.09 -3.06,1.47 -7.16,-0.25 -0.59,-0.24 -3.42,-0.04 -5.37,-0.43 -1.11,-0.22 -2.24,-0.63 -3.37,-1.09 -12.73,1.41 -33.47,25.97 -42.43,39.55 -5.1,13.35 -5.11,7.69 -10.1,25.88 -6.48,0.72 -10.59,-1.25 -18.38,3.13 -4.28,2.41 -9.24,3.78 -12.58,12.43 -0.73,1.94 -0.89,3.75 -1.91,7.4 -3.47,12.35 -2.99,20.65 0.12,33.09 -11.98,3.42 -20.05,28.49 -22.73,41.06 -4.16,22.8 4.23,33.13 24.84,46.21 6.04,3.84 -2.8,23.35 -3.15,27.51 -1.17,13.84 -21.39,45.67 5.56,53.92 6.07,1.79 12.66,0.73 16.74,-4.77 1.54,-2.08 8.9,-23.6 10.23,-28.07 2.88,-9.59 5.74,-5.64 9.97,-24.45 2.67,-11.9 5.39,-18.91 3.59,-28.85 -3.13,-17.33 -12.06,-14.45 -11.83,-20.89 0.02,0.01 0.04,0.02 0.07,0.03 0,-0.1 0,-0.19 0.01,-0.29 5.48,2.26 17.02,10.24 24.4,0.7 3.63,-4.7 2.67,-2.31 7.37,-4.66l7.26 -4.91c0.06,0.22 0.1,0.44 0.16,0.66 6.56,3.52 6.03,3.75 15.82,2.2 -3.08,5.89 -7.88,7.22 -2.94,22.3 2.97,9.07 23.95,21.62 32.51,25.19 0.06,-0.56 0.17,-1.18 0.35,-1.89l9.7 5.33c6.38,2.18 24.68,-0.33 32.52,-3.37 2.71,-1.05 6.96,-3.51 10.22,-2.5 -4.21,16.98 20.59,19.44 29.83,20.04l27.97 -59.66zm-220.69 87.26c-13.48,-7.6 -18.78,6.14 -5.3,13.74 13.49,7.6 18.79,-6.13 5.3,-13.74zm29.8 -161.92l-24.68 25.8 -2.98 -9 20.19 -18.92 -0.32 -32.58 9.08 5.11 -1.29 29.59z"/>
 </g>
</svg>
