<svg id="svg" version="1.1" xmlns="http://www.w3.org/2000/svg" xmlns:xlink="http://www.w3.org/1999/xlink" width="400" height="400" viewBox="0, 0, 400,400"><g id="svgg"><path id="path0" d="M256.203 111.713 C 255.325 112.421,254.014 113.585,253.290 114.300 C 252.566 115.015,251.827 115.600,251.649 115.600 C 251.470 115.600,250.302 116.590,249.053 117.800 C 247.804 119.010,246.698 120.000,246.595 120.000 C 246.353 120.000,244.829 121.252,244.251 121.926 C 243.065 123.310,241.445 124.800,241.127 124.800 C 240.933 124.800,240.159 125.385,239.408 126.100 C 237.828 127.605,237.492 127.878,235.600 129.198 C 234.830 129.735,233.539 130.855,232.731 131.687 C 231.924 132.519,231.149 133.200,231.010 133.200 C 230.870 133.200,230.181 133.739,229.478 134.398 C 228.775 135.057,228.077 135.597,227.927 135.598 C 227.777 135.599,227.549 135.931,227.420 136.336 C 227.292 136.741,226.695 137.326,226.093 137.636 C 225.492 137.946,224.157 139.055,223.126 140.100 C 222.095 141.145,221.060 142.000,220.826 142.000 C 220.592 142.000,220.400 142.180,220.400 142.400 C 220.400 142.620,220.221 142.800,220.003 142.800 C 219.616 142.800,218.345 143.782,216.638 145.400 C 216.174 145.840,215.166 146.678,214.397 147.262 C 213.629 147.847,212.325 148.972,211.499 149.762 C 210.674 150.553,209.910 151.200,209.802 151.200 C 209.694 151.200,208.508 152.280,207.168 153.600 C 205.827 154.920,204.554 156.000,204.339 156.000 C 204.124 156.000,203.071 156.900,202.000 158.000 C 200.929 159.100,199.883 160.000,199.676 160.000 C 199.469 160.000,197.995 161.170,196.400 162.600 L 193.500 165.200 138.750 165.200 L 84.000 165.200 84.000 200.000 L 84.000 234.800 136.800 234.800 C 171.733 234.800,189.600 234.935,189.600 235.200 C 189.600 235.420,189.884 235.600,190.231 235.600 C 190.579 235.600,191.554 236.320,192.400 237.200 C 193.246 238.080,194.053 238.800,194.195 238.800 C 194.337 238.800,195.116 239.428,195.927 240.197 C 196.737 240.965,197.603 241.595,197.852 241.597 C 198.100 241.598,199.045 242.320,199.952 243.200 C 200.859 244.080,201.759 244.800,201.952 244.800 C 202.145 244.800,203.045 245.520,203.952 246.400 C 204.859 247.280,205.759 248.000,205.952 248.000 C 206.145 248.000,207.045 248.720,207.952 249.600 C 208.859 250.480,209.736 251.209,209.900 251.220 C 210.065 251.230,210.920 251.949,211.800 252.817 C 212.680 253.684,213.537 254.396,213.704 254.397 C 213.871 254.399,214.550 254.918,215.212 255.552 C 215.875 256.185,217.175 257.220,218.100 257.852 C 219.025 258.483,220.308 259.495,220.950 260.100 C 221.593 260.705,222.272 261.200,222.459 261.200 C 222.646 261.200,223.541 261.920,224.448 262.800 C 225.355 263.680,226.239 264.400,226.414 264.400 C 226.588 264.400,227.360 264.985,228.128 265.700 C 230.544 267.948,231.765 268.979,233.204 269.986 C 233.972 270.523,234.870 271.249,235.200 271.600 C 235.530 271.951,236.430 272.675,237.200 273.208 C 238.727 274.266,238.837 274.350,240.600 275.807 C 241.260 276.353,241.938 276.799,242.107 276.800 C 242.276 276.800,243.020 277.385,243.760 278.100 C 246.589 280.833,248.428 282.400,248.807 282.400 C 249.023 282.400,249.200 282.580,249.200 282.800 C 249.200 283.020,249.386 283.200,249.613 283.200 C 249.841 283.200,250.657 283.830,251.427 284.600 C 252.197 285.370,252.986 286.000,253.181 286.000 C 253.375 286.000,254.284 286.720,255.201 287.601 C 257.617 289.923,260.327 290.108,261.128 288.006 C 261.255 287.673,261.684 287.051,262.080 286.625 C 262.476 286.198,262.800 285.444,262.800 284.948 C 262.800 284.453,262.980 283.936,263.200 283.800 C 263.460 283.640,263.600 274.996,263.600 259.176 L 263.600 234.800 293.400 234.800 C 319.622 234.800,323.200 234.872,323.200 235.400 C 323.200 235.730,323.380 236.000,323.600 236.000 C 323.820 236.000,324.000 236.198,324.000 236.440 C 324.000 236.681,324.540 237.383,325.200 238.000 C 325.860 238.617,326.400 239.236,326.400 239.377 C 326.400 239.660,326.931 240.337,328.300 241.801 C 328.795 242.330,329.200 242.930,329.200 243.134 C 329.200 243.337,329.920 244.245,330.800 245.152 C 331.680 246.059,332.400 246.943,332.400 247.116 C 332.400 247.290,333.120 248.228,334.000 249.200 C 334.880 250.172,335.600 251.128,335.600 251.324 C 335.600 251.519,336.102 252.156,336.715 252.740 C 337.329 253.323,338.265 254.430,338.796 255.200 C 339.328 255.970,340.086 256.891,340.481 257.247 C 340.876 257.603,341.200 258.026,341.200 258.186 C 341.200 258.347,341.713 258.958,342.341 259.545 C 342.968 260.131,343.760 261.148,344.100 261.805 C 344.441 262.462,345.232 263.543,345.860 264.207 C 346.487 264.871,347.255 265.906,347.568 266.507 L 348.135 267.600 366.468 267.600 L 384.800 267.600 384.800 244.680 C 384.800 220.432,384.771 220.800,386.656 220.800 C 387.149 220.800,387.664 220.620,387.800 220.400 C 387.936 220.180,388.667 220.000,389.424 220.000 C 390.181 220.000,390.800 219.820,390.800 219.600 C 390.800 219.380,391.340 219.200,392.000 219.200 C 392.660 219.200,393.200 219.020,393.200 218.800 C 393.200 218.580,393.785 218.394,394.500 218.387 C 396.298 218.370,398.000 216.725,398.000 215.005 C 398.000 214.672,398.180 214.400,398.400 214.400 C 398.620 214.400,398.800 213.875,398.800 213.233 C 398.800 212.592,399.025 211.992,399.300 211.900 C 399.684 211.772,399.800 209.111,399.800 200.400 C 399.800 191.689,399.684 189.028,399.300 188.900 C 399.025 188.808,398.800 188.309,398.800 187.790 C 398.800 187.272,398.620 186.736,398.400 186.600 C 398.180 186.464,398.000 186.003,398.000 185.576 C 398.000 185.149,397.820 184.800,397.600 184.800 C 397.380 184.800,397.200 184.517,397.200 184.171 C 397.200 183.335,396.227 182.400,395.357 182.400 C 394.581 182.400,392.184 181.696,391.105 181.151 C 390.723 180.958,390.059 180.800,389.629 180.800 C 389.199 180.800,388.736 180.620,388.600 180.400 C 388.464 180.180,387.868 179.994,387.276 179.987 C 384.646 179.956,384.800 181.630,384.800 153.056 L 384.800 127.200 366.820 127.200 L 348.841 127.200 347.622 128.500 C 346.952 129.215,346.403 129.947,346.402 130.127 C 346.401 130.306,345.772 131.116,345.003 131.927 C 344.235 132.737,343.605 133.625,343.603 133.900 C 343.602 134.174,342.880 135.141,342.000 136.048 C 341.120 136.955,340.400 137.861,340.400 138.062 C 340.400 138.262,339.770 139.057,339.000 139.827 C 338.230 140.597,337.600 141.395,337.600 141.600 C 337.600 141.805,336.970 142.603,336.200 143.373 C 335.430 144.143,334.800 144.869,334.800 144.986 C 334.800 145.103,334.080 145.963,333.200 146.897 C 332.320 147.831,331.600 148.756,331.600 148.951 C 331.600 149.146,331.276 149.597,330.881 149.953 C 330.486 150.309,329.727 151.230,329.194 152.000 C 328.662 152.770,328.040 153.619,327.813 153.886 C 326.578 155.339,326.400 155.597,326.400 155.935 C 326.400 156.138,325.680 157.045,324.800 157.952 C 323.920 158.859,323.200 159.699,323.200 159.819 C 323.200 159.938,322.795 160.456,322.300 160.968 C 321.042 162.270,320.000 163.568,320.000 163.833 C 320.000 165.168,319.321 165.200,291.229 165.200 L 263.600 165.200 263.600 140.800 C 263.600 124.800,263.462 116.400,263.200 116.400 C 262.980 116.400,262.800 115.894,262.800 115.275 C 262.800 114.657,262.440 113.764,262.000 113.292 C 261.560 112.820,261.200 112.320,261.200 112.181 C 261.200 110.396,258.187 110.115,256.203 111.713 M62.400 166.400 C 62.400 166.637,60.933 166.800,58.800 166.800 C 56.667 166.800,55.200 166.963,55.200 167.200 C 55.200 167.420,54.221 167.600,53.024 167.600 C 51.827 167.600,50.736 167.780,50.600 168.000 C 50.464 168.220,49.589 168.400,48.656 168.400 C 47.723 168.400,46.789 168.563,46.580 168.761 C 46.371 168.960,45.390 169.222,44.400 169.343 C 41.057 169.752,39.600 170.086,39.600 170.444 C 39.600 170.640,38.880 170.800,38.000 170.800 C 37.120 170.800,36.400 170.980,36.400 171.200 C 36.400 171.420,35.871 171.600,35.224 171.600 C 34.577 171.600,33.936 171.780,33.800 172.000 C 33.664 172.220,32.933 172.400,32.176 172.400 C 31.419 172.400,30.800 172.580,30.800 172.800 C 30.800 173.020,30.445 173.200,30.012 173.200 C 29.579 173.200,28.583 173.560,27.800 174.000 C 27.017 174.440,26.021 174.800,25.588 174.800 C 25.155 174.800,24.800 174.980,24.800 175.200 C 24.800 175.420,24.451 175.600,24.024 175.600 C 23.597 175.600,23.136 175.780,23.000 176.000 C 22.864 176.220,22.313 176.400,21.776 176.400 C 21.239 176.400,20.800 176.558,20.800 176.750 C 20.800 176.942,20.284 177.203,19.652 177.330 C 19.021 177.456,17.573 178.108,16.435 178.780 C 15.296 179.451,14.193 180.000,13.982 180.000 C 13.772 180.000,13.600 180.136,13.600 180.302 C 13.600 180.469,13.015 180.862,12.300 181.175 C 11.585 181.489,10.523 182.253,9.940 182.873 C 9.356 183.493,8.677 184.000,8.431 184.000 C 7.805 184.000,3.600 188.268,3.600 188.903 C 3.600 189.189,3.240 189.683,2.800 190.000 C 2.360 190.317,2.000 190.814,2.000 191.105 C 2.000 191.396,1.647 192.012,1.216 192.475 C -0.677 194.507,-0.255 208.377,1.700 208.397 C 1.865 208.399,2.000 208.630,2.000 208.912 C 2.000 209.193,2.360 209.683,2.800 210.000 C 3.240 210.317,3.600 210.811,3.600 211.097 C 3.600 211.732,7.805 216.000,8.431 216.000 C 8.677 216.000,9.356 216.495,9.940 217.100 C 10.523 217.705,11.540 218.470,12.200 218.799 C 12.860 219.129,13.490 219.489,13.600 219.599 C 13.994 219.995,16.213 221.254,16.900 221.471 C 17.285 221.593,17.600 221.852,17.600 222.047 C 17.600 222.241,17.960 222.400,18.400 222.400 C 18.840 222.400,19.200 222.580,19.200 222.800 C 19.200 223.020,19.472 223.200,19.805 223.200 C 20.138 223.200,20.768 223.380,21.205 223.600 C 23.140 224.574,23.502 224.715,24.800 225.000 C 26.098 225.285,26.460 225.426,28.395 226.400 C 28.832 226.620,29.552 226.800,29.995 226.800 C 30.438 226.800,30.800 226.980,30.800 227.200 C 30.800 227.420,31.419 227.600,32.176 227.600 C 32.933 227.600,33.664 227.780,33.800 228.000 C 33.936 228.220,34.577 228.400,35.224 228.400 C 35.871 228.400,36.400 228.580,36.400 228.800 C 36.400 229.020,37.120 229.200,38.000 229.200 C 38.880 229.200,39.600 229.380,39.600 229.600 C 39.600 229.820,40.140 230.000,40.800 230.000 C 41.460 230.000,42.000 230.180,42.000 230.400 C 42.000 230.620,42.990 230.800,44.200 230.800 C 45.410 230.800,46.400 230.980,46.400 231.200 C 46.400 231.420,47.300 231.600,48.400 231.600 C 49.500 231.600,50.400 231.780,50.400 232.000 C 50.400 232.220,51.289 232.400,52.376 232.400 C 53.463 232.400,54.464 232.580,54.600 232.800 C 54.737 233.021,56.537 233.200,58.624 233.200 C 60.875 233.200,62.400 233.362,62.400 233.600 C 62.400 233.841,64.067 234.000,66.600 234.000 L 70.800 234.000 70.800 200.000 L 70.800 166.000 66.600 166.000 C 64.067 166.000,62.400 166.159,62.400 166.400 " stroke="none" fill="#fafafa" fill-rule="evenodd"></path><path id="path1" d="" stroke="none" fill="#ffffff" fill-rule="evenodd"></path><path id="path2" d="" stroke="none" fill="#ffffff" fill-rule="evenodd"></path><path id="path3" d="" stroke="none" fill="#ffffff" fill-rule="evenodd"></path><path id="path4" d="" stroke="none" fill="#ffffff" fill-rule="evenodd"></path></g></svg>