<svg id="Layer_3" enable-background="new 0 0 64 64" height="512" viewBox="0 0 64 64" width="512" xmlns="http://www.w3.org/2000/svg"><g><g><path d="m26 20-8 18h-16l8-18-5-5v-9h53v14z" fill="#444950"/></g><g><path d="m5 15 5 5-4.442 9.994c2.999 1.282 6.372 2.006 9.942 2.006 1.87 0 3.685-.201 5.422-.574l5.078-11.426h10.273c1.111-2.309 1.727-4.842 1.727-7.5 0-2.28-.456-4.466-1.285-6.5h-31.715z" fill="#8f9296"/></g><g><path d="m58 8h4v6h-4z" fill="#a8b0bc"/></g><g><path d="m56 6c0-2.209-1.791-4-4-4h-4v4z" fill="#a8b0bc"/></g><g><path d="m4 38-2 4h12l2-4z" fill="#a8b0bc"/></g><g><path d="m24.222 24h31.778v-4h-30z" fill="#a8b0bc"/></g><g><path d="m6.444 28h5.556l3-6h-5.889z" fill="#ebf7fe"/></g><g><path d="m20 6h26v4h-26z" fill="#ebf7fe"/></g><g><path d="m31 46-4-6-2 6-7-2 2 5-3 2 3 3-2 6 7-2 5 4 1-5h6l-3-4 3-6z" fill="#a8b0bc"/></g><g><path d="m32 55c-6.599 0-11.951-4.662-11.996-10.427l4.996 1.427 2-6 4 6 6 1-3 6 1.207 1.609c-1.022.248-2.095.391-3.207.391z" fill="#cbd0d7"/></g><g><circle cx="27" cy="52" fill="#ebf7fe" r="3"/></g><g><path d="m48 36 4-6 2 6 7-2-2 5 3 2-3 3 2 6-7-2-5 4-1-5h-6l3-4-3-6z" fill="#a8b0bc"/></g><g><path d="m47 45c6.599 0 11.951-4.662 11.996-10.427l-4.996 1.427-2-6-4 6-6 1 3 6-1.207 1.609c1.022.248 2.095.391 3.207.391z" fill="#cbd0d7"/></g><g><circle cx="52" cy="42" fill="#ebf7fe" r="3"/></g><g><path d="m18 39h-16c-.338 0-.654-.171-.838-.455s-.213-.642-.075-.951l7.721-17.372-4.514-4.515c-.189-.187-.294-.441-.294-.707v-9c0-.553.448-1 1-1h53c.552 0 1 .447 1 1v14c0 .553-.448 1-1 1h-31.35l-7.736 17.406c-.161.362-.519.594-.914.594zm-14.461-2h13.811l7.736-17.406c.161-.362.519-.594.914-.594h31v-12h-51v7.586l4.707 4.707c.292.293.375.735.207 1.113z"/></g><g><path d="m62 15h-4v-2h3v-4h-3v-2h4c.552 0 1 .447 1 1v6c0 .553-.448 1-1 1z"/></g><g><path d="m25 23.764h2v4.472h-2z" transform="matrix(.894 -.447 .447 .894 -8.883 14.372)"/></g><g><path d="m56 25h-31v-2h30v-3h2v4c0 .553-.448 1-1 1z"/></g><g><path d="m26 32h-5v-2h5c1.654 0 3-1.346 3-3v-3h2v3c0 2.757-2.243 5-5 5z"/></g><g><path d="m14 43h-12c-.347 0-.668-.18-.851-.475s-.199-.663-.044-.973l2-4 1.789.895-1.276 2.553h9.764l1.724-3.447 1.789.895-2 4c-.17.338-.516.552-.895.552z"/></g><g><path d="m57 6h-2c0-1.654-1.346-3-3-3h-3v3h-2v-4c0-.553.448-1 1-1h4c2.757 0 5 2.243 5 5z"/></g><g><path d="m46 11h-26c-.552 0-1-.447-1-1v-4h2v3h24v-3h2v4c0 .553-.448 1-1 1z"/></g><g><path d="m4 33h16v2h-16z"/></g><g><path d="m6 15h52v2h-52z"/></g><g><path d="m12 29h-5v-2h4.382l2-4h-4.382v-2h6c.347 0 .668.18.851.475s.199.663.044.973l-3 6c-.17.338-.516.552-.895.552z"/></g><g><path d="m52 46c-2.206 0-4-1.794-4-4s1.794-4 4-4 4 1.794 4 4-1.794 4-4 4zm0-6c-1.103 0-2 .897-2 2s.897 2 2 2 2-.897 2-2-.897-2-2-2z"/></g><g><path d="m49 53c-.115 0-.231-.02-.342-.061-.328-.119-.57-.401-.638-.743l-.84-4.196h-5.18c-.379 0-.725-.214-.895-.553s-.132-.744.095-1.047l2.629-3.506-2.724-5.447c-.142-.284-.141-.618.003-.901.144-.282.414-.48.727-.532l5.573-.929 3.76-5.64c.211-.317.585-.488.965-.437.378.051.695.312.816.675l1.697 5.092 6.079-1.737c.366-.103.761.009 1.017.292s.328.688.187 1.041l-1.699 4.247 2.325 1.55c.25.166.411.436.44.733s-.076.594-.288.806l-2.563 2.563 1.805 5.413c.117.353.03.74-.227 1.008-.256.269-.641.369-.997.271l-6.503-1.858-4.597 3.678c-.18.143-.401.218-.625.218zm-5-7h4c.477 0 .887.337.98.804l.678 3.389 3.717-2.974c.252-.202.586-.268.899-.181l5.177 1.479-1.4-4.201c-.12-.359-.026-.756.242-1.023l2.137-2.138-1.985-1.323c-.394-.263-.549-.765-.374-1.203l1.243-3.107-5.04 1.44c-.514.142-1.054-.138-1.224-.646l-1.354-4.061-2.866 4.299c-.153.23-.395.387-.667.432l-4.663.778 2.395 4.789c.169.339.133.744-.095 1.047z"/></g><g><path d="m27 56c-2.206 0-4-1.794-4-4s1.794-4 4-4 4 1.794 4 4-1.794 4-4 4zm0-6c-1.103 0-2 .897-2 2s.897 2 2 2 2-.897 2-2-.897-2-2-2z"/></g><g><path d="m30 63c-.224 0-.445-.075-.625-.219l-4.597-3.678-6.503 1.858c-.355.101-.74-.002-.997-.271-.257-.268-.344-.655-.227-1.008l1.805-5.413-2.563-2.563c-.212-.212-.317-.508-.288-.806s.191-.567.44-.733l2.325-1.55-1.699-4.247c-.142-.354-.069-.758.187-1.041s.649-.396 1.017-.292l6.079 1.737 1.697-5.092c.121-.362.438-.624.816-.675.378-.053.752.119.965.437l3.76 5.64 5.573.929c.313.052.583.25.727.532.144.283.145.617.003.901l-2.724 5.447 2.629 3.507c.228.303.264.708.095 1.047s-.516.553-.895.553h-5.18l-.839 4.196c-.068.342-.31.624-.638.743-.112.041-.228.061-.343.061zm-5-6c.225 0 .445.075.625.219l3.717 2.974.678-3.389c.093-.467.503-.804.98-.804h4l-1.8-2.4c-.228-.303-.264-.708-.095-1.047l2.395-4.789-4.665-.777c-.272-.045-.514-.201-.667-.432l-2.866-4.299-1.354 4.061c-.169.508-.707.788-1.224.646l-5.04-1.44 1.243 3.107c.175.438.02.94-.374 1.203l-1.985 1.323 2.137 2.138c.268.268.361.664.242 1.023l-1.4 4.201 5.177-1.479c.092-.026.184-.039.276-.039z"/></g><g><path d="m33 33.586h2v2.828h-2z" transform="matrix(.707 -.707 .707 .707 -14.79 34.293)"/></g><g><path d="m34.586 41h2.828v2h-2.828z" transform="matrix(.707 -.707 .707 .707 -19.154 37.757)"/></g><g><path d="m41 52.586h2v2.828h-2z" transform="matrix(.707 -.707 .707 .707 -25.882 45.515)"/></g><g><path d="m49.586 55h2.828v2h-2.828z" transform="matrix(.707 -.707 .707 .707 -24.66 52.465)"/></g><g><path d="m23.586 36h2.828v2h-2.828z" transform="matrix(.707 -.707 .707 .707 -18.841 28.515)"/></g><g><path d="m37.586 60h2.828v2h-2.828z" transform="matrix(.707 -.707 .707 .707 -31.711 45.444)"/></g></g></svg>