<svg id="Capa_1" enable-background="new 0 0 512 512" height="512" viewBox="0 0 512 512" width="512" xmlns="http://www.w3.org/2000/svg"><g><g><path d="m404.732 323.708v-110.172l-19.709-16.93c-9.976-63.404-64.302-110.601-129.023-111.257l-10.667 213.318 10.667 175h56.971c56.819 0 103.045-46.226 103.045-103.046.001-16.327-3.891-32.459-11.284-46.913z" fill="#ea9b58"/><path d="m254.635 85.333c-33.206 0-64.941 12.375-89.36 34.846-22.719 20.906-37.281 48.821-41.427 79.158l-16.579 14.178v110.192c-7.394 14.454-11.285 30.586-11.285 46.913 0 56.82 46.227 103.046 103.046 103.046h56.97v-388.317c-.455-.005-.909-.016-1.365-.016z" fill="#eab065"/></g><g><path d="m177 245.333h30v53.333h-30z" fill="#402922"/><path d="m305 245.333h30v53.333h-30z"/></g><g><path d="m308.114 27.651c-11.722-17.314-31.204-27.651-52.113-27.651h-.001l-10.667 96 10.667 108.986h10.961l47.472-118.679c7.765-19.414 5.404-41.341-6.319-58.656z" fill="#fc3636"/><path d="m256 0c-20.909 0-40.391 10.337-52.113 27.651-11.723 17.315-14.085 39.242-6.319 58.656l47.472 118.68h10.96z" fill="#fc5b3f"/></g><g><path d="m303 368.42v-5.354c0-25.034-21.084-45.4-47-45.4l-10.667 87.668 10.667 106.666 70.776-104.944z" fill="#fdc673"/><path d="m256 317.666c-25.916 0-47 20.366-47 45.4v5.355l-23.775 38.635 70.775 104.944z" fill="#ffdf8e"/></g></g></svg>