<?xml version="1.0"?>
<svg width="640" height="480" xmlns="http://www.w3.org/2000/svg" xmlns:svg="http://www.w3.org/2000/svg">
 <!-- Created with SVG-edit - https://github.com/SVG-Edit/svgedit-->

 <g class="layer">
  <title>Layer 1</title>
  <path d="m300,370l60,0l20,-20l0,-150l-40,-40l0,-50l10,-10l0,-40l-40,0l0,40l10,10l0,50l-40,40l0,150l20,20z" fill="none" id="svg_132" stroke="#000000" stroke-width="5"/>
  <path d="m370,165l0,-40l80,80l0,20l-20,0l0,60l20,0l0,20l-50,40l0,-150l-30,-30z" fill="none" id="svg_134" stroke="#000000" stroke-width="5"/>
  <path d="m300,85l0,-40l60,0l0,40l70,70l0,-100l-30,-30l-140,0l-30,30l0,100l70,-70z" fill="none" id="svg_136" stroke="#000000" stroke-width="5"/>
  <path d="m290,125l0,40l-30,30l0,150l-50,-50l0,-20l20,0l0,-50l-20,0c0,0 0,-20 0,-20c0,0 80,-80 80,-80z" fill="none" id="svg_137" stroke="#000000" stroke-width="5"/>
  <path d="m430,340l0,70l-30,30l-20,0l-20,-20l-60,0l-20,20l-20,0l-30,-30l0,-70l50,50l90,0l60,-50z" fill="none" id="svg_138" stroke="#000000" stroke-width="5"/>
  <line fill="none" id="svg_142" stroke="#000000" stroke-width="5" x1="230" x2="280" y1="75" y2="25"/>
  <line fill="none" id="svg_143" stroke="#000000" stroke-width="5" x1="230" x2="300" y1="95" y2="25"/>
  <line fill="none" id="svg_144" stroke="#000000" stroke-width="5" x1="230" x2="320" y1="115" y2="25"/>
  <line fill="none" id="svg_145" stroke="#000000" stroke-width="5" x1="230" x2="300" y1="135" y2="65"/>
  <line fill="none" id="svg_146" stroke="#000000" stroke-width="5" x1="340" x2="320" y1="25" y2="45"/>
  <line fill="none" id="svg_147" stroke="#000000" stroke-width="5" x1="340" x2="360" y1="45" y2="25"/>
  <line fill="none" id="svg_148" stroke="#000000" stroke-width="5" x1="360" x2="380" y1="45" y2="25"/>
  <line fill="none" id="svg_149" stroke="#000000" stroke-width="5" x1="360" x2="400" y1="65" y2="25"/>
  <line fill="none" id="svg_150" stroke="#000000" stroke-width="5" x1="360" x2="410" y1="85" y2="35"/>
  <line fill="none" id="svg_151" stroke="#000000" stroke-width="5" x1="370" x2="420" y1="95" y2="45"/>
  <line fill="none" id="svg_152" stroke="#000000" stroke-width="5" x1="380" x2="430" y1="105" y2="55"/>
  <line fill="none" id="svg_153" stroke="#000000" stroke-width="5" x1="390" x2="430" y1="115" y2="75"/>
  <line fill="none" id="svg_154" stroke="#000000" stroke-width="5" x1="400" x2="430" y1="125" y2="95"/>
  <line fill="none" id="svg_155" stroke="#000000" stroke-width="5" x1="410" x2="430" y1="135" y2="115"/>
  <line fill="none" id="svg_156" stroke="#000000" stroke-width="5" x1="420" x2="430" y1="145" y2="135"/>
  <line fill="none" id="svg_158" stroke="#000000" stroke-width="5" x1="210" x2="290" y1="225" y2="145"/>
  <line fill="none" id="svg_159" stroke="#000000" stroke-width="5" x1="230" x2="260" y1="225" y2="195"/>
  <line fill="none" id="svg_160" stroke="#000000" stroke-width="5" x1="230" x2="260" y1="245" y2="215"/>
  <line fill="none" id="svg_161" stroke="#000000" stroke-width="5" x1="230" x2="260" y1="265" y2="235"/>
  <line fill="none" id="svg_162" stroke="#000000" stroke-width="5" x1="260" x2="215" y1="255" y2="300"/>
  <line fill="none" id="svg_163" stroke="#000000" stroke-width="5" x1="260" x2="225" y1="275" y2="310"/>
  <line fill="none" id="svg_164" stroke="#000000" stroke-width="5" x1="260" x2="235" y1="295" y2="320"/>
  <line fill="none" id="svg_166" stroke="#000000" stroke-width="5" x1="260" x2="245" y1="315" y2="330"/>
  <line fill="none" id="svg_167" stroke="#000000" stroke-width="5" x1="385" x2="370" y1="140" y2="155"/>
  <line fill="none" id="svg_168" stroke="#000000" stroke-width="5" x1="395" x2="375" y1="150" y2="170"/>
  <line fill="none" id="svg_169" stroke="#000000" stroke-width="5" x1="405" x2="385" y1="160" y2="180"/>
  <line fill="none" id="svg_170" stroke="#000000" stroke-width="5" x1="415" x2="395" y1="170" y2="190"/>
  <line fill="none" id="svg_171" stroke="#000000" stroke-width="5" x1="425" x2="400" y1="180" y2="205"/>
  <line fill="none" id="svg_172" stroke="#000000" stroke-width="5" x1="435" x2="400" y1="190" y2="225"/>
  <line fill="none" id="svg_173" stroke="#000000" stroke-width="5" x1="445" x2="400" y1="200" y2="245"/>
  <line fill="none" id="svg_174" stroke="#000000" stroke-width="5" x1="400" x2="430" y1="265" y2="235"/>
  <line fill="none" id="svg_176" stroke="#000000" stroke-width="5" x1="450" x2="440" y1="215" y2="225"/>
  <line fill="none" id="svg_177" stroke="#000000" stroke-width="5" x1="400" x2="430" y1="285" y2="255"/>
  <line fill="none" id="svg_178" stroke="#000000" stroke-width="5" x1="400" x2="430" y1="305" y2="275"/>
  <line fill="none" id="svg_180" stroke="#000000" stroke-width="5" x1="400" x2="445" y1="325" y2="285"/>
  <line fill="none" id="svg_182" stroke="#000000" stroke-width="5" x1="310" x2="325" y1="75" y2="60"/>
  <line fill="none" id="svg_183" stroke="#000000" stroke-width="5" x1="310" x2="340" y1="90" y2="60"/>
  <line fill="none" id="svg_187" stroke="#000000" stroke-width="5" x1="320" x2="350" y1="110" y2="80"/>
  <line fill="none" id="svg_188" stroke="#000000" stroke-width="5" x1="320" x2="350" y1="125" y2="95"/>
  <line fill="none" id="svg_189" stroke="#000000" stroke-width="5" x1="320" x2="340" y1="140" y2="120"/>
  <line fill="none" id="svg_191" stroke="#000000" stroke-width="5" x1="320" x2="340" y1="155" y2="135"/>
  <line fill="none" id="svg_199" stroke="#000000" stroke-width="5" x1="380" x2="340" y1="330" y2="370"/>
  <line fill="none" id="svg_200" stroke="#000000" stroke-width="5" x1="380" x2="320" y1="310" y2="370"/>
  <line fill="none" id="svg_201" stroke="#000000" stroke-width="5" x1="380" x2="300" y1="290" y2="370"/>
  <line fill="none" id="svg_202" stroke="#000000" stroke-width="5" x1="380" x2="290" y1="270" y2="360"/>
  <line fill="none" id="svg_203" stroke="#000000" stroke-width="5" x1="380" x2="280" y1="250" y2="350"/>
  <line fill="none" id="svg_204" stroke="#000000" stroke-width="5" x1="380" x2="280" y1="230" y2="330"/>
  <line fill="none" id="svg_205" stroke="#000000" stroke-width="5" x1="380" x2="280" y1="210" y2="310"/>
  <line fill="none" id="svg_206" stroke="#000000" stroke-width="5" x1="375" x2="280" y1="195" y2="290"/>
  <line fill="none" id="svg_207" stroke="#000000" stroke-width="5" x1="280" x2="365" y1="270" y2="185"/>
  <line fill="none" id="svg_208" stroke="#000000" stroke-width="5" x1="280" x2="355" y1="250" y2="175"/>
  <line fill="none" id="svg_209" stroke="#000000" stroke-width="5" x1="280" x2="345" y1="230" y2="165"/>
  <line fill="none" id="svg_210" stroke="#000000" stroke-width="5" x1="280" x2="340" y1="210" y2="150"/>
  <line fill="none" id="svg_211" stroke="#000000" stroke-width="5" x1="260" x2="310" y1="440" y2="390"/>
  <line fill="none" id="svg_212" stroke="#000000" stroke-width="5" x1="330" x2="300" y1="390" y2="420"/>
  <line fill="none" id="svg_214" stroke="#000000" stroke-width="5" x1="350" x2="320" y1="390" y2="420"/>
  <line fill="none" id="svg_215" stroke="#000000" stroke-width="5" x1="370" x2="340" y1="390" y2="420"/>
  <line fill="none" id="svg_220" stroke="#000000" stroke-width="5" x1="430" x2="380" y1="390" y2="440"/>
  <line fill="none" id="svg_221" stroke="#000000" stroke-width="5" x1="430" x2="370" y1="370" y2="430"/>
  <line fill="none" id="svg_222" stroke="#000000" stroke-width="5" x1="430" x2="360" y1="350" y2="420"/>
  <line fill="none" id="svg_223" stroke="#000000" stroke-width="5" x1="290" x2="250" y1="390" y2="430"/>
  <line fill="none" id="svg_224" stroke="#000000" stroke-width="5" x1="240" x2="275" y1="420" y2="385"/>
  <line fill="none" id="svg_226" stroke="#000000" stroke-width="5" x1="230" x2="265" y1="410" y2="375"/>
  <line fill="none" id="svg_227" stroke="#000000" stroke-width="5" x1="230" x2="255" y1="390" y2="365"/>
  <line fill="none" id="svg_228" stroke="#000000" stroke-width="5" x1="230" x2="245" y1="370" y2="355"/>
  <line fill="none" id="svg_231" stroke="#000000" stroke-width="5" x1="350" x2="312" y1="65" y2="102"/>
 </g>
</svg>