<?xml version="1.0"?>
<svg width="640" height="480" xmlns="http://www.w3.org/2000/svg" xmlns:svg="http://www.w3.org/2000/svg">
 <!-- Created with SVG-edit - https://github.com/SVG-Edit/svgedit-->

 <g class="layer">
  <title>Layer 1</title>
  <line fill="none" id="svg_142" stroke="#ffffff" stroke-width="5" x1="230" x2="280" y1="75" y2="25"/>
  <line fill="none" id="svg_143" stroke="#ffffff" stroke-width="5" x1="230" x2="300" y1="95" y2="25"/>
  <line fill="none" id="svg_144" stroke="#ffffff" stroke-width="5" x1="230" x2="320" y1="115" y2="25"/>
  <line fill="none" id="svg_145" stroke="#ffffff" stroke-width="5" x1="230" x2="300" y1="135" y2="65"/>
  <line fill="none" id="svg_146" stroke="#ffffff" stroke-width="5" x1="340" x2="320" y1="25" y2="45"/>
  <line fill="none" id="svg_147" stroke="#ffffff" stroke-width="5" x1="340" x2="360" y1="45" y2="25"/>
  <line fill="none" id="svg_148" stroke="#ffffff" stroke-width="5" x1="360" x2="380" y1="45" y2="25"/>
  <line fill="none" id="svg_149" stroke="#ffffff" stroke-width="5" x1="360" x2="400" y1="65" y2="25"/>
  <line fill="none" id="svg_150" stroke="#ffffff" stroke-width="5" x1="360" x2="410" y1="85" y2="35"/>
  <line fill="none" id="svg_151" stroke="#ffffff" stroke-width="5" x1="370" x2="420" y1="95" y2="45"/>
  <line fill="none" id="svg_152" stroke="#ffffff" stroke-width="5" x1="380" x2="430" y1="105" y2="55"/>
  <line fill="none" id="svg_153" stroke="#ffffff" stroke-width="5" x1="390" x2="430" y1="115" y2="75"/>
  <line fill="none" id="svg_154" stroke="#ffffff" stroke-width="5" x1="400" x2="430" y1="125" y2="95"/>
  <line fill="none" id="svg_155" stroke="#ffffff" stroke-width="5" x1="410" x2="430" y1="135" y2="115"/>
  <line fill="none" id="svg_156" stroke="#ffffff" stroke-width="5" x1="420" x2="430" y1="145" y2="135"/>
 </g>
</svg>