<?xml version="1.0" encoding="utf-8"?>
<!-- Generator: Adobe Illustrator 16.2.0, SVG Export Plug-In . SVG Version: 6.00 Build 0)  -->
<!DOCTYPE svg PUBLIC "-//W3C//DTD SVG 1.1//EN" "http://www.w3.org/Graphics/SVG/1.1/DTD/svg11.dtd">
<svg version="1.1" id="Слой_1" xmlns="http://www.w3.org/2000/svg" xmlns:xlink="http://www.w3.org/1999/xlink" x="0px" y="0px"
	 width="612px" height="792px" viewBox="0 0 612 792" enable-background="new 0 0 612 792" xml:space="preserve">
<path opacity="0" fill-rule="evenodd" clip-rule="evenodd" d="M318.753,408.753c-8.001,0-16.002,0-24.003,0
	c0-8.001,0-16.001,0-24.003c8.001,0,16.002,0,24.003,0C318.753,392.751,318.753,400.752,318.753,408.753z M309.875,406.372
	c2.171,0,4.343,0,6.562,0c0-2.213,0-4.296,0-6.123c-3.491-3.493-6.821-6.825-10.151-10.157c-3.302,3.301-6.648,6.648-9.931,9.931
	c0,2.149,0,4.233,0,6.307c2.281,0,4.453,0,6.951,0c-2.284-1.145-5.615-0.283-5.586-3.206c3.323-3.323,6.171-6.171,9.003-9.004
	c2.641,2.637,5.461,5.451,8.278,8.268c0,0.497,0,0.995-0.002,1.493C313.64,405.413,311.871,405.954,309.875,406.372z
	 M296.393,393.456c1.497-5.704,1.75-5.95,6.587-7.017c-2.244-0.132-4.488-0.291-6.587-0.116
	C296.393,388.746,296.393,390.835,296.393,393.456z M309.927,386.349c4.158,0.203,5.84,2.738,6.422,6.495c0-2.177,0-4.354,0-6.495
	C314.104,386.349,312.016,386.349,309.927,386.349z"/>
<path fill-rule="evenodd" clip-rule="evenodd" fill="#909090" d="M309.875,406.372c1.996-0.418,3.765-0.959,5.125-2.491
	c0.001-0.498,0.001-0.996,0.002-1.494c-2.818-2.815-5.639-5.63-8.279-8.267c-2.832,2.833-5.68,5.681-9.003,9.004
	c-0.028,2.923,3.302,2.062,5.586,3.206c-2.498,0-4.67,0-6.951,0c0-2.073,0-4.157,0-6.307c3.282-3.283,6.629-6.63,9.931-9.931
	c3.33,3.332,6.66,6.664,10.151,10.157c0,1.827,0,3.91,0,6.123C314.218,406.372,312.046,406.372,309.875,406.372z"/>
<path fill-rule="evenodd" clip-rule="evenodd" fill="#909090" d="M296.393,393.456c0-2.621,0-4.71,0-7.132
	c2.1-0.175,4.343-0.016,6.587,0.116C298.143,387.506,297.89,387.752,296.393,393.456z"/>
<path fill-rule="evenodd" clip-rule="evenodd" fill="#909090" d="M309.927,386.349c2.089,0,4.178,0,6.422,0c0,2.142,0,4.318,0,6.495
	C315.767,389.086,314.085,386.551,309.927,386.349z"/>
</svg>
