<?xml version="1.0" encoding="utf-8"?>
<!-- Generator: Adobe Illustrator 16.2.0, SVG Export Plug-In . SVG Version: 6.00 Build 0)  -->
<!DOCTYPE svg PUBLIC "-//W3C//DTD SVG 1.1//EN" "http://www.w3.org/Graphics/SVG/1.1/DTD/svg11.dtd">
<svg version="1.1" id="Слой_1" xmlns="http://www.w3.org/2000/svg" xmlns:xlink="http://www.w3.org/1999/xlink" x="0px" y="0px"
	 width="612px" height="792px" viewBox="0 0 612 792" enable-background="new 0 0 612 792" xml:space="preserve">
<path opacity="0" fill-rule="evenodd" clip-rule="evenodd" fill="none" d="M295.24,406.84c0-7.2,0-14.4,0-21.6
	c7.2,0,14.399,0,21.6,0c0,7.2,0,14.399,0,21.6C309.64,406.84,302.44,406.84,295.24,406.84z M295.98,393.505
	c3.427,2.773,6.82,5.521,10.205,8.261c3.316-2.684,6.604-5.344,9.908-8.016c0-2.552,0-5.137,0-7.75c-6.715,0-13.404,0-20.113,0
	C295.98,388.544,295.98,391.05,295.98,393.505z M295.981,406.083c6.766,0,13.429,0,20.079,0c0-2.493,0-4.948,0-7.514
	c-0.19,0.253-0.398,0.401-0.406,0.561c-0.063,1.263-0.868,2.309-1.009,3.544c-0.565,0.771-0.925,1.648-1.985,2.055
	c-0.899,0.345-1.751,0.675-2.718,0.673c-2.479-0.005-4.956-0.028-7.433,0.015c-0.75,0.013-1.521-0.011-2.162-0.295
	c-0.809-0.359-1.686-0.57-2.275-1.49c-0.855-1.335-1.132-2.822-1.611-4.258c-0.099-0.295-0.111-0.55-0.48-0.62
	C295.981,401.184,295.981,403.61,295.981,406.083z"/>
<path fill-rule="evenodd" clip-rule="evenodd" fill="#8F8F8F" d="M295.98,393.505c0-2.455,0-4.96,0-7.505c6.709,0,13.398,0,20.113,0
	c0,2.613,0,5.199,0,7.75c-3.304,2.672-6.592,5.332-9.908,8.016C302.8,399.025,299.407,396.278,295.98,393.505z M297.652,390.756
	c2.821,2.292,5.679,4.616,8.535,6.936c2.782-2.259,5.535-4.496,8.221-6.677c0-0.787,0-1.454,0-2.087
	c-0.146-0.146-0.329-0.242-0.359-0.374c-0.15-0.652-0.706-0.891-1.194-1.14c-0.986-0.502-2.033-0.763-3.167-0.746
	c-2.594,0.039-5.19-0.052-7.781,0.036c-1.606,0.054-3.126,0.491-4.041,2.028c-0.058,0.098-0.154,0.173-0.212,0.237
	C297.652,389.553,297.652,390.109,297.652,390.756z"/>
<path fill-rule="evenodd" clip-rule="evenodd" fill="#8F8F8F" d="M295.981,406.083c0-2.473,0-4.899,0-7.33
	c0.369,0.07,0.381,0.325,0.48,0.62c0.479,1.436,0.756,2.923,1.611,4.258c0.59,0.92,1.466,1.131,2.275,1.49
	c0.64,0.284,1.412,0.308,2.162,0.295c2.477-0.043,4.955-0.02,7.433-0.015c0.967,0.002,1.818-0.328,2.718-0.673
	c1.061-0.406,1.42-1.284,1.985-2.055c0.141-1.235,0.946-2.281,1.009-3.544c0.008-0.159,0.216-0.308,0.406-0.561
	c0,2.565,0,5.021,0,7.514C309.41,406.083,302.747,406.083,295.981,406.083z"/>
<path fill-rule="evenodd" clip-rule="evenodd" fill="none" d="M297.652,390.756c0-0.647,0-1.203,0-1.788
	c0.059-0.064,0.154-0.14,0.212-0.237c0.915-1.537,2.435-1.974,4.041-2.028c2.591-0.087,5.188,0.003,7.781-0.036
	c1.134-0.017,2.181,0.243,3.167,0.746c0.488,0.25,1.044,0.488,1.194,1.14c0.03,0.132,0.214,0.229,0.359,0.374
	c0,0.633,0,1.301,0,2.087c-2.686,2.182-5.438,4.418-8.221,6.677C303.331,395.372,300.473,393.048,297.652,390.756z"/>
</svg>
