<?xml version="1.0" encoding="utf-8"?>
<!-- Generator: Adobe Illustrator 16.2.0, SVG Export Plug-In . SVG Version: 6.00 Build 0)  -->
<!DOCTYPE svg PUBLIC "-//W3C//DTD SVG 1.1//EN" "http://www.w3.org/Graphics/SVG/1.1/DTD/svg11.dtd">
<svg version="1.1" id="Слой_1" xmlns="http://www.w3.org/2000/svg" xmlns:xlink="http://www.w3.org/1999/xlink" x="0px" y="0px"
	 width="612px" height="792px" viewBox="0 0 612 792" enable-background="new 0 0 612 792" xml:space="preserve">
<path opacity="0" fill-rule="evenodd" clip-rule="evenodd" fill="none" d="M295.24,385.24c7.2,0,14.399,0,21.6,0
	c0,7.2,0,14.399,0,21.6c-7.2,0-14.4,0-21.6,0C295.24,399.64,295.24,392.44,295.24,385.24z M316.078,406.099c0-2.692,0-5.277,0-7.779
	c-3.352-2.711-6.639-5.371-9.893-8.003c-3.409,2.759-6.817,5.518-10.176,8.236c0,2.542,0,5.045,0,7.546
	C302.72,406.099,309.381,406.099,316.078,406.099z M296.002,393.494c0.201-0.226,0.424-0.361,0.421-0.493
	c-0.019-1.014,0.462-1.91,0.78-2.803c0.661-1.854,0.919-2.388,2.78-3.097c0.599-0.228,1.208-0.424,1.864-0.423
	c2.478,0.005,4.955,0,7.434,0.004c0.733,0.001,1.448,0.027,2.186,0.209c1.391,0.345,2.658,1.145,3.108,2.48
	c0.389,1.158,0.92,2.281,1.077,3.516c0.023,0.181,0.217,0.341,0.424,0.646c0-2.63,0-5.085,0-7.539
	c-4.657-0.167-19.051-0.101-20.074,0.083C296.002,388.512,296.002,390.938,296.002,393.494z"/>
<path fill-rule="evenodd" clip-rule="evenodd" fill="#8F8F8F" d="M316.078,406.099c-6.697,0-13.358,0-20.068,0
	c0-2.501,0-5.004,0-7.546c3.358-2.718,6.767-5.477,10.176-8.236c3.254,2.632,6.541,5.292,9.893,8.003
	C316.078,400.821,316.078,403.406,316.078,406.099z M297.64,403.12c0.143,0.143,0.314,0.236,0.359,0.371
	c0.211,0.646,0.744,0.914,1.29,1.191c0.962,0.489,1.966,0.737,3.056,0.726c2.474-0.027,4.949-0.006,7.422-0.011
	c0.536-0.001,1.047-0.052,1.586-0.206c1.147-0.327,2.259-0.611,2.83-1.808c0.049-0.102,0.165-0.172,0.253-0.26
	c0-0.634,0-1.271,0-2.032c-2.718-2.209-5.498-4.469-8.253-6.708c-2.876,2.342-5.745,4.679-8.542,6.956
	C297.64,402.005,297.64,402.523,297.64,403.12z"/>
<path fill-rule="evenodd" clip-rule="evenodd" fill="#8F8F8F" d="M296.002,393.494c0-2.556,0-4.982,0-7.416
	c1.023-0.184,15.417-0.25,20.074-0.083c0,2.453,0,4.908,0,7.539c-0.207-0.305-0.4-0.464-0.424-0.646
	c-0.157-1.235-0.688-2.358-1.077-3.516c-0.45-1.336-1.718-2.135-3.108-2.48c-0.737-0.183-1.452-0.208-2.186-0.209
	c-2.479-0.004-4.956,0.001-7.434-0.004c-0.656-0.001-1.265,0.195-1.864,0.423c-1.861,0.709-2.119,1.243-2.78,3.097
	c-0.318,0.894-0.799,1.79-0.78,2.803C296.426,393.132,296.203,393.268,296.002,393.494z"/>
<path fill-rule="evenodd" clip-rule="evenodd" fill="none" d="M297.64,403.12c0-0.597,0-1.115,0-1.78
	c2.797-2.277,5.667-4.614,8.542-6.956c2.755,2.239,5.535,4.499,8.253,6.708c0,0.761,0,1.398,0,2.032
	c-0.088,0.088-0.204,0.158-0.253,0.26c-0.571,1.196-1.683,1.48-2.83,1.808c-0.539,0.154-1.05,0.205-1.586,0.206
	c-2.474,0.005-4.948-0.017-7.422,0.011c-1.09,0.012-2.093-0.236-3.056-0.726c-0.545-0.277-1.078-0.545-1.29-1.191
	C297.954,403.356,297.783,403.263,297.64,403.12z"/>
</svg>
