<?xml version="1.0" encoding="UTF-8"?>
<!DOCTYPE svg PUBLIC "-//W3C//DTD SVG 1.1//EN" "http://www.w3.org/Graphics/SVG/1.1/DTD/svg11.dtd">
<!-- Creator: CorelDRAW 2019 (64-Bit) -->
<svg xmlns="http://www.w3.org/2000/svg" xml:space="preserve" width="350px" height="350px" version="1.1" style="shape-rendering:geometricPrecision; text-rendering:geometricPrecision; image-rendering:optimizeQuality; fill-rule:evenodd; clip-rule:evenodd"
viewBox="0 0 350 350"
 xmlns:xlink="http://www.w3.org/1999/xlink"
 xmlns:xodm="http://www.corel.com/coreldraw/odm/2003">
 <defs>
  <style type="text/css">
   <![CDATA[
    .fil0 {fill:white}
   ]]>
  </style>
 </defs>
 <g id="Layer_x0020_1">
  <metadata id="CorelCorpID_0Corel-Layer"/>
  <path class="fil0" d="M110.94 32.25l13.48 -0.76 3.48 10.23c42.95,-2.02 85.89,-2.1 128.84,-0.13l4.16 -17.87 13.72 0.12 0 193.53 -12.12 15.44 -0.12 -35.32c-0.27,-78.4 -141.17,-78.46 -141.44,0l-0.19 52.35c-3.13,-2.1 -6.29,-4.17 -9.81,-5.96l0 -211.63zm-35.56 236.16l11.07 0 0 37.63 0 0 71 0 0 0 0 -35.9 7.27 0 0 56.14 -89.34 0 0 -57.87zm93.83 1.73l8.53 0 0 5.54 -6.18 0 -2.35 -2.48 0 -3.06zm20.92 5.54l0 -3.12 2.42 0 0 3.12 -2.42 0zm15.07 0l0 -5.54 5.97 0 0 5.54 -5.97 0zm5.97 10.37l0 40.23 -41.96 0 0 -37.46 2.41 -2.77 39.55 0zm-56.71 16.94l-65.01 0 0 -34.58 65.01 0 0 34.58zm24.32 -119.06l5.19 0 0 8.18c0.38,-0.08 0.76,-0.15 1.14,-0.21l0 -5.09 3.81 0 0 4.65c0.91,-0.06 1.82,-0.09 2.74,-0.09 0.74,0 1.48,0.02 2.22,0.06l0 -4.62 3.81 0 0 5.01c0.38,0.06 0.76,0.12 1.14,0.19l0 -8.08 5.19 0 0 9.39c12.91,4.19 22.94,14.78 26.36,28.02l8.56 0 0 19.02 -8.31 0c-3.16,13.72 -13.37,24.73 -26.61,29.03l0 6.29 -5.19 0 0 -4.98c-0.38,0.07 -0.76,0.13 -1.14,0.19l0 4.79 -3.81 0 0 -4.4c-0.74,0.04 -1.48,0.06 -2.22,0.06 -0.92,0 -1.83,-0.03 -2.74,-0.09l0 4.43 -3.81 0 0 -4.87c-0.38,-0.07 -0.76,-0.13 -1.14,-0.21l0 5.08 -5.19 0 0 -6.46c-3.42,-1.16 -6.63,-2.77 -9.57,-4.77l0 -0.65 -0.93 0c-7.73,-5.58 -13.38,-13.85 -15.59,-23.44l-6.66 0 0 -19.02 6.9 0c3.37,-13.07 13.19,-23.55 25.85,-27.85l0 -9.56zm5.19 10.28l0 4.86c0.37,-0.09 0.76,-0.17 1.14,-0.25l0 -4.83c-0.38,0.07 -0.76,0.14 -1.14,0.22zm0 6.62l0 4.77 -5.19 0 0 -2.97c-7.96,3.58 -14.17,10.36 -16.97,18.71l4.05 0 0 19.02 -4.36 0c2.62,8.81 9,16 17.28,19.72l0 -3.19 5.19 0 0 4.99c0.37,0.09 0.76,0.18 1.14,0.26l0 -7.25c-6.73,-1.87 -12.29,-6.54 -15.34,-12.68l43.78 0c-3.13,6.29 -8.9,11.05 -15.86,12.82l0 7.22c0.38,-0.08 0.76,-0.16 1.14,-0.25l0 -5.11 5.19 0 0 3.41c8.53,-3.65 15.12,-10.95 17.8,-19.94l-2.71 0 0 -19.02 2.39 0c-2.86,-8.53 -9.27,-15.42 -17.48,-18.93l0 3.19 -5.19 0 0 -4.89c-0.37,-0.09 -0.76,-0.18 -1.14,-0.25l0 7.22c6.59,1.67 12.1,6.02 15.33,11.82l-42.72 0c3.14,-5.65 8.45,-9.92 14.81,-11.68l0 -7.25c-0.38,0.08 -0.77,0.17 -1.14,0.26zm-5.19 -0.06l0 -5.1c-11.53,4.16 -20.46,13.75 -23.71,25.67l4.95 0c2.93,-9.29 9.86,-16.82 18.76,-20.57zm20.05 -6.67l0 4.85c-0.38,-0.08 -0.75,-0.16 -1.14,-0.23l0 -4.81c0.38,0.06 0.76,0.12 1.14,0.19zm5.19 6.45l0 -5.06c11.77,4.06 20.92,13.75 24.23,25.85l-4.95 0c-3,-9.47 -10.13,-17.11 -19.28,-20.79zm-10.14 -7.06l0 4.76c-0.74,-0.05 -1.48,-0.08 -2.22,-0.08 -0.92,0 -1.84,0.04 -2.74,0.11l0 -4.75c0.91,-0.07 1.82,-0.1 2.74,-0.1 0.74,0 1.48,0.02 2.22,0.06zm0 6.47l0 7.07c-0.73,-0.07 -1.47,-0.1 -2.22,-0.1 -0.93,0 -1.84,0.05 -2.74,0.15l0 -7.08c0.9,-0.08 1.82,-0.12 2.74,-0.12 0.74,0 1.49,0.03 2.22,0.08zm-9.91 68.54l0 -4.86c0.37,0.09 0.76,0.17 1.14,0.25l0 4.83c-0.38,-0.07 -0.76,-0.14 -1.14,-0.22zm-5.19 -6.56l0 5.1c-11.85,-4.28 -20.95,-14.29 -23.97,-26.68l4.9 0c2.75,9.76 9.85,17.7 19.07,21.58zm20.05 6.66l0 -4.84c-0.38,0.08 -0.76,0.16 -1.14,0.23l0 4.81c0.38,-0.06 0.76,-0.12 1.14,-0.2zm5.19 -6.45l0 5.07c12.1,-4.17 21.42,-14.29 24.49,-26.86l-4.91 0c-2.8,9.94 -10.11,17.99 -19.58,21.79zm-10.14 7.06l0 -4.75c-0.73,0.05 -1.48,0.08 -2.22,0.08 -0.92,0 -1.84,-0.04 -2.74,-0.12l0 4.76c0.91,0.07 1.82,0.1 2.74,0.1 0.74,0 1.48,-0.02 2.22,-0.07zm0 -6.46l0 -7.07c-0.73,0.07 -1.47,0.1 -2.22,0.1 -0.93,0 -1.84,-0.05 -2.74,-0.15l0 7.08c0.9,0.07 1.82,0.12 2.74,0.12 0.74,0 1.49,-0.03 2.22,-0.08zm-24.68 -39.33l46.57 0 0 14.86 -46.57 0 0 -14.86zm89.06 14.8l-2.09 2.66 -1.33 -0.41 -0.12 -34.15c-0.24,-69.25 -124.69,-69.3 -124.93,0l-0.18 49.24c-1.61,-0.94 -3.17,-1.93 -4.7,-2.93l0.53 -54.88c0.71,-72.94 131.72,-73.31 132.43,0l0.39 40.47zm-7.21 1.09l-0.85 -0.26 0.05 5.35 -11.33 4.14 -0.69 0.51c2.09,-5.5 3.24,-11.46 3.24,-17.7 0,-27.51 -22.3,-49.81 -49.81,-49.81 -27.51,0 -49.81,22.3 -49.81,49.81 0,14.31 6.02,27.2 15.68,36.28 -7.57,-3.78 -16.65,-6.35 -24.25,-10.11l0.49 -50.97c0.62,-64.42 116.34,-64.75 116.97,0l0.31 32.76zm-26.45 -163.79l-9.19 0 0 4.62 9.19 0 0 -4.62zm6.92 0l-5.02 0 0 4.62 5.02 0 0 -4.62zm6.92 0l-5.03 0 0 4.62 5.03 0 0 -4.62zm6.91 0l-5.02 0 0 4.62 5.02 0 0 -4.62zm6.8 0l-5.02 0 0 4.62 5.02 0 0 -4.62zm-93.08 0l9.19 0 0 4.62 -9.19 0 0 -4.62zm-6.92 0l5.02 0 0 4.62 -5.02 0 0 -4.62zm-6.92 0l5.03 0 0 4.62 -5.03 0 0 -4.62zm-6.91 0l5.02 0 0 4.62 -5.02 0 0 -4.62zm-6.8 0l5.02 0 0 4.62 -5.02 0 0 -4.62zm41.72 -23.16l37.35 0 0 26.97 -37.35 0 0 -26.97z"/>
  <path class="fil0" d="M168.84 330l-87.1 0c-34.72,0 -63.14,-28.41 -63.14,-63.14l0 -98.02 0 -87.1c0,-34.73 28.41,-63.14 63.14,-63.14l99.42 0 88.27 0c34.73,0 63.14,28.42 63.14,63.14l0 99.42 0 85.7c0,34.73 -28.42,63.14 -63.14,63.14l-100.59 0zm106.16 -330l-200 0c-41.25,0 -75,33.75 -75,75l0 200c0,41.25 33.75,75 75,75l200 0c41.25,0 75,-33.75 75,-75l0 -200c0,-41.25 -33.75,-75 -75,-75z"/>
 </g>
</svg>
