<?xml version="1.0" encoding="UTF-8" standalone="no"?>
<!-- Created with Inkscape (http://www.inkscape.org/) -->

<svg
   xmlns:dc="http://purl.org/dc/elements/1.1/"
   xmlns:cc="http://creativecommons.org/ns#"
   xmlns:rdf="http://www.w3.org/1999/02/22-rdf-syntax-ns#"
   xmlns:svg="http://www.w3.org/2000/svg"
   xmlns="http://www.w3.org/2000/svg"
   xmlns:sodipodi="http://sodipodi.sourceforge.net/DTD/sodipodi-0.dtd"
   xmlns:inkscape="http://www.inkscape.org/namespaces/inkscape"
   version="1.1"
   id="svg65"
   width="512.00006"
   height="512"
   viewBox="0 0 512.00006 512"
   sodipodi:docname="TAG.svg"
   inkscape:version="0.92.4 (5da689c313, 2019-01-14)">
  <metadata
     id="metadata71">
    <rdf:RDF>
      <cc:Work
         rdf:about="">
        <dc:format>image/svg+xml</dc:format>
        <dc:type
           rdf:resource="http://purl.org/dc/dcmitype/StillImage" />
        <dc:title></dc:title>
      </cc:Work>
    </rdf:RDF>
  </metadata>
  <defs
     id="defs69" />
  <sodipodi:namedview
     pagecolor="#ffffff"
     bordercolor="#666666"
     borderopacity="1"
     objecttolerance="10"
     gridtolerance="10"
     guidetolerance="10"
     inkscape:pageopacity="0"
     inkscape:pageshadow="2"
     inkscape:window-width="1366"
     inkscape:window-height="705"
     id="namedview67"
     showgrid="false"
     inkscape:pagecheckerboard="true"
     inkscape:zoom="0.43212893"
     inkscape:cx="254.56516"
     inkscape:cy="250.01785"
     inkscape:window-x="-8"
     inkscape:window-y="-8"
     inkscape:window-maximized="1"
     inkscape:current-layer="g75" />
  <g
     id="g75"
     transform="translate(-573.89129,11.478174)">
    <path
       style="display:inline;fill:#fefefc;stroke-width:1.00000095"
       d="m 748.55912,498.95681 c -0.79786,-2.07903 3.12009,-4.52718 7.24521,-4.52718 3.84543,0 7.25932,2.43818 6.43207,4.59377 -0.78211,2.03799 -12.89224,1.97903 -13.67728,-0.0666 z m -72.54678,-4.90042 c -1.63506,-1.96996 -0.42397,-4.25189 3.01185,-5.67495 5.07574,-2.10225 10.84876,1.97549 7.87286,5.56094 -1.57509,1.89771 -9.33676,1.97901 -10.88471,0.11401 z m 54.3926,-0.46676 c -5.68032,-2.61315 -14.49608,-12.48941 -14.49608,-16.2399 0,-2.47124 0.39589,-2.91929 2.57956,-2.91929 1.84331,0 4.2104,1.69786 8.29353,5.94879 4.0563,4.223 7.68429,6.83273 12.50569,8.99577 4.10963,1.84371 6.62839,3.54213 6.3781,4.3008 -0.68685,2.08195 -10.6704,2.02558 -15.2608,-0.0862 z m 74.45262,0.27364 c -1.20651,-1.45363 -1.03135,-1.96247 1.39341,-4.04799 3.36217,-2.89178 5.67954,-3.00975 8.80134,-0.4481 1.91905,1.57473 2.15456,2.27649 1.2584,3.74985 -1.53682,2.52667 -9.54246,3.04829 -11.45315,0.74624 z M 640.334,478.31681 c -3.09672,-4.90511 -5.92386,-11.31137 -6.84751,-15.51643 -0.85083,-3.87345 1.48222,-6.39148 3.99211,-4.30863 3.91991,3.25297 10.22481,20.2727 8.34773,22.53425 -1.80072,2.16957 -2.68882,1.73148 -5.49233,-2.70919 z m 116.88918,-2.65803 c -4.30303,-2.78682 -4.24667,-19.54776 0.0778,-23.13646 3.6459,-3.02557 6.61882,2.52241 6.59517,12.30774 -0.021,8.68376 -2.86323,13.29608 -6.67298,10.82872 z m 56.34484,-1.05708 c -1.86881,-2.06484 -2.16238,-8.02803 -0.71274,-14.47785 0.51828,-2.30596 1.19398,-5.39863 1.50156,-6.87261 0.7696,-3.68803 3.16475,-5.8197 6.53903,-5.8197 8.38202,0 12.07557,18.02365 5.33505,26.03364 -2.04628,2.43166 -3.26107,2.96518 -6.75155,2.96518 -2.85338,0 -4.80182,-0.60274 -5.91135,-1.82866 z M 688.15814,472.497 c -5.03922,-3.65008 -6.25074,-5.75213 -6.25074,-10.84531 0,-4.68195 2.34638,-7.22043 6.67404,-7.22043 5.57997,0 8.79357,6.8723 7.47544,15.98624 -0.81085,5.60643 -2.4381,6.03484 -7.89874,2.0795 z m 144.31239,0.71098 c -0.95542,-1.36394 -1.55676,-4.36808 -1.55676,-7.77717 0,-9.18484 4.54597,-12.93497 8.9278,-7.36484 2.68449,3.41249 2.72222,9.78717 0.0835,14.11457 -2.32228,3.80848 -5.22614,4.20872 -7.45458,1.02744 z m -164.79987,-5.52726 c -2.23525,-2.52979 -3.14334,-9.57016 -1.77078,-13.72871 0.90038,-2.72794 1.70285,-3.52059 3.56422,-3.52059 4.57278,0 8.28004,11.69872 5.40782,17.06505 -1.2899,2.41001 -5.14745,2.5087 -7.20126,0.18425 z m 180.50505,-4.49982 c -0.54105,-0.68747 -1.25943,-3.03932 -1.5964,-5.22633 -0.75611,-4.90719 -3.05159,-8.07301 -8.76009,-12.08139 -5.62854,-3.95225 -6.28563,-7.37998 -2.23271,-11.64711 3.51067,-3.69623 10.01498,-7.12775 12.03862,-6.35127 1.21109,0.4647 1.38474,1.63893 0.86155,5.82609 -0.45216,3.61863 -0.18395,6.57982 0.86528,9.55343 1.69227,4.79597 5.19835,10.17698 6.63097,10.17698 1.52239,0 1.085,-2.92628 -2.07438,-13.87856 -1.64666,-5.70829 -2.99393,-11.29023 -2.99393,-12.40433 0,-1.11409 1.8646,-3.79922 4.14355,-5.96696 3.53663,-3.36404 4.59328,-3.85139 7.21413,-3.32726 3.99432,0.7988 8.10406,4.75632 11.9426,11.50024 1.69734,2.98207 3.24988,4.93057 3.45008,4.33001 0.2002,-0.60055 -0.78651,-4.86357 -2.19271,-9.47336 -2.94235,-9.64565 -3.17646,-13.01885 -1.02732,-14.80232 2.03097,-1.68542 5.44188,1.46009 10.00184,9.22362 6.59701,11.23169 6.58966,16.22723 -0.0347,23.58909 -7.37665,8.19792 -28.52122,22.20938 -33.51597,22.20938 -0.95519,0 -2.17938,-0.56248 -2.72043,-1.24995 z m 16.28828,-29.22898 c -1.89854,-6.53021 -4.08044,-7.51866 -3.27065,-1.48167 0.58137,4.33406 3.79659,10.23735 4.47211,8.21097 0.2218,-0.66533 -0.31886,-3.69351 -1.20146,-6.7293 z m -218.15811,26.07911 c -5.9556,-5.95511 -3.71648,-12.59949 4.24596,-12.59949 7.66495,0 12.22487,8.95467 7.04007,13.82513 -3.41482,3.20779 -7.27104,2.78902 -11.28603,-1.22564 z m 83.59829,-6.60715 c -1.9389,-2.7227 -2.22629,-4.9702 -3.03693,-23.74903 -0.49244,-11.40796 -0.90944,-51.43565 -0.92666,-88.95044 l -0.0313,-68.20869 11.7505,-8.33226 c 21.80456,-15.46157 49.85224,-32.33021 77.75332,-46.76294 17.69769,-9.1547 22.90291,-11.00579 25.01354,-8.89534 1.56022,1.56009 3.42798,12.50899 3.48261,20.41527 0.0466,6.7424 1.72153,9.75734 5.89471,10.61078 1.85311,0.37897 3.78781,1.29645 4.29932,2.03885 1.38744,2.01366 0.21153,14.75713 -2.65166,28.7362 -1.3954,6.81286 -2.53708,12.72264 -2.53708,13.13284 0,0.41019 0.90003,0.98116 2.00008,1.26881 3.02914,0.79207 2.62318,4.9984 -3.04619,31.563 -8.63945,40.48127 -17.44817,71.81423 -21.97742,78.17442 -2.69771,3.78828 -23.39291,19.01304 -51.06612,37.56765 -26.55941,17.80782 -37.51975,24.39818 -40.57625,24.39818 -1.30746,0 -3.07342,-1.22242 -4.34447,-3.0073 z m 11.04814,-32.24258 c 0.71013,-4.20978 0.99102,-11.01438 0.67061,-16.24578 -1.08235,-17.67182 -3.6445,-15.98321 -4.46183,2.94062 -0.54277,12.56678 0.22829,21.99577 1.72317,21.07197 0.46536,-0.28759 1.39599,-3.78265 2.06805,-7.76681 z m 12.45815,-18.24794 c 0,-9.8304 -0.37909,-14.77847 -1.19469,-15.59401 -1.89528,-1.89511 -2.80548,3.16423 -2.80548,15.59401 0,12.42978 0.9102,17.48912 2.80548,15.594 0.8156,-0.81553 1.19469,-5.7636 1.19469,-15.594 z m 12.00051,-6.99972 c 0,-9.8304 -0.37909,-14.77846 -1.19469,-15.594 -1.87975,-1.87959 -2.77106,3.10332 -2.78936,15.594 -0.0182,12.41473 0.89018,17.49303 2.78936,15.59401 0.8156,-0.81554 1.19469,-5.76361 1.19469,-15.59401 z m -56.17052,58.24763 c -1.84911,-2.93988 -2.34144,-17.74978 -3.24937,-97.74602 -0.96748,-85.24411 -1.61398,-99.27922 -4.88204,-105.98686 -2.61398,-5.36516 -9.60413,-8.76868 -32.10174,-15.63044 -20.14775,-6.14506 -54.79102,-13.40935 -63.7225,-13.36188 -8.3353,0.0443 -8.3555,0.24411 -9.40735,93.03676 -0.91272,80.51843 -1.79688,102.19162 -4.26978,104.66433 -2.23949,2.23929 -3.65929,-0.55985 -4.75331,-9.37115 -0.53624,-4.31893 -1.39326,-40.47628 -1.90449,-80.34965 -0.51122,-39.87338 -1.25906,-78.5718 -1.66186,-85.9965 -1.50963,-27.82679 -2.54356,-5.47789 -3.06692,66.2938 -0.66827,91.64188 0.0353,102.60873 7.53313,117.42019 4.99555,9.86838 3.87581,12.48912 -2.14839,5.02832 -8.04655,-9.96544 -8.88532,-11.96177 -10.29534,-24.50372 -1.70897,-15.20103 -1.95203,-151.90386 -0.30399,-170.96942 1.28923,-14.91461 2.80797,-19.12104 9.47807,-26.25132 6.04995,-6.46734 12.25201,-8.53721 22.49769,-7.50836 5.99669,0.60218 6.92224,0.47883 6.92224,-0.92249 0,-0.88968 -1.56104,-2.36194 -3.46898,-3.27171 -3.02947,-1.44453 -3.98353,-1.48429 -7.53035,-0.31383 -3.1368,1.03515 -4.33193,1.06973 -5.24982,0.15192 -0.91789,-0.91782 -0.11291,-2.26378 3.53607,-5.91245 4.31487,-4.31452 5.13584,-4.72255 9.46882,-4.70611 2.60938,0.01 5.56878,0.40642 6.57644,0.88116 1.67668,0.78992 1.77556,0.486 1.1654,-3.58244 -0.86189,-5.74702 0.96316,-7.71117 5.44158,-5.85631 3.33098,1.37962 5.06148,0.73734 5.06148,-1.87857 0,-0.98226 0.92259,-2.62079 2.05019,-3.64116 1.75426,-1.58746 2.49714,-1.68655 5.14676,-0.68652 3.56023,1.34373 4.80356,0.88931 4.80356,-1.75563 0,-3.53529 2.90046,-5.25423 7.66118,-4.54038 3.46853,0.5201 4.33933,0.35171 4.33933,-0.83911 0,-3.10631 3.0898,-4.84615 7.44621,-4.19292 3.99006,0.5983 4.15578,0.51167 5.08936,-2.66047 0.91921,-3.12329 1.19046,-3.27592 5.71521,-3.21606 5.24242,0.0694 5.22341,0.093 3.62223,-4.49979 -0.92004,-2.639 -0.84811,-3.5153 0.39018,-4.75348 1.31,-1.30989 2.02569,-1.33451 5.21992,-0.17956 3.56751,1.28992 3.77401,1.2393 5.69349,-1.3955 2.13692,-2.93328 6.26066,-3.64155 9.89098,-1.69882 1.67383,0.89573 1.93435,0.69682 1.93435,-1.47688 0,-4.78044 3.56206,-5.90066 16.78267,-5.27796 14.03366,0.661 25.60766,2.61493 45.78516,7.72946 16.89794,4.28323 32.21737,9.68001 40.43657,14.24511 15.01714,8.34082 14.76377,8.25917 24.98461,8.05051 7.48401,-0.15279 9.85647,0.14347 11.25048,1.40493 3.14552,2.84641 2.13427,5.75164 -3.93152,11.29497 -19.3166,17.65281 -93.52823,58.76399 -111.16922,61.58467 -3.30919,0.52912 -4.11309,0.27953 -5.50646,-1.70963 -1.94299,-2.77377 -2.11627,-6.24775 -0.38151,-7.64845 0.68753,-0.55514 3.18743,-1.32895 5.55534,-1.71958 4.2383,-0.6992 16.24056,-7.87985 16.92992,-10.12876 0.23517,-0.7672 -1.30258,-0.67956 -4.94675,0.28189 -2.90839,0.76734 -14.28838,1.86126 -25.28885,2.43091 -23.64107,1.22427 -26.76506,1.60624 -26.23429,3.20763 0.4753,1.43401 8.61085,3.46328 14.41869,3.5965 2.3018,0.0528 5.45193,0.57357 7.0003,1.15728 4.16827,1.57136 9.19484,6.86103 10.35205,10.89386 1.95946,6.82864 3.18221,63.67259 2.5391,118.03955 -0.59557,50.34788 -1.93757,90.30082 -3.16571,94.24616 -0.63239,2.03158 -2.93716,2.31414 -4.07822,0.49998 z M 656.90634,215.441 c 0,-0.54998 -1.12505,-0.99996 -2.50011,-0.99996 -1.37506,0 -2.50011,0.44998 -2.50011,0.99996 0,0.54998 1.12505,0.99996 2.50011,0.99996 1.37506,0 2.50011,-0.44998 2.50011,-0.99996 z m -25.34746,-7.13374 c -1.32332,-0.76913 -2.15915,-0.76051 -2.95012,0.0304 -0.80488,0.8048 -0.30498,1.09535 1.84645,1.07317 2.58622,-0.0267 2.72236,-0.16279 1.10367,-1.10358 z m 141.85243,-8.88461 c 18.03928,-9.84678 24.7555,-13.98042 22.71494,-13.98042 -3.6587,0 -41.21573,21.21091 -41.21573,23.27722 0,0.4619 0.33752,0.64706 0.75003,0.41145 0.41252,-0.2356 8.40036,-4.60432 17.75076,-9.70825 z m 8.50036,-29.97977 c 0,-0.54998 -1.12504,-0.99996 -2.5001,-0.99996 -1.37506,0 -2.50011,0.44998 -2.50011,0.99996 0,0.54998 1.12505,0.99996 2.50011,0.99996 1.37506,0 2.5001,-0.44998 2.5001,-0.99996 z m 19.00082,0 c 0,-0.54998 -0.87348,-0.99996 -1.94107,-0.99996 -1.06758,0 -2.21919,0.44998 -2.55913,0.99996 -0.35053,0.56713 0.48964,0.99996 1.94107,0.99996 1.40752,0 2.55913,-0.44998 2.55913,-0.99996 z m -47.00201,-6.99972 c 0,-0.54997 -1.12505,-0.99996 -2.50011,-0.99996 -1.37506,0 -2.50011,0.44999 -2.50011,0.99996 0,0.54998 1.12505,0.99996 2.50011,0.99996 1.37506,0 2.50011,-0.44998 2.50011,-0.99996 z m -31.67688,-7.63473 c -4.01109,-2.02344 -6.32474,-5.12383 -6.32474,-8.47539 0,-3.3357 -0.29146,-3.40318 -6.00026,-1.38916 -2.3384,0.82496 -5.37521,1.49994 -6.74846,1.49994 -1.96575,0 -2.26175,0.28323 -1.39158,1.33163 1.87763,2.26221 10.57736,6.56412 16.24502,8.03295 6.19253,1.60486 8.36373,1.09037 4.22002,-0.99997 z m 70.47395,296.91102 c -5.01109,-5.15105 -6.62606,-11.29176 -5.00616,-19.03527 2.23609,-10.68899 7.92937,-14.28704 11.47458,-7.25174 1.4641,2.90545 1.71887,5.70766 1.50007,16.49933 -0.24648,12.15608 -0.39398,13.01816 -2.27353,13.28754 -1.25971,0.18054 -3.38544,-1.12584 -5.69496,-3.49986 z M 621.12141,437.64638 c -10.81472,-5.39218 -11.32728,-6.86866 -3.28096,-9.45137 9.26737,-2.97464 11.40594,-3.11657 14.09939,-0.93573 2.11696,1.71407 2.43957,2.8093 2.45163,8.32314 0.0178,8.12029 -0.85199,8.25556 -13.27006,2.06396 z m 186.45803,3.11877 c -0.36669,-0.36665 -0.6667,-3.98063 -0.6667,-8.03106 0,-5.76407 0.34059,-7.4951 1.56729,-7.96579 2.40113,-0.92132 3.66816,1.0567 4.19612,6.55081 0.6271,6.5259 -0.30063,10.11268 -2.61566,10.11268 -0.9979,0 -2.11437,-0.29999 -2.48105,-0.66664 z m 113.33817,-6.87035 c 0,-1.70047 1.51619,-4.01065 4.5975,-7.00509 5.2537,-5.10559 8.82784,-6.46086 11.08543,-4.20348 2.0108,2.01064 0.73683,4.32707 -5.30381,9.6438 -5.66595,4.98696 -10.37912,5.69752 -10.37912,1.56477 z m 45.0779,-0.0933 c -3.18673,-4.05092 -4.49355,-9.96631 -4.5367,-20.53559 -0.0363,-8.88191 0.15733,-9.87625 2.38494,-12.2495 1.33344,-1.42056 3.38684,-2.58287 4.56311,-2.58287 2.53177,0 6.9509,4.34865 8.44952,8.31476 3.17867,8.41233 -2.15048,29.68369 -7.4367,29.68369 -0.74519,0 -2.28607,-1.1837 -3.42417,-2.63044 z m -71.40168,-3.40847 c -3.2994,-2.59505 -10.6778,-17.23978 -10.6778,-21.19337 0,-2.16576 1.10744,-4.10907 3.97648,-6.97788 3.77312,-3.7728 4.24621,-3.95856 9.2504,-3.6322 4.99688,0.32587 5.28711,0.21263 5.52512,-2.15596 0.88356,-8.79258 2.57132,-13.29571 6.74392,-17.99344 2.77004,-3.11866 4.87962,-6.77824 5.87191,-10.18626 2.22505,-7.64197 8.33522,-13.16788 23.63452,-21.37463 6.87529,-3.68799 13.3882,-7.32145 14.47313,-8.07435 2.63595,-1.82926 5.98218,-1.73119 7.60405,0.22288 1.79092,2.15775 2.60716,24.26189 1.00638,27.25275 -1.90224,3.55406 -3.79557,2.48859 -7.27773,-4.09555 -4.34832,-8.22192 -6.53963,-8.54996 -17.84105,-2.6708 -12.47805,6.49125 -14.42728,9.92555 -21.91036,38.60331 -5.44886,20.88186 -7.92072,27.48996 -11.80734,31.56474 -3.1289,3.28038 -5.09716,3.44361 -8.57163,0.71081 z m -253.43817,-0.99191 c -4.88155,-1.96198 -1.65968,-6.96856 4.48445,-6.96856 4.82347,0 6.75763,3.36541 3.69447,6.42831 -1.7314,1.73127 -4.72378,1.92892 -8.17892,0.54025 z m 50.2388,-3.34147 c -11.07751,-7.49175 -10.88994,-10.6268 0.63582,-10.6268 5.54446,0 7.2656,0.38771 8.87793,1.99992 1.10005,1.09995 2.00009,2.65962 2.00009,3.46593 0,2.73539 -3.36246,8.53358 -4.94877,8.53358 -0.86802,0 -3.82229,-1.51768 -6.56507,-3.37263 z M 639.73422,414.0359 c -11.40469,-4.02524 -16.17274,-8.65709 -19.66393,-19.10222 -4.0372,-12.07872 -4.66769,-23.64893 -4.63171,-84.99653 0.0344,-58.60987 0.76007,-73.21963 3.78725,-76.24656 1.57793,-1.57782 4.26641,-0.75866 5.17548,1.57692 1.27511,3.27601 2.42556,37.84924 2.39558,71.99183 -0.0167,19.07207 0.482,40.52627 1.10833,47.67598 2.78145,31.75133 8.85542,46.47993 19.17398,46.49436 4.12258,0.006 8.82709,4.50253 8.82709,8.43731 0,6.77261 -5.08269,8.08285 -16.17207,4.16891 z m 277.66832,0.0146 c -1.31657,-2.00916 -1.39414,-3.45802 -0.49528,-9.24963 2.82179,-18.1815 10.67814,-33.0285 20.91073,-39.51728 5.91865,-3.75318 10.34372,-3.75943 14.08359,-0.0199 3.49004,3.48975 5.04096,8.43322 5.70065,18.17046 0.45465,6.71085 0.25933,7.86463 -1.85694,10.96919 -3.9387,5.77806 -29.53794,22.02947 -34.70085,22.02947 -1.14444,0 -2.7833,-1.07205 -3.6419,-2.38233 z m -232.74563,-7.98526 c -8.77055,-2.44254 -10.54873,-6.25756 -6.89755,-14.79848 2.87069,-6.71516 9.29285,-28.92714 16.14237,-55.83063 6.00882,-23.60146 8.15136,-29.39091 9.53887,-25.77541 0.3332,0.86821 0.42923,20.4098 0.21341,43.42577 -0.41562,44.32507 -0.6973,47.07399 -5.26309,51.36298 -2.85575,2.68261 -7.81028,3.2655 -13.73401,1.61577 z m 159.45742,-3.83185 c -0.66003,-0.65998 -1.20005,-3.34846 -1.20005,-5.9744 0,-9.91191 15.59682,-84.74648 21.10009,-101.23969 4.60767,-13.8091 6.82295,-16.26953 26.15193,-29.04598 6.46277,-4.27189 11.7505,-7.93964 11.7505,-8.15056 0,-1.38954 -4.21943,0.59477 -16.18618,7.61203 -7.49923,4.39754 -14.6696,8.10988 -15.93414,8.24967 -3.33943,0.36915 -3.54959,-2.68063 -0.46354,-6.72632 3.71978,-4.87648 3.22666,-5.57158 -2.42837,-3.42303 -10.32144,3.92152 -12.6653,2.30045 -10.85762,-7.50937 2.04529,-11.09921 0.0231,-18.08278 -13.92311,-48.08443 -6.624,-14.24973 -8.14898,-19.6628 -6.20076,-22.01006 3.43992,-4.14452 9.99133,0.73998 9.99133,7.44916 0,5.05516 4.37076,13.36635 9.20525,17.50413 4.4063,3.77131 11.41301,6.58274 16.22397,6.50982 2.94845,-0.0447 2.87091,-0.14939 -1.92822,-2.60351 -6.852,-3.5039 -12.96033,-9.66617 -15.55136,-15.68867 -1.68589,-3.91861 -2.16086,-6.98372 -2.13926,-13.8052 0.0153,-4.82254 0.31838,-9.68385 0.67358,-10.80291 0.4836,-1.52357 -0.25657,-2.86129 -2.94667,-5.32555 -2.60531,-2.38657 -3.74013,-4.38103 -4.12971,-7.25804 -1.04875,-7.74497 -1.29504,-8.20474 -5.24072,-9.78336 -2.1182,-0.84746 -9.3617,-2.25767 -16.09666,-3.13379 -33.97519,-4.41969 -93.29852,-20.43048 -102.49223,-27.66164 -2.93283,-2.30678 -3.32518,-5.02617 -1.00316,-6.9531 1.28987,-1.0704 2.16272,-1.07713 4.7502,-0.0367 6.83774,2.7496 6.70292,2.80267 6.42439,-2.52895 -0.27782,-5.31789 -0.63497,-5.11022 7.15669,-4.16122 1.92414,0.23436 2.57164,-0.29473 3.20772,-2.62103 1.06819,-3.90662 2.58573,-4.69593 7.63208,-3.96967 3.76173,0.54137 4.25018,0.38659 4.25018,-1.34681 0,-4.555835 6.0169,-6.617011 11.00047,-3.768377 3.62412,2.071566 4.23386,1.840345 3.53515,-1.340605 -0.96835,-4.40851 1.43087,-5.850512 7.17726,-4.313724 2.5065,0.670342 4.76661,1.009489 5.02245,0.753669 0.25584,-0.25581 -0.0799,-2.116464 -0.74604,-4.134774 -1.02669,-3.11065 -0.97044,-3.910387 0.36922,-5.249946 1.44054,-1.440412 1.7428,-1.433355 3.41488,0.07973 3.34659,3.028377 8.95034,2.652303 13.15171,-0.882628 2.55504,-2.149693 3.07686,-3.31606 3.07686,-6.877231 0,-5.687923 1.93807,-7.408777 6.33044,-5.620968 6.58616,2.680736 7.35669,2.567357 8.62284,-1.26881 1.29267,-3.916478 3.9211,-5.316491 6.94415,-3.698741 3.39095,1.814633 3.98879,1.290962 2.83133,-2.480083 -0.90351,-2.943638 -0.80621,-3.814367 0.5813,-5.20176 1.55526,-1.555122 1.98429,-1.552417 6.42899,0.04053 6.07863,2.178535 6.13121,2.172636 7.26729,-0.815232 1.50402,-3.955548 5.11171,-5.085758 11.77381,-3.688484 3.1021,0.650619 6.00208,0.821087 6.44439,0.378818 0.44231,-0.442269 0.30228,-2.243791 -0.31117,-4.003383 -0.61344,-1.759591 -0.85848,-3.868599 -0.54453,-4.686684 0.72071,-1.877979 5.3383,-1.871287 8.63394,0.01251 3.8293,2.188843 5.13683,1.892418 4.41083,-0.999959 -0.91126,-3.630455 0.28344,-7.261697 2.85129,-8.666338 1.23105,-0.673403 5.56676,-1.473859 9.63489,-1.778792 7.78068,-0.58321 8.45349,-1.025826 9.55979,-6.288958 0.68285,-3.248628 4.44357,-4.587698 8.14647,-2.900689 2.1556,0.982076 2.56005,0.840352 3.32222,-1.164133 1.74106,-4.578957 4.05863,-5.374783 9.33198,-3.204485 1.37328,0.565187 2.08784,-0.07278 3.28174,-2.929938 1.81312,-4.339054 3.72718,-5.2816098 7.68895,-3.786334 l 2.93087,1.106188 -0.64383,-3.8104815 c -0.52739,-3.1213277 -0.22502,-4.2858492 1.67186,-6.4388945 1.89518,-2.15111225 3.75172,-2.83696529 10.22365,-3.7768712 6.59735,-0.9581202 8.50336,-1.6785887 11.50049,-4.3471617 4.75329,-4.2322081 8.91966,-5.5266971 17.49235,-5.4348561 9.53504,0.102149 13.95129,1.7476209 14.6014,5.4404128 0.68664,3.9002279 4.07614,4.617731 15.34552,3.2484094 5.03561,-0.6118563 12.08071,-1.146833 15.65581,-1.1888342 5.8583,-0.068823 6.5298,0.129804 6.7986,2.0110546 0.164,1.14808067 -0.3985,2.6656198 -1.2501,3.372307 -3.5586,2.9531556 -1.6285,3.3490734 12.2023,2.5030289 7.5628,-0.4626261 16.4507,-0.8685676 19.7508,-0.9020902 5.4408,-0.055268 6.0295,0.1439471 6.313,2.1366499 0.2443,1.716806 -0.6309,2.6852305 -4.0002,4.4264375 l -4.3129,2.2288373 8.2727,1.205182 c 17.5355,2.554633 21.2593,8.764363 23.3514,38.939944 1.5175,21.888425 0.5279,81.576537 -1.5745,94.965767 -1.7905,11.40225 -5.4711,20.22436 -10.9833,26.32506 -4.5551,5.04157 -20.456,16.03153 -24.3108,16.80241 -4.0433,0.8086 -5.108,-0.97154 -6.309,-10.54846 -1.1906,-9.49524 -3.507,-16.04932 -5.6723,-16.04932 -2.2522,0 -1.3396,12.16563 1.1161,14.87893 2.9407,3.24915 3.7907,15.76864 3.3536,49.39388 -0.2811,21.62865 -0.7999,32.45242 -1.6881,35.22314 -1.2533,3.90968 -9.6662,13.49945 -11.8426,13.49945 -2.3988,0 -4.2178,-3.29921 -4.3119,-7.82112 -0.054,-2.5731 -0.1661,-22.90263 -0.25,-45.17672 -0.1437,-38.12875 -0.2648,-40.66398 -2.0706,-43.32898 -1.8322,-2.70399 -1.8409,-2.96122 -0.1935,-5.74976 1.9324,-3.27099 1.0033,-3.69018 -3.2755,-1.47774 -2.6187,1.35407 -2.7616,1.76296 -2.3587,6.74972 0.3951,4.89012 0.1656,5.60259 -2.913,9.04342 -1.838,2.05431 -6.01555,5.31668 -9.28333,7.24971 -9.31661,5.51116 -13.07387,4.35583 -10.72471,-3.2978 1.63668,-5.33233 -0.0218,-5.91616 -4.72834,-1.66445 -4.76351,4.30318 -5.06249,5.93726 -1.58653,8.67123 1.38605,1.09016 3.1653,3.22974 3.95391,4.7546 2.59132,5.01065 3.64311,23.4749 3.32995,58.45728 l -0.30354,33.90746 -15.37341,9.89043 c -8.45538,5.43975 -16.10571,9.74974 -17.00072,9.57776 -1.42875,-0.27453 -1.66191,-2.81256 -1.9107,-20.79883 -0.31115,-22.4945 0.7683,-35.06371 3.50096,-40.7656 1.42907,-2.98186 1.72228,-5.74018 1.47831,-13.90754 -0.2588,-8.66424 0.0193,-10.94025 1.85968,-15.21789 1.1902,-2.76647 2.7897,-5.54918 3.55446,-6.18382 2.20215,-1.82746 1.64322,-2.75783 -1.85968,-3.09555 -2.22947,-0.21494 -3.56015,-1.01991 -4.23731,-2.56326 -1.3296,-3.03035 -2.02631,-2.83897 -3.61354,0.99262 -1.7094,4.12652 -7.61871,10.69954 -10.65787,11.85493 -2.00439,0.762 -2.24711,1.3586 -1.71236,4.20887 0.46164,2.46055 0.18087,3.68799 -1.08366,4.73737 -1.50526,1.24914 -2.5152,0.9831 -8.55508,-2.25367 -3.81837,-2.04627 -7.11004,-3.24661 -7.43984,-2.71302 -1.44003,2.3298 3.56391,32.14115 7.08787,42.22668 4.1476,11.87036 5.42842,40.63283 2.35346,52.85031 -0.94735,3.76402 -5.0059,7.93901 -10.72472,11.03241 -4.12876,2.23331 -6.86506,6.92462 -7.69945,13.20044 -0.87048,6.54721 -3.09456,10.11862 -10.66672,17.12853 -10.1328,9.38039 -52.29728,36.42137 -56.85564,36.46273 -0.85254,0.008 -2.09009,-0.52591 -2.75012,-1.18588 z m 65.26799,-162.89695 c 1.94422,-1.70691 3.53495,-3.55103 3.53495,-4.09803 0,-1.39357 -6.20964,2.67139 -7.87231,5.15338 -2.07505,3.09755 0.25199,2.53134 4.33736,-1.05535 z m -30.92577,-13.56395 c 2.73178,-5.39882 2.76419,-5.63562 0.95247,-6.96026 -2.42679,-1.77437 -5.43611,-1.91399 -3.69334,-0.17136 1.78828,1.78813 1.47745,3.31676 -1.36,6.68859 -2.63696,3.13359 -4.70643,8.51128 -3.673,9.54462 1.06472,1.06464 4.90461,-3.43109 7.77387,-9.10159 z m 13.20981,-20.81819 c 3.09743,-1.3588 2.83838,-2.87721 -0.35417,-2.076 -3.53832,0.88799 -7.39616,3.5185 -7.39616,5.04316 0,0.68754 1.01254,2.54264 2.2501,4.12243 l 2.25009,2.87234 0.50002,-4.48741 c 0.38121,-3.42114 1.03469,-4.72198 2.75012,-5.47452 z m 55.01704,-5.98557 c 2.06697,-1.92162 3.1076,-3.48488 2.3298,-3.49985 -1.72106,-0.0331 -8.09474,4.70974 -8.09474,6.02358 0,1.82341 2.05814,0.9224 5.76494,-2.52373 z m -39.62055,-2.82555 c -2.96892,-2.96867 -3.98636,-1.22476 -1.08631,1.86194 1.43325,1.52551 2.55722,2.08646 2.78878,1.39184 0.21335,-0.63998 -0.55276,-2.10418 -1.70247,-3.25378 z m 14.31811,-4.09719 c -0.78969,-5.26562 0.91473,-7.08441 5.74596,-6.13156 2.44256,0.48175 2.90434,0.37959 1.79103,-0.39622 -0.82503,-0.57492 -3.18763,-1.05221 -5.25022,-1.06063 -7.02464,-0.0287 -9.73435,6.00022 -5.03866,11.21065 2.3347,2.59062 3.46126,1.10776 2.75189,-3.62224 z m 19.94443,-12.85351 c -1.55807,-2.73854 -3.72391,-4.67202 -4.61596,-4.12075 -0.51788,0.32004 0.0707,1.65937 1.30802,2.9763 2.37208,2.52475 4.51508,3.26617 3.30794,1.14445 z m 30.12496,-16.25795 c -0.61397,-5.00653 -1.95996,-8.39509 -2.94386,-7.41127 -0.28705,0.28702 -0.008,2.19752 0.62101,4.24552 1.64457,5.35806 0.12111,6.57724 -5.21324,4.17198 -3.97258,-1.79123 -4.18605,-1.78853 -8.76916,0.11073 -4.85122,2.01037 -7.17896,5.46648 -5.90956,8.77424 0.73874,1.92494 6.73736,2.19133 11.5522,0.51301 4.29869,-1.49841 7.95106,-0.39204 9.41599,2.85227 1.15614,2.56048 1.23192,2.42368 1.53843,-2.77747 0.17731,-3.00883 0.046,-7.72439 -0.29181,-10.47901 z m -0.8611,-25.56466 c 1.2911,-4.88532 1.68071,-16.9242 0.70551,-21.7998 -0.47013,-2.35047 -1.16405,-3.12487 -2.80012,-3.12487 -2.93902,0 -4.57519,-1.83842 -4.57519,-5.14077 0,-1.50748 -0.45002,-3.01898 -1.00005,-3.35888 -1.53914,-0.95117 -1.19711,19.90552 0.45421,27.69658 2.49438,11.76862 5.0773,13.81893 7.21564,5.72774 z m 8.59273,-39.603211 c -0.8626,-5.14476 -1.91014,-6.029574 -4.71258,-3.980548 -1.81845,1.329566 -1.81134,1.48762 0.25931,5.764645 2.66932,5.513644 4.08122,15.108964 4.39868,29.893754 0.1614,7.51722 0.34891,4.8303 0.54145,-7.75892 0.162,-10.59214 -0.0571,-21.35566 -0.48686,-23.918931 z m -59.30496,32.625621 c 3.44837,-2.22861 6.01995,-4.30182 5.7146,-4.60714 -0.69044,-0.69038 -10.99045,5.13042 -12.67962,7.16558 -2.15752,2.59943 0.48746,1.62786 6.96502,-2.55844 z m 28.91375,-18.89884 c 0.87105,-1.30027 0.97504,-2.04812 0.28481,-2.04812 -1.43979,0 -8.15712,5.93039 -8.15712,7.2015 0,1.39356 6.20964,-2.67139 7.87231,-5.15338 z m -6.60009,-17.120303 c 3.56728,-2.94022 4.71918,-4.926999 2.85657,-4.926999 -0.47929,0 -2.84189,1.781468 -5.25022,3.958829 -5.20441,4.705238 -3.14908,5.536564 2.39365,0.96817 z m 25.70621,-14.46868 c 2.84918,-2.826698 1.38882,-3.199825 -3.27707,-0.837307 -3.76088,1.904278 -6.70063,4.338155 -6.70063,5.547593 0,1.396489 7.29228,-2.046063 9.9777,-4.710286 z m -14.43677,-8.524113 c 0.92038,-1.48909 -0.14674,-2.298697 -2.06146,-1.564007 -0.88362,0.339048 -1.32648,1.069611 -0.98416,1.623472 0.81061,1.311485 2.2152,1.284061 3.04562,-0.05947 z m -43.27394,-7.589097 c -0.67706,-0.273912 -2.02711,-0.290585 -3.00013,-0.03705 -0.97301,0.253533 -0.41904,0.477643 1.23103,0.498021 1.65007,0.02038 2.44616,-0.187057 1.7691,-0.460969 z m 92.75782,-2.512044 c 2.3685,-2.163123 3.038,-3.311556 2.1104,-3.620687 -0.747,-0.249002 -2.9877,1.176578 -4.9792,3.167956 -4.55499,4.554574 -2.05458,4.949164 2.8688,0.452731 z m -128.02835,-3.83176 c 0,-0.549978 -1.12505,-0.999959 -2.50011,-0.999959 -1.37506,0 -2.50011,0.449981 -2.50011,0.999959 0,0.549977 1.12505,0.999959 2.50011,0.999959 1.37506,0 2.50011,-0.449982 2.50011,-0.999959 z M 1050.7682,46.469698 c 3.3853,-2.187916 6.1552,-4.445404 6.1552,-5.016641 0,-1.234247 -8.0681,2.764523 -12.9448,6.415775 -5.7846,4.330957 -0.341,3.209214 6.7896,-1.399134 z M 998.36074,391.18384 c -6.96606,-7.70597 -9.45571,-13.87108 -10.51202,-26.03091 -1.06458,-12.25498 -2.8181,-21.24882 -3.91384,-20.07412 -0.4396,0.47128 -1.56241,5.1693 -2.49512,10.44004 -0.93273,5.27074 -2.08749,10.21678 -2.56614,10.99119 -1.97943,3.2025 -2.57769,-1.16021 -1.83583,-13.38725 0.98307,-16.20259 2.15013,-18.82689 10.38266,-23.34692 12.31205,-6.75986 12.35354,-6.77557 15.26005,-5.77901 6.0968,2.09036 11.2411,20.15872 11.2285,39.43811 -0.01,8.69876 -0.2565,9.93612 -2.9761,14.67751 -1.6334,2.84784 -3.4293,5.4618 -3.9908,5.80878 -1.2234,0.75601 -1.3598,2.51277 -0.1951,2.51277 0.4542,0 3.4918,-2.01293 6.7503,-4.47317 3.2585,-2.46025 6.4871,-4.48516 7.1746,-4.49981 3.349,-0.0714 -0.316,6.3966 -8.6259,15.22273 -5.0576,5.37178 -7.739,5.07788 -13.68526,-1.49994 z M 646.91206,368.95092 c -0.55341,-1.45545 -1.00619,-7.98746 -1.00619,-14.51558 0,-12.12368 1.04158,-17.482 3.25628,-16.75169 1.78641,0.58908 3.12464,17.12625 2.09393,25.87579 -0.90583,7.68958 -2.64804,9.85187 -4.34402,5.39148 z m -12.64382,-10.67861 c -1.30486,-2.02189 -1.70093,-78.272 -0.49103,-94.52957 1.56275,-20.99887 3.80552,-24.89872 13.84313,-24.0713 7.28115,0.6002 16.44079,4.08715 20.80805,7.92132 4.60022,4.03873 5.75225,10.21719 5.3203,28.53349 -0.34088,14.45465 -0.34798,14.49276 -3.14753,16.8994 -2.12435,1.8262 -3.97411,2.41209 -7.61547,2.41209 -9.6156,0 -11.318,3.28778 -20.12144,38.85968 -3.17971,12.84817 -6.22045,23.79944 -6.7572,24.33614 -0.63452,0.63447 -1.27777,0.50809 -1.83881,-0.36125 z m 30.50892,-72.39666 c 4.15999,-5.28813 5.42344,-14.58541 1.54466,-11.36658 -3.6841,3.05727 -7.18691,13.92896 -4.48785,13.92896 0.5101,0 1.83453,-1.15308 2.94319,-2.56238 z m 369.28114,48.22418 c -3.5126,-4.232 -5.4896,-16.66299 -2.6502,-16.66299 2.0626,0 6.4728,6.9681 7.1841,11.3509 0.8292,5.10877 -1.9754,8.39465 -4.5339,5.31209 z m -96.47331,-22.32942 c -1.16335,-1.16325 -0.77051,-28.15 0.42048,-28.88601 2.42519,-1.49873 3.42104,1.9244 3.73845,12.85065 0.37756,12.9961 -1.18259,19.01145 -4.15893,16.03536 z m 54.93353,-21.87744 c -3.47562,-3.47533 -4.02769,-9.24349 -4.06324,-42.45327 -0.041,-38.29714 0.35884,-40.98694 6.94965,-46.75166 5.50547,-4.81544 14.73207,-9.76102 16.75927,-8.98318 2.4299,0.93236 2.9883,11.39406 2.5216,47.23518 -0.4739,36.38398 -0.9767,39.44853 -7.4842,45.61628 -7.38507,6.99953 -11.51786,8.50161 -14.68308,5.33665 z m 55.57838,-8.67337 c -3.6874,-5.9659 -7.1545,-14.22249 -7.1644,-17.06196 -0.014,-3.98288 2.7812,-4.72068 5.4004,-1.42548 2.6921,3.38699 6.7715,13.94752 6.9511,17.9949 0.1981,4.46439 -2.5697,4.72721 -5.1871,0.49254 z M 934.16818,257.94388 c -2.92235,-2.10134 -2.99436,-7.28846 -0.15136,-10.90246 4.39867,-5.59153 16.56038,-9.543 19.70219,-6.40144 2.88777,2.88753 -0.18565,9.56094 -6.82472,14.81874 -4.77823,3.78412 -9.608,4.72727 -12.72611,2.48516 z m 115.73252,-1.25456 c -4.1066,-3.69766 -5.25,-11.42821 -4.8131,-32.54402 0.3185,-15.3914 0.4761,-16.49064 3.1426,-21.92019 1.9418,-3.95411 5.28,-8.01321 10.8287,-13.16773 15.502,-14.40036 19.7287,-15.78357 16.5409,-5.41309 -2.413,7.85021 -3.4661,16.43705 -4.2395,34.56722 -0.3817,8.94847 -1.1292,16.53891 -1.6611,16.86763 -1.6281,1.00613 -3.4822,-1.85107 -5.2617,-8.10851 -1.9597,-6.89147 -5.1379,-13.52955 -6.4776,-13.52955 -1.1705,0 -4.0366,4.04085 -4.0366,5.69089 0,0.71495 0.661,0.99241 1.551,0.65096 1.9437,-0.74584 5.8684,2.84126 7.55,6.90058 1.1519,2.78084 1.0559,3.21178 -1.1064,4.96255 -1.5221,1.23245 -3.1942,1.7099 -4.6813,1.33671 -2.6589,-0.6673 -2.8082,-0.0323 -0.8132,3.45738 0.786,1.37494 1.4452,3.95377 1.4647,5.73071 0.029,2.62633 -0.4324,3.34821 -2.4647,3.85826 -1.3751,0.34508 -2.5001,0.79048 -2.5001,0.98977 0,0.19929 1.4221,2.37987 3.1604,4.84575 2.6477,3.75593 2.9523,4.73418 1.8777,6.02898 -1.9024,2.29208 -4.6301,1.88454 -8.0607,-1.2043 z m -321.79132,0.54998 c -0.66003,-0.65997 -1.20006,-1.72762 -1.20006,-2.37254 0,-5.23822 39.05897,-29.90391 78.39692,-49.50754 17.91089,-8.92569 22.15169,-10.26848 23.26533,-7.36663 1.65452,4.31125 -19.02457,18.98311 -59.06025,41.90339 -29.30703,16.77816 -38.22929,20.51571 -41.40194,17.34332 z M 1081.6408,109.19533 c -0.5885,-22.034834 -0.01,-62.856139 0.9384,-65.747316 0.3691,-1.130039 0.8334,-0.88344 1.8823,0.999959 1.1236,2.017446 1.3992,10.280055 1.4278,42.813995 0.034,38.394092 -0.3389,44.182462 -2.8447,44.182462 -0.4452,0 -1.0769,-10.01209 -1.4038,-22.2491 z"
       id="path91"
       inkscape:connector-curvature="0" />
  </g>
</svg>
