<?xml version="1.0" encoding="UTF-8"?>
<!DOCTYPE svg PUBLIC "-//W3C//DTD SVG 1.1//EN" "http://www.w3.org/Graphics/SVG/1.1/DTD/svg11.dtd">
<!-- Creator: CorelDRAW 2019 (64-Bit) -->
<svg xmlns="http://www.w3.org/2000/svg" xml:space="preserve" width="257px" height="256px" version="1.1" style="shape-rendering:geometricPrecision; text-rendering:geometricPrecision; image-rendering:optimizeQuality; fill-rule:evenodd; clip-rule:evenodd"
viewBox="0 0 257 256.2"
 xmlns:xlink="http://www.w3.org/1999/xlink"
 xmlns:xodm="http://www.corel.com/coreldraw/odm/2003">
 <defs>
  <style type="text/css">
   <![CDATA[
    .fil0 {fill:white}
   ]]>
  </style>
 </defs>
 <g id="Layer_x0020_1">
  <metadata id="CorelCorpID_0Corel-Layer"/>
  <path class="fil0" d="M89.17 139.86l79.44 0 4.22 20.95 -87.57 0 3.91 -20.95zm-82.89 -35.67l29.26 0c3.24,0 5.88,2.64 5.88,5.88l0 0.06c0,3.24 -2.64,5.88 -5.88,5.88l-29.26 0c-3.23,0 -5.88,-2.64 -5.88,-5.88l0 -0.06c0,-3.24 2.65,-5.88 5.88,-5.88zm186.22 -95.19l-15.41 24.88c-1.7,2.75 -5.34,3.61 -8.09,1.9l-0.05 -0.03c-2.75,-1.7 -3.61,-5.34 -1.91,-8.09l15.41 -24.88c1.71,-2.75 5.34,-3.61 8.09,-1.9l0.06 0.03c2.75,1.7 3.6,5.34 1.9,8.09zm-103.24 18.66l-15.41 -24.88c-1.7,-2.75 -5.34,-3.61 -8.09,-1.9l-0.06 0.03c-2.75,1.7 -3.6,5.34 -1.9,8.09l15.41 24.88c1.7,2.75 5.34,3.61 8.09,1.9l0.06 -0.03c2.74,-1.7 3.6,-5.34 1.9,-8.09zm-37.43 31.48l-25.32 -14.68c-2.8,-1.62 -6.41,-0.66 -8.03,2.14l-0.03 0.06c-1.63,2.8 -0.66,6.41 2.13,8.03l25.32 14.68c2.8,1.62 6.41,0.66 8.04,-2.14l0.03 -0.06c1.62,-2.8 0.66,-6.41 -2.14,-8.03zm152.3 0.35l25.32 -14.68c2.79,-1.62 6.41,-0.66 8.03,2.14l0.03 0.06c1.62,2.79 0.66,6.41 -2.14,8.03l-25.32 14.67c-2.79,1.62 -6.41,0.66 -8.03,-2.13l-0.03 -0.06c-1.62,-2.8 -0.66,-6.41 2.14,-8.03zm17.33 44.7l29.26 0c3.23,0 5.88,2.64 5.88,5.88l0 0.06c0,3.24 -2.65,5.88 -5.88,5.88l-29.26 0c-3.24,0 -5.88,-2.64 -5.88,-5.88l0 -0.06c0,-3.24 2.64,-5.88 5.88,-5.88zm-186.46 102.92l80.44 -130.37c13.23,-21.46 16.52,-19.84 29.18,0.91l76.24 125.03c19.39,31.81 20.74,32.8 -16.65,32.98l-154.38 0.76c-35.07,0.17 -29.95,-4.81 -14.83,-29.31zm-3.81 49.09l193.11 -0.02c31.3,0 41.9,-14.96 24.03,-44.27l-95.23 -156.19c-13.62,-22.34 -32.99,-22.18 -46.67,0l-100.48 162.86c-13.25,21.48 -4.18,37.62 25.24,37.62zm138.35 -32.91l0 10.18 0.87 0 0 -10.18 0.63 0 0 10.18 0.66 0 0 -10.18 0.63 0 0 10.18 0.66 0 0 -10.18 0.63 0 0 10.18 0.66 0 0 -10.18 0.63 0 0 10.18 0.66 0 0 -10.18 0.63 0 0 10.18 0.66 0 0 -10.18 0.63 0 0 10.18 0.66 0 0 -10.18 0.63 0 0 10.18 0.66 0 0 -10.18 0.63 0 0 10.18 0.5 0 0 -10.18 0.63 0 0 10.18 0.67 0 0 -10.18 0.62 0 0 10.18 0.97 0 0 -10.33 -0.86 0 0 -40.82 -0.51 -3.13 -106.56 0 -0.51 3.13 0 21.73 107.5 0 0 1.1 -107.5 0 0 9.61 107.5 0 0 1.49 -107.5 0 0 6.89 -0.08 0 0 10.33 0.94 0 0 -10.18 0.63 0 0 10.18 0.66 0 0 -10.18 0.63 0 0 10.18 0.66 0 0 -10.18 0.63 0 0 10.18 0.66 0 0 -10.18 0.63 0 0 10.18 0.66 0 0 -10.18 0.63 0 0 10.18 0.66 0 0 -10.18 0.35 0 0.28 0 0 10.18 0.66 0 0 -10.18 0.63 0 0 10.18 0.66 0 0 -10.18 0.63 0 0 10.18 0.5 0 0 -10.18 0.63 0 0 10.18 0.67 0 0 -10.18 0.62 0 0 10.18 0.9 0 0 -10.18 80.68 0zm-77.56 -32.38l-11.1 0 0 -7.66 11.1 0 0 7.66zm71.62 26.59l7.98 0 0 4.38 -7.98 0 0 -4.38zm-77.4 0l7.97 0 0 4.38 -7.97 0 0 -4.38zm15.95 -17.2l0 -4.54 54.88 0 0 4.54 -54.88 0zm12.04 -6.1l-7.98 0 0 -4.38 7.98 0 0 4.38zm30.02 0l0 -4.38 7.98 0 0 4.38 -7.98 0zm21.27 -3.29l0 -7.66 11.1 0 0 7.66 -11.1 0zm21.51 -35.8l-8.14 1.92 1.62 6.02 0.36 2.19 8.1 -1.91 -1.94 -8.22zm-110.59 9.89l0.28 -1.71 1.05 -3.93 0.5 -2.08 -8.22 -1.94 -1.94 8.22 8.21 1.94 0.12 -0.5zm76.49 -41.4l0 4.85 9.85 0 0 -4.85 -9.85 0zm-57.23 4.85l9.85 0 0 -4.85 -9.85 0 0 4.85zm14.7 -4.85l0 4.85 9.85 0 0 -4.85 -9.85 0zm27.83 0l0 4.85 9.85 0 0 -4.85 -9.85 0zm-62.66 54.1l106.56 0 -1.97 -11.99 -0.11 0.03 -1.94 -8.22 0.08 -0.02 -6.02 -22.49 -7.35 -4.69 -2.66 0 -69.27 0 -7.35 4.69 -6.59 24.59 -1.33 5.64 -2.05 12.46z"/>
 </g>
</svg>
