<?xml version="1.0" encoding="UTF-8"?>
<!DOCTYPE svg PUBLIC "-//W3C//DTD SVG 1.1//EN" "http://www.w3.org/Graphics/SVG/1.1/DTD/svg11.dtd">
<!-- Creator: CorelDRAW 2019 (64-Bit) -->
<svg xmlns="http://www.w3.org/2000/svg" xml:space="preserve" width="3024px" height="3024px" version="1.1" style="shape-rendering:geometricPrecision; text-rendering:geometricPrecision; image-rendering:optimizeQuality; fill-rule:evenodd; clip-rule:evenodd"
viewBox="0 0 3024 3024"
 xmlns:xlink="http://www.w3.org/1999/xlink"
 xmlns:xodm="http://www.corel.com/coreldraw/odm/2003">
 <defs>
  <style type="text/css">
   <![CDATA[
    .fil0 {fill:white}
   ]]>
  </style>
 </defs>
 <g id="Layer_x0020_1">
  <metadata id="CorelCorpID_0Corel-Layer"/>
  <g id="_1920964977696">
   <path class="fil0" d="M2785.45 2926.24l-2545.88 0 986.12 -583.24 290.61 209.93 275.82 -201.05 993.33 574.36zm-901.06 -642.06l1044.42 -762.56 -2.37 1364.87 -1042.05 -602.31zm-1783.82 -755.61l1041.01 752.92 -1041.01 603.64 0 -1356.56zm437.49 -1430.03l1948.43 0 0 1616.21 -970.58 708.5 -977.85 -708.5 0 -1616.21zm2047.42 1000.14l315.97 313.82 -315.97 230.56 0 -544.38zm-2146.36 0l0 544.38 -318.23 -230.56 318.23 -313.82zm-439.12 333.34l0 1543.21c0,28.54 20.23,48.77 48.77,48.77l2926.46 0c28.54,0 48.77,-20.23 48.77,-48.77l0 -1548.58c0,-54.28 -57.06,-102.23 -93.45,-137.96l-299.64 -297.58c-33.16,-33.16 -45.43,-44.89 -45.43,-76.11l0 -719.91c0.99,-158.61 0,-195.09 -78.53,-195.09l-2004.15 0c-63.68,0 -63.84,50.16 -63.84,182.9l0.93 720.35c-2.9,53.82 -2.54,47.57 -32.96,77.99l-306.33 302.13c-24.24,24.24 -100.6,94.11 -100.6,148.65z"/>
   <path class="fil0" d="M735.58 1806l1561.71 0.4 0 -98.89 -1561.71 1.22 0 97.27zm284.71 195.17l985.98 0.25 0 0 135.08 -98.61 -1255.41 1.02 134.35 97.34zm673.8 292.01l-269.69 0.79 134.59 97.52 -43.7 -31.67 90.94 -66.38 87.86 -0.26zm179.89 -195.19l-718.81 0.91 134.43 97.4 536.9 0.22 -87.46 -0.03 134.94 -98.5zm219.77 -96.55l0 0 135.21 -98.7 -135.21 98.7zm-1358.17 -780.73l281.42 0.09 0 -97.65 -281.42 0.29 0 97.27zm1274 0.28l287.71 0.1 0 -98.87 -287.71 0.29 0 98.48zm-1274 194.82l695.27 0.09 -99.37 -97.66 -595.9 0.29 0 97.28zm868.58 0.28l693.13 0.09 0 -98.86 -593.76 0.29 -99.37 98.48zm-868.58 194.82l1561.71 0.37 0 -98.87 -1561.71 1.22 0 97.28z"/>
   <path class="fil0" d="M1111.01 996.71l0 -371.14 88.42 -84.18 -24.81 -69.66 68.27 28.29 81.86 -77.93 383.9 0 77.71 77.71 69.01 -26.57 -26.56 69.01 84.18 84.19 0 371.14 -84.15 88.17 28.2 68.27 -69.61 -24.88 -78.45 82.19 -383.9 0 -82.98 -83.13 -69.06 26.43 26.7 -68.96 -88.73 -88.95zm160.37 -574.62l-160.37 0 0 150.11 -49.47 49.46 -189.91 189.91 189.91 189.91 49.47 49.46 0 160.38 159.84 0 48.67 48.67 197.08 197.08 197.08 -197.08 48.68 -48.67 150.63 0 0 -160.38 49.47 -49.46 189.91 -189.91 -189.91 -189.91 -49.47 -49.46 0 -150.11 -150.11 0 -48.67 -48.68 -196.55 -196.54 -1.06 0 -196.54 196.54 -48.68 48.68zm102.05 -48.68l143.27 -143.27 143.22 143.19 -108.72 0 -34.79 -96.46 -34.29 96.48 -108.69 0.06zm589.03 302.48l136.1 136.11 -136.33 136.32 0 -103.5 96.76 -32.55 -96.53 -33.19 0 -103.19zm-302.15 584.1l-143.28 143.28 -143.27 -143.28 108.43 0 34.45 96.54 34.51 -96.54 109.16 0zm-598.77 -584.96l0 103.61 -96.53 33.2 96.53 33.19 0 102.21 -136.1 -136.1 136.1 -136.11z"/>
   <path class="fil0" d="M1271.38 386.68l13 -13 -222.84 0 0 211.99 13.21 -13.21 0 -185.78 196.63 0zm-196.63 860.58l0 -196.05 -13.21 -13.21 0 222.26 222.84 0 -13 -13 -196.63 0zm874.5 -196.05l0 196.05 -186.37 0 -12.99 13 212.57 0 0 -222.26 -13.21 13.21zm-199.36 -677.53l12.99 13 186.37 0 0 185.78 13.21 13.21 0 -211.99 -212.57 0z"/>
   <path class="fil0" d="M1406.76 549.06c33.33,-4.15 71.33,-11.87 105.14,-11.87l0 -52.2c-27.88,-0.1 -60.9,2.98 -87.84,10.09 -5.86,1.54 -11.63,3.27 -17.3,5.17l0 48.81zm210.48 0c-33.33,-4.15 -71.33,-11.87 -105.14,-11.87l0 -52.2c27.88,-0.1 60.9,2.98 87.84,10.09 5.86,1.54 11.63,3.27 17.3,5.17l0 48.81zm-56.79 578.89l25.32 0 0 21 -25.32 0 0 -21zm-47.97 0l15.8 0 0 21 -15.8 0 0 -21zm157.86 -164.24c0.47,3.32 -0.39,6.81 -2.67,9.62l-21.85 26.92c-3.9,4.8 -10.71,6.1 -16.1,3.41 -0.75,-0.37 -1.46,-0.82 -2.15,-1.34 -5.59,-4.34 -6.54,-12.36 -2.1,-17.83l21.85 -26.91c1.18,-1.48 2.64,-2.61 4.25,-3.42l13.3 0.86c0.23,0.16 0.46,0.32 0.68,0.49 2.72,2.1 4.35,5.08 4.79,8.2zm68.2 -262.84l-12.96 88.1c-68.06,0 -47.31,-2.26 -113.04,8.47l-0.92 1.98 7.43 -147.65c43.53,10.04 84.76,26.76 119.49,49.1zm5.5 0.73l-0.4 -3.2 0.26 0.17 0.91 -4.32 15.89 -75.64c22.41,37.55 36.03,83.65 38.14,137.89l0 0.07 -8.79 0.72c-15.62,-26.79 -31.13,-48.36 -46.22,-53.71l0.21 -1.98zm42.1 57.44c-6.5,30.44 -13.28,48.68 -20.36,53.19 -2.43,0.2 -7.07,0.88 -9.49,1.08l-26.23 -22.36 12.2 -82.95c16.24,5.75 36.51,36.63 43.88,51.04zm5.33 102.63l-30.64 -7.77 0 -34.68c2.57,-0.21 5.13,-0.43 7.68,-0.64 7.49,-4.75 14.64,-24.01 21.5,-56.14 -0.03,-0.06 -0.06,-0.12 -0.09,-0.17l8.79 -0.72c0.18,4.87 0.28,9.82 0.28,14.83 0,28.35 -2.4,57.06 -7.52,85.29zm-31.31 80.34l-29.09 -51.57 28.57 -30.93 0 -0.95 30.63 7.78 -0.14 0.78c-4.66,25.42 -11.51,50.44 -20.81,74.45l-9.16 0.44zm-108.69 7.19l3.8 -48.96 65.94 -0.24 6.15 -6.86 26.87 49.88 -101.67 4.85 -1.09 1.33zm-62.29 6.62l36.95 -43.93 1.47 -11.95 22.53 0 -4.41 52.92 -31.46 36.43 -25.08 -33.47zm-114.46 150.72l74.56 0 0 -37.54 16.36 0 0 37.31c10.28,-0.17 23.44,-0.43 46.89,-0.82l6.16 -23.71 0.2 -5.7 -13.06 0 0 -11.64 13.47 0 0.54 -15.3 -12.15 0 0 -11.63 12.57 0 0.44 -12.58 -11.57 -0.46 -0.93 -34.99 -25.09 -33.84 38.55 -46.09 1.1 -8.47 -0.34 0 -39.41 -41.89 -32.26 4.87 -11.05 88.46 -13.63 3.03 1.24 63.73 -30.62 0 1.24 -63.73 -13.63 -3.03 -11.05 -88.46 -32.26 -4.87 -39.41 41.89 -0.34 0 1.1 8.47 38.55 46.09 -25.09 33.84 -0.93 34.99 -11.57 0.46 0.44 12.58 12.57 0 0 11.63 -12.15 0 0.54 15.3 13.47 0 0 11.64 -13.06 0 0.2 5.7 6.16 23.71c23.45,0.39 36.61,0.65 46.89,0.82l0 -37.31 16.36 0 0 37.54zm37.03 -470.99c26.93,-0.42 71.36,7.18 97.82,13.28l0.1 0.02 -7.43 155.33 -19.88 42.73 0.31 0.34 -29.8 4.87 -11.05 -57.6 -59.64 0 -11.05 57.6 -29.8 -4.87 0.31 -0.34 -19.88 -42.73 -7.43 -155.33 0.1 -0.02c26.46,-6.1 70.39,-13.7 97.32,-13.28zm110.53 -79.8l0 -53.85c49.17,16.44 94.23,51.07 124.07,93.02 3.66,5.13 7.14,10.47 10.43,15.98l-17.55 84.52c-51.19,-36.04 -157.84,-67.14 -227.01,-65.45l0 -87.52c33.81,0 76.73,9.15 110.06,13.3zm-158.73 572.2l-25.32 0 0 21 25.32 0 0 -21zm47.97 0l-15.8 0 0 21 15.8 0 0 -21zm-133.34 -127.7c3.9,4.8 10.71,6.1 16.1,3.41 0.75,-0.37 1.46,-0.82 2.15,-1.34 5.59,-4.34 6.54,-12.36 2.1,-17.83l-21.85 -26.91c-1.18,-1.48 -2.64,-2.61 -4.25,-3.42 -39.11,2.52 -9.61,27.16 5.75,46.09zm-92.72 -299.38l12.96 88.1c68.06,0 47.31,-2.26 113.04,8.47l0.92 1.98 -7.43 -147.65c-43.53,10.04 -84.76,26.76 -119.49,49.1zm-5.5 0.73l0.4 -3.2 -0.26 0.17 -0.91 -4.32 -15.89 -75.64c-22.41,37.55 -36.03,83.65 -38.14,137.89l0 0.07 8.79 0.72c15.62,-26.79 31.13,-48.36 46.22,-53.71l-0.21 -1.98zm-42.1 57.44c6.5,30.44 13.28,48.68 20.36,53.19 2.43,0.2 7.07,0.88 9.49,1.08l26.23 -22.36 -12.2 -82.95c-16.24,5.75 -36.51,36.63 -43.88,51.04zm-5.33 102.63l30.64 -7.77 0 -34.68c-2.57,-0.21 -5.13,-0.43 -7.68,-0.64 -7.49,-4.75 -14.64,-24.01 -21.5,-56.14 0.03,-0.06 0.06,-0.12 0.09,-0.17l-8.79 -0.72c-0.18,4.87 -0.28,9.82 -0.28,14.83 0,28.35 2.4,57.06 7.52,85.29zm31.31 80.34l29.09 -51.57 -28.57 -30.93 0 -0.95 -30.63 7.78 0.14 0.78c4.66,25.42 11.51,50.44 20.81,74.45l9.16 0.44zm108.69 7.19l-3.8 -48.96 -65.94 -0.24 -6.15 -6.86 -26.87 49.88 101.67 4.85 1.09 1.33zm62.29 6.62l-36.95 -43.93 -1.47 -11.95 -22.53 0 4.41 52.92 31.46 36.43 25.08 -33.47zm-33.1 -400.07l0 -53.85c-49.17,16.44 -94.23,51.07 -124.07,93.02 -3.66,5.13 -7.14,10.47 -10.43,15.98l17.55 84.52c51.19,-36.04 157.84,-67.14 227.01,-65.45l0 -87.52c-33.81,0 -76.73,9.15 -110.06,13.3z"/>
  </g>
 </g>
</svg>
