<?xml version="1.0" encoding="UTF-8"?>
<!DOCTYPE svg PUBLIC "-//W3C//DTD SVG 1.1//EN" "http://www.w3.org/Graphics/SVG/1.1/DTD/svg11.dtd">
<!-- Creator: CorelDRAW 2019 (64-Bit) -->
<svg xmlns="http://www.w3.org/2000/svg" xml:space="preserve" width="512px" height="482px" version="1.1" style="shape-rendering:geometricPrecision; text-rendering:geometricPrecision; image-rendering:optimizeQuality; fill-rule:evenodd; clip-rule:evenodd"
viewBox="0 0 512 481.85"
 xmlns:xlink="http://www.w3.org/1999/xlink"
 xmlns:xodm="http://www.corel.com/coreldraw/odm/2003">
 <defs>
  <style type="text/css">
   <![CDATA[
    .fil7 {fill:red}
    .fil1 {fill:#484848;fill-rule:nonzero}
    .fil5 {fill:#939393;fill-rule:nonzero}
    .fil3 {fill:#A7A8A8;fill-rule:nonzero}
    .fil4 {fill:#B2B2B2;fill-rule:nonzero}
    .fil2 {fill:#C9C9CA;fill-rule:nonzero}
    .fil0 {fill:#E4E4E4;fill-rule:nonzero}
    .fil6 {fill:white;fill-rule:nonzero}
   ]]>
  </style>
 </defs>
 <g id="Layer_x0020_1">
  <metadata id="CorelCorpID_0Corel-Layer"/>
  <path class="fil0" d="M85.41 230.61l28.81 0 0 119.62 -28.81 0 0 -119.62zm0 0z"/>
  <path class="fil0" d="M393.96 230.61l28.81 0 0 119.62 -28.81 0 0 -119.62zm0 0z"/>
  <path class="fil1" d="M114.22 356.09l-28.81 0c-3.24,0 -5.86,-2.62 -5.86,-5.86l0 -119.62c0,-3.24 2.62,-5.86 5.86,-5.86l28.81 0c3.23,0 5.86,2.62 5.86,5.86l0 119.62c0,3.24 -2.63,5.86 -5.86,5.86l0 0zm-22.95 -11.72l17.08 0 0 -107.9 -17.08 0 0 107.9zm0 0z"/>
  <path class="fil1" d="M422.77 356.09l-28.81 0c-3.23,0 -5.86,-2.62 -5.86,-5.86l0 -119.62c0,-3.24 2.63,-5.86 5.86,-5.86l28.81 0c3.24,0 5.87,2.62 5.87,5.86l0 119.62c0,3.24 -2.63,5.86 -5.87,5.86l0 0zm-22.94 -11.72l17.08 0 0 -107.9 -17.08 0 0 107.9zm0 0z"/>
  <path class="fil2" d="M436.91 429.53l-61.02 0 0 -85.26c0,-16.85 13.66,-30.5 30.51,-30.5 16.85,0 30.51,13.66 30.51,30.5l0 85.26 0 0zm0 0z"/>
  <path class="fil3" d="M462.25 467.37l-111.7 0 0 -18.17c0,-10.86 8.81,-19.67 19.68,-19.67l72.34 0c10.87,0 19.68,8.81 19.68,19.67l0 18.17zm0 0z"/>
  <path class="fil1" d="M436.91 435.39l-61.02 0c-3.24,0 -5.86,-2.63 -5.86,-5.87l0 -85.25c0,-20.05 16.31,-36.37 36.37,-36.37 20.05,0 36.37,16.32 36.37,36.37l0 85.25c0,3.24 -2.62,5.87 -5.86,5.87l0 0zm-55.16 -11.73l49.3 0 0 -79.39c0,-13.59 -11.06,-24.64 -24.65,-24.64 -13.59,0 -24.65,11.05 -24.65,24.64l0 79.39zm0 0z"/>
  <path class="fil1" d="M462.25 473.23l-111.7 0c-3.24,0 -5.86,-2.62 -5.86,-5.86l0 -18.17c0,-14.08 11.45,-25.54 25.53,-25.54l72.35 0c14.09,0 25.54,11.46 25.54,25.54l0 18.17c0,3.24 -2.62,5.86 -5.86,5.86l0 0zm-105.84 -11.72l99.98 0 0 -12.31c0,-7.61 -6.2,-13.81 -13.82,-13.81l-72.35 0c-7.61,0 -13.81,6.2 -13.81,13.81l0 12.31zm0 0z"/>
  <path class="fil2" d="M130.32 429.53l-61.02 0 0 -85.26c0,-16.85 13.66,-30.5 30.51,-30.5 16.85,0 30.51,13.66 30.51,30.5l0 85.26zm0 0z"/>
  <path class="fil3" d="M155.66 467.37l-111.7 0 0 -18.17c0,-10.86 8.81,-19.67 19.68,-19.67l72.35 0c10.86,0 19.67,8.81 19.67,19.67l0 18.17zm0 0z"/>
  <path class="fil1" d="M130.32 435.39l-61.02 0c-3.23,0 -5.86,-2.63 -5.86,-5.87l0 -85.25c0,-20.05 16.32,-36.37 36.37,-36.37 20.06,0 36.37,16.32 36.37,36.37l0 85.25c0,3.24 -2.62,5.87 -5.86,5.87l0 0zm-55.16 -11.73l49.3 0 0 -79.39c0,-13.59 -11.06,-24.64 -24.65,-24.64 -13.59,0 -24.65,11.05 -24.65,24.64l0 79.39zm0 0z"/>
  <path class="fil1" d="M155.66 473.23l-111.7 0c-3.24,0 -5.86,-2.62 -5.86,-5.86l0 -18.17c0,-14.08 11.45,-25.54 25.54,-25.54l72.34 0c14.09,0 25.54,11.46 25.54,25.54l0 18.17c0,3.24 -2.62,5.86 -5.86,5.86l0 0zm-105.84 -11.72l99.98 0 0 -12.31c0,-7.61 -6.2,-13.81 -13.81,-13.81l-72.35 0c-7.62,0 -13.82,6.2 -13.82,13.81l0 12.31zm0 0z"/>
  <path class="fil4" d="M440.94 264.1l-375.67 0c-16.46,0 -29.81,-13.35 -29.81,-29.81 0,-16.47 13.35,-29.82 29.81,-29.82l375.67 0c16.46,0 29.81,13.35 29.81,29.82 0,16.46 -13.35,29.81 -29.81,29.81zm0 0z"/>
  <path class="fil2" d="M479.61 159.3l-94.74 0c-14.65,0 -26.53,-11.88 -26.53,-26.53l0 -91.76c0,-14.65 11.88,-26.53 26.53,-26.53l94.74 0c14.65,0 26.53,11.88 26.53,26.53l0 91.76c0,14.65 -11.88,26.53 -26.53,26.53zm0 0z"/>
  <path class="fil2" d="M127.13 159.3l-94.74 0c-14.65,0 -26.53,-11.88 -26.53,-26.53l0 -91.76c0,-14.65 11.88,-26.53 26.53,-26.53l94.74 0c14.65,0 26.53,11.88 26.53,26.53l0 91.76c0,14.65 -11.88,26.53 -26.53,26.53zm0 0z"/>
  <path class="fil1" d="M127.13 165.16l-94.74 0c-17.86,0 -32.39,-14.53 -32.39,-32.39l0 -91.76c0,-17.86 14.53,-32.39 32.39,-32.39l94.74 0c17.86,0 32.39,14.53 32.39,32.39l0 91.76c0,17.86 -14.53,32.39 -32.39,32.39l0 0zm-94.74 -144.82c-11.39,0 -20.66,9.27 -20.66,20.67l0 91.76c0,11.39 9.27,20.66 20.66,20.66l94.74 0c11.39,0 20.66,-9.27 20.66,-20.66l0 -91.76c0,-11.4 -9.27,-20.67 -20.66,-20.67l-94.74 0zm0 0z"/>
  <path class="fil4" d="M68.66 57.67c0,10.78 -8.73,19.51 -19.51,19.51 -10.78,0 -19.51,-8.73 -19.51,-19.51 0,-10.78 8.73,-19.51 19.51,-19.51 10.78,0 19.51,8.73 19.51,19.51zm0 0z"/>
  <path class="fil4" d="M129.88 57.67c0,10.78 -8.73,19.51 -19.51,19.51 -10.78,0 -19.51,-8.73 -19.51,-19.51 0,-10.78 8.73,-19.51 19.51,-19.51 10.78,0 19.51,8.73 19.51,19.51zm0 0z"/>
  <path class="fil4" d="M68.66 116.11c0,10.78 -8.73,19.51 -19.51,19.51 -10.78,0 -19.51,-8.73 -19.51,-19.51 0,-10.78 8.73,-19.52 19.51,-19.52 10.78,0 19.51,8.74 19.51,19.52zm0 0z"/>
  <path class="fil4" d="M129.88 116.11c0,10.78 -8.73,19.51 -19.51,19.51 -10.78,0 -19.51,-8.73 -19.51,-19.51 0,-10.78 8.73,-19.52 19.51,-19.52 10.78,0 19.51,8.74 19.51,19.52zm0 0z"/>
  <g id="_2552238565648">
   <path class="fil1" d="M49.15 83.05c-13.99,0 -25.38,-11.39 -25.38,-25.38 0,-13.99 11.39,-25.38 25.38,-25.38 13.99,0 25.38,11.39 25.38,25.38 0,13.99 -11.39,25.38 -25.38,25.38zm0 -39.03c-7.53,0 -13.65,6.12 -13.65,13.65 0,7.53 6.12,13.65 13.65,13.65 7.53,0 13.65,-6.12 13.65,-13.65 0,-7.53 -6.12,-13.65 -13.65,-13.65zm0 0z"/>
   <path class="fil1" d="M110.37 83.05c-13.99,0 -25.38,-11.39 -25.38,-25.38 0,-13.99 11.39,-25.38 25.38,-25.38 13.99,0 25.38,11.39 25.38,25.38 0,13.99 -11.39,25.38 -25.38,25.38zm0 -39.03c-7.53,0 -13.65,6.12 -13.65,13.65 0,7.53 6.12,13.65 13.65,13.65 7.53,0 13.65,-6.12 13.65,-13.65 0,-7.53 -6.12,-13.65 -13.65,-13.65zm0 0z"/>
   <path class="fil1" d="M49.15 141.48c-13.99,0 -25.38,-11.38 -25.38,-25.37 0,-14 11.39,-25.38 25.38,-25.38 13.99,0 25.38,11.38 25.38,25.38 0,13.99 -11.39,25.37 -25.38,25.37zm0 -39.02c-7.53,0 -13.65,6.12 -13.65,13.65 0,7.53 6.12,13.65 13.65,13.65 7.53,0 13.65,-6.12 13.65,-13.65 0,-7.53 -6.12,-13.65 -13.65,-13.65zm0 0z"/>
   <path class="fil1" d="M110.37 141.48c-13.99,0 -25.38,-11.38 -25.38,-25.37 0,-14 11.39,-25.38 25.38,-25.38 13.99,0 25.38,11.38 25.38,25.38 0,13.99 -11.39,25.37 -25.38,25.37zm0 -39.02c-7.53,0 -13.65,6.12 -13.65,13.65 0,7.53 6.12,13.65 13.65,13.65 7.53,0 13.65,-6.12 13.65,-13.65 0,-7.53 -6.12,-13.65 -13.65,-13.65zm0 0z"/>
  </g>
  <path class="fil3" d="M479.61 14.48l-28.46 0c14.65,0 26.53,11.88 26.53,26.53l0 91.76c0,14.65 -11.88,26.53 -26.53,26.53l28.46 0c14.65,0 26.53,-11.88 26.53,-26.53l0 -91.76c0,-14.65 -11.88,-26.53 -26.53,-26.53l0 0zm0 0z"/>
  <path class="fil1" d="M479.61 165.16l-94.74 0c-17.86,0 -32.39,-14.53 -32.39,-32.39l0 -91.76c0,-17.86 14.53,-32.39 32.39,-32.39l94.74 0c17.86,0 32.39,14.53 32.39,32.39l0 91.76c0,17.86 -14.53,32.39 -32.39,32.39l0 0zm-94.74 -144.82c-11.39,0 -20.66,9.27 -20.66,20.67l0 91.76c0,11.39 9.27,20.66 20.66,20.66l94.74 0c11.39,0 20.66,-9.27 20.66,-20.66l0 -91.76c0,-11.4 -9.27,-20.67 -20.66,-20.67l-94.74 0zm0 0z"/>
  <path class="fil4" d="M421.14 57.67c0,10.78 -8.73,19.51 -19.51,19.51 -10.78,0 -19.51,-8.73 -19.51,-19.51 0,-10.78 8.73,-19.51 19.51,-19.51 10.78,0 19.51,8.73 19.51,19.51zm0 0z"/>
  <path class="fil4" d="M482.36 57.67c0,10.78 -8.73,19.51 -19.51,19.51 -10.78,0 -19.51,-8.73 -19.51,-19.51 0,-10.78 8.73,-19.51 19.51,-19.51 10.78,0 19.51,8.73 19.51,19.51zm0 0z"/>
  <path class="fil4" d="M421.14 116.11c0,10.78 -8.73,19.51 -19.51,19.51 -10.78,0 -19.51,-8.73 -19.51,-19.51 0,-10.78 8.73,-19.52 19.51,-19.52 10.78,0 19.51,8.74 19.51,19.52zm0 0z"/>
  <path class="fil4" d="M482.36 116.11c0,10.78 -8.73,19.51 -19.51,19.51 -10.78,0 -19.51,-8.73 -19.51,-19.51 0,-10.78 8.73,-19.52 19.51,-19.52 10.78,0 19.51,8.74 19.51,19.52zm0 0z"/>
  <path class="fil1" d="M401.63 83.05c-13.99,0 -25.38,-11.39 -25.38,-25.38 0,-13.99 11.39,-25.38 25.38,-25.38 13.99,0 25.38,11.39 25.38,25.38 0,13.99 -11.39,25.38 -25.38,25.38zm0 -39.03c-7.53,0 -13.65,6.12 -13.65,13.65 0,7.53 6.12,13.65 13.65,13.65 7.53,0 13.65,-6.12 13.65,-13.65 0,-7.53 -6.12,-13.65 -13.65,-13.65zm0 0z"/>
  <path class="fil1" d="M462.85 83.05c-13.99,0 -25.38,-11.39 -25.38,-25.38 0,-13.99 11.39,-25.38 25.38,-25.38 13.99,0 25.38,11.39 25.38,25.38 0,13.99 -11.39,25.38 -25.38,25.38zm0 -39.03c-7.53,0 -13.65,6.12 -13.65,13.65 0,7.53 6.12,13.65 13.65,13.65 7.53,0 13.65,-6.12 13.65,-13.65 0,-7.53 -6.12,-13.65 -13.65,-13.65zm0 0z"/>
  <path class="fil1" d="M401.63 141.48c-13.99,0 -25.38,-11.38 -25.38,-25.37 0,-14 11.39,-25.38 25.38,-25.38 13.99,0 25.38,11.38 25.38,25.38 0,13.99 -11.39,25.37 -25.38,25.37zm0 -39.02c-7.53,0 -13.65,6.12 -13.65,13.65 0,7.53 6.12,13.65 13.65,13.65 7.53,0 13.65,-6.12 13.65,-13.65 0,-7.53 -6.12,-13.65 -13.65,-13.65zm0 0z"/>
  <path class="fil1" d="M462.85 141.48c-13.99,0 -25.38,-11.38 -25.38,-25.37 0,-14 11.39,-25.38 25.38,-25.38 13.99,0 25.38,11.38 25.38,25.38 0,13.99 -11.39,25.37 -25.38,25.37zm0 -39.02c-7.53,0 -13.65,6.12 -13.65,13.65 0,7.53 6.12,13.65 13.65,13.65 7.53,0 13.65,-6.12 13.65,-13.65 0,-7.53 -6.12,-13.65 -13.65,-13.65zm0 0z"/>
  <path class="fil5" d="M440.94 204.47l-113.64 0c16.47,0 29.81,13.35 29.81,29.82 0,16.46 -13.34,29.81 -29.81,29.81l113.64 0c16.46,0 29.81,-13.35 29.81,-29.81 0,-16.47 -13.35,-29.82 -29.81,-29.82zm0 0z"/>
  <path class="fil1" d="M440.94 269.96l-375.67 0c-19.67,0 -35.67,-16 -35.67,-35.67 0,-19.68 16,-35.68 35.67,-35.68l375.67 0c19.67,0 35.67,16 35.67,35.68 0,19.67 -16,35.67 -35.67,35.67zm-375.67 -59.63c-13.2,0 -23.95,10.75 -23.95,23.96 0,13.2 10.75,23.94 23.95,23.94l375.67 0c13.2,0 23.95,-10.74 23.95,-23.94 0,-13.21 -10.75,-23.96 -23.95,-23.96l-375.67 0zm0 0z"/>
  <path class="fil0" d="M376.15 195.82c0,67.95 -55.09,123.04 -123.04,123.04 -67.96,0 -123.05,-55.09 -123.05,-123.04 0,-67.96 55.09,-123.05 123.05,-123.05 67.95,0 123.04,55.09 123.04,123.05zm0 0z"/>
  <path class="fil2" d="M253.11 72.77c-5.26,0 -10.43,0.34 -15.51,0.97 60.63,7.63 107.54,59.37 107.54,122.08 0,62.7 -46.91,114.45 -107.54,122.07 5.08,0.64 10.25,0.97 15.51,0.97 67.95,0 123.04,-55.09 123.04,-123.04 0,-67.96 -55.09,-123.05 -123.04,-123.05l0 0zm0 0z"/>
  <path class="fil6" d="M345.14 190.46c0,-50.82 -41.21,-92.03 -92.03,-92.03 -50.83,0 -92.03,41.21 -92.03,92.03l184.06 0zm0 0z"/>
  <path class="fil1" d="M253.11 324.72c-71.08,0 -128.91,-57.83 -128.91,-128.9 0,-71.09 57.83,-128.91 128.91,-128.91 71.07,0 128.9,57.83 128.9,128.91 0,71.08 -57.83,128.9 -128.9,128.9zm0 -246.08c-64.62,0 -117.18,52.56 -117.18,117.18 0,64.61 52.56,117.18 117.18,117.18 64.61,0 117.18,-52.57 117.18,-117.18 0,-64.62 -52.57,-117.18 -117.18,-117.18zm0 0z"/>
  <path class="fil1" d="M345.14 196.32l-184.06 0c-3.24,0 -5.86,-2.62 -5.86,-5.86 0,-53.98 43.91,-97.89 97.89,-97.89 53.97,0 97.89,43.91 97.89,97.89 0,3.24 -2.63,5.86 -5.86,5.86zm-178 -11.72l171.93 0c-3.02,-44.79 -40.42,-80.3 -85.96,-80.3 -45.55,-0.01 -82.95,35.51 -85.97,80.3l0 0zm0 0z"/>
  <path class="fil7" d="M58.71 159.3c0.81,-1.97 1.66,-3.93 2.53,-5.87 6.5,-14.44 14.55,-28.03 23.96,-40.55l296.55 300.55c-1.93,1.41 -3.88,2.78 -5.86,4.13 -1.93,1.31 -3.89,2.6 -5.86,3.85 -1.43,0.9 -2.86,1.78 -4.31,2.65 -4.64,2.79 -9.4,5.41 -14.27,7.85 -28.72,14.38 -61.14,22.47 -95.45,22.47 -44.41,0 -85.66,-13.56 -119.82,-36.77 -1.97,-1.34 -3.93,-2.72 -5.86,-4.13 -1.98,-1.44 -3.93,-2.92 -5.86,-4.43 -19.41,-15.21 -36.12,-33.71 -49.3,-54.66 -2.04,-3.24 -3.99,-6.55 -5.86,-9.91 -1.66,-2.98 -3.25,-6.01 -4.76,-9.08 -11.04,-22.33 -18.29,-46.86 -20.91,-72.77 -0.28,-2.85 -0.52,-5.71 -0.69,-8.6 -0.25,-4.03 -0.38,-8.1 -0.4,-12.19 0,-0.3 0,-0.61 0,-0.91 0,-5.29 0.2,-10.54 0.57,-15.73 0.3,-4.08 0.71,-8.13 1.24,-12.15 0.37,-2.86 0.8,-5.71 1.29,-8.54 2.33,-13.6 5.96,-26.76 10.74,-39.35 0.75,-1.97 1.52,-3.92 2.33,-5.86zm75.85 -93.94c4.3,-2.98 8.71,-5.81 13.23,-8.47 1.94,-1.14 3.89,-2.25 5.87,-3.33 1.93,-1.06 3.89,-2.09 5.86,-3.09 28.98,-14.71 61.76,-23 96.48,-23 34.72,0 67.5,8.29 96.48,23 1.97,1 3.93,2.03 5.86,3.09 1.98,1.08 3.93,2.19 5.87,3.33 4.52,2.66 8.93,5.49 13.23,8.47 7.77,5.38 15.16,11.27 22.13,17.6 3.11,2.83 6.14,5.75 9.08,8.76 6.5,6.64 12.56,13.71 18.15,21.16 9.41,12.52 17.46,26.11 23.96,40.55 0.86,1.92 1.69,3.84 2.5,5.78 0.01,0.03 0.02,0.06 0.03,0.09 0,0 0,0 0.01,0 0.8,1.94 1.57,3.89 2.32,5.86 5.45,14.35 9.4,29.44 11.65,45.08 0.63,4.39 1.13,8.83 1.49,13.3 0.46,5.74 0.7,11.53 0.7,17.39 0,0.7 -0.01,1.41 -0.01,2.11 -0.05,4.49 -0.23,8.95 -0.55,13.37 -2.27,31.74 -11.49,61.56 -26.13,87.95 -1.87,3.36 -3.82,6.67 -5.86,9.92 -1.89,3 -3.84,5.94 -5.86,8.84l-296.49 -297.76zm234.27 -37.36c-1.76,-0.94 -3.53,-1.85 -5.31,-2.74 -1.77,-0.88 -3.55,-1.74 -5.34,-2.58 -31.02,-14.55 -65.65,-22.68 -102.18,-22.68 -36.53,0 -71.16,8.13 -102.18,22.68 -1.79,0.84 -3.57,1.7 -5.34,2.58 -1.78,0.89 -3.55,1.8 -5.31,2.74 -5.78,3.07 -11.43,6.37 -16.92,9.89 -1.76,1.12 -3.49,2.27 -5.22,3.43 -1.81,1.23 -3.61,2.48 -5.38,3.76 -6.5,4.66 -12.75,9.64 -18.73,14.91 -1.65,1.44 -3.27,2.91 -4.88,4.4 -1.52,1.42 -3.03,2.86 -4.52,4.32 -8.51,8.32 -16.4,17.27 -23.61,26.77 -1.17,1.55 -2.34,3.12 -3.48,4.71 -1.14,1.58 -2.27,3.18 -3.37,4.8 -5.12,7.47 -9.82,15.25 -14.09,23.29 -0.91,1.73 -1.81,3.47 -2.68,5.22 -0.87,1.75 -1.72,3.5 -2.55,5.27 -2.25,4.8 -4.34,9.68 -6.28,14.64 -0.74,1.9 -1.45,3.8 -2.14,5.71 -0.68,1.88 -1.33,3.76 -1.96,5.65 -7.97,23.94 -12.29,49.54 -12.29,76.16 0,54.35 18.01,104.51 48.37,144.82 1.91,2.53 3.86,5.02 5.86,7.47 1.91,2.34 3.87,4.64 5.86,6.91l0 23.53 23.82 0c2.33,2 4.69,3.96 7.09,5.87 2.51,2 5.07,3.95 7.67,5.86 11.31,8.29 23.37,15.61 36.06,21.85 1.94,0.96 3.89,1.89 5.86,2.79 1.94,0.89 3.9,1.75 5.86,2.59 29.01,12.38 60.95,19.23 94.48,19.23 31.32,0 61.24,-5.97 88.69,-16.85 1.96,-0.77 3.92,-1.58 5.86,-2.41 1.97,-0.84 3.92,-1.7 5.86,-2.6 14.82,-6.8 28.83,-15.06 41.85,-24.6 2.6,-1.91 5.16,-3.86 7.67,-5.86 2.4,-1.91 4.76,-3.87 7.09,-5.87 6.3,-5.42 12.32,-11.16 18.03,-17.19 1.99,-2.11 3.94,-4.25 5.86,-6.42 1.99,-2.27 3.95,-4.58 5.86,-6.92 33.85,-41.49 54.16,-94.48 54.16,-152.2 0,-26.62 -4.32,-52.22 -12.29,-76.16 -0.63,-1.89 -1.28,-3.77 -1.96,-5.65 0,0 0,0 0,0 -0.69,-1.91 -1.4,-3.82 -2.14,-5.71 -1.46,-3.73 -3,-7.42 -4.64,-11.06 -0.54,-1.2 -1.08,-2.39 -1.64,-3.58 -0.83,-1.77 -1.68,-3.52 -2.55,-5.27 -0.87,-1.75 -1.77,-3.49 -2.68,-5.22 -4.27,-8.04 -8.97,-15.82 -14.09,-23.29 -1.1,-1.62 -2.23,-3.22 -3.37,-4.8 -1.14,-1.59 -2.3,-3.16 -3.48,-4.71 -7.21,-9.5 -15.1,-18.45 -23.61,-26.77 -1.49,-1.46 -3,-2.9 -4.52,-4.32 -1.61,-1.49 -3.23,-2.96 -4.88,-4.4 -5.98,-5.27 -12.23,-10.25 -18.73,-14.91 -1.77,-1.28 -3.57,-2.53 -5.38,-3.76 -1.73,-1.16 -3.46,-2.31 -5.22,-3.43 -5.49,-3.52 -11.14,-6.82 -16.92,-9.89z"/>
 </g>
</svg>
