<?xml version="1.0" encoding="UTF-8"?>
<!DOCTYPE svg PUBLIC "-//W3C//DTD SVG 1.1//EN" "http://www.w3.org/Graphics/SVG/1.1/DTD/svg11.dtd">
<!-- Creator: CorelDRAW 2019 (64-Bit) -->
<svg xmlns="http://www.w3.org/2000/svg" xml:space="preserve" width="2244px" height="2008px" version="1.1" style="shape-rendering:geometricPrecision; text-rendering:geometricPrecision; image-rendering:optimizeQuality; fill-rule:evenodd; clip-rule:evenodd"
viewBox="0 0 2244 2007.79"
 xmlns:xlink="http://www.w3.org/1999/xlink"
 xmlns:xodm="http://www.corel.com/coreldraw/odm/2003">
 <defs>
  <style type="text/css">
   <![CDATA[
    .str0 {stroke:red;stroke-width:33.33;stroke-miterlimit:22.9256}
    .str1 {stroke:white;stroke-width:33.33;stroke-miterlimit:22.9256}
    .fil2 {fill:none}
    .fil0 {fill:black}
    .fil1 {fill:white}
   ]]>
  </style>
 </defs>
 <g id="Layer_x0020_1">
  <metadata id="CorelCorpID_0Corel-Layer"/>
  <g id="_1600790015984">
   <g>
    <path class="fil0" d="M104.16 0l2035.68 0c57.29,0 104.16,46.87 104.16,104.16l0 1799.47c0,57.29 -46.87,104.16 -104.16,104.16l-2035.68 0c-57.29,0 -104.16,-46.87 -104.16,-104.16l0 -1799.47c0,-57.29 46.87,-104.16 104.16,-104.16z"/>
    <path id="1" class="fil1" d="M104.16 0l2035.68 0c57.29,0 104.16,46.87 104.16,104.16l0 1799.47c0,57.29 -46.87,104.16 -104.16,104.16l-2035.68 0c-57.29,0 -104.16,-46.87 -104.16,-104.16l0 -1799.47c0,-57.29 46.87,-104.16 104.16,-104.16zm2035.68 33.33l-2035.68 0c-19.44,0 -37.14,7.98 -50,20.83 -12.85,12.86 -20.83,30.56 -20.83,50l0 1799.47c0,19.44 7.98,37.14 20.83,50 12.86,12.85 30.56,20.83 50,20.83l2035.68 0c19.44,0 37.14,-7.98 50,-20.83 12.85,-12.86 20.83,-30.56 20.83,-50l0 -1799.47c0,-19.44 -7.98,-37.14 -20.83,-50 -12.86,-12.85 -30.56,-20.83 -50,-20.83z"/>
   </g>
   <polyline class="fil2 str0" points="240,1023.27 680.01,1023.27 740.02,607.76 840.02,1187.77 920.02,567.76 980.02,1027.77 1060.02,867.77 1260.03,1347.78 1340.03,1027.77 1460.03,1027.77 1520.03,567.76 1580.03,887.77 1640.03,887.77 1680.04,1027.77 2000.04,1027.77 "/>
   <line class="fil2 str1" x1="240" y1="0" x2="240" y2= "2007.79" />
   <line class="fil2 str1" x1="2000.04" y1="0" x2="2000.04" y2= "2007.79" />
   <circle class="fil2 str1" cx="2110.04" cy="1003.89" r="50"/>
  </g>
 </g>
</svg>
