<?xml version="1.0" encoding="UTF-8"?>
<!DOCTYPE svg PUBLIC "-//W3C//DTD SVG 1.1//EN" "http://www.w3.org/Graphics/SVG/1.1/DTD/svg11.dtd">
<!-- Creator: CorelDRAW 2019 (64-Bit) -->
<svg xmlns="http://www.w3.org/2000/svg" xml:space="preserve" width="2004px" height="2004px" version="1.1" style="shape-rendering:geometricPrecision; text-rendering:geometricPrecision; image-rendering:optimizeQuality; fill-rule:evenodd; clip-rule:evenodd"
viewBox="0 0 2004 2004"
 xmlns:xlink="http://www.w3.org/1999/xlink"
 xmlns:xodm="http://www.corel.com/coreldraw/odm/2003">
 <defs>
  <style type="text/css">
   <![CDATA[
    .fil0 {fill:none}
    .fil5 {fill:#003399}
    .fil2 {fill:#009933}
    .fil4 {fill:#FF6600}
    .fil3 {fill:yellow}
    .fil1 {fill:white}
   ]]>
  </style>
 </defs>
 <g id="Layer_x0020_1">
  <metadata id="CorelCorpID_0Corel-Layer"/>
  <polygon class="fil0" points="0,2004 2004,2004 2004,0 0,0 "/>
  <path class="fil1" d="M1591.43 1390.35c-61.63,58.11 -166.54,179.47 -224.17,179.46l-511.61 -0.24c-108.84,-0.45 -92.15,5.43 -138.48,76.32 -23.89,36.55 -81.75,91.51 -53.38,137.13 36.9,13.48 35.15,4.59 55.64,-16.64 118.05,-122.38 28,-114.29 274.78,-114.05l418.61 2.04c7.12,14.26 81.13,129.24 115.31,129.66 95.52,1.15 -19.57,-108.43 -44.23,-170.12l195.94 -198.94c21.27,-24.14 229.06,-178.36 122.1,-203.41 -44.66,-10.47 -131.59,104.37 -210.51,178.79z"/>
  <path class="fil2" d="M936.36 1000.02c51.22,-17.87 100.46,-129.83 99.24,-206.75 -1.71,-108.06 -53.16,-158.6 -88.66,-234.61 72.88,29.21 125.52,106.5 185.03,148.47 4.83,-249.97 -149.18,-345.14 -395.13,-324.44 -29.7,-304.18 -454.06,-334.97 -551.81,-132.87 58.81,2 117.74,-3.66 176.23,5.93 72.1,11.83 86.48,26.77 106.92,93.78 -265.12,-1.36 -294.18,132.44 -291.66,381.69 42.78,-30.78 48.28,-98.18 133.64,-163.79 66.96,-51.47 153.08,-67.97 254.04,-49 -44.03,59.93 -97.07,70.95 -169.08,219.05 -153.74,316.18 -149.01,707.07 -151.61,1053.45l139.9 -2.15c4.61,-240.91 -0.3,-494.77 27.04,-727.53 27.72,-235.98 85.26,-396.85 259.16,-476.56 74.17,228.69 -76.77,397.74 -120.62,488.16 105.59,3 183.61,-52.96 221.7,-108.89 53.98,-79.28 58.64,-163.9 67.38,-274.82 81.61,77.32 84.82,172.8 98.29,310.88z"/>
  <path class="fil3" d="M1447.3 35c-270.54,64.41 -174.58,436.3 74.34,389.65 261.93,-49.09 173.61,-448.68 -74.34,-389.65z"/>
  <path class="fil4" d="M1516.48 725.63c-255.98,-28.94 -383.57,149.73 -361.25,172.68 46.18,26.34 107.15,2.73 153.64,49.32 88.41,88.61 33.1,32.96 151.12,40.75l-151.76 508.89c82.55,-0.87 64.29,-35.34 120.01,-227.81 21.39,-73.9 48.86,-198.54 77.58,-262.5 60.59,15.74 38.41,28.4 85.28,58.18 52.5,-11.59 74.74,-27.76 133.87,-11.55 49.36,13.52 108.4,89.88 100.79,-13.92 -8.56,-116.58 -114.17,-243.88 -231.93,-292.05 4.88,-33.02 17.4,-58.44 -16.09,-67.5 -34.34,-9.29 -34.25,21.09 -61.26,45.51z"/>
  <path class="fil5" d="M1933.21 1850.47c-620.94,8.49 -1275.34,0.68 -1898.28,0.82 -24.38,0.01 -34.82,28.17 -34.93,58.12l0 0.97c0.05,14.54 2.53,29.42 7,41.66 12.02,32.86 65.16,20.81 113.08,20.43 564.41,-4.45 1241.75,-8.92 1802.17,0.45 68.95,1.15 81.59,13.84 81.71,-49.9l0.03 -10.66c0.14,-70.42 0.41,-62.86 -70.78,-61.89z"/>
 </g>
</svg>
