<?xml version="1.0" encoding="UTF-8"?>
<!DOCTYPE svg PUBLIC "-//W3C//DTD SVG 1.1//EN" "http://www.w3.org/Graphics/SVG/1.1/DTD/svg11.dtd">
<!-- Creator: CorelDRAW 2019 (64-Bit) -->
<svg xmlns="http://www.w3.org/2000/svg" xml:space="preserve" width="2244px" height="2008px" version="1.1" style="shape-rendering:geometricPrecision; text-rendering:geometricPrecision; image-rendering:optimizeQuality; fill-rule:evenodd; clip-rule:evenodd"
viewBox="0 0 2244 2007.79"
 xmlns:xlink="http://www.w3.org/1999/xlink"
 xmlns:xodm="http://www.corel.com/coreldraw/odm/2003">
 <defs>
  <style type="text/css">
   <![CDATA[
    .fil0 {fill:black}
    .fil1 {fill:red}
   ]]>
  </style>
 </defs>
 <g id="Layer_x0020_1">
  <metadata id="CorelCorpID_0Corel-Layer"/>
  <path class="fil0" d="M104.16 0l2035.68 0c57.29,0 104.16,46.87 104.16,104.16l0 1799.47c0,57.29 -46.87,104.16 -104.16,104.16l-2035.68 0c-57.29,0 -104.16,-46.87 -104.16,-104.16l0 -1799.47c0,-57.29 46.87,-104.16 104.16,-104.16zm1213.35 224.55l0.24 98.68c18.15,-0.35 88.72,-2.46 101.41,0.41 15.05,3.4 12.5,20.23 12.48,36.43l0 101.01c0.02,45.06 12.23,44.04 -113.8,40.6l0.15 98.69c117.11,-4.14 97.13,-6.43 97.69,73.48 0.11,15.9 3.49,71.65 -2.65,81.65 -7.5,12.2 -50.7,5.84 -78.4,7.58 -2.05,29.38 -0.43,65.55 -0.32,95.61 0.16,41.05 -0.3,34.15 -63.11,34.15 -16.46,0 -84.77,3.55 -93.45,-3.06 -10.71,-8.15 -6.09,-75 -5.89,-93.82 -26.55,-3.07 -68.14,-0.56 -96.26,-0.44 -39.83,0.17 -33.58,-1.95 -33.58,-64.43l-98.36 -0.31c-3.12,34.58 5.04,146.56 -1.51,168.32 -3.87,12.89 -17.11,10.59 -32,10.51l-300.91 0.32c-45.29,0.07 -40.17,-0.74 -40.17,-44.8 0.01,-19.95 2.39,-68.48 -1.04,-85.07 -34.25,-1.34 -70.54,-0.05 -105.01,-0.08 -32.66,-0.03 -25.21,-20.17 -24.83,-81.63l-47.78 0.23c-28.12,257 71.72,488.22 217.57,627.74l23.83 23.37c42.21,38.17 36.69,15.51 36.69,104.32l0 283.7c0,62.39 -2.42,129.75 0.3,191.53l784.58 -0.12 0.11 -277.38c0,-22.49 -5.6,-76.88 9.05,-85.83 9.94,-6.08 157.83,-3.33 182.62,-3.28 69.49,0.13 99.67,-13.45 133.19,-52.8 35.62,-41.82 29.46,-92.09 29.97,-154.68l0.29 -232.06c2.97,-16.42 21.06,-13.58 34.27,-13.52 31.51,0.14 63.06,0.04 94.57,-0.01 82.61,-0.15 73.13,-16.08 48.48,-101.54 -27.76,-96.23 -54.88,-194.15 -81.95,-289.81 -53.18,-187.98 -68.87,-268.1 -187.3,-414.58 -22.66,-28.03 -23.89,-26.55 -45.96,-48.63 -25.23,-25.23 -43.11,-42.56 -74.22,-65.48 -17.66,-13.01 -35.8,-26.31 -55.73,-38.85 -23.37,-14.7 -96.46,-56.08 -126.14,-62.41 1.13,34.31 2.74,83.72 0.66,117.19 -1.44,23.26 -17.69,19.36 -38.78,19.29 -19.69,-0.06 -39.32,0.37 -59,-0.19zm-570.11 507.33l-0.23 32.24 0.05 10.75 0.61 37.45 96.63 0.18 0.93 -97.76 -98.2 -0.29 0.21 17.43zm-99.13 -294.58l98.14 0.24 -0.43 -97.82 -97.17 -0.11 -0.54 97.69zm-210.8 -260.69l97.51 -0.21 0.67 -97.36 -97.91 -0.49 -0.27 98.06zm472.63 114.3l97.79 -0.41 0.38 -97.37 -97.66 -0.27 -0.51 98.05zm196.18 -83.09l97.97 0.47 -0.28 -97.43 -98.17 -0.74 0.48 97.7zm0.07 196.37l27.3 0.65 8.59 -0.1 61.77 -0.21 -0.05 -63.8 0.06 -33.95 -97.98 -0.13 0.31 97.54zm-0.07 211.93l98.11 0.66 -0.42 -97.74 -98.18 -0.56 0.49 97.64zm-196 -81.06l34.24 0.39 4.3 -0.01 58.83 -0.08 0.63 -97.35 -10.02 -1.02 -70.94 0.16 -6.44 0 -10.79 0.26 0.19 97.65zm-668.31 -97.67l97.95 0 -0.22 -97.62 -97.06 -0.18c-3.95,17.77 -0.67,75.6 -0.67,97.8zm1237.8 -203.64c-11.42,4.12 -7.64,30.24 -7.64,49.81 0,9.44 -1.13,51.8 0.91,57.54 4.5,12.6 37.19,7.26 50.15,7.26 73.33,0 64.48,8.97 64.48,-51.07 0,-10.31 1.2,-50.24 -1.21,-57.24 -3.72,-10.82 -29.63,-7.05 -49.54,-7.05 -9.9,0 -51.3,-1.36 -57.15,0.75zm-20.45 -23.37c-16.08,5.8 -10.76,42.59 -10.76,70.17 0,13.29 -1.59,72.99 1.29,81.07 6.33,17.75 52.4,10.22 70.65,10.22 103.32,0 90.84,12.63 90.84,-71.95 0,-14.52 1.69,-70.78 -1.7,-80.65 -5.24,-15.23 -41.74,-9.93 -69.8,-9.93 -13.94,0 -72.27,-1.91 -80.52,1.07zm-431.91 697.31c-10.61,4.83 -6.09,32.22 -6.09,44.88 0,8.35 -0.96,46.61 0.62,51.58 3.71,11.64 33.17,7.08 45.93,7.08 68.26,0 57.7,6.86 57.7,-46.24 0,-68.69 7.95,-58.36 -46.65,-58.37 -10.14,0 -44.98,-1.91 -51.51,1.07zm-25.5 -28.58c-16.51,7.53 -9.49,50.15 -9.49,69.84 0,13 -1.49,72.55 0.97,80.28 5.77,18.12 51.63,11.02 71.48,11.02 106.24,0 89.8,10.67 89.8,-71.96 0,-106.9 12.38,-90.83 -72.6,-90.84 -15.78,-0.01 -70,-2.97 -80.16,1.66z"/>
  <path class="fil1" d="M1317.51 224.55l0.24 98.68c18.15,-0.35 88.72,-2.46 101.41,0.41 15.05,3.4 12.5,20.23 12.48,36.43l0 101.01c0.02,45.06 12.23,44.04 -113.8,40.6l0.15 98.69c117.11,-4.14 97.13,-6.43 97.69,73.48 0.11,15.9 3.49,71.65 -2.65,81.65 -7.5,12.2 -50.7,5.84 -78.4,7.58 -2.05,29.38 -0.43,65.55 -0.32,95.61 0.16,41.05 -0.3,34.15 -63.11,34.15 -16.46,0 -84.77,3.55 -93.45,-3.06 -10.71,-8.15 -6.09,-75 -5.89,-93.82 -26.55,-3.07 -68.14,-0.56 -96.26,-0.44 -39.83,0.17 -33.58,-1.95 -33.58,-64.43l-98.36 -0.31c-3.12,34.58 5.04,146.56 -1.51,168.32 -3.87,12.89 -17.11,10.59 -32,10.51l-300.91 0.32c-45.29,0.07 -40.17,-0.74 -40.17,-44.8 0.01,-19.95 2.39,-68.48 -1.04,-85.07 -34.25,-1.34 -70.54,-0.05 -105.01,-0.08 -32.66,-0.03 -25.21,-20.17 -24.83,-81.63l-47.78 0.23c-28.12,257 71.72,488.22 217.57,627.74l23.83 23.37c42.21,38.17 36.69,15.51 36.69,104.32l0 283.7c0,62.39 -2.42,129.75 0.3,191.53l784.58 -0.12 0.11 -277.38c0,-22.49 -5.6,-76.88 9.05,-85.83 9.94,-6.08 157.83,-3.33 182.62,-3.28 69.49,0.13 99.67,-13.45 133.19,-52.8 35.62,-41.82 29.46,-92.09 29.97,-154.68l0.29 -232.06c2.97,-16.42 21.06,-13.58 34.27,-13.52 31.51,0.14 63.06,0.04 94.57,-0.01 82.61,-0.15 73.13,-16.08 48.48,-101.54 -27.76,-96.23 -54.88,-194.15 -81.95,-289.81 -53.18,-187.98 -68.87,-268.1 -187.3,-414.58 -22.66,-28.03 -23.89,-26.55 -45.96,-48.63 -25.23,-25.23 -43.11,-42.56 -74.22,-65.48 -17.66,-13.01 -35.8,-26.31 -55.73,-38.85 -23.37,-14.7 -96.46,-56.08 -126.14,-62.41 1.13,34.31 2.74,83.72 0.66,117.19 -1.44,23.26 -17.69,19.36 -38.78,19.29 -19.69,-0.06 -39.32,0.37 -59,-0.19zm-570.11 507.33l-0.23 32.24 0.05 10.75 0.61 37.45 96.63 0.18 0.93 -97.76 -98.2 -0.29 0.21 17.43zm-99.13 -294.58l98.14 0.24 -0.43 -97.82 -97.17 -0.11 -0.54 97.69zm-210.8 -260.69l97.51 -0.21 0.67 -97.36 -97.91 -0.49 -0.27 98.06zm472.63 114.3l97.79 -0.41 0.38 -97.37 -97.66 -0.27 -0.51 98.05zm196.18 -83.09l97.97 0.47 -0.28 -97.43 -98.17 -0.74 0.48 97.7zm0.07 196.37l27.3 0.65 8.59 -0.1 61.77 -0.21 -0.05 -63.8 0.06 -33.95 -97.98 -0.13 0.31 97.54zm-0.07 211.93l98.11 0.66 -0.42 -97.74 -98.18 -0.56 0.49 97.64zm-196 -81.06l34.24 0.39 4.3 -0.01 58.83 -0.08 0.63 -97.35 -10.02 -1.02 -70.94 0.16 -6.44 0 -10.79 0.26 0.19 97.65zm-668.31 -97.67l97.95 0 -0.22 -97.62 -97.06 -0.18c-3.95,17.77 -0.67,75.6 -0.67,97.8zm1237.8 -203.64c-11.42,4.12 -7.64,30.24 -7.64,49.81 0,9.44 -1.13,51.8 0.91,57.54 4.5,12.6 37.19,7.26 50.15,7.26 73.33,0 64.48,8.97 64.48,-51.07 0,-10.31 1.2,-50.24 -1.21,-57.24 -3.72,-10.82 -29.63,-7.05 -49.54,-7.05 -9.9,0 -51.3,-1.36 -57.15,0.75zm-20.45 -23.37c-16.08,5.8 -10.76,42.59 -10.76,70.17 0,13.29 -1.59,72.99 1.29,81.07 6.33,17.75 52.4,10.22 70.65,10.22 103.32,0 90.84,12.63 90.84,-71.95 0,-14.52 1.69,-70.78 -1.7,-80.65 -5.24,-15.23 -41.74,-9.93 -69.8,-9.93 -13.94,0 -72.27,-1.91 -80.52,1.07zm-431.91 697.31c-10.61,4.83 -6.09,32.22 -6.09,44.88 0,8.35 -0.96,46.61 0.62,51.58 3.71,11.64 33.17,7.08 45.93,7.08 68.26,0 57.7,6.86 57.7,-46.24 0,-68.69 7.95,-58.36 -46.65,-58.37 -10.14,0 -44.98,-1.91 -51.51,1.07zm-25.5 -28.58c-16.51,7.53 -9.49,50.15 -9.49,69.84 0,13 -1.49,72.55 0.97,80.28 5.77,18.12 51.63,11.02 71.48,11.02 106.24,0 89.8,10.67 89.8,-71.96 0,-106.9 12.38,-90.83 -72.6,-90.84 -15.78,-0.01 -70,-2.97 -80.16,1.66z"/>
 </g>
</svg>
