<?xml version="1.0" encoding="UTF-8"?>
<!DOCTYPE svg PUBLIC "-//W3C//DTD SVG 1.1//EN" "http://www.w3.org/Graphics/SVG/1.1/DTD/svg11.dtd">
<!-- Creator: CorelDRAW 2019 (64-Bit) -->
<svg xmlns="http://www.w3.org/2000/svg" xml:space="preserve" width="50px" height="50px" version="1.1" style="shape-rendering:geometricPrecision; text-rendering:geometricPrecision; image-rendering:optimizeQuality; fill-rule:evenodd; clip-rule:evenodd"
viewBox="0 0 50 50"
 xmlns:xlink="http://www.w3.org/1999/xlink"
 xmlns:xodm="http://www.corel.com/coreldraw/odm/2003">
 <defs>
  <style type="text/css">
   <![CDATA[
    .fil0 {fill:white}
   ]]>
  </style>
 </defs>
 <g id="Layer_x0020_1">
  <metadata id="CorelCorpID_0Corel-Layer"/>
  <path class="fil0" d="M50 7.05l0 31.6 -25 -5.68 -25 5.68 0 -31.6 25 -7.05 25 7.05zm-16.97 8.45c5.41,-0.06 3.45,1.1 5.22,1.14l1.13 -0.93c0.19,0.29 0.12,0.3 0.58,0.31 -0.2,-5.68 -1.72,-9.8 -7.01,-12.34 -8.06,-3.88 -22.91,-1.67 -22.91,12.45 0.36,-0.04 0.49,-0.24 0.69,-0.42 0.53,0.26 0.24,0.29 0.75,0.23 0.51,-0.05 -0.42,1.48 1.51,0.08 1.92,-1.36 0.36,-0.62 4.09,-0.52l3.28 0.11 1.35 2.78 1.66 0 0.72 -3.36 1.89 -0.04c0.02,0.38 0.64,3.19 0.76,3.4l1.56 0c0,-0.03 1.25,-2.64 1.33,-2.78 1.16,0 2.28,-0.1 3.4,-0.11zm-14.32 9.68c-0.3,-0.66 -2.25,-1.7 -2.25,0.14 0,1.5 3.12,1.74 2.25,-0.14zm13.47 1.34c1.46,0 2.16,-2.21 0.53,-2.21 -1.43,0 -2.25,2.21 -0.53,2.21zm6.44 -9.13l0 0.79c1.05,-0.02 0.74,-1.59 0.52,-1.59 -0.3,0 -0.52,0.5 -0.52,0.8zm-14.72 5.88c-0.01,-0.7 -0.43,-4.14 -0.64,-4.53 -2.44,0 -1.33,-0.67 -3.29,1.22 -0.76,0.73 -0.53,0.74 -1.95,0.74 -2.48,0 -3.62,0.81 -5.17,-0.69 -1.37,-1.31 -0.49,-0.54 -2.28,-0.54l0 1.72c0,0.29 1.36,1.95 1.5,2.44 5.16,-0.54 5.13,-1.38 7.52,1.12 0.97,1 0.55,-0.01 0.89,2.04l0.8 4.99c0.3,0.06 1,0.19 1.33,0.2l0 -1.96 1.13 0 0.11 1.86 2.3 0c0,-0.72 0.11,-1.13 0.11,-1.86l1.12 0 0 1.96c0.35,-0.01 1.04,-0.14 1.35,-0.2 0.15,-1.7 0.95,-4.7 0.95,-6.49 1.83,-0.46 0.37,-2.11 3.68,-1.86 0.98,0.07 4.22,0.67 4.77,-0.1 1.65,-2.34 1.41,-1.97 1.41,-3.86 -1.36,0 -1.29,-0.55 -1.96,0.12 -0.36,0.36 -1.08,0.85 -1.2,1.33 -0.7,-0.27 -5.06,-0.09 -5.66,-0.33 -0.31,-0.16 -1.83,-1.95 -2.19,-1.95 -2.36,0 -1.85,0.17 -2.03,1.6 -0.4,3.03 0.01,3.03 -1.05,3.03 -0.13,4.83 0.17,4.03 -0.79,4.03 -0.07,-4.65 0.22,-4.03 -0.76,-4.03zm-12.45 -4.9c0.16,-0.63 0.01,-1.74 -0.69,-1.81 -0.07,0.29 -0.09,0.21 -0.09,0.41 0,0.77 0.18,1.38 0.78,1.4zm38.55 25.97l-25 -5.63 -25 5.63 0 5.66 25 -5.63 25 5.63 0 -5.66z"/>
 </g>
</svg>
