<?xml version="1.0" encoding="UTF-8"?>
<!DOCTYPE svg PUBLIC "-//W3C//DTD SVG 1.1//EN" "http://www.w3.org/Graphics/SVG/1.1/DTD/svg11.dtd">
<!-- Creator: CorelDRAW 2019 (64-Bit) -->
<svg xmlns="http://www.w3.org/2000/svg" xml:space="preserve" width="50px" height="50px" version="1.1" style="shape-rendering:geometricPrecision; text-rendering:geometricPrecision; image-rendering:optimizeQuality; fill-rule:evenodd; clip-rule:evenodd"
viewBox="0 0 50 50"
 xmlns:xlink="http://www.w3.org/1999/xlink"
 xmlns:xodm="http://www.corel.com/coreldraw/odm/2003">
 <defs>
  <style type="text/css">
   <![CDATA[
    .fil0 {fill:none}
    .fil1 {fill:white}
   ]]>
  </style>
 </defs>
 <g id="Layer_x0020_1">
  <metadata id="CorelCorpID_0Corel-Layer"/>
  <rect class="fil0" width="50" height="50"/>
  <path class="fil1" d="M0 7.05l25 -7.05 25 7.05 0 7.07 -25 -7.04 -25 7.04 0 -7.07zm0 11.66l25 -7.04 25 7.04 0 7.08 -25 -7.05 -25 7.05 0 -7.08zm0 11.67l25 -7.05 25 7.05 0 7.08 -25 -7.05 -25 7.05 0 -7.08zm0 12.54l25 -7.04 25 7.04 0 7.08 -25 -7.05 -25 7.05 0 -7.08z"/>
 </g>
</svg>
