<?xml version="1.0" encoding="UTF-8"?>
<!DOCTYPE svg PUBLIC "-//W3C//DTD SVG 1.1//EN" "http://www.w3.org/Graphics/SVG/1.1/DTD/svg11.dtd">
<!-- Creator: CorelDRAW 2019 (64-Bit) -->
<svg xmlns="http://www.w3.org/2000/svg" xml:space="preserve" width="50px" height="50px" version="1.1" style="shape-rendering:geometricPrecision; text-rendering:geometricPrecision; image-rendering:optimizeQuality; fill-rule:evenodd; clip-rule:evenodd"
viewBox="0 0 50 50"
 xmlns:xlink="http://www.w3.org/1999/xlink"
 xmlns:xodm="http://www.corel.com/coreldraw/odm/2003">
 <defs>
  <style type="text/css">
   <![CDATA[
    .fil0 {fill:white}
   ]]>
  </style>
 </defs>
 <g id="Layer_x0020_1">
  <metadata id="CorelCorpID_0Corel-Layer"/>
  <path class="fil0" d="M25 50l-25 -5.63 0 -5.66 25 5.63 25 -5.63 0 5.66 -25 5.63zm25 -28.25l0 -14.7 -25 -7.05 -25 7.05 0 14.7 25 5.63 25 -5.63zm-30.08 -9.29l2.1 0.07 0.87 1.79 1.06 0 0.47 -2.16 1.21 -0.03c0.01,0.25 0.41,2.05 0.49,2.19l1 0c0,-0.02 0.8,-1.7 0.85,-1.79 0.75,0 1.46,-0.06 2.19,-0.07 3.47,-0.04 2.21,0.71 3.34,0.73l0.73 -0.59c0.12,0.18 0.08,0.19 0.37,0.2 -0.13,-3.65 -1.1,-6.29 -4.5,-7.93 -5.17,-2.49 -14.7,-1.07 -14.7,8 0.23,-0.03 0.31,-0.16 0.44,-0.27 0.34,0.16 0.15,0.18 0.48,0.14 0.33,-0.03 -0.27,0.95 0.97,0.06 1.23,-0.88 0.23,-0.4 2.63,-0.34zm-3.62 1.84c0.11,-0.4 0.01,-1.11 -0.44,-1.16 -0.04,0.19 -0.06,0.14 -0.06,0.27 0,0.49 0.12,0.88 0.5,0.89zm17.44 -0.63l0 0.51c0.68,-0.01 0.48,-1.02 0.34,-1.02 -0.2,0 -0.34,0.32 -0.34,0.51zm-3.79 4.45c-0.92,0 -1.45,1.42 -0.34,1.42 0.93,0 1.39,-1.42 0.34,-1.42zm-8.99 0.55c-0.19,-0.42 -1.44,-1.09 -1.44,0.09 0,0.97 2,1.12 1.44,-0.09zm2.92 -4.13c-1.56,0 -0.85,-0.43 -2.11,0.78 -0.49,0.47 -0.34,0.48 -1.25,0.48 -1.59,0 -2.33,0.52 -3.32,-0.44 -0.88,-0.84 -0.31,-0.35 -1.46,-0.35l0 1.11c0,0.18 0.87,1.25 0.96,1.56 3.31,-0.35 3.29,-0.89 4.83,0.72 0.62,0.64 0.35,-0.01 0.57,1.31l0.51 3.2c0.2,0.04 0.64,0.12 0.86,0.13l0 -1.26 0.72 0 0.07 1.19 1.48 0c0,-0.46 0.07,-0.72 0.07,-1.19l0.72 0 0 1.26c0.22,-0.01 0.67,-0.09 0.87,-0.13 0.09,-1.09 0.6,-3.02 0.6,-4.16 1.18,-0.3 0.24,-1.36 2.37,-1.2 0.63,0.05 2.71,0.43 3.06,-0.06 1.06,-1.5 0.9,-1.27 0.9,-2.48 -0.87,0 -0.83,-0.35 -1.25,0.08 -0.24,0.23 -0.7,0.54 -0.77,0.85 -0.45,-0.17 -3.25,-0.06 -3.64,-0.21 -0.2,-0.1 -1.17,-1.25 -1.4,-1.25 -1.52,0 -1.19,0.11 -1.31,1.03 -0.25,1.94 0.01,1.94 -0.67,1.94 -0.08,3.1 0.11,2.59 -0.51,2.59 -0.04,-2.99 0.14,-2.59 -0.49,-2.59 0,-0.45 -0.27,-2.66 -0.41,-2.91zm1.12 24.1l-25 -5.63 0 -5.66 25 5.63 25 -5.63 0 5.66 -25 5.63z"/>
 </g>
</svg>
