<?xml version="1.0" encoding="UTF-8"?>
<!DOCTYPE svg PUBLIC "-//W3C//DTD SVG 1.1//EN" "http://www.w3.org/Graphics/SVG/1.1/DTD/svg11.dtd">
<!-- Creator: CorelDRAW 2019 (64-Bit) -->
<svg xmlns="http://www.w3.org/2000/svg" xml:space="preserve" width="50px" height="50px" version="1.1" style="shape-rendering:geometricPrecision; text-rendering:geometricPrecision; image-rendering:optimizeQuality; fill-rule:evenodd; clip-rule:evenodd"
viewBox="0 0 50 50"
 xmlns:xlink="http://www.w3.org/1999/xlink"
 xmlns:xodm="http://www.corel.com/coreldraw/odm/2003">
 <defs>
  <style type="text/css">
   <![CDATA[
    .fil0 {fill:white}
   ]]>
  </style>
 </defs>
 <g id="Layer_x0020_1">
  <metadata id="CorelCorpID_0Corel-Layer"/>
  <path class="fil0" d="M42.74 22.73l0 1.04c1.36,-0.03 0.96,-2.08 0.67,-2.08 -0.39,0 -0.67,0.66 -0.67,1.04l0 0zm7.26 -15.68l0 42.95 0 0 -25 -7.05 -25 7.05 0 0 0 -42.95 25 -7.05 25 7.05zm-43.66 15.14c0,1 0.23,1.8 1.01,1.82 0.21,-0.82 0.01,-2.26 -0.9,-2.35 -0.09,0.37 -0.11,0.27 -0.11,0.54l0 -0.01zm7.53 10.87c0,1.96 4.07,2.27 2.94,-0.18 -0.4,-0.86 -2.94,-2.21 -2.94,0.18zm20.48 1.57c1.9,0 2.82,-2.88 0.69,-2.88 -1.86,0 -2.93,2.88 -0.69,2.88zm-3.25 -1.6c2.38,-0.61 0.48,-2.75 4.79,-2.43 1.27,0.09 5.5,0.87 6.21,-0.13 2.15,-3.05 1.83,-2.56 1.83,-5.02 -1.76,0 -1.68,-0.72 -2.55,0.15 -0.46,0.47 -1.4,1.11 -1.56,1.73 -0.91,-0.35 -6.59,-0.11 -7.37,-0.43 -0.4,-0.21 -2.38,-2.53 -2.85,-2.53 -3.08,0 -2.41,0.21 -2.65,2.08 -0.52,3.95 0.01,3.95 -1.36,3.95l-0.14 5.17c0,0.2 -0.43,0.07 -0.9,0.07l-0.07 -5.08c0,-0.26 -0.39,-0.16 -0.91,-0.16 -0.02,-0.92 -0.57,-5.39 -0.84,-5.9 -3.18,0 -1.73,-0.88 -4.29,1.58 -0.98,0.95 -0.68,0.97 -2.54,0.97 -3.22,0 -4.71,1.05 -6.73,-0.9 -1.78,-1.71 -0.63,-0.7 -2.97,-0.7l0 2.24c0,0.37 1.77,2.53 1.96,3.18 4.72,-0.5 6.69,-1.58 8.89,0.44 0.42,0.4 0.53,0.62 0.9,1.01 1.27,1.31 0.72,-0.01 1.16,2.66 0.2,1.15 0.34,2.1 0.54,3.24 0.16,0.92 0.5,2.36 0.5,3.26 0.4,0.08 1.3,0.25 1.74,0.26l-0.01 -2.55 1.48 0 0.14 2.42 3 0c0,-0.94 0.14,-1.47 0.14,-2.42l1.46 0 0 2.55c0.45,-0.01 1.35,-0.18 1.75,-0.26 0.2,-2.21 1.25,-6.12 1.25,-8.46l0 0.01 0 0zm-25.59 -11.94c0.47,-0.05 0.64,-0.31 0.9,-0.54 0.69,0.34 0.31,0.38 0.98,0.3 0.26,-0.02 0.14,0.91 0.73,0.91 0.21,0 1.03,-0.66 1.23,-0.81 2.51,-1.77 0.48,-0.81 5.33,-0.67l4.28 0.14 1.75 3.62 2.16 0 0.94 -4.38 2.46 -0.05c0.03,0.5 0.84,4.15 1,4.43l2.02 0c0.01,-0.04 1.63,-3.44 1.74,-3.62 1.51,0 2.97,-0.13 4.42,-0.14 7.05,-0.09 4.5,1.42 6.81,1.48 0.03,-0.4 0.23,-1.05 0.61,-1.05 0.65,-0.01 0.04,0.01 0.86,-0.16 0.25,0.37 0.15,0.39 0.76,0.4 -0.26,-7.39 -2.25,-12.76 -9.14,-16.07 -5.31,-2.56 -12.63,-2.73 -18.3,-0.91 -8.74,2.79 -11.54,10.69 -11.54,17.12l0 0 0 0z"/>
 </g>
</svg>
