<?xml version="1.0" encoding="UTF-8"?>
<!DOCTYPE svg PUBLIC "-//W3C//DTD SVG 1.1//EN" "http://www.w3.org/Graphics/SVG/1.1/DTD/svg11.dtd">
<!-- Creator: CorelDRAW 2019 (64-Bit) -->
<svg xmlns="http://www.w3.org/2000/svg" xml:space="preserve" width="50px" height="50px" version="1.1" style="shape-rendering:geometricPrecision; text-rendering:geometricPrecision; image-rendering:optimizeQuality; fill-rule:evenodd; clip-rule:evenodd"
viewBox="0 0 50 50"
 xmlns:xlink="http://www.w3.org/1999/xlink"
 xmlns:xodm="http://www.corel.com/coreldraw/odm/2003">
 <defs>
  <style type="text/css">
   <![CDATA[
    .fil0 {fill:white}
   ]]>
  </style>
 </defs>
 <g id="Layer_x0020_1">
  <metadata id="CorelCorpID_0Corel-Layer"/>
  <path class="fil0" d="M25 50l-25 -5.63 0 -5.66 25 5.63 25 -5.63 0 5.66 -25 5.63zm25 -16.99l0 -25.96 -25 -7.05 -25 7.05 0 25.96 25 5.63 25 -5.63zm-33.12 -15.39l3.36 0.12 1.39 2.85 1.7 0 0.74 -3.45 1.93 -0.04c0.03,0.39 0.66,3.27 0.78,3.49l1.6 0c0,-0.04 1.28,-2.71 1.36,-2.85 1.2,0 2.34,-0.1 3.49,-0.12 5.54,-0.06 3.53,1.13 5.35,1.17l1.16 -0.95c0.19,0.3 0.12,0.31 0.59,0.32 -0.21,-5.82 -1.76,-10.04 -7.18,-12.65 -8.26,-3.97 -23.48,-1.71 -23.48,12.76 0.37,-0.04 0.5,-0.25 0.71,-0.43 0.54,0.26 0.24,0.3 0.76,0.23 0.53,-0.05 -0.43,1.52 1.55,0.09 1.97,-1.4 0.37,-0.64 4.19,-0.54zm-5.77 2.95c0.17,-0.65 0.01,-1.79 -0.7,-1.86 -0.07,0.29 -0.1,0.22 -0.1,0.42 0,0.79 0.19,1.41 0.8,1.44zm27.85 -1.01l0 0.81c1.07,-0.02 0.76,-1.63 0.53,-1.63 -0.31,0 -0.53,0.51 -0.53,0.82zm-6.06 7.09c-1.47,0 -2.31,2.27 -0.54,2.27 1.49,0 2.22,-2.27 0.54,-2.27zm-14.35 0.89c-0.3,-0.67 -2.3,-1.74 -2.3,0.15 0,1.53 3.19,1.78 2.3,-0.15zm4.67 -6.59c-2.5,0 -1.37,-0.69 -3.37,1.25 -0.78,0.74 -0.55,0.75 -2,0.75 -2.54,0 -3.72,0.83 -5.3,-0.7 -1.41,-1.35 -0.5,-0.56 -2.34,-0.56l0 1.77c0,0.29 1.4,1.99 1.54,2.5 5.29,-0.56 5.26,-1.42 7.71,1.14 0.99,1.03 0.56,-0.01 0.91,2.09l0.82 5.12c0.31,0.06 1.02,0.19 1.36,0.2l0 -2 1.16 0 0.11 1.9 2.36 0c0,-0.74 0.11,-1.16 0.11,-1.9l1.15 0 0 2c0.36,-0.01 1.07,-0.14 1.38,-0.2 0.16,-1.74 0.98,-4.82 0.98,-6.65 1.87,-0.47 0.38,-2.16 3.77,-1.91 1.01,0.07 4.32,0.69 4.88,-0.1 1.7,-2.4 1.45,-2.02 1.45,-3.95 -1.39,0 -1.32,-0.57 -2.01,0.12 -0.37,0.37 -1.1,0.87 -1.23,1.36 -0.71,-0.28 -5.18,-0.09 -5.8,-0.34 -0.32,-0.16 -1.87,-2 -2.24,-2 -2.42,0 -1.89,0.18 -2.08,1.64 -0.41,3.11 0.01,3.11 -1.08,3.11 -0.13,4.95 0.17,4.13 -0.81,4.13 -0.07,-4.77 0.23,-4.13 -0.78,-4.13 0,-0.72 -0.44,-4.25 -0.65,-4.64z"/>
 </g>
</svg>
