<?xml version="1.0" encoding="UTF-8"?>
<!DOCTYPE svg PUBLIC "-//W3C//DTD SVG 1.1//EN" "http://www.w3.org/Graphics/SVG/1.1/DTD/svg11.dtd">
<!-- Creator: CorelDRAW 2019 (64-Bit) -->
<svg xmlns="http://www.w3.org/2000/svg" xml:space="preserve" width="50px" height="50px" version="1.1" style="shape-rendering:geometricPrecision; text-rendering:geometricPrecision; image-rendering:optimizeQuality; fill-rule:evenodd; clip-rule:evenodd"
viewBox="0 0 50 50"
 xmlns:xlink="http://www.w3.org/1999/xlink"
 xmlns:xodm="http://www.corel.com/coreldraw/odm/2003">
 <defs>
  <style type="text/css">
   <![CDATA[
    .fil0 {fill:white}
   ]]>
  </style>
 </defs>
 <g id="Layer_x0020_1">
  <metadata id="CorelCorpID_0Corel-Layer"/>
  <path class="fil0" d="M25 50l-25 -5.63 0 -5.66 25 5.63 25 -5.63 0 5.66 -25 5.63zm-4.52 -23.21c-0.34,-2.05 0.08,-1.04 -0.89,-2.04 -2.39,-2.5 -2.36,-1.66 -7.52,-1.12 -0.14,-0.49 -1.5,-2.15 -1.5,-2.44l0 -1.72c1.79,0 0.91,-0.77 2.28,0.54 1.55,1.5 2.69,0.69 5.17,0.69 1.42,0 1.19,-0.01 1.95,-0.74 1.96,-1.89 0.85,-1.22 3.29,-1.22 0.21,0.39 0.63,3.83 0.64,4.53 0.98,0 0.69,-0.62 0.76,4.03 0.96,0 0.66,0.8 0.79,-4.03 1.06,0 0.65,0 1.05,-3.03 0.18,-1.43 -0.33,-1.6 2.03,-1.6 0.36,0 1.88,1.79 2.19,1.95 0.6,0.24 4.96,0.06 5.66,0.33 0.12,-0.48 0.84,-0.97 1.2,-1.33 0.67,-0.67 0.6,-0.12 1.96,-0.12 0,1.89 0.24,1.52 -1.41,3.86 -0.55,0.77 -3.79,0.17 -4.77,0.1 -3.31,-0.25 -1.85,1.4 -3.68,1.86 0,1.79 -0.8,4.79 -0.95,6.49 -0.31,0.06 -1,0.19 -1.35,0.2l0 -1.96 -1.12 0c0,0.73 -0.11,1.14 -0.11,1.86l-2.3 0 -0.11 -1.86 -1.13 0 0 1.96c-0.33,-0.01 -1.03,-0.14 -1.33,-0.2l-0.8 -4.99zm29.52 11.86l0 -31.6 -25 -7.05 -25 7.05 0 31.6 25 -5.68 25 5.68zm-33.54 -13.33c0,-1.84 1.95,-0.8 2.25,-0.14 0.87,1.88 -2.25,1.64 -2.25,0.14zm21.79 -8.68c-1.77,-0.04 0.19,-1.2 -5.22,-1.14 -1.12,0.01 -2.24,0.11 -3.4,0.11 -0.08,0.14 -1.33,2.75 -1.33,2.78l-1.56 0c-0.12,-0.21 -0.74,-3.02 -0.76,-3.4l-1.89 0.04 -0.72 3.36 -1.66 0 -1.35 -2.78 -3.28 -0.11c-3.73,-0.1 -2.17,-0.84 -4.09,0.52 -1.93,1.4 -1,-0.13 -1.51,-0.08 -0.51,0.06 -0.22,0.03 -0.75,-0.23 -0.2,0.18 -0.33,0.38 -0.69,0.42 0,-14.12 14.85,-16.33 22.91,-12.45 5.29,2.54 6.81,6.66 7.01,12.34 -0.46,-0.01 -0.39,-0.02 -0.58,-0.31l-1.13 0.93zm0.37 1.54l0 -0.79c0,-0.3 0.22,-0.8 0.52,-0.8 0.22,0 0.53,1.57 -0.52,1.59zm-27.95 -1.21c0,-0.2 0.02,-0.12 0.09,-0.41 0.7,0.07 0.85,1.18 0.69,1.81 -0.6,-0.02 -0.78,-0.63 -0.78,-1.4zm21.51 9.55c-1.72,0 -0.9,-2.21 0.53,-2.21 1.63,0 0.93,2.21 -0.53,2.21z"/>
 </g>
</svg>
