<?xml version="1.0" encoding="UTF-8"?>
<!DOCTYPE svg PUBLIC "-//W3C//DTD SVG 1.1//EN" "http://www.w3.org/Graphics/SVG/1.1/DTD/svg11.dtd">
<!-- Creator: CorelDRAW 2019 (64-Bit) -->
<svg xmlns="http://www.w3.org/2000/svg" xml:space="preserve" width="256px" height="256px" version="1.1" style="shape-rendering:geometricPrecision; text-rendering:geometricPrecision; image-rendering:optimizeQuality; fill-rule:evenodd; clip-rule:evenodd"
viewBox="0 0 256 256"
 xmlns:xlink="http://www.w3.org/1999/xlink"
 xmlns:xodm="http://www.corel.com/coreldraw/odm/2003">
 <defs>
  <style type="text/css">
   <![CDATA[
    .fil0 {fill:white}
   ]]>
  </style>
 </defs>
 <g id="Layer_x0020_1">
  <metadata id="CorelCorpID_0Corel-Layer"/>
  <path id="FuCapacitor" class="fil0" d="M127.72 115.7c6.33,0 11.46,5.13 11.46,11.46 0,6.33 -5.13,11.46 -11.46,11.46 -6.33,0 -11.46,-5.13 -11.46,-11.46 0,-6.33 5.13,-11.46 11.46,-11.46zm-62.39 -82.16l125.34 0c0,17.48 14.31,31.79 31.79,31.79l0 125.34c-17.48,0 -31.79,14.31 -31.79,31.79l-125.34 0c0,-17.48 -14.31,-31.79 -31.79,-31.79l0 -125.34c17.48,0 31.79,-14.31 31.79,-31.79zm81.12 173.69l0 -23.15 38.75 -38.75 25.96 0 0 -12.86 -34.49 0 -43.08 43.08 0 31.68 12.86 0zm0.56 -134.19l0 -28.79 -12.86 0 0 37.32 43.08 43.08 34.49 0 0 -12.86 -25.96 0 -38.75 -38.75zm-66.56 52.72l43.08 -43.07 0 -37.32 -12.86 0 0 28.79 -38.75 38.75 -25.86 0 0 12.85 34.39 0zm44.19 50.35l-43.07 -43.08 -34.39 0 0 12.86 25.86 0 38.75 38.75 0 23.15 12.85 0 0 -31.68zm88.28 79.89l43.08 -43.08 0 -37.32 -12.78 0 0 -100.84 12.78 0 0 -31.68 -43.08 -43.08 -34.39 0 0 12.82 -100.96 0 0 -12.82 -34.49 0 -43.08 43.08 0 31.68 12.79 0 0 100.84 -12.79 0 0 37.32 43.08 43.08 34.49 0 0 -12.76 100.96 0 0 12.76 34.39 0zm-141.09 -12.86l-20.22 0 -38.75 -38.74 0 -22.18 7.2 0 0 -112.35 -7.2 0 0 -18.27 38.75 -38.74 20.22 0 0 7.23 112.35 0 0 -7.23 20.21 0 38.75 38.74 0 18.27 -7.19 0 0 112.35 7.19 0 0 22.18 -38.75 38.74 -20.21 0 0 -7.16 -112.35 0 0 7.16zm-3.15 -206.25l118.64 0c0,17.48 14.31,31.79 31.79,31.79l0 118.64c-17.48,0 -31.79,14.31 -31.79,31.79l-118.64 0c0,-17.48 -14.31,-31.79 -31.79,-31.79l0 -118.64c17.48,0 31.79,-14.31 31.79,-31.79z"/>
 </g>
</svg>
