<?xml version="1.0" encoding="UTF-8"?>
<!DOCTYPE svg PUBLIC "-//W3C//DTD SVG 1.1//EN" "http://www.w3.org/Graphics/SVG/1.1/DTD/svg11.dtd">
<!-- Creator: CorelDRAW 2019 (64-Bit) -->
<svg xmlns="http://www.w3.org/2000/svg" xml:space="preserve" width="256px" height="256px" version="1.1" style="shape-rendering:geometricPrecision; text-rendering:geometricPrecision; image-rendering:optimizeQuality; fill-rule:evenodd; clip-rule:evenodd"
viewBox="0 0 256 256"
 xmlns:xlink="http://www.w3.org/1999/xlink"
 xmlns:xodm="http://www.corel.com/coreldraw/odm/2003">
 <defs>
  <style type="text/css">
   <![CDATA[
    .fil0 {fill:white}
   ]]>
  </style>
 </defs>
 <g id="Layer_x0020_1">
  <metadata id="CorelCorpID_0Corel-Layer"/>
  <path class="fil0" d="M0.2 0l0 256 255.6 0 0 -256 -255.6 0zm234.24 243.49c-3.37,0 -3.37,-5.12 0,-5.12 3.37,0 3.37,5.12 0,5.12zm8.38 0c-3.37,0 -3.37,-5.12 0,-5.12 3.37,0 3.37,5.12 0,5.12zm0 0.56c4.11,0 4.11,-6.24 0,-6.24 -4.11,0 -4.11,6.24 0,6.24zm-8.38 0c4.11,0 4.11,-6.24 0,-6.24 -4.11,0 -4.11,6.24 0,6.24zm-220.94 -0.56c-3.37,0 -3.37,-5.12 0,-5.12 3.36,0 3.36,5.12 0,5.12zm8.38 0c-3.37,0 -3.37,-5.12 0,-5.12 3.36,0 3.37,5.12 0,5.12zm0 0.56c4.11,0 4.11,-6.24 0,-6.24 -4.11,0 -4.11,6.24 0,6.24zm-8.38 0c4.1,0 4.1,-6.24 0,-6.24 -4.11,0 -4.11,6.24 0,6.24zm99.34 -212.45l5.02 25.89c7.89,-3.34 13.35,-3.5 20.86,-0.2l5.23 -25.59c-12.74,-6.7 -17.98,-7.07 -31.11,-0.1zm35.15 -2.79c-2.5,10.74 -5,21.47 -7.51,32.21 -7.99,-3.66 -16.18,-3.7 -24.58,0 -2.5,-10.74 -5.01,-21.47 -7.51,-32.21 13.3,-8.75 26.5,-8.43 39.6,0zm-21.04 112.67c0,-2.1 3.19,-2.1 3.19,0 0,2.09 -3.19,2.09 -3.19,0zm24.6 -38.01c12.47,12.78 12.47,33.16 0,45.94 0,-2.18 8.86,-7.94 8.86,-22.97 0,-15.03 -8.86,-20.79 -8.86,-22.97zm-46.01 47.01c-13.92,-13.01 -13.92,-35.07 0,-48.08l0 0.67c-13.27,12.76 -13.27,33.98 0,46.73l0 0.68zm4.56 -4.65c10.14,10.85 27.09,10.69 37.03,-0.35l-0.69 -0.61c4.26,-4.72 6.75,-11.09 6.52,-17.98l2.88 -0.14c-0.38,-7.48 -3.39,-14.65 -8.5,-19.35l-1.34 1.46c-9.68,-9.48 -24.9,-9.64 -34.77,-0.31l-1.3 -1.5c-5.23,4.64 -8.67,12.33 -8.87,19.98 0.95,0.03 1.88,0.05 2.84,0.07 -0.16,6.83 2.29,13.06 6.49,17.73l-0.68 0.6 0.39 0.4zm1.03 -1.59l0 0c-4.39,-4.85 -6.33,-10.5 -6.29,-17.46l-2.72 -0.08c0.28,-7.33 3.39,-13.91 8.25,-18.61l1.25 1.46 0.26 -0.25 -0.01 0c9.59,-9.07 24.41,-8.83 33.72,0.53l1.29 -1.41c4.61,4.63 7.57,10.97 7.9,18.03l-2.77 0.13c0.21,6.79 -2.12,13.53 -6.59,17.96l0.66 0.64c-9.62,10.24 -25.59,10.26 -35.22,0.02l0.62 -0.61 -0.35 -0.35zm15.82 -32.02c0,-2.1 3.19,-2.1 3.19,0 0,2.09 -3.19,2.09 -3.19,0zm4.19 0c0,-3.42 -5.19,-3.42 -5.19,0 0,3.42 5.19,3.42 5.19,0zm4.34 14.57c0,-9.13 -13.87,-9.13 -13.87,0 0,9.13 13.87,9.13 13.87,0zm-6.93 -5.51c7.24,0 7.24,11.01 0,11.01 -7.25,0 -7.25,-11.01 0,-11.01zm4.38 5.51c0,-5.78 -8.77,-5.78 -8.77,0 0,5.77 8.77,5.77 8.77,0zm-1.79 14.69c0,-3.42 -5.19,-3.42 -5.19,0 0,3.41 5.19,3.41 5.19,0zm45.98 -27.04c-2.04,0 -2.04,5.41 0,5.41 2.05,0 2.05,-5.41 0,-5.41zm29.75 10.21c-0.34,0 -0.66,0.19 -0.92,0.52l-1.54 -2.58 1.1 3.44 -0.07 2.4 -1.03 3.3 1.43 -2.35 1.49 0.55 -0.08 1.8c3.13,-5.16 3.13,-3.9 0,-9.14l1.8 4.59 -0.73 1.18c0.38,-1.63 -0.26,-3.71 -1.45,-3.71zm-5.03 0.01c-0.48,0.09 -0.89,0.54 -1.14,1.19l-1.95 -3.26c0,3.61 2.01,3.66 1.69,4.79 -0.5,1.72 -1.69,0.97 -1.69,4.35l1.88 -3.09c0.21,0.67 0.57,1.17 1.01,1.34l-0.06 1.75c3.13,-5.15 3.15,-3.88 0,-9.14l0.26 2.07zm-4.31 -0.01c-0.12,0 -0.23,0.02 -0.34,0.06l-1.27 -2.12 0.62 2.67 -0.11 4 -0.51 2.47 1.11 -1.82c2.27,1.3 2.9,-5.26 0.5,-5.26zm-5.89 0l-0.14 0.01 -1.24 -2.07 0.52 2.51 -0.13 4.34 -0.39 2.29 1.05 -1.74c2.24,0.8 2.58,-5.34 0.33,-5.34zm-4.47 0c-0.37,0 -0.71,0.23 -0.98,0.61l-1.6 -2.67 1.18 3.57 -0.06 2.13c-0.17,0.97 -1.12,0.23 -1.12,3.44l1.49 -2.45 1.39 0.73 -0.05 1.72c3.14,-5.16 3.14,-3.9 0,-9.14l0.4 2.3c-0.2,-0.16 -0.42,-0.24 -0.65,-0.24zm1.51 3.42l-0.13 -2 0.68 1.11 -0.55 0.89zm-6.65 -3.38c-0.46,0.14 -0.84,0.62 -1.07,1.29l-2.03 -3.39 1.81 4.59 -1.81 4.55 1.96 -3.22c0.19,0.68 0.53,1.21 0.96,1.43l-0.09 1.79c3.03,-4.98 3.26,-3.69 0,-9.14l0.27 2.1zm-4.2 -0.04c-0.15,0 -0.3,0.04 -0.43,0.11l-1.3 -2.17 0.68 2.76 -0.11 3.81 -0.57 2.57 1.14 -1.88c2.25,1.59 3.09,-5.2 0.59,-5.2zm-5.48 0c-2.79,0 -1.31,7.59 0.89,4.92 -0.31,16.39 -3.52,31.52 -8.77,43.87l0.84 0c11.61,-27.94 11.53,-65.82 -0.28,-93.61l-0.85 0c5.51,12.67 8.85,28.33 9.07,45.32 -0.25,-0.32 -0.56,-0.5 -0.9,-0.5zm-4.47 0c-2.04,0 -2.04,5.4 0,5.4 2.05,0 2.05,-5.4 0,-5.4zm57.57 3.96c-2.04,0 -2.04,5.4 0,5.4 2.05,0 2.05,-5.4 0,-5.4zm0 -7.04c-2.04,0 -2.04,5.4 0,5.4 2.05,0 2.05,-5.4 0,-5.4zm0 13.99c-2.04,0 -2.04,5.4 0,5.4 2.05,0 2.05,-5.4 0,-5.4zm-4.87 0c-2.05,0 -2.05,5.4 0,5.4 2.05,0 2.05,-5.4 0,-5.4zm-4.47 0c-2.04,0 -2.04,5.4 0,5.4 2.05,0 2.05,-5.4 0,-5.4zm-5.89 0c-2.04,0 -2.04,5.4 0,5.4 2.05,0 2.05,-5.4 0,-5.4zm-4.46 0c-2.05,0 -2.05,5.4 0,5.4 2.04,0 2.04,-5.4 0,-5.4zm-4.88 0c-2.04,0 -2.04,5.4 0,5.4 2.05,0 2.05,-5.4 0,-5.4zm-4.47 0c-2.04,0 -2.04,5.4 0,5.4 2.05,0 2.05,-5.4 0,-5.4zm-5.48 0c-2.05,0 -2.05,5.4 0,5.4 2.05,0 2.05,-5.4 0,-5.4zm-4.47 0c-2.04,0 -2.04,5.4 0,5.4 2.05,0 2.05,-5.4 0,-5.4zm-4.87 0c-2.05,0 -2.05,5.4 0,5.4 2.05,0 2.05,-5.4 0,-5.4zm-4.47 0c-2.04,0 -2.04,5.4 0,5.4 2.05,0 2.05,-5.4 0,-5.4zm48.33 -21.12c-2.04,0 -2.04,5.41 0,5.41 2.05,0 2.05,-5.41 0,-5.41zm-4.87 0c-2.05,0 -2.05,5.41 0,5.41 2.05,0 2.05,-5.41 0,-5.41zm-4.47 0c-2.04,0 -2.04,5.41 0,5.41 2.05,0 2.05,-5.41 0,-5.41zm-5.89 0c-2.04,0 -2.04,5.41 0,5.41 2.05,0 2.05,-5.41 0,-5.41zm-4.46 0c-2.05,0 -2.05,5.41 0,5.41 2.04,0 2.04,-5.41 0,-5.41zm-4.88 0c-2.04,0 -2.04,5.41 0,5.41 2.05,0 2.05,-5.41 0,-5.41zm-4.47 0c-2.04,0 -2.04,5.41 0,5.41 2.05,0 2.05,-5.41 0,-5.41zm-5.48 0c-2.05,0 -2.05,5.41 0,5.41 2.05,0 2.05,-5.41 0,-5.41zm-4.47 0c-2.04,0 -2.04,5.41 0,5.41 2.05,0 2.05,-5.41 0,-5.41zm-4.87 0c-2.05,0 -2.05,5.41 0,5.41 2.05,0 2.05,-5.41 0,-5.41zm-73.2 111.71c2.5,-10.74 5.01,-21.48 7.51,-32.22 8.4,3.71 16.59,3.66 24.58,0 2.51,10.74 5.01,21.48 7.51,32.22 -13.1,8.42 -26.3,8.75 -39.6,0zm4.45 -2.8l5.02 -25.89c7.89,3.34 13.35,3.5 20.86,0.2l5.23 25.59c-12.74,6.7 -17.98,7.07 -31.11,0.1zm-33.67 -108.91c2.04,0 2.04,5.41 0,5.41 -2.05,0 -2.05,-5.41 0,-5.41zm-29.75 10.21c0.45,0 0.86,0.33 1.14,0.86l1.75 -2.92c0,3.74 -1.91,2.9 -1.37,5.31 0.28,1.21 1.37,0.57 1.37,3.83l-1.66 -2.73c-0.28,0.62 -0.7,1.03 -1.19,1.05l0.02 1.68c-3.14,-5.16 -3.14,-3.9 0,-9.14l-0.26 2.08c0.06,-0.01 0.13,-0.02 0.2,-0.02zm-1.56 2.84l0.03 -0.66 -0.22 0.35 0.19 0.31zm6.94 -2.69c0.43,0.25 0.77,0.81 0.94,1.53l2.23 -3.74 -1.81 4.59 1.81 4.55 -2.19 -3.6c-0.12,0.74 -0.43,1.34 -0.82,1.66l0.18 1.94 -1.03 -1.69c-1.15,-0.24 -2.35,-3.32 -0.27,-5.28l1.3 -2.17 -0.34 2.21zm3.96 -0.15c0.24,0 0.46,0.09 0.66,0.25l1.38 -2.31 -0.84 3.03 0.09 3.25 0.75 2.86 -1.25 -2.05c-2.24,2.3 -3.47,-5.03 -0.79,-5.03zm5.89 0c0.17,0 0.34,0.05 0.5,0.14l1.31 -2.2 -0.72 2.83 0.1 3.66 0.62 2.65 -1.16 -1.92c-2.25,1.79 -3.2,-5.16 -0.65,-5.16zm4.46 0c0.49,0 0.92,0.38 1.2,0.97l1.82 -3.03c0,3.73 -1.96,3.13 -1.47,5.14 0.34,1.37 1.47,0.7 1.47,4l-1.73 -2.84c-0.25,0.63 -0.66,1.07 -1.13,1.15l0.03 1.69c-3.14,-5.16 -3.14,-3.9 0,-9.14l-0.25 2.06 0.06 0zm-1.55 2.64l0.01 -0.23 -0.08 0.12 0.07 0.11zm7.03 -2.44c0.45,0.33 0.79,1 0.91,1.83l2.29 -4.09 -1.81 4.59 1.81 4.55 -2.28 -3.76c-0.1,0.76 -0.39,1.39 -0.77,1.75l0.22 2.01 -1.02 -1.68c-1.26,-0.07 -2.62,-3.46 -0.24,-5.35l1.26 -2.11 -0.37 2.26zm3.87 -0.2c0.26,0 0.52,0.11 0.74,0.32l1.41 -2.37c0.2,-6.51 0.84,-12.82 1.86,-18.84l0.73 0c-2.42,14.06 -2.59,29.18 -0.49,43.38l-0.72 0c-0.74,-5.03 -1.2,-10.24 -1.37,-15.59l0 0.18 -1.3 -2.13c-2.22,2.57 -3.62,-4.95 -0.86,-4.95zm1.25 1.08l0.08 3.02 0.79 1.26 -0.01 -5.68 -0.86 1.4zm4.23 -1.08c3.17,0 0.79,8.48 -1.19,4.45 0.26,16.58 3.48,31.87 8.78,44.34l-0.84 0c-11.61,-27.94 -11.52,-65.82 0.28,-93.61l0.85 0c-5.56,12.79 -8.91,28.62 -9.08,45.79 0.29,-0.59 0.72,-0.97 1.2,-0.97zm4.47 0c2.04,0 2.04,5.4 0,5.4 -2.05,0 -2.05,-5.4 0,-5.4zm-57.57 3.96c2.04,0 2.04,5.4 0,5.4 -2.05,0 -2.05,-5.4 0,-5.4zm0 -7.04c2.04,0 2.04,5.4 0,5.4 -2.05,0 -2.05,-5.4 0,-5.4zm0 13.99c2.04,0 2.04,5.4 0,5.4 -2.05,0 -2.05,-5.4 0,-5.4zm4.87 0c2.05,0 2.05,5.4 0,5.4 -2.05,0 -2.05,-5.4 0,-5.4zm4.47 0c2.04,0 2.04,5.4 0,5.4 -2.05,0 -2.05,-5.4 0,-5.4zm5.89 0c2.04,0 2.04,5.4 0,5.4 -2.05,0 -2.05,-5.4 0,-5.4zm4.46 0c2.05,0 2.05,5.4 0,5.4 -2.04,0 -2.04,-5.4 0,-5.4zm4.88 0c2.04,0 2.04,5.4 0,5.4 -2.05,0 -2.05,-5.4 0,-5.4zm4.46 0c2.05,0 2.05,5.4 0,5.4 -2.04,0 -2.04,-5.4 0,-5.4zm5.49 0c2.04,0 2.04,5.4 0,5.4 -2.05,0 -2.05,-5.4 0,-5.4zm4.47 0c2.04,0 2.04,5.4 0,5.4 -2.05,0 -2.05,-5.4 0,-5.4zm4.87 0c2.05,0 2.05,5.4 0,5.4 -2.05,0 -2.05,-5.4 0,-5.4zm4.47 0c2.04,0 2.04,5.4 0,5.4 -2.05,0 -2.05,-5.4 0,-5.4zm-48.33 -21.12c2.04,0 2.04,5.41 0,5.41 -2.05,0 -2.05,-5.41 0,-5.41zm4.87 0c2.05,0 2.05,5.41 0,5.41 -2.05,0 -2.05,-5.41 0,-5.41zm4.47 0c2.04,0 2.04,5.41 0,5.41 -2.05,0 -2.05,-5.41 0,-5.41zm5.89 0c2.04,0 2.04,5.41 0,5.41 -2.05,0 -2.05,-5.41 0,-5.41zm4.46 0c2.05,0 2.05,5.41 0,5.41 -2.04,0 -2.04,-5.41 0,-5.41zm4.88 0c2.04,0 2.04,5.41 0,5.41 -2.05,0 -2.05,-5.41 0,-5.41zm4.46 0c2.05,0 2.05,5.41 0,5.41 -2.04,0 -2.04,-5.41 0,-5.41zm5.49 0c2.04,0 2.04,5.41 0,5.41 -2.05,0 -2.05,-5.41 0,-5.41zm4.47 0c2.04,0 2.04,5.41 0,5.41 -2.05,0 -2.05,-5.41 0,-5.41zm4.87 0c2.05,0 2.05,5.41 0,5.41 -2.05,0 -2.05,-5.41 0,-5.41zm88.54 54.32c0,-2.88 -2.29,1.01 -0.58,1.01 0.32,0 0.58,-0.45 0.58,-1.01zm-0.17 -80.48c0,-2.89 -2.29,1.01 -0.58,1.01 0.32,0 0.58,-0.45 0.58,-1.01zm-68.3 80.48c0,-2.88 -2.29,1.01 -0.58,1.01 0.32,0 0.58,-0.45 0.58,-1.01zm-0.17 -80.48c0,-2.89 -2.29,1.01 -0.58,1.01 0.32,0 0.58,-0.45 0.58,-1.01zm63.58 -77.05l0.01 -0.05c0.41,0.09 0.81,0.19 1.21,0.29l-0.01 0.07c49.96,12.85 87.44,55.64 90.94,107.46l0 15.78c-3.5,51.83 -40.98,94.62 -90.94,107.46l0.01 0.07c-0.4,0.1 -0.8,0.2 -1.21,0.3l-20.7 -77.73c-5.83,4.37 -12.5,4.53 -18.4,0.42l-20.65 77.46c-0.41,-0.09 -0.81,-0.2 -1.21,-0.29l0.01 -0.07c-50.28,-12.65 -88.05,-55.57 -91.57,-107.62l0 -15.78c3.52,-52.04 41.29,-94.96 91.57,-107.62l-0.01 -0.06c0.4,-0.1 0.8,-0.2 1.21,-0.3l20.65 77.47c5.9,-4.11 12.57,-3.95 18.4,0.42l20.69 -77.68zm87.93 123.35l0 -15.37c-4.73,-78.79 -74.68,-101.94 -85.15,-104.92l-20.91 78.84c-6.07,-5.24 -18.12,-5.64 -24.29,-0.71l-20.89 -78.47c-12.54,3.75 -80.62,28.41 -85.38,105.26l-0.2 15.57c4.75,76.85 73.85,100.49 86.39,104.24l20.89 -78.46c6.17,4.92 17.82,4.93 23.88,-0.31l20.91 78.84c10.47,-2.98 80.02,-25.72 84.75,-104.51zm-79.87 -56.28c0.44,1.01 0.86,2.05 1.26,3.11l-0.85 0c-0.41,-1.06 -0.84,-2.1 -1.28,-3.11l0.87 0zm7.29 25.46c2.39,14.08 2.55,29.16 0.48,43.38l-0.72 0c2.1,-14.2 1.93,-29.32 -0.49,-43.38l0.73 0zm-4.91 65.74c-0.66,1.87 -1.35,3.7 -2.09,5.47l-0.87 0c0.75,-1.77 1.47,-3.6 2.14,-5.47l0.82 0zm-79.15 5.47c-0.74,-1.77 -1.44,-3.6 -2.09,-5.47l0.82 0c0.67,1.87 1.38,3.7 2.14,5.47l-0.87 0zm-0.97 -93.56c0.4,-1.06 0.82,-2.1 1.25,-3.11l0.88 0c-0.44,1.01 -0.87,2.05 -1.29,3.11l-0.84 0zm106.88 45.01l-2.29 -3.83 1.81 4.59 -1.81 4.55 2.29 -5.31zm-134.04 0l2.29 -3.83 -1.81 4.59 1.81 4.55 -2.29 -5.31zm-57.74 125.67l0 -249.14 248.95 0 0 249.14 -248.95 0zm230.84 -236.45c-3.37,0 -3.37,-5.12 0,-5.12 3.37,0 3.37,5.12 0,5.12zm8.38 0c-3.37,0 -3.37,-5.12 0,-5.12 3.37,0 3.37,5.12 0,5.12zm0 0.56c4.11,0 4.11,-6.24 0,-6.24 -4.11,0 -4.11,6.24 0,6.24zm-8.38 0c4.11,0 4.11,-6.24 0,-6.24 -4.11,0 -4.11,6.24 0,6.24zm-220.94 -0.56c-3.37,0 -3.37,-5.12 0,-5.12 3.36,0 3.36,5.12 0,5.12zm8.38 0c-3.37,0 -3.37,-5.12 0,-5.12 3.36,0 3.37,5.12 0,5.12zm0 0.56c4.11,0 4.11,-6.24 0,-6.24 -4.11,0 -4.11,6.24 0,6.24zm-8.38 0c4.1,0 4.1,-6.24 0,-6.24 -4.11,0 -4.11,6.24 0,6.24z"/>
 </g>
</svg>
