<?xml version="1.0" encoding="UTF-8" standalone="no"?>
<!-- Created with Inkscape (http://www.inkscape.org/) -->

<svg
   xmlns:dc="http://purl.org/dc/elements/1.1/"
   xmlns:cc="http://creativecommons.org/ns#"
   xmlns:rdf="http://www.w3.org/1999/02/22-rdf-syntax-ns#"
   xmlns:svg="http://www.w3.org/2000/svg"
   xmlns="http://www.w3.org/2000/svg"
   xmlns:sodipodi="http://sodipodi.sourceforge.net/DTD/sodipodi-0.dtd"
   xmlns:inkscape="http://www.inkscape.org/namespaces/inkscape"
   width="19.595312mm"
   height="31.25205mm"
   viewBox="0 0 19.595312 31.25205"
   version="1.1"
   id="svg8"
   inkscape:version="0.92.4 (5da689c313, 2019-01-14)"
   sodipodi:docname="unsettled.svg">
  <defs
     id="defs2" />
  <sodipodi:namedview
     id="base"
     pagecolor="#ffffff"
     bordercolor="#666666"
     borderopacity="1.0"
     inkscape:pageopacity="0.0"
     inkscape:pageshadow="2"
     inkscape:zoom="5.6568542"
     inkscape:cx="45.925662"
     inkscape:cy="42.254625"
     inkscape:document-units="mm"
     inkscape:current-layer="layer2"
     showgrid="false"
     inkscape:window-width="2560"
     inkscape:window-height="1377"
     inkscape:window-x="-8"
     inkscape:window-y="-8"
     inkscape:window-maximized="1" />
  <metadata
     id="metadata5">
    <rdf:RDF>
      <cc:Work
         rdf:about="">
        <dc:format>image/svg+xml</dc:format>
        <dc:type
           rdf:resource="http://purl.org/dc/dcmitype/StillImage" />
        <dc:title></dc:title>
      </cc:Work>
    </rdf:RDF>
  </metadata>
  <g
     inkscape:groupmode="layer"
     id="layer2"
     inkscape:label="Layer 2"
     style="display:inline"
     transform="translate(-89.149522,-128.55794)">
    <path
       id="path3715"
       d="m 98.709971,128.55814 c -3.004675,0.021 -5.929974,1.38741 -7.459927,4.05355 -1.494499,2.60443 -2.264172,5.47172 -2.07129,7.63363 0.09644,1.08082 0.42287,1.97068 0.973666,2.61276 0.550664,0.64201 1.329796,1.06977 2.482453,1.19261 l 0.727604,0.0787 -0.198437,0.70478 c -0.154583,0.54716 -0.248047,1.07527 -0.248047,1.64736 0,1.78846 0.283898,5.24815 1.223698,8.17318 0.4699,1.46249 1.105627,2.78851 1.903677,3.71032 0.798248,0.92194 1.7102,1.44496 2.898113,1.44496 1.187979,0 2.101919,-0.52302 2.900099,-1.44489 0.79811,-0.92175 1.43384,-2.24777 1.90368,-3.71026 0.93993,-2.92496 1.22369,-6.38472 1.22369,-8.17317 0,-0.57216 -0.0933,-1.10034 -0.24804,-1.64743 l -0.19632,-0.69672 0.71933,-0.0847 c 1.13414,-0.13494 1.92154,-0.55344 2.47849,-1.17211 0.55675,-0.61859 0.8923,-1.46645 0.99218,-2.51354 0.19976,-2.09417 -0.59253,-4.93944 -2.3028,-7.74104 -1.68672,-2.76318 -4.69152,-4.08782 -7.697652,-4.06797 h -0.0041 z m -5.105665,8.23939 c 1.617068,0 2.914584,1.29514 2.914584,2.9124 0,1.617 -1.297583,2.91459 -2.91465,2.91459 -1.617001,0 -2.912401,-1.29759 -2.912401,-2.91459 0,-1.617 1.2954,-2.9124 2.912401,-2.9124 z m 10.678454,0 c 1.61706,0 2.91451,1.29514 2.91451,2.9124 0,1.617 -1.29751,2.91459 -2.91451,2.91459 -1.61707,0 -2.9124,-1.29759 -2.9124,-2.91459 -1.4e-4,-1.617 1.29533,-2.9124 2.9124,-2.9124 z m -10.746716,2.32126 c -0.438084,0 -0.779198,0.34316 -0.779198,0.78131 0,0.43815 0.341114,0.7792 0.779198,0.7792 0.438216,0 0.781447,-0.34105 0.781447,-0.7792 0,-0.43835 -0.343165,-0.78138 -0.781381,-0.78138 z m 10.862466,0 c -0.43815,0 -0.7792,0.34316 -0.7792,0.78131 -1.3e-4,0.43815 0.34105,0.7792 0.7792,0.7792 0.43815,0 0.78132,-0.34105 0.78132,-0.7792 0,-0.43835 -0.3431,-0.78138 -0.78132,-0.78138 z m -5.384665,3.43336 c 2.563945,0 4.555795,2.38191 4.555795,5.1986 0,1.31882 -0.16252,3.71687 -0.76279,5.86628 -0.30004,1.07467 -0.70479,2.08888 -1.30215,2.88151 -0.5973,0.79242 -1.45256,1.37662 -2.490789,1.37662 -1.038225,0 -1.893491,-0.58406 -2.490854,-1.37669 -0.597296,-0.79243 -1.002109,-1.80677 -1.302146,-2.88144 -0.600274,-2.14941 -0.764845,-4.54753 -0.764845,-5.86635 0,-2.81675 1.993966,-5.19859 4.557911,-5.19859 z m 0,1.236 c -1.185995,0 -2.259542,0.75757 -2.848438,1.9224 h 5.694763 c -0.58837,-1.16483 -1.66046,-1.92246 -2.846458,-1.92246 z m -1.804591,11.50528 c 0.09591,0.16748 0.195527,0.32266 0.299641,0.46103 0.448469,0.59465 0.905669,0.88457 1.504817,0.88457 0.599282,0 1.054568,-0.28992 1.502838,-0.8847 0.10424,-0.13824 0.20372,-0.29342 0.29964,-0.4609 z"
       inkscape:connector-curvature="0"
       style="fill:#666666;fill-opacity:1;stroke-width:0.06614583" />
  </g>
</svg>
