<?xml version="1.0" encoding="UTF-8" standalone="no"?>
<svg
   xmlns:dc="http://purl.org/dc/elements/1.1/"
   xmlns:cc="http://creativecommons.org/ns#"
   xmlns:rdf="http://www.w3.org/1999/02/22-rdf-syntax-ns#"
   xmlns:svg="http://www.w3.org/2000/svg"
   xmlns="http://www.w3.org/2000/svg"
   xmlns:sodipodi="http://sodipodi.sourceforge.net/DTD/sodipodi-0.dtd"
   xmlns:inkscape="http://www.inkscape.org/namespaces/inkscape"
   style="height: 512px; width: 512px;"
   viewBox="0 0 512 512"
   version="1.1"
   id="svg6"
   sodipodi:docname="lv_double-face-mask.svg"
   inkscape:version="0.92.4 (5da689c313, 2019-01-14)">
  <metadata
     id="metadata12">
    <rdf:RDF>
      <cc:Work
         rdf:about="">
        <dc:format>image/svg+xml</dc:format>
        <dc:type
           rdf:resource="http://purl.org/dc/dcmitype/StillImage" />
      </cc:Work>
    </rdf:RDF>
  </metadata>
  <defs
     id="defs10" />
  <sodipodi:namedview
     pagecolor="#ffffff"
     bordercolor="#666666"
     borderopacity="1"
     objecttolerance="10"
     gridtolerance="10"
     guidetolerance="10"
     inkscape:pageopacity="0"
     inkscape:pageshadow="2"
     inkscape:window-width="640"
     inkscape:window-height="480"
     id="namedview8"
     showgrid="false"
     inkscape:zoom="0.4609375"
     inkscape:cx="256"
     inkscape:cy="259.0265"
     inkscape:window-x="0"
     inkscape:window-y="0"
     inkscape:window-maximized="0"
     inkscape:current-layer="svg6" />
  <g
     class=""
     style="touch-action:none;fill:#008000"
     transform="translate(0,0)"
     id="g4">
    <path
       d="M276.44 20.63v473.227c43.08-1.258 82.452-26.44 111.833-68.043 30.15-42.69 49.18-102.418 49.18-168.57 0-66.152-19.027-125.88-49.178-168.57C358.895 47.072 319.52 21.89 276.44 20.63zM156.07 227.194c-10.05.02-20.717.973-31.93 2.67-.857 98.74 54.765 57.68 122.387 65.075-14.887-50.39-46.9-67.83-90.457-67.745zm231.46 0c10.05.02 20.717.973 31.93 2.67.855 98.74-54.767 57.68-122.39 65.075 14.887-50.39 46.903-67.83 90.46-67.745z"
       fill="#fff"
       fill-opacity="1"
       id="path2"
       style="fill:#008000" />
  </g>
</svg>
