<?xml version="1.0" encoding="UTF-8" standalone="no"?>
<svg
   xmlns:dc="http://purl.org/dc/elements/1.1/"
   xmlns:cc="http://creativecommons.org/ns#"
   xmlns:rdf="http://www.w3.org/1999/02/22-rdf-syntax-ns#"
   xmlns:svg="http://www.w3.org/2000/svg"
   xmlns="http://www.w3.org/2000/svg"
   xmlns:sodipodi="http://sodipodi.sourceforge.net/DTD/sodipodi-0.dtd"
   xmlns:inkscape="http://www.inkscape.org/namespaces/inkscape"
   style="height: 512px; width: 512px;"
   viewBox="0 0 512 512"
   version="1.1"
   id="svg6"
   sodipodi:docname="lv_zigzag-hieroglyph.svg"
   inkscape:version="0.92.4 (5da689c313, 2019-01-14)">
  <metadata
     id="metadata12">
    <rdf:RDF>
      <cc:Work
         rdf:about="">
        <dc:format>image/svg+xml</dc:format>
        <dc:type
           rdf:resource="http://purl.org/dc/dcmitype/StillImage" />
      </cc:Work>
    </rdf:RDF>
  </metadata>
  <defs
     id="defs10" />
  <sodipodi:namedview
     pagecolor="#ffffff"
     bordercolor="#666666"
     borderopacity="1"
     objecttolerance="10"
     gridtolerance="10"
     guidetolerance="10"
     inkscape:pageopacity="0"
     inkscape:pageshadow="2"
     inkscape:window-width="640"
     inkscape:window-height="480"
     id="namedview8"
     showgrid="false"
     inkscape:zoom="0.4609375"
     inkscape:cx="256"
     inkscape:cy="256"
     inkscape:window-x="0"
     inkscape:window-y="0"
     inkscape:window-maximized="0"
     inkscape:current-layer="svg6" />
  <g
     class=""
     style="touch-action:none;fill:#ff0000"
     transform="translate(0,0)"
     id="g4">
    <path
       d="M204.3 118.4L152.5 188l-51.3-69.1L20.99 220l21.94 17.4 57.47-72.5 52.1 69.9 51.8-69.4 51.6 69.5 51.7-69.6 51.8 69.6 52-70 57.6 72.5 22-17.4-80.4-101.1-51.2 69-51.8-69.4-51.7 69.4-51.6-69.5zm0 156.4l-51.8 69.3-51.3-68.8-80.17 100.8 21.92 17.4 57.55-72.4 52 69.8 51.8-69.3 51.6 69.3 51.7-69.3 51.8 69.3 52-69.8 57.7 72.4 21.8-17.4-80.3-100.8-51.2 68.8-51.8-69.3-51.7 69.3-51.6-69.3z"
       fill="#fff"
       fill-opacity="1"
       id="path2"
       style="fill:#ff0000" />
  </g>
</svg>
