<?xml version="1.0" encoding="UTF-8"?>
<!DOCTYPE svg PUBLIC "-//W3C//DTD SVG 1.1//EN" "http://www.w3.org/Graphics/SVG/1.1/DTD/svg11.dtd">
<!-- Creator: CorelDRAW 2019 (64-Bit) -->
<svg xmlns="http://www.w3.org/2000/svg" xml:space="preserve" width="230px" height="223px" version="1.1" style="shape-rendering:geometricPrecision; text-rendering:geometricPrecision; image-rendering:optimizeQuality; fill-rule:evenodd; clip-rule:evenodd"
viewBox="0 0 229.95 223.36"
 xmlns:xlink="http://www.w3.org/1999/xlink"
 xmlns:xodm="http://www.corel.com/coreldraw/odm/2003">
 <defs>
  <style type="text/css">
   <![CDATA[
    .fil0 {fill:white}
   ]]>
  </style>
 </defs>
 <g id="Layer_x0020_1">
  <metadata id="CorelCorpID_0Corel-Layer"/>
  <path class="fil0" d="M0.05 104.12l38.88 10.02 0 9.32 -30.45 -5.92 0 42.77 4.06 0.86 0 11.17 -4.06 -1.45 0 0.83 106.59 40.17 106.45 -40.18 0 -0.86 -4.06 1.45 0 -11.13 4.06 -0.85 0 -42.78 -30.45 5.92 0 -9.32 38.88 -10.02 0 54.42 0 19.65 -114.98 45.17 -114.92 -45.19 0 -10.29 -0.05 -0.02 0.05 -9.32 0 -54.42zm63.17 -40.41c-4,-3.48 -4.13,-3.96 -8.38,-8.16 -2.25,8.16 -6.62,13.32 -11.62,13.32 -7.31,0 -13.25,-11.4 -13.25,-25.44 0,-13.91 5.94,-25.43 13.25,-25.43 4.81,0 9.06,5.04 11.25,12.36 4.25,-3.96 4.56,-4.32 8.37,-8.16 -3.81,-13.08 -11.06,-22.2 -19.62,-22.2 -12.5,0 -22.63,19.68 -22.63,43.43 0,24 10.13,43.44 22.63,43.44 8.81,0 16.19,-9.36 20,-23.16zm31.12 -8.76c7.44,-3.12 10.63,-14.88 10.63,-26.51 0,-13.92 -4.31,-27.48 -15.56,-27.48l-20.13 0 0 85.67 9.88 0 0 -30.72 4.81 0 11.25 30.72 12 0 -12.5 -31.68 -0.38 0zm-7.56 -39.35c4.69,0 8.56,1.68 8.56,12.84 0,10.91 -3.87,12.95 -8.56,12.95l-7.62 0 0 -25.79 7.62 0zm56.38 36.83l0 -16.68 -20.38 0 0 -19.31 23.07 0 0 -15.84 -32.57 0 0 86.03 34.69 0 0 -15.84 -25.19 0 0 -18.36 20.38 0zm66.25 -51.47l-9.63 0 -6.56 59.15 -0.87 -0.12 -7.63 -59.03 -9.19 0 -7.75 58.31 -0.87 0.24 -6.32 -58.55 -9.81 0 11.81 85.67 9.94 0 7.44 -58.31 0.13 0 7.56 58.31 9.75 0 12 -85.67zm-86.85 129.5l87.94 0.18 -31.31 28.74 -30.19 7.41 -26.44 -36.33zm-105.02 43.66l5 1.78 0 -12.63 -5 -1.05 0 11.9zm9.99 3.56l5 1.79 0 -14.1 -5 -1.05 0 13.36zm10 3.57l5 1.78 0 -15.57 -5 -1.05 0 14.84zm10 3.57l5 1.78 0 -17.04 -5 -1.05 0 16.31zm9.99 3.56l5 1.79 0 -18.51 -5 -1.05 0 17.77zm10 3.57l5 1.78 0 -19.97 -5 -1.05 0 19.24zm9.99 3.56l5 1.79 0 -21.44 -5 -1.05 0 20.7zm10 3.57l5 1.78 0 -22.9 -5 -1.05 0 22.17zm10 3.57l5 1.78 0 -24.37 -5 -1.05 0 23.64zm9.99 3.56l5 1.79 0 -25.84 -5 -1.05 0 25.1zm10 1.74l5 -1.78 0 -25.05 -5 1.05 0 25.78zm9.99 -3.56l5 -1.78 0 -23.59 -5 1.06 0 24.31zm10 -3.57l5 -1.78 0 -22.12 -5 1.05 0 22.85zm10 -3.56l5 -1.79 0 -20.65 -5 1.05 0 21.39zm9.99 -3.57l5 -1.78 0 -19.19 -5 1.05 0 19.92zm10 -3.56l5 -1.78 0 -17.73 -5 1.05 0 18.46zm9.99 -3.57l5 -1.78 0 -16.26 -5 1.05 0 16.99zm10 -3.56l5 -1.79 0 -14.79 -5 1.05 0 15.53zm10 -3.57l5 -1.78 0 -13.33 -5 1.05 0 14.06zm9.99 -3.56l5 -1.79 0 -11.86 -5 1.05 0 12.6zm-110.7 -7.05l18.08 6.01 18.4 -5.69 -9.56 -13.52 -18.07 0 -8.85 13.2zm11.16 -38.36l-87.94 0.18 31.3 28.74 30.2 7.41 26.44 -36.33zm-107.87 -46.63l114.99 24.14 114.91 -24.14 -0.05 9.31 -114.96 24.15 -114.94 -24.15 0.05 -9.31z"/>
 </g>
</svg>
