<?xml version="1.0" encoding="UTF-8"?>
<!DOCTYPE svg PUBLIC "-//W3C//DTD SVG 1.1//EN" "http://www.w3.org/Graphics/SVG/1.1/DTD/svg11.dtd">
<!-- Creator: CorelDRAW 2019 (64-Bit) -->
<svg xmlns="http://www.w3.org/2000/svg" xml:space="preserve" width="231px" height="224px" version="1.1" style="shape-rendering:geometricPrecision; text-rendering:geometricPrecision; image-rendering:optimizeQuality; fill-rule:evenodd; clip-rule:evenodd"
viewBox="0 0 232.26 225.29"
 xmlns:xlink="http://www.w3.org/1999/xlink"
 xmlns:xodm="http://www.corel.com/coreldraw/odm/2003">
 <defs>
  <style type="text/css">
   <![CDATA[
    .fil0 {fill:white}
   ]]>
  </style>
 </defs>
 <g id="Layer_x0020_1">
  <metadata id="CorelCorpID_0Corel-Layer"/>
  <path class="fil0" d="M0.05 105.54l39.05 10.06 0 9.36 -30.58 -5.95 0 42.97 4.08 0.85 0 11.22 -4.08 -1.46 0 0.84 107.05 40.35 106.91 -40.36 0 -0.86 -4.08 1.45 0 -11.18 4.08 -0.85 0 -42.97 -30.58 5.95 0 -9.36 39.05 -10.06 0 54.66 0 19.73 -115.48 45.36 -115.42 -45.38 0 -10.34 -0.05 -0.01 0.05 -9.36 0 -54.66zm45.8 -54.7c13.5,-2.84 19.28,-13.53 19.28,-24.11 0,-12.66 -7.82,-24.98 -28.23,-24.98l-36.51 0 0 77.89 17.91 0 0 -27.93 8.73 0 20.41 27.93 21.77 0 -22.68 -28.8 -0.68 0zm-13.72 -35.78c8.51,0 15.54,1.52 15.54,11.67 0,9.93 -7.03,11.78 -15.54,11.78l-13.83 0 0 -23.45 13.83 0zm68.6 64.58l17.8 0 0 -63.49 25.52 0 0 -14.4 -69.06 0 0 14.29 25.74 0 0 63.6zm131.53 -39.27c0,-22.37 -18.94,-40.37 -41.95,-40.37 -23.14,0 -41.84,18 -41.84,40.37 0,22.25 18.7,40.25 41.84,40.25 23.01,0 41.95,-18 41.95,-40.25zm-41.95 -23.9c13.49,0 24.49,10.91 24.49,23.9 0,12.98 -11,23.78 -24.49,23.78 -13.5,0 -24.72,-10.8 -24.72,-23.78 0,-12.99 11.22,-23.9 24.72,-23.9zm-67.22 115.52l88.32 0.18 -31.44 28.87 -30.32 7.44 -26.56 -36.49zm-105.48 43.85l5.03 1.79 0 -12.69 -5.03 -1.05 0 11.95zm10.04 3.58l5.02 1.79 0 -14.16 -5.02 -1.06 0 13.43zm10.04 3.58l5.02 1.79 0 -15.63 -5.02 -1.06 0 14.9zm10.04 3.58l5.02 1.8 0 -17.12 -5.02 -1.05 0 16.37zm10.04 3.59l5.02 1.79 0 -18.59 -5.02 -1.05 0 17.85zm10.04 3.58l5.02 1.79 0 -20.06 -5.02 -1.05 0 19.32zm10.04 3.58l5.02 1.79 0 -21.53 -5.02 -1.05 0 20.79zm10.04 3.58l5.02 1.79 0 -23 -5.02 -1.06 0 22.27zm10.04 3.58l5.02 1.79 0 -24.47 -5.02 -1.06 0 23.74zm10.04 3.58l5.02 1.79 0 -25.95 -5.02 -1.05 0 25.21zm10.04 1.75l5.02 -1.79 0 -25.15 -5.02 1.05 0 25.89zm10.04 -3.58l5.02 -1.79 0 -23.68 -5.02 1.05 0 24.42zm10.04 -3.58l5.02 -1.79 0 -22.21 -5.02 1.05 0 22.95zm10.04 -3.58l5.02 -1.79 0 -20.74 -5.02 1.05 0 21.48zm10.04 -3.58l5.02 -1.79 0 -19.27 -5.02 1.05 0 20.01zm10.04 -3.58l5.02 -1.79 0 -17.8 -5.02 1.05 0 18.54zm10.04 -3.58l5.02 -1.79 0 -16.33 -5.02 1.05 0 17.07zm10.04 -3.58l5.02 -1.79 0 -14.86 -5.02 1.05 0 15.6zm10.04 -3.59l5.02 -1.79 0 -13.38 -5.02 1.05 0 14.12zm10.03 -3.58l5.03 -1.79 0 -11.91 -5.03 1.05 0 12.65zm-111.18 -7.08l18.16 6.04 18.48 -5.71 -9.61 -13.58 -18.14 0 -8.89 13.25zm11.21 -38.52l-88.33 0.18 31.45 28.87 30.32 7.44 26.56 -36.49zm-108.34 -46.84l115.49 24.26 115.41 -24.26 -0.05 9.36 -115.46 24.26 -115.44 -24.26 0.05 -9.36z"/>
 </g>
</svg>
