<?xml version="1.0" encoding="UTF-8"?>
<!DOCTYPE svg PUBLIC "-//W3C//DTD SVG 1.1//EN" "http://www.w3.org/Graphics/SVG/1.1/DTD/svg11.dtd">
<!-- Creator: CorelDRAW 2019 (64-Bit) -->
<svg xmlns="http://www.w3.org/2000/svg" xml:space="preserve" width="256px" height="256px" version="1.1" style="shape-rendering:geometricPrecision; text-rendering:geometricPrecision; image-rendering:optimizeQuality; fill-rule:evenodd; clip-rule:evenodd"
viewBox="0 0 256 256"
 xmlns:xlink="http://www.w3.org/1999/xlink"
 xmlns:xodm="http://www.corel.com/coreldraw/odm/2003">
 <defs>
  <style type="text/css">
   <![CDATA[
    .fil0 {fill:none}
    .fil2 {fill:red}
    .fil1 {fill:white;fill-rule:nonzero}
   ]]>
  </style>
 </defs>
 <g id="Layer_x0020_1">
  <metadata id="CorelCorpID_0Corel-Layer"/>
  <rect class="fil0" width="256" height="256"/>
  <path class="fil1" d="M105.54 18.07l-13.56 0 -9.25 59.61 -1.23 -0.12 -10.74 -59.49 -12.95 0 -10.92 58.76 -1.23 0.25 -8.9 -59.01 -13.83 0 16.65 86.34 14 0 10.48 -58.77 0.18 0 10.66 58.77 13.73 0 16.91 -86.34zm66.94 42.8c0,-24.79 -14.71,-44.74 -32.59,-44.74 -17.97,0 -32.5,19.95 -32.5,44.74 0,24.67 14.53,44.62 32.5,44.62 17.88,0 32.59,-19.95 32.59,-44.62zm-32.59 -26.48c10.48,0 19.02,12.09 19.02,26.48 0,14.39 -8.54,26.36 -19.02,26.36 -10.48,0 -19.2,-11.97 -19.2,-26.36 0,-14.39 8.72,-26.48 19.2,-26.48zm54.34 31.56l15.06 0c5.99,0 9.95,3.51 9.95,12.34 0,8.94 -4.84,11.36 -10.22,11.36l-14.79 0 0 -23.7zm-13.83 38.46l30.47 0c11.36,0 22.2,-7.5 22.2,-25.04 0,-10.76 -3.79,-18.86 -11.54,-21.88 5.64,-3.75 8.54,-9.31 8.54,-18.02 0,-16.08 -8.1,-21.4 -20.08,-21.4l-29.59 0 0 86.34zm13.83 -71.59l12.94 0c4.94,0 9.52,1.81 9.52,9.91 0,7.26 -3.53,10.28 -8.46,10.28l-14 0 0 -20.19z"/>
  <g id="_2100986346640">
   <path class="fil2" d="M127.37 154.17c0,2.89 -0.01,5.78 0.01,8.67 0.01,2.21 -0.43,6.89 1.61,7.06 1.33,0.1 1.25,-1.6 1.36,-2.92l0.31 -8.3c0.04,-1.18 0.01,-2.7 0.28,-3.83 0.23,-0.96 1.03,-1.89 2.53,-1.9 1.17,-0.02 2.39,0.64 3.31,1.09 1.56,0.76 4.21,1.92 5.03,3.4 3.97,7.21 3.21,6.41 1.25,12.66 -0.61,1.94 -1.17,4.95 -2.02,6.57 -0.68,1.27 -1.2,1.39 -2.03,2.29 -3.55,3.82 -4.34,5.27 -7.88,3.44 -1.62,-0.84 -3.21,-2.36 -4.57,-3.76 -0.78,-0.81 -1.41,-1.36 -2.1,-2.3 -4.4,-6.1 -3.59,-3.36 -3.6,-9.19 0,-2.21 -0.49,-6.49 0.43,-8.25 1.02,-1.98 1.93,-4.01 2.95,-5.44 1.41,-0.19 2.35,0.42 3.13,0.71zm46.19 -11.93c2.15,-4.28 2.44,-4.14 3.96,-9.33 0.17,-0.6 0.36,-1.15 0.62,-1.73 0.14,-0.34 0.26,-0.6 0.36,-0.83l6.39 -12.36c1.59,-2.81 3.87,-5.59 4.43,-8.91 0.88,-5.12 -3,-8.84 -7.61,-9.96 -3.63,-0.89 -3.74,1.78 -4.49,4.36 -0.66,2.24 -1.29,4.55 -2,6.77 -0.71,2.23 -1.8,4.3 -2.6,6.41 -1.24,3.29 -1.08,4.05 -1.85,6.97 -1.67,6.29 -4.8,17.16 -10.53,20.76 -1.19,0.75 -2.18,0.84 -3.64,0.54 -0.51,-0.75 -1.29,-2.29 -1.9,-3.34 -0.82,-1.43 -1.51,-1.64 -1.42,-3.79 0.03,-0.83 0.22,-1.82 0.32,-2.38 0.12,-0.69 0.26,-1.43 0.41,-2.13 2.17,-9.69 0.89,-15.45 2.18,-23.67 0.46,-2.9 1.11,-5.63 1.74,-8.61l1.48 -8.92c0.46,-3.16 1.11,-6.26 1.25,-9.11 0.16,-3.44 0.65,-5.9 -2.55,-7.83 -3.36,-2.03 -9.99,-0.25 -10.34,3.52 -0.58,6.2 -0.31,18.83 -0.42,25.45 -0.08,5.44 -1.3,22.96 -2.91,28.19 -0.54,1.75 -1.9,1.72 -3.45,1.27 -1.33,-0.39 -2.24,-1.38 -3.07,-1.98 -0.21,-7.98 -0.13,-15.41 0.38,-23.37 0.26,-4.04 0.31,-7.79 0.27,-11.95 -0.05,-6.97 0.33,-5.4 0.93,-10.97 0.4,-3.65 -0.11,-7.38 -1.16,-10.56 -0.13,-0.39 -0.25,-0.8 -0.38,-1.16 -0.09,-0.29 -0.26,-0.7 -0.45,-1.12 -1.67,-3.66 -5.99,-12.61 -9.58,-5.39 -1.9,3.84 -2.09,5.73 -1.17,9.7 1.86,8.05 3.29,12.2 1.29,20.94 -2.13,9.37 -1.87,11.69 0.36,20.86 0.79,3.25 1.79,6.82 2.08,10.01 0.2,2.2 0.31,3.85 -1.5,4.52 -2.75,1 -7,-0.98 -9.31,-2.26 -1.52,-0.84 -1.94,-1.26 -2.68,-3.24 -1.06,-2.81 -1.14,-7.07 -1.71,-10.23 -0.69,-3.8 -3.56,-5.43 -3.82,-8.37 -0.15,-1.63 0.41,-3.8 0.56,-5.49 0.17,-1.85 0.21,-3.79 0.25,-5.67 0.1,-4.29 1.52,-6.79 0.94,-11.07 -0.85,-6.17 -4.84,-13.76 -12.2,-10.97 -7.01,2.65 -1.68,12.36 -0.3,17.39 0.92,3.32 1.66,6.44 2.31,9.7 2.24,11.17 3.92,18.67 6.72,29.43 0.93,3.6 2.3,5.97 1.26,10.05 -0.86,3.42 -2.1,5.76 -3.6,8.5 -1.35,2.46 -0.39,2.61 0.36,4.56 0.56,1.45 0.86,4.08 -1.22,3.64 -0.89,-0.2 -3.3,-1.63 -4.1,-2 -2.16,-0.98 -2.58,-0.39 -4.26,0.62 -1.2,0.73 -2.41,1.9 -3.21,2.87 -0.86,1.04 -2.31,2.36 -3.17,2.59 -0.64,-0.8 -1.4,-5.11 -1.32,-6.59 0.07,-1.27 0.28,-2.35 0.45,-3.59 0.18,-1.37 0.62,-2.02 -0.35,-2.97 -7.72,-7.47 -6.97,-14.55 -11.62,-19.77 -3.13,-3.51 -6.4,-3.93 -10.54,-0.51 -3.94,3.25 -0.83,7.13 1.65,10.16 1.46,1.79 2.37,2.58 3.68,4.15 0.59,0.7 1.29,1.35 1.93,2.04l3.59 4.23c1.78,2.27 3.26,4.37 4.68,7.01 1.81,3.36 3.31,7.09 4.55,10.93 2.73,8.49 -0.36,9.52 5.13,18.36l13.21 18.72 4.04 2.97c0.49,0.78 0.14,19.78 0.19,23.25 0.03,2.36 -0.45,6.48 3.17,5.64 0.54,-0.12 -0.06,0.2 0.68,-0.31 1.4,-0.98 1.18,-2.89 1.21,-4.52 0.14,-7.77 0.21,-15.58 0.06,-23.35 3.86,-0.49 9.42,-2.59 12.34,-4.32 0.89,-0.53 1.41,-1.13 2.42,-1.7 1.34,-0.75 6.16,3.1 7.96,3.84 0,8.44 0,16.87 0,25.3l0.08 18.79c0.05,1.61 -0.19,4.1 1.41,4.83 3.84,1.74 3.17,-6.05 3.21,-8.74 0.18,-11.93 -0.33,-23.73 0.3,-35.7 0.03,-0.6 0.04,-0.82 0.18,-1.42 1.03,0.11 3.26,1.29 3.58,2.08 0,6 -0.01,12.01 0.02,18.01 0.01,2.09 -0.63,6.54 1.9,7.17 3.64,0.91 3.14,-3.04 3.2,-5.39 0.15,-5.89 0.04,-11.92 0.04,-17.83 0,-1.31 -0.21,-3.23 0.6,-4.1 0.02,-0.03 0.06,-0.07 0.09,-0.1 0.03,-0.03 0.07,-0.07 0.09,-0.1l1.39 -1.56c0.26,-0.33 0.18,-0.2 0.46,-0.51l1.79 -2.3c2.6,-3.51 4.53,-7.99 6.31,-11.93l1.92 -4.72c0.2,-0.57 0.36,-1 0.57,-1.58 2.94,-8.05 5.05,-16.19 6.51,-24.62 1.06,-6.08 0.93,-10.56 0.34,-16.53 -0.18,-1.78 -0.08,-2.19 0.65,-3.64z"/>
  </g>
 </g>
</svg>
