<?xml version="1.0" encoding="UTF-8"?>
<!DOCTYPE svg PUBLIC "-//W3C//DTD SVG 1.1//EN" "http://www.w3.org/Graphics/SVG/1.1/DTD/svg11.dtd">
<!-- Creator: CorelDRAW 2019 (64-Bit) -->
<svg xmlns="http://www.w3.org/2000/svg" xml:space="preserve" width="256px" height="256px" version="1.1" style="shape-rendering:geometricPrecision; text-rendering:geometricPrecision; image-rendering:optimizeQuality; fill-rule:evenodd; clip-rule:evenodd"
viewBox="0 0 256 256"
 xmlns:xlink="http://www.w3.org/1999/xlink"
 xmlns:xodm="http://www.corel.com/coreldraw/odm/2003">
 <defs>
  <style type="text/css">
   <![CDATA[
    .fil0 {fill:none}
    .fil1 {fill:white}
    .fil2 {fill:red;fill-rule:nonzero}
   ]]>
  </style>
 </defs>
 <g id="Layer_x0020_1">
  <metadata id="CorelCorpID_0Corel-Layer"/>
  <rect class="fil0" width="256" height="256"/>
  <path class="fil1" d="M13 121.02l38.9 10.03 0 9.32 -30.46 -5.93 0 42.8 4.06 0.85 0 11.18 -4.06 -1.45 0 0.83 106.63 40.19 106.49 -40.19 0 -0.87 -4.06 1.45 0 -11.14 4.06 -0.85 0 -42.8 -30.46 5.93 0 -9.32 38.9 -10.03 0 54.45 0 19.65 -115.03 45.19 -114.97 -45.21 0 -10.29 -0.05 -0.02 0.05 -9.32 0 -54.45zm45.63 -54.48c13.44,-2.83 19.2,-13.48 19.2,-24.02 0,-12.61 -7.8,-24.89 -28.13,-24.89l-36.37 0 0 77.6 17.85 0 0 -27.82 8.7 0 20.33 27.82 21.68 0 -22.59 -28.69 -0.67 0zm-13.67 -35.65c8.47,0 15.47,1.52 15.47,11.63 0,9.89 -7,11.74 -15.47,11.74l-13.78 0 0 -23.37 13.78 0zm68.33 64.34l17.73 0 0 -63.25 25.41 0 0 -14.35 -68.78 0 0 14.24 25.64 0 0 63.36zm131.01 -39.13c0,-22.27 -18.86,-40.2 -41.79,-40.2 -23.04,0 -41.67,17.93 -41.67,40.2 0,22.17 18.63,40.1 41.67,40.1 22.93,0 41.79,-17.93 41.79,-40.1zm-41.79 -23.8c13.45,0 24.4,10.87 24.4,23.8 0,12.94 -10.95,23.69 -24.4,23.69 -13.44,0 -24.62,-10.75 -24.62,-23.69 0,-12.93 11.18,-23.8 24.62,-23.8zm-66.95 115.07l87.98 0.18 -31.32 28.76 -30.21 7.41 -26.45 -36.35zm-105.07 43.68l5.01 1.78 0 -12.64 -5.01 -1.05 0 11.91zm10.01 3.57l5 1.78 0 -14.11 -5 -1.05 0 13.38zm10 3.56l5 1.79 0 -15.58 -5 -1.05 0 14.84zm10 3.57l5 1.79 0 -17.05 -5 -1.05 0 16.31zm10 3.57l5 1.79 0 -18.52 -5 -1.05 0 17.78zm10 3.57l5 1.78 0 -19.98 -5 -1.05 0 19.25zm10 3.56l5 1.79 0 -21.45 -5 -1.05 0 20.71zm10 3.57l5 1.79 0 -22.92 -5 -1.05 0 22.18zm10 3.57l5 1.79 0 -24.39 -5 -1.05 0 23.65zm10 3.57l5 1.78 0 -25.85 -5 -1.05 0 25.12zm10 1.74l5 -1.78 0 -25.06 -5 1.05 0 25.79zm10 -3.56l5 -1.79 0 -23.59 -5 1.05 0 24.33zm10 -3.57l5 -1.79 0 -22.12 -5 1.05 0 22.86zm10 -3.57l5 -1.78 0 -20.67 -5 1.06 0 21.39zm10 -3.57l5 -1.78 0 -19.2 -5 1.05 0 19.93zm10 -3.56l5 -1.79 0 -17.73 -5 1.05 0 18.47zm10 -3.57l5 -1.78 0 -16.27 -5 1.05 0 17zm10 -3.57l5 -1.78 0 -14.8 -5 1.05 0 15.53zm10 -3.57l5 -1.78 0 -13.33 -5 1.05 0 14.06zm10 -3.56l5.01 -1.79 0 -11.86 -5.01 1.05 0 12.6zm-110.74 -7.05l18.08 6.01 18.4 -5.69 -9.56 -13.53 -18.08 0 -8.84 13.21zm11.15 -38.38l-87.97 0.18 31.31 28.76 30.21 7.41 26.45 -36.35zm-107.91 -46.65l115.04 24.16 114.96 -24.16 -0.05 9.32 -115.01 24.16 -114.99 -24.16 0.05 -9.32z"/>
  <path class="fil2" d="M77.29 210.39l-3.62 -4.81c0.59,-0.67 0.63,-1.6 0.15,-2.76 -0.48,-1.16 -1.79,-3.16 -3.93,-5.99l-24.1 -31.97c-2.14,-2.83 -3.7,-4.64 -4.69,-5.41 -0.99,-0.78 -1.89,-1 -2.69,-0.63l-3.63 -4.8c3.23,-1.49 7.46,-0.37 12.72,3.42 5.25,3.76 11.01,9.81 17.31,18.15 6.29,8.35 10.52,15.55 12.7,21.63 2.18,6.1 2.11,10.48 -0.22,13.17zm-55.75 -39.94c-3.31,-4.39 -2.43,-10.69 1.96,-14l160.59 -121.1c4.39,-3.31 10.69,-2.43 14,1.96l36.37 48.24c3.32,4.39 2.43,10.69 -1.96,14l-160.59 121.1c-4.39,3.31 -10.69,2.43 -14,-1.96l-36.37 -48.24zm160.9 -139.26l-162.49 122.54c-5.48,4.14 -6.59,12.01 -2.45,17.5l38.55 51.12c4.14,5.49 12.02,6.6 17.51,2.46l162.49 -122.54c5.48,-4.14 6.59,-12.02 2.45,-17.5l-38.55 -51.12c-4.14,-5.49 -12.02,-6.6 -17.51,-2.46zm-112.84 185c-0.42,0.31 -0.85,0.37 -1.29,0.14 -0.44,-0.21 -0.97,-0.73 -1.6,-1.57 -0.85,-1.12 -1.26,-2.16 -1.25,-3.11 0.02,-0.2 0.02,-0.37 0.01,-0.49 -0.02,-0.46 -0.15,-0.93 -0.39,-1.39 -0.23,-0.46 -0.81,-1.3 -1.73,-2.52l-0.49 -0.65 -28.89 -38.31c-0.92,-1.23 -1.57,-2.01 -1.94,-2.36 -0.39,-0.36 -0.8,-0.61 -1.24,-0.76 -0.11,-0.04 -0.27,-0.08 -0.47,-0.12 -0.92,-0.25 -1.8,-0.92 -2.62,-2.01 -0.65,-0.87 -1.02,-1.54 -1.1,-2.01 -0.09,-0.5 0.08,-0.9 0.5,-1.21l6.85 -5.17 42.51 56.37 -6.86 5.17zm-15.97 -76.38c0.43,-0.32 0.87,-0.36 1.32,-0.14 0.46,0.22 1,0.75 1.63,1.58 0.83,1.09 1.22,2.11 1.19,3.04 -0.02,0.24 -0.01,0.42 -0.01,0.54 0.02,0.47 0.16,0.93 0.39,1.4 0.24,0.45 0.81,1.29 1.73,2.51l0.5 0.66 29.01 38.47c0.8,1.06 1.37,1.76 1.7,2.08 0.33,0.33 0.66,0.56 1,0.72 0.16,0.07 0.4,0.14 0.69,0.21 1.02,0.26 1.95,0.95 2.81,2.1 0.61,0.81 0.96,1.47 1.05,1.96 0.08,0.5 -0.08,0.92 -0.5,1.24l-7.17 5.4c-0.42,0.32 -0.85,0.37 -1.3,0.14 -0.43,-0.21 -0.96,-0.73 -1.59,-1.57 -0.85,-1.11 -1.26,-2.16 -1.25,-3.11 0.02,-0.2 0.02,-0.37 0.01,-0.49 -0.02,-0.46 -0.15,-0.92 -0.39,-1.39 -0.23,-0.45 -0.81,-1.29 -1.73,-2.52l-0.49 -0.65 -28.89 -38.31c-0.93,-1.22 -1.58,-2.01 -1.95,-2.35 -0.38,-0.36 -0.79,-0.61 -1.23,-0.76 -0.11,-0.05 -0.27,-0.09 -0.47,-0.13 -0.92,-0.25 -1.8,-0.92 -2.62,-2.01 -0.65,-0.87 -1.02,-1.53 -1.1,-2.01 -0.1,-0.49 0.07,-0.89 0.49,-1.21l7.17 -5.4zm13.62 -4.38l-3.62 -4.79c0.85,-0.6 1.98,-0.82 3.39,-0.66 1.4,0.18 2.12,0.26 2.14,0.25 0.21,-0.16 0.12,-0.72 -0.26,-1.69 -0.38,-0.96 -0.44,-1.55 -0.17,-1.75 0.3,-0.23 0.68,-0.15 1.13,0.19 0.46,0.35 1.11,1.09 1.96,2.22l9.96 13.2c1.09,1.45 1.77,2.48 2.03,3.1 0.27,0.61 0.25,1.04 -0.05,1.27 -0.45,0.34 -1.62,-0.53 -3.53,-2.6 -0.88,-0.96 -1.6,-1.72 -2.13,-2.26 -2.25,-2.25 -4.31,-3.93 -6.17,-5.05 -1.88,-1.12 -3.44,-1.6 -4.68,-1.43zm39.96 54.15l-4.03 -5.35c0.71,-0.79 0.91,-1.79 0.61,-3.03 -0.31,-1.23 -1.14,-2.75 -2.49,-4.55 -2.26,-2.99 -5.68,-5.11 -10.26,-6.4 -0.16,-0.04 -0.28,-0.07 -0.36,-0.08 -4.47,-1.2 -8.18,-2.91 -11.13,-5.13 -2.94,-2.23 -6,-5.44 -9.18,-9.66 -4.2,-5.57 -7.05,-10.61 -8.5,-15.06 -1.47,-4.47 -1.23,-7.43 0.7,-8.88l0.23 -0.18 3.74 4.95c-0.32,0.72 -0.23,1.78 0.27,3.13 0.5,1.36 1.31,2.78 2.42,4.26 2.14,2.83 5.45,4.72 9.94,5.65 0.33,0.08 0.58,0.13 0.76,0.16 3.72,0.82 7.17,2.44 10.33,4.85 3.18,2.43 6.51,5.95 10.03,10.61 4.3,5.71 7.09,10.82 8.38,15.36 1.28,4.53 0.8,7.65 -1.46,9.35zm-4.77 -4.6l3.85 5.11c-0.8,0.56 -1.9,0.78 -3.3,0.67 -1.41,-0.11 -2.17,-0.12 -2.27,-0.04 -0.24,0.18 -0.16,0.73 0.22,1.65 0.38,0.92 0.44,1.48 0.17,1.69 -0.29,0.21 -0.73,0.09 -1.33,-0.36 -0.6,-0.46 -1.29,-1.21 -2.1,-2.28l-11.08 -14.69c-1.2,-1.6 -1.96,-2.74 -2.28,-3.43 -0.32,-0.7 -0.31,-1.17 0.02,-1.42 0.46,-0.34 1.71,0.63 3.78,2.92 1,1.1 1.81,1.97 2.4,2.57 2.38,2.42 4.61,4.29 6.71,5.62 2.1,1.35 3.83,2 5.21,1.99zm11.18 -24.03l-4.07 3.07 -3.78 -6.17 3.04 -2.29 -26.74 -29.81 -3.08 -5.07 5.85 -4.41 39.95 44.5c0.24,0.26 0.51,0.55 0.83,0.9 0.31,0.33 0.5,0.54 0.55,0.61 0.59,0.78 1.39,1.33 2.39,1.62 1.01,0.31 1.9,0.97 2.66,1.98 0.7,0.93 1.08,1.65 1.13,2.16 0.06,0.52 -0.24,1.01 -0.87,1.48l-6.32 4.77c-0.57,0.43 -1.13,0.54 -1.66,0.31 -0.54,-0.24 -1.16,-0.83 -1.89,-1.79 -0.66,-0.88 -1.05,-1.8 -1.15,-2.74 -0.09,-0.93 -0.46,-1.82 -1.08,-2.65 -0.08,-0.11 -0.22,-0.27 -0.43,-0.51 -0.19,-0.23 -0.44,-0.53 -0.75,-0.88l-4.58 -5.08zm-20.58 -21.47l17.24 27.87c0.27,0.45 0.54,0.89 0.82,1.31 0.29,0.42 0.57,0.82 0.84,1.18 0.65,0.86 1.28,1.56 1.89,2.08 0.6,0.52 1.16,0.86 1.67,1.01 0.23,0.08 0.47,0.15 0.75,0.23 0.92,0.24 1.8,0.92 2.64,2.02 0.63,0.84 0.98,1.54 1.06,2.1 0.08,0.56 -0.11,1.02 -0.59,1.38l-3.4 2.57c-0.5,0.37 -0.97,0.46 -1.42,0.26 -0.46,-0.22 -1.02,-0.76 -1.68,-1.64 -0.89,-1.18 -1.25,-2.25 -1.08,-3.19 0.06,-0.38 0.09,-0.68 0.07,-0.91 -0.08,-0.76 -0.36,-1.67 -0.84,-2.73 -0.48,-1.04 -1.28,-2.48 -2.4,-4.3l-23.57 -38.19 8 8.95zm40.36 5.67l9.93 16.06 -3.73 2.82 -41.14 -44.21c-0.09,-0.1 -0.23,-0.25 -0.39,-0.43 -1.56,-1.69 -2.68,-2.62 -3.37,-2.79 -0.62,-0.14 -1.12,-0.36 -1.49,-0.65 -0.37,-0.28 -0.75,-0.68 -1.15,-1.22 -0.71,-0.93 -1.09,-1.66 -1.15,-2.18 -0.05,-0.53 0.24,-1.04 0.88,-1.52l6.32 -4.77c0.58,-0.43 1.13,-0.54 1.67,-0.31 0.54,0.24 1.16,0.83 1.88,1.79 0.66,0.86 1.03,1.77 1.15,2.75 0.11,0.98 0.48,1.88 1.14,2.75 0.15,0.2 0.3,0.4 0.46,0.59 0.16,0.19 0.39,0.44 0.67,0.75l28.32 30.57zm-10.18 -12.52l-11.39 -18.48c-0.28,-0.47 -0.56,-0.92 -0.87,-1.38 -0.3,-0.46 -0.57,-0.84 -0.81,-1.16 -0.64,-0.85 -1.27,-1.55 -1.89,-2.06 -0.61,-0.52 -1.18,-0.87 -1.71,-1.03 -0.19,-0.06 -0.45,-0.14 -0.76,-0.22 -0.9,-0.22 -1.76,-0.88 -2.59,-1.97 -0.64,-0.85 -1,-1.56 -1.1,-2.14 -0.08,-0.56 0.12,-1.02 0.59,-1.38l3.41 -2.57c0.5,-0.38 0.98,-0.47 1.44,-0.25 0.46,0.19 1.03,0.75 1.72,1.67 0.87,1.15 1.23,2.22 1.05,3.17 -0.07,0.39 -0.1,0.7 -0.07,0.97 0.08,0.75 0.37,1.66 0.85,2.72 0.48,1.06 1.26,2.47 2.34,4.23l17.13 27.79 -7.34 -7.91zm29.68 3.18l-25.63 -33.98c-2.16,-2.88 -3.71,-4.73 -4.63,-5.55 -0.91,-0.81 -1.68,-1.11 -2.31,-0.89l-3.61 -4.79c3.11,-1.36 7.33,-0.03 12.65,3.97 5.33,4.02 11.24,10.33 17.74,18.96 6.5,8.62 10.95,16.04 13.35,22.27 2.38,6.21 2.5,10.63 0.33,13.25l-3.61 -4.79c0.39,-0.55 0.32,-1.37 -0.22,-2.47 -0.53,-1.1 -1.89,-3.1 -4.06,-5.98zm-3.52 2.66c2.13,2.82 3.67,4.66 4.61,5.5 0.93,0.84 1.72,1.14 2.36,0.91l3.61 4.79c-3.06,1.42 -7.27,0.1 -12.61,-3.93 -5.35,-4.04 -11.27,-10.37 -17.77,-18.99 -6.51,-8.62 -10.95,-16.04 -13.35,-22.27 -2.38,-6.22 -2.5,-10.64 -0.34,-13.25l3.61 4.79c-0.39,0.55 -0.32,1.39 0.23,2.52 0.55,1.13 1.88,3.11 4.02,5.94l25.63 33.99zm22.66 -35.1l-8 -8.83 -8.41 -13.47c-0.29,-0.45 -0.57,-0.88 -0.89,-1.33 -0.3,-0.44 -0.59,-0.85 -0.86,-1.21 -0.61,-0.81 -1.2,-1.46 -1.77,-1.97 -0.57,-0.5 -1.14,-0.87 -1.7,-1.11 -0.17,-0.06 -0.4,-0.14 -0.68,-0.22 -0.88,-0.28 -1.71,-0.96 -2.54,-2.05 -0.65,-0.87 -1.03,-1.56 -1.15,-2.12 -0.1,-0.55 0.06,-0.98 0.48,-1.3l3.28 -2.47c0.46,-0.35 0.91,-0.42 1.36,-0.19 0.43,0.21 0.99,0.77 1.69,1.69 0.88,1.17 1.25,2.21 1.12,3.12 -0.06,0.37 -0.07,0.68 -0.05,0.89 0.09,0.7 0.38,1.57 0.86,2.57 0.48,1.01 1.31,2.45 2.48,4.35l14.78 23.65zm15.28 24.67l-3.28 2.47 -31.12 -34.27 -13.32 -21.26 3.16 -2.38 31.98 35.26 12.58 20.18zm-20.79 -15.26l13.15 21.03 -3.27 2.46 -40.57 -44.68c-1.15,-1.26 -1.91,-2.05 -2.3,-2.38 -0.38,-0.32 -0.76,-0.53 -1.13,-0.67 -0.08,-0.02 -0.22,-0.06 -0.43,-0.12 -0.9,-0.23 -1.75,-0.86 -2.51,-1.88 -0.74,-0.97 -1.12,-1.7 -1.17,-2.21 -0.06,-0.52 0.23,-1.01 0.86,-1.48l6.33 -4.77c0.58,-0.44 1.15,-0.55 1.68,-0.33 0.55,0.23 1.18,0.82 1.9,1.78 0.67,0.89 1.04,1.8 1.14,2.75 0.09,0.96 0.45,1.85 1.08,2.68 0.12,0.16 0.29,0.36 0.49,0.6 0.22,0.26 0.45,0.52 0.71,0.82l24.04 26.4zm17.52 -24.36l-3.91 -5.19c0.16,-0.64 0.15,-1.3 -0.02,-1.97 -0.18,-0.68 -0.53,-1.5 -1.07,-2.47 -0.39,-0.72 -0.91,-1.67 -1.56,-2.8 -1.15,-2 -1.54,-3.13 -1.17,-3.41 0.28,-0.21 0.71,-0.05 1.31,0.48 0.59,0.54 1.49,1.61 2.71,3.22l10.68 14.17c1.1,1.45 1.81,2.52 2.14,3.21 0.33,0.7 0.36,1.15 0.08,1.36 -0.38,0.29 -1.37,-0.41 -2.96,-2.05 -0.88,-0.9 -1.61,-1.62 -2.19,-2.2 -0.81,-0.81 -1.53,-1.4 -2.14,-1.75 -0.61,-0.36 -1.25,-0.56 -1.9,-0.6zm19.93 26.43l-3.91 -5.19c0.72,-0.87 1.01,-2.04 0.89,-3.51 -0.13,-1.47 -0.7,-3.27 -1.7,-5.42 -0.35,-0.78 -1.02,-1.97 -1.99,-3.55 -1.5,-2.5 -2.04,-3.91 -1.61,-4.23 0.35,-0.27 0.89,-0.07 1.61,0.62 0.72,0.67 1.96,2.17 3.73,4.51l9.14 12.13 -6.16 4.64zm-7.77 5.86c-0.42,0.32 -0.85,0.37 -1.3,0.15 -0.43,-0.22 -0.96,-0.74 -1.6,-1.58 -0.84,-1.11 -1.25,-2.14 -1.23,-3.09 0.01,-0.22 0.01,-0.39 0,-0.5 -0.02,-0.47 -0.16,-0.93 -0.38,-1.39 -0.24,-0.46 -0.82,-1.3 -1.73,-2.51l-0.5 -0.67 -28.9 -38.32c-0.93,-1.23 -1.58,-2.01 -1.95,-2.36 -0.37,-0.34 -0.78,-0.59 -1.22,-0.74 -0.11,-0.05 -0.28,-0.09 -0.48,-0.14 -0.92,-0.25 -1.79,-0.91 -2.61,-2 -0.66,-0.87 -1.02,-1.53 -1.1,-2.01 -0.1,-0.49 0.07,-0.89 0.49,-1.21l6.86 -5.17 42.51 56.37 -6.86 5.17zm-34.74 -62.23l5.97 -4.5 11.31 15c0.54,0.72 0.91,1.36 1.1,1.9 0.19,0.55 0.18,0.91 -0.06,1.09 -0.42,0.32 -1.59,-0.49 -3.5,-2.43 -1.24,-1.26 -2.21,-2.18 -2.89,-2.75 -1.65,-1.4 -3.17,-2.36 -4.55,-2.89 -1.37,-0.53 -2.52,-0.6 -3.46,-0.23l-3.92 -5.19zm59.77 43.36l-3.62 -4.81c0.58,-0.67 0.62,-1.6 0.15,-2.76 -0.48,-1.16 -1.79,-3.16 -3.93,-5.99l-24.11 -31.97c-2.13,-2.83 -3.7,-4.64 -4.69,-5.41 -0.99,-0.78 -1.89,-1 -2.69,-0.63l-3.62 -4.8c3.23,-1.49 7.46,-0.36 12.71,3.41 5.25,3.77 11.02,9.82 17.31,18.16 6.29,8.35 10.52,15.55 12.7,21.63 2.19,6.1 2.11,10.48 -0.21,13.17zm-7.69 5.8c-0.42,0.31 -0.85,0.37 -1.3,0.14 -0.44,-0.21 -0.97,-0.73 -1.6,-1.57 -0.84,-1.12 -1.26,-2.16 -1.24,-3.11 0.01,-0.2 0.02,-0.37 0.01,-0.49 -0.03,-0.46 -0.16,-0.93 -0.39,-1.39 -0.24,-0.46 -0.81,-1.29 -1.73,-2.52l-0.5 -0.65 -28.89 -38.31c-0.92,-1.23 -1.57,-2.01 -1.94,-2.36 -0.38,-0.36 -0.8,-0.61 -1.23,-0.76 -0.11,-0.04 -0.28,-0.08 -0.47,-0.12 -0.92,-0.25 -1.8,-0.92 -2.62,-2.02 -0.66,-0.86 -1.02,-1.53 -1.11,-2 -0.09,-0.49 0.08,-0.9 0.5,-1.21l6.86 -5.17 42.51 56.37 -6.86 5.17z"/>
 </g>
</svg>
