<?xml version="1.0" encoding="UTF-8"?>
<!DOCTYPE svg PUBLIC "-//W3C//DTD SVG 1.1//EN" "http://www.w3.org/Graphics/SVG/1.1/DTD/svg11.dtd">
<!-- Creator: CorelDRAW 2019 (64-Bit) -->
<svg xmlns="http://www.w3.org/2000/svg" xml:space="preserve" width="256px" height="256px" version="1.1" style="shape-rendering:geometricPrecision; text-rendering:geometricPrecision; image-rendering:optimizeQuality; fill-rule:evenodd; clip-rule:evenodd"
viewBox="0 0 256 256"
 xmlns:xlink="http://www.w3.org/1999/xlink"
 xmlns:xodm="http://www.corel.com/coreldraw/odm/2003">
 <defs>
  <style type="text/css">
   <![CDATA[
    .fil0 {fill:none}
    .fil1 {fill:black}
   ]]>
  </style>
 </defs>
 <g id="Layer_x0020_1">
  <metadata id="CorelCorpID_0Corel-Layer"/>
  <rect class="fil0" width="256" height="256"/>
  <path class="fil1" d="M13 121.02l38.9 10.03 0 9.32 -30.46 -5.93 0 42.8 4.06 0.85 0 11.18 -4.06 -1.45 0 0.83 106.63 40.19 106.49 -40.19 0 -0.87 -4.06 1.45 0 -11.14 4.06 -0.85 0 -42.8 -30.46 5.93 0 -9.32 38.9 -10.03 0 54.45 0 19.65 -115.03 45.19 -114.97 -45.21 0 -10.29 -0.05 -0.02 0.05 -9.32 0 -54.45zm63.2 -40.43c-4,-3.48 -4.13,-3.96 -8.38,-8.16 -2.25,8.16 -6.63,13.32 -11.63,13.32 -7.32,0 -13.26,-11.4 -13.26,-25.44 0,-13.93 5.94,-25.45 13.26,-25.45 4.81,0 9.06,5.04 11.25,12.36 4.25,-3.96 4.57,-4.32 8.38,-8.16 -3.81,-13.08 -11.07,-22.2 -19.63,-22.2 -12.51,0 -22.64,19.68 -22.64,43.45 0,24 10.13,43.45 22.64,43.45 8.81,0 16.19,-9.36 20.01,-23.17zm31.14 -8.76c7.44,-3.12 10.63,-14.88 10.63,-26.53 0,-13.92 -4.32,-27.48 -15.57,-27.48l-20.14 0 0 85.7 9.88 0 0 -30.73 4.82 0 11.25 30.73 12.01 0 -12.51 -31.69 -0.37 0zm-7.57 -39.37c4.69,0 8.57,1.68 8.57,12.84 0,10.93 -3.88,12.97 -8.57,12.97l-7.63 0 0 -25.81 7.63 0zm56.4 36.85l0 -16.68 -20.38 0 0 -19.33 23.07 0 0 -15.84 -32.58 0 0 86.06 34.7 0 0 -15.85 -25.19 0 0 -18.36 20.38 0zm66.28 -51.49l-9.63 0 -6.57 59.17 -0.87 -0.12 -7.63 -59.05 -9.19 0 -7.76 58.33 -0.87 0.24 -6.32 -58.57 -9.81 0 11.82 85.7 9.94 0 7.44 -58.34 0.12 0 7.57 58.34 9.75 0 12.01 -85.7zm-86.89 129.55l87.98 0.18 -31.32 28.76 -30.21 7.41 -26.45 -36.35zm-105.07 43.68l5.01 1.78 0 -12.64 -5.01 -1.05 0 11.91zm10.01 3.57l5 1.78 0 -14.11 -5 -1.05 0 13.38zm10 3.56l5 1.79 0 -15.58 -5 -1.05 0 14.84zm10 3.57l5 1.79 0 -17.05 -5 -1.05 0 16.31zm10 3.57l5 1.79 0 -18.52 -5 -1.05 0 17.78zm10 3.57l5 1.78 0 -19.98 -5 -1.05 0 19.25zm10 3.56l5 1.79 0 -21.45 -5 -1.05 0 20.71zm10 3.57l5 1.79 0 -22.92 -5 -1.05 0 22.18zm10 3.57l5 1.79 0 -24.39 -5 -1.05 0 23.65zm10 3.57l5 1.78 0 -25.85 -5 -1.05 0 25.12zm10 1.74l5 -1.78 0 -25.06 -5 1.05 0 25.79zm10 -3.56l5 -1.79 0 -23.59 -5 1.05 0 24.33zm10 -3.57l5 -1.79 0 -22.12 -5 1.05 0 22.86zm10 -3.57l5 -1.78 0 -20.67 -5 1.06 0 21.39zm10 -3.57l5 -1.78 0 -19.2 -5 1.05 0 19.93zm10 -3.56l5 -1.79 0 -17.73 -5 1.05 0 18.47zm10 -3.57l5 -1.78 0 -16.27 -5 1.05 0 17zm10 -3.57l5 -1.78 0 -14.8 -5 1.05 0 15.53zm10 -3.57l5 -1.78 0 -13.33 -5 1.05 0 14.06zm10 -3.56l5.01 -1.79 0 -11.86 -5.01 1.05 0 12.6zm-110.74 -7.05l18.08 6.01 18.4 -5.69 -9.56 -13.53 -18.08 0 -8.84 13.21zm11.15 -38.38l-87.97 0.18 31.31 28.76 30.21 7.41 26.45 -36.35zm-107.91 -46.65l115.04 24.16 114.96 -24.16 -0.05 9.32 -115.01 24.16 -114.99 -24.16 0.05 -9.32z"/>
 </g>
</svg>
