<?xml version="1.0" encoding="UTF-8"?>
<!DOCTYPE svg PUBLIC "-//W3C//DTD SVG 1.1//EN" "http://www.w3.org/Graphics/SVG/1.1/DTD/svg11.dtd">
<!-- Creator: CorelDRAW 2019 (64-Bit) -->
<svg xmlns="http://www.w3.org/2000/svg" xml:space="preserve" width="256px" height="256px" version="1.1" style="shape-rendering:geometricPrecision; text-rendering:geometricPrecision; image-rendering:optimizeQuality; fill-rule:evenodd; clip-rule:evenodd"
viewBox="0 0 256 256"
 xmlns:xlink="http://www.w3.org/1999/xlink"
 xmlns:xodm="http://www.corel.com/coreldraw/odm/2003">
 <defs>
  <style type="text/css">
   <![CDATA[
    .fil0 {fill:none}
    .fil1 {fill:black}
   ]]>
  </style>
 </defs>
 <g id="Layer_x0020_1">
  <metadata id="CorelCorpID_0Corel-Layer"/>
  <rect class="fil0" width="256" height="256"/>
  <path class="fil1" d="M13 121.02l38.9 10.03 0 9.32 -30.46 -5.93 0 42.8 4.06 0.85 0 11.18 -4.06 -1.45 0 0.83 106.63 40.19 106.49 -40.19 0 -0.87 -4.06 1.45 0 -11.14 4.06 -0.85 0 -42.8 -30.46 5.93 0 -9.32 38.9 -10.03 0 54.45 0 19.65 -115.03 45.19 -114.97 -45.21 0 -10.29 -0.05 -0.02 0.05 -9.32 0 -54.45zm45.63 -54.48c13.44,-2.83 19.2,-13.48 19.2,-24.02 0,-12.61 -7.8,-24.89 -28.13,-24.89l-36.37 0 0 77.6 17.85 0 0 -27.82 8.7 0 20.33 27.82 21.68 0 -22.59 -28.69 -0.67 0zm-13.67 -35.65c8.47,0 15.47,1.52 15.47,11.63 0,9.89 -7,11.74 -15.47,11.74l-13.78 0 0 -23.37 13.78 0zm68.33 64.34l17.73 0 0 -63.25 25.41 0 0 -14.35 -68.78 0 0 14.24 25.64 0 0 63.36zm131.01 -39.13c0,-22.27 -18.86,-40.2 -41.79,-40.2 -23.04,0 -41.67,17.93 -41.67,40.2 0,22.17 18.63,40.1 41.67,40.1 22.93,0 41.79,-17.93 41.79,-40.1zm-41.79 -23.8c13.45,0 24.4,10.87 24.4,23.8 0,12.94 -10.95,23.69 -24.4,23.69 -13.44,0 -24.62,-10.75 -24.62,-23.69 0,-12.93 11.18,-23.8 24.62,-23.8zm-66.95 115.07l87.98 0.18 -31.32 28.76 -30.21 7.41 -26.45 -36.35zm-105.07 43.68l5.01 1.78 0 -12.64 -5.01 -1.05 0 11.91zm10.01 3.57l5 1.78 0 -14.11 -5 -1.05 0 13.38zm10 3.56l5 1.79 0 -15.58 -5 -1.05 0 14.84zm10 3.57l5 1.79 0 -17.05 -5 -1.05 0 16.31zm10 3.57l5 1.79 0 -18.52 -5 -1.05 0 17.78zm10 3.57l5 1.78 0 -19.98 -5 -1.05 0 19.25zm10 3.56l5 1.79 0 -21.45 -5 -1.05 0 20.71zm10 3.57l5 1.79 0 -22.92 -5 -1.05 0 22.18zm10 3.57l5 1.79 0 -24.39 -5 -1.05 0 23.65zm10 3.57l5 1.78 0 -25.85 -5 -1.05 0 25.12zm10 1.74l5 -1.78 0 -25.06 -5 1.05 0 25.79zm10 -3.56l5 -1.79 0 -23.59 -5 1.05 0 24.33zm10 -3.57l5 -1.79 0 -22.12 -5 1.05 0 22.86zm10 -3.57l5 -1.78 0 -20.67 -5 1.06 0 21.39zm10 -3.57l5 -1.78 0 -19.2 -5 1.05 0 19.93zm10 -3.56l5 -1.79 0 -17.73 -5 1.05 0 18.47zm10 -3.57l5 -1.78 0 -16.27 -5 1.05 0 17zm10 -3.57l5 -1.78 0 -14.8 -5 1.05 0 15.53zm10 -3.57l5 -1.78 0 -13.33 -5 1.05 0 14.06zm10 -3.56l5.01 -1.79 0 -11.86 -5.01 1.05 0 12.6zm-110.74 -7.05l18.08 6.01 18.4 -5.69 -9.56 -13.53 -18.08 0 -8.84 13.21zm11.15 -38.38l-87.97 0.18 31.31 28.76 30.21 7.41 26.45 -36.35zm-107.91 -46.65l115.04 24.16 114.96 -24.16 -0.05 9.32 -115.01 24.16 -114.99 -24.16 0.05 -9.32z"/>
 </g>
</svg>
