<svg width="95.348" height="95.347" xmlns="http://www.w3.org/2000/svg" version="1.1" xml:space="preserve">
 <g>
  <title>Layer 1</title>
  <g id="svg_6"/>
  <g id="svg_7"/>
  <g id="svg_8"/>
  <g id="svg_9"/>
  <g id="svg_10"/>
  <g id="svg_11"/>
  <g id="svg_12"/>
  <g id="svg_13"/>
  <g id="svg_14"/>
  <g id="svg_15"/>
  <g id="svg_16"/>
  <g id="svg_17"/>
  <g id="svg_18"/>
  <g id="svg_19"/>
  <g id="svg_20"/>
  <g id="svg_1">
   <g id="svg_2">
    <path d="m56.527,60.84489l-4.662,-1.033c-0.047,-3.138 -0.719,-6.168 -1.996,-9.007l3.606,-2.92c0.858,-0.695 0.99,-1.954 0.296,-2.813l-4.521,-5.584c-0.334,-0.413 -0.818,-0.675 -1.346,-0.731c-0.525,-0.057 -1.056,0.102 -1.468,0.435l-3.511,2.846l0,0c-2.486,-1.907 -5.277,-3.259 -8.297,-4.019l0,-4.458c0,-1.104 -0.896,-2 -2,-2l-7.183,0c-1.104,0 -2,0.896 -2,2l0,4.461c-3.08,0.777 -5.922,2.171 -8.447,4.144l-3.545,-2.82c-0.415,-0.33 -0.94,-0.479 -1.472,-0.422c-0.527,0.06 -1.009,0.327 -1.339,0.743l-4.472,5.623c-0.688,0.864 -0.544,2.123 0.32,2.81l3.642,2.896l0,0c-1.25,2.848 -1.895,5.879 -1.916,9.01l-4.666,1.078c-1.076,0.25 -1.747,1.322 -1.499,2.398l1.616,7.001c0.249,1.077 1.325,1.747 2.399,1.499l4.813,-1.111l0,0c1.429,2.682 3.344,5.018 5.691,6.943l-2.17,4.55c-0.476,0.997 -0.054,2.19 0.943,2.666l6.484,3.095c0.271,0.129 0.566,0.194 0.861,0.194c0.226,0 0.451,-0.038 0.668,-0.114c0.5,-0.178 0.909,-0.545 1.138,-1.024l2.198,-4.611c2.923,0.563 5.966,0.554 8.879,-0.032l2.236,4.584c0.484,0.994 1.685,1.403 2.675,0.922l6.456,-3.148c0.992,-0.484 1.405,-1.682 0.921,-2.674l-2.206,-4.524c2.335,-1.946 4.231,-4.301 5.639,-6.999l4.812,1.067c1.076,0.237 2.146,-0.441 2.385,-1.521l1.557,-7.014c0.114,-0.518 0.02,-1.061 -0.267,-1.508c-0.284,-0.448 -0.734,-0.764 -1.252,-0.878zm-18.671,-0.687c0,4.859 -3.953,8.812 -8.813,8.812c-4.858,0 -8.811,-3.953 -8.811,-8.812s3.952,-8.812 8.811,-8.812c4.86,0.001 8.813,3.953 8.813,8.812z" id="svg_3" fill="#ffffff" stroke="#b2b2b2"/>
    <path d="m61.943,43.72189c0.746,0 1.463,-0.42 1.807,-1.139l1.054,-2.208c1.826,0.353 3.735,0.345 5.551,-0.021l1.07,2.195c0.483,0.992 1.682,1.405 2.675,0.921l2.691,-1.313c0.477,-0.233 0.842,-0.646 1.015,-1.147c0.172,-0.501 0.139,-1.051 -0.095,-1.528l-1.053,-2.155c1.458,-1.214 2.646,-2.686 3.527,-4.377l2.278,0.504c1.074,0.238 2.146,-0.442 2.386,-1.52l0.646,-2.923c0.238,-1.078 -0.441,-2.146 -1.521,-2.385l-2.184,-0.484c-0.028,-1.962 -0.449,-3.857 -1.248,-5.632l1.673,-1.355c0.412,-0.334 0.675,-0.818 0.729,-1.345c0.056,-0.527 -0.102,-1.056 -0.436,-1.468l-1.884,-2.327c-0.697,-0.859 -1.957,-0.99 -2.813,-0.295l-1.614,1.307c-1.554,-1.193 -3.299,-2.038 -5.188,-2.513l0,-2.04c0,-1.104 -0.896,-2 -2,-2l-2.994,0c-1.104,0 -2,0.896 -2,2l0,2.04c-1.927,0.486 -3.703,1.358 -5.28,2.592l-1.634,-1.298c-0.862,-0.687 -2.12,-0.543 -2.81,0.32l-1.861,2.345c-0.33,0.416 -0.481,0.945 -0.422,1.472c0.061,0.527 0.327,1.009 0.743,1.339l1.689,1.345c-0.78,1.779 -1.184,3.676 -1.197,5.636l-2.188,0.505c-0.518,0.119 -0.965,0.439 -1.246,0.889c-0.281,0.45 -0.372,0.993 -0.252,1.51l0.675,2.918c0.249,1.076 1.323,1.747 2.398,1.498l2.279,-0.527c0.893,1.676 2.09,3.137 3.56,4.343l-1.035,2.17c-0.229,0.479 -0.257,1.028 -0.08,1.528c0.178,0.5 0.546,0.91 1.024,1.138l2.702,1.289c0.281,0.132 0.574,0.196 0.863,0.196zm0.067,-17.364c0,-3.039 2.473,-5.51 5.512,-5.51c3.038,0 5.51,2.472 5.51,5.51c0,3.039 -2.472,5.511 -5.51,5.511c-3.04,0 -5.512,-2.472 -5.512,-5.511z" id="svg_4" stroke="#999999" fill="#ffffff"/>
    <path d="m93.782,64.83789l-2.182,-0.483c-0.028,-1.961 -0.449,-3.856 -1.25,-5.632l1.675,-1.355c0.412,-0.334 0.675,-0.818 0.73,-1.346s-0.103,-1.057 -0.437,-1.468l-1.885,-2.327c-0.695,-0.859 -1.956,-0.99 -2.813,-0.295l-1.613,1.307c-1.556,-1.193 -3.3,-2.038 -5.188,-2.513l0,-2.039c0,-1.104 -0.896,-2 -2,-2l-2.994,0c-1.104,0 -2,0.896 -2,2l0,2.041c-1.929,0.485 -3.706,1.358 -5.281,2.592l-0.001,0l-1.632,-1.298c-0.415,-0.331 -0.938,-0.482 -1.472,-0.422c-0.527,0.061 -1.009,0.326 -1.339,0.742l-1.863,2.343c-0.688,0.864 -0.544,2.123 0.32,2.812l1.691,1.344c-0.782,1.785 -1.187,3.681 -1.199,5.637l-2.188,0.505c-0.517,0.12 -0.965,0.438 -1.246,0.89c-0.28,0.449 -0.372,0.992 -0.252,1.51l0.675,2.918c0.249,1.076 1.327,1.744 2.397,1.498l2.281,-0.526c0.893,1.677 2.09,3.138 3.558,4.343l0.001,0l-1.035,2.168c-0.229,0.479 -0.258,1.029 -0.081,1.529c0.179,0.5 0.546,0.909 1.024,1.138l2.702,1.289c0.277,0.132 0.571,0.195 0.859,0.195c0.746,0 1.464,-0.42 1.807,-1.14l1.054,-2.207c1.828,0.353 3.739,0.347 5.552,-0.021l1.071,2.193c0.484,0.992 1.682,1.406 2.675,0.922l2.69,-1.312c0.477,-0.232 0.842,-0.645 1.014,-1.146c0.173,-0.501 0.141,-1.051 -0.093,-1.528l-1.052,-2.155c1.459,-1.215 2.645,-2.688 3.524,-4.377l2.278,0.506c0.52,0.115 1.061,0.02 1.508,-0.267c0.447,-0.285 0.763,-0.735 0.878,-1.254l0.647,-2.923c0.245,-1.081 -0.436,-2.148 -1.515,-2.388zm-10.944,-0.267c0,3.039 -2.472,5.511 -5.509,5.511c-3.038,0 -5.512,-2.472 -5.512,-5.511s2.474,-5.511 5.512,-5.511c3.037,0.001 5.509,2.473 5.509,5.511z" id="svg_5" fill="#ffffff" stroke="#b2b2b2"/>
   </g>
  </g>
 </g>

</svg>